%TF.GenerationSoftware,KiCad,Pcbnew,(6.0.2-0)*%
%TF.CreationDate,2022-05-29T20:11:08-07:00*%
%TF.ProjectId,sweepv2,73776565-7076-4322-9e6b-696361645f70,rev?*%
%TF.SameCoordinates,Original*%
%TF.FileFunction,Profile,NP*%
%FSLAX46Y46*%
G04 Gerber Fmt 4.6, Leading zero omitted, Abs format (unit mm)*
G04 Created by KiCad (PCBNEW (6.0.2-0)) date 2022-05-29 20:11:08*
%MOMM*%
%LPD*%
G01*
G04 APERTURE LIST*
%TA.AperFunction,Profile*%
%ADD10C,0.050000*%
%TD*%
G04 APERTURE END LIST*
D10*
X147269200Y-74472800D02*
X146913600Y-74472800D01*
X149098000Y-74472800D02*
G75*
G03*
X147269200Y-74472800I-914400J0D01*
G01*
X149453600Y-74472800D02*
X149098000Y-74472800D01*
X149148800Y-51968400D02*
X149428200Y-51968400D01*
X147167600Y-51968400D02*
X146939000Y-51968400D01*
X149148800Y-51968400D02*
G75*
G03*
X147167600Y-51968400I-990600J0D01*
G01*
X147294226Y-46075600D02*
G75*
G03*
X149021800Y-46151800I863228J-50778D01*
G01*
X25730200Y-108229400D02*
X17678400Y-96266000D01*
X59055180Y-23374308D02*
G75*
G03*
X57988200Y-24434800I9818J-1076878D01*
G01*
X57353200Y-26009600D02*
G75*
G03*
X57988200Y-25374600I1J634999D01*
G01*
X146964400Y-46075600D02*
X146964400Y-37947600D01*
X110947200Y-25146000D02*
X94564200Y-25146000D01*
X111709200Y-36804600D02*
G75*
G03*
X112166400Y-37261800I457201J1D01*
G01*
X146913600Y-87020400D02*
X146913600Y-74472800D01*
X147269202Y-68656200D02*
G75*
G03*
X148183600Y-69545552I914398J25399D01*
G01*
X57988200Y-24434800D02*
X57988200Y-25374600D01*
X146964400Y-37947600D02*
G75*
G03*
X146278600Y-37261800I-685799J1D01*
G01*
X147294227Y-46075600D02*
X146964400Y-46075600D01*
X18084800Y-46355001D02*
G75*
G03*
X17658332Y-46775732I-5698J-420731D01*
G01*
X111709200Y-36804600D02*
X111709200Y-25908000D01*
X145719800Y-88214200D02*
G75*
G03*
X77078666Y-95695027I578029J-323956237D01*
G01*
X38388198Y-46348918D02*
G75*
G03*
X40423199Y-44417999I35000J2000920D01*
G01*
X25730201Y-108229399D02*
G75*
G03*
X28465795Y-108847420I1752851J1395387D01*
G01*
X40423155Y-27093419D02*
X40423199Y-44417999D01*
X41495252Y-26001558D02*
G75*
G03*
X40423155Y-27093419I9883J-1081980D01*
G01*
X111709200Y-25908000D02*
G75*
G03*
X110947200Y-25146000I-762001J-1D01*
G01*
X146913600Y-68656200D02*
X146939000Y-51968400D01*
X17627600Y-96012000D02*
G75*
G03*
X17678400Y-96266000I660382J-3D01*
G01*
X77078666Y-95695027D02*
G75*
G03*
X28465795Y-108847420I18011982J-162990302D01*
G01*
X92862400Y-18364200D02*
X76657200Y-18338800D01*
X75331283Y-19558000D02*
X75336400Y-21082000D01*
X18084800Y-46355000D02*
X38388198Y-46348917D01*
X93802200Y-24384000D02*
X93802200Y-19308139D01*
X93802200Y-24384000D02*
G75*
G03*
X94564200Y-25146000I762001J1D01*
G01*
X146278600Y-37261800D02*
X112166400Y-37261800D01*
X75336400Y-21082001D02*
G75*
G03*
X72618600Y-23368000I15736J-2777289D01*
G01*
X147269200Y-68656200D02*
X146913600Y-68656200D01*
X93802199Y-19308139D02*
G75*
G03*
X92862400Y-18364200I-943948J0D01*
G01*
X57353200Y-26009600D02*
X41495252Y-26001558D01*
X59055180Y-23374308D02*
X72618600Y-23368000D01*
X17627600Y-96012000D02*
X17658332Y-46775732D01*
X76657200Y-18338800D02*
G75*
G03*
X75331283Y-19558000I-122902J-1196928D01*
G01*
X145719800Y-88214200D02*
G75*
G03*
X146913600Y-87020400I16186J1177614D01*
G01*
X267901405Y-108847420D02*
G75*
G03*
X219288534Y-95695027I-66624853J-149837909D01*
G01*
X149453600Y-87020400D02*
G75*
G03*
X150647400Y-88214200I1193800J0D01*
G01*
X278688800Y-96266000D02*
X270637000Y-108229400D01*
X278688800Y-96266000D02*
G75*
G03*
X278739600Y-96012000I-609600J254000D01*
G01*
X278708868Y-46775732D02*
X278739600Y-96012000D01*
X257937000Y-46348917D02*
X278282400Y-46355000D01*
X278708868Y-46775732D02*
G75*
G03*
X278282400Y-46355000I-420771J0D01*
G01*
X149453600Y-74472800D02*
X149453600Y-87020400D01*
X148183600Y-69545552D02*
G75*
G03*
X149097999Y-68656200I0J914752D01*
G01*
X149453600Y-68656200D02*
X149098000Y-68656200D01*
X149428200Y-51968400D02*
X149453600Y-68656200D01*
X149402800Y-46151800D02*
X149021800Y-46151800D01*
X149402800Y-37947600D02*
X149402800Y-46151800D01*
X150088600Y-37261800D02*
G75*
G03*
X149402800Y-37947600I0J-685800D01*
G01*
X184200800Y-37261800D02*
X150088600Y-37261800D01*
X184200800Y-37261800D02*
G75*
G03*
X184658000Y-36804600I0J457200D01*
G01*
X184658000Y-25908000D02*
X184658000Y-36804600D01*
X185420000Y-25146000D02*
G75*
G03*
X184658000Y-25908000I0J-762000D01*
G01*
X201803000Y-25146000D02*
X185420000Y-25146000D01*
X201803000Y-25146000D02*
G75*
G03*
X202565000Y-24384000I0J762000D01*
G01*
X202565000Y-19308139D02*
X202565000Y-24384000D01*
X203504800Y-18364200D02*
G75*
G03*
X202565000Y-19308139I4144J-943935D01*
G01*
X220243220Y-18370508D02*
X203504800Y-18364200D01*
X221310199Y-19456400D02*
G75*
G03*
X220243220Y-18370508I-1076821J9078D01*
G01*
X221310200Y-21183600D02*
X221310200Y-19456400D01*
X224014371Y-23380506D02*
X237312020Y-23374308D01*
X224014371Y-23380506D02*
G75*
G03*
X221310200Y-21183600I-2729571J-597094D01*
G01*
X238378999Y-24434800D02*
G75*
G03*
X237312020Y-23374308I-1076818J-16406D01*
G01*
X238379000Y-25374600D02*
X238379000Y-24434800D01*
X238379000Y-25374600D02*
G75*
G03*
X239014000Y-26009600I635000J0D01*
G01*
X254871948Y-26001558D02*
X239014000Y-26009600D01*
X255944045Y-27093419D02*
G75*
G03*
X254871948Y-26001558I-1081979J9882D01*
G01*
X219288534Y-95695027D02*
G75*
G03*
X150647400Y-88214200I-69219163J-316475410D01*
G01*
X255944001Y-44417999D02*
X255944045Y-27093419D01*
X267901405Y-108847420D02*
G75*
G03*
X270637000Y-108229400I945326J2179031D01*
G01*
X255944000Y-44417999D02*
G75*
G03*
X257937000Y-46348917I1999705J70001D01*
G01*
M02*
