%TF.GenerationSoftware,KiCad,Pcbnew,(6.0.2-0)*%
%TF.CreationDate,2022-05-29T20:11:08-07:00*%
%TF.ProjectId,sweepv2,73776565-7076-4322-9e6b-696361645f70,rev?*%
%TF.SameCoordinates,Original*%
%TF.FileFunction,Soldermask,Top*%
%TF.FilePolarity,Negative*%
%FSLAX46Y46*%
G04 Gerber Fmt 4.6, Leading zero omitted, Abs format (unit mm)*
G04 Created by KiCad (PCBNEW (6.0.2-0)) date 2022-05-29 20:11:08*
%MOMM*%
%LPD*%
G01*
G04 APERTURE LIST*
%ADD10C,0.990600*%
%ADD11C,3.429000*%
%ADD12C,1.701800*%
%ADD13C,2.282000*%
%ADD14C,4.400000*%
%ADD15C,0.900000*%
%ADD16C,2.000000*%
%ADD17C,1.397000*%
%ADD18C,0.500000*%
G04 APERTURE END LIST*
D10*
%TO.C,SW5_r1*%
X79158800Y-22901800D03*
D11*
X84378800Y-27101800D03*
D12*
X78878800Y-27101800D03*
D10*
X89598800Y-22901800D03*
D12*
X89878800Y-27101800D03*
D13*
X84378800Y-33001800D03*
X79378800Y-30901800D03*
%TD*%
D10*
%TO.C,SW6_r1*%
X61124800Y-28159600D03*
D11*
X66344800Y-32359600D03*
D12*
X60844800Y-32359600D03*
D10*
X71564800Y-28159600D03*
D12*
X71844800Y-32359600D03*
D13*
X66344800Y-38259600D03*
X61344800Y-36159600D03*
%TD*%
D14*
%TO.C,REF\u002A\u002A*%
X240352000Y-42936000D03*
X202252000Y-42936000D03*
X221302000Y-23886000D03*
X221302000Y-61986000D03*
%TD*%
D10*
%TO.C,SW6*%
X224599200Y-28159600D03*
D11*
X229819200Y-32359600D03*
D12*
X224319200Y-32359600D03*
D10*
X235039200Y-28159600D03*
D12*
X235319200Y-32359600D03*
D13*
X229819200Y-38259600D03*
X224819200Y-36159600D03*
%TD*%
D10*
%TO.C,SW22_r1*%
X35269531Y-98358300D03*
D11*
X28584536Y-97911930D03*
D12*
X33089872Y-94757260D03*
D10*
X26717583Y-104346438D03*
D12*
X24079200Y-101066600D03*
D13*
X25200435Y-93078933D03*
X30500706Y-91931270D03*
%TD*%
D10*
%TO.C,SW21_r1*%
X53906573Y-91859853D03*
D11*
X47777400Y-89154000D03*
D12*
X53089992Y-87730495D03*
D10*
X43822307Y-94561924D03*
D12*
X42464808Y-90577505D03*
D13*
X46250368Y-83455038D03*
X51623517Y-84189387D03*
%TD*%
D10*
%TO.C,SW20_r1*%
X73292000Y-90610800D03*
D11*
X68072000Y-86410800D03*
D12*
X73572000Y-86410800D03*
D10*
X62852000Y-90610800D03*
D12*
X62572000Y-86410800D03*
D13*
X68072000Y-80510800D03*
X73072000Y-82610800D03*
%TD*%
D10*
%TO.C,SW19_r1*%
X43090800Y-64761000D03*
D11*
X48310800Y-68961000D03*
D12*
X42810800Y-68961000D03*
D10*
X53530800Y-64761000D03*
D12*
X53810800Y-68961000D03*
D13*
X48310800Y-74861000D03*
X43310800Y-72761000D03*
%TD*%
D10*
%TO.C,SW22*%
X269633753Y-104478508D03*
D11*
X267766800Y-98044000D03*
D12*
X272272136Y-101198670D03*
D10*
X261081805Y-98490370D03*
D12*
X263261464Y-94889330D03*
D13*
X271150901Y-93211003D03*
X274042151Y-97799104D03*
%TD*%
D10*
%TO.C,SW19*%
X242607800Y-64964200D03*
D11*
X247827800Y-69164200D03*
D12*
X242327800Y-69164200D03*
D10*
X253047800Y-64964200D03*
D12*
X253327800Y-69164200D03*
D13*
X247827800Y-75064200D03*
X242827800Y-72964200D03*
%TD*%
D10*
%TO.C,SW13*%
X242607800Y-47844600D03*
D11*
X247827800Y-52044600D03*
D12*
X242327800Y-52044600D03*
D10*
X253047800Y-47844600D03*
D12*
X253327800Y-52044600D03*
D13*
X247827800Y-57944600D03*
X242827800Y-55844600D03*
%TD*%
D10*
%TO.C,SW7*%
X242607800Y-30725000D03*
D11*
X247827800Y-34925000D03*
D12*
X242327800Y-34925000D03*
D10*
X253047800Y-30725000D03*
D12*
X253327800Y-34925000D03*
D13*
X247827800Y-40825000D03*
X242827800Y-38725000D03*
%TD*%
%TO.C,SW21*%
X254479142Y-86980777D03*
X250193032Y-83658238D03*
D12*
X243353408Y-87933695D03*
D10*
X242536827Y-92063053D03*
D12*
X253978592Y-90780705D03*
D11*
X248666000Y-89357200D03*
D10*
X252621093Y-94765124D03*
%TD*%
%TO.C,SW20*%
X233693000Y-90839400D03*
D11*
X228473000Y-86639400D03*
D12*
X233973000Y-86639400D03*
D10*
X223253000Y-90839400D03*
D12*
X222973000Y-86639400D03*
D13*
X228473000Y-80739400D03*
X233473000Y-82839400D03*
%TD*%
D10*
%TO.C,SW18_r1*%
X61124800Y-62221000D03*
D11*
X66344800Y-66421000D03*
D12*
X60844800Y-66421000D03*
D10*
X71564800Y-62221000D03*
D12*
X71844800Y-66421000D03*
D13*
X66344800Y-72321000D03*
X61344800Y-70221000D03*
%TD*%
D10*
%TO.C,SW18*%
X224573800Y-62398800D03*
D11*
X229793800Y-66598800D03*
D12*
X224293800Y-66598800D03*
D10*
X235013800Y-62398800D03*
D12*
X235293800Y-66598800D03*
D13*
X229793800Y-72498800D03*
X224793800Y-70398800D03*
%TD*%
D10*
%TO.C,SW17_r1*%
X79158800Y-56912400D03*
D11*
X84378800Y-61112400D03*
D12*
X78878800Y-61112400D03*
D10*
X89598800Y-56912400D03*
D12*
X89878800Y-61112400D03*
D13*
X84378800Y-67012400D03*
X79378800Y-64912400D03*
%TD*%
D10*
%TO.C,SW17*%
X206565200Y-57039400D03*
D11*
X211785200Y-61239400D03*
D12*
X206285200Y-61239400D03*
D10*
X217005200Y-57039400D03*
D12*
X217285200Y-61239400D03*
D13*
X211785200Y-67139400D03*
X206785200Y-65039400D03*
%TD*%
D10*
%TO.C,SW16_r1*%
X97192800Y-63795800D03*
D11*
X102412800Y-67995800D03*
D12*
X96912800Y-67995800D03*
D10*
X107632800Y-63795800D03*
D12*
X107912800Y-67995800D03*
D13*
X102412800Y-73895800D03*
X97412800Y-71795800D03*
%TD*%
D10*
%TO.C,SW16*%
X188556600Y-63922800D03*
D11*
X193776600Y-68122800D03*
D12*
X188276600Y-68122800D03*
D10*
X198996600Y-63922800D03*
D12*
X199276600Y-68122800D03*
D13*
X193776600Y-74022800D03*
X188776600Y-71922800D03*
%TD*%
D10*
%TO.C,SW15_r1*%
X115176000Y-75759200D03*
D11*
X120396000Y-79959200D03*
D12*
X114896000Y-79959200D03*
D10*
X125616000Y-75759200D03*
D12*
X125896000Y-79959200D03*
D13*
X120396000Y-85859200D03*
X115396000Y-83759200D03*
%TD*%
D10*
%TO.C,SW15*%
X170598800Y-75937000D03*
D11*
X175818800Y-80137000D03*
D12*
X170318800Y-80137000D03*
D10*
X181038800Y-75937000D03*
D12*
X181318800Y-80137000D03*
D13*
X175818800Y-86037000D03*
X170818800Y-83937000D03*
%TD*%
D10*
%TO.C,SW14_r1*%
X133159200Y-75784600D03*
D11*
X138379200Y-79984600D03*
D12*
X132879200Y-79984600D03*
D10*
X143599200Y-75784600D03*
D12*
X143879200Y-79984600D03*
D13*
X138379200Y-85884600D03*
X133379200Y-83784600D03*
%TD*%
D10*
%TO.C,SW14*%
X152590200Y-75962400D03*
D11*
X157810200Y-80162400D03*
D12*
X152310200Y-80162400D03*
D10*
X163030200Y-75962400D03*
D12*
X163310200Y-80162400D03*
D13*
X157810200Y-86062400D03*
X152810200Y-83962400D03*
%TD*%
D10*
%TO.C,SW13_r1*%
X43116200Y-47743000D03*
D11*
X48336200Y-51943000D03*
D12*
X42836200Y-51943000D03*
D10*
X53556200Y-47743000D03*
D12*
X53836200Y-51943000D03*
D13*
X48336200Y-57843000D03*
X43336200Y-55743000D03*
%TD*%
D10*
%TO.C,SW12_r1*%
X61124800Y-45228400D03*
D11*
X66344800Y-49428400D03*
D12*
X60844800Y-49428400D03*
D10*
X71564800Y-45228400D03*
D12*
X71844800Y-49428400D03*
D13*
X66344800Y-55328400D03*
X61344800Y-53228400D03*
%TD*%
D10*
%TO.C,SW12*%
X224573800Y-45279200D03*
D11*
X229793800Y-49479200D03*
D12*
X224293800Y-49479200D03*
D10*
X235013800Y-45279200D03*
D12*
X235293800Y-49479200D03*
D13*
X229793800Y-55379200D03*
X224793800Y-53279200D03*
%TD*%
D10*
%TO.C,SW11_r1*%
X79133400Y-39919800D03*
D11*
X84353400Y-44119800D03*
D12*
X78853400Y-44119800D03*
D10*
X89573400Y-39919800D03*
D12*
X89853400Y-44119800D03*
D13*
X84353400Y-50019800D03*
X79353400Y-47919800D03*
%TD*%
%TO.C,SW11*%
X206785200Y-47919800D03*
X211785200Y-50019800D03*
D12*
X217285200Y-44119800D03*
D10*
X217005200Y-39919800D03*
D12*
X206285200Y-44119800D03*
D11*
X211785200Y-44119800D03*
D10*
X206565200Y-39919800D03*
%TD*%
%TO.C,SW10_r1*%
X97167400Y-46777800D03*
D11*
X102387400Y-50977800D03*
D12*
X96887400Y-50977800D03*
D10*
X107607400Y-46777800D03*
D12*
X107887400Y-50977800D03*
D13*
X102387400Y-56877800D03*
X97387400Y-54777800D03*
%TD*%
%TO.C,SW10*%
X188776600Y-54803200D03*
X193776600Y-56903200D03*
D12*
X199276600Y-51003200D03*
D10*
X198996600Y-46803200D03*
D12*
X188276600Y-51003200D03*
D11*
X193776600Y-51003200D03*
D10*
X188556600Y-46803200D03*
%TD*%
%TO.C,SW9_r1*%
X115176000Y-58766600D03*
D11*
X120396000Y-62966600D03*
D12*
X114896000Y-62966600D03*
D10*
X125616000Y-58766600D03*
D12*
X125896000Y-62966600D03*
D13*
X120396000Y-68866600D03*
X115396000Y-66766600D03*
%TD*%
D10*
%TO.C,SW9*%
X170573400Y-58817400D03*
D11*
X175793400Y-63017400D03*
D12*
X170293400Y-63017400D03*
D10*
X181013400Y-58817400D03*
D12*
X181293400Y-63017400D03*
D13*
X175793400Y-68917400D03*
X170793400Y-66817400D03*
%TD*%
D10*
%TO.C,SW8_r1*%
X133159200Y-58766600D03*
D11*
X138379200Y-62966600D03*
D12*
X132879200Y-62966600D03*
D10*
X143599200Y-58766600D03*
D12*
X143879200Y-62966600D03*
D13*
X138379200Y-68866600D03*
X133379200Y-66766600D03*
%TD*%
D10*
%TO.C,SW8*%
X152564800Y-58842800D03*
D11*
X157784800Y-63042800D03*
D12*
X152284800Y-63042800D03*
D10*
X163004800Y-58842800D03*
D12*
X163284800Y-63042800D03*
D13*
X157784800Y-68942800D03*
X152784800Y-66842800D03*
%TD*%
D10*
%TO.C,SW7_r1*%
X43116200Y-30750400D03*
D11*
X48336200Y-34950400D03*
D12*
X42836200Y-34950400D03*
D10*
X53556200Y-30750400D03*
D12*
X53836200Y-34950400D03*
D13*
X48336200Y-40850400D03*
X43336200Y-38750400D03*
%TD*%
D10*
%TO.C,SW5*%
X206590600Y-22825600D03*
D11*
X211810600Y-27025600D03*
D12*
X206310600Y-27025600D03*
D10*
X217030600Y-22825600D03*
D12*
X217310600Y-27025600D03*
D13*
X211810600Y-32925600D03*
X206810600Y-30825600D03*
%TD*%
D10*
%TO.C,SW4_r1*%
X97167400Y-29734400D03*
D11*
X102387400Y-33934400D03*
D12*
X96887400Y-33934400D03*
D10*
X107607400Y-29734400D03*
D12*
X107887400Y-33934400D03*
D13*
X102387400Y-39834400D03*
X97387400Y-37734400D03*
%TD*%
%TO.C,SW4*%
X188802000Y-37683600D03*
X193802000Y-39783600D03*
D12*
X199302000Y-33883600D03*
D10*
X199022000Y-29683600D03*
D12*
X188302000Y-33883600D03*
D11*
X193802000Y-33883600D03*
D10*
X188582000Y-29683600D03*
%TD*%
%TO.C,SW3_r1*%
X115176000Y-41774000D03*
D11*
X120396000Y-45974000D03*
D12*
X114896000Y-45974000D03*
D10*
X125616000Y-41774000D03*
D12*
X125896000Y-45974000D03*
D13*
X120396000Y-51874000D03*
X115396000Y-49774000D03*
%TD*%
D10*
%TO.C,SW3*%
X170573400Y-41723200D03*
D11*
X175793400Y-45923200D03*
D12*
X170293400Y-45923200D03*
D10*
X181013400Y-41723200D03*
D12*
X181293400Y-45923200D03*
D13*
X175793400Y-51823200D03*
X170793400Y-49723200D03*
%TD*%
D10*
%TO.C,SW2_r1*%
X133184600Y-41774000D03*
D11*
X138404600Y-45974000D03*
D12*
X132904600Y-45974000D03*
D10*
X143624600Y-41774000D03*
D12*
X143904600Y-45974000D03*
D13*
X138404600Y-51874000D03*
X133404600Y-49774000D03*
%TD*%
D10*
%TO.C,SW2*%
X152564800Y-41723200D03*
D11*
X157784800Y-45923200D03*
D12*
X152284800Y-45923200D03*
D10*
X163004800Y-41723200D03*
D12*
X163284800Y-45923200D03*
D13*
X157784800Y-51823200D03*
X152784800Y-49723200D03*
%TD*%
D15*
%TO.C,SW_POWERR1*%
X27662000Y-48201800D03*
X24662000Y-48201800D03*
%TD*%
%TO.C,SW_POWER1*%
X271375000Y-48328800D03*
X268375000Y-48328800D03*
%TD*%
D16*
%TO.C,RSW2*%
X21285200Y-88721000D03*
X21285200Y-82221000D03*
%TD*%
%TO.C,RSW1*%
X275031200Y-82500400D03*
X275031200Y-89000400D03*
%TD*%
D17*
%TO.C,BatGND4*%
X32207200Y-47625000D03*
%TD*%
%TO.C,BatGND1*%
X275996400Y-47447200D03*
%TD*%
%TO.C,Bat+r1*%
X20040600Y-47574200D03*
%TD*%
%TO.C,Bat+1*%
X263855200Y-47396400D03*
%TD*%
D18*
%TO.C,mouse-bite-2mm-slot*%
X147142200Y-51079400D03*
X147142200Y-48031400D03*
X147142200Y-49047400D03*
X149174200Y-48031400D03*
X149174200Y-49047400D03*
X147142200Y-50063400D03*
X149174200Y-50063400D03*
X149174200Y-51079400D03*
X149174200Y-47015400D03*
X147142200Y-47015400D03*
%TD*%
%TO.C,mouse-bite-2mm-slot*%
X149199600Y-73583800D03*
X149199600Y-70535800D03*
X147167600Y-70535800D03*
X147167600Y-73583800D03*
X147167600Y-71551800D03*
X149199600Y-71551800D03*
X149199600Y-72567800D03*
X147167600Y-69519800D03*
X147167600Y-72567800D03*
X149199600Y-69519800D03*
%TD*%
D14*
%TO.C,REF\u002A\u002A*%
X94407400Y-42878400D03*
X56307400Y-42878400D03*
X75357400Y-61928400D03*
X75357400Y-23828400D03*
%TD*%
M02*
