M48
; DRILL file {KiCad (6.0.2-0)} date Sunday, May 29, 2022 at 08:11:01 PM
; FORMAT={-:-/ absolute / inch / decimal}
; #@! TF.CreationDate,2022-05-29T20:11:01-07:00
; #@! TF.GenerationSoftware,Kicad,Pcbnew,(6.0.2-0)
; #@! TF.FileFunction,NonPlated,1,2,NPTH
FMAT,2
INCH
; #@! TA.AperFunction,NonPlated,NPTH,ComponentDrill
T1C0.0197
; #@! TA.AperFunction,NonPlated,NPTH,ComponentDrill
T2C0.0354
; #@! TA.AperFunction,NonPlated,NPTH,ComponentDrill
T3C0.0390
; #@! TA.AperFunction,NonPlated,NPTH,ComponentDrill
T4C0.0670
; #@! TA.AperFunction,NonPlated,NPTH,ComponentDrill
T5C0.1350
%
G90
G05
T1
X5.793Y-1.851
X5.793Y-1.891
X5.793Y-1.931
X5.793Y-1.971
X5.793Y-2.011
X5.794Y-2.737
X5.794Y-2.777
X5.794Y-2.817
X5.794Y-2.857
X5.794Y-2.897
X5.873Y-1.851
X5.873Y-1.891
X5.873Y-1.931
X5.873Y-1.971
X5.873Y-2.011
X5.874Y-2.737
X5.874Y-2.777
X5.874Y-2.817
X5.874Y-2.857
X5.874Y-2.897
T2
X0.9709Y-1.8977
X1.0891Y-1.8977
X10.5659Y-1.9027
X10.6841Y-1.9027
T3
X1.0519Y-4.1081
X1.3886Y-3.8724
X1.6965Y-2.5496
X1.6975Y-1.2106
X1.6975Y-1.8796
X1.7253Y-3.7229
X2.1075Y-2.5496
X2.1085Y-1.2106
X2.1085Y-1.8796
X2.1223Y-3.6165
X2.4065Y-1.1086
X2.4065Y-1.7806
X2.4065Y-2.4496
X2.4745Y-3.5674
X2.8175Y-1.1086
X2.8175Y-1.7806
X2.8175Y-2.4496
X2.8855Y-3.5674
X3.1155Y-1.5716
X3.1165Y-0.9016
X3.1165Y-2.2406
X3.5265Y-1.5716
X3.5275Y-0.9016
X3.5275Y-2.2406
X3.8255Y-1.1706
X3.8255Y-1.8416
X3.8265Y-2.5116
X4.2365Y-1.1706
X4.2365Y-1.8416
X4.2375Y-2.5116
X4.5345Y-1.6446
X4.5345Y-2.3136
X4.5345Y-2.9826
X4.9455Y-1.6446
X4.9455Y-2.3136
X4.9455Y-2.9826
X5.2425Y-2.3136
X5.2425Y-2.9836
X5.2435Y-1.6446
X5.6535Y-2.3136
X5.6535Y-2.9836
X5.6545Y-1.6446
X6.0065Y-1.6426
X6.0065Y-2.3166
X6.0075Y-2.9906
X6.4175Y-1.6426
X6.4175Y-2.3166
X6.4185Y-2.9906
X6.7155Y-1.6426
X6.7155Y-2.3156
X6.7165Y-2.9896
X7.1265Y-1.6426
X7.1265Y-2.3156
X7.1275Y-2.9896
X7.4235Y-1.8426
X7.4235Y-2.5166
X7.4245Y-1.1686
X7.8345Y-1.8426
X7.8345Y-2.5166
X7.8355Y-1.1686
X8.1325Y-1.5716
X8.1325Y-2.2456
X8.1335Y-0.8986
X8.5435Y-1.5716
X8.5435Y-2.2456
X8.5445Y-0.8986
X8.7895Y-3.5764
X8.8415Y-1.7826
X8.8415Y-2.4566
X8.8425Y-1.1086
X9.2005Y-3.5764
X9.2525Y-1.7826
X9.2525Y-2.4566
X9.2535Y-1.1086
X9.5487Y-3.6245
X9.5515Y-1.2096
X9.5515Y-1.8836
X9.5515Y-2.5576
X9.9457Y-3.7309
X9.9625Y-1.2096
X9.9625Y-1.8836
X9.9625Y-2.5576
X10.2788Y-3.8776
X10.6155Y-4.1133
T4
X0.948Y-3.979
X1.3028Y-3.7306
X1.6718Y-3.566
X1.6855Y-2.715
X1.6865Y-1.376
X1.6865Y-2.045
X2.0902Y-3.454
X2.1185Y-2.715
X2.1195Y-1.376
X2.1195Y-2.045
X2.3955Y-1.274
X2.3955Y-1.946
X2.3955Y-2.615
X2.4635Y-3.402
X2.8285Y-1.274
X2.8285Y-1.946
X2.8285Y-2.615
X2.8965Y-3.402
X3.1045Y-1.737
X3.1055Y-1.067
X3.1055Y-2.406
X3.5375Y-1.737
X3.5385Y-1.067
X3.5385Y-2.406
X3.8145Y-1.336
X3.8145Y-2.007
X3.8155Y-2.677
X4.2475Y-1.336
X4.2475Y-2.007
X4.2485Y-2.677
X4.5235Y-1.81
X4.5235Y-2.479
X4.5235Y-3.148
X4.9565Y-1.81
X4.9565Y-2.479
X4.9565Y-3.148
X5.2315Y-2.479
X5.2315Y-3.149
X5.2325Y-1.81
X5.6645Y-2.479
X5.6645Y-3.149
X5.6655Y-1.81
X5.9955Y-1.808
X5.9955Y-2.482
X5.9965Y-3.156
X6.4285Y-1.808
X6.4285Y-2.482
X6.4295Y-3.156
X6.7045Y-1.808
X6.7045Y-2.481
X6.7055Y-3.155
X7.1375Y-1.808
X7.1375Y-2.481
X7.1385Y-3.155
X7.4125Y-2.008
X7.4125Y-2.682
X7.4135Y-1.334
X7.8455Y-2.008
X7.8455Y-2.682
X7.8465Y-1.334
X8.1215Y-1.737
X8.1215Y-2.411
X8.1225Y-1.064
X8.5545Y-1.737
X8.5545Y-2.411
X8.5555Y-1.064
X8.7785Y-3.411
X8.8305Y-1.948
X8.8305Y-2.622
X8.8315Y-1.274
X9.2115Y-3.411
X9.2635Y-1.948
X9.2635Y-2.622
X9.2645Y-1.274
X9.5405Y-1.375
X9.5405Y-2.049
X9.5405Y-2.723
X9.5808Y-3.462
X9.9735Y-1.375
X9.9735Y-2.049
X9.9735Y-2.723
X9.9992Y-3.574
X10.3646Y-3.7358
X10.7194Y-3.9842
T5
X1.1254Y-3.8548
X1.881Y-3.51
X1.902Y-2.715
X1.903Y-1.376
X1.903Y-2.045
X2.612Y-1.274
X2.612Y-1.946
X2.612Y-2.615
X2.68Y-3.402
X3.321Y-1.737
X3.322Y-1.067
X3.322Y-2.406
X4.031Y-1.336
X4.031Y-2.007
X4.032Y-2.677
X4.74Y-1.81
X4.74Y-2.479
X4.74Y-3.148
X5.448Y-2.479
X5.448Y-3.149
X5.449Y-1.81
X6.212Y-1.808
X6.212Y-2.482
X6.213Y-3.156
X6.921Y-1.808
X6.921Y-2.481
X6.922Y-3.155
X7.629Y-2.008
X7.629Y-2.682
X7.63Y-1.334
X8.338Y-1.737
X8.338Y-2.411
X8.339Y-1.064
X8.995Y-3.411
X9.047Y-1.948
X9.047Y-2.622
X9.048Y-1.274
X9.757Y-1.375
X9.757Y-2.049
X9.757Y-2.723
X9.79Y-3.518
X10.542Y-3.86
T0
M30
