M48
; DRILL file {KiCad (6.0.2-0)} date Sunday, May 29, 2022 at 08:11:01 PM
; FORMAT={-:-/ absolute / inch / decimal}
; #@! TF.CreationDate,2022-05-29T20:11:01-07:00
; #@! TF.GenerationSoftware,Kicad,Pcbnew,(6.0.2-0)
; #@! TF.FileFunction,Plated,1,2,PTH
FMAT,2
INCH
; #@! TA.AperFunction,Plated,PTH,ViaDrill
T1C0.0157
; #@! TA.AperFunction,Plated,PTH,ComponentDrill
T2C0.0320
; #@! TA.AperFunction,Plated,PTH,ComponentDrill
T3C0.0512
; #@! TA.AperFunction,Plated,PTH,ComponentDrill
T4C0.0598
; #@! TA.AperFunction,Plated,PTH,ComponentDrill
T5C0.0866
%
G90
G05
T1
X1.448Y-3.286
X1.537Y-3.224
X1.591Y-3.191
X1.619Y-3.145
X1.677Y-3.119
X1.787Y-1.419
X1.787Y-1.621
X3.041Y-3.033
X3.083Y-2.978
X3.112Y-3.127
X3.21Y-1.109
X3.21Y-1.306
X8.196Y-3.275
X8.403Y-3.124
X8.432Y-3.172
X9.866Y-3.061
X9.891Y-3.113
X9.942Y-3.147
X9.976Y-3.199
X10.015Y-3.24
T2
X0.7371Y-1.9576
X0.7371Y-2.0576
X0.7371Y-2.1576
X0.7371Y-2.2576
X0.7371Y-2.3576
X0.7371Y-2.4576
X0.7371Y-2.5576
X0.7371Y-2.6576
X0.7371Y-2.7576
X0.7371Y-2.8576
X0.7371Y-2.9576
X0.7371Y-3.0576
X0.789Y-1.873
X1.268Y-1.875
X1.3363Y-1.9576
X1.3363Y-2.0576
X1.3363Y-2.1576
X1.3363Y-2.2576
X1.3363Y-2.3576
X1.3363Y-2.4576
X1.3363Y-2.5576
X1.3363Y-2.6576
X1.3363Y-2.7576
X1.3363Y-2.8576
X1.3363Y-2.9576
X1.3363Y-3.0576
X10.3323Y-1.9626
X10.3323Y-2.0626
X10.3323Y-2.1626
X10.3323Y-2.2626
X10.3323Y-2.3626
X10.3323Y-2.4626
X10.3323Y-2.5626
X10.3323Y-2.6626
X10.3323Y-2.7626
X10.3323Y-2.8626
X10.3323Y-2.9626
X10.3323Y-3.0626
X10.388Y-1.866
X10.866Y-1.868
X10.9315Y-1.9626
X10.9315Y-2.0626
X10.9315Y-2.1626
X10.9315Y-2.2626
X10.9315Y-2.3626
X10.9315Y-2.4626
X10.9315Y-2.5626
X10.9315Y-2.6626
X10.9315Y-2.7626
X10.9315Y-2.8626
X10.9315Y-2.9626
X10.9315Y-3.0626
T3
X0.838Y-3.237
X0.838Y-3.493
X10.828Y-3.248
X10.828Y-3.504
T4
X0.9921Y-3.6645
X1.2008Y-3.6193
X1.7051Y-2.8646
X1.7061Y-1.5256
X1.7061Y-2.1946
X1.8209Y-3.2856
X1.902Y-2.9473
X1.903Y-1.6083
X1.903Y-2.2773
X2.0324Y-3.3145
X2.4151Y-1.4236
X2.4151Y-2.0956
X2.4151Y-2.7646
X2.612Y-1.5063
X2.612Y-2.1783
X2.612Y-2.8473
X2.68Y-3.1697
X2.8769Y-3.2524
X3.1241Y-1.8866
X3.1251Y-1.2166
X3.1251Y-2.5556
X3.321Y-1.9693
X3.322Y-1.2993
X3.322Y-2.6383
X3.8341Y-1.4856
X3.8341Y-2.1566
X3.8351Y-2.8266
X4.031Y-1.5683
X4.031Y-2.2393
X4.032Y-2.9093
X4.5431Y-1.9596
X4.5431Y-2.6286
X4.5431Y-3.2976
X4.74Y-2.0423
X4.74Y-2.7113
X4.74Y-3.3803
X5.2511Y-2.6286
X5.2511Y-3.2986
X5.2521Y-1.9596
X5.448Y-2.7113
X5.448Y-3.3813
X5.449Y-2.0423
X6.0151Y-1.9576
X6.0151Y-2.6316
X6.0161Y-3.3056
X6.212Y-2.0403
X6.212Y-2.7143
X6.213Y-3.3883
X6.7241Y-1.9576
X6.7241Y-2.6306
X6.7251Y-3.3046
X6.921Y-2.0403
X6.921Y-2.7133
X6.922Y-3.3873
X7.4321Y-2.1576
X7.4321Y-2.8316
X7.4331Y-1.4836
X7.629Y-2.2403
X7.629Y-2.9143
X7.63Y-1.5663
X8.1411Y-1.8866
X8.1411Y-2.5606
X8.1421Y-1.2136
X8.338Y-1.9693
X8.338Y-2.6433
X8.339Y-1.2963
X8.8501Y-2.0976
X8.8501Y-2.7716
X8.8511Y-1.4236
X8.995Y-3.1787
X9.047Y-2.1803
X9.047Y-2.8543
X9.048Y-1.5063
X9.1919Y-3.2614
X9.5601Y-1.5246
X9.5601Y-2.1986
X9.5601Y-2.8726
X9.757Y-1.6073
X9.757Y-2.2813
X9.757Y-2.9553
X9.8501Y-3.2936
X10.0189Y-3.4244
X10.6752Y-3.6697
X10.7891Y-3.8504
T5
X2.2168Y-1.6881
X2.9668Y-0.9381
X2.9668Y-2.4381
X3.7168Y-1.6881
X7.9627Y-1.6904
X8.7127Y-0.9404
X8.7127Y-2.4404
X9.4627Y-1.6904
T0
M30
