M48
; DRILL file {KiCad (6.0.5-0)} date Tuesday, January 31, 2023 at 11:57:10 AM
; FORMAT={-:-/ absolute / metric / decimal}
; #@! TF.CreationDate,2023-01-31T11:57:10-08:00
; #@! TF.GenerationSoftware,Kicad,Pcbnew,(6.0.5-0)
; #@! TF.FileFunction,NonPlated,1,2,NPTH
FMAT,2
METRIC
; #@! TA.AperFunction,NonPlated,NPTH,ComponentDrill
T1C0.500
; #@! TA.AperFunction,NonPlated,NPTH,ComponentDrill
T2C0.900
; #@! TA.AperFunction,NonPlated,NPTH,ComponentDrill
T3C1.702
; #@! TA.AperFunction,NonPlated,NPTH,ComponentDrill
T4C3.000
; #@! TA.AperFunction,NonPlated,NPTH,ComponentDrill
T5C3.429
%
G90
G05
T1
X147.142Y-47.015
X147.142Y-48.031
X147.142Y-49.047
X147.142Y-50.063
X147.142Y-51.079
X147.168Y-69.52
X147.168Y-70.536
X147.168Y-71.552
X147.168Y-72.568
X147.168Y-73.584
X149.174Y-47.015
X149.174Y-48.031
X149.174Y-49.047
X149.174Y-50.063
X149.174Y-51.079
X149.2Y-69.52
X149.2Y-70.536
X149.2Y-71.552
X149.2Y-72.568
X149.2Y-73.584
T2
X24.662Y-48.202
X27.662Y-48.202
X268.375Y-48.329
X271.375Y-48.329
T3
X24.079Y-101.067
X33.09Y-94.757
X42.465Y-90.578
X42.811Y-68.961
X42.836Y-34.95
X42.836Y-51.943
X53.09Y-87.73
X53.811Y-68.961
X53.836Y-34.95
X53.836Y-51.943
X60.845Y-32.36
X60.845Y-49.428
X60.845Y-66.421
X62.572Y-86.411
X71.845Y-32.36
X71.845Y-49.428
X71.845Y-66.421
X73.572Y-86.411
X78.853Y-44.12
X78.879Y-27.102
X78.879Y-61.112
X89.853Y-44.12
X89.879Y-27.102
X89.879Y-61.112
X96.887Y-33.934
X96.887Y-50.978
X96.913Y-67.996
X107.887Y-33.934
X107.887Y-50.978
X107.913Y-67.996
X114.896Y-45.974
X114.896Y-62.967
X114.896Y-79.959
X125.896Y-45.974
X125.896Y-62.967
X125.896Y-79.959
X132.879Y-62.967
X132.879Y-79.985
X132.905Y-45.974
X143.879Y-62.967
X143.879Y-79.985
X143.905Y-45.974
X152.285Y-45.923
X152.285Y-63.043
X152.31Y-80.162
X163.285Y-45.923
X163.285Y-63.043
X163.31Y-80.162
X170.293Y-45.923
X170.293Y-63.017
X170.319Y-80.137
X181.293Y-45.923
X181.293Y-63.017
X181.319Y-80.137
X188.277Y-51.003
X188.277Y-68.123
X188.302Y-33.884
X199.277Y-51.003
X199.277Y-68.123
X199.302Y-33.884
X206.285Y-44.12
X206.285Y-61.239
X206.311Y-27.026
X217.285Y-44.12
X217.285Y-61.239
X217.311Y-27.026
X222.973Y-86.639
X224.294Y-49.479
X224.294Y-66.599
X224.319Y-32.36
X233.973Y-86.639
X235.294Y-49.479
X235.294Y-66.599
X235.319Y-32.36
X242.328Y-34.925
X242.328Y-52.045
X242.328Y-69.164
X243.353Y-87.934
X253.328Y-34.925
X253.328Y-52.045
X253.328Y-69.164
X253.979Y-90.781
X263.261Y-94.889
X272.272Y-101.199
T4
X25.172Y-93.038
X30.529Y-91.972
X43.918Y-94.07
X48.311Y-63.011
X48.336Y-29.0
X48.336Y-45.993
X49.317Y-94.901
X53.311Y-65.211
X53.336Y-31.2
X53.336Y-48.193
X61.345Y-53.178
X61.345Y-70.171
X63.072Y-90.161
X66.345Y-26.41
X66.345Y-55.378
X66.345Y-72.371
X68.072Y-92.361
X71.345Y-28.61
X79.353Y-47.87
X84.353Y-50.07
X84.379Y-21.152
X84.379Y-55.162
X89.379Y-23.352
X89.379Y-57.362
X102.387Y-27.984
X102.387Y-45.028
X102.413Y-62.046
X107.387Y-30.184
X107.387Y-47.228
X107.413Y-64.246
X120.396Y-40.024
X120.396Y-57.017
X120.396Y-74.009
X125.396Y-42.224
X125.396Y-59.217
X125.396Y-76.209
X133.379Y-66.717
X133.379Y-83.735
X133.405Y-49.724
X138.379Y-68.917
X138.379Y-85.935
X138.405Y-51.924
X157.785Y-39.973
X157.785Y-57.093
X157.81Y-74.212
X162.785Y-42.173
X162.785Y-59.293
X162.81Y-76.412
X175.793Y-39.973
X175.793Y-57.067
X175.819Y-74.187
X180.793Y-42.173
X180.793Y-59.267
X180.819Y-76.387
X188.802Y-37.634
X193.777Y-45.053
X193.777Y-62.173
X193.802Y-39.834
X198.777Y-47.253
X198.777Y-64.373
X206.811Y-30.776
X211.785Y-38.17
X211.785Y-55.289
X211.811Y-32.976
X216.785Y-40.37
X216.785Y-57.489
X223.473Y-90.389
X224.794Y-53.229
X228.473Y-92.589
X229.794Y-55.429
X229.794Y-60.649
X229.819Y-26.41
X234.794Y-62.849
X234.819Y-28.61
X242.866Y-91.685
X247.126Y-95.104
X247.828Y-28.975
X247.828Y-46.095
X247.828Y-63.214
X252.828Y-31.175
X252.828Y-48.295
X252.828Y-65.414
X261.52Y-98.248
X264.354Y-102.918
T5
X28.585Y-97.912
X47.777Y-89.154
X48.311Y-68.961
X48.336Y-34.95
X48.336Y-51.943
X66.345Y-32.36
X66.345Y-49.428
X66.345Y-66.421
X68.072Y-86.411
X84.353Y-44.12
X84.379Y-27.102
X84.379Y-61.112
X102.387Y-33.934
X102.387Y-50.978
X102.413Y-67.996
X120.396Y-45.974
X120.396Y-62.967
X120.396Y-79.959
X138.379Y-62.967
X138.379Y-79.985
X138.405Y-45.974
X157.785Y-45.923
X157.785Y-63.043
X157.81Y-80.162
X175.793Y-45.923
X175.793Y-63.017
X175.819Y-80.137
X193.777Y-51.003
X193.777Y-68.123
X193.802Y-33.884
X211.785Y-44.12
X211.785Y-61.239
X211.811Y-27.026
X228.473Y-86.639
X229.794Y-49.479
X229.794Y-66.599
X229.819Y-32.36
X247.828Y-34.925
X247.828Y-52.045
X247.828Y-69.164
X248.666Y-89.357
X267.767Y-98.044
T0
M30
