M48
; DRILL file {KiCad (6.0.5-0)} date Tuesday, January 31, 2023 at 11:57:10 AM
; FORMAT={-:-/ absolute / metric / decimal}
; #@! TF.CreationDate,2023-01-31T11:57:10-08:00
; #@! TF.GenerationSoftware,Kicad,Pcbnew,(6.0.5-0)
; #@! TF.FileFunction,Plated,1,2,PTH
FMAT,2
METRIC
; #@! TA.AperFunction,Plated,PTH,ViaDrill
T1C0.400
; #@! TA.AperFunction,Plated,PTH,ComponentDrill
T2C0.813
; #@! TA.AperFunction,Plated,PTH,ComponentDrill
T3C1.000
; #@! TA.AperFunction,Plated,PTH,ComponentDrill
T4C1.270
; #@! TA.AperFunction,Plated,PTH,ComponentDrill
T5C1.300
; #@! TA.AperFunction,Plated,PTH,ComponentDrill
T6C2.200
%
G90
G05
T1
X19.837Y-93.37
X23.571Y-96.749
X36.395Y-74.345
X36.906Y-76.53
X37.973Y-86.131
X41.25Y-80.01
X41.25Y-81.356
X41.25Y-82.398
X41.275Y-78.765
X42.774Y-63.17
X42.977Y-46.076
X45.009Y-31.267
X51.791Y-92.1
X62.865Y-28.372
X71.603Y-90.399
X71.73Y-72.441
X72.212Y-55.194
X76.327Y-82.855
X77.343Y-78.029
X78.765Y-55.448
X78.969Y-21.463
X89.814Y-50.063
X96.495Y-62.382
X96.723Y-28.092
X97.104Y-44.983
X114.249Y-57.328
X114.656Y-74.168
X114.808Y-40.335
X141.63Y-83.541
X144.018Y-69.063
X144.17Y-51.867
X152.324Y-57.302
X152.502Y-74.473
X154.457Y-42.012
X169.977Y-57.074
X170.104Y-74.498
X172.517Y-42.24
X188.189Y-62.306
X188.417Y-45.364
X189.763Y-76.81
X199.517Y-39.802
X206.121Y-38.278
X206.172Y-55.778
X217.856Y-33.274
X224.257Y-60.782
X226.187Y-28.55
X231.724Y-90.551
X235.204Y-55.321
X244.475Y-65.303
X244.551Y-31.064
X244.577Y-48.158
X250.952Y-93.828
X255.219Y-79.172
X255.219Y-80.484
X255.219Y-81.483
X255.27Y-82.652
X255.321Y-83.922
X266.62Y-71.77
X268.199Y-103.124
X271.23Y-77.75
X272.74Y-74.89
X274.26Y-74.86
T2
X18.722Y-49.723
X18.722Y-52.263
X18.722Y-54.803
X18.722Y-57.343
X18.722Y-59.883
X18.722Y-62.423
X18.722Y-64.963
X18.722Y-67.503
X18.722Y-70.043
X18.722Y-72.583
X18.722Y-75.123
X18.722Y-77.663
X20.041Y-47.574
X32.207Y-47.625
X33.942Y-49.723
X33.942Y-52.263
X33.942Y-54.803
X33.942Y-57.343
X33.942Y-59.883
X33.942Y-62.423
X33.942Y-64.963
X33.942Y-67.503
X33.942Y-70.043
X33.942Y-72.583
X33.942Y-75.123
X33.942Y-77.663
X262.44Y-49.85
X262.44Y-52.39
X262.44Y-54.93
X262.44Y-57.47
X262.44Y-60.01
X262.44Y-62.55
X262.44Y-65.09
X262.44Y-67.63
X262.44Y-70.17
X262.44Y-72.71
X262.44Y-75.25
X262.44Y-77.79
X263.855Y-47.396
X275.996Y-47.447
X277.66Y-49.85
X277.66Y-52.39
X277.66Y-54.93
X277.66Y-57.47
X277.66Y-60.01
X277.66Y-62.55
X277.66Y-65.09
X277.66Y-67.63
X277.66Y-70.17
X277.66Y-72.71
X277.66Y-75.25
X277.66Y-77.79
T3
X21.23Y-82.09
X23.77Y-82.09
X26.31Y-82.09
X28.85Y-82.09
X31.39Y-82.09
X264.965Y-82.18
X267.505Y-82.18
X270.045Y-82.18
X272.585Y-82.18
X275.125Y-82.18
T4
X26.668Y-103.893
X31.969Y-102.745
X43.311Y-72.761
X43.336Y-38.75
X43.336Y-55.743
X46.25Y-83.455
X48.311Y-74.861
X48.336Y-40.85
X48.336Y-57.843
X51.624Y-84.189
X61.345Y-36.16
X66.345Y-38.26
X66.345Y-43.528
X66.345Y-60.521
X68.072Y-80.511
X71.345Y-45.628
X71.345Y-62.621
X73.072Y-82.611
X79.379Y-30.902
X79.379Y-64.912
X84.353Y-38.22
X84.379Y-33.002
X84.379Y-67.012
X89.353Y-40.32
X97.387Y-37.734
X97.387Y-54.778
X97.413Y-71.796
X102.387Y-39.834
X102.387Y-56.878
X102.413Y-73.896
X115.396Y-49.774
X115.396Y-66.767
X115.396Y-83.759
X120.396Y-51.874
X120.396Y-68.867
X120.396Y-85.859
X138.379Y-57.067
X138.379Y-74.085
X138.405Y-40.074
X143.379Y-59.167
X143.379Y-76.185
X143.405Y-42.174
X152.785Y-49.723
X152.785Y-66.843
X152.81Y-83.962
X157.785Y-51.823
X157.785Y-68.943
X157.81Y-86.062
X170.793Y-49.723
X170.793Y-66.817
X170.819Y-83.937
X175.793Y-51.823
X175.793Y-68.917
X175.819Y-86.037
X188.777Y-54.803
X188.777Y-71.923
X193.777Y-56.903
X193.777Y-74.023
X193.802Y-27.984
X198.802Y-30.084
X206.785Y-47.92
X206.785Y-65.039
X211.785Y-50.02
X211.785Y-67.139
X211.811Y-21.126
X216.811Y-23.226
X224.794Y-70.399
X224.819Y-36.16
X228.473Y-80.739
X229.794Y-43.579
X229.794Y-72.499
X229.819Y-38.26
X233.473Y-82.839
X234.794Y-45.679
X242.828Y-38.725
X242.828Y-55.845
X242.828Y-72.964
X247.828Y-40.825
X247.828Y-57.945
X247.828Y-75.064
X250.193Y-83.658
X254.479Y-86.981
X271.151Y-93.211
X274.042Y-97.799
T5
X21.088Y-90.844
X26.412Y-87.116
X271.528Y-88.266
X276.852Y-91.994
T6
X37.45Y-91.6
X38.45Y-60.26
X56.307Y-42.878
X75.357Y-23.828
X75.357Y-61.928
X84.08Y-79.48
X94.407Y-42.878
X129.32Y-71.54
X129.35Y-54.61
X166.82Y-71.57
X166.83Y-54.63
X202.252Y-42.936
X212.36Y-79.15
X221.302Y-23.886
X221.302Y-61.986
X240.352Y-42.936
X257.75Y-60.62
X258.61Y-91.95
T0
M30
