M48
; DRILL file {KiCad (6.0.5-0)} date Wednesday, June 22, 2022 at 07:04:32 PM
; FORMAT={-:-/ absolute / inch / decimal}
; #@! TF.CreationDate,2022-06-22T19:04:32-07:00
; #@! TF.GenerationSoftware,Kicad,Pcbnew,(6.0.5-0)
; #@! TF.FileFunction,NonPlated,1,2,NPTH
FMAT,2
INCH
; #@! TA.AperFunction,NonPlated,NPTH,ComponentDrill
T1C0.0197
; #@! TA.AperFunction,NonPlated,NPTH,ComponentDrill
T2C0.0354
; #@! TA.AperFunction,NonPlated,NPTH,ComponentDrill
T3C0.0670
; #@! TA.AperFunction,NonPlated,NPTH,ComponentDrill
T4C0.1350
%
G90
G05
T1
X5.793Y-1.851
X5.793Y-1.891
X5.793Y-1.931
X5.793Y-1.971
X5.793Y-2.011
X5.794Y-2.737
X5.794Y-2.777
X5.794Y-2.817
X5.794Y-2.857
X5.794Y-2.897
X5.873Y-1.851
X5.873Y-1.891
X5.873Y-1.931
X5.873Y-1.971
X5.873Y-2.011
X5.874Y-2.737
X5.874Y-2.777
X5.874Y-2.817
X5.874Y-2.857
X5.874Y-2.897
T2
X0.9709Y-1.8977
X1.0891Y-1.8977
X10.5659Y-1.9027
X10.6841Y-1.9027
T3
X0.948Y-3.979
X1.3028Y-3.7306
X1.6718Y-3.566
X1.6855Y-2.715
X1.6865Y-1.376
X1.6865Y-2.045
X2.0902Y-3.454
X2.1185Y-2.715
X2.1195Y-1.376
X2.1195Y-2.045
X2.3955Y-1.274
X2.3955Y-1.946
X2.3955Y-2.615
X2.4635Y-3.402
X2.8285Y-1.274
X2.8285Y-1.946
X2.8285Y-2.615
X2.8965Y-3.402
X3.1045Y-1.737
X3.1055Y-1.067
X3.1055Y-2.406
X3.5375Y-1.737
X3.5385Y-1.067
X3.5385Y-2.406
X3.8145Y-1.336
X3.8145Y-2.007
X3.8155Y-2.677
X4.2475Y-1.336
X4.2475Y-2.007
X4.2485Y-2.677
X4.5235Y-1.81
X4.5235Y-2.479
X4.5235Y-3.148
X4.9565Y-1.81
X4.9565Y-2.479
X4.9565Y-3.148
X5.2315Y-2.479
X5.2315Y-3.149
X5.2325Y-1.81
X5.6645Y-2.479
X5.6645Y-3.149
X5.6655Y-1.81
X5.9955Y-1.808
X5.9955Y-2.482
X5.9965Y-3.156
X6.4285Y-1.808
X6.4285Y-2.482
X6.4295Y-3.156
X6.7045Y-1.808
X6.7045Y-2.481
X6.7055Y-3.155
X7.1375Y-1.808
X7.1375Y-2.481
X7.1385Y-3.155
X7.4125Y-2.008
X7.4125Y-2.682
X7.4135Y-1.334
X7.8455Y-2.008
X7.8455Y-2.682
X7.8465Y-1.334
X8.1215Y-1.737
X8.1215Y-2.411
X8.1225Y-1.064
X8.5545Y-1.737
X8.5545Y-2.411
X8.5555Y-1.064
X8.7785Y-3.411
X8.8305Y-1.948
X8.8305Y-2.622
X8.8315Y-1.274
X9.2115Y-3.411
X9.2635Y-1.948
X9.2635Y-2.622
X9.2645Y-1.274
X9.5405Y-1.375
X9.5405Y-2.049
X9.5405Y-2.723
X9.5808Y-3.462
X9.9735Y-1.375
X9.9735Y-2.049
X9.9735Y-2.723
X9.9992Y-3.574
X10.3646Y-3.7358
X10.7194Y-3.9842
T4
X1.1254Y-3.8548
X1.881Y-3.51
X1.902Y-2.715
X1.903Y-1.376
X1.903Y-2.045
X2.612Y-1.274
X2.612Y-1.946
X2.612Y-2.615
X2.68Y-3.402
X3.321Y-1.737
X3.322Y-1.067
X3.322Y-2.406
X4.031Y-1.336
X4.031Y-2.007
X4.032Y-2.677
X4.74Y-1.81
X4.74Y-2.479
X4.74Y-3.148
X5.448Y-2.479
X5.448Y-3.149
X5.449Y-1.81
X6.212Y-1.808
X6.212Y-2.482
X6.213Y-3.156
X6.921Y-1.808
X6.921Y-2.481
X6.922Y-3.155
X7.629Y-2.008
X7.629Y-2.682
X7.63Y-1.334
X8.338Y-1.737
X8.338Y-2.411
X8.339Y-1.064
X8.995Y-3.411
X9.047Y-1.948
X9.047Y-2.622
X9.048Y-1.274
X9.757Y-1.375
X9.757Y-2.049
X9.757Y-2.723
X9.79Y-3.518
X10.542Y-3.86
T0
M30
