%TF.GenerationSoftware,KiCad,Pcbnew,(6.0.5-0)*%
%TF.CreationDate,2022-07-02T18:36:44-07:00*%
%TF.ProjectId,Swept_3x6,53776570-745f-4337-9836-2e6b69636164,rev?*%
%TF.SameCoordinates,Original*%
%TF.FileFunction,Soldermask,Bot*%
%TF.FilePolarity,Negative*%
%FSLAX46Y46*%
G04 Gerber Fmt 4.6, Leading zero omitted, Abs format (unit mm)*
G04 Created by KiCad (PCBNEW (6.0.5-0)) date 2022-07-02 18:36:44*
%MOMM*%
%LPD*%
G01*
G04 APERTURE LIST*
G04 Aperture macros list*
%AMRotRect*
0 Rectangle, with rotation*
0 The origin of the aperture is its center*
0 $1 length*
0 $2 width*
0 $3 Rotation angle, in degrees counterclockwise*
0 Add horizontal line*
21,1,$1,$2,0,0,$3*%
G04 Aperture macros list end*
%ADD10C,1.524000*%
%ADD11C,1.701800*%
%ADD12C,3.000000*%
%ADD13C,3.429000*%
%ADD14C,2.032000*%
%ADD15R,2.600000X2.600000*%
%ADD16RotRect,2.600000X2.600000X165.000000*%
%ADD17C,0.500000*%
%ADD18C,2.000000*%
%ADD19C,4.400000*%
%ADD20RotRect,2.600000X2.600000X195.000000*%
%ADD21RotRect,2.600000X2.600000X145.000000*%
%ADD22C,1.397000*%
%ADD23RotRect,2.600000X2.600000X35.000000*%
%ADD24R,1.400000X1.000000*%
%ADD25R,1.000000X0.800000*%
%ADD26C,0.900000*%
%ADD27R,0.700000X1.500000*%
%ADD28RotRect,1.400000X1.000000X145.000000*%
%ADD29RotRect,1.400000X1.000000X35.000000*%
%ADD30RotRect,1.400000X1.000000X165.000000*%
%ADD31RotRect,1.400000X1.000000X15.000000*%
G04 APERTURE END LIST*
D10*
%TO.C,U1*%
X277659800Y-49850000D03*
X277659800Y-52390000D03*
X277659800Y-54930000D03*
X277659800Y-57470000D03*
X277659800Y-60010000D03*
X277659800Y-62550000D03*
X277659800Y-65090000D03*
X277659800Y-67630000D03*
X277659800Y-70170000D03*
X277659800Y-72710000D03*
X277659800Y-75250000D03*
X277659800Y-77790000D03*
X262439800Y-77790000D03*
X262439800Y-75250000D03*
X262439800Y-72710000D03*
X262439800Y-70170000D03*
X262439800Y-67630000D03*
X262439800Y-65090000D03*
X262439800Y-62550000D03*
X262439800Y-60010000D03*
X262439800Y-57470000D03*
X262439800Y-54930000D03*
X262439800Y-52390000D03*
X262439800Y-49850000D03*
%TD*%
D11*
%TO.C,SW16*%
X188276600Y-68122800D03*
D12*
X193776600Y-62172800D03*
X198776600Y-64372800D03*
D13*
X193776600Y-68122800D03*
D11*
X199276600Y-68122800D03*
D14*
X193776600Y-74022800D03*
D15*
X190501600Y-62172800D03*
X202051600Y-64372800D03*
D14*
X188776600Y-71922800D03*
%TD*%
D12*
%TO.C,SW20*%
X223473000Y-90389400D03*
D11*
X222973000Y-86639400D03*
D12*
X228473000Y-92589400D03*
D11*
X233973000Y-86639400D03*
D13*
X228473000Y-86639400D03*
D15*
X231748000Y-92589400D03*
D14*
X228473000Y-80739400D03*
X233473000Y-82839400D03*
D15*
X220198000Y-90389400D03*
%TD*%
D12*
%TO.C,SW15*%
X180818800Y-76387000D03*
D11*
X181318800Y-80137000D03*
D12*
X175818800Y-74187000D03*
D13*
X175818800Y-80137000D03*
D11*
X170318800Y-80137000D03*
D14*
X175818800Y-86037000D03*
D15*
X172543800Y-74187000D03*
D14*
X170818800Y-83937000D03*
D15*
X184093800Y-76387000D03*
%TD*%
D12*
%TO.C,SW21*%
X247126027Y-95104459D03*
D13*
X248666000Y-89357200D03*
D11*
X253978592Y-90780705D03*
D12*
X242865799Y-91685327D03*
D11*
X243353408Y-87933695D03*
D14*
X250193032Y-83658238D03*
D16*
X250289434Y-95952091D03*
X239702392Y-90837694D03*
D14*
X254479142Y-86980777D03*
%TD*%
D13*
%TO.C,SW17*%
X211785200Y-61239400D03*
D12*
X216785200Y-57489400D03*
D11*
X217285200Y-61239400D03*
D12*
X211785200Y-55289400D03*
D11*
X206285200Y-61239400D03*
D14*
X211785200Y-67139400D03*
D15*
X208510200Y-55289400D03*
X220060200Y-57489400D03*
D14*
X206785200Y-65039400D03*
%TD*%
D13*
%TO.C,SW18*%
X229793800Y-66598800D03*
D11*
X224293800Y-66598800D03*
X235293800Y-66598800D03*
D12*
X229793800Y-60648800D03*
X234793800Y-62848800D03*
D14*
X229793800Y-72498800D03*
D15*
X226518800Y-60648800D03*
X238068800Y-62848800D03*
D14*
X224793800Y-70398800D03*
%TD*%
D13*
%TO.C,SW4*%
X193802000Y-33883600D03*
D12*
X193802000Y-39833600D03*
X188802000Y-37633600D03*
D11*
X199302000Y-33883600D03*
X188302000Y-33883600D03*
D15*
X197077000Y-39833600D03*
D14*
X193802000Y-27983600D03*
D15*
X185527000Y-37633600D03*
D14*
X198802000Y-30083600D03*
%TD*%
D13*
%TO.C,SW3*%
X175793400Y-45923200D03*
D11*
X181293400Y-45923200D03*
D12*
X180793400Y-42173200D03*
D11*
X170293400Y-45923200D03*
D12*
X175793400Y-39973200D03*
D14*
X175793400Y-51823200D03*
D15*
X172518400Y-39973200D03*
D14*
X170793400Y-49723200D03*
D15*
X184068400Y-42173200D03*
%TD*%
D11*
%TO.C,SW9*%
X170293400Y-63017400D03*
D12*
X180793400Y-59267400D03*
D11*
X181293400Y-63017400D03*
D12*
X175793400Y-57067400D03*
D13*
X175793400Y-63017400D03*
D14*
X175793400Y-68917400D03*
D15*
X172518400Y-57067400D03*
X184068400Y-59267400D03*
D14*
X170793400Y-66817400D03*
%TD*%
D12*
%TO.C,SW14*%
X157810200Y-74212400D03*
D13*
X157810200Y-80162400D03*
D11*
X152310200Y-80162400D03*
X163310200Y-80162400D03*
D12*
X162810200Y-76412400D03*
D15*
X154535200Y-74212400D03*
D14*
X157810200Y-86062400D03*
D15*
X166085200Y-76412400D03*
D14*
X152810200Y-83962400D03*
%TD*%
D11*
%TO.C,SW12*%
X224293800Y-49479200D03*
D12*
X229793800Y-55429200D03*
D11*
X235293800Y-49479200D03*
D12*
X224793800Y-53229200D03*
D13*
X229793800Y-49479200D03*
D15*
X233068800Y-55429200D03*
D14*
X229793800Y-43579200D03*
X234793800Y-45679200D03*
D15*
X221518800Y-53229200D03*
%TD*%
D12*
%TO.C,SW11*%
X211785200Y-38169800D03*
D11*
X206285200Y-44119800D03*
X217285200Y-44119800D03*
D13*
X211785200Y-44119800D03*
D12*
X216785200Y-40369800D03*
D14*
X211785200Y-50019800D03*
D15*
X208510200Y-38169800D03*
D14*
X206785200Y-47919800D03*
D15*
X220060200Y-40369800D03*
%TD*%
D12*
%TO.C,SW8*%
X162784800Y-59292800D03*
D11*
X152284800Y-63042800D03*
D12*
X157784800Y-57092800D03*
D13*
X157784800Y-63042800D03*
D11*
X163284800Y-63042800D03*
D15*
X154509800Y-57092800D03*
D14*
X157784800Y-68942800D03*
D15*
X166059800Y-59292800D03*
D14*
X152784800Y-66842800D03*
%TD*%
D12*
%TO.C,SW6*%
X234819200Y-28609600D03*
X229819200Y-26409600D03*
D11*
X235319200Y-32359600D03*
D13*
X229819200Y-32359600D03*
D11*
X224319200Y-32359600D03*
D15*
X226544200Y-26409600D03*
D14*
X229819200Y-38259600D03*
D15*
X238094200Y-28609600D03*
D14*
X224819200Y-36159600D03*
%TD*%
D13*
%TO.C,SW5*%
X211810600Y-27025600D03*
D11*
X217310600Y-27025600D03*
D12*
X206810600Y-30775600D03*
D11*
X206310600Y-27025600D03*
D12*
X211810600Y-32975600D03*
D14*
X211810600Y-21125600D03*
D15*
X215085600Y-32975600D03*
X203535600Y-30775600D03*
D14*
X216810600Y-23225600D03*
%TD*%
D12*
%TO.C,SW2*%
X157784800Y-39973200D03*
D11*
X163284800Y-45923200D03*
D13*
X157784800Y-45923200D03*
D11*
X152284800Y-45923200D03*
D12*
X162784800Y-42173200D03*
D15*
X154509800Y-39973200D03*
D14*
X157784800Y-51823200D03*
X152784800Y-49723200D03*
D15*
X166059800Y-42173200D03*
%TD*%
D17*
%TO.C,mouse-bite-2mm-slot*%
X147142200Y-51079400D03*
X147142200Y-48031400D03*
X147142200Y-49047400D03*
X149174200Y-48031400D03*
X149174200Y-49047400D03*
X147142200Y-50063400D03*
X149174200Y-50063400D03*
X149174200Y-51079400D03*
X149174200Y-47015400D03*
X147142200Y-47015400D03*
%TD*%
%TO.C,mouse-bite-2mm-slot*%
X149199600Y-73583800D03*
X149199600Y-70535800D03*
X147167600Y-70535800D03*
X147167600Y-73583800D03*
X147167600Y-71551800D03*
X149199600Y-71551800D03*
X149199600Y-72567800D03*
X147167600Y-69519800D03*
X147167600Y-72567800D03*
X149199600Y-69519800D03*
%TD*%
D18*
%TO.C,RSW1*%
X275031200Y-82500400D03*
X275031200Y-89000400D03*
%TD*%
D11*
%TO.C,SW10*%
X188276600Y-51003200D03*
X199276600Y-51003200D03*
D12*
X193776600Y-45053200D03*
X198776600Y-47253200D03*
D13*
X193776600Y-51003200D03*
D15*
X190501600Y-45053200D03*
D14*
X193776600Y-56903200D03*
D15*
X202051600Y-47253200D03*
D14*
X188776600Y-54803200D03*
%TD*%
D19*
%TO.C,REF\u002A\u002A*%
X240352000Y-42936000D03*
X202252000Y-42936000D03*
X221302000Y-23886000D03*
X221302000Y-61986000D03*
%TD*%
D10*
%TO.C,U2*%
X33942000Y-49722800D03*
X33942000Y-52262800D03*
X33942000Y-54802800D03*
X33942000Y-57342800D03*
X33942000Y-59882800D03*
X33942000Y-62422800D03*
X33942000Y-64962800D03*
X33942000Y-67502800D03*
X33942000Y-70042800D03*
X33942000Y-72582800D03*
X33942000Y-75122800D03*
X33942000Y-77662800D03*
X18722000Y-77662800D03*
X18722000Y-75122800D03*
X18722000Y-72582800D03*
X18722000Y-70042800D03*
X18722000Y-67502800D03*
X18722000Y-64962800D03*
X18722000Y-62422800D03*
X18722000Y-59882800D03*
X18722000Y-57342800D03*
X18722000Y-54802800D03*
X18722000Y-52262800D03*
X18722000Y-49722800D03*
%TD*%
D11*
%TO.C,SW17_r1*%
X89878800Y-61112400D03*
X78878800Y-61112400D03*
D12*
X89378800Y-57362400D03*
X84378800Y-55162400D03*
D13*
X84378800Y-61112400D03*
D15*
X81103800Y-55162400D03*
D14*
X84378800Y-67012400D03*
X79378800Y-64912400D03*
D15*
X92653800Y-57362400D03*
%TD*%
D11*
%TO.C,SW11_r1*%
X89853400Y-44119800D03*
X78853400Y-44119800D03*
D12*
X79353400Y-47869800D03*
D13*
X84353400Y-44119800D03*
D12*
X84353400Y-50069800D03*
D14*
X84353400Y-38219800D03*
D15*
X87628400Y-50069800D03*
X76078400Y-47869800D03*
D14*
X89353400Y-40319800D03*
%TD*%
D11*
%TO.C,SW15_r1*%
X114896000Y-79959200D03*
D12*
X120396000Y-74009200D03*
D13*
X120396000Y-79959200D03*
D11*
X125896000Y-79959200D03*
D12*
X125396000Y-76209200D03*
D14*
X120396000Y-85859200D03*
D15*
X117121000Y-74009200D03*
D14*
X115396000Y-83759200D03*
D15*
X128671000Y-76209200D03*
%TD*%
D11*
%TO.C,SW18_r1*%
X60844800Y-66421000D03*
D12*
X66344800Y-72371000D03*
D13*
X66344800Y-66421000D03*
D11*
X71844800Y-66421000D03*
D12*
X61344800Y-70171000D03*
D14*
X66344800Y-60521000D03*
D15*
X69619800Y-72371000D03*
D14*
X71344800Y-62621000D03*
D15*
X58069800Y-70171000D03*
%TD*%
D11*
%TO.C,SW6_r1*%
X60844800Y-32359600D03*
D12*
X71344800Y-28609600D03*
X66344800Y-26409600D03*
D11*
X71844800Y-32359600D03*
D13*
X66344800Y-32359600D03*
D14*
X66344800Y-38259600D03*
D15*
X63069800Y-26409600D03*
X74619800Y-28609600D03*
D14*
X61344800Y-36159600D03*
%TD*%
D11*
%TO.C,SW5_r1*%
X78878800Y-27101800D03*
X89878800Y-27101800D03*
D12*
X89378800Y-23351800D03*
D13*
X84378800Y-27101800D03*
D12*
X84378800Y-21151800D03*
D14*
X84378800Y-33001800D03*
D15*
X81103800Y-21151800D03*
D14*
X79378800Y-30901800D03*
D15*
X92653800Y-23351800D03*
%TD*%
D11*
%TO.C,SW2_r1*%
X143904600Y-45974000D03*
D12*
X138404600Y-51924000D03*
X133404600Y-49724000D03*
D11*
X132904600Y-45974000D03*
D13*
X138404600Y-45974000D03*
D14*
X138404600Y-40074000D03*
D15*
X141679600Y-51924000D03*
D14*
X143404600Y-42174000D03*
D15*
X130129600Y-49724000D03*
%TD*%
D11*
%TO.C,SW16_r1*%
X96912800Y-67995800D03*
D12*
X102412800Y-62045800D03*
D13*
X102412800Y-67995800D03*
D11*
X107912800Y-67995800D03*
D12*
X107412800Y-64245800D03*
D14*
X102412800Y-73895800D03*
D15*
X99137800Y-62045800D03*
X110687800Y-64245800D03*
D14*
X97412800Y-71795800D03*
%TD*%
D13*
%TO.C,SW4_r1*%
X102387400Y-33934400D03*
D12*
X107387400Y-30184400D03*
X102387400Y-27984400D03*
D11*
X96887400Y-33934400D03*
X107887400Y-33934400D03*
D15*
X99112400Y-27984400D03*
D14*
X102387400Y-39834400D03*
X97387400Y-37734400D03*
D15*
X110662400Y-30184400D03*
%TD*%
D12*
%TO.C,SW13_r1*%
X48336200Y-45993000D03*
D11*
X53836200Y-51943000D03*
D12*
X53336200Y-48193000D03*
D11*
X42836200Y-51943000D03*
D13*
X48336200Y-51943000D03*
D15*
X45061200Y-45993000D03*
D14*
X48336200Y-57843000D03*
D15*
X56611200Y-48193000D03*
D14*
X43336200Y-55743000D03*
%TD*%
D12*
%TO.C,SW12_r1*%
X66344800Y-55378400D03*
D11*
X71844800Y-49428400D03*
X60844800Y-49428400D03*
D13*
X66344800Y-49428400D03*
D12*
X61344800Y-53178400D03*
D14*
X66344800Y-43528400D03*
D15*
X69619800Y-55378400D03*
X58069800Y-53178400D03*
D14*
X71344800Y-45628400D03*
%TD*%
D11*
%TO.C,SW3_r1*%
X114896000Y-45974000D03*
D13*
X120396000Y-45974000D03*
D11*
X125896000Y-45974000D03*
D12*
X125396000Y-42224000D03*
X120396000Y-40024000D03*
D15*
X117121000Y-40024000D03*
D14*
X120396000Y-51874000D03*
D15*
X128671000Y-42224000D03*
D14*
X115396000Y-49774000D03*
%TD*%
D11*
%TO.C,SW8_r1*%
X143879200Y-62966600D03*
D13*
X138379200Y-62966600D03*
D11*
X132879200Y-62966600D03*
D12*
X133379200Y-66716600D03*
X138379200Y-68916600D03*
D14*
X138379200Y-57066600D03*
D15*
X141654200Y-68916600D03*
D14*
X143379200Y-59166600D03*
D15*
X130104200Y-66716600D03*
%TD*%
D13*
%TO.C,SW21_r1*%
X47777400Y-89154000D03*
D12*
X49317373Y-94901259D03*
D11*
X42464808Y-90577505D03*
D12*
X43918342Y-94070317D03*
D11*
X53089992Y-87730495D03*
D20*
X52480780Y-94053626D03*
D14*
X46250368Y-83455038D03*
D20*
X40754935Y-94917949D03*
D14*
X51623517Y-84189387D03*
%TD*%
D11*
%TO.C,SW9_r1*%
X125896000Y-62966600D03*
D12*
X120396000Y-57016600D03*
D11*
X114896000Y-62966600D03*
D13*
X120396000Y-62966600D03*
D12*
X125396000Y-59216600D03*
D15*
X117121000Y-57016600D03*
D14*
X120396000Y-68866600D03*
X115396000Y-66766600D03*
D15*
X128671000Y-59216600D03*
%TD*%
D12*
%TO.C,SW20_r1*%
X68072000Y-92360800D03*
D11*
X73572000Y-86410800D03*
D12*
X63072000Y-90160800D03*
D13*
X68072000Y-86410800D03*
D11*
X62572000Y-86410800D03*
D14*
X68072000Y-80510800D03*
D15*
X71347000Y-92360800D03*
D14*
X73072000Y-82610800D03*
D15*
X59797000Y-90160800D03*
%TD*%
D13*
%TO.C,SW7_r1*%
X48336200Y-34950400D03*
D12*
X53336200Y-31200400D03*
D11*
X42836200Y-34950400D03*
D12*
X48336200Y-29000400D03*
D11*
X53836200Y-34950400D03*
D15*
X45061200Y-29000400D03*
D14*
X48336200Y-40850400D03*
D15*
X56611200Y-31200400D03*
D14*
X43336200Y-38750400D03*
%TD*%
D19*
%TO.C,REF\u002A\u002A*%
X94407400Y-42878400D03*
X56307400Y-42878400D03*
X75357400Y-61928400D03*
X75357400Y-23828400D03*
%TD*%
D18*
%TO.C,RSW2*%
X21285200Y-88721000D03*
X21285200Y-82221000D03*
%TD*%
D12*
%TO.C,SW13*%
X247827800Y-46094600D03*
D13*
X247827800Y-52044600D03*
D11*
X253327800Y-52044600D03*
D12*
X252827800Y-48294600D03*
D11*
X242327800Y-52044600D03*
D15*
X244552800Y-46094600D03*
D14*
X247827800Y-57944600D03*
X242827800Y-55844600D03*
D15*
X256102800Y-48294600D03*
%TD*%
D13*
%TO.C,SW22*%
X267766800Y-98044000D03*
D11*
X272272136Y-101198670D03*
D12*
X264354020Y-102917955D03*
D11*
X263261464Y-94889330D03*
D12*
X261520128Y-98247938D03*
D14*
X271150901Y-93211003D03*
D21*
X267036743Y-104796417D03*
X258837405Y-96369475D03*
D14*
X274042151Y-97799104D03*
%TD*%
D12*
%TO.C,SW19*%
X252827800Y-65414200D03*
D13*
X247827800Y-69164200D03*
D12*
X247827800Y-63214200D03*
D11*
X242327800Y-69164200D03*
X253327800Y-69164200D03*
D14*
X247827800Y-75064200D03*
D15*
X244552800Y-63214200D03*
D14*
X242827800Y-72964200D03*
D15*
X256102800Y-65414200D03*
%TD*%
D11*
%TO.C,SW19_r1*%
X53810800Y-68961000D03*
X42810800Y-68961000D03*
D12*
X53310800Y-65211000D03*
D13*
X48310800Y-68961000D03*
D12*
X48310800Y-63011000D03*
D15*
X45035800Y-63011000D03*
D14*
X48310800Y-74861000D03*
X43310800Y-72761000D03*
D15*
X56585800Y-65211000D03*
%TD*%
D22*
%TO.C,Bat+1*%
X263855200Y-47396400D03*
%TD*%
D12*
%TO.C,SW10_r1*%
X102387400Y-45027800D03*
D11*
X96887400Y-50977800D03*
X107887400Y-50977800D03*
D12*
X107387400Y-47227800D03*
D13*
X102387400Y-50977800D03*
D15*
X99112400Y-45027800D03*
D14*
X102387400Y-56877800D03*
X97387400Y-54777800D03*
D15*
X110662400Y-47227800D03*
%TD*%
D11*
%TO.C,SW22_r1*%
X24079200Y-101066600D03*
D12*
X30529385Y-91972228D03*
X25171756Y-93037975D03*
D11*
X33089872Y-94757260D03*
D13*
X28584536Y-97911930D03*
D23*
X22489033Y-94916438D03*
D14*
X31968637Y-102744927D03*
D23*
X33212108Y-90093765D03*
D14*
X26668366Y-103892590D03*
%TD*%
D22*
%TO.C,BatGND1*%
X275996400Y-47447200D03*
%TD*%
%TO.C,Bat+r1*%
X20040600Y-47574200D03*
%TD*%
D12*
%TO.C,SW14_r1*%
X133379200Y-83734600D03*
D13*
X138379200Y-79984600D03*
D11*
X143879200Y-79984600D03*
D12*
X138379200Y-85934600D03*
D11*
X132879200Y-79984600D03*
D15*
X141654200Y-85934600D03*
D14*
X138379200Y-74084600D03*
D15*
X130104200Y-83734600D03*
D14*
X143379200Y-76184600D03*
%TD*%
D11*
%TO.C,SW7*%
X242327800Y-34925000D03*
X253327800Y-34925000D03*
D13*
X247827800Y-34925000D03*
D12*
X247827800Y-28975000D03*
X252827800Y-31175000D03*
D14*
X247827800Y-40825000D03*
D15*
X244552800Y-28975000D03*
X256102800Y-31175000D03*
D14*
X242827800Y-38725000D03*
%TD*%
D22*
%TO.C,BatGND4*%
X32207200Y-47625000D03*
%TD*%
D24*
%TO.C,D7*%
X183054800Y-67081400D03*
X179504800Y-67081400D03*
%TD*%
%TO.C,D18*%
X224987200Y-82727800D03*
X221437200Y-82727800D03*
%TD*%
%TO.C,Dr16*%
X64315800Y-63195200D03*
X67865800Y-63195200D03*
%TD*%
%TO.C,Dr6*%
X133172200Y-59690000D03*
X136722200Y-59690000D03*
%TD*%
%TO.C,Dr15*%
X85905800Y-64693800D03*
X89455800Y-64693800D03*
%TD*%
%TO.C,Dr3*%
X86312200Y-30759400D03*
X89862200Y-30759400D03*
%TD*%
%TO.C,Dr18*%
X62915800Y-83159600D03*
X66465800Y-83159600D03*
%TD*%
%TO.C,Dr9*%
X82197400Y-40843200D03*
X85747400Y-40843200D03*
%TD*%
%TO.C,D11*%
X254044800Y-57124600D03*
X250494800Y-57124600D03*
%TD*%
%TO.C,D17*%
X254781400Y-74193400D03*
X251231400Y-74193400D03*
%TD*%
%TO.C,D15*%
X218281600Y-66421000D03*
X214731600Y-66421000D03*
%TD*%
%TO.C,D2*%
X191335200Y-29692600D03*
X187785200Y-29692600D03*
%TD*%
%TO.C,Dr4*%
X68252800Y-36169600D03*
X71802800Y-36169600D03*
%TD*%
%TO.C,D13*%
X182750000Y-84861400D03*
X179200000Y-84861400D03*
%TD*%
%TO.C,Dr10*%
X64519000Y-46456600D03*
X68069000Y-46456600D03*
%TD*%
D25*
%TO.C,SW_POWER1*%
X273525000Y-47228800D03*
X266225000Y-49438800D03*
D26*
X268375000Y-48328800D03*
D25*
X273525000Y-49438800D03*
X266225000Y-47228800D03*
D26*
X271375000Y-48328800D03*
D27*
X267625000Y-50088800D03*
X270625000Y-50088800D03*
X272125000Y-50088800D03*
%TD*%
D24*
%TO.C,D6*%
X164157200Y-67894200D03*
X160607200Y-67894200D03*
%TD*%
%TO.C,D3*%
X209191400Y-23139400D03*
X205641400Y-23139400D03*
%TD*%
%TO.C,Dr11*%
X50396600Y-55829200D03*
X53946600Y-55829200D03*
%TD*%
%TO.C,Dr2*%
X104371600Y-37769800D03*
X107921600Y-37769800D03*
%TD*%
D28*
%TO.C,D20*%
X266737790Y-93806396D03*
X263829800Y-91770200D03*
%TD*%
D24*
%TO.C,D16*%
X236239400Y-71907400D03*
X232689400Y-71907400D03*
%TD*%
%TO.C,Dr0*%
X133172200Y-42773600D03*
X136722200Y-42773600D03*
%TD*%
D29*
%TO.C,Dr20*%
X27978410Y-87075396D03*
X30886400Y-85039200D03*
%TD*%
D24*
%TO.C,Dr7*%
X122532600Y-66802000D03*
X126082600Y-66802000D03*
%TD*%
%TO.C,Dr5*%
X50066400Y-38633400D03*
X53616400Y-38633400D03*
%TD*%
%TO.C,Dr12*%
X132943600Y-76835000D03*
X136493600Y-76835000D03*
%TD*%
D30*
%TO.C,D19*%
X246837236Y-85399208D03*
X243408200Y-84480400D03*
%TD*%
D24*
%TO.C,Dr1*%
X122380200Y-49657000D03*
X125930200Y-49657000D03*
%TD*%
D25*
%TO.C,SW_POWERR1*%
X22512000Y-47101800D03*
D26*
X27662000Y-48201800D03*
D25*
X29812000Y-47101800D03*
D26*
X24662000Y-48201800D03*
D25*
X22512000Y-49311800D03*
X29812000Y-49311800D03*
D27*
X23912000Y-49961800D03*
X26912000Y-49961800D03*
X28412000Y-49961800D03*
%TD*%
D24*
%TO.C,Dr14*%
X104193800Y-71602600D03*
X107743800Y-71602600D03*
%TD*%
%TO.C,D10*%
X226409600Y-44831000D03*
X222859600Y-44831000D03*
%TD*%
%TO.C,D9*%
X218230800Y-47828200D03*
X214680800Y-47828200D03*
%TD*%
%TO.C,Dr13*%
X121872200Y-83083400D03*
X125422200Y-83083400D03*
%TD*%
%TO.C,D12*%
X164639800Y-84455000D03*
X161089800Y-84455000D03*
%TD*%
%TO.C,D4*%
X236315600Y-37160200D03*
X232765600Y-37160200D03*
%TD*%
%TO.C,D0*%
X163623800Y-50088800D03*
X160073800Y-50088800D03*
%TD*%
%TO.C,D14*%
X200885600Y-71424800D03*
X197335600Y-71424800D03*
%TD*%
%TO.C,Dr8*%
X104244600Y-54483000D03*
X107794600Y-54483000D03*
%TD*%
D31*
%TO.C,Dr19*%
X41783000Y-87096600D03*
X45212036Y-86177792D03*
%TD*%
D24*
%TO.C,D5*%
X254273400Y-39928800D03*
X250723400Y-39928800D03*
%TD*%
%TO.C,Dr17*%
X50320400Y-72771000D03*
X53870400Y-72771000D03*
%TD*%
%TO.C,D1*%
X183105600Y-50088800D03*
X179555600Y-50088800D03*
%TD*%
%TO.C,D8*%
X200704800Y-56261000D03*
X197154800Y-56261000D03*
%TD*%
M02*
