%TF.GenerationSoftware,KiCad,Pcbnew,(6.0.5-0)*%
%TF.CreationDate,2023-01-31T11:57:14-08:00*%
%TF.ProjectId,Swept_3x6,53776570-745f-4337-9836-2e6b69636164,rev?*%
%TF.SameCoordinates,Original*%
%TF.FileFunction,Copper,L1,Top*%
%TF.FilePolarity,Positive*%
%FSLAX46Y46*%
G04 Gerber Fmt 4.6, Leading zero omitted, Abs format (unit mm)*
G04 Created by KiCad (PCBNEW (6.0.5-0)) date 2023-01-31 11:57:14*
%MOMM*%
%LPD*%
G01*
G04 APERTURE LIST*
%TA.AperFunction,ComponentPad*%
%ADD10C,4.400000*%
%TD*%
%TA.AperFunction,ComponentPad*%
%ADD11C,1.524000*%
%TD*%
%TA.AperFunction,ComponentPad*%
%ADD12C,2.032000*%
%TD*%
%TA.AperFunction,ComponentPad*%
%ADD13C,2.000000*%
%TD*%
%TA.AperFunction,ComponentPad*%
%ADD14C,1.397000*%
%TD*%
%TA.AperFunction,ComponentPad*%
%ADD15O,1.700000X1.700000*%
%TD*%
%TA.AperFunction,ComponentPad*%
%ADD16R,1.700000X1.700000*%
%TD*%
%TA.AperFunction,ViaPad*%
%ADD17C,0.800000*%
%TD*%
%TA.AperFunction,Conductor*%
%ADD18C,0.250000*%
%TD*%
G04 APERTURE END LIST*
D10*
%TO.P,,1*%
%TO.N,N/C*%
X166830000Y-54630000D03*
%TD*%
%TO.P,,1*%
%TO.N,N/C*%
X166820000Y-71570000D03*
%TD*%
%TO.P,,1*%
%TO.N,N/C*%
X129320000Y-71540000D03*
%TD*%
%TO.P,,1*%
%TO.N,N/C*%
X129350000Y-54610000D03*
%TD*%
D11*
%TO.P,U1,1,TX*%
%TO.N,CS*%
X277659800Y-49850000D03*
%TO.P,U1,2,RX*%
%TO.N,unconnected-(U1-Pad2)*%
X277659800Y-52390000D03*
%TO.P,U1,3,GND*%
%TO.N,gnd*%
X277659800Y-54930000D03*
%TO.P,U1,4,GND*%
X277659800Y-57470000D03*
%TO.P,U1,5,SDA*%
%TO.N,MOSI*%
X277659800Y-60010000D03*
%TO.P,U1,6,SCL*%
%TO.N,SCK*%
X277659800Y-62550000D03*
%TO.P,U1,7,D4*%
%TO.N,row_0*%
X277659800Y-65090000D03*
%TO.P,U1,8,C6*%
%TO.N,row_1*%
X277659800Y-67630000D03*
%TO.P,U1,9,D7*%
%TO.N,row_2*%
X277659800Y-70170000D03*
%TO.P,U1,10,E6*%
%TO.N,row_3*%
X277659800Y-72710000D03*
%TO.P,U1,11,B4*%
%TO.N,unconnected-(U1-Pad11)*%
X277659800Y-75250000D03*
%TO.P,U1,12,B5*%
%TO.N,unconnected-(U1-Pad12)*%
X277659800Y-77790000D03*
%TO.P,U1,13,B6*%
%TO.N,unconnected-(U1-Pad13)*%
X262439800Y-77790000D03*
%TO.P,U1,14,B2*%
%TO.N,unconnected-(U1-Pad14)*%
X262439800Y-75250000D03*
%TO.P,U1,15,B3*%
%TO.N,col5*%
X262439800Y-72710000D03*
%TO.P,U1,16,B1*%
%TO.N,col4*%
X262439800Y-70170000D03*
%TO.P,U1,17,F7*%
%TO.N,col3*%
X262439800Y-67630000D03*
%TO.P,U1,18,F6*%
%TO.N,col2*%
X262439800Y-65090000D03*
%TO.P,U1,19,F5*%
%TO.N,col1*%
X262439800Y-62550000D03*
%TO.P,U1,20,F4*%
%TO.N,col0*%
X262439800Y-60010000D03*
%TO.P,U1,21,VCC*%
%TO.N,vcc*%
X262439800Y-57470000D03*
%TO.P,U1,22,RST*%
%TO.N,reset*%
X262439800Y-54930000D03*
%TO.P,U1,23,GND*%
%TO.N,gnd*%
X262439800Y-52390000D03*
%TO.P,U1,24,RAW*%
%TO.N,raw*%
X262439800Y-49850000D03*
%TD*%
D12*
%TO.P,SW16,1,1*%
%TO.N,col2*%
X193776600Y-74022800D03*
%TO.P,SW16,2,2*%
%TO.N,Net-(D14-Pad2)*%
X188776600Y-71922800D03*
%TD*%
%TO.P,SW20,1,1*%
%TO.N,col3*%
X228473000Y-80739400D03*
%TO.P,SW20,2,2*%
%TO.N,Net-(D18-Pad2)*%
X233473000Y-82839400D03*
%TD*%
%TO.P,SW15,1,1*%
%TO.N,col1*%
X175818800Y-86037000D03*
%TO.P,SW15,2,2*%
%TO.N,Net-(D13-Pad2)*%
X170818800Y-83937000D03*
%TD*%
%TO.P,SW21,1,1*%
%TO.N,col4*%
X250193032Y-83658238D03*
%TO.P,SW21,2,2*%
%TO.N,Net-(D19-Pad2)*%
X254479142Y-86980777D03*
%TD*%
%TO.P,SW17,1,1*%
%TO.N,col3*%
X211785200Y-67139400D03*
%TO.P,SW17,2,2*%
%TO.N,Net-(D15-Pad2)*%
X206785200Y-65039400D03*
%TD*%
%TO.P,SW18,1,1*%
%TO.N,col4*%
X229793800Y-72498800D03*
%TO.P,SW18,2,2*%
%TO.N,Net-(D16-Pad2)*%
X224793800Y-70398800D03*
%TD*%
%TO.P,SW4,1,1*%
%TO.N,col2*%
X193802000Y-27983600D03*
%TO.P,SW4,2,2*%
%TO.N,Net-(D2-Pad2)*%
X198802000Y-30083600D03*
%TD*%
%TO.P,SW3,1,1*%
%TO.N,col1*%
X175793400Y-51823200D03*
%TO.P,SW3,2,2*%
%TO.N,Net-(D1-Pad2)*%
X170793400Y-49723200D03*
%TD*%
%TO.P,SW9,1,1*%
%TO.N,col1*%
X175793400Y-68917400D03*
%TO.P,SW9,2,2*%
%TO.N,Net-(D7-Pad2)*%
X170793400Y-66817400D03*
%TD*%
%TO.P,SW14,1,1*%
%TO.N,col0*%
X157810200Y-86062400D03*
%TO.P,SW14,2,2*%
%TO.N,Net-(D12-Pad2)*%
X152810200Y-83962400D03*
%TD*%
%TO.P,SW12,1,1*%
%TO.N,col4*%
X229793800Y-43579200D03*
%TO.P,SW12,2,2*%
%TO.N,Net-(D10-Pad2)*%
X234793800Y-45679200D03*
%TD*%
%TO.P,SW11,1,1*%
%TO.N,col3*%
X211785200Y-50019800D03*
%TO.P,SW11,2,2*%
%TO.N,Net-(D9-Pad2)*%
X206785200Y-47919800D03*
%TD*%
%TO.P,SW8,1,1*%
%TO.N,col0*%
X157784800Y-68942800D03*
%TO.P,SW8,2,2*%
%TO.N,Net-(D6-Pad2)*%
X152784800Y-66842800D03*
%TD*%
%TO.P,SW6,1,1*%
%TO.N,col4*%
X229819200Y-38259600D03*
%TO.P,SW6,2,2*%
%TO.N,Net-(D4-Pad2)*%
X224819200Y-36159600D03*
%TD*%
%TO.P,SW5,1,1*%
%TO.N,col3*%
X211810600Y-21125600D03*
%TO.P,SW5,2,2*%
%TO.N,Net-(D3-Pad2)*%
X216810600Y-23225600D03*
%TD*%
%TO.P,SW2,1,1*%
%TO.N,col0*%
X157784800Y-51823200D03*
%TO.P,SW2,2,2*%
%TO.N,Net-(D0-Pad2)*%
X152784800Y-49723200D03*
%TD*%
D13*
%TO.P,RSW1,1,1*%
%TO.N,gnd*%
X276852244Y-91994123D03*
%TO.P,RSW1,2,2*%
%TO.N,reset*%
X271527756Y-88265877D03*
%TD*%
D12*
%TO.P,SW10,1,1*%
%TO.N,col2*%
X193776600Y-56903200D03*
%TO.P,SW10,2,2*%
%TO.N,Net-(D8-Pad2)*%
X188776600Y-54803200D03*
%TD*%
D10*
%TO.P,REF\u002A\u002A,1*%
%TO.N,N/C*%
X240352000Y-42936000D03*
X202252000Y-42936000D03*
X221302000Y-23886000D03*
X221302000Y-61986000D03*
%TD*%
D11*
%TO.P,U2,1,TX*%
%TO.N,CSr*%
X33942000Y-49722800D03*
%TO.P,U2,2,RX*%
%TO.N,unconnected-(U2-Pad2)*%
X33942000Y-52262800D03*
%TO.P,U2,3,GND*%
%TO.N,gnd_r*%
X33942000Y-54802800D03*
%TO.P,U2,4,GND*%
X33942000Y-57342800D03*
%TO.P,U2,5,SDA*%
%TO.N,MOSIr*%
X33942000Y-59882800D03*
%TO.P,U2,6,SCL*%
%TO.N,SCKr*%
X33942000Y-62422800D03*
%TO.P,U2,7,D4*%
%TO.N,row_0r*%
X33942000Y-64962800D03*
%TO.P,U2,8,C6*%
%TO.N,row_1r*%
X33942000Y-67502800D03*
%TO.P,U2,9,D7*%
%TO.N,row_2r*%
X33942000Y-70042800D03*
%TO.P,U2,10,E6*%
%TO.N,row_3r*%
X33942000Y-72582800D03*
%TO.P,U2,11,B4*%
%TO.N,unconnected-(U2-Pad11)*%
X33942000Y-75122800D03*
%TO.P,U2,12,B5*%
%TO.N,unconnected-(U2-Pad12)*%
X33942000Y-77662800D03*
%TO.P,U2,13,B6*%
%TO.N,unconnected-(U2-Pad13)*%
X18722000Y-77662800D03*
%TO.P,U2,14,B2*%
%TO.N,unconnected-(U2-Pad14)*%
X18722000Y-75122800D03*
%TO.P,U2,15,B3*%
%TO.N,col5r*%
X18722000Y-72582800D03*
%TO.P,U2,16,B1*%
%TO.N,col4r*%
X18722000Y-70042800D03*
%TO.P,U2,17,F7*%
%TO.N,col3r*%
X18722000Y-67502800D03*
%TO.P,U2,18,F6*%
%TO.N,col2r*%
X18722000Y-64962800D03*
%TO.P,U2,19,F5*%
%TO.N,col1r*%
X18722000Y-62422800D03*
%TO.P,U2,20,F4*%
%TO.N,col0r*%
X18722000Y-59882800D03*
%TO.P,U2,21,VCC*%
%TO.N,vcc_r*%
X18722000Y-57342800D03*
%TO.P,U2,22,RST*%
%TO.N,reset_r*%
X18722000Y-54802800D03*
%TO.P,U2,23,GND*%
%TO.N,gnd_r*%
X18722000Y-52262800D03*
%TO.P,U2,24,RAW*%
%TO.N,raw_r*%
X18722000Y-49722800D03*
%TD*%
D12*
%TO.P,SW17_r1,1,1*%
%TO.N,col3r*%
X84378800Y-67012400D03*
%TO.P,SW17_r1,2,2*%
%TO.N,Net-(Dr15-Pad2)*%
X79378800Y-64912400D03*
%TD*%
%TO.P,SW11_r1,1,1*%
%TO.N,col3r*%
X84353400Y-38219800D03*
%TO.P,SW11_r1,2,2*%
%TO.N,Net-(Dr9-Pad2)*%
X89353400Y-40319800D03*
%TD*%
%TO.P,SW15_r1,1,1*%
%TO.N,col1r*%
X120396000Y-85859200D03*
%TO.P,SW15_r1,2,2*%
%TO.N,Net-(Dr13-Pad2)*%
X115396000Y-83759200D03*
%TD*%
%TO.P,SW18_r1,1,1*%
%TO.N,col4r*%
X66344800Y-60521000D03*
%TO.P,SW18_r1,2,2*%
%TO.N,Net-(Dr16-Pad2)*%
X71344800Y-62621000D03*
%TD*%
%TO.P,SW6_r1,1,1*%
%TO.N,col4r*%
X66344800Y-38259600D03*
%TO.P,SW6_r1,2,2*%
%TO.N,Net-(Dr4-Pad2)*%
X61344800Y-36159600D03*
%TD*%
%TO.P,SW5_r1,1,1*%
%TO.N,col3r*%
X84378800Y-33001800D03*
%TO.P,SW5_r1,2,2*%
%TO.N,Net-(Dr3-Pad2)*%
X79378800Y-30901800D03*
%TD*%
%TO.P,SW2_r1,1,1*%
%TO.N,col0r*%
X138404600Y-40074000D03*
%TO.P,SW2_r1,2,2*%
%TO.N,Net-(Dr0-Pad2)*%
X143404600Y-42174000D03*
%TD*%
%TO.P,SW16_r1,1,1*%
%TO.N,col2r*%
X102412800Y-73895800D03*
%TO.P,SW16_r1,2,2*%
%TO.N,Net-(Dr14-Pad2)*%
X97412800Y-71795800D03*
%TD*%
%TO.P,SW4_r1,1,1*%
%TO.N,col2r*%
X102387400Y-39834400D03*
%TO.P,SW4_r1,2,2*%
%TO.N,Net-(Dr2-Pad2)*%
X97387400Y-37734400D03*
%TD*%
%TO.P,SW13_r1,1,1*%
%TO.N,col5r*%
X48336200Y-57843000D03*
%TO.P,SW13_r1,2,2*%
%TO.N,Net-(Dr11-Pad2)*%
X43336200Y-55743000D03*
%TD*%
%TO.P,SW12_r1,1,1*%
%TO.N,col4r*%
X66344800Y-43528400D03*
%TO.P,SW12_r1,2,2*%
%TO.N,Net-(Dr10-Pad2)*%
X71344800Y-45628400D03*
%TD*%
%TO.P,SW3_r1,1,1*%
%TO.N,col1r*%
X120396000Y-51874000D03*
%TO.P,SW3_r1,2,2*%
%TO.N,Net-(Dr1-Pad2)*%
X115396000Y-49774000D03*
%TD*%
%TO.P,SW8_r1,1,1*%
%TO.N,col0r*%
X138379200Y-57066600D03*
%TO.P,SW8_r1,2,2*%
%TO.N,Net-(Dr6-Pad2)*%
X143379200Y-59166600D03*
%TD*%
%TO.P,SW21_r1,1,1*%
%TO.N,col4r*%
X46250368Y-83455038D03*
%TO.P,SW21_r1,2,2*%
%TO.N,Net-(Dr19-Pad2)*%
X51623517Y-84189387D03*
%TD*%
%TO.P,SW9_r1,1,1*%
%TO.N,col1r*%
X120396000Y-68866600D03*
%TO.P,SW9_r1,2,2*%
%TO.N,Net-(Dr7-Pad2)*%
X115396000Y-66766600D03*
%TD*%
%TO.P,SW20_r1,1,1*%
%TO.N,col3r*%
X68072000Y-80510800D03*
%TO.P,SW20_r1,2,2*%
%TO.N,Net-(Dr18-Pad2)*%
X73072000Y-82610800D03*
%TD*%
%TO.P,SW7_r1,1,1*%
%TO.N,col5r*%
X48336200Y-40850400D03*
%TO.P,SW7_r1,2,2*%
%TO.N,Net-(Dr5-Pad2)*%
X43336200Y-38750400D03*
%TD*%
D10*
%TO.P,REF\u002A\u002A,1*%
%TO.N,N/C*%
X94407400Y-42878400D03*
X56307400Y-42878400D03*
X75357400Y-61928400D03*
X75357400Y-23828400D03*
%TD*%
D13*
%TO.P,RSW2,1,1*%
%TO.N,gnd_r*%
X26412244Y-87115877D03*
%TO.P,RSW2,2,2*%
%TO.N,reset_r*%
X21087756Y-90844123D03*
%TD*%
D12*
%TO.P,SW13,1,1*%
%TO.N,col5*%
X247827800Y-57944600D03*
%TO.P,SW13,2,2*%
%TO.N,Net-(D11-Pad2)*%
X242827800Y-55844600D03*
%TD*%
D10*
%TO.P,,1*%
%TO.N,N/C*%
X212360000Y-79150000D03*
%TD*%
D12*
%TO.P,SW22,1,1*%
%TO.N,col5*%
X271150901Y-93211003D03*
%TO.P,SW22,2,2*%
%TO.N,Net-(D20-Pad2)*%
X274042151Y-97799104D03*
%TD*%
%TO.P,SW19,1,1*%
%TO.N,col5*%
X247827800Y-75064200D03*
%TO.P,SW19,2,2*%
%TO.N,Net-(D17-Pad2)*%
X242827800Y-72964200D03*
%TD*%
D10*
%TO.P,,1*%
%TO.N,N/C*%
X257750000Y-60620000D03*
%TD*%
D12*
%TO.P,SW19_r1,1,1*%
%TO.N,col5r*%
X48310800Y-74861000D03*
%TO.P,SW19_r1,2,2*%
%TO.N,Net-(Dr17-Pad2)*%
X43310800Y-72761000D03*
%TD*%
D10*
%TO.P,,1*%
%TO.N,N/C*%
X37450000Y-91600000D03*
%TD*%
D14*
%TO.P,Bat+1,1,1*%
%TO.N,BT+*%
X263855200Y-47396400D03*
%TD*%
D12*
%TO.P,SW10_r1,1,1*%
%TO.N,col2r*%
X102387400Y-56877800D03*
%TO.P,SW10_r1,2,2*%
%TO.N,Net-(Dr8-Pad2)*%
X97387400Y-54777800D03*
%TD*%
%TO.P,SW22_r1,1,1*%
%TO.N,col5r*%
X31968637Y-102744927D03*
%TO.P,SW22_r1,2,2*%
%TO.N,Net-(Dr20-Pad2)*%
X26668366Y-103892590D03*
%TD*%
D14*
%TO.P,BatGND1,1,1*%
%TO.N,gnd*%
X275996400Y-47447200D03*
%TD*%
%TO.P,Bat+r1,1,1*%
%TO.N,BT+_r*%
X20040600Y-47574200D03*
%TD*%
D10*
%TO.P,,1*%
%TO.N,N/C*%
X258610000Y-91950000D03*
%TD*%
D15*
%TO.P,J1,5,Pin_5*%
%TO.N,CS*%
X275125000Y-82180000D03*
%TO.P,J1,4,Pin_4*%
%TO.N,gnd*%
X272585000Y-82180000D03*
%TO.P,J1,3,Pin_3*%
%TO.N,vcc*%
X270045000Y-82180000D03*
%TO.P,J1,2,Pin_2*%
%TO.N,SCK*%
X267505000Y-82180000D03*
D16*
%TO.P,J1,1,Pin_1*%
%TO.N,MOSI*%
X264965000Y-82180000D03*
%TD*%
D10*
%TO.P,,1*%
%TO.N,N/C*%
X38450000Y-60260000D03*
%TD*%
D12*
%TO.P,SW14_r1,1,1*%
%TO.N,col0r*%
X138379200Y-74084600D03*
%TO.P,SW14_r1,2,2*%
%TO.N,Net-(Dr12-Pad2)*%
X143379200Y-76184600D03*
%TD*%
%TO.P,SW7,1,1*%
%TO.N,col5*%
X247827800Y-40825000D03*
%TO.P,SW7,2,2*%
%TO.N,Net-(D5-Pad2)*%
X242827800Y-38725000D03*
%TD*%
D10*
%TO.P,,1*%
%TO.N,N/C*%
X84080000Y-79480000D03*
%TD*%
D16*
%TO.P,J2,1,Pin_1*%
%TO.N,MOSIr*%
X21230000Y-82090000D03*
D15*
%TO.P,J2,2,Pin_2*%
%TO.N,SCKr*%
X23770000Y-82090000D03*
%TO.P,J2,3,Pin_3*%
%TO.N,vcc_r*%
X26310000Y-82090000D03*
%TO.P,J2,4,Pin_4*%
%TO.N,gnd_r*%
X28850000Y-82090000D03*
%TO.P,J2,5,Pin_5*%
%TO.N,CSr*%
X31390000Y-82090000D03*
%TD*%
D14*
%TO.P,BatGND4,1,1*%
%TO.N,gnd_r*%
X32207200Y-47625000D03*
%TD*%
D17*
%TO.N,gnd*%
X274260000Y-74860000D03*
%TO.N,vcc*%
X266620000Y-71770000D03*
%TO.N,reset*%
X271230000Y-77750000D03*
%TO.N,CS*%
X272740000Y-74890000D03*
%TO.N,CSr*%
X36395000Y-74345000D03*
%TO.N,col0*%
X189763400Y-76809600D03*
X255219200Y-79171800D03*
X154457400Y-42011600D03*
X152501600Y-74472800D03*
X152323800Y-57302400D03*
%TO.N,col1*%
X255219200Y-80483697D03*
X170103800Y-74498200D03*
X169976800Y-57073800D03*
X172516800Y-42240200D03*
%TO.N,col2*%
X255219200Y-81483200D03*
X188188600Y-62306200D03*
X188417200Y-45364400D03*
X199517000Y-39801800D03*
%TO.N,col3*%
X206121000Y-38277800D03*
X217855800Y-33274000D03*
X206171800Y-55778400D03*
X255270000Y-82651600D03*
X231724200Y-90551000D03*
%TO.N,col4*%
X226187000Y-28549600D03*
X255320800Y-83921600D03*
X235204000Y-55321200D03*
X250952000Y-93827600D03*
X224256600Y-60782200D03*
%TO.N,col5*%
X244475000Y-65303400D03*
X244576600Y-48158400D03*
X244551200Y-31064200D03*
X268198600Y-103124000D03*
%TO.N,col0r*%
X77343000Y-78028800D03*
X41275000Y-78765400D03*
X144170400Y-51866800D03*
X144018000Y-69062600D03*
X141630400Y-83540600D03*
%TO.N,col1r*%
X114249200Y-57327800D03*
X114808000Y-40335200D03*
X114655600Y-74168000D03*
X41249600Y-80010000D03*
%TO.N,col2r*%
X96494600Y-62382400D03*
X97104200Y-44983400D03*
X96723200Y-28092400D03*
X41249600Y-81356200D03*
X76327000Y-82854800D03*
%TO.N,col3r*%
X89814400Y-50063400D03*
X71602600Y-90398600D03*
X78968600Y-21463000D03*
X41249600Y-82397600D03*
X78765400Y-55448200D03*
%TO.N,col4r*%
X51790600Y-92100400D03*
X72212200Y-55194200D03*
X62865000Y-28371800D03*
X71729600Y-72440800D03*
%TO.N,col5r*%
X37973000Y-86131400D03*
X42976800Y-46075600D03*
X23571200Y-96748600D03*
X42773600Y-63169800D03*
X36906200Y-76530200D03*
X45008800Y-31267400D03*
X19837400Y-93370400D03*
%TD*%
D18*
%TO.N,col5r*%
X39990000Y-88148400D02*
X39990000Y-94960000D01*
X37973000Y-86131400D02*
X39990000Y-88148400D01*
X39990000Y-94960000D02*
X38209436Y-96740564D01*
X38209436Y-96740564D02*
X37973000Y-96740564D01*
%TO.N,MOSI*%
X264965000Y-82075000D02*
X268030000Y-79010000D01*
X264965000Y-82180000D02*
X264965000Y-82075000D01*
%TO.N,SCK*%
X267505000Y-82180000D02*
X267505000Y-80535000D01*
X267505000Y-80535000D02*
X268450000Y-79590000D01*
%TO.N,gnd*%
X272585000Y-84745000D02*
X272585000Y-82180000D01*
X276852244Y-89012244D02*
X272585000Y-84745000D01*
X276852244Y-91994123D02*
X276852244Y-89012244D01*
%TO.N,SCK*%
X274840000Y-79590000D02*
X275790000Y-78640000D01*
X275790000Y-78640000D02*
X275790000Y-64419800D01*
X268450000Y-79590000D02*
X274840000Y-79590000D01*
X275790000Y-64419800D02*
X277659800Y-62550000D01*
%TO.N,MOSI*%
X268030000Y-79010000D02*
X274360000Y-79010000D01*
X274360000Y-79010000D02*
X274380000Y-79030000D01*
X274380000Y-79030000D02*
X275210000Y-78200000D01*
X275210000Y-78200000D02*
X275210000Y-62459800D01*
X275210000Y-62459800D02*
X277659800Y-60010000D01*
%TO.N,gnd*%
X274260000Y-60869800D02*
X277659800Y-57470000D01*
X274260000Y-74860000D02*
X274260000Y-60869800D01*
%TO.N,vcc*%
X266620000Y-61650200D02*
X262439800Y-57470000D01*
X266620000Y-71770000D02*
X266620000Y-61650200D01*
%TO.N,reset*%
X262439800Y-54930000D02*
X271230000Y-63720200D01*
X271230000Y-63720200D02*
X271230000Y-77750000D01*
%TO.N,CS*%
X272740000Y-54769800D02*
X277659800Y-49850000D01*
X272740000Y-74890000D02*
X272740000Y-54769800D01*
%TO.N,CSr*%
X33942000Y-49722800D02*
X35720000Y-51500800D01*
X35720000Y-73670000D02*
X36395000Y-74345000D01*
X35720000Y-51500800D02*
X35720000Y-73670000D01*
%TO.N,col0*%
X189763400Y-77546200D02*
X189763400Y-76809600D01*
X152323800Y-57302400D02*
X152323800Y-59080400D01*
X157784800Y-51823200D02*
X155313800Y-51823200D01*
X155549600Y-48437800D02*
X155549600Y-47454992D01*
X155067000Y-83319200D02*
X157810200Y-86062400D01*
X259110720Y-63339080D02*
X262439800Y-60010000D01*
X155067000Y-79425800D02*
X155067000Y-83319200D01*
X154813000Y-61569600D02*
X154813000Y-65971000D01*
X259110720Y-77540162D02*
X259110720Y-63339080D01*
X157784800Y-51823200D02*
X155549600Y-49588000D01*
X175056800Y-88493600D02*
X183184800Y-88493600D01*
X163557800Y-86062400D02*
X164872911Y-87377511D01*
X183184800Y-88493600D02*
X185013600Y-86664800D01*
X155313800Y-51823200D02*
X152323800Y-54813200D01*
X152501600Y-76860400D02*
X155067000Y-79425800D01*
X154813000Y-65971000D02*
X157784800Y-68942800D01*
X185013600Y-82296000D02*
X189763400Y-77546200D01*
X152323800Y-59080400D02*
X154813000Y-61569600D01*
X157810200Y-86062400D02*
X163557800Y-86062400D01*
X152323800Y-54813200D02*
X152323800Y-57302400D01*
X255219200Y-79171800D02*
X257479082Y-79171800D01*
X152501600Y-72745600D02*
X152501600Y-74472800D01*
X155549600Y-49588000D02*
X155549600Y-48437800D01*
X257479082Y-79171800D02*
X259110720Y-77540162D01*
X173940711Y-87377511D02*
X175056800Y-88493600D01*
X154457400Y-46362792D02*
X154457400Y-42011600D01*
X155549600Y-47454992D02*
X154457400Y-46362792D01*
X156304400Y-68942800D02*
X152501600Y-72745600D01*
X164872911Y-87377511D02*
X173940711Y-87377511D01*
X157784800Y-68942800D02*
X156304400Y-68942800D01*
X152501600Y-74472800D02*
X152501600Y-76860400D01*
X185013600Y-86664800D02*
X185013600Y-82296000D01*
%TO.N,col1*%
X169976800Y-57073800D02*
X169976800Y-54711600D01*
X169976800Y-59817000D02*
X169976800Y-57073800D01*
X172865200Y-51823200D02*
X175793400Y-51823200D01*
X172770800Y-79578200D02*
X170103800Y-76911200D01*
X173779600Y-68917400D02*
X175793400Y-68917400D01*
X256802903Y-80483697D02*
X259560240Y-77726360D01*
X175793400Y-68917400D02*
X172669200Y-65793200D01*
X175818800Y-86037000D02*
X172770800Y-82989000D01*
X170103800Y-76911200D02*
X170103800Y-74498200D01*
X170103800Y-72593200D02*
X173779600Y-68917400D01*
X255219200Y-80483697D02*
X256802903Y-80483697D01*
X259560240Y-77726360D02*
X259560240Y-65429560D01*
X175793400Y-51823200D02*
X172516800Y-48546600D01*
X172669200Y-65793200D02*
X172669200Y-62509400D01*
X169976800Y-54711600D02*
X172865200Y-51823200D01*
X259560240Y-65429560D02*
X262439800Y-62550000D01*
X172770800Y-82989000D02*
X172770800Y-79578200D01*
X172516800Y-48546600D02*
X172516800Y-42240200D01*
X172669200Y-62509400D02*
X169976800Y-59817000D01*
X170103800Y-74498200D02*
X170103800Y-72593200D01*
%TO.N,col2*%
X189153800Y-42697400D02*
X198043800Y-42697400D01*
X196723000Y-35407600D02*
X196723000Y-32639000D01*
X192093000Y-56903200D02*
X193776600Y-56903200D01*
X188417200Y-43434000D02*
X189153800Y-42697400D01*
X193776600Y-56903200D02*
X191592200Y-54718800D01*
X188188600Y-62306200D02*
X188188600Y-60807600D01*
X260009760Y-67520040D02*
X262439800Y-65090000D01*
X188417200Y-45364400D02*
X188417200Y-43434000D01*
X193776600Y-74022800D02*
X190500000Y-70746200D01*
X196723000Y-32639000D02*
X193802000Y-29718000D01*
X199517000Y-38201600D02*
X196723000Y-35407600D01*
X199517000Y-39801800D02*
X199517000Y-38201600D01*
X256463082Y-81483200D02*
X260009760Y-77936522D01*
X190500000Y-70746200D02*
X190500000Y-67208400D01*
X260009760Y-77936522D02*
X260009760Y-67520040D01*
X193802000Y-29718000D02*
X193802000Y-27983600D01*
X188417200Y-48590200D02*
X188417200Y-45364400D01*
X188188600Y-64897000D02*
X188188600Y-62306200D01*
X191592200Y-51765200D02*
X188417200Y-48590200D01*
X188188600Y-60807600D02*
X192093000Y-56903200D01*
X199517000Y-41224200D02*
X199517000Y-39801800D01*
X191592200Y-54718800D02*
X191592200Y-51765200D01*
X190500000Y-67208400D02*
X188188600Y-64897000D01*
X255219200Y-81483200D02*
X256463082Y-81483200D01*
X198043800Y-42697400D02*
X199517000Y-41224200D01*
%TO.N,col3*%
X209143600Y-47378200D02*
X209143600Y-43992800D01*
X228473000Y-82651600D02*
X231724200Y-85902800D01*
X255270000Y-82651600D02*
X255930400Y-82651600D01*
X216611200Y-35458400D02*
X217855800Y-34213800D01*
X260459280Y-69610520D02*
X262439800Y-67630000D01*
X217855800Y-31648400D02*
X214909400Y-28702000D01*
X260459280Y-78122720D02*
X260459280Y-69610520D01*
X214909400Y-28702000D02*
X214909400Y-24224400D01*
X206121000Y-40970200D02*
X206121000Y-38277800D01*
X231724200Y-85902800D02*
X231724200Y-90551000D01*
X217855800Y-33274000D02*
X217855800Y-31648400D01*
X206171800Y-57454800D02*
X206171800Y-55778400D01*
X222173800Y-77528000D02*
X222173800Y-78054200D01*
X208635600Y-63989800D02*
X208635600Y-59918600D01*
X217855800Y-34213800D02*
X217855800Y-33274000D01*
X222173800Y-78054200D02*
X224859000Y-80739400D01*
X224859000Y-80739400D02*
X228473000Y-80739400D01*
X211785200Y-67139400D02*
X208635600Y-63989800D01*
X210050800Y-50019800D02*
X211785200Y-50019800D01*
X255930400Y-82651600D02*
X260459280Y-78122720D01*
X211785200Y-67139400D02*
X222173800Y-77528000D01*
X206171800Y-55778400D02*
X206171800Y-53898800D01*
X211785200Y-50019800D02*
X209143600Y-47378200D01*
X206171800Y-53898800D02*
X210050800Y-50019800D01*
X208635600Y-59918600D02*
X206171800Y-57454800D01*
X228473000Y-80739400D02*
X228473000Y-82651600D01*
X214909400Y-24224400D02*
X211810600Y-21125600D01*
X206121000Y-36880800D02*
X207543400Y-35458400D01*
X209143600Y-43992800D02*
X206121000Y-40970200D01*
X206121000Y-38277800D02*
X206121000Y-36880800D01*
X207543400Y-35458400D02*
X216611200Y-35458400D01*
%TO.N,col4*%
X250193032Y-83658238D02*
X250193032Y-86693232D01*
X235204000Y-55321200D02*
X235204000Y-56997600D01*
X225425000Y-58242200D02*
X224256600Y-59410600D01*
X224256600Y-60782200D02*
X224256600Y-62179200D01*
X233959400Y-58242200D02*
X225425000Y-58242200D01*
X239235400Y-81940400D02*
X240080800Y-81940400D01*
X229793800Y-43579200D02*
X229793800Y-45135800D01*
X229793800Y-45135800D02*
X233197400Y-48539400D01*
X250193032Y-86693232D02*
X252069600Y-88569800D01*
X229819200Y-38259600D02*
X227558600Y-35999000D01*
X226187000Y-33197800D02*
X226187000Y-28549600D01*
X229793800Y-72498800D02*
X239235400Y-81940400D01*
X235204000Y-53848000D02*
X235204000Y-55321200D01*
X240080800Y-81940400D02*
X241798638Y-83658238D01*
X227558600Y-35382200D02*
X227558600Y-34569400D01*
X234518200Y-53162200D02*
X235204000Y-53848000D01*
X229793800Y-70840600D02*
X229793800Y-72498800D01*
X233197400Y-52832000D02*
X233527600Y-53162200D01*
X233197400Y-48539400D02*
X233197400Y-52832000D01*
X241798638Y-83658238D02*
X250193032Y-83658238D01*
X260908800Y-78333600D02*
X260908800Y-71701000D01*
X226237800Y-33248600D02*
X226187000Y-33197800D01*
X224256600Y-59410600D02*
X224256600Y-60782200D01*
X255320800Y-83921600D02*
X260908800Y-78333600D01*
X229819200Y-43553800D02*
X229793800Y-43579200D01*
X227558600Y-34569400D02*
X226237800Y-33248600D01*
X224256600Y-62179200D02*
X226923600Y-64846200D01*
X260908800Y-71701000D02*
X262439800Y-70170000D01*
X252069600Y-92710000D02*
X250952000Y-93827600D01*
X252069600Y-88569800D02*
X252069600Y-92710000D01*
X229819200Y-38259600D02*
X229819200Y-43553800D01*
X235204000Y-56997600D02*
X233959400Y-58242200D01*
X226923600Y-67970400D02*
X229793800Y-70840600D01*
X226923600Y-64846200D02*
X226923600Y-67970400D01*
X227558600Y-35999000D02*
X227558600Y-35382200D01*
X233527600Y-53162200D02*
X234518200Y-53162200D01*
%TO.N,col5*%
X247827800Y-56235600D02*
X247827800Y-57944600D01*
X247827800Y-40825000D02*
X244551200Y-37548400D01*
X247827800Y-40825000D02*
X244576600Y-44076200D01*
X244576600Y-48158400D02*
X244576600Y-52984400D01*
X270401003Y-93211003D02*
X271150901Y-93211003D01*
X263780000Y-78260000D02*
X263070000Y-78970000D01*
X263780000Y-74570000D02*
X263780000Y-78260000D01*
X247827800Y-57944600D02*
X244475000Y-61297400D01*
X244551200Y-36271200D02*
X244551200Y-31064200D01*
X247827800Y-78105000D02*
X259130800Y-89408000D01*
X259130800Y-89408000D02*
X262204200Y-89408000D01*
X266007203Y-93211003D02*
X271150901Y-93211003D01*
X247827800Y-75064200D02*
X247827800Y-78105000D01*
X244576600Y-44076200D02*
X244576600Y-48158400D01*
X269036800Y-101168200D02*
X268198600Y-102006400D01*
X244475000Y-65303400D02*
X244475000Y-71711400D01*
X262439800Y-72710000D02*
X262439800Y-73229800D01*
X263070000Y-78970000D02*
X262130000Y-78970000D01*
X244475000Y-71711400D02*
X247827800Y-75064200D01*
X262130000Y-78970000D02*
X260470000Y-80630000D01*
X271150901Y-99054099D02*
X269036800Y-101168200D01*
X268198600Y-102006400D02*
X268198600Y-103124000D01*
X271150901Y-93211003D02*
X271150901Y-99054099D01*
X244551200Y-37548400D02*
X244551200Y-36271200D01*
X262439800Y-73229800D02*
X263780000Y-74570000D01*
X244576600Y-52984400D02*
X247827800Y-56235600D01*
X262204200Y-89408000D02*
X266007203Y-93211003D01*
X244475000Y-61297400D02*
X244475000Y-65303400D01*
X260470000Y-83280000D02*
X270401003Y-93211003D01*
X260470000Y-80630000D02*
X260470000Y-83280000D01*
%TO.N,col0r*%
X141706600Y-62331600D02*
X141706600Y-65455800D01*
X138379200Y-74084600D02*
X138379200Y-76098400D01*
X140926400Y-57066600D02*
X138379200Y-57066600D01*
X138379200Y-59004200D02*
X141706600Y-62331600D01*
X141630400Y-79349600D02*
X141630400Y-83540600D01*
X138404600Y-40074000D02*
X138404600Y-41757600D01*
X123113800Y-86360000D02*
X121132600Y-88341200D01*
X141706600Y-65455800D02*
X144018000Y-67767200D01*
X144170400Y-50190400D02*
X144170400Y-51866800D01*
X144018000Y-67767200D02*
X144018000Y-69062600D01*
X144170400Y-51866800D02*
X144170400Y-53822600D01*
X32400000Y-79070200D02*
X32400000Y-61320000D01*
X41275000Y-78765400D02*
X40767000Y-78765400D01*
X30962800Y-59882800D02*
X18722000Y-59882800D01*
X32400000Y-61320000D02*
X30962800Y-59882800D01*
X140342200Y-74084600D02*
X138379200Y-74084600D01*
X141351000Y-79070200D02*
X141630400Y-79349600D01*
X141630400Y-83540600D02*
X137439400Y-83540600D01*
X138379200Y-76098400D02*
X141351000Y-79070200D01*
X40767000Y-78765400D02*
X40462200Y-79070200D01*
X142011400Y-48031400D02*
X144170400Y-50190400D01*
X116662200Y-88341200D02*
X110159800Y-81838800D01*
X144018000Y-70408800D02*
X140342200Y-74084600D01*
X134620000Y-86360000D02*
X123723400Y-86360000D01*
X82880200Y-75717400D02*
X79654400Y-75717400D01*
X135255000Y-85725000D02*
X134620000Y-86360000D01*
X104038400Y-75717400D02*
X82880200Y-75717400D01*
X121132600Y-88341200D02*
X116662200Y-88341200D01*
X138404600Y-41757600D02*
X142011400Y-45364400D01*
X144170400Y-53822600D02*
X140926400Y-57066600D01*
X40462200Y-79070200D02*
X32400000Y-79070200D01*
X110159800Y-81838800D02*
X104038400Y-75717400D01*
X137439400Y-83540600D02*
X135255000Y-85725000D01*
X142011400Y-45364400D02*
X142011400Y-48031400D01*
X138379200Y-57066600D02*
X138379200Y-59004200D01*
X123723400Y-86360000D02*
X123113800Y-86360000D01*
X144018000Y-69062600D02*
X144018000Y-70408800D01*
X79654400Y-75717400D02*
X77343000Y-78028800D01*
%TO.N,col1r*%
X114249200Y-57327800D02*
X114249200Y-59283600D01*
X114655600Y-72542400D02*
X114655600Y-74168000D01*
X114249200Y-59283600D02*
X117271800Y-62306200D01*
X30322800Y-62422800D02*
X18722000Y-62422800D01*
X117119400Y-44475400D02*
X115011200Y-42367200D01*
X40106600Y-79705200D02*
X31950480Y-79705200D01*
X118331400Y-68866600D02*
X114655600Y-72542400D01*
X117271800Y-65742400D02*
X120396000Y-68866600D01*
X120396000Y-51874000D02*
X117119400Y-48597400D01*
X114249200Y-55499000D02*
X114249200Y-57327800D01*
X41249600Y-80010000D02*
X40411400Y-80010000D01*
X114808000Y-42164000D02*
X114808000Y-40335200D01*
X116941600Y-78613000D02*
X116941600Y-82404800D01*
X117874200Y-51874000D02*
X114249200Y-55499000D01*
X40411400Y-80010000D02*
X40106600Y-79705200D01*
X31950480Y-79705200D02*
X31950480Y-64050480D01*
X117271800Y-62306200D02*
X117271800Y-65742400D01*
X120396000Y-51874000D02*
X117874200Y-51874000D01*
X116941600Y-82404800D02*
X120396000Y-85859200D01*
X117119400Y-48597400D02*
X117119400Y-47269400D01*
X115011200Y-42367200D02*
X114808000Y-42164000D01*
X117119400Y-47269400D02*
X117119400Y-44475400D01*
X31950480Y-64050480D02*
X30322800Y-62422800D01*
X114655600Y-76327000D02*
X116941600Y-78613000D01*
X114655600Y-74168000D02*
X114655600Y-76327000D01*
X120396000Y-68866600D02*
X118331400Y-68866600D01*
%TO.N,col2r*%
X99085400Y-33197800D02*
X96672400Y-30784800D01*
X96494600Y-60960000D02*
X96494600Y-62382400D01*
X96494600Y-62382400D02*
X96494600Y-64312800D01*
X96494600Y-64312800D02*
X99339400Y-67157600D01*
X41249600Y-81356200D02*
X40816200Y-81356200D01*
X102387400Y-38150800D02*
X99085400Y-34848800D01*
X31500960Y-79891397D02*
X31500960Y-65990960D01*
X76352400Y-82829400D02*
X76352400Y-77089000D01*
X31500960Y-65990960D02*
X30472800Y-64962800D01*
X76352400Y-77089000D02*
X79545600Y-73895800D01*
X102387400Y-39834400D02*
X102387400Y-38150800D01*
X100399000Y-39834400D02*
X97104200Y-43129200D01*
X99339400Y-67157600D02*
X99339400Y-70822400D01*
X97104200Y-43129200D02*
X97104200Y-44983400D01*
X102387400Y-56877800D02*
X100576800Y-56877800D01*
X97104200Y-44983400D02*
X97104200Y-48310800D01*
X99364800Y-50571400D02*
X99364800Y-53855200D01*
X99364800Y-53855200D02*
X102387400Y-56877800D01*
X100576800Y-56877800D02*
X96494600Y-60960000D01*
X40816200Y-81356200D02*
X39800200Y-80340200D01*
X97104200Y-48310800D02*
X99364800Y-50571400D01*
X96672400Y-30784800D02*
X96672400Y-28143200D01*
X102387400Y-39834400D02*
X100399000Y-39834400D01*
X99339400Y-70822400D02*
X102412800Y-73895800D01*
X79545600Y-73895800D02*
X102412800Y-73895800D01*
X30472800Y-64962800D02*
X18722000Y-64962800D01*
X96672400Y-28143200D02*
X96723200Y-28092400D01*
X76327000Y-82854800D02*
X76352400Y-82829400D01*
X99085400Y-34848800D02*
X99085400Y-33197800D01*
X39800200Y-80340200D02*
X31949763Y-80340200D01*
X31949763Y-80340200D02*
X31500960Y-79891397D01*
%TO.N,col3r*%
X69298400Y-80510800D02*
X68072000Y-80510800D01*
X81356200Y-59766200D02*
X81356200Y-63989800D01*
X81000600Y-29623600D02*
X81000600Y-28194000D01*
X20595718Y-86720000D02*
X19109520Y-85233802D01*
X90416800Y-38219800D02*
X91973400Y-39776400D01*
X37162919Y-85180480D02*
X25093802Y-85180480D01*
X89814400Y-48031400D02*
X89814400Y-50063400D01*
X78765400Y-54000400D02*
X78765400Y-55448200D01*
X78765400Y-57175400D02*
X81356200Y-59766200D01*
X91973400Y-39776400D02*
X91973400Y-40868600D01*
X68072000Y-81965800D02*
X71602600Y-85496400D01*
X71602600Y-85496400D02*
X71602600Y-90398600D01*
X89814400Y-50063400D02*
X89814400Y-51841400D01*
X41249600Y-82397600D02*
X39945799Y-82397600D01*
X23554282Y-86720000D02*
X20595718Y-86720000D01*
X84378800Y-67012400D02*
X82796800Y-67012400D01*
X79070200Y-23901400D02*
X78968600Y-23799800D01*
X81000600Y-25831800D02*
X79070200Y-23901400D01*
X21066640Y-69847440D02*
X18722000Y-67502800D01*
X84353400Y-38219800D02*
X90416800Y-38219800D01*
X91541600Y-46304200D02*
X89814400Y-48031400D01*
X19109520Y-80526197D02*
X21066640Y-78569077D01*
X21066640Y-78569077D02*
X21066640Y-69847440D01*
X78765400Y-55448200D02*
X78765400Y-57175400D01*
X81356200Y-63989800D02*
X84378800Y-67012400D01*
X84378800Y-33001800D02*
X81000600Y-29623600D01*
X81000600Y-28194000D02*
X81000600Y-25831800D01*
X82796800Y-67012400D02*
X69298400Y-80510800D01*
X89814400Y-51841400D02*
X89001600Y-52654200D01*
X39945799Y-82397600D02*
X37162919Y-85180480D01*
X19109520Y-85233802D02*
X19109520Y-80526197D01*
X84378800Y-38194400D02*
X84353400Y-38219800D01*
X25093802Y-85180480D02*
X23554282Y-86720000D01*
X84378800Y-33001800D02*
X84378800Y-38194400D01*
X91973400Y-40868600D02*
X91541600Y-41300400D01*
X89001600Y-52654200D02*
X80111600Y-52654200D01*
X91541600Y-41300400D02*
X91541600Y-46304200D01*
X68072000Y-80510800D02*
X68072000Y-81965800D01*
X78968600Y-23799800D02*
X78968600Y-21463000D01*
X80111600Y-52654200D02*
X78765400Y-54000400D01*
%TO.N,col4r*%
X72212200Y-55194200D02*
X72212200Y-57810400D01*
X72212200Y-57810400D02*
X69501600Y-60521000D01*
X46250368Y-83455038D02*
X51790600Y-88995270D01*
X66344800Y-36779200D02*
X63068200Y-33502600D01*
X72212200Y-53136800D02*
X72212200Y-55194200D01*
X71729600Y-72440800D02*
X71729600Y-73787000D01*
X40294962Y-83455038D02*
X38350000Y-85400000D01*
X66344800Y-38259600D02*
X66344800Y-36779200D01*
X60731400Y-76174600D02*
X58826400Y-78079600D01*
X18660000Y-85420000D02*
X18660000Y-80340000D01*
X38350000Y-85400000D02*
X37679786Y-85400000D01*
X57531000Y-81838800D02*
X49834800Y-81838800D01*
X69342000Y-76174600D02*
X60731400Y-76174600D01*
X48218562Y-83455038D02*
X46250368Y-83455038D01*
X66344800Y-62306200D02*
X69291200Y-65252600D01*
X69291200Y-68148200D02*
X71729600Y-70586600D01*
X46250368Y-83455038D02*
X40294962Y-83455038D01*
X71729600Y-70586600D02*
X71729600Y-72440800D01*
X73609200Y-51739800D02*
X72212200Y-53136800D01*
X63068200Y-33502600D02*
X62890400Y-33324800D01*
X58826400Y-78079600D02*
X58826400Y-80543400D01*
X62890400Y-30226000D02*
X62890400Y-28397200D01*
X69291200Y-65252600D02*
X69291200Y-68148200D01*
X66344800Y-38259600D02*
X66344800Y-43528400D01*
X20617120Y-71937920D02*
X18722000Y-70042800D01*
X37449786Y-85630000D02*
X25280000Y-85630000D01*
X62890400Y-28397200D02*
X62865000Y-28371800D01*
X58826400Y-80543400D02*
X57531000Y-81838800D01*
X73609200Y-44831000D02*
X73609200Y-51739800D01*
X62890400Y-33324800D02*
X62890400Y-30226000D01*
X72306600Y-43528400D02*
X73609200Y-44831000D01*
X69501600Y-60521000D02*
X66344800Y-60521000D01*
X66344800Y-43528400D02*
X72306600Y-43528400D01*
X23710000Y-87200000D02*
X20440000Y-87200000D01*
X20440000Y-87200000D02*
X18660000Y-85420000D01*
X18660000Y-80340000D02*
X20617120Y-78382880D01*
X49834800Y-81838800D02*
X48218562Y-83455038D01*
X51790600Y-88995270D02*
X51790600Y-92100400D01*
X37679786Y-85400000D02*
X37449786Y-85630000D01*
X66344800Y-60521000D02*
X66344800Y-62306200D01*
X71729600Y-73787000D02*
X69342000Y-76174600D01*
X20617120Y-78382880D02*
X20617120Y-71937920D01*
X25280000Y-85630000D02*
X23710000Y-87200000D01*
%TO.N,col5r*%
X28067000Y-101244400D02*
X23571200Y-96748600D01*
X19761200Y-93370400D02*
X18190000Y-91799200D01*
X45364400Y-51409600D02*
X45364400Y-54871200D01*
X44983400Y-37497600D02*
X44983400Y-36322000D01*
X46271600Y-57843000D02*
X42773600Y-61341000D01*
X48336200Y-40850400D02*
X44983400Y-37497600D01*
X44983400Y-31292800D02*
X45008800Y-31267400D01*
X42773600Y-63169800D02*
X42773600Y-65354200D01*
X18190000Y-91799200D02*
X18190000Y-80080000D01*
X44983400Y-36322000D02*
X44983400Y-31292800D01*
X19837400Y-93370400D02*
X19761200Y-93370400D01*
X42773600Y-61341000D02*
X42773600Y-63169800D01*
X48336200Y-40850400D02*
X46220800Y-40850400D01*
X38575400Y-74861000D02*
X36906200Y-76530200D01*
X45008800Y-71559000D02*
X48310800Y-74861000D01*
X42976800Y-49022000D02*
X45364400Y-51409600D01*
X48336200Y-57843000D02*
X46271600Y-57843000D01*
X20167600Y-74028400D02*
X18722000Y-72582800D01*
X48310800Y-74861000D02*
X38575400Y-74861000D01*
X46220800Y-40850400D02*
X42976800Y-44094400D01*
X31968637Y-102744927D02*
X29567527Y-102744927D01*
X42773600Y-65354200D02*
X45008800Y-67589400D01*
X45364400Y-54871200D02*
X48336200Y-57843000D01*
X18190000Y-80080000D02*
X20167600Y-78102400D01*
X20167600Y-78102400D02*
X20167600Y-74028400D01*
X37973000Y-96740564D02*
X31968637Y-102744927D01*
X45008800Y-67589400D02*
X45008800Y-71559000D01*
X29567527Y-102744927D02*
X28067000Y-101244400D01*
X42976800Y-44094400D02*
X42976800Y-46075600D01*
X42976800Y-46075600D02*
X42976800Y-49022000D01*
%TD*%
M02*
