%TF.GenerationSoftware,KiCad,Pcbnew,(6.0.5-0)*%
%TF.CreationDate,2022-12-11T16:35:27-08:00*%
%TF.ProjectId,Swept_3x6,53776570-745f-4337-9836-2e6b69636164,rev?*%
%TF.SameCoordinates,Original*%
%TF.FileFunction,Legend,Bot*%
%TF.FilePolarity,Positive*%
%FSLAX46Y46*%
G04 Gerber Fmt 4.6, Leading zero omitted, Abs format (unit mm)*
G04 Created by KiCad (PCBNEW (6.0.5-0)) date 2022-12-11 16:35:27*
%MOMM*%
%LPD*%
G01*
G04 APERTURE LIST*
%ADD10C,0.120000*%
%ADD11C,0.150000*%
%ADD12C,0.100000*%
%ADD13C,0.200000*%
%ADD14C,0.010000*%
G04 APERTURE END LIST*
D10*
X23182600Y-47055800D02*
X29913600Y-47055800D01*
X29913600Y-47055800D02*
X29913600Y-49976800D01*
X29913600Y-49976800D02*
X23182600Y-49976800D01*
X23182600Y-49976800D02*
X23182600Y-47055800D01*
D11*
%TO.C,SW16*%
X200031123Y-60907561D02*
X199888266Y-60955180D01*
X199650171Y-60955180D01*
X199554933Y-60907561D01*
X199507314Y-60859942D01*
X199459695Y-60764704D01*
X199459695Y-60669466D01*
X199507314Y-60574228D01*
X199554933Y-60526609D01*
X199650171Y-60478990D01*
X199840647Y-60431371D01*
X199935885Y-60383752D01*
X199983504Y-60336133D01*
X200031123Y-60240895D01*
X200031123Y-60145657D01*
X199983504Y-60050419D01*
X199935885Y-60002800D01*
X199840647Y-59955180D01*
X199602552Y-59955180D01*
X199459695Y-60002800D01*
X199126361Y-59955180D02*
X198888266Y-60955180D01*
X198697790Y-60240895D01*
X198507314Y-60955180D01*
X198269219Y-59955180D01*
X197364457Y-60955180D02*
X197935885Y-60955180D01*
X197650171Y-60955180D02*
X197650171Y-59955180D01*
X197745409Y-60098038D01*
X197840647Y-60193276D01*
X197935885Y-60240895D01*
X196507314Y-59955180D02*
X196697790Y-59955180D01*
X196793028Y-60002800D01*
X196840647Y-60050419D01*
X196935885Y-60193276D01*
X196983504Y-60383752D01*
X196983504Y-60764704D01*
X196935885Y-60859942D01*
X196888266Y-60907561D01*
X196793028Y-60955180D01*
X196602552Y-60955180D01*
X196507314Y-60907561D01*
X196459695Y-60859942D01*
X196412076Y-60764704D01*
X196412076Y-60526609D01*
X196459695Y-60431371D01*
X196507314Y-60383752D01*
X196602552Y-60336133D01*
X196793028Y-60336133D01*
X196888266Y-60383752D01*
X196935885Y-60431371D01*
X196983504Y-60526609D01*
%TO.C,SW20*%
X225837523Y-94664161D02*
X225694666Y-94711780D01*
X225456571Y-94711780D01*
X225361333Y-94664161D01*
X225313714Y-94616542D01*
X225266095Y-94521304D01*
X225266095Y-94426066D01*
X225313714Y-94330828D01*
X225361333Y-94283209D01*
X225456571Y-94235590D01*
X225647047Y-94187971D01*
X225742285Y-94140352D01*
X225789904Y-94092733D01*
X225837523Y-93997495D01*
X225837523Y-93902257D01*
X225789904Y-93807019D01*
X225742285Y-93759400D01*
X225647047Y-93711780D01*
X225408952Y-93711780D01*
X225266095Y-93759400D01*
X224932761Y-93711780D02*
X224694666Y-94711780D01*
X224504190Y-93997495D01*
X224313714Y-94711780D01*
X224075619Y-93711780D01*
X223742285Y-93807019D02*
X223694666Y-93759400D01*
X223599428Y-93711780D01*
X223361333Y-93711780D01*
X223266095Y-93759400D01*
X223218476Y-93807019D01*
X223170857Y-93902257D01*
X223170857Y-93997495D01*
X223218476Y-94140352D01*
X223789904Y-94711780D01*
X223170857Y-94711780D01*
X222551809Y-93711780D02*
X222456571Y-93711780D01*
X222361333Y-93759400D01*
X222313714Y-93807019D01*
X222266095Y-93902257D01*
X222218476Y-94092733D01*
X222218476Y-94330828D01*
X222266095Y-94521304D01*
X222313714Y-94616542D01*
X222361333Y-94664161D01*
X222456571Y-94711780D01*
X222551809Y-94711780D01*
X222647047Y-94664161D01*
X222694666Y-94616542D01*
X222742285Y-94521304D01*
X222789904Y-94330828D01*
X222789904Y-94092733D01*
X222742285Y-93902257D01*
X222694666Y-93807019D01*
X222647047Y-93759400D01*
X222551809Y-93711780D01*
%TO.C,SW15*%
X182073323Y-72921761D02*
X181930466Y-72969380D01*
X181692371Y-72969380D01*
X181597133Y-72921761D01*
X181549514Y-72874142D01*
X181501895Y-72778904D01*
X181501895Y-72683666D01*
X181549514Y-72588428D01*
X181597133Y-72540809D01*
X181692371Y-72493190D01*
X181882847Y-72445571D01*
X181978085Y-72397952D01*
X182025704Y-72350333D01*
X182073323Y-72255095D01*
X182073323Y-72159857D01*
X182025704Y-72064619D01*
X181978085Y-72017000D01*
X181882847Y-71969380D01*
X181644752Y-71969380D01*
X181501895Y-72017000D01*
X181168561Y-71969380D02*
X180930466Y-72969380D01*
X180739990Y-72255095D01*
X180549514Y-72969380D01*
X180311419Y-71969380D01*
X179406657Y-72969380D02*
X179978085Y-72969380D01*
X179692371Y-72969380D02*
X179692371Y-71969380D01*
X179787609Y-72112238D01*
X179882847Y-72207476D01*
X179978085Y-72255095D01*
X178501895Y-71969380D02*
X178978085Y-71969380D01*
X179025704Y-72445571D01*
X178978085Y-72397952D01*
X178882847Y-72350333D01*
X178644752Y-72350333D01*
X178549514Y-72397952D01*
X178501895Y-72445571D01*
X178454276Y-72540809D01*
X178454276Y-72778904D01*
X178501895Y-72874142D01*
X178549514Y-72921761D01*
X178644752Y-72969380D01*
X178882847Y-72969380D01*
X178978085Y-72921761D01*
X179025704Y-72874142D01*
%TO.C,SW21*%
X240757153Y-94707794D02*
X240907467Y-94698772D01*
X241137449Y-94760396D01*
X241217117Y-94831041D01*
X241250789Y-94889363D01*
X241272136Y-94993680D01*
X241247487Y-95085673D01*
X241176841Y-95165341D01*
X241118520Y-95199013D01*
X241014202Y-95220360D01*
X240817892Y-95217058D01*
X240713574Y-95238405D01*
X240655253Y-95272077D01*
X240584607Y-95351745D01*
X240559957Y-95443738D01*
X240581304Y-95548055D01*
X240614976Y-95606377D01*
X240694644Y-95677023D01*
X240924627Y-95738646D01*
X241074941Y-95729624D01*
X241384591Y-95861893D02*
X241873393Y-94957591D01*
X241872508Y-95696837D01*
X242241364Y-95056189D01*
X242212528Y-96083738D01*
X242559153Y-96078018D02*
X242592824Y-96136339D01*
X242672492Y-96206985D01*
X242902475Y-96268609D01*
X243006792Y-96247262D01*
X243065114Y-96213590D01*
X243135760Y-96133922D01*
X243160409Y-96041929D01*
X243151387Y-95891615D01*
X242747326Y-95191761D01*
X243345280Y-95351982D01*
X244265209Y-95598476D02*
X243713251Y-95450580D01*
X243989230Y-95524528D02*
X243730411Y-96490454D01*
X243675392Y-96327815D01*
X243608049Y-96211173D01*
X243528381Y-96140527D01*
%TO.C,SW17*%
X218039723Y-54024161D02*
X217896866Y-54071780D01*
X217658771Y-54071780D01*
X217563533Y-54024161D01*
X217515914Y-53976542D01*
X217468295Y-53881304D01*
X217468295Y-53786066D01*
X217515914Y-53690828D01*
X217563533Y-53643209D01*
X217658771Y-53595590D01*
X217849247Y-53547971D01*
X217944485Y-53500352D01*
X217992104Y-53452733D01*
X218039723Y-53357495D01*
X218039723Y-53262257D01*
X217992104Y-53167019D01*
X217944485Y-53119400D01*
X217849247Y-53071780D01*
X217611152Y-53071780D01*
X217468295Y-53119400D01*
X217134961Y-53071780D02*
X216896866Y-54071780D01*
X216706390Y-53357495D01*
X216515914Y-54071780D01*
X216277819Y-53071780D01*
X215373057Y-54071780D02*
X215944485Y-54071780D01*
X215658771Y-54071780D02*
X215658771Y-53071780D01*
X215754009Y-53214638D01*
X215849247Y-53309876D01*
X215944485Y-53357495D01*
X215039723Y-53071780D02*
X214373057Y-53071780D01*
X214801628Y-54071780D01*
%TO.C,SW18*%
X236048323Y-59383561D02*
X235905466Y-59431180D01*
X235667371Y-59431180D01*
X235572133Y-59383561D01*
X235524514Y-59335942D01*
X235476895Y-59240704D01*
X235476895Y-59145466D01*
X235524514Y-59050228D01*
X235572133Y-59002609D01*
X235667371Y-58954990D01*
X235857847Y-58907371D01*
X235953085Y-58859752D01*
X236000704Y-58812133D01*
X236048323Y-58716895D01*
X236048323Y-58621657D01*
X236000704Y-58526419D01*
X235953085Y-58478800D01*
X235857847Y-58431180D01*
X235619752Y-58431180D01*
X235476895Y-58478800D01*
X235143561Y-58431180D02*
X234905466Y-59431180D01*
X234714990Y-58716895D01*
X234524514Y-59431180D01*
X234286419Y-58431180D01*
X233381657Y-59431180D02*
X233953085Y-59431180D01*
X233667371Y-59431180D02*
X233667371Y-58431180D01*
X233762609Y-58574038D01*
X233857847Y-58669276D01*
X233953085Y-58716895D01*
X232810228Y-58859752D02*
X232905466Y-58812133D01*
X232953085Y-58764514D01*
X233000704Y-58669276D01*
X233000704Y-58621657D01*
X232953085Y-58526419D01*
X232905466Y-58478800D01*
X232810228Y-58431180D01*
X232619752Y-58431180D01*
X232524514Y-58478800D01*
X232476895Y-58526419D01*
X232429276Y-58621657D01*
X232429276Y-58669276D01*
X232476895Y-58764514D01*
X232524514Y-58812133D01*
X232619752Y-58859752D01*
X232810228Y-58859752D01*
X232905466Y-58907371D01*
X232953085Y-58954990D01*
X233000704Y-59050228D01*
X233000704Y-59240704D01*
X232953085Y-59335942D01*
X232905466Y-59383561D01*
X232810228Y-59431180D01*
X232619752Y-59431180D01*
X232524514Y-59383561D01*
X232476895Y-59335942D01*
X232429276Y-59240704D01*
X232429276Y-59050228D01*
X232476895Y-58954990D01*
X232524514Y-58907371D01*
X232619752Y-58859752D01*
%TO.C,SW4*%
X190690333Y-41908361D02*
X190547476Y-41955980D01*
X190309380Y-41955980D01*
X190214142Y-41908361D01*
X190166523Y-41860742D01*
X190118904Y-41765504D01*
X190118904Y-41670266D01*
X190166523Y-41575028D01*
X190214142Y-41527409D01*
X190309380Y-41479790D01*
X190499857Y-41432171D01*
X190595095Y-41384552D01*
X190642714Y-41336933D01*
X190690333Y-41241695D01*
X190690333Y-41146457D01*
X190642714Y-41051219D01*
X190595095Y-41003600D01*
X190499857Y-40955980D01*
X190261761Y-40955980D01*
X190118904Y-41003600D01*
X189785571Y-40955980D02*
X189547476Y-41955980D01*
X189357000Y-41241695D01*
X189166523Y-41955980D01*
X188928428Y-40955980D01*
X188118904Y-41289314D02*
X188118904Y-41955980D01*
X188357000Y-40908361D02*
X188595095Y-41622647D01*
X187976047Y-41622647D01*
%TO.C,SW3*%
X181571733Y-38707961D02*
X181428876Y-38755580D01*
X181190780Y-38755580D01*
X181095542Y-38707961D01*
X181047923Y-38660342D01*
X181000304Y-38565104D01*
X181000304Y-38469866D01*
X181047923Y-38374628D01*
X181095542Y-38327009D01*
X181190780Y-38279390D01*
X181381257Y-38231771D01*
X181476495Y-38184152D01*
X181524114Y-38136533D01*
X181571733Y-38041295D01*
X181571733Y-37946057D01*
X181524114Y-37850819D01*
X181476495Y-37803200D01*
X181381257Y-37755580D01*
X181143161Y-37755580D01*
X181000304Y-37803200D01*
X180666971Y-37755580D02*
X180428876Y-38755580D01*
X180238400Y-38041295D01*
X180047923Y-38755580D01*
X179809828Y-37755580D01*
X179524114Y-37755580D02*
X178905066Y-37755580D01*
X179238400Y-38136533D01*
X179095542Y-38136533D01*
X179000304Y-38184152D01*
X178952685Y-38231771D01*
X178905066Y-38327009D01*
X178905066Y-38565104D01*
X178952685Y-38660342D01*
X179000304Y-38707961D01*
X179095542Y-38755580D01*
X179381257Y-38755580D01*
X179476495Y-38707961D01*
X179524114Y-38660342D01*
%TO.C,SW9*%
X181571733Y-55802161D02*
X181428876Y-55849780D01*
X181190780Y-55849780D01*
X181095542Y-55802161D01*
X181047923Y-55754542D01*
X181000304Y-55659304D01*
X181000304Y-55564066D01*
X181047923Y-55468828D01*
X181095542Y-55421209D01*
X181190780Y-55373590D01*
X181381257Y-55325971D01*
X181476495Y-55278352D01*
X181524114Y-55230733D01*
X181571733Y-55135495D01*
X181571733Y-55040257D01*
X181524114Y-54945019D01*
X181476495Y-54897400D01*
X181381257Y-54849780D01*
X181143161Y-54849780D01*
X181000304Y-54897400D01*
X180666971Y-54849780D02*
X180428876Y-55849780D01*
X180238400Y-55135495D01*
X180047923Y-55849780D01*
X179809828Y-54849780D01*
X179381257Y-55849780D02*
X179190780Y-55849780D01*
X179095542Y-55802161D01*
X179047923Y-55754542D01*
X178952685Y-55611685D01*
X178905066Y-55421209D01*
X178905066Y-55040257D01*
X178952685Y-54945019D01*
X179000304Y-54897400D01*
X179095542Y-54849780D01*
X179286019Y-54849780D01*
X179381257Y-54897400D01*
X179428876Y-54945019D01*
X179476495Y-55040257D01*
X179476495Y-55278352D01*
X179428876Y-55373590D01*
X179381257Y-55421209D01*
X179286019Y-55468828D01*
X179095542Y-55468828D01*
X179000304Y-55421209D01*
X178952685Y-55373590D01*
X178905066Y-55278352D01*
%TO.C,SW14*%
X164064723Y-72947161D02*
X163921866Y-72994780D01*
X163683771Y-72994780D01*
X163588533Y-72947161D01*
X163540914Y-72899542D01*
X163493295Y-72804304D01*
X163493295Y-72709066D01*
X163540914Y-72613828D01*
X163588533Y-72566209D01*
X163683771Y-72518590D01*
X163874247Y-72470971D01*
X163969485Y-72423352D01*
X164017104Y-72375733D01*
X164064723Y-72280495D01*
X164064723Y-72185257D01*
X164017104Y-72090019D01*
X163969485Y-72042400D01*
X163874247Y-71994780D01*
X163636152Y-71994780D01*
X163493295Y-72042400D01*
X163159961Y-71994780D02*
X162921866Y-72994780D01*
X162731390Y-72280495D01*
X162540914Y-72994780D01*
X162302819Y-71994780D01*
X161398057Y-72994780D02*
X161969485Y-72994780D01*
X161683771Y-72994780D02*
X161683771Y-71994780D01*
X161779009Y-72137638D01*
X161874247Y-72232876D01*
X161969485Y-72280495D01*
X160540914Y-72328114D02*
X160540914Y-72994780D01*
X160779009Y-71947161D02*
X161017104Y-72661447D01*
X160398057Y-72661447D01*
%TO.C,SW12*%
X227158323Y-57503961D02*
X227015466Y-57551580D01*
X226777371Y-57551580D01*
X226682133Y-57503961D01*
X226634514Y-57456342D01*
X226586895Y-57361104D01*
X226586895Y-57265866D01*
X226634514Y-57170628D01*
X226682133Y-57123009D01*
X226777371Y-57075390D01*
X226967847Y-57027771D01*
X227063085Y-56980152D01*
X227110704Y-56932533D01*
X227158323Y-56837295D01*
X227158323Y-56742057D01*
X227110704Y-56646819D01*
X227063085Y-56599200D01*
X226967847Y-56551580D01*
X226729752Y-56551580D01*
X226586895Y-56599200D01*
X226253561Y-56551580D02*
X226015466Y-57551580D01*
X225824990Y-56837295D01*
X225634514Y-57551580D01*
X225396419Y-56551580D01*
X224491657Y-57551580D02*
X225063085Y-57551580D01*
X224777371Y-57551580D02*
X224777371Y-56551580D01*
X224872609Y-56694438D01*
X224967847Y-56789676D01*
X225063085Y-56837295D01*
X224110704Y-56646819D02*
X224063085Y-56599200D01*
X223967847Y-56551580D01*
X223729752Y-56551580D01*
X223634514Y-56599200D01*
X223586895Y-56646819D01*
X223539276Y-56742057D01*
X223539276Y-56837295D01*
X223586895Y-56980152D01*
X224158323Y-57551580D01*
X223539276Y-57551580D01*
%TO.C,SW11*%
X218039723Y-36904561D02*
X217896866Y-36952180D01*
X217658771Y-36952180D01*
X217563533Y-36904561D01*
X217515914Y-36856942D01*
X217468295Y-36761704D01*
X217468295Y-36666466D01*
X217515914Y-36571228D01*
X217563533Y-36523609D01*
X217658771Y-36475990D01*
X217849247Y-36428371D01*
X217944485Y-36380752D01*
X217992104Y-36333133D01*
X218039723Y-36237895D01*
X218039723Y-36142657D01*
X217992104Y-36047419D01*
X217944485Y-35999800D01*
X217849247Y-35952180D01*
X217611152Y-35952180D01*
X217468295Y-35999800D01*
X217134961Y-35952180D02*
X216896866Y-36952180D01*
X216706390Y-36237895D01*
X216515914Y-36952180D01*
X216277819Y-35952180D01*
X215373057Y-36952180D02*
X215944485Y-36952180D01*
X215658771Y-36952180D02*
X215658771Y-35952180D01*
X215754009Y-36095038D01*
X215849247Y-36190276D01*
X215944485Y-36237895D01*
X214420676Y-36952180D02*
X214992104Y-36952180D01*
X214706390Y-36952180D02*
X214706390Y-35952180D01*
X214801628Y-36095038D01*
X214896866Y-36190276D01*
X214992104Y-36237895D01*
%TO.C,SW8*%
X163563133Y-55827561D02*
X163420276Y-55875180D01*
X163182180Y-55875180D01*
X163086942Y-55827561D01*
X163039323Y-55779942D01*
X162991704Y-55684704D01*
X162991704Y-55589466D01*
X163039323Y-55494228D01*
X163086942Y-55446609D01*
X163182180Y-55398990D01*
X163372657Y-55351371D01*
X163467895Y-55303752D01*
X163515514Y-55256133D01*
X163563133Y-55160895D01*
X163563133Y-55065657D01*
X163515514Y-54970419D01*
X163467895Y-54922800D01*
X163372657Y-54875180D01*
X163134561Y-54875180D01*
X162991704Y-54922800D01*
X162658371Y-54875180D02*
X162420276Y-55875180D01*
X162229800Y-55160895D01*
X162039323Y-55875180D01*
X161801228Y-54875180D01*
X161277419Y-55303752D02*
X161372657Y-55256133D01*
X161420276Y-55208514D01*
X161467895Y-55113276D01*
X161467895Y-55065657D01*
X161420276Y-54970419D01*
X161372657Y-54922800D01*
X161277419Y-54875180D01*
X161086942Y-54875180D01*
X160991704Y-54922800D01*
X160944085Y-54970419D01*
X160896466Y-55065657D01*
X160896466Y-55113276D01*
X160944085Y-55208514D01*
X160991704Y-55256133D01*
X161086942Y-55303752D01*
X161277419Y-55303752D01*
X161372657Y-55351371D01*
X161420276Y-55398990D01*
X161467895Y-55494228D01*
X161467895Y-55684704D01*
X161420276Y-55779942D01*
X161372657Y-55827561D01*
X161277419Y-55875180D01*
X161086942Y-55875180D01*
X160991704Y-55827561D01*
X160944085Y-55779942D01*
X160896466Y-55684704D01*
X160896466Y-55494228D01*
X160944085Y-55398990D01*
X160991704Y-55351371D01*
X161086942Y-55303752D01*
%TO.C,SW6*%
X235597533Y-25144361D02*
X235454676Y-25191980D01*
X235216580Y-25191980D01*
X235121342Y-25144361D01*
X235073723Y-25096742D01*
X235026104Y-25001504D01*
X235026104Y-24906266D01*
X235073723Y-24811028D01*
X235121342Y-24763409D01*
X235216580Y-24715790D01*
X235407057Y-24668171D01*
X235502295Y-24620552D01*
X235549914Y-24572933D01*
X235597533Y-24477695D01*
X235597533Y-24382457D01*
X235549914Y-24287219D01*
X235502295Y-24239600D01*
X235407057Y-24191980D01*
X235168961Y-24191980D01*
X235026104Y-24239600D01*
X234692771Y-24191980D02*
X234454676Y-25191980D01*
X234264200Y-24477695D01*
X234073723Y-25191980D01*
X233835628Y-24191980D01*
X233026104Y-24191980D02*
X233216580Y-24191980D01*
X233311819Y-24239600D01*
X233359438Y-24287219D01*
X233454676Y-24430076D01*
X233502295Y-24620552D01*
X233502295Y-25001504D01*
X233454676Y-25096742D01*
X233407057Y-25144361D01*
X233311819Y-25191980D01*
X233121342Y-25191980D01*
X233026104Y-25144361D01*
X232978485Y-25096742D01*
X232930866Y-25001504D01*
X232930866Y-24763409D01*
X232978485Y-24668171D01*
X233026104Y-24620552D01*
X233121342Y-24572933D01*
X233311819Y-24572933D01*
X233407057Y-24620552D01*
X233454676Y-24668171D01*
X233502295Y-24763409D01*
%TO.C,SW5*%
X208698933Y-35050361D02*
X208556076Y-35097980D01*
X208317980Y-35097980D01*
X208222742Y-35050361D01*
X208175123Y-35002742D01*
X208127504Y-34907504D01*
X208127504Y-34812266D01*
X208175123Y-34717028D01*
X208222742Y-34669409D01*
X208317980Y-34621790D01*
X208508457Y-34574171D01*
X208603695Y-34526552D01*
X208651314Y-34478933D01*
X208698933Y-34383695D01*
X208698933Y-34288457D01*
X208651314Y-34193219D01*
X208603695Y-34145600D01*
X208508457Y-34097980D01*
X208270361Y-34097980D01*
X208127504Y-34145600D01*
X207794171Y-34097980D02*
X207556076Y-35097980D01*
X207365600Y-34383695D01*
X207175123Y-35097980D01*
X206937028Y-34097980D01*
X206079885Y-34097980D02*
X206556076Y-34097980D01*
X206603695Y-34574171D01*
X206556076Y-34526552D01*
X206460838Y-34478933D01*
X206222742Y-34478933D01*
X206127504Y-34526552D01*
X206079885Y-34574171D01*
X206032266Y-34669409D01*
X206032266Y-34907504D01*
X206079885Y-35002742D01*
X206127504Y-35050361D01*
X206222742Y-35097980D01*
X206460838Y-35097980D01*
X206556076Y-35050361D01*
X206603695Y-35002742D01*
%TO.C,SW2*%
X163563133Y-38707961D02*
X163420276Y-38755580D01*
X163182180Y-38755580D01*
X163086942Y-38707961D01*
X163039323Y-38660342D01*
X162991704Y-38565104D01*
X162991704Y-38469866D01*
X163039323Y-38374628D01*
X163086942Y-38327009D01*
X163182180Y-38279390D01*
X163372657Y-38231771D01*
X163467895Y-38184152D01*
X163515514Y-38136533D01*
X163563133Y-38041295D01*
X163563133Y-37946057D01*
X163515514Y-37850819D01*
X163467895Y-37803200D01*
X163372657Y-37755580D01*
X163134561Y-37755580D01*
X162991704Y-37803200D01*
X162658371Y-37755580D02*
X162420276Y-38755580D01*
X162229800Y-38041295D01*
X162039323Y-38755580D01*
X161801228Y-37755580D01*
X161467895Y-37850819D02*
X161420276Y-37803200D01*
X161325038Y-37755580D01*
X161086942Y-37755580D01*
X160991704Y-37803200D01*
X160944085Y-37850819D01*
X160896466Y-37946057D01*
X160896466Y-38041295D01*
X160944085Y-38184152D01*
X161515514Y-38755580D01*
X160896466Y-38755580D01*
%TO.C,RSW1*%
X273363786Y-88999223D02*
X272817603Y-89198103D01*
X272895699Y-88671465D02*
X272322122Y-89490617D01*
X272634180Y-89709123D01*
X272739508Y-89724742D01*
X272805828Y-89713048D01*
X272899462Y-89662346D01*
X272981401Y-89545325D01*
X272997021Y-89439997D01*
X272985326Y-89373677D01*
X272934625Y-89280043D01*
X272622567Y-89061538D01*
X273414406Y-89674121D02*
X273687457Y-89865313D01*
X274104923Y-89518173D02*
X273714851Y-89245042D01*
X273141274Y-90064194D01*
X273531347Y-90337325D01*
X274389668Y-89775686D02*
X274534003Y-89818618D01*
X274729039Y-89955184D01*
X274779740Y-90048818D01*
X274791435Y-90115138D01*
X274775815Y-90220466D01*
X274721189Y-90298480D01*
X274627556Y-90349181D01*
X274561235Y-90360875D01*
X274455907Y-90345256D01*
X274272565Y-90275011D01*
X274167238Y-90259392D01*
X274100917Y-90271086D01*
X274007284Y-90321787D01*
X273952657Y-90399802D01*
X273937038Y-90505129D01*
X273948732Y-90571450D01*
X273999434Y-90665083D01*
X274194470Y-90801649D01*
X274338805Y-90844581D01*
X274935688Y-90739335D02*
X275208739Y-90930527D01*
X275626206Y-90583387D02*
X275236133Y-90310255D01*
X274662557Y-91129407D01*
X275052629Y-91402539D01*
X275286673Y-91566418D02*
X275754760Y-91894176D01*
X276094293Y-90911145D02*
X275520716Y-91730297D01*
%TO.C,SW10*%
X200031123Y-43787961D02*
X199888266Y-43835580D01*
X199650171Y-43835580D01*
X199554933Y-43787961D01*
X199507314Y-43740342D01*
X199459695Y-43645104D01*
X199459695Y-43549866D01*
X199507314Y-43454628D01*
X199554933Y-43407009D01*
X199650171Y-43359390D01*
X199840647Y-43311771D01*
X199935885Y-43264152D01*
X199983504Y-43216533D01*
X200031123Y-43121295D01*
X200031123Y-43026057D01*
X199983504Y-42930819D01*
X199935885Y-42883200D01*
X199840647Y-42835580D01*
X199602552Y-42835580D01*
X199459695Y-42883200D01*
X199126361Y-42835580D02*
X198888266Y-43835580D01*
X198697790Y-43121295D01*
X198507314Y-43835580D01*
X198269219Y-42835580D01*
X197364457Y-43835580D02*
X197935885Y-43835580D01*
X197650171Y-43835580D02*
X197650171Y-42835580D01*
X197745409Y-42978438D01*
X197840647Y-43073676D01*
X197935885Y-43121295D01*
X196745409Y-42835580D02*
X196650171Y-42835580D01*
X196554933Y-42883200D01*
X196507314Y-42930819D01*
X196459695Y-43026057D01*
X196412076Y-43216533D01*
X196412076Y-43454628D01*
X196459695Y-43645104D01*
X196507314Y-43740342D01*
X196554933Y-43787961D01*
X196650171Y-43835580D01*
X196745409Y-43835580D01*
X196840647Y-43787961D01*
X196888266Y-43740342D01*
X196935885Y-43645104D01*
X196983504Y-43454628D01*
X196983504Y-43216533D01*
X196935885Y-43026057D01*
X196888266Y-42930819D01*
X196840647Y-42883200D01*
X196745409Y-42835580D01*
D12*
%TO.C,REF\u002A\u002A*%
X220833714Y-33514500D02*
X220833714Y-33895452D01*
X220500380Y-33657357D02*
X221357523Y-33657357D01*
X221452761Y-33704976D01*
X221500380Y-33800214D01*
X221500380Y-33895452D01*
X221452761Y-34609738D02*
X221500380Y-34514500D01*
X221500380Y-34324023D01*
X221452761Y-34228785D01*
X221357523Y-34181166D01*
X220976571Y-34181166D01*
X220881333Y-34228785D01*
X220833714Y-34324023D01*
X220833714Y-34514500D01*
X220881333Y-34609738D01*
X220976571Y-34657357D01*
X221071809Y-34657357D01*
X221167047Y-34181166D01*
X220833714Y-35085928D02*
X221500380Y-35085928D01*
X220928952Y-35085928D02*
X220881333Y-35133547D01*
X220833714Y-35228785D01*
X220833714Y-35371642D01*
X220881333Y-35466880D01*
X220976571Y-35514500D01*
X221500380Y-35514500D01*
X220833714Y-35847833D02*
X220833714Y-36228785D01*
X220500380Y-35990690D02*
X221357523Y-35990690D01*
X221452761Y-36038309D01*
X221500380Y-36133547D01*
X221500380Y-36228785D01*
X221500380Y-36562119D02*
X220833714Y-36562119D01*
X220500380Y-36562119D02*
X220548000Y-36514500D01*
X220595619Y-36562119D01*
X220548000Y-36609738D01*
X220500380Y-36562119D01*
X220595619Y-36562119D01*
X220833714Y-37038309D02*
X221500380Y-37038309D01*
X220928952Y-37038309D02*
X220881333Y-37085928D01*
X220833714Y-37181166D01*
X220833714Y-37324023D01*
X220881333Y-37419261D01*
X220976571Y-37466880D01*
X221500380Y-37466880D01*
X220833714Y-38371642D02*
X221643238Y-38371642D01*
X221738476Y-38324023D01*
X221786095Y-38276404D01*
X221833714Y-38181166D01*
X221833714Y-38038309D01*
X221786095Y-37943071D01*
X221452761Y-38371642D02*
X221500380Y-38276404D01*
X221500380Y-38085928D01*
X221452761Y-37990690D01*
X221405142Y-37943071D01*
X221309904Y-37895452D01*
X221024190Y-37895452D01*
X220928952Y-37943071D01*
X220881333Y-37990690D01*
X220833714Y-38085928D01*
X220833714Y-38276404D01*
X220881333Y-38371642D01*
X220897214Y-47468500D02*
X221897214Y-47468500D01*
X220944833Y-47468500D02*
X220897214Y-47563738D01*
X220897214Y-47754214D01*
X220944833Y-47849452D01*
X220992452Y-47897071D01*
X221087690Y-47944690D01*
X221373404Y-47944690D01*
X221468642Y-47897071D01*
X221516261Y-47849452D01*
X221563880Y-47754214D01*
X221563880Y-47563738D01*
X221516261Y-47468500D01*
X220897214Y-48801833D02*
X221563880Y-48801833D01*
X220897214Y-48373261D02*
X221421023Y-48373261D01*
X221516261Y-48420880D01*
X221563880Y-48516119D01*
X221563880Y-48658976D01*
X221516261Y-48754214D01*
X221468642Y-48801833D01*
X221516261Y-49706595D02*
X221563880Y-49611357D01*
X221563880Y-49420880D01*
X221516261Y-49325642D01*
X221468642Y-49278023D01*
X221373404Y-49230404D01*
X221087690Y-49230404D01*
X220992452Y-49278023D01*
X220944833Y-49325642D01*
X220897214Y-49420880D01*
X220897214Y-49611357D01*
X220944833Y-49706595D01*
X221563880Y-50135166D02*
X220563880Y-50135166D01*
X221182928Y-50230404D02*
X221563880Y-50516119D01*
X220897214Y-50516119D02*
X221278166Y-50135166D01*
D11*
%TO.C,SW17_r1*%
X91799990Y-53897161D02*
X91657133Y-53944780D01*
X91419038Y-53944780D01*
X91323800Y-53897161D01*
X91276180Y-53849542D01*
X91228561Y-53754304D01*
X91228561Y-53659066D01*
X91276180Y-53563828D01*
X91323800Y-53516209D01*
X91419038Y-53468590D01*
X91609514Y-53420971D01*
X91704752Y-53373352D01*
X91752371Y-53325733D01*
X91799990Y-53230495D01*
X91799990Y-53135257D01*
X91752371Y-53040019D01*
X91704752Y-52992400D01*
X91609514Y-52944780D01*
X91371419Y-52944780D01*
X91228561Y-52992400D01*
X90895228Y-52944780D02*
X90657133Y-53944780D01*
X90466657Y-53230495D01*
X90276180Y-53944780D01*
X90038085Y-52944780D01*
X89133323Y-53944780D02*
X89704752Y-53944780D01*
X89419038Y-53944780D02*
X89419038Y-52944780D01*
X89514276Y-53087638D01*
X89609514Y-53182876D01*
X89704752Y-53230495D01*
X88799990Y-52944780D02*
X88133323Y-52944780D01*
X88561895Y-53944780D01*
X87990466Y-54040019D02*
X87228561Y-54040019D01*
X86990466Y-53944780D02*
X86990466Y-53278114D01*
X86990466Y-53468590D02*
X86942847Y-53373352D01*
X86895228Y-53325733D01*
X86799990Y-53278114D01*
X86704752Y-53278114D01*
X85847609Y-53944780D02*
X86419038Y-53944780D01*
X86133323Y-53944780D02*
X86133323Y-52944780D01*
X86228561Y-53087638D01*
X86323800Y-53182876D01*
X86419038Y-53230495D01*
%TO.C,SW11_r1*%
X82884590Y-52144561D02*
X82741733Y-52192180D01*
X82503638Y-52192180D01*
X82408400Y-52144561D01*
X82360780Y-52096942D01*
X82313161Y-52001704D01*
X82313161Y-51906466D01*
X82360780Y-51811228D01*
X82408400Y-51763609D01*
X82503638Y-51715990D01*
X82694114Y-51668371D01*
X82789352Y-51620752D01*
X82836971Y-51573133D01*
X82884590Y-51477895D01*
X82884590Y-51382657D01*
X82836971Y-51287419D01*
X82789352Y-51239800D01*
X82694114Y-51192180D01*
X82456019Y-51192180D01*
X82313161Y-51239800D01*
X81979828Y-51192180D02*
X81741733Y-52192180D01*
X81551257Y-51477895D01*
X81360780Y-52192180D01*
X81122685Y-51192180D01*
X80217923Y-52192180D02*
X80789352Y-52192180D01*
X80503638Y-52192180D02*
X80503638Y-51192180D01*
X80598876Y-51335038D01*
X80694114Y-51430276D01*
X80789352Y-51477895D01*
X79265542Y-52192180D02*
X79836971Y-52192180D01*
X79551257Y-52192180D02*
X79551257Y-51192180D01*
X79646495Y-51335038D01*
X79741733Y-51430276D01*
X79836971Y-51477895D01*
X79075066Y-52287419D02*
X78313161Y-52287419D01*
X78075066Y-52192180D02*
X78075066Y-51525514D01*
X78075066Y-51715990D02*
X78027447Y-51620752D01*
X77979828Y-51573133D01*
X77884590Y-51525514D01*
X77789352Y-51525514D01*
X76932209Y-52192180D02*
X77503638Y-52192180D01*
X77217923Y-52192180D02*
X77217923Y-51192180D01*
X77313161Y-51335038D01*
X77408400Y-51430276D01*
X77503638Y-51477895D01*
%TO.C,SW15_r1*%
X127817190Y-72743961D02*
X127674333Y-72791580D01*
X127436238Y-72791580D01*
X127341000Y-72743961D01*
X127293380Y-72696342D01*
X127245761Y-72601104D01*
X127245761Y-72505866D01*
X127293380Y-72410628D01*
X127341000Y-72363009D01*
X127436238Y-72315390D01*
X127626714Y-72267771D01*
X127721952Y-72220152D01*
X127769571Y-72172533D01*
X127817190Y-72077295D01*
X127817190Y-71982057D01*
X127769571Y-71886819D01*
X127721952Y-71839200D01*
X127626714Y-71791580D01*
X127388619Y-71791580D01*
X127245761Y-71839200D01*
X126912428Y-71791580D02*
X126674333Y-72791580D01*
X126483857Y-72077295D01*
X126293380Y-72791580D01*
X126055285Y-71791580D01*
X125150523Y-72791580D02*
X125721952Y-72791580D01*
X125436238Y-72791580D02*
X125436238Y-71791580D01*
X125531476Y-71934438D01*
X125626714Y-72029676D01*
X125721952Y-72077295D01*
X124245761Y-71791580D02*
X124721952Y-71791580D01*
X124769571Y-72267771D01*
X124721952Y-72220152D01*
X124626714Y-72172533D01*
X124388619Y-72172533D01*
X124293380Y-72220152D01*
X124245761Y-72267771D01*
X124198142Y-72363009D01*
X124198142Y-72601104D01*
X124245761Y-72696342D01*
X124293380Y-72743961D01*
X124388619Y-72791580D01*
X124626714Y-72791580D01*
X124721952Y-72743961D01*
X124769571Y-72696342D01*
X124007666Y-72886819D02*
X123245761Y-72886819D01*
X123007666Y-72791580D02*
X123007666Y-72124914D01*
X123007666Y-72315390D02*
X122960047Y-72220152D01*
X122912428Y-72172533D01*
X122817190Y-72124914D01*
X122721952Y-72124914D01*
X121864809Y-72791580D02*
X122436238Y-72791580D01*
X122150523Y-72791580D02*
X122150523Y-71791580D01*
X122245761Y-71934438D01*
X122341000Y-72029676D01*
X122436238Y-72077295D01*
%TO.C,SW18_r1*%
X64875990Y-74445761D02*
X64733133Y-74493380D01*
X64495038Y-74493380D01*
X64399800Y-74445761D01*
X64352180Y-74398142D01*
X64304561Y-74302904D01*
X64304561Y-74207666D01*
X64352180Y-74112428D01*
X64399800Y-74064809D01*
X64495038Y-74017190D01*
X64685514Y-73969571D01*
X64780752Y-73921952D01*
X64828371Y-73874333D01*
X64875990Y-73779095D01*
X64875990Y-73683857D01*
X64828371Y-73588619D01*
X64780752Y-73541000D01*
X64685514Y-73493380D01*
X64447419Y-73493380D01*
X64304561Y-73541000D01*
X63971228Y-73493380D02*
X63733133Y-74493380D01*
X63542657Y-73779095D01*
X63352180Y-74493380D01*
X63114085Y-73493380D01*
X62209323Y-74493380D02*
X62780752Y-74493380D01*
X62495038Y-74493380D02*
X62495038Y-73493380D01*
X62590276Y-73636238D01*
X62685514Y-73731476D01*
X62780752Y-73779095D01*
X61637895Y-73921952D02*
X61733133Y-73874333D01*
X61780752Y-73826714D01*
X61828371Y-73731476D01*
X61828371Y-73683857D01*
X61780752Y-73588619D01*
X61733133Y-73541000D01*
X61637895Y-73493380D01*
X61447419Y-73493380D01*
X61352180Y-73541000D01*
X61304561Y-73588619D01*
X61256942Y-73683857D01*
X61256942Y-73731476D01*
X61304561Y-73826714D01*
X61352180Y-73874333D01*
X61447419Y-73921952D01*
X61637895Y-73921952D01*
X61733133Y-73969571D01*
X61780752Y-74017190D01*
X61828371Y-74112428D01*
X61828371Y-74302904D01*
X61780752Y-74398142D01*
X61733133Y-74445761D01*
X61637895Y-74493380D01*
X61447419Y-74493380D01*
X61352180Y-74445761D01*
X61304561Y-74398142D01*
X61256942Y-74302904D01*
X61256942Y-74112428D01*
X61304561Y-74017190D01*
X61352180Y-73969571D01*
X61447419Y-73921952D01*
X61066466Y-74588619D02*
X60304561Y-74588619D01*
X60066466Y-74493380D02*
X60066466Y-73826714D01*
X60066466Y-74017190D02*
X60018847Y-73921952D01*
X59971228Y-73874333D01*
X59875990Y-73826714D01*
X59780752Y-73826714D01*
X58923609Y-74493380D02*
X59495038Y-74493380D01*
X59209323Y-74493380D02*
X59209323Y-73493380D01*
X59304561Y-73636238D01*
X59399800Y-73731476D01*
X59495038Y-73779095D01*
%TO.C,SW6_r1*%
X73289800Y-25144361D02*
X73146942Y-25191980D01*
X72908847Y-25191980D01*
X72813609Y-25144361D01*
X72765990Y-25096742D01*
X72718371Y-25001504D01*
X72718371Y-24906266D01*
X72765990Y-24811028D01*
X72813609Y-24763409D01*
X72908847Y-24715790D01*
X73099323Y-24668171D01*
X73194561Y-24620552D01*
X73242180Y-24572933D01*
X73289800Y-24477695D01*
X73289800Y-24382457D01*
X73242180Y-24287219D01*
X73194561Y-24239600D01*
X73099323Y-24191980D01*
X72861228Y-24191980D01*
X72718371Y-24239600D01*
X72385038Y-24191980D02*
X72146942Y-25191980D01*
X71956466Y-24477695D01*
X71765990Y-25191980D01*
X71527895Y-24191980D01*
X70718371Y-24191980D02*
X70908847Y-24191980D01*
X71004085Y-24239600D01*
X71051704Y-24287219D01*
X71146942Y-24430076D01*
X71194561Y-24620552D01*
X71194561Y-25001504D01*
X71146942Y-25096742D01*
X71099323Y-25144361D01*
X71004085Y-25191980D01*
X70813609Y-25191980D01*
X70718371Y-25144361D01*
X70670752Y-25096742D01*
X70623133Y-25001504D01*
X70623133Y-24763409D01*
X70670752Y-24668171D01*
X70718371Y-24620552D01*
X70813609Y-24572933D01*
X71004085Y-24572933D01*
X71099323Y-24620552D01*
X71146942Y-24668171D01*
X71194561Y-24763409D01*
X70432657Y-25287219D02*
X69670752Y-25287219D01*
X69432657Y-25191980D02*
X69432657Y-24525314D01*
X69432657Y-24715790D02*
X69385038Y-24620552D01*
X69337419Y-24572933D01*
X69242180Y-24525314D01*
X69146942Y-24525314D01*
X68289800Y-25191980D02*
X68861228Y-25191980D01*
X68575514Y-25191980D02*
X68575514Y-24191980D01*
X68670752Y-24334838D01*
X68765990Y-24430076D01*
X68861228Y-24477695D01*
%TO.C,SW5_r1*%
X91323800Y-19886561D02*
X91180942Y-19934180D01*
X90942847Y-19934180D01*
X90847609Y-19886561D01*
X90799990Y-19838942D01*
X90752371Y-19743704D01*
X90752371Y-19648466D01*
X90799990Y-19553228D01*
X90847609Y-19505609D01*
X90942847Y-19457990D01*
X91133323Y-19410371D01*
X91228561Y-19362752D01*
X91276180Y-19315133D01*
X91323800Y-19219895D01*
X91323800Y-19124657D01*
X91276180Y-19029419D01*
X91228561Y-18981800D01*
X91133323Y-18934180D01*
X90895228Y-18934180D01*
X90752371Y-18981800D01*
X90419038Y-18934180D02*
X90180942Y-19934180D01*
X89990466Y-19219895D01*
X89799990Y-19934180D01*
X89561895Y-18934180D01*
X88704752Y-18934180D02*
X89180942Y-18934180D01*
X89228561Y-19410371D01*
X89180942Y-19362752D01*
X89085704Y-19315133D01*
X88847609Y-19315133D01*
X88752371Y-19362752D01*
X88704752Y-19410371D01*
X88657133Y-19505609D01*
X88657133Y-19743704D01*
X88704752Y-19838942D01*
X88752371Y-19886561D01*
X88847609Y-19934180D01*
X89085704Y-19934180D01*
X89180942Y-19886561D01*
X89228561Y-19838942D01*
X88466657Y-20029419D02*
X87704752Y-20029419D01*
X87466657Y-19934180D02*
X87466657Y-19267514D01*
X87466657Y-19457990D02*
X87419038Y-19362752D01*
X87371419Y-19315133D01*
X87276180Y-19267514D01*
X87180942Y-19267514D01*
X86323800Y-19934180D02*
X86895228Y-19934180D01*
X86609514Y-19934180D02*
X86609514Y-18934180D01*
X86704752Y-19077038D01*
X86799990Y-19172276D01*
X86895228Y-19219895D01*
%TO.C,SW2_r1*%
X136459600Y-53998761D02*
X136316742Y-54046380D01*
X136078647Y-54046380D01*
X135983409Y-53998761D01*
X135935790Y-53951142D01*
X135888171Y-53855904D01*
X135888171Y-53760666D01*
X135935790Y-53665428D01*
X135983409Y-53617809D01*
X136078647Y-53570190D01*
X136269123Y-53522571D01*
X136364361Y-53474952D01*
X136411980Y-53427333D01*
X136459600Y-53332095D01*
X136459600Y-53236857D01*
X136411980Y-53141619D01*
X136364361Y-53094000D01*
X136269123Y-53046380D01*
X136031028Y-53046380D01*
X135888171Y-53094000D01*
X135554838Y-53046380D02*
X135316742Y-54046380D01*
X135126266Y-53332095D01*
X134935790Y-54046380D01*
X134697695Y-53046380D01*
X134364361Y-53141619D02*
X134316742Y-53094000D01*
X134221504Y-53046380D01*
X133983409Y-53046380D01*
X133888171Y-53094000D01*
X133840552Y-53141619D01*
X133792933Y-53236857D01*
X133792933Y-53332095D01*
X133840552Y-53474952D01*
X134411980Y-54046380D01*
X133792933Y-54046380D01*
X133602457Y-54141619D02*
X132840552Y-54141619D01*
X132602457Y-54046380D02*
X132602457Y-53379714D01*
X132602457Y-53570190D02*
X132554838Y-53474952D01*
X132507219Y-53427333D01*
X132411980Y-53379714D01*
X132316742Y-53379714D01*
X131459600Y-54046380D02*
X132031028Y-54046380D01*
X131745314Y-54046380D02*
X131745314Y-53046380D01*
X131840552Y-53189238D01*
X131935790Y-53284476D01*
X132031028Y-53332095D01*
%TO.C,SW16_r1*%
X109833990Y-60780561D02*
X109691133Y-60828180D01*
X109453038Y-60828180D01*
X109357800Y-60780561D01*
X109310180Y-60732942D01*
X109262561Y-60637704D01*
X109262561Y-60542466D01*
X109310180Y-60447228D01*
X109357800Y-60399609D01*
X109453038Y-60351990D01*
X109643514Y-60304371D01*
X109738752Y-60256752D01*
X109786371Y-60209133D01*
X109833990Y-60113895D01*
X109833990Y-60018657D01*
X109786371Y-59923419D01*
X109738752Y-59875800D01*
X109643514Y-59828180D01*
X109405419Y-59828180D01*
X109262561Y-59875800D01*
X108929228Y-59828180D02*
X108691133Y-60828180D01*
X108500657Y-60113895D01*
X108310180Y-60828180D01*
X108072085Y-59828180D01*
X107167323Y-60828180D02*
X107738752Y-60828180D01*
X107453038Y-60828180D02*
X107453038Y-59828180D01*
X107548276Y-59971038D01*
X107643514Y-60066276D01*
X107738752Y-60113895D01*
X106310180Y-59828180D02*
X106500657Y-59828180D01*
X106595895Y-59875800D01*
X106643514Y-59923419D01*
X106738752Y-60066276D01*
X106786371Y-60256752D01*
X106786371Y-60637704D01*
X106738752Y-60732942D01*
X106691133Y-60780561D01*
X106595895Y-60828180D01*
X106405419Y-60828180D01*
X106310180Y-60780561D01*
X106262561Y-60732942D01*
X106214942Y-60637704D01*
X106214942Y-60399609D01*
X106262561Y-60304371D01*
X106310180Y-60256752D01*
X106405419Y-60209133D01*
X106595895Y-60209133D01*
X106691133Y-60256752D01*
X106738752Y-60304371D01*
X106786371Y-60399609D01*
X106024466Y-60923419D02*
X105262561Y-60923419D01*
X105024466Y-60828180D02*
X105024466Y-60161514D01*
X105024466Y-60351990D02*
X104976847Y-60256752D01*
X104929228Y-60209133D01*
X104833990Y-60161514D01*
X104738752Y-60161514D01*
X103881609Y-60828180D02*
X104453038Y-60828180D01*
X104167323Y-60828180D02*
X104167323Y-59828180D01*
X104262561Y-59971038D01*
X104357800Y-60066276D01*
X104453038Y-60113895D01*
%TO.C,SW4_r1*%
X109332400Y-26719161D02*
X109189542Y-26766780D01*
X108951447Y-26766780D01*
X108856209Y-26719161D01*
X108808590Y-26671542D01*
X108760971Y-26576304D01*
X108760971Y-26481066D01*
X108808590Y-26385828D01*
X108856209Y-26338209D01*
X108951447Y-26290590D01*
X109141923Y-26242971D01*
X109237161Y-26195352D01*
X109284780Y-26147733D01*
X109332400Y-26052495D01*
X109332400Y-25957257D01*
X109284780Y-25862019D01*
X109237161Y-25814400D01*
X109141923Y-25766780D01*
X108903828Y-25766780D01*
X108760971Y-25814400D01*
X108427638Y-25766780D02*
X108189542Y-26766780D01*
X107999066Y-26052495D01*
X107808590Y-26766780D01*
X107570495Y-25766780D01*
X106760971Y-26100114D02*
X106760971Y-26766780D01*
X106999066Y-25719161D02*
X107237161Y-26433447D01*
X106618114Y-26433447D01*
X106475257Y-26862019D02*
X105713352Y-26862019D01*
X105475257Y-26766780D02*
X105475257Y-26100114D01*
X105475257Y-26290590D02*
X105427638Y-26195352D01*
X105380019Y-26147733D01*
X105284780Y-26100114D01*
X105189542Y-26100114D01*
X104332400Y-26766780D02*
X104903828Y-26766780D01*
X104618114Y-26766780D02*
X104618114Y-25766780D01*
X104713352Y-25909638D01*
X104808590Y-26004876D01*
X104903828Y-26052495D01*
%TO.C,SW13_r1*%
X55757390Y-44727761D02*
X55614533Y-44775380D01*
X55376438Y-44775380D01*
X55281200Y-44727761D01*
X55233580Y-44680142D01*
X55185961Y-44584904D01*
X55185961Y-44489666D01*
X55233580Y-44394428D01*
X55281200Y-44346809D01*
X55376438Y-44299190D01*
X55566914Y-44251571D01*
X55662152Y-44203952D01*
X55709771Y-44156333D01*
X55757390Y-44061095D01*
X55757390Y-43965857D01*
X55709771Y-43870619D01*
X55662152Y-43823000D01*
X55566914Y-43775380D01*
X55328819Y-43775380D01*
X55185961Y-43823000D01*
X54852628Y-43775380D02*
X54614533Y-44775380D01*
X54424057Y-44061095D01*
X54233580Y-44775380D01*
X53995485Y-43775380D01*
X53090723Y-44775380D02*
X53662152Y-44775380D01*
X53376438Y-44775380D02*
X53376438Y-43775380D01*
X53471676Y-43918238D01*
X53566914Y-44013476D01*
X53662152Y-44061095D01*
X52757390Y-43775380D02*
X52138342Y-43775380D01*
X52471676Y-44156333D01*
X52328819Y-44156333D01*
X52233580Y-44203952D01*
X52185961Y-44251571D01*
X52138342Y-44346809D01*
X52138342Y-44584904D01*
X52185961Y-44680142D01*
X52233580Y-44727761D01*
X52328819Y-44775380D01*
X52614533Y-44775380D01*
X52709771Y-44727761D01*
X52757390Y-44680142D01*
X51947866Y-44870619D02*
X51185961Y-44870619D01*
X50947866Y-44775380D02*
X50947866Y-44108714D01*
X50947866Y-44299190D02*
X50900247Y-44203952D01*
X50852628Y-44156333D01*
X50757390Y-44108714D01*
X50662152Y-44108714D01*
X49805009Y-44775380D02*
X50376438Y-44775380D01*
X50090723Y-44775380D02*
X50090723Y-43775380D01*
X50185961Y-43918238D01*
X50281200Y-44013476D01*
X50376438Y-44061095D01*
%TO.C,SW12_r1*%
X64875990Y-57453161D02*
X64733133Y-57500780D01*
X64495038Y-57500780D01*
X64399800Y-57453161D01*
X64352180Y-57405542D01*
X64304561Y-57310304D01*
X64304561Y-57215066D01*
X64352180Y-57119828D01*
X64399800Y-57072209D01*
X64495038Y-57024590D01*
X64685514Y-56976971D01*
X64780752Y-56929352D01*
X64828371Y-56881733D01*
X64875990Y-56786495D01*
X64875990Y-56691257D01*
X64828371Y-56596019D01*
X64780752Y-56548400D01*
X64685514Y-56500780D01*
X64447419Y-56500780D01*
X64304561Y-56548400D01*
X63971228Y-56500780D02*
X63733133Y-57500780D01*
X63542657Y-56786495D01*
X63352180Y-57500780D01*
X63114085Y-56500780D01*
X62209323Y-57500780D02*
X62780752Y-57500780D01*
X62495038Y-57500780D02*
X62495038Y-56500780D01*
X62590276Y-56643638D01*
X62685514Y-56738876D01*
X62780752Y-56786495D01*
X61828371Y-56596019D02*
X61780752Y-56548400D01*
X61685514Y-56500780D01*
X61447419Y-56500780D01*
X61352180Y-56548400D01*
X61304561Y-56596019D01*
X61256942Y-56691257D01*
X61256942Y-56786495D01*
X61304561Y-56929352D01*
X61875990Y-57500780D01*
X61256942Y-57500780D01*
X61066466Y-57596019D02*
X60304561Y-57596019D01*
X60066466Y-57500780D02*
X60066466Y-56834114D01*
X60066466Y-57024590D02*
X60018847Y-56929352D01*
X59971228Y-56881733D01*
X59875990Y-56834114D01*
X59780752Y-56834114D01*
X58923609Y-57500780D02*
X59495038Y-57500780D01*
X59209323Y-57500780D02*
X59209323Y-56500780D01*
X59304561Y-56643638D01*
X59399800Y-56738876D01*
X59495038Y-56786495D01*
%TO.C,SW3_r1*%
X127341000Y-38758761D02*
X127198142Y-38806380D01*
X126960047Y-38806380D01*
X126864809Y-38758761D01*
X126817190Y-38711142D01*
X126769571Y-38615904D01*
X126769571Y-38520666D01*
X126817190Y-38425428D01*
X126864809Y-38377809D01*
X126960047Y-38330190D01*
X127150523Y-38282571D01*
X127245761Y-38234952D01*
X127293380Y-38187333D01*
X127341000Y-38092095D01*
X127341000Y-37996857D01*
X127293380Y-37901619D01*
X127245761Y-37854000D01*
X127150523Y-37806380D01*
X126912428Y-37806380D01*
X126769571Y-37854000D01*
X126436238Y-37806380D02*
X126198142Y-38806380D01*
X126007666Y-38092095D01*
X125817190Y-38806380D01*
X125579095Y-37806380D01*
X125293380Y-37806380D02*
X124674333Y-37806380D01*
X125007666Y-38187333D01*
X124864809Y-38187333D01*
X124769571Y-38234952D01*
X124721952Y-38282571D01*
X124674333Y-38377809D01*
X124674333Y-38615904D01*
X124721952Y-38711142D01*
X124769571Y-38758761D01*
X124864809Y-38806380D01*
X125150523Y-38806380D01*
X125245761Y-38758761D01*
X125293380Y-38711142D01*
X124483857Y-38901619D02*
X123721952Y-38901619D01*
X123483857Y-38806380D02*
X123483857Y-38139714D01*
X123483857Y-38330190D02*
X123436238Y-38234952D01*
X123388619Y-38187333D01*
X123293380Y-38139714D01*
X123198142Y-38139714D01*
X122341000Y-38806380D02*
X122912428Y-38806380D01*
X122626714Y-38806380D02*
X122626714Y-37806380D01*
X122721952Y-37949238D01*
X122817190Y-38044476D01*
X122912428Y-38092095D01*
%TO.C,SW8_r1*%
X136434200Y-70991361D02*
X136291342Y-71038980D01*
X136053247Y-71038980D01*
X135958009Y-70991361D01*
X135910390Y-70943742D01*
X135862771Y-70848504D01*
X135862771Y-70753266D01*
X135910390Y-70658028D01*
X135958009Y-70610409D01*
X136053247Y-70562790D01*
X136243723Y-70515171D01*
X136338961Y-70467552D01*
X136386580Y-70419933D01*
X136434200Y-70324695D01*
X136434200Y-70229457D01*
X136386580Y-70134219D01*
X136338961Y-70086600D01*
X136243723Y-70038980D01*
X136005628Y-70038980D01*
X135862771Y-70086600D01*
X135529438Y-70038980D02*
X135291342Y-71038980D01*
X135100866Y-70324695D01*
X134910390Y-71038980D01*
X134672295Y-70038980D01*
X134148485Y-70467552D02*
X134243723Y-70419933D01*
X134291342Y-70372314D01*
X134338961Y-70277076D01*
X134338961Y-70229457D01*
X134291342Y-70134219D01*
X134243723Y-70086600D01*
X134148485Y-70038980D01*
X133958009Y-70038980D01*
X133862771Y-70086600D01*
X133815152Y-70134219D01*
X133767533Y-70229457D01*
X133767533Y-70277076D01*
X133815152Y-70372314D01*
X133862771Y-70419933D01*
X133958009Y-70467552D01*
X134148485Y-70467552D01*
X134243723Y-70515171D01*
X134291342Y-70562790D01*
X134338961Y-70658028D01*
X134338961Y-70848504D01*
X134291342Y-70943742D01*
X134243723Y-70991361D01*
X134148485Y-71038980D01*
X133958009Y-71038980D01*
X133862771Y-70991361D01*
X133815152Y-70943742D01*
X133767533Y-70848504D01*
X133767533Y-70658028D01*
X133815152Y-70562790D01*
X133862771Y-70515171D01*
X133958009Y-70467552D01*
X133577057Y-71134219D02*
X132815152Y-71134219D01*
X132577057Y-71038980D02*
X132577057Y-70372314D01*
X132577057Y-70562790D02*
X132529438Y-70467552D01*
X132481819Y-70419933D01*
X132386580Y-70372314D01*
X132291342Y-70372314D01*
X131434200Y-71038980D02*
X132005628Y-71038980D01*
X131719914Y-71038980D02*
X131719914Y-70038980D01*
X131815152Y-70181838D01*
X131910390Y-70277076D01*
X132005628Y-70324695D01*
%TO.C,SW21_r1*%
X48435600Y-97285480D02*
X48309935Y-97368450D01*
X48079953Y-97430074D01*
X47975635Y-97408727D01*
X47917314Y-97375055D01*
X47846668Y-97295387D01*
X47822019Y-97203394D01*
X47843366Y-97099076D01*
X47877037Y-97040755D01*
X47956706Y-96970109D01*
X48128367Y-96874814D01*
X48208035Y-96804168D01*
X48241707Y-96745847D01*
X48263054Y-96641529D01*
X48238404Y-96549536D01*
X48167758Y-96469868D01*
X48109437Y-96436196D01*
X48005120Y-96414849D01*
X47775137Y-96476473D01*
X47649473Y-96559443D01*
X47315173Y-96599720D02*
X47344009Y-97627269D01*
X46975153Y-96986621D01*
X46976038Y-97725867D01*
X46487236Y-96821565D01*
X46189910Y-96999831D02*
X46131589Y-96966159D01*
X46027272Y-96944812D01*
X45797289Y-97006436D01*
X45717621Y-97077081D01*
X45683949Y-97135403D01*
X45662602Y-97239720D01*
X45687252Y-97331713D01*
X45770222Y-97457378D01*
X46470076Y-97861439D01*
X45872122Y-98021660D01*
X44952193Y-98268155D02*
X45504151Y-98120258D01*
X45228172Y-98194206D02*
X44969353Y-97228280D01*
X45098320Y-97341620D01*
X45214962Y-97408964D01*
X45319280Y-97430311D01*
X44792857Y-98409446D02*
X44056913Y-98606642D01*
X43802281Y-98576273D02*
X43629735Y-97932322D01*
X43679034Y-98116308D02*
X43608388Y-98036640D01*
X43550067Y-98002968D01*
X43445749Y-97981621D01*
X43353756Y-98006270D01*
X42698366Y-98872066D02*
X43250324Y-98724169D01*
X42974345Y-98798117D02*
X42715526Y-97832192D01*
X42844493Y-97945532D01*
X42961135Y-98012875D01*
X43065453Y-98034222D01*
%TO.C,SW9_r1*%
X127341000Y-55751361D02*
X127198142Y-55798980D01*
X126960047Y-55798980D01*
X126864809Y-55751361D01*
X126817190Y-55703742D01*
X126769571Y-55608504D01*
X126769571Y-55513266D01*
X126817190Y-55418028D01*
X126864809Y-55370409D01*
X126960047Y-55322790D01*
X127150523Y-55275171D01*
X127245761Y-55227552D01*
X127293380Y-55179933D01*
X127341000Y-55084695D01*
X127341000Y-54989457D01*
X127293380Y-54894219D01*
X127245761Y-54846600D01*
X127150523Y-54798980D01*
X126912428Y-54798980D01*
X126769571Y-54846600D01*
X126436238Y-54798980D02*
X126198142Y-55798980D01*
X126007666Y-55084695D01*
X125817190Y-55798980D01*
X125579095Y-54798980D01*
X125150523Y-55798980D02*
X124960047Y-55798980D01*
X124864809Y-55751361D01*
X124817190Y-55703742D01*
X124721952Y-55560885D01*
X124674333Y-55370409D01*
X124674333Y-54989457D01*
X124721952Y-54894219D01*
X124769571Y-54846600D01*
X124864809Y-54798980D01*
X125055285Y-54798980D01*
X125150523Y-54846600D01*
X125198142Y-54894219D01*
X125245761Y-54989457D01*
X125245761Y-55227552D01*
X125198142Y-55322790D01*
X125150523Y-55370409D01*
X125055285Y-55418028D01*
X124864809Y-55418028D01*
X124769571Y-55370409D01*
X124721952Y-55322790D01*
X124674333Y-55227552D01*
X124483857Y-55894219D02*
X123721952Y-55894219D01*
X123483857Y-55798980D02*
X123483857Y-55132314D01*
X123483857Y-55322790D02*
X123436238Y-55227552D01*
X123388619Y-55179933D01*
X123293380Y-55132314D01*
X123198142Y-55132314D01*
X122341000Y-55798980D02*
X122912428Y-55798980D01*
X122626714Y-55798980D02*
X122626714Y-54798980D01*
X122721952Y-54941838D01*
X122817190Y-55037076D01*
X122912428Y-55084695D01*
%TO.C,SW20_r1*%
X66603190Y-94435561D02*
X66460333Y-94483180D01*
X66222238Y-94483180D01*
X66127000Y-94435561D01*
X66079380Y-94387942D01*
X66031761Y-94292704D01*
X66031761Y-94197466D01*
X66079380Y-94102228D01*
X66127000Y-94054609D01*
X66222238Y-94006990D01*
X66412714Y-93959371D01*
X66507952Y-93911752D01*
X66555571Y-93864133D01*
X66603190Y-93768895D01*
X66603190Y-93673657D01*
X66555571Y-93578419D01*
X66507952Y-93530800D01*
X66412714Y-93483180D01*
X66174619Y-93483180D01*
X66031761Y-93530800D01*
X65698428Y-93483180D02*
X65460333Y-94483180D01*
X65269857Y-93768895D01*
X65079380Y-94483180D01*
X64841285Y-93483180D01*
X64507952Y-93578419D02*
X64460333Y-93530800D01*
X64365095Y-93483180D01*
X64127000Y-93483180D01*
X64031761Y-93530800D01*
X63984142Y-93578419D01*
X63936523Y-93673657D01*
X63936523Y-93768895D01*
X63984142Y-93911752D01*
X64555571Y-94483180D01*
X63936523Y-94483180D01*
X63317476Y-93483180D02*
X63222238Y-93483180D01*
X63127000Y-93530800D01*
X63079380Y-93578419D01*
X63031761Y-93673657D01*
X62984142Y-93864133D01*
X62984142Y-94102228D01*
X63031761Y-94292704D01*
X63079380Y-94387942D01*
X63127000Y-94435561D01*
X63222238Y-94483180D01*
X63317476Y-94483180D01*
X63412714Y-94435561D01*
X63460333Y-94387942D01*
X63507952Y-94292704D01*
X63555571Y-94102228D01*
X63555571Y-93864133D01*
X63507952Y-93673657D01*
X63460333Y-93578419D01*
X63412714Y-93530800D01*
X63317476Y-93483180D01*
X62793666Y-94578419D02*
X62031761Y-94578419D01*
X61793666Y-94483180D02*
X61793666Y-93816514D01*
X61793666Y-94006990D02*
X61746047Y-93911752D01*
X61698428Y-93864133D01*
X61603190Y-93816514D01*
X61507952Y-93816514D01*
X60650809Y-94483180D02*
X61222238Y-94483180D01*
X60936523Y-94483180D02*
X60936523Y-93483180D01*
X61031761Y-93626038D01*
X61127000Y-93721276D01*
X61222238Y-93768895D01*
%TO.C,SW7_r1*%
X55281200Y-27735161D02*
X55138342Y-27782780D01*
X54900247Y-27782780D01*
X54805009Y-27735161D01*
X54757390Y-27687542D01*
X54709771Y-27592304D01*
X54709771Y-27497066D01*
X54757390Y-27401828D01*
X54805009Y-27354209D01*
X54900247Y-27306590D01*
X55090723Y-27258971D01*
X55185961Y-27211352D01*
X55233580Y-27163733D01*
X55281200Y-27068495D01*
X55281200Y-26973257D01*
X55233580Y-26878019D01*
X55185961Y-26830400D01*
X55090723Y-26782780D01*
X54852628Y-26782780D01*
X54709771Y-26830400D01*
X54376438Y-26782780D02*
X54138342Y-27782780D01*
X53947866Y-27068495D01*
X53757390Y-27782780D01*
X53519295Y-26782780D01*
X53233580Y-26782780D02*
X52566914Y-26782780D01*
X52995485Y-27782780D01*
X52424057Y-27878019D02*
X51662152Y-27878019D01*
X51424057Y-27782780D02*
X51424057Y-27116114D01*
X51424057Y-27306590D02*
X51376438Y-27211352D01*
X51328819Y-27163733D01*
X51233580Y-27116114D01*
X51138342Y-27116114D01*
X50281200Y-27782780D02*
X50852628Y-27782780D01*
X50566914Y-27782780D02*
X50566914Y-26782780D01*
X50662152Y-26925638D01*
X50757390Y-27020876D01*
X50852628Y-27068495D01*
D12*
%TO.C,REF\u002A\u002A*%
X74952614Y-47410900D02*
X75952614Y-47410900D01*
X75000233Y-47410900D02*
X74952614Y-47506138D01*
X74952614Y-47696614D01*
X75000233Y-47791852D01*
X75047852Y-47839471D01*
X75143090Y-47887090D01*
X75428804Y-47887090D01*
X75524042Y-47839471D01*
X75571661Y-47791852D01*
X75619280Y-47696614D01*
X75619280Y-47506138D01*
X75571661Y-47410900D01*
X74952614Y-48744233D02*
X75619280Y-48744233D01*
X74952614Y-48315661D02*
X75476423Y-48315661D01*
X75571661Y-48363280D01*
X75619280Y-48458519D01*
X75619280Y-48601376D01*
X75571661Y-48696614D01*
X75524042Y-48744233D01*
X75571661Y-49648995D02*
X75619280Y-49553757D01*
X75619280Y-49363280D01*
X75571661Y-49268042D01*
X75524042Y-49220423D01*
X75428804Y-49172804D01*
X75143090Y-49172804D01*
X75047852Y-49220423D01*
X75000233Y-49268042D01*
X74952614Y-49363280D01*
X74952614Y-49553757D01*
X75000233Y-49648995D01*
X75619280Y-50077566D02*
X74619280Y-50077566D01*
X75238328Y-50172804D02*
X75619280Y-50458519D01*
X74952614Y-50458519D02*
X75333566Y-50077566D01*
X74889114Y-33456900D02*
X74889114Y-33837852D01*
X74555780Y-33599757D02*
X75412923Y-33599757D01*
X75508161Y-33647376D01*
X75555780Y-33742614D01*
X75555780Y-33837852D01*
X75508161Y-34552138D02*
X75555780Y-34456900D01*
X75555780Y-34266423D01*
X75508161Y-34171185D01*
X75412923Y-34123566D01*
X75031971Y-34123566D01*
X74936733Y-34171185D01*
X74889114Y-34266423D01*
X74889114Y-34456900D01*
X74936733Y-34552138D01*
X75031971Y-34599757D01*
X75127209Y-34599757D01*
X75222447Y-34123566D01*
X74889114Y-35028328D02*
X75555780Y-35028328D01*
X74984352Y-35028328D02*
X74936733Y-35075947D01*
X74889114Y-35171185D01*
X74889114Y-35314042D01*
X74936733Y-35409280D01*
X75031971Y-35456900D01*
X75555780Y-35456900D01*
X74889114Y-35790233D02*
X74889114Y-36171185D01*
X74555780Y-35933090D02*
X75412923Y-35933090D01*
X75508161Y-35980709D01*
X75555780Y-36075947D01*
X75555780Y-36171185D01*
X75555780Y-36504519D02*
X74889114Y-36504519D01*
X74555780Y-36504519D02*
X74603400Y-36456900D01*
X74651019Y-36504519D01*
X74603400Y-36552138D01*
X74555780Y-36504519D01*
X74651019Y-36504519D01*
X74889114Y-36980709D02*
X75555780Y-36980709D01*
X74984352Y-36980709D02*
X74936733Y-37028328D01*
X74889114Y-37123566D01*
X74889114Y-37266423D01*
X74936733Y-37361661D01*
X75031971Y-37409280D01*
X75555780Y-37409280D01*
X74889114Y-38314042D02*
X75698638Y-38314042D01*
X75793876Y-38266423D01*
X75841495Y-38218804D01*
X75889114Y-38123566D01*
X75889114Y-37980709D01*
X75841495Y-37885471D01*
X75508161Y-38314042D02*
X75555780Y-38218804D01*
X75555780Y-38028328D01*
X75508161Y-37933090D01*
X75460542Y-37885471D01*
X75365304Y-37837852D01*
X75079590Y-37837852D01*
X74984352Y-37885471D01*
X74936733Y-37933090D01*
X74889114Y-38028328D01*
X74889114Y-38218804D01*
X74936733Y-38314042D01*
D11*
%TO.C,RSW2*%
X25303227Y-88444673D02*
X25303146Y-87863408D01*
X25771314Y-88116915D02*
X25197738Y-87297763D01*
X24885680Y-87516268D01*
X24834979Y-87609902D01*
X24823285Y-87676222D01*
X24838904Y-87781550D01*
X24920843Y-87898571D01*
X25014477Y-87949273D01*
X25080797Y-87960967D01*
X25186125Y-87945348D01*
X25498183Y-87726842D01*
X24651717Y-88261412D02*
X24378667Y-88452604D01*
X24562090Y-88963623D02*
X24952162Y-88690491D01*
X24378586Y-87871339D01*
X23988513Y-88144471D01*
X24222719Y-89143121D02*
X24133010Y-89264068D01*
X23937974Y-89400634D01*
X23832646Y-89416253D01*
X23766326Y-89404559D01*
X23672692Y-89353857D01*
X23618066Y-89275843D01*
X23602447Y-89170515D01*
X23614141Y-89104195D01*
X23664842Y-89010561D01*
X23793558Y-88862301D01*
X23844259Y-88768668D01*
X23855954Y-88702347D01*
X23840334Y-88597020D01*
X23785708Y-88519005D01*
X23692075Y-88468304D01*
X23625754Y-88456610D01*
X23520426Y-88472229D01*
X23325390Y-88608795D01*
X23235682Y-88729741D01*
X23130435Y-89326625D02*
X22857384Y-89517817D01*
X23040807Y-90028836D02*
X23430880Y-89755705D01*
X22857303Y-88936553D01*
X22467231Y-89209684D01*
X22233188Y-89373563D02*
X21765101Y-89701321D01*
X22572721Y-90356594D02*
X21999144Y-89537442D01*
%TO.C,SW13*%
X254082323Y-44829361D02*
X253939466Y-44876980D01*
X253701371Y-44876980D01*
X253606133Y-44829361D01*
X253558514Y-44781742D01*
X253510895Y-44686504D01*
X253510895Y-44591266D01*
X253558514Y-44496028D01*
X253606133Y-44448409D01*
X253701371Y-44400790D01*
X253891847Y-44353171D01*
X253987085Y-44305552D01*
X254034704Y-44257933D01*
X254082323Y-44162695D01*
X254082323Y-44067457D01*
X254034704Y-43972219D01*
X253987085Y-43924600D01*
X253891847Y-43876980D01*
X253653752Y-43876980D01*
X253510895Y-43924600D01*
X253177561Y-43876980D02*
X252939466Y-44876980D01*
X252748990Y-44162695D01*
X252558514Y-44876980D01*
X252320419Y-43876980D01*
X251415657Y-44876980D02*
X251987085Y-44876980D01*
X251701371Y-44876980D02*
X251701371Y-43876980D01*
X251796609Y-44019838D01*
X251891847Y-44115076D01*
X251987085Y-44162695D01*
X251082323Y-43876980D02*
X250463276Y-43876980D01*
X250796609Y-44257933D01*
X250653752Y-44257933D01*
X250558514Y-44305552D01*
X250510895Y-44353171D01*
X250463276Y-44448409D01*
X250463276Y-44686504D01*
X250510895Y-44781742D01*
X250558514Y-44829361D01*
X250653752Y-44876980D01*
X250939466Y-44876980D01*
X251034704Y-44829361D01*
X251082323Y-44781742D01*
%TO.C,SW22*%
X258504903Y-100366929D02*
X258649238Y-100409861D01*
X258844274Y-100546427D01*
X258894976Y-100640060D01*
X258906670Y-100706381D01*
X258891051Y-100811708D01*
X258836424Y-100889723D01*
X258742791Y-100940424D01*
X258676470Y-100952118D01*
X258571143Y-100936499D01*
X258387801Y-100866254D01*
X258282473Y-100850635D01*
X258216153Y-100862329D01*
X258122519Y-100913030D01*
X258067893Y-100991045D01*
X258052274Y-101096372D01*
X258063968Y-101162693D01*
X258114669Y-101256326D01*
X258309705Y-101392892D01*
X258454040Y-101435824D01*
X258699778Y-101666024D02*
X259468390Y-100983437D01*
X259214722Y-101677799D01*
X259780448Y-101201943D01*
X259401908Y-102157661D01*
X259729585Y-102270838D02*
X259741279Y-102337159D01*
X259791980Y-102430792D01*
X259987016Y-102567358D01*
X260092344Y-102582977D01*
X260158665Y-102571283D01*
X260252298Y-102520582D01*
X260306924Y-102442567D01*
X260349857Y-102298232D01*
X260209528Y-101502388D01*
X260716622Y-101857459D01*
X260509730Y-102817102D02*
X260521424Y-102883422D01*
X260572125Y-102977056D01*
X260767161Y-103113621D01*
X260872489Y-103129240D01*
X260938809Y-103117546D01*
X261032443Y-103066845D01*
X261087069Y-102988831D01*
X261130001Y-102844496D01*
X260989673Y-102048651D01*
X261496767Y-102403722D01*
%TO.C,SW19*%
X254082323Y-61948961D02*
X253939466Y-61996580D01*
X253701371Y-61996580D01*
X253606133Y-61948961D01*
X253558514Y-61901342D01*
X253510895Y-61806104D01*
X253510895Y-61710866D01*
X253558514Y-61615628D01*
X253606133Y-61568009D01*
X253701371Y-61520390D01*
X253891847Y-61472771D01*
X253987085Y-61425152D01*
X254034704Y-61377533D01*
X254082323Y-61282295D01*
X254082323Y-61187057D01*
X254034704Y-61091819D01*
X253987085Y-61044200D01*
X253891847Y-60996580D01*
X253653752Y-60996580D01*
X253510895Y-61044200D01*
X253177561Y-60996580D02*
X252939466Y-61996580D01*
X252748990Y-61282295D01*
X252558514Y-61996580D01*
X252320419Y-60996580D01*
X251415657Y-61996580D02*
X251987085Y-61996580D01*
X251701371Y-61996580D02*
X251701371Y-60996580D01*
X251796609Y-61139438D01*
X251891847Y-61234676D01*
X251987085Y-61282295D01*
X250939466Y-61996580D02*
X250748990Y-61996580D01*
X250653752Y-61948961D01*
X250606133Y-61901342D01*
X250510895Y-61758485D01*
X250463276Y-61568009D01*
X250463276Y-61187057D01*
X250510895Y-61091819D01*
X250558514Y-61044200D01*
X250653752Y-60996580D01*
X250844228Y-60996580D01*
X250939466Y-61044200D01*
X250987085Y-61091819D01*
X251034704Y-61187057D01*
X251034704Y-61425152D01*
X250987085Y-61520390D01*
X250939466Y-61568009D01*
X250844228Y-61615628D01*
X250653752Y-61615628D01*
X250558514Y-61568009D01*
X250510895Y-61520390D01*
X250463276Y-61425152D01*
%TO.C,SW19_r1*%
X55731990Y-61745761D02*
X55589133Y-61793380D01*
X55351038Y-61793380D01*
X55255800Y-61745761D01*
X55208180Y-61698142D01*
X55160561Y-61602904D01*
X55160561Y-61507666D01*
X55208180Y-61412428D01*
X55255800Y-61364809D01*
X55351038Y-61317190D01*
X55541514Y-61269571D01*
X55636752Y-61221952D01*
X55684371Y-61174333D01*
X55731990Y-61079095D01*
X55731990Y-60983857D01*
X55684371Y-60888619D01*
X55636752Y-60841000D01*
X55541514Y-60793380D01*
X55303419Y-60793380D01*
X55160561Y-60841000D01*
X54827228Y-60793380D02*
X54589133Y-61793380D01*
X54398657Y-61079095D01*
X54208180Y-61793380D01*
X53970085Y-60793380D01*
X53065323Y-61793380D02*
X53636752Y-61793380D01*
X53351038Y-61793380D02*
X53351038Y-60793380D01*
X53446276Y-60936238D01*
X53541514Y-61031476D01*
X53636752Y-61079095D01*
X52589133Y-61793380D02*
X52398657Y-61793380D01*
X52303419Y-61745761D01*
X52255800Y-61698142D01*
X52160561Y-61555285D01*
X52112942Y-61364809D01*
X52112942Y-60983857D01*
X52160561Y-60888619D01*
X52208180Y-60841000D01*
X52303419Y-60793380D01*
X52493895Y-60793380D01*
X52589133Y-60841000D01*
X52636752Y-60888619D01*
X52684371Y-60983857D01*
X52684371Y-61221952D01*
X52636752Y-61317190D01*
X52589133Y-61364809D01*
X52493895Y-61412428D01*
X52303419Y-61412428D01*
X52208180Y-61364809D01*
X52160561Y-61317190D01*
X52112942Y-61221952D01*
X51922466Y-61888619D02*
X51160561Y-61888619D01*
X50922466Y-61793380D02*
X50922466Y-61126714D01*
X50922466Y-61317190D02*
X50874847Y-61221952D01*
X50827228Y-61174333D01*
X50731990Y-61126714D01*
X50636752Y-61126714D01*
X49779609Y-61793380D02*
X50351038Y-61793380D01*
X50065323Y-61793380D02*
X50065323Y-60793380D01*
X50160561Y-60936238D01*
X50255800Y-61031476D01*
X50351038Y-61079095D01*
%TO.C,Bat+1*%
%TO.C,SW10_r1*%
X109808590Y-43762561D02*
X109665733Y-43810180D01*
X109427638Y-43810180D01*
X109332400Y-43762561D01*
X109284780Y-43714942D01*
X109237161Y-43619704D01*
X109237161Y-43524466D01*
X109284780Y-43429228D01*
X109332400Y-43381609D01*
X109427638Y-43333990D01*
X109618114Y-43286371D01*
X109713352Y-43238752D01*
X109760971Y-43191133D01*
X109808590Y-43095895D01*
X109808590Y-43000657D01*
X109760971Y-42905419D01*
X109713352Y-42857800D01*
X109618114Y-42810180D01*
X109380019Y-42810180D01*
X109237161Y-42857800D01*
X108903828Y-42810180D02*
X108665733Y-43810180D01*
X108475257Y-43095895D01*
X108284780Y-43810180D01*
X108046685Y-42810180D01*
X107141923Y-43810180D02*
X107713352Y-43810180D01*
X107427638Y-43810180D02*
X107427638Y-42810180D01*
X107522876Y-42953038D01*
X107618114Y-43048276D01*
X107713352Y-43095895D01*
X106522876Y-42810180D02*
X106427638Y-42810180D01*
X106332400Y-42857800D01*
X106284780Y-42905419D01*
X106237161Y-43000657D01*
X106189542Y-43191133D01*
X106189542Y-43429228D01*
X106237161Y-43619704D01*
X106284780Y-43714942D01*
X106332400Y-43762561D01*
X106427638Y-43810180D01*
X106522876Y-43810180D01*
X106618114Y-43762561D01*
X106665733Y-43714942D01*
X106713352Y-43619704D01*
X106760971Y-43429228D01*
X106760971Y-43191133D01*
X106713352Y-43000657D01*
X106665733Y-42905419D01*
X106618114Y-42857800D01*
X106522876Y-42810180D01*
X105999066Y-43905419D02*
X105237161Y-43905419D01*
X104999066Y-43810180D02*
X104999066Y-43143514D01*
X104999066Y-43333990D02*
X104951447Y-43238752D01*
X104903828Y-43191133D01*
X104808590Y-43143514D01*
X104713352Y-43143514D01*
X103856209Y-43810180D02*
X104427638Y-43810180D01*
X104141923Y-43810180D02*
X104141923Y-42810180D01*
X104237161Y-42953038D01*
X104332400Y-43048276D01*
X104427638Y-43095895D01*
%TO.C,SW22_r1*%
X30525128Y-87744932D02*
X30435419Y-87865879D01*
X30240383Y-88002445D01*
X30135056Y-88018064D01*
X30068735Y-88006370D01*
X29975102Y-87955669D01*
X29920475Y-87877654D01*
X29904856Y-87772326D01*
X29916550Y-87706006D01*
X29967252Y-87612372D01*
X30095967Y-87464113D01*
X30146669Y-87370479D01*
X30158363Y-87304159D01*
X30142744Y-87198831D01*
X30088117Y-87120816D01*
X29994484Y-87070115D01*
X29928163Y-87058421D01*
X29822836Y-87074040D01*
X29627799Y-87210606D01*
X29538091Y-87331553D01*
X29237727Y-87483738D02*
X29616267Y-88439455D01*
X29050541Y-87963600D01*
X29304209Y-88657961D01*
X28535597Y-87975375D01*
X28317172Y-88244581D02*
X28250852Y-88232887D01*
X28145524Y-88248506D01*
X27950488Y-88385072D01*
X27899787Y-88478706D01*
X27888093Y-88545026D01*
X27903712Y-88650354D01*
X27958338Y-88728368D01*
X28079285Y-88818077D01*
X28875130Y-88958406D01*
X28368036Y-89313477D01*
X27537028Y-88790844D02*
X27470707Y-88779150D01*
X27365380Y-88794769D01*
X27170343Y-88931335D01*
X27119642Y-89024969D01*
X27107948Y-89091289D01*
X27123567Y-89196617D01*
X27178193Y-89274631D01*
X27299140Y-89364340D01*
X28094985Y-89504669D01*
X27587891Y-89859740D01*
X27486488Y-90047007D02*
X26862372Y-90484018D01*
X26612710Y-90542569D02*
X26230326Y-89996468D01*
X26339578Y-90152497D02*
X26245945Y-90101795D01*
X26179624Y-90090101D01*
X26074297Y-90105720D01*
X25996282Y-90160347D01*
X25676536Y-91198085D02*
X26144623Y-90870327D01*
X25910579Y-91034206D02*
X25337003Y-90215054D01*
X25496957Y-90277449D01*
X25629598Y-90300838D01*
X25734925Y-90285218D01*
%TO.C,BatGND1*%
%TO.C,Bat+r1*%
%TO.C,SW14_r1*%
X136910390Y-88009361D02*
X136767533Y-88056980D01*
X136529438Y-88056980D01*
X136434200Y-88009361D01*
X136386580Y-87961742D01*
X136338961Y-87866504D01*
X136338961Y-87771266D01*
X136386580Y-87676028D01*
X136434200Y-87628409D01*
X136529438Y-87580790D01*
X136719914Y-87533171D01*
X136815152Y-87485552D01*
X136862771Y-87437933D01*
X136910390Y-87342695D01*
X136910390Y-87247457D01*
X136862771Y-87152219D01*
X136815152Y-87104600D01*
X136719914Y-87056980D01*
X136481819Y-87056980D01*
X136338961Y-87104600D01*
X136005628Y-87056980D02*
X135767533Y-88056980D01*
X135577057Y-87342695D01*
X135386580Y-88056980D01*
X135148485Y-87056980D01*
X134243723Y-88056980D02*
X134815152Y-88056980D01*
X134529438Y-88056980D02*
X134529438Y-87056980D01*
X134624676Y-87199838D01*
X134719914Y-87295076D01*
X134815152Y-87342695D01*
X133386580Y-87390314D02*
X133386580Y-88056980D01*
X133624676Y-87009361D02*
X133862771Y-87723647D01*
X133243723Y-87723647D01*
X133100866Y-88152219D02*
X132338961Y-88152219D01*
X132100866Y-88056980D02*
X132100866Y-87390314D01*
X132100866Y-87580790D02*
X132053247Y-87485552D01*
X132005628Y-87437933D01*
X131910390Y-87390314D01*
X131815152Y-87390314D01*
X130958009Y-88056980D02*
X131529438Y-88056980D01*
X131243723Y-88056980D02*
X131243723Y-87056980D01*
X131338961Y-87199838D01*
X131434200Y-87295076D01*
X131529438Y-87342695D01*
%TO.C,SW7*%
X253606133Y-27709761D02*
X253463276Y-27757380D01*
X253225180Y-27757380D01*
X253129942Y-27709761D01*
X253082323Y-27662142D01*
X253034704Y-27566904D01*
X253034704Y-27471666D01*
X253082323Y-27376428D01*
X253129942Y-27328809D01*
X253225180Y-27281190D01*
X253415657Y-27233571D01*
X253510895Y-27185952D01*
X253558514Y-27138333D01*
X253606133Y-27043095D01*
X253606133Y-26947857D01*
X253558514Y-26852619D01*
X253510895Y-26805000D01*
X253415657Y-26757380D01*
X253177561Y-26757380D01*
X253034704Y-26805000D01*
X252701371Y-26757380D02*
X252463276Y-27757380D01*
X252272800Y-27043095D01*
X252082323Y-27757380D01*
X251844228Y-26757380D01*
X251558514Y-26757380D02*
X250891847Y-26757380D01*
X251320419Y-27757380D01*
%TO.C,BatGND4*%
%TO.C,SW_POWER1*%
X274136904Y-52263561D02*
X273994047Y-52311180D01*
X273755952Y-52311180D01*
X273660714Y-52263561D01*
X273613095Y-52215942D01*
X273565476Y-52120704D01*
X273565476Y-52025466D01*
X273613095Y-51930228D01*
X273660714Y-51882609D01*
X273755952Y-51834990D01*
X273946428Y-51787371D01*
X274041666Y-51739752D01*
X274089285Y-51692133D01*
X274136904Y-51596895D01*
X274136904Y-51501657D01*
X274089285Y-51406419D01*
X274041666Y-51358800D01*
X273946428Y-51311180D01*
X273708333Y-51311180D01*
X273565476Y-51358800D01*
X273232142Y-51311180D02*
X272994047Y-52311180D01*
X272803571Y-51596895D01*
X272613095Y-52311180D01*
X272375000Y-51311180D01*
X272232142Y-52406419D02*
X271470238Y-52406419D01*
X271232142Y-52311180D02*
X271232142Y-51311180D01*
X270851190Y-51311180D01*
X270755952Y-51358800D01*
X270708333Y-51406419D01*
X270660714Y-51501657D01*
X270660714Y-51644514D01*
X270708333Y-51739752D01*
X270755952Y-51787371D01*
X270851190Y-51834990D01*
X271232142Y-51834990D01*
X270041666Y-51311180D02*
X269851190Y-51311180D01*
X269755952Y-51358800D01*
X269660714Y-51454038D01*
X269613095Y-51644514D01*
X269613095Y-51977847D01*
X269660714Y-52168323D01*
X269755952Y-52263561D01*
X269851190Y-52311180D01*
X270041666Y-52311180D01*
X270136904Y-52263561D01*
X270232142Y-52168323D01*
X270279761Y-51977847D01*
X270279761Y-51644514D01*
X270232142Y-51454038D01*
X270136904Y-51358800D01*
X270041666Y-51311180D01*
X269279761Y-51311180D02*
X269041666Y-52311180D01*
X268851190Y-51596895D01*
X268660714Y-52311180D01*
X268422619Y-51311180D01*
X268041666Y-51787371D02*
X267708333Y-51787371D01*
X267565476Y-52311180D02*
X268041666Y-52311180D01*
X268041666Y-51311180D01*
X267565476Y-51311180D01*
X266565476Y-52311180D02*
X266898809Y-51834990D01*
X267136904Y-52311180D02*
X267136904Y-51311180D01*
X266755952Y-51311180D01*
X266660714Y-51358800D01*
X266613095Y-51406419D01*
X266565476Y-51501657D01*
X266565476Y-51644514D01*
X266613095Y-51739752D01*
X266660714Y-51787371D01*
X266755952Y-51834990D01*
X267136904Y-51834990D01*
X265613095Y-52311180D02*
X266184523Y-52311180D01*
X265898809Y-52311180D02*
X265898809Y-51311180D01*
X265994047Y-51454038D01*
X266089285Y-51549276D01*
X266184523Y-51596895D01*
%TO.C,SW_POWERR1*%
X30923904Y-52136561D02*
X30781047Y-52184180D01*
X30542952Y-52184180D01*
X30447714Y-52136561D01*
X30400095Y-52088942D01*
X30352476Y-51993704D01*
X30352476Y-51898466D01*
X30400095Y-51803228D01*
X30447714Y-51755609D01*
X30542952Y-51707990D01*
X30733428Y-51660371D01*
X30828666Y-51612752D01*
X30876285Y-51565133D01*
X30923904Y-51469895D01*
X30923904Y-51374657D01*
X30876285Y-51279419D01*
X30828666Y-51231800D01*
X30733428Y-51184180D01*
X30495333Y-51184180D01*
X30352476Y-51231800D01*
X30019142Y-51184180D02*
X29781047Y-52184180D01*
X29590571Y-51469895D01*
X29400095Y-52184180D01*
X29162000Y-51184180D01*
X29019142Y-52279419D02*
X28257238Y-52279419D01*
X28019142Y-52184180D02*
X28019142Y-51184180D01*
X27638190Y-51184180D01*
X27542952Y-51231800D01*
X27495333Y-51279419D01*
X27447714Y-51374657D01*
X27447714Y-51517514D01*
X27495333Y-51612752D01*
X27542952Y-51660371D01*
X27638190Y-51707990D01*
X28019142Y-51707990D01*
X26828666Y-51184180D02*
X26638190Y-51184180D01*
X26542952Y-51231800D01*
X26447714Y-51327038D01*
X26400095Y-51517514D01*
X26400095Y-51850847D01*
X26447714Y-52041323D01*
X26542952Y-52136561D01*
X26638190Y-52184180D01*
X26828666Y-52184180D01*
X26923904Y-52136561D01*
X27019142Y-52041323D01*
X27066761Y-51850847D01*
X27066761Y-51517514D01*
X27019142Y-51327038D01*
X26923904Y-51231800D01*
X26828666Y-51184180D01*
X26066761Y-51184180D02*
X25828666Y-52184180D01*
X25638190Y-51469895D01*
X25447714Y-52184180D01*
X25209619Y-51184180D01*
X24828666Y-51660371D02*
X24495333Y-51660371D01*
X24352476Y-52184180D02*
X24828666Y-52184180D01*
X24828666Y-51184180D01*
X24352476Y-51184180D01*
X23352476Y-52184180D02*
X23685809Y-51707990D01*
X23923904Y-52184180D02*
X23923904Y-51184180D01*
X23542952Y-51184180D01*
X23447714Y-51231800D01*
X23400095Y-51279419D01*
X23352476Y-51374657D01*
X23352476Y-51517514D01*
X23400095Y-51612752D01*
X23447714Y-51660371D01*
X23542952Y-51707990D01*
X23923904Y-51707990D01*
X22352476Y-52184180D02*
X22685809Y-51707990D01*
X22923904Y-52184180D02*
X22923904Y-51184180D01*
X22542952Y-51184180D01*
X22447714Y-51231800D01*
X22400095Y-51279419D01*
X22352476Y-51374657D01*
X22352476Y-51517514D01*
X22400095Y-51612752D01*
X22447714Y-51660371D01*
X22542952Y-51707990D01*
X22923904Y-51707990D01*
X21400095Y-52184180D02*
X21971523Y-52184180D01*
X21685809Y-52184180D02*
X21685809Y-51184180D01*
X21781047Y-51327038D01*
X21876285Y-51422276D01*
X21971523Y-51469895D01*
%TO.C,SW16*%
X196276600Y-66622800D02*
X200776600Y-66622800D01*
X192276600Y-59922800D02*
X195276600Y-59922800D01*
X195276600Y-59922800D02*
X195776600Y-60422800D01*
X191776600Y-60422800D02*
X192276600Y-59922800D01*
X191776600Y-63922800D02*
X192276600Y-64422800D01*
X200776600Y-61922800D02*
X196276600Y-61922800D01*
X196276600Y-65922800D02*
X196276600Y-66622800D01*
X200776600Y-62522800D02*
X200776600Y-61922800D01*
X195776600Y-61422800D02*
X195776600Y-60422800D01*
X192276600Y-64422800D02*
X194776600Y-64422800D01*
X200776600Y-66622800D02*
X200776600Y-66122800D01*
X196276600Y-65922800D02*
G75*
G03*
X194776600Y-64422800I-1500000J0D01*
G01*
X195776600Y-61422800D02*
G75*
G03*
X196276600Y-61922800I500000J0D01*
G01*
%TO.C,SW20*%
X229973000Y-94839400D02*
X226973000Y-94839400D01*
X221473000Y-88139400D02*
X221473000Y-88639400D01*
X226973000Y-94839400D02*
X226473000Y-94339400D01*
X221473000Y-92239400D02*
X221473000Y-92839400D01*
X225973000Y-88139400D02*
X221473000Y-88139400D01*
X226473000Y-93339400D02*
X226473000Y-94339400D01*
X225973000Y-88839400D02*
X225973000Y-88139400D01*
X229973000Y-90339400D02*
X227473000Y-90339400D01*
X221473000Y-92839400D02*
X225973000Y-92839400D01*
X230473000Y-90839400D02*
X229973000Y-90339400D01*
X230473000Y-94339400D02*
X229973000Y-94839400D01*
X225973000Y-88839400D02*
G75*
G03*
X227473000Y-90339400I1500000J0D01*
G01*
X226473000Y-93339400D02*
G75*
G03*
X225973000Y-92839400I-500000J0D01*
G01*
%TO.C,SW15*%
X178318800Y-78637000D02*
X182818800Y-78637000D01*
X178318800Y-77937000D02*
X178318800Y-78637000D01*
X173818800Y-75937000D02*
X174318800Y-76437000D01*
X174318800Y-76437000D02*
X176818800Y-76437000D01*
X177818800Y-73437000D02*
X177818800Y-72437000D01*
X173818800Y-72437000D02*
X174318800Y-71937000D01*
X177318800Y-71937000D02*
X177818800Y-72437000D01*
X182818800Y-78637000D02*
X182818800Y-78137000D01*
X174318800Y-71937000D02*
X177318800Y-71937000D01*
X182818800Y-73937000D02*
X178318800Y-73937000D01*
X182818800Y-74537000D02*
X182818800Y-73937000D01*
X178318800Y-77937000D02*
G75*
G03*
X176818800Y-76437000I-1500000J0D01*
G01*
X177818800Y-73437000D02*
G75*
G03*
X178318800Y-73937000I500000J0D01*
G01*
%TO.C,SW21*%
X249157258Y-93319354D02*
X246742444Y-92672307D01*
X245862957Y-90159041D02*
X241516291Y-88994355D01*
X241516291Y-88994355D02*
X241386881Y-89477318D01*
X245681784Y-90835189D02*
X245862957Y-90159041D01*
X245000061Y-95311265D02*
X244741242Y-96277191D01*
X249510812Y-93931727D02*
X249157258Y-93319354D01*
X240455133Y-92954651D02*
X240299841Y-93534207D01*
X248604945Y-97312467D02*
X247992573Y-97666020D01*
X240299841Y-93534207D02*
X244646507Y-94698893D01*
X245094795Y-96889563D02*
X244741242Y-96277191D01*
X247992573Y-97666020D02*
X245094795Y-96889563D01*
X245681783Y-90835189D02*
G75*
G03*
X246742444Y-92672307I1448889J-388229D01*
G01*
X245000060Y-95311265D02*
G75*
G03*
X244646507Y-94698893I-482962J129410D01*
G01*
%TO.C,SW17*%
X214285200Y-59739400D02*
X218785200Y-59739400D01*
X218785200Y-55639400D02*
X218785200Y-55039400D01*
X218785200Y-55039400D02*
X214285200Y-55039400D01*
X210285200Y-57539400D02*
X212785200Y-57539400D01*
X214285200Y-59039400D02*
X214285200Y-59739400D01*
X210285200Y-53039400D02*
X213285200Y-53039400D01*
X209785200Y-57039400D02*
X210285200Y-57539400D01*
X209785200Y-53539400D02*
X210285200Y-53039400D01*
X218785200Y-59739400D02*
X218785200Y-59239400D01*
X213785200Y-54539400D02*
X213785200Y-53539400D01*
X213285200Y-53039400D02*
X213785200Y-53539400D01*
X214285200Y-59039400D02*
G75*
G03*
X212785200Y-57539400I-1500000J0D01*
G01*
X213785200Y-54539400D02*
G75*
G03*
X214285200Y-55039400I500000J0D01*
G01*
%TO.C,SW18*%
X232293800Y-65098800D02*
X236793800Y-65098800D01*
X236793800Y-60398800D02*
X232293800Y-60398800D01*
X232293800Y-64398800D02*
X232293800Y-65098800D01*
X231793800Y-59898800D02*
X231793800Y-58898800D01*
X231293800Y-58398800D02*
X231793800Y-58898800D01*
X227793800Y-58898800D02*
X228293800Y-58398800D01*
X227793800Y-62398800D02*
X228293800Y-62898800D01*
X228293800Y-62898800D02*
X230793800Y-62898800D01*
X236793800Y-65098800D02*
X236793800Y-64598800D01*
X236793800Y-60998800D02*
X236793800Y-60398800D01*
X228293800Y-58398800D02*
X231293800Y-58398800D01*
X231793800Y-59898800D02*
G75*
G03*
X232293800Y-60398800I500000J0D01*
G01*
X232293800Y-64398800D02*
G75*
G03*
X230793800Y-62898800I-1500000J0D01*
G01*
%TO.C,SW4*%
X191302000Y-36083600D02*
X191302000Y-35383600D01*
X186802000Y-39483600D02*
X186802000Y-40083600D01*
X191302000Y-35383600D02*
X186802000Y-35383600D01*
X192302000Y-42083600D02*
X191802000Y-41583600D01*
X195302000Y-37583600D02*
X192802000Y-37583600D01*
X186802000Y-40083600D02*
X191302000Y-40083600D01*
X195802000Y-38083600D02*
X195302000Y-37583600D01*
X195802000Y-41583600D02*
X195302000Y-42083600D01*
X195302000Y-42083600D02*
X192302000Y-42083600D01*
X186802000Y-35383600D02*
X186802000Y-35883600D01*
X191802000Y-40583600D02*
X191802000Y-41583600D01*
X191802000Y-40583600D02*
G75*
G03*
X191302000Y-40083600I-500000J0D01*
G01*
X191302000Y-36083600D02*
G75*
G03*
X192802000Y-37583600I1500000J0D01*
G01*
%TO.C,SW3*%
X178293400Y-44423200D02*
X182793400Y-44423200D01*
X178293400Y-43723200D02*
X178293400Y-44423200D01*
X182793400Y-40323200D02*
X182793400Y-39723200D01*
X182793400Y-44423200D02*
X182793400Y-43923200D01*
X177793400Y-39223200D02*
X177793400Y-38223200D01*
X174293400Y-42223200D02*
X176793400Y-42223200D01*
X177293400Y-37723200D02*
X177793400Y-38223200D01*
X182793400Y-39723200D02*
X178293400Y-39723200D01*
X174293400Y-37723200D02*
X177293400Y-37723200D01*
X173793400Y-38223200D02*
X174293400Y-37723200D01*
X173793400Y-41723200D02*
X174293400Y-42223200D01*
X177793400Y-39223200D02*
G75*
G03*
X178293400Y-39723200I500000J0D01*
G01*
X178293400Y-43723200D02*
G75*
G03*
X176793400Y-42223200I-1500000J0D01*
G01*
%TO.C,SW9*%
X177793400Y-56317400D02*
X177793400Y-55317400D01*
X178293400Y-61517400D02*
X182793400Y-61517400D01*
X174293400Y-54817400D02*
X177293400Y-54817400D01*
X182793400Y-57417400D02*
X182793400Y-56817400D01*
X178293400Y-60817400D02*
X178293400Y-61517400D01*
X174293400Y-59317400D02*
X176793400Y-59317400D01*
X182793400Y-61517400D02*
X182793400Y-61017400D01*
X173793400Y-58817400D02*
X174293400Y-59317400D01*
X182793400Y-56817400D02*
X178293400Y-56817400D01*
X173793400Y-55317400D02*
X174293400Y-54817400D01*
X177293400Y-54817400D02*
X177793400Y-55317400D01*
X177793400Y-56317400D02*
G75*
G03*
X178293400Y-56817400I500000J0D01*
G01*
X178293400Y-60817400D02*
G75*
G03*
X176793400Y-59317400I-1500000J0D01*
G01*
%TO.C,SW14*%
X156310200Y-76462400D02*
X158810200Y-76462400D01*
X159810200Y-73462400D02*
X159810200Y-72462400D01*
X160310200Y-77962400D02*
X160310200Y-78662400D01*
X160310200Y-78662400D02*
X164810200Y-78662400D01*
X164810200Y-78662400D02*
X164810200Y-78162400D01*
X164810200Y-73962400D02*
X160310200Y-73962400D01*
X156310200Y-71962400D02*
X159310200Y-71962400D01*
X164810200Y-74562400D02*
X164810200Y-73962400D01*
X159310200Y-71962400D02*
X159810200Y-72462400D01*
X155810200Y-75962400D02*
X156310200Y-76462400D01*
X155810200Y-72462400D02*
X156310200Y-71962400D01*
X160310200Y-77962400D02*
G75*
G03*
X158810200Y-76462400I-1500000J0D01*
G01*
X159810200Y-73462400D02*
G75*
G03*
X160310200Y-73962400I500000J0D01*
G01*
%TO.C,SW12*%
X227293800Y-50979200D02*
X222793800Y-50979200D01*
X231293800Y-53179200D02*
X228793800Y-53179200D01*
X222793800Y-55079200D02*
X222793800Y-55679200D01*
X222793800Y-55679200D02*
X227293800Y-55679200D01*
X222793800Y-50979200D02*
X222793800Y-51479200D01*
X231793800Y-53679200D02*
X231293800Y-53179200D01*
X227793800Y-56179200D02*
X227793800Y-57179200D01*
X228293800Y-57679200D02*
X227793800Y-57179200D01*
X227293800Y-51679200D02*
X227293800Y-50979200D01*
X231293800Y-57679200D02*
X228293800Y-57679200D01*
X231793800Y-57179200D02*
X231293800Y-57679200D01*
X227293800Y-51679200D02*
G75*
G03*
X228793800Y-53179200I1500000J0D01*
G01*
X227793800Y-56179200D02*
G75*
G03*
X227293800Y-55679200I-500000J0D01*
G01*
%TO.C,SW11*%
X209785200Y-39919800D02*
X210285200Y-40419800D01*
X210285200Y-40419800D02*
X212785200Y-40419800D01*
X214285200Y-41919800D02*
X214285200Y-42619800D01*
X209785200Y-36419800D02*
X210285200Y-35919800D01*
X218785200Y-42619800D02*
X218785200Y-42119800D01*
X213285200Y-35919800D02*
X213785200Y-36419800D01*
X218785200Y-38519800D02*
X218785200Y-37919800D01*
X210285200Y-35919800D02*
X213285200Y-35919800D01*
X213785200Y-37419800D02*
X213785200Y-36419800D01*
X214285200Y-42619800D02*
X218785200Y-42619800D01*
X218785200Y-37919800D02*
X214285200Y-37919800D01*
X213785200Y-37419800D02*
G75*
G03*
X214285200Y-37919800I500000J0D01*
G01*
X214285200Y-41919800D02*
G75*
G03*
X212785200Y-40419800I-1500000J0D01*
G01*
%TO.C,SW8*%
X164784800Y-57442800D02*
X164784800Y-56842800D01*
X164784800Y-61542800D02*
X164784800Y-61042800D01*
X159284800Y-54842800D02*
X159784800Y-55342800D01*
X155784800Y-58842800D02*
X156284800Y-59342800D01*
X160284800Y-61542800D02*
X164784800Y-61542800D01*
X160284800Y-60842800D02*
X160284800Y-61542800D01*
X159784800Y-56342800D02*
X159784800Y-55342800D01*
X156284800Y-59342800D02*
X158784800Y-59342800D01*
X156284800Y-54842800D02*
X159284800Y-54842800D01*
X164784800Y-56842800D02*
X160284800Y-56842800D01*
X155784800Y-55342800D02*
X156284800Y-54842800D01*
X160284800Y-60842800D02*
G75*
G03*
X158784800Y-59342800I-1500000J0D01*
G01*
X159784800Y-56342800D02*
G75*
G03*
X160284800Y-56842800I500000J0D01*
G01*
%TO.C,SW6*%
X232319200Y-30159600D02*
X232319200Y-30859600D01*
X227819200Y-28159600D02*
X228319200Y-28659600D01*
X227819200Y-24659600D02*
X228319200Y-24159600D01*
X236819200Y-26759600D02*
X236819200Y-26159600D01*
X231319200Y-24159600D02*
X231819200Y-24659600D01*
X231819200Y-25659600D02*
X231819200Y-24659600D01*
X228319200Y-24159600D02*
X231319200Y-24159600D01*
X228319200Y-28659600D02*
X230819200Y-28659600D01*
X236819200Y-26159600D02*
X232319200Y-26159600D01*
X236819200Y-30859600D02*
X236819200Y-30359600D01*
X232319200Y-30859600D02*
X236819200Y-30859600D01*
X231819200Y-25659600D02*
G75*
G03*
X232319200Y-26159600I500000J0D01*
G01*
X232319200Y-30159600D02*
G75*
G03*
X230819200Y-28659600I-1500000J0D01*
G01*
%TO.C,SW5*%
X213810600Y-34725600D02*
X213310600Y-35225600D01*
X204810600Y-33225600D02*
X209310600Y-33225600D01*
X213810600Y-31225600D02*
X213310600Y-30725600D01*
X213310600Y-30725600D02*
X210810600Y-30725600D01*
X209310600Y-29225600D02*
X209310600Y-28525600D01*
X210310600Y-35225600D02*
X209810600Y-34725600D01*
X209310600Y-28525600D02*
X204810600Y-28525600D01*
X209810600Y-33725600D02*
X209810600Y-34725600D01*
X213310600Y-35225600D02*
X210310600Y-35225600D01*
X204810600Y-28525600D02*
X204810600Y-29025600D01*
X204810600Y-32625600D02*
X204810600Y-33225600D01*
X209310600Y-29225600D02*
G75*
G03*
X210810600Y-30725600I1500000J0D01*
G01*
X209810600Y-33725600D02*
G75*
G03*
X209310600Y-33225600I-500000J0D01*
G01*
%TO.C,SW2*%
X155784800Y-38223200D02*
X156284800Y-37723200D01*
X164784800Y-39723200D02*
X160284800Y-39723200D01*
X164784800Y-40323200D02*
X164784800Y-39723200D01*
X164784800Y-44423200D02*
X164784800Y-43923200D01*
X160284800Y-43723200D02*
X160284800Y-44423200D01*
X160284800Y-44423200D02*
X164784800Y-44423200D01*
X155784800Y-41723200D02*
X156284800Y-42223200D01*
X156284800Y-37723200D02*
X159284800Y-37723200D01*
X156284800Y-42223200D02*
X158784800Y-42223200D01*
X159784800Y-39223200D02*
X159784800Y-38223200D01*
X159284800Y-37723200D02*
X159784800Y-38223200D01*
X160284800Y-43723200D02*
G75*
G03*
X158784800Y-42223200I-1500000J0D01*
G01*
X159784800Y-39223200D02*
G75*
G03*
X160284800Y-39723200I500000J0D01*
G01*
%TO.C,RSW1*%
X272592909Y-87180543D02*
X272736303Y-86975755D01*
X275643697Y-93284245D02*
X270728785Y-89842787D01*
X270728785Y-89842787D02*
X270872179Y-89637999D01*
X275787091Y-93079457D02*
X275643697Y-93284245D01*
X277651215Y-90417213D02*
X277507821Y-90622001D01*
X272736303Y-86975755D02*
X277651215Y-90417213D01*
%TO.C,SW10*%
X192276600Y-42803200D02*
X195276600Y-42803200D01*
X196276600Y-49503200D02*
X200776600Y-49503200D01*
X196276600Y-48803200D02*
X196276600Y-49503200D01*
X195276600Y-42803200D02*
X195776600Y-43303200D01*
X200776600Y-49503200D02*
X200776600Y-49003200D01*
X191776600Y-43303200D02*
X192276600Y-42803200D01*
X192276600Y-47303200D02*
X194776600Y-47303200D01*
X200776600Y-44803200D02*
X196276600Y-44803200D01*
X195776600Y-44303200D02*
X195776600Y-43303200D01*
X200776600Y-45403200D02*
X200776600Y-44803200D01*
X191776600Y-46803200D02*
X192276600Y-47303200D01*
X196276600Y-48803200D02*
G75*
G03*
X194776600Y-47303200I-1500000J0D01*
G01*
X195776600Y-44303200D02*
G75*
G03*
X196276600Y-44803200I500000J0D01*
G01*
D13*
%TO.C,REF\u002A\u002A*%
X224159500Y-63256000D02*
G75*
G03*
X228310045Y-62222135I-2857506J20320019D01*
G01*
X221302000Y-32141000D02*
G75*
G03*
X220173615Y-32200136I-6J-10794921D01*
G01*
X200981999Y-45793500D02*
G75*
G03*
X202015865Y-49944046I20320001J2857500D01*
G01*
X222430385Y-32200137D02*
G75*
G03*
X221302000Y-32141000I-1128385J-10735763D01*
G01*
X218444500Y-22615999D02*
G75*
G03*
X214293954Y-23649865I2857500J-20320001D01*
G01*
X221302000Y-53731001D02*
G75*
G03*
X222430385Y-53671864I0J10794901D01*
G01*
X240588134Y-49944048D02*
G75*
G03*
X241622000Y-45793500I-19286134J7008048D01*
G01*
X220173615Y-53671864D02*
G75*
G03*
X221302000Y-53731000I1128379J10735785D01*
G01*
X202015865Y-35927956D02*
G75*
G03*
X200982000Y-40078500I19286255J-7008074D01*
G01*
X214293955Y-62222135D02*
G75*
G03*
X218444500Y-63256000I7008045J19286135D01*
G01*
X241622000Y-40078500D02*
G75*
G03*
X240588134Y-35927952I-20320000J-2857500D01*
G01*
X228310049Y-23649867D02*
G75*
G03*
X224159500Y-22616000I-7008049J-19286133D01*
G01*
G36*
X221179717Y-57366364D02*
G01*
X221177104Y-57394759D01*
X221168235Y-57441209D01*
X221130682Y-57568369D01*
X221075516Y-57694232D01*
X221005824Y-57812414D01*
X220924693Y-57916534D01*
X220916299Y-57925700D01*
X220807987Y-58026026D01*
X220685567Y-58110023D01*
X220552394Y-58176002D01*
X220411826Y-58222277D01*
X220267218Y-58247158D01*
X220166972Y-58251641D01*
X220018551Y-58240242D01*
X219875132Y-58207989D01*
X219738896Y-58155966D01*
X219612021Y-58085252D01*
X219496688Y-57996930D01*
X219395075Y-57892081D01*
X219309363Y-57771788D01*
X219252108Y-57664869D01*
X219198963Y-57525633D01*
X219167607Y-57381069D01*
X219161103Y-57284705D01*
X219656342Y-57284705D01*
X219656624Y-57289995D01*
X219660942Y-57345298D01*
X219668299Y-57387590D01*
X219680944Y-57426198D01*
X219701125Y-57470444D01*
X219722613Y-57508771D01*
X219764098Y-57567565D01*
X219812155Y-57623021D01*
X219861478Y-57669215D01*
X219906764Y-57700219D01*
X219922931Y-57707995D01*
X219963836Y-57725355D01*
X220006833Y-57741441D01*
X220079660Y-57760729D01*
X220183361Y-57769250D01*
X220284902Y-57756456D01*
X220381688Y-57723324D01*
X220471120Y-57670831D01*
X220550601Y-57599954D01*
X220617535Y-57511671D01*
X220646189Y-57457526D01*
X220676621Y-57363507D01*
X220687193Y-57265958D01*
X220678887Y-57168010D01*
X220652685Y-57072797D01*
X220609572Y-56983450D01*
X220550529Y-56903104D01*
X220476539Y-56834890D01*
X220388587Y-56781941D01*
X220374584Y-56775655D01*
X220276238Y-56745030D01*
X220174886Y-56734848D01*
X220073982Y-56744168D01*
X219976983Y-56772046D01*
X219887347Y-56817542D01*
X219808530Y-56879712D01*
X219743988Y-56957616D01*
X219726218Y-56986145D01*
X219682566Y-57079568D01*
X219659710Y-57177460D01*
X219656342Y-57284705D01*
X219161103Y-57284705D01*
X219157316Y-57228591D01*
X219160877Y-57138921D01*
X219183558Y-56988642D01*
X219226310Y-56846673D01*
X219288120Y-56714688D01*
X219367978Y-56594363D01*
X219464872Y-56487374D01*
X219577792Y-56395394D01*
X219705725Y-56320101D01*
X219775576Y-56287462D01*
X219850714Y-56258245D01*
X219922366Y-56238753D01*
X219998849Y-56226816D01*
X220088484Y-56220264D01*
X220106296Y-56219596D01*
X220245497Y-56226034D01*
X220375880Y-56253710D01*
X220498096Y-56302814D01*
X220612793Y-56373536D01*
X220636927Y-56390738D01*
X220661773Y-56407081D01*
X220674204Y-56413395D01*
X220675112Y-56409365D01*
X220676561Y-56385558D01*
X220677888Y-56342435D01*
X220679057Y-56282360D01*
X220680033Y-56207698D01*
X220680783Y-56120812D01*
X220681272Y-56024067D01*
X220681464Y-55919827D01*
X220681612Y-55426259D01*
X221189316Y-55936285D01*
X221189229Y-56627999D01*
X221189226Y-56639735D01*
X221188965Y-56790209D01*
X221188301Y-56927481D01*
X221187257Y-57050137D01*
X221185854Y-57156766D01*
X221184115Y-57245955D01*
X221183531Y-57265958D01*
X221182062Y-57316292D01*
X221179717Y-57366364D01*
G37*
D14*
X221179717Y-57366364D02*
X221177104Y-57394759D01*
X221168235Y-57441209D01*
X221130682Y-57568369D01*
X221075516Y-57694232D01*
X221005824Y-57812414D01*
X220924693Y-57916534D01*
X220916299Y-57925700D01*
X220807987Y-58026026D01*
X220685567Y-58110023D01*
X220552394Y-58176002D01*
X220411826Y-58222277D01*
X220267218Y-58247158D01*
X220166972Y-58251641D01*
X220018551Y-58240242D01*
X219875132Y-58207989D01*
X219738896Y-58155966D01*
X219612021Y-58085252D01*
X219496688Y-57996930D01*
X219395075Y-57892081D01*
X219309363Y-57771788D01*
X219252108Y-57664869D01*
X219198963Y-57525633D01*
X219167607Y-57381069D01*
X219161103Y-57284705D01*
X219656342Y-57284705D01*
X219656624Y-57289995D01*
X219660942Y-57345298D01*
X219668299Y-57387590D01*
X219680944Y-57426198D01*
X219701125Y-57470444D01*
X219722613Y-57508771D01*
X219764098Y-57567565D01*
X219812155Y-57623021D01*
X219861478Y-57669215D01*
X219906764Y-57700219D01*
X219922931Y-57707995D01*
X219963836Y-57725355D01*
X220006833Y-57741441D01*
X220079660Y-57760729D01*
X220183361Y-57769250D01*
X220284902Y-57756456D01*
X220381688Y-57723324D01*
X220471120Y-57670831D01*
X220550601Y-57599954D01*
X220617535Y-57511671D01*
X220646189Y-57457526D01*
X220676621Y-57363507D01*
X220687193Y-57265958D01*
X220678887Y-57168010D01*
X220652685Y-57072797D01*
X220609572Y-56983450D01*
X220550529Y-56903104D01*
X220476539Y-56834890D01*
X220388587Y-56781941D01*
X220374584Y-56775655D01*
X220276238Y-56745030D01*
X220174886Y-56734848D01*
X220073982Y-56744168D01*
X219976983Y-56772046D01*
X219887347Y-56817542D01*
X219808530Y-56879712D01*
X219743988Y-56957616D01*
X219726218Y-56986145D01*
X219682566Y-57079568D01*
X219659710Y-57177460D01*
X219656342Y-57284705D01*
X219161103Y-57284705D01*
X219157316Y-57228591D01*
X219160877Y-57138921D01*
X219183558Y-56988642D01*
X219226310Y-56846673D01*
X219288120Y-56714688D01*
X219367978Y-56594363D01*
X219464872Y-56487374D01*
X219577792Y-56395394D01*
X219705725Y-56320101D01*
X219775576Y-56287462D01*
X219850714Y-56258245D01*
X219922366Y-56238753D01*
X219998849Y-56226816D01*
X220088484Y-56220264D01*
X220106296Y-56219596D01*
X220245497Y-56226034D01*
X220375880Y-56253710D01*
X220498096Y-56302814D01*
X220612793Y-56373536D01*
X220636927Y-56390738D01*
X220661773Y-56407081D01*
X220674204Y-56413395D01*
X220675112Y-56409365D01*
X220676561Y-56385558D01*
X220677888Y-56342435D01*
X220679057Y-56282360D01*
X220680033Y-56207698D01*
X220680783Y-56120812D01*
X220681272Y-56024067D01*
X220681464Y-55919827D01*
X220681612Y-55426259D01*
X221189316Y-55936285D01*
X221189229Y-56627999D01*
X221189226Y-56639735D01*
X221188965Y-56790209D01*
X221188301Y-56927481D01*
X221187257Y-57050137D01*
X221185854Y-57156766D01*
X221184115Y-57245955D01*
X221183531Y-57265958D01*
X221182062Y-57316292D01*
X221179717Y-57366364D01*
G36*
X223382952Y-58162356D02*
G01*
X223292108Y-58070080D01*
X223278327Y-58056084D01*
X223246466Y-58023731D01*
X223200519Y-57977077D01*
X223141703Y-57917359D01*
X223071236Y-57845814D01*
X222990337Y-57763677D01*
X222900222Y-57672184D01*
X222802110Y-57572573D01*
X222697218Y-57466080D01*
X222586764Y-57353940D01*
X222471965Y-57237391D01*
X222354040Y-57117668D01*
X221506816Y-56257531D01*
X221795184Y-56254438D01*
X222083552Y-56251344D01*
X222886498Y-57054044D01*
X222886498Y-55420486D01*
X223382952Y-55420486D01*
X223382952Y-58162356D01*
G37*
X223382952Y-58162356D02*
X223292108Y-58070080D01*
X223278327Y-58056084D01*
X223246466Y-58023731D01*
X223200519Y-57977077D01*
X223141703Y-57917359D01*
X223071236Y-57845814D01*
X222990337Y-57763677D01*
X222900222Y-57672184D01*
X222802110Y-57572573D01*
X222697218Y-57466080D01*
X222586764Y-57353940D01*
X222471965Y-57237391D01*
X222354040Y-57117668D01*
X221506816Y-56257531D01*
X221795184Y-56254438D01*
X222083552Y-56251344D01*
X222886498Y-57054044D01*
X222886498Y-55420486D01*
X223382952Y-55420486D01*
X223382952Y-58162356D01*
G36*
X222089184Y-57452669D02*
G01*
X222101413Y-57462717D01*
X222126895Y-57486337D01*
X222163042Y-57521050D01*
X222207266Y-57564375D01*
X222256979Y-57613830D01*
X222418014Y-57775174D01*
X222384132Y-57812989D01*
X222380955Y-57816481D01*
X222359087Y-57839690D01*
X222324741Y-57875436D01*
X222280925Y-57920616D01*
X222230642Y-57972129D01*
X222176900Y-58026872D01*
X222003550Y-58202941D01*
X221383536Y-58202941D01*
X221411837Y-58169306D01*
X221414130Y-58166615D01*
X221434798Y-58143386D01*
X221467556Y-58107546D01*
X221510416Y-58061201D01*
X221561388Y-58006458D01*
X221618484Y-57945423D01*
X221679714Y-57880204D01*
X221743089Y-57812906D01*
X221806622Y-57745636D01*
X221868321Y-57680501D01*
X221926200Y-57619607D01*
X221978267Y-57565061D01*
X222022536Y-57518969D01*
X222057015Y-57483438D01*
X222079718Y-57460575D01*
X222088653Y-57452486D01*
X222089184Y-57452669D01*
G37*
X222089184Y-57452669D02*
X222101413Y-57462717D01*
X222126895Y-57486337D01*
X222163042Y-57521050D01*
X222207266Y-57564375D01*
X222256979Y-57613830D01*
X222418014Y-57775174D01*
X222384132Y-57812989D01*
X222380955Y-57816481D01*
X222359087Y-57839690D01*
X222324741Y-57875436D01*
X222280925Y-57920616D01*
X222230642Y-57972129D01*
X222176900Y-58026872D01*
X222003550Y-58202941D01*
X221383536Y-58202941D01*
X221411837Y-58169306D01*
X221414130Y-58166615D01*
X221434798Y-58143386D01*
X221467556Y-58107546D01*
X221510416Y-58061201D01*
X221561388Y-58006458D01*
X221618484Y-57945423D01*
X221679714Y-57880204D01*
X221743089Y-57812906D01*
X221806622Y-57745636D01*
X221868321Y-57680501D01*
X221926200Y-57619607D01*
X221978267Y-57565061D01*
X222022536Y-57518969D01*
X222057015Y-57483438D01*
X222079718Y-57460575D01*
X222088653Y-57452486D01*
X222089184Y-57452669D01*
D11*
%TO.C,SW17_r1*%
X82378800Y-53412400D02*
X82878800Y-52912400D01*
X86878800Y-58912400D02*
X86878800Y-59612400D01*
X91378800Y-54912400D02*
X86878800Y-54912400D01*
X85878800Y-52912400D02*
X86378800Y-53412400D01*
X82878800Y-57412400D02*
X85378800Y-57412400D01*
X86378800Y-54412400D02*
X86378800Y-53412400D01*
X91378800Y-59612400D02*
X91378800Y-59112400D01*
X91378800Y-55512400D02*
X91378800Y-54912400D01*
X86878800Y-59612400D02*
X91378800Y-59612400D01*
X82878800Y-52912400D02*
X85878800Y-52912400D01*
X82378800Y-56912400D02*
X82878800Y-57412400D01*
X86878800Y-58912400D02*
G75*
G03*
X85378800Y-57412400I-1500000J0D01*
G01*
X86378800Y-54412400D02*
G75*
G03*
X86878800Y-54912400I500000J0D01*
G01*
%TO.C,SW11_r1*%
X85853400Y-52319800D02*
X82853400Y-52319800D01*
X77353400Y-49719800D02*
X77353400Y-50319800D01*
X77353400Y-50319800D02*
X81853400Y-50319800D01*
X81853400Y-46319800D02*
X81853400Y-45619800D01*
X81853400Y-45619800D02*
X77353400Y-45619800D01*
X86353400Y-48319800D02*
X85853400Y-47819800D01*
X85853400Y-47819800D02*
X83353400Y-47819800D01*
X82853400Y-52319800D02*
X82353400Y-51819800D01*
X82353400Y-50819800D02*
X82353400Y-51819800D01*
X86353400Y-51819800D02*
X85853400Y-52319800D01*
X77353400Y-45619800D02*
X77353400Y-46119800D01*
X82353400Y-50819800D02*
G75*
G03*
X81853400Y-50319800I-500000J0D01*
G01*
X81853400Y-46319800D02*
G75*
G03*
X83353400Y-47819800I1500000J0D01*
G01*
%TO.C,SW15_r1*%
X127396000Y-74359200D02*
X127396000Y-73759200D01*
X121896000Y-71759200D02*
X122396000Y-72259200D01*
X118896000Y-71759200D02*
X121896000Y-71759200D01*
X118396000Y-72259200D02*
X118896000Y-71759200D01*
X127396000Y-73759200D02*
X122896000Y-73759200D01*
X122896000Y-77759200D02*
X122896000Y-78459200D01*
X127396000Y-78459200D02*
X127396000Y-77959200D01*
X122396000Y-73259200D02*
X122396000Y-72259200D01*
X118396000Y-75759200D02*
X118896000Y-76259200D01*
X122896000Y-78459200D02*
X127396000Y-78459200D01*
X118896000Y-76259200D02*
X121396000Y-76259200D01*
X122896000Y-77759200D02*
G75*
G03*
X121396000Y-76259200I-1500000J0D01*
G01*
X122396000Y-73259200D02*
G75*
G03*
X122896000Y-73759200I500000J0D01*
G01*
%TO.C,SW18_r1*%
X59344800Y-72621000D02*
X63844800Y-72621000D01*
X68344800Y-74121000D02*
X67844800Y-74621000D01*
X64344800Y-73121000D02*
X64344800Y-74121000D01*
X68344800Y-70621000D02*
X67844800Y-70121000D01*
X67844800Y-74621000D02*
X64844800Y-74621000D01*
X64844800Y-74621000D02*
X64344800Y-74121000D01*
X59344800Y-67921000D02*
X59344800Y-68421000D01*
X63844800Y-68621000D02*
X63844800Y-67921000D01*
X59344800Y-72021000D02*
X59344800Y-72621000D01*
X67844800Y-70121000D02*
X65344800Y-70121000D01*
X63844800Y-67921000D02*
X59344800Y-67921000D01*
X64344800Y-73121000D02*
G75*
G03*
X63844800Y-72621000I-500000J0D01*
G01*
X63844800Y-68621000D02*
G75*
G03*
X65344800Y-70121000I1500000J0D01*
G01*
%TO.C,SW6_r1*%
X68844800Y-30159600D02*
X68844800Y-30859600D01*
X64344800Y-28159600D02*
X64844800Y-28659600D01*
X73344800Y-26159600D02*
X68844800Y-26159600D01*
X68844800Y-30859600D02*
X73344800Y-30859600D01*
X64844800Y-28659600D02*
X67344800Y-28659600D01*
X64344800Y-24659600D02*
X64844800Y-24159600D01*
X73344800Y-30859600D02*
X73344800Y-30359600D01*
X73344800Y-26759600D02*
X73344800Y-26159600D01*
X64844800Y-24159600D02*
X67844800Y-24159600D01*
X68344800Y-25659600D02*
X68344800Y-24659600D01*
X67844800Y-24159600D02*
X68344800Y-24659600D01*
X68844800Y-30159600D02*
G75*
G03*
X67344800Y-28659600I-1500000J0D01*
G01*
X68344800Y-25659600D02*
G75*
G03*
X68844800Y-26159600I500000J0D01*
G01*
%TO.C,SW5_r1*%
X85878800Y-18901800D02*
X86378800Y-19401800D01*
X82378800Y-22901800D02*
X82878800Y-23401800D01*
X86878800Y-25601800D02*
X91378800Y-25601800D01*
X91378800Y-20901800D02*
X86878800Y-20901800D01*
X82378800Y-19401800D02*
X82878800Y-18901800D01*
X91378800Y-21501800D02*
X91378800Y-20901800D01*
X82878800Y-18901800D02*
X85878800Y-18901800D01*
X86878800Y-24901800D02*
X86878800Y-25601800D01*
X86378800Y-20401800D02*
X86378800Y-19401800D01*
X91378800Y-25601800D02*
X91378800Y-25101800D01*
X82878800Y-23401800D02*
X85378800Y-23401800D01*
X86378800Y-20401800D02*
G75*
G03*
X86878800Y-20901800I500000J0D01*
G01*
X86878800Y-24901800D02*
G75*
G03*
X85378800Y-23401800I-1500000J0D01*
G01*
%TO.C,SW2_r1*%
X131404600Y-52174000D02*
X135904600Y-52174000D01*
X139904600Y-54174000D02*
X136904600Y-54174000D01*
X131404600Y-47474000D02*
X131404600Y-47974000D01*
X131404600Y-51574000D02*
X131404600Y-52174000D01*
X140404600Y-53674000D02*
X139904600Y-54174000D01*
X135904600Y-47474000D02*
X131404600Y-47474000D01*
X135904600Y-48174000D02*
X135904600Y-47474000D01*
X140404600Y-50174000D02*
X139904600Y-49674000D01*
X136404600Y-52674000D02*
X136404600Y-53674000D01*
X139904600Y-49674000D02*
X137404600Y-49674000D01*
X136904600Y-54174000D02*
X136404600Y-53674000D01*
X136404600Y-52674000D02*
G75*
G03*
X135904600Y-52174000I-500000J0D01*
G01*
X135904600Y-48174000D02*
G75*
G03*
X137404600Y-49674000I1500000J0D01*
G01*
%TO.C,SW16_r1*%
X104912800Y-65795800D02*
X104912800Y-66495800D01*
X104912800Y-66495800D02*
X109412800Y-66495800D01*
X100412800Y-60295800D02*
X100912800Y-59795800D01*
X109412800Y-62395800D02*
X109412800Y-61795800D01*
X109412800Y-61795800D02*
X104912800Y-61795800D01*
X104412800Y-61295800D02*
X104412800Y-60295800D01*
X100912800Y-59795800D02*
X103912800Y-59795800D01*
X103912800Y-59795800D02*
X104412800Y-60295800D01*
X109412800Y-66495800D02*
X109412800Y-65995800D01*
X100912800Y-64295800D02*
X103412800Y-64295800D01*
X100412800Y-63795800D02*
X100912800Y-64295800D01*
X104912800Y-65795800D02*
G75*
G03*
X103412800Y-64295800I-1500000J0D01*
G01*
X104412800Y-61295800D02*
G75*
G03*
X104912800Y-61795800I500000J0D01*
G01*
%TO.C,SW4_r1*%
X104887400Y-32434400D02*
X109387400Y-32434400D01*
X109387400Y-32434400D02*
X109387400Y-31934400D01*
X100887400Y-30234400D02*
X103387400Y-30234400D01*
X100887400Y-25734400D02*
X103887400Y-25734400D01*
X104387400Y-27234400D02*
X104387400Y-26234400D01*
X104887400Y-31734400D02*
X104887400Y-32434400D01*
X109387400Y-27734400D02*
X104887400Y-27734400D01*
X109387400Y-28334400D02*
X109387400Y-27734400D01*
X103887400Y-25734400D02*
X104387400Y-26234400D01*
X100387400Y-26234400D02*
X100887400Y-25734400D01*
X100387400Y-29734400D02*
X100887400Y-30234400D01*
X104387400Y-27234400D02*
G75*
G03*
X104887400Y-27734400I500000J0D01*
G01*
X104887400Y-31734400D02*
G75*
G03*
X103387400Y-30234400I-1500000J0D01*
G01*
%TO.C,SW13_r1*%
X50836200Y-49743000D02*
X50836200Y-50443000D01*
X55336200Y-46343000D02*
X55336200Y-45743000D01*
X55336200Y-45743000D02*
X50836200Y-45743000D01*
X50836200Y-50443000D02*
X55336200Y-50443000D01*
X55336200Y-50443000D02*
X55336200Y-49943000D01*
X49836200Y-43743000D02*
X50336200Y-44243000D01*
X50336200Y-45243000D02*
X50336200Y-44243000D01*
X46336200Y-44243000D02*
X46836200Y-43743000D01*
X46836200Y-48243000D02*
X49336200Y-48243000D01*
X46336200Y-47743000D02*
X46836200Y-48243000D01*
X46836200Y-43743000D02*
X49836200Y-43743000D01*
X50836200Y-49743000D02*
G75*
G03*
X49336200Y-48243000I-1500000J0D01*
G01*
X50336200Y-45243000D02*
G75*
G03*
X50836200Y-45743000I500000J0D01*
G01*
%TO.C,SW12_r1*%
X67844800Y-57628400D02*
X64844800Y-57628400D01*
X63844800Y-51628400D02*
X63844800Y-50928400D01*
X64344800Y-56128400D02*
X64344800Y-57128400D01*
X63844800Y-50928400D02*
X59344800Y-50928400D01*
X59344800Y-55028400D02*
X59344800Y-55628400D01*
X67844800Y-53128400D02*
X65344800Y-53128400D01*
X64844800Y-57628400D02*
X64344800Y-57128400D01*
X68344800Y-53628400D02*
X67844800Y-53128400D01*
X68344800Y-57128400D02*
X67844800Y-57628400D01*
X59344800Y-55628400D02*
X63844800Y-55628400D01*
X59344800Y-50928400D02*
X59344800Y-51428400D01*
X63844800Y-51628400D02*
G75*
G03*
X65344800Y-53128400I1500000J0D01*
G01*
X64344800Y-56128400D02*
G75*
G03*
X63844800Y-55628400I-500000J0D01*
G01*
%TO.C,SW3_r1*%
X127396000Y-44474000D02*
X127396000Y-43974000D01*
X127396000Y-39774000D02*
X122896000Y-39774000D01*
X118896000Y-42274000D02*
X121396000Y-42274000D01*
X122896000Y-44474000D02*
X127396000Y-44474000D01*
X118896000Y-37774000D02*
X121896000Y-37774000D01*
X118396000Y-38274000D02*
X118896000Y-37774000D01*
X122896000Y-43774000D02*
X122896000Y-44474000D01*
X121896000Y-37774000D02*
X122396000Y-38274000D01*
X118396000Y-41774000D02*
X118896000Y-42274000D01*
X122396000Y-39274000D02*
X122396000Y-38274000D01*
X127396000Y-40374000D02*
X127396000Y-39774000D01*
X122896000Y-43774000D02*
G75*
G03*
X121396000Y-42274000I-1500000J0D01*
G01*
X122396000Y-39274000D02*
G75*
G03*
X122896000Y-39774000I500000J0D01*
G01*
%TO.C,SW8_r1*%
X140379200Y-70666600D02*
X139879200Y-71166600D01*
X139879200Y-71166600D02*
X136879200Y-71166600D01*
X131379200Y-69166600D02*
X135879200Y-69166600D01*
X131379200Y-68566600D02*
X131379200Y-69166600D01*
X136379200Y-69666600D02*
X136379200Y-70666600D01*
X135879200Y-64466600D02*
X131379200Y-64466600D01*
X136879200Y-71166600D02*
X136379200Y-70666600D01*
X139879200Y-66666600D02*
X137379200Y-66666600D01*
X140379200Y-67166600D02*
X139879200Y-66666600D01*
X131379200Y-64466600D02*
X131379200Y-64966600D01*
X135879200Y-65166600D02*
X135879200Y-64466600D01*
X135879200Y-65166600D02*
G75*
G03*
X137379200Y-66666600I1500000J0D01*
G01*
X136379200Y-69666600D02*
G75*
G03*
X135879200Y-69166600I-500000J0D01*
G01*
%TO.C,SW21_r1*%
X50183919Y-92339697D02*
X47769105Y-92986745D01*
X45931987Y-91926084D02*
X45750814Y-91249936D01*
X51702158Y-96073991D02*
X51348605Y-96686363D01*
X50796292Y-92693250D02*
X50183919Y-92339697D01*
X42465306Y-96374918D02*
X42620597Y-96954473D01*
X47579636Y-96143341D02*
X47838455Y-97109267D01*
X41404148Y-92414622D02*
X41533557Y-92897585D01*
X42620597Y-96954473D02*
X46967264Y-95789788D01*
X48450827Y-97462820D02*
X47838455Y-97109267D01*
X45750814Y-91249936D02*
X41404148Y-92414622D01*
X51348605Y-96686363D02*
X48450827Y-97462820D01*
X47579636Y-96143341D02*
G75*
G03*
X46967264Y-95789788I-482963J-129410D01*
G01*
X45931987Y-91926084D02*
G75*
G03*
X47769105Y-92986745I1448889J388228D01*
G01*
%TO.C,SW9_r1*%
X127396000Y-61466600D02*
X127396000Y-60966600D01*
X127396000Y-56766600D02*
X122896000Y-56766600D01*
X118896000Y-54766600D02*
X121896000Y-54766600D01*
X121896000Y-54766600D02*
X122396000Y-55266600D01*
X127396000Y-57366600D02*
X127396000Y-56766600D01*
X118396000Y-58766600D02*
X118896000Y-59266600D01*
X118396000Y-55266600D02*
X118896000Y-54766600D01*
X118896000Y-59266600D02*
X121396000Y-59266600D01*
X122896000Y-61466600D02*
X127396000Y-61466600D01*
X122396000Y-56266600D02*
X122396000Y-55266600D01*
X122896000Y-60766600D02*
X122896000Y-61466600D01*
X122896000Y-60766600D02*
G75*
G03*
X121396000Y-59266600I-1500000J0D01*
G01*
X122396000Y-56266600D02*
G75*
G03*
X122896000Y-56766600I500000J0D01*
G01*
%TO.C,SW20_r1*%
X65572000Y-88610800D02*
X65572000Y-87910800D01*
X66572000Y-94610800D02*
X66072000Y-94110800D01*
X70072000Y-90610800D02*
X69572000Y-90110800D01*
X61072000Y-92610800D02*
X65572000Y-92610800D01*
X69572000Y-90110800D02*
X67072000Y-90110800D01*
X70072000Y-94110800D02*
X69572000Y-94610800D01*
X69572000Y-94610800D02*
X66572000Y-94610800D01*
X61072000Y-87910800D02*
X61072000Y-88410800D01*
X61072000Y-92010800D02*
X61072000Y-92610800D01*
X66072000Y-93110800D02*
X66072000Y-94110800D01*
X65572000Y-87910800D02*
X61072000Y-87910800D01*
X65572000Y-88610800D02*
G75*
G03*
X67072000Y-90110800I1500000J0D01*
G01*
X66072000Y-93110800D02*
G75*
G03*
X65572000Y-92610800I-500000J0D01*
G01*
%TO.C,SW7_r1*%
X55336200Y-33450400D02*
X55336200Y-32950400D01*
X50836200Y-32750400D02*
X50836200Y-33450400D01*
X55336200Y-29350400D02*
X55336200Y-28750400D01*
X46336200Y-27250400D02*
X46836200Y-26750400D01*
X49836200Y-26750400D02*
X50336200Y-27250400D01*
X50836200Y-33450400D02*
X55336200Y-33450400D01*
X46836200Y-26750400D02*
X49836200Y-26750400D01*
X55336200Y-28750400D02*
X50836200Y-28750400D01*
X46336200Y-30750400D02*
X46836200Y-31250400D01*
X50336200Y-28250400D02*
X50336200Y-27250400D01*
X46836200Y-31250400D02*
X49336200Y-31250400D01*
X50336200Y-28250400D02*
G75*
G03*
X50836200Y-28750400I500000J0D01*
G01*
X50836200Y-32750400D02*
G75*
G03*
X49336200Y-31250400I-1500000J0D01*
G01*
D13*
%TO.C,REF\u002A\u002A*%
X76485785Y-32142537D02*
G75*
G03*
X75357400Y-32083400I-1128385J-10735763D01*
G01*
X55037399Y-45735900D02*
G75*
G03*
X56071265Y-49886446I20320001J2857500D01*
G01*
X75357400Y-32083400D02*
G75*
G03*
X74229015Y-32142536I-6J-10794921D01*
G01*
X82365449Y-23592267D02*
G75*
G03*
X78214900Y-22558400I-7008049J-19286133D01*
G01*
X72499900Y-22558399D02*
G75*
G03*
X68349354Y-23592265I2857500J-20320001D01*
G01*
X95677400Y-40020900D02*
G75*
G03*
X94643534Y-35870352I-20320000J-2857500D01*
G01*
X78214900Y-63198400D02*
G75*
G03*
X82365445Y-62164535I-2857506J20320019D01*
G01*
X56071265Y-35870356D02*
G75*
G03*
X55037400Y-40020900I19286255J-7008074D01*
G01*
X74229015Y-53614264D02*
G75*
G03*
X75357400Y-53673400I1128379J10735785D01*
G01*
X68349355Y-62164535D02*
G75*
G03*
X72499900Y-63198400I7008045J19286135D01*
G01*
X75357400Y-53673401D02*
G75*
G03*
X76485785Y-53614264I0J10794901D01*
G01*
X94643534Y-49886448D02*
G75*
G03*
X95677400Y-45735900I-19286134J7008048D01*
G01*
G36*
X77438352Y-58104756D02*
G01*
X77347508Y-58012480D01*
X77333727Y-57998484D01*
X77301866Y-57966131D01*
X77255919Y-57919477D01*
X77197103Y-57859759D01*
X77126636Y-57788214D01*
X77045737Y-57706077D01*
X76955622Y-57614584D01*
X76857510Y-57514973D01*
X76752618Y-57408480D01*
X76642164Y-57296340D01*
X76527365Y-57179791D01*
X76409440Y-57060068D01*
X75562216Y-56199931D01*
X75850584Y-56196838D01*
X76138952Y-56193744D01*
X76941898Y-56996444D01*
X76941898Y-55362886D01*
X77438352Y-55362886D01*
X77438352Y-58104756D01*
G37*
D14*
X77438352Y-58104756D02*
X77347508Y-58012480D01*
X77333727Y-57998484D01*
X77301866Y-57966131D01*
X77255919Y-57919477D01*
X77197103Y-57859759D01*
X77126636Y-57788214D01*
X77045737Y-57706077D01*
X76955622Y-57614584D01*
X76857510Y-57514973D01*
X76752618Y-57408480D01*
X76642164Y-57296340D01*
X76527365Y-57179791D01*
X76409440Y-57060068D01*
X75562216Y-56199931D01*
X75850584Y-56196838D01*
X76138952Y-56193744D01*
X76941898Y-56996444D01*
X76941898Y-55362886D01*
X77438352Y-55362886D01*
X77438352Y-58104756D01*
G36*
X76144584Y-57395069D02*
G01*
X76156813Y-57405117D01*
X76182295Y-57428737D01*
X76218442Y-57463450D01*
X76262666Y-57506775D01*
X76312379Y-57556230D01*
X76473414Y-57717574D01*
X76439532Y-57755389D01*
X76436355Y-57758881D01*
X76414487Y-57782090D01*
X76380141Y-57817836D01*
X76336325Y-57863016D01*
X76286042Y-57914529D01*
X76232300Y-57969272D01*
X76058950Y-58145341D01*
X75438936Y-58145341D01*
X75467237Y-58111706D01*
X75469530Y-58109015D01*
X75490198Y-58085786D01*
X75522956Y-58049946D01*
X75565816Y-58003601D01*
X75616788Y-57948858D01*
X75673884Y-57887823D01*
X75735114Y-57822604D01*
X75798489Y-57755306D01*
X75862022Y-57688036D01*
X75923721Y-57622901D01*
X75981600Y-57562007D01*
X76033667Y-57507461D01*
X76077936Y-57461369D01*
X76112415Y-57425838D01*
X76135118Y-57402975D01*
X76144053Y-57394886D01*
X76144584Y-57395069D01*
G37*
X76144584Y-57395069D02*
X76156813Y-57405117D01*
X76182295Y-57428737D01*
X76218442Y-57463450D01*
X76262666Y-57506775D01*
X76312379Y-57556230D01*
X76473414Y-57717574D01*
X76439532Y-57755389D01*
X76436355Y-57758881D01*
X76414487Y-57782090D01*
X76380141Y-57817836D01*
X76336325Y-57863016D01*
X76286042Y-57914529D01*
X76232300Y-57969272D01*
X76058950Y-58145341D01*
X75438936Y-58145341D01*
X75467237Y-58111706D01*
X75469530Y-58109015D01*
X75490198Y-58085786D01*
X75522956Y-58049946D01*
X75565816Y-58003601D01*
X75616788Y-57948858D01*
X75673884Y-57887823D01*
X75735114Y-57822604D01*
X75798489Y-57755306D01*
X75862022Y-57688036D01*
X75923721Y-57622901D01*
X75981600Y-57562007D01*
X76033667Y-57507461D01*
X76077936Y-57461369D01*
X76112415Y-57425838D01*
X76135118Y-57402975D01*
X76144053Y-57394886D01*
X76144584Y-57395069D01*
G36*
X75235117Y-57308764D02*
G01*
X75232504Y-57337159D01*
X75223635Y-57383609D01*
X75186082Y-57510769D01*
X75130916Y-57636632D01*
X75061224Y-57754814D01*
X74980093Y-57858934D01*
X74971699Y-57868100D01*
X74863387Y-57968426D01*
X74740967Y-58052423D01*
X74607794Y-58118402D01*
X74467226Y-58164677D01*
X74322618Y-58189558D01*
X74222372Y-58194041D01*
X74073951Y-58182642D01*
X73930532Y-58150389D01*
X73794296Y-58098366D01*
X73667421Y-58027652D01*
X73552088Y-57939330D01*
X73450475Y-57834481D01*
X73364763Y-57714188D01*
X73307508Y-57607269D01*
X73254363Y-57468033D01*
X73223007Y-57323469D01*
X73216503Y-57227105D01*
X73711742Y-57227105D01*
X73712024Y-57232395D01*
X73716342Y-57287698D01*
X73723699Y-57329990D01*
X73736344Y-57368598D01*
X73756525Y-57412844D01*
X73778013Y-57451171D01*
X73819498Y-57509965D01*
X73867555Y-57565421D01*
X73916878Y-57611615D01*
X73962164Y-57642619D01*
X73978331Y-57650395D01*
X74019236Y-57667755D01*
X74062233Y-57683841D01*
X74135060Y-57703129D01*
X74238761Y-57711650D01*
X74340302Y-57698856D01*
X74437088Y-57665724D01*
X74526520Y-57613231D01*
X74606001Y-57542354D01*
X74672935Y-57454071D01*
X74701589Y-57399926D01*
X74732021Y-57305907D01*
X74742593Y-57208358D01*
X74734287Y-57110410D01*
X74708085Y-57015197D01*
X74664972Y-56925850D01*
X74605929Y-56845504D01*
X74531939Y-56777290D01*
X74443987Y-56724341D01*
X74429984Y-56718055D01*
X74331638Y-56687430D01*
X74230286Y-56677248D01*
X74129382Y-56686568D01*
X74032383Y-56714446D01*
X73942747Y-56759942D01*
X73863930Y-56822112D01*
X73799388Y-56900016D01*
X73781618Y-56928545D01*
X73737966Y-57021968D01*
X73715110Y-57119860D01*
X73711742Y-57227105D01*
X73216503Y-57227105D01*
X73212716Y-57170991D01*
X73216277Y-57081321D01*
X73238958Y-56931042D01*
X73281710Y-56789073D01*
X73343520Y-56657088D01*
X73423378Y-56536763D01*
X73520272Y-56429774D01*
X73633192Y-56337794D01*
X73761125Y-56262501D01*
X73830976Y-56229862D01*
X73906114Y-56200645D01*
X73977766Y-56181153D01*
X74054249Y-56169216D01*
X74143884Y-56162664D01*
X74161696Y-56161996D01*
X74300897Y-56168434D01*
X74431280Y-56196110D01*
X74553496Y-56245214D01*
X74668193Y-56315936D01*
X74692327Y-56333138D01*
X74717173Y-56349481D01*
X74729604Y-56355795D01*
X74730512Y-56351765D01*
X74731961Y-56327958D01*
X74733288Y-56284835D01*
X74734457Y-56224760D01*
X74735433Y-56150098D01*
X74736183Y-56063212D01*
X74736672Y-55966467D01*
X74736864Y-55862227D01*
X74737012Y-55368659D01*
X75244716Y-55878685D01*
X75244629Y-56570399D01*
X75244626Y-56582135D01*
X75244365Y-56732609D01*
X75243701Y-56869881D01*
X75242657Y-56992537D01*
X75241254Y-57099166D01*
X75239515Y-57188355D01*
X75238931Y-57208358D01*
X75237462Y-57258692D01*
X75235117Y-57308764D01*
G37*
X75235117Y-57308764D02*
X75232504Y-57337159D01*
X75223635Y-57383609D01*
X75186082Y-57510769D01*
X75130916Y-57636632D01*
X75061224Y-57754814D01*
X74980093Y-57858934D01*
X74971699Y-57868100D01*
X74863387Y-57968426D01*
X74740967Y-58052423D01*
X74607794Y-58118402D01*
X74467226Y-58164677D01*
X74322618Y-58189558D01*
X74222372Y-58194041D01*
X74073951Y-58182642D01*
X73930532Y-58150389D01*
X73794296Y-58098366D01*
X73667421Y-58027652D01*
X73552088Y-57939330D01*
X73450475Y-57834481D01*
X73364763Y-57714188D01*
X73307508Y-57607269D01*
X73254363Y-57468033D01*
X73223007Y-57323469D01*
X73216503Y-57227105D01*
X73711742Y-57227105D01*
X73712024Y-57232395D01*
X73716342Y-57287698D01*
X73723699Y-57329990D01*
X73736344Y-57368598D01*
X73756525Y-57412844D01*
X73778013Y-57451171D01*
X73819498Y-57509965D01*
X73867555Y-57565421D01*
X73916878Y-57611615D01*
X73962164Y-57642619D01*
X73978331Y-57650395D01*
X74019236Y-57667755D01*
X74062233Y-57683841D01*
X74135060Y-57703129D01*
X74238761Y-57711650D01*
X74340302Y-57698856D01*
X74437088Y-57665724D01*
X74526520Y-57613231D01*
X74606001Y-57542354D01*
X74672935Y-57454071D01*
X74701589Y-57399926D01*
X74732021Y-57305907D01*
X74742593Y-57208358D01*
X74734287Y-57110410D01*
X74708085Y-57015197D01*
X74664972Y-56925850D01*
X74605929Y-56845504D01*
X74531939Y-56777290D01*
X74443987Y-56724341D01*
X74429984Y-56718055D01*
X74331638Y-56687430D01*
X74230286Y-56677248D01*
X74129382Y-56686568D01*
X74032383Y-56714446D01*
X73942747Y-56759942D01*
X73863930Y-56822112D01*
X73799388Y-56900016D01*
X73781618Y-56928545D01*
X73737966Y-57021968D01*
X73715110Y-57119860D01*
X73711742Y-57227105D01*
X73216503Y-57227105D01*
X73212716Y-57170991D01*
X73216277Y-57081321D01*
X73238958Y-56931042D01*
X73281710Y-56789073D01*
X73343520Y-56657088D01*
X73423378Y-56536763D01*
X73520272Y-56429774D01*
X73633192Y-56337794D01*
X73761125Y-56262501D01*
X73830976Y-56229862D01*
X73906114Y-56200645D01*
X73977766Y-56181153D01*
X74054249Y-56169216D01*
X74143884Y-56162664D01*
X74161696Y-56161996D01*
X74300897Y-56168434D01*
X74431280Y-56196110D01*
X74553496Y-56245214D01*
X74668193Y-56315936D01*
X74692327Y-56333138D01*
X74717173Y-56349481D01*
X74729604Y-56355795D01*
X74730512Y-56351765D01*
X74731961Y-56327958D01*
X74733288Y-56284835D01*
X74734457Y-56224760D01*
X74735433Y-56150098D01*
X74736183Y-56063212D01*
X74736672Y-55966467D01*
X74736864Y-55862227D01*
X74737012Y-55368659D01*
X75244716Y-55878685D01*
X75244629Y-56570399D01*
X75244626Y-56582135D01*
X75244365Y-56732609D01*
X75243701Y-56869881D01*
X75242657Y-56992537D01*
X75241254Y-57099166D01*
X75239515Y-57188355D01*
X75238931Y-57208358D01*
X75237462Y-57258692D01*
X75235117Y-57308764D01*
D11*
%TO.C,RSW2*%
X25203697Y-85825755D02*
X25347091Y-86030543D01*
X22296303Y-92134245D02*
X22152909Y-91929457D01*
X27211215Y-88692787D02*
X22296303Y-92134245D01*
X20288785Y-89267213D02*
X25203697Y-85825755D01*
X20432179Y-89472001D02*
X20288785Y-89267213D01*
X27067821Y-88487999D02*
X27211215Y-88692787D01*
%TO.C,SW13*%
X254827800Y-45844600D02*
X250327800Y-45844600D01*
X254827800Y-46444600D02*
X254827800Y-45844600D01*
X250327800Y-49844600D02*
X250327800Y-50544600D01*
X245827800Y-44344600D02*
X246327800Y-43844600D01*
X249327800Y-43844600D02*
X249827800Y-44344600D01*
X254827800Y-50544600D02*
X254827800Y-50044600D01*
X250327800Y-50544600D02*
X254827800Y-50544600D01*
X246327800Y-48344600D02*
X248827800Y-48344600D01*
X245827800Y-47844600D02*
X246327800Y-48344600D01*
X246327800Y-43844600D02*
X249327800Y-43844600D01*
X249827800Y-45344600D02*
X249827800Y-44344600D01*
X249827800Y-45344600D02*
G75*
G03*
X250327800Y-45844600I500000J0D01*
G01*
X250327800Y-49844600D02*
G75*
G03*
X248827800Y-48344600I-1500000J0D01*
G01*
%TO.C,SW22*%
X264292201Y-105621411D02*
X261834745Y-103900682D01*
X261834745Y-103900682D02*
X261711957Y-103204318D01*
X264988566Y-105498624D02*
X264292201Y-105621411D01*
X258476562Y-99107708D02*
X262162746Y-101688802D01*
X261172371Y-95257693D02*
X260885583Y-95667269D01*
X266996083Y-102631591D02*
X266873295Y-101935227D01*
X266873295Y-101935227D02*
X264825415Y-100501286D01*
X264858555Y-97838787D02*
X261172371Y-95257693D01*
X258820708Y-98616216D02*
X258476562Y-99107708D01*
X262285534Y-102385166D02*
X261711957Y-103204318D01*
X264457052Y-98412193D02*
X264858555Y-97838787D01*
X264457052Y-98412193D02*
G75*
G03*
X264825415Y-100501286I1228728J-860365D01*
G01*
X262285534Y-102385166D02*
G75*
G03*
X262162746Y-101688802I-409576J286788D01*
G01*
%TO.C,SW19*%
X250327800Y-66964200D02*
X250327800Y-67664200D01*
X254827800Y-63564200D02*
X254827800Y-62964200D01*
X254827800Y-67664200D02*
X254827800Y-67164200D01*
X246327800Y-65464200D02*
X248827800Y-65464200D01*
X246327800Y-60964200D02*
X249327800Y-60964200D01*
X245827800Y-61464200D02*
X246327800Y-60964200D01*
X250327800Y-67664200D02*
X254827800Y-67664200D01*
X249327800Y-60964200D02*
X249827800Y-61464200D01*
X254827800Y-62964200D02*
X250327800Y-62964200D01*
X245827800Y-64964200D02*
X246327800Y-65464200D01*
X249827800Y-62464200D02*
X249827800Y-61464200D01*
X250327800Y-66964200D02*
G75*
G03*
X248827800Y-65464200I-1500000J0D01*
G01*
X249827800Y-62464200D02*
G75*
G03*
X250327800Y-62964200I500000J0D01*
G01*
%TO.C,SW19_r1*%
X46310800Y-61261000D02*
X46810800Y-60761000D01*
X49810800Y-60761000D02*
X50310800Y-61261000D01*
X50310800Y-62261000D02*
X50310800Y-61261000D01*
X55310800Y-63361000D02*
X55310800Y-62761000D01*
X46310800Y-64761000D02*
X46810800Y-65261000D01*
X46810800Y-60761000D02*
X49810800Y-60761000D01*
X55310800Y-62761000D02*
X50810800Y-62761000D01*
X50810800Y-66761000D02*
X50810800Y-67461000D01*
X46810800Y-65261000D02*
X49310800Y-65261000D01*
X55310800Y-67461000D02*
X55310800Y-66961000D01*
X50810800Y-67461000D02*
X55310800Y-67461000D01*
X50310800Y-62261000D02*
G75*
G03*
X50810800Y-62761000I500000J0D01*
G01*
X50810800Y-66761000D02*
G75*
G03*
X49310800Y-65261000I-1500000J0D01*
G01*
%TO.C,Bat+1*%
X264855200Y-48396400D02*
X262855200Y-48396400D01*
X262855200Y-48396400D02*
X262855200Y-46396400D01*
X262855200Y-46396400D02*
X264855200Y-46396400D01*
X264855200Y-46396400D02*
X264855200Y-48396400D01*
%TO.C,SW10_r1*%
X100887400Y-47277800D02*
X103387400Y-47277800D01*
X100387400Y-46777800D02*
X100887400Y-47277800D01*
X100387400Y-43277800D02*
X100887400Y-42777800D01*
X100887400Y-42777800D02*
X103887400Y-42777800D01*
X109387400Y-44777800D02*
X104887400Y-44777800D01*
X104387400Y-44277800D02*
X104387400Y-43277800D01*
X103887400Y-42777800D02*
X104387400Y-43277800D01*
X109387400Y-49477800D02*
X109387400Y-48977800D01*
X104887400Y-48777800D02*
X104887400Y-49477800D01*
X109387400Y-45377800D02*
X109387400Y-44777800D01*
X104887400Y-49477800D02*
X109387400Y-49477800D01*
X104387400Y-44277800D02*
G75*
G03*
X104887400Y-44777800I500000J0D01*
G01*
X104887400Y-48777800D02*
G75*
G03*
X103387400Y-47277800I-1500000J0D01*
G01*
%TO.C,SW22_r1*%
X24537211Y-95618644D02*
X25233575Y-95741432D01*
X29370548Y-94675854D02*
X29772051Y-95249261D01*
X33458236Y-92668167D02*
X33171447Y-92258591D01*
X26379878Y-91276458D02*
X25806302Y-90457306D01*
X30762426Y-88818152D02*
X27076242Y-91399246D01*
X31106572Y-89309643D02*
X30762426Y-88818152D01*
X25233575Y-95741432D02*
X27281455Y-94307491D01*
X29772051Y-95249261D02*
X33458236Y-92668167D01*
X25109937Y-90334519D02*
X25806302Y-90457306D01*
X22652481Y-92055248D02*
X25109937Y-90334519D01*
X22529693Y-92751612D02*
X22652481Y-92055248D01*
X29370548Y-94675854D02*
G75*
G03*
X27281455Y-94307491I-1228728J-860365D01*
G01*
X26379878Y-91276458D02*
G75*
G03*
X27076242Y-91399246I409576J286788D01*
G01*
%TO.C,BatGND1*%
X274996400Y-48447200D02*
X274996400Y-46447200D01*
X274996400Y-46447200D02*
X276996400Y-46447200D01*
X276996400Y-46447200D02*
X276996400Y-48447200D01*
X276996400Y-48447200D02*
X274996400Y-48447200D01*
%TO.C,Bat+r1*%
X19040600Y-46574200D02*
X21040600Y-46574200D01*
X19040600Y-48574200D02*
X19040600Y-46574200D01*
X21040600Y-48574200D02*
X19040600Y-48574200D01*
X21040600Y-46574200D02*
X21040600Y-48574200D01*
%TO.C,SW14_r1*%
X135879200Y-82184600D02*
X135879200Y-81484600D01*
X131379200Y-86184600D02*
X135879200Y-86184600D01*
X139879200Y-83684600D02*
X137379200Y-83684600D01*
X140379200Y-87684600D02*
X139879200Y-88184600D01*
X131379200Y-81484600D02*
X131379200Y-81984600D01*
X136879200Y-88184600D02*
X136379200Y-87684600D01*
X131379200Y-85584600D02*
X131379200Y-86184600D01*
X135879200Y-81484600D02*
X131379200Y-81484600D01*
X140379200Y-84184600D02*
X139879200Y-83684600D01*
X136379200Y-86684600D02*
X136379200Y-87684600D01*
X139879200Y-88184600D02*
X136879200Y-88184600D01*
X135879200Y-82184600D02*
G75*
G03*
X137379200Y-83684600I1500000J0D01*
G01*
X136379200Y-86684600D02*
G75*
G03*
X135879200Y-86184600I-500000J0D01*
G01*
%TO.C,SW7*%
X246327800Y-26725000D02*
X249327800Y-26725000D01*
X245827800Y-30725000D02*
X246327800Y-31225000D01*
X249327800Y-26725000D02*
X249827800Y-27225000D01*
X254827800Y-29325000D02*
X254827800Y-28725000D01*
X249827800Y-28225000D02*
X249827800Y-27225000D01*
X254827800Y-28725000D02*
X250327800Y-28725000D01*
X250327800Y-33425000D02*
X254827800Y-33425000D01*
X250327800Y-32725000D02*
X250327800Y-33425000D01*
X254827800Y-33425000D02*
X254827800Y-32925000D01*
X245827800Y-27225000D02*
X246327800Y-26725000D01*
X246327800Y-31225000D02*
X248827800Y-31225000D01*
X250327800Y-32725000D02*
G75*
G03*
X248827800Y-31225000I-1500000J0D01*
G01*
X249827800Y-28225000D02*
G75*
G03*
X250327800Y-28725000I500000J0D01*
G01*
%TO.C,BatGND4*%
X31207200Y-48625000D02*
X31207200Y-46625000D01*
X31207200Y-46625000D02*
X33207200Y-46625000D01*
X33207200Y-46625000D02*
X33207200Y-48625000D01*
X33207200Y-48625000D02*
X31207200Y-48625000D01*
%TO.C,D7*%
X178579800Y-66331400D02*
X183979800Y-66331400D01*
X180779800Y-66581400D02*
X180779800Y-67581400D01*
X183979800Y-66331400D02*
X183979800Y-67831400D01*
X183979800Y-67831400D02*
X178579800Y-67831400D01*
X178579800Y-66331400D02*
X178579800Y-67831400D01*
X181679800Y-67081400D02*
X180779800Y-66581400D01*
X180779800Y-67581400D02*
X181679800Y-67081400D01*
X181779800Y-66581400D02*
X181779800Y-67581400D01*
%TO.C,D18*%
X220512200Y-81977800D02*
X225912200Y-81977800D01*
X225912200Y-81977800D02*
X225912200Y-83477800D01*
X220512200Y-81977800D02*
X220512200Y-83477800D01*
X222712200Y-83227800D02*
X223612200Y-82727800D01*
X225912200Y-83477800D02*
X220512200Y-83477800D01*
X223712200Y-82227800D02*
X223712200Y-83227800D01*
X222712200Y-82227800D02*
X222712200Y-83227800D01*
X223612200Y-82727800D02*
X222712200Y-82227800D01*
%TO.C,Dr16*%
X63390800Y-62445200D02*
X68790800Y-62445200D01*
X65590800Y-63695200D02*
X65590800Y-62695200D01*
X68790800Y-63945200D02*
X68790800Y-62445200D01*
X66590800Y-63695200D02*
X66590800Y-62695200D01*
X65690800Y-63195200D02*
X66590800Y-63695200D01*
X66590800Y-62695200D02*
X65690800Y-63195200D01*
X63390800Y-63945200D02*
X63390800Y-62445200D01*
X68790800Y-63945200D02*
X63390800Y-63945200D01*
%TO.C,Dr6*%
X137647200Y-60440000D02*
X132247200Y-60440000D01*
X135447200Y-59190000D02*
X134547200Y-59690000D01*
X137647200Y-60440000D02*
X137647200Y-58940000D01*
X132247200Y-58940000D02*
X137647200Y-58940000D01*
X132247200Y-60440000D02*
X132247200Y-58940000D01*
X135447200Y-60190000D02*
X135447200Y-59190000D01*
X134447200Y-60190000D02*
X134447200Y-59190000D01*
X134547200Y-59690000D02*
X135447200Y-60190000D01*
%TO.C,Dr15*%
X90380800Y-65443800D02*
X90380800Y-63943800D01*
X88180800Y-65193800D02*
X88180800Y-64193800D01*
X84980800Y-65443800D02*
X84980800Y-63943800D01*
X84980800Y-63943800D02*
X90380800Y-63943800D01*
X87180800Y-65193800D02*
X87180800Y-64193800D01*
X88180800Y-64193800D02*
X87280800Y-64693800D01*
X90380800Y-65443800D02*
X84980800Y-65443800D01*
X87280800Y-64693800D02*
X88180800Y-65193800D01*
%TO.C,Dr3*%
X85387200Y-31509400D02*
X85387200Y-30009400D01*
X85387200Y-30009400D02*
X90787200Y-30009400D01*
X90787200Y-31509400D02*
X85387200Y-31509400D01*
X87587200Y-31259400D02*
X87587200Y-30259400D01*
X88587200Y-31259400D02*
X88587200Y-30259400D01*
X88587200Y-30259400D02*
X87687200Y-30759400D01*
X87687200Y-30759400D02*
X88587200Y-31259400D01*
X90787200Y-31509400D02*
X90787200Y-30009400D01*
%TO.C,Dr18*%
X61990800Y-82409600D02*
X67390800Y-82409600D01*
X67390800Y-83909600D02*
X61990800Y-83909600D01*
X65190800Y-83659600D02*
X65190800Y-82659600D01*
X67390800Y-83909600D02*
X67390800Y-82409600D01*
X65190800Y-82659600D02*
X64290800Y-83159600D01*
X61990800Y-83909600D02*
X61990800Y-82409600D01*
X64190800Y-83659600D02*
X64190800Y-82659600D01*
X64290800Y-83159600D02*
X65190800Y-83659600D01*
%TO.C,Dr9*%
X86672400Y-41593200D02*
X81272400Y-41593200D01*
X81272400Y-40093200D02*
X86672400Y-40093200D01*
X83572400Y-40843200D02*
X84472400Y-41343200D01*
X83472400Y-41343200D02*
X83472400Y-40343200D01*
X86672400Y-41593200D02*
X86672400Y-40093200D01*
X84472400Y-40343200D02*
X83572400Y-40843200D01*
X84472400Y-41343200D02*
X84472400Y-40343200D01*
X81272400Y-41593200D02*
X81272400Y-40093200D01*
%TO.C,D11*%
X254969800Y-57874600D02*
X249569800Y-57874600D01*
X252669800Y-57124600D02*
X251769800Y-56624600D01*
X251769800Y-56624600D02*
X251769800Y-57624600D01*
X249569800Y-56374600D02*
X254969800Y-56374600D01*
X251769800Y-57624600D02*
X252669800Y-57124600D01*
X254969800Y-56374600D02*
X254969800Y-57874600D01*
X252769800Y-56624600D02*
X252769800Y-57624600D01*
X249569800Y-56374600D02*
X249569800Y-57874600D01*
%TO.C,D17*%
X253406400Y-74193400D02*
X252506400Y-73693400D01*
X255706400Y-74943400D02*
X250306400Y-74943400D01*
X252506400Y-74693400D02*
X253406400Y-74193400D01*
X252506400Y-73693400D02*
X252506400Y-74693400D01*
X250306400Y-73443400D02*
X250306400Y-74943400D01*
X250306400Y-73443400D02*
X255706400Y-73443400D01*
X253506400Y-73693400D02*
X253506400Y-74693400D01*
X255706400Y-73443400D02*
X255706400Y-74943400D01*
%TO.C,D15*%
X219206600Y-65671000D02*
X219206600Y-67171000D01*
X216006600Y-66921000D02*
X216906600Y-66421000D01*
X219206600Y-67171000D02*
X213806600Y-67171000D01*
X213806600Y-65671000D02*
X219206600Y-65671000D01*
X216906600Y-66421000D02*
X216006600Y-65921000D01*
X213806600Y-65671000D02*
X213806600Y-67171000D01*
X217006600Y-65921000D02*
X217006600Y-66921000D01*
X216006600Y-65921000D02*
X216006600Y-66921000D01*
%TO.C,D2*%
X186860200Y-28942600D02*
X186860200Y-30442600D01*
X189960200Y-29692600D02*
X189060200Y-29192600D01*
X189060200Y-30192600D02*
X189960200Y-29692600D01*
X189060200Y-29192600D02*
X189060200Y-30192600D01*
X192260200Y-30442600D02*
X186860200Y-30442600D01*
X190060200Y-29192600D02*
X190060200Y-30192600D01*
X192260200Y-28942600D02*
X192260200Y-30442600D01*
X186860200Y-28942600D02*
X192260200Y-28942600D01*
%TO.C,Dr4*%
X69527800Y-36669600D02*
X69527800Y-35669600D01*
X69627800Y-36169600D02*
X70527800Y-36669600D01*
X70527800Y-35669600D02*
X69627800Y-36169600D01*
X67327800Y-36919600D02*
X67327800Y-35419600D01*
X67327800Y-35419600D02*
X72727800Y-35419600D01*
X72727800Y-36919600D02*
X72727800Y-35419600D01*
X72727800Y-36919600D02*
X67327800Y-36919600D01*
X70527800Y-36669600D02*
X70527800Y-35669600D01*
%TO.C,D13*%
X180475000Y-85361400D02*
X181375000Y-84861400D01*
X181475000Y-84361400D02*
X181475000Y-85361400D01*
X178275000Y-84111400D02*
X183675000Y-84111400D01*
X178275000Y-84111400D02*
X178275000Y-85611400D01*
X183675000Y-85611400D02*
X178275000Y-85611400D01*
X181375000Y-84861400D02*
X180475000Y-84361400D01*
X180475000Y-84361400D02*
X180475000Y-85361400D01*
X183675000Y-84111400D02*
X183675000Y-85611400D01*
%TO.C,Dr10*%
X63594000Y-45706600D02*
X68994000Y-45706600D01*
X66794000Y-46956600D02*
X66794000Y-45956600D01*
X68994000Y-47206600D02*
X63594000Y-47206600D01*
X68994000Y-47206600D02*
X68994000Y-45706600D01*
X66794000Y-45956600D02*
X65894000Y-46456600D01*
X63594000Y-47206600D02*
X63594000Y-45706600D01*
X65894000Y-46456600D02*
X66794000Y-46956600D01*
X65794000Y-46956600D02*
X65794000Y-45956600D01*
D10*
%TO.C,SW_POWER1*%
X268475000Y-45638800D02*
X268675000Y-45428800D01*
X268675000Y-45428800D02*
X269575000Y-45428800D01*
X268275000Y-49778800D02*
X269975000Y-49778800D01*
X271275000Y-49778800D02*
X271475000Y-49778800D01*
X269775000Y-45638800D02*
X269575000Y-45428800D01*
X273325000Y-47938800D02*
X273325000Y-48728800D01*
X269775000Y-45638800D02*
X269775000Y-46928800D01*
X268475000Y-46928800D02*
X268475000Y-45638800D01*
X266425000Y-48728800D02*
X266425000Y-47938800D01*
X267025000Y-46928800D02*
X272725000Y-46928800D01*
D11*
%TO.C,D6*%
X162782200Y-67894200D02*
X161882200Y-67394200D01*
X159682200Y-67144200D02*
X159682200Y-68644200D01*
X165082200Y-67144200D02*
X165082200Y-68644200D01*
X161882200Y-67394200D02*
X161882200Y-68394200D01*
X159682200Y-67144200D02*
X165082200Y-67144200D01*
X161882200Y-68394200D02*
X162782200Y-67894200D01*
X162882200Y-67394200D02*
X162882200Y-68394200D01*
X165082200Y-68644200D02*
X159682200Y-68644200D01*
%TO.C,D3*%
X204716400Y-22389400D02*
X204716400Y-23889400D01*
X210116400Y-22389400D02*
X210116400Y-23889400D01*
X206916400Y-22639400D02*
X206916400Y-23639400D01*
X207816400Y-23139400D02*
X206916400Y-22639400D01*
X210116400Y-23889400D02*
X204716400Y-23889400D01*
X206916400Y-23639400D02*
X207816400Y-23139400D01*
X204716400Y-22389400D02*
X210116400Y-22389400D01*
X207916400Y-22639400D02*
X207916400Y-23639400D01*
%TO.C,Dr11*%
X54871600Y-56579200D02*
X54871600Y-55079200D01*
X52671600Y-56329200D02*
X52671600Y-55329200D01*
X49471600Y-56579200D02*
X49471600Y-55079200D01*
X54871600Y-56579200D02*
X49471600Y-56579200D01*
X49471600Y-55079200D02*
X54871600Y-55079200D01*
X51771600Y-55829200D02*
X52671600Y-56329200D01*
X52671600Y-55329200D02*
X51771600Y-55829200D01*
X51671600Y-56329200D02*
X51671600Y-55329200D01*
%TO.C,Dr2*%
X105746600Y-37769800D02*
X106646600Y-38269800D01*
X108846600Y-38519800D02*
X108846600Y-37019800D01*
X106646600Y-37269800D02*
X105746600Y-37769800D01*
X105646600Y-38269800D02*
X105646600Y-37269800D01*
X103446600Y-38519800D02*
X103446600Y-37019800D01*
X103446600Y-37019800D02*
X108846600Y-37019800D01*
X106646600Y-38269800D02*
X106646600Y-37269800D01*
X108846600Y-38519800D02*
X103446600Y-38519800D01*
%TO.C,D20*%
X264587431Y-92911086D02*
X265611456Y-93017729D01*
X265980159Y-92665510D02*
X265406583Y-93484662D01*
X267065323Y-94951318D02*
X262641902Y-91854006D01*
X265161007Y-92091934D02*
X264587431Y-92911086D01*
X267925688Y-93722590D02*
X267065323Y-94951318D01*
X263502267Y-90625278D02*
X262641902Y-91854006D01*
X265611456Y-93017729D02*
X265161007Y-92091934D01*
X263502267Y-90625278D02*
X267925688Y-93722590D01*
%TO.C,D16*%
X231764400Y-71157400D02*
X237164400Y-71157400D01*
X237164400Y-72657400D02*
X231764400Y-72657400D01*
X233964400Y-71407400D02*
X233964400Y-72407400D01*
X234964400Y-71407400D02*
X234964400Y-72407400D01*
X234864400Y-71907400D02*
X233964400Y-71407400D01*
X231764400Y-71157400D02*
X231764400Y-72657400D01*
X233964400Y-72407400D02*
X234864400Y-71907400D01*
X237164400Y-71157400D02*
X237164400Y-72657400D01*
%TO.C,Dr0*%
X132247200Y-43523600D02*
X132247200Y-42023600D01*
X135447200Y-42273600D02*
X134547200Y-42773600D01*
X135447200Y-43273600D02*
X135447200Y-42273600D01*
X132247200Y-42023600D02*
X137647200Y-42023600D01*
X134547200Y-42773600D02*
X135447200Y-43273600D01*
X134447200Y-43273600D02*
X134447200Y-42273600D01*
X137647200Y-43523600D02*
X137647200Y-42023600D01*
X137647200Y-43523600D02*
X132247200Y-43523600D01*
%TO.C,Dr20*%
X36395708Y-87898107D02*
X39493020Y-92321528D01*
X37100569Y-90212339D02*
X37207212Y-91236364D01*
X37207212Y-91236364D02*
X38026364Y-90662788D01*
X36633636Y-90417212D02*
X37452788Y-89843636D01*
X38026364Y-90662788D02*
X37100569Y-90212339D01*
X38264292Y-93181893D02*
X35166980Y-88758472D01*
X35166980Y-88758472D02*
X36395708Y-87898107D01*
X38264292Y-93181893D02*
X39493020Y-92321528D01*
%TO.C,Dr7*%
X123807600Y-67302000D02*
X123807600Y-66302000D01*
X124807600Y-66302000D02*
X123907600Y-66802000D01*
X127007600Y-67552000D02*
X127007600Y-66052000D01*
X121607600Y-66052000D02*
X127007600Y-66052000D01*
X123907600Y-66802000D02*
X124807600Y-67302000D01*
X121607600Y-67552000D02*
X121607600Y-66052000D01*
X124807600Y-67302000D02*
X124807600Y-66302000D01*
X127007600Y-67552000D02*
X121607600Y-67552000D01*
%TO.C,Dr5*%
X52341400Y-39133400D02*
X52341400Y-38133400D01*
X52341400Y-38133400D02*
X51441400Y-38633400D01*
X54541400Y-39383400D02*
X49141400Y-39383400D01*
X49141400Y-39383400D02*
X49141400Y-37883400D01*
X49141400Y-37883400D02*
X54541400Y-37883400D01*
X51441400Y-38633400D02*
X52341400Y-39133400D01*
X54541400Y-39383400D02*
X54541400Y-37883400D01*
X51341400Y-39133400D02*
X51341400Y-38133400D01*
%TO.C,Dr12*%
X134218600Y-77335000D02*
X134218600Y-76335000D01*
X135218600Y-77335000D02*
X135218600Y-76335000D01*
X132018600Y-76085000D02*
X137418600Y-76085000D01*
X132018600Y-77585000D02*
X132018600Y-76085000D01*
X134318600Y-76835000D02*
X135218600Y-77335000D01*
X137418600Y-77585000D02*
X132018600Y-77585000D01*
X137418600Y-77585000D02*
X137418600Y-76085000D01*
X135218600Y-76335000D02*
X134318600Y-76835000D01*
%TO.C,D19*%
X242708833Y-83516548D02*
X247924832Y-84914171D01*
X245735090Y-84586251D02*
X245476271Y-85552176D01*
X244769165Y-84327432D02*
X244510346Y-85293357D01*
X242708833Y-83516548D02*
X242320604Y-84965437D01*
X247924832Y-84914171D02*
X247536603Y-86363060D01*
X247536603Y-86363060D02*
X242320604Y-84965437D01*
X244510346Y-85293357D02*
X245509088Y-85043332D01*
X245509088Y-85043332D02*
X244769165Y-84327432D01*
%TO.C,Dr1*%
X124655200Y-49157000D02*
X123755200Y-49657000D01*
X121455200Y-48907000D02*
X126855200Y-48907000D01*
X121455200Y-50407000D02*
X121455200Y-48907000D01*
X126855200Y-50407000D02*
X126855200Y-48907000D01*
X123655200Y-50157000D02*
X123655200Y-49157000D01*
X126855200Y-50407000D02*
X121455200Y-50407000D01*
X124655200Y-50157000D02*
X124655200Y-49157000D01*
X123755200Y-49657000D02*
X124655200Y-50157000D01*
D10*
%TO.C,SW_POWERR1*%
X24762000Y-45511800D02*
X24962000Y-45301800D01*
X26062000Y-45511800D02*
X25862000Y-45301800D01*
X26062000Y-45511800D02*
X26062000Y-46801800D01*
X23312000Y-46801800D02*
X29012000Y-46801800D01*
X24962000Y-45301800D02*
X25862000Y-45301800D01*
X24562000Y-49651800D02*
X26262000Y-49651800D01*
X27562000Y-49651800D02*
X27762000Y-49651800D01*
X24762000Y-46801800D02*
X24762000Y-45511800D01*
X22712000Y-48601800D02*
X22712000Y-47811800D01*
X29612000Y-47811800D02*
X29612000Y-48601800D01*
D11*
%TO.C,Dr14*%
X108668800Y-72352600D02*
X103268800Y-72352600D01*
X105568800Y-71602600D02*
X106468800Y-72102600D01*
X108668800Y-72352600D02*
X108668800Y-70852600D01*
X105468800Y-72102600D02*
X105468800Y-71102600D01*
X103268800Y-70852600D02*
X108668800Y-70852600D01*
X103268800Y-72352600D02*
X103268800Y-70852600D01*
X106468800Y-71102600D02*
X105568800Y-71602600D01*
X106468800Y-72102600D02*
X106468800Y-71102600D01*
%TO.C,D10*%
X221934600Y-44081000D02*
X227334600Y-44081000D01*
X224134600Y-45331000D02*
X225034600Y-44831000D01*
X227334600Y-45581000D02*
X221934600Y-45581000D01*
X224134600Y-44331000D02*
X224134600Y-45331000D01*
X225134600Y-44331000D02*
X225134600Y-45331000D01*
X221934600Y-44081000D02*
X221934600Y-45581000D01*
X225034600Y-44831000D02*
X224134600Y-44331000D01*
X227334600Y-44081000D02*
X227334600Y-45581000D01*
%TO.C,D9*%
X216955800Y-47328200D02*
X216955800Y-48328200D01*
X215955800Y-48328200D02*
X216855800Y-47828200D01*
X219155800Y-48578200D02*
X213755800Y-48578200D01*
X215955800Y-47328200D02*
X215955800Y-48328200D01*
X213755800Y-47078200D02*
X219155800Y-47078200D01*
X219155800Y-47078200D02*
X219155800Y-48578200D01*
X216855800Y-47828200D02*
X215955800Y-47328200D01*
X213755800Y-47078200D02*
X213755800Y-48578200D01*
%TO.C,Dr13*%
X124147200Y-82583400D02*
X123247200Y-83083400D01*
X123147200Y-83583400D02*
X123147200Y-82583400D01*
X120947200Y-83833400D02*
X120947200Y-82333400D01*
X126347200Y-83833400D02*
X120947200Y-83833400D01*
X123247200Y-83083400D02*
X124147200Y-83583400D01*
X126347200Y-83833400D02*
X126347200Y-82333400D01*
X124147200Y-83583400D02*
X124147200Y-82583400D01*
X120947200Y-82333400D02*
X126347200Y-82333400D01*
%TO.C,D12*%
X165564800Y-83705000D02*
X165564800Y-85205000D01*
X162364800Y-84955000D02*
X163264800Y-84455000D01*
X162364800Y-83955000D02*
X162364800Y-84955000D01*
X163264800Y-84455000D02*
X162364800Y-83955000D01*
X160164800Y-83705000D02*
X165564800Y-83705000D01*
X160164800Y-83705000D02*
X160164800Y-85205000D01*
X163364800Y-83955000D02*
X163364800Y-84955000D01*
X165564800Y-85205000D02*
X160164800Y-85205000D01*
%TO.C,D4*%
X234040600Y-37660200D02*
X234940600Y-37160200D01*
X235040600Y-36660200D02*
X235040600Y-37660200D01*
X234040600Y-36660200D02*
X234040600Y-37660200D01*
X237240600Y-37910200D02*
X231840600Y-37910200D01*
X234940600Y-37160200D02*
X234040600Y-36660200D01*
X231840600Y-36410200D02*
X231840600Y-37910200D01*
X231840600Y-36410200D02*
X237240600Y-36410200D01*
X237240600Y-36410200D02*
X237240600Y-37910200D01*
%TO.C,D0*%
X164548800Y-49338800D02*
X164548800Y-50838800D01*
X159148800Y-49338800D02*
X159148800Y-50838800D01*
X164548800Y-50838800D02*
X159148800Y-50838800D01*
X159148800Y-49338800D02*
X164548800Y-49338800D01*
X162248800Y-50088800D02*
X161348800Y-49588800D01*
X161348800Y-50588800D02*
X162248800Y-50088800D01*
X162348800Y-49588800D02*
X162348800Y-50588800D01*
X161348800Y-49588800D02*
X161348800Y-50588800D01*
%TO.C,D14*%
X198610600Y-71924800D02*
X199510600Y-71424800D01*
X199610600Y-70924800D02*
X199610600Y-71924800D01*
X196410600Y-70674800D02*
X201810600Y-70674800D01*
X196410600Y-70674800D02*
X196410600Y-72174800D01*
X201810600Y-70674800D02*
X201810600Y-72174800D01*
X201810600Y-72174800D02*
X196410600Y-72174800D01*
X198610600Y-70924800D02*
X198610600Y-71924800D01*
X199510600Y-71424800D02*
X198610600Y-70924800D01*
%TO.C,Dr8*%
X106519600Y-53983000D02*
X105619600Y-54483000D01*
X106519600Y-54983000D02*
X106519600Y-53983000D01*
X105519600Y-54983000D02*
X105519600Y-53983000D01*
X103319600Y-55233000D02*
X103319600Y-53733000D01*
X105619600Y-54483000D02*
X106519600Y-54983000D01*
X103319600Y-53733000D02*
X108719600Y-53733000D01*
X108719600Y-55233000D02*
X108719600Y-53733000D01*
X108719600Y-55233000D02*
X103319600Y-55233000D01*
%TO.C,Dr19*%
X43143965Y-87249568D02*
X42885146Y-86283643D01*
X44109890Y-86990749D02*
X43851071Y-86024824D01*
X46299632Y-86662829D02*
X41083633Y-88060452D01*
X43851071Y-86024824D02*
X43111148Y-86740724D01*
X41083633Y-88060452D02*
X40695404Y-86611563D01*
X40695404Y-86611563D02*
X45911403Y-85213940D01*
X46299632Y-86662829D02*
X45911403Y-85213940D01*
X43111148Y-86740724D02*
X44109890Y-86990749D01*
%TO.C,D5*%
X249798400Y-39178800D02*
X255198400Y-39178800D01*
X255198400Y-40678800D02*
X249798400Y-40678800D01*
X252998400Y-39428800D02*
X252998400Y-40428800D01*
X251998400Y-39428800D02*
X251998400Y-40428800D01*
X249798400Y-39178800D02*
X249798400Y-40678800D01*
X251998400Y-40428800D02*
X252898400Y-39928800D01*
X252898400Y-39928800D02*
X251998400Y-39428800D01*
X255198400Y-39178800D02*
X255198400Y-40678800D01*
%TO.C,Dr17*%
X52595400Y-73271000D02*
X52595400Y-72271000D01*
X51595400Y-73271000D02*
X51595400Y-72271000D01*
X52595400Y-72271000D02*
X51695400Y-72771000D01*
X49395400Y-72021000D02*
X54795400Y-72021000D01*
X51695400Y-72771000D02*
X52595400Y-73271000D01*
X54795400Y-73521000D02*
X49395400Y-73521000D01*
X54795400Y-73521000D02*
X54795400Y-72021000D01*
X49395400Y-73521000D02*
X49395400Y-72021000D01*
%TO.C,D1*%
X181830600Y-49588800D02*
X181830600Y-50588800D01*
X184030600Y-50838800D02*
X178630600Y-50838800D01*
X178630600Y-49338800D02*
X184030600Y-49338800D01*
X178630600Y-49338800D02*
X178630600Y-50838800D01*
X180830600Y-49588800D02*
X180830600Y-50588800D01*
X181730600Y-50088800D02*
X180830600Y-49588800D01*
X180830600Y-50588800D02*
X181730600Y-50088800D01*
X184030600Y-49338800D02*
X184030600Y-50838800D01*
%TO.C,D8*%
X201629800Y-55511000D02*
X201629800Y-57011000D01*
X201629800Y-57011000D02*
X196229800Y-57011000D01*
X199429800Y-55761000D02*
X199429800Y-56761000D01*
X199329800Y-56261000D02*
X198429800Y-55761000D01*
X198429800Y-55761000D02*
X198429800Y-56761000D01*
X198429800Y-56761000D02*
X199329800Y-56261000D01*
X196229800Y-55511000D02*
X196229800Y-57011000D01*
X196229800Y-55511000D02*
X201629800Y-55511000D01*
%TD*%
M02*
