%TF.GenerationSoftware,KiCad,Pcbnew,(6.0.5-0)*%
%TF.CreationDate,2022-06-22T19:04:36-07:00*%
%TF.ProjectId,Swept_3x6,53776570-745f-4337-9836-2e6b69636164,rev?*%
%TF.SameCoordinates,Original*%
%TF.FileFunction,Copper,L2,Bot*%
%TF.FilePolarity,Positive*%
%FSLAX46Y46*%
G04 Gerber Fmt 4.6, Leading zero omitted, Abs format (unit mm)*
G04 Created by KiCad (PCBNEW (6.0.5-0)) date 2022-06-22 19:04:36*
%MOMM*%
%LPD*%
G01*
G04 APERTURE LIST*
G04 Aperture macros list*
%AMRotRect*
0 Rectangle, with rotation*
0 The origin of the aperture is its center*
0 $1 length*
0 $2 width*
0 $3 Rotation angle, in degrees counterclockwise*
0 Add horizontal line*
21,1,$1,$2,0,0,$3*%
G04 Aperture macros list end*
%TA.AperFunction,ComponentPad*%
%ADD10C,1.524000*%
%TD*%
%TA.AperFunction,ComponentPad*%
%ADD11C,2.282000*%
%TD*%
%TA.AperFunction,ComponentPad*%
%ADD12C,2.000000*%
%TD*%
%TA.AperFunction,ComponentPad*%
%ADD13C,4.400000*%
%TD*%
%TA.AperFunction,ComponentPad*%
%ADD14C,1.397000*%
%TD*%
%TA.AperFunction,SMDPad,CuDef*%
%ADD15R,1.400000X1.000000*%
%TD*%
%TA.AperFunction,SMDPad,CuDef*%
%ADD16R,1.000000X0.800000*%
%TD*%
%TA.AperFunction,SMDPad,CuDef*%
%ADD17R,0.700000X1.500000*%
%TD*%
%TA.AperFunction,SMDPad,CuDef*%
%ADD18RotRect,1.400000X1.000000X145.000000*%
%TD*%
%TA.AperFunction,SMDPad,CuDef*%
%ADD19RotRect,1.400000X1.000000X35.000000*%
%TD*%
%TA.AperFunction,SMDPad,CuDef*%
%ADD20RotRect,1.400000X1.000000X165.000000*%
%TD*%
%TA.AperFunction,SMDPad,CuDef*%
%ADD21RotRect,1.400000X1.000000X15.000000*%
%TD*%
%TA.AperFunction,ViaPad*%
%ADD22C,0.800000*%
%TD*%
%TA.AperFunction,Conductor*%
%ADD23C,0.250000*%
%TD*%
G04 APERTURE END LIST*
D10*
%TO.P,U1,1,TX*%
%TO.N,unconnected-(U1-Pad1)*%
X277659800Y-49850000D03*
%TO.P,U1,2,RX*%
%TO.N,unconnected-(U1-Pad2)*%
X277659800Y-52390000D03*
%TO.P,U1,3,GND*%
%TO.N,gnd*%
X277659800Y-54930000D03*
%TO.P,U1,4,GND*%
X277659800Y-57470000D03*
%TO.P,U1,5,SDA*%
%TO.N,unconnected-(U1-Pad5)*%
X277659800Y-60010000D03*
%TO.P,U1,6,SCL*%
%TO.N,unconnected-(U1-Pad6)*%
X277659800Y-62550000D03*
%TO.P,U1,7,D4*%
%TO.N,row_0*%
X277659800Y-65090000D03*
%TO.P,U1,8,C6*%
%TO.N,row_1*%
X277659800Y-67630000D03*
%TO.P,U1,9,D7*%
%TO.N,row_2*%
X277659800Y-70170000D03*
%TO.P,U1,10,E6*%
%TO.N,row_3*%
X277659800Y-72710000D03*
%TO.P,U1,11,B4*%
%TO.N,unconnected-(U1-Pad11)*%
X277659800Y-75250000D03*
%TO.P,U1,12,B5*%
%TO.N,unconnected-(U1-Pad12)*%
X277659800Y-77790000D03*
%TO.P,U1,13,B6*%
%TO.N,unconnected-(U1-Pad13)*%
X262439800Y-77790000D03*
%TO.P,U1,14,B2*%
%TO.N,unconnected-(U1-Pad14)*%
X262439800Y-75250000D03*
%TO.P,U1,15,B3*%
%TO.N,col5*%
X262439800Y-72710000D03*
%TO.P,U1,16,B1*%
%TO.N,col4*%
X262439800Y-70170000D03*
%TO.P,U1,17,F7*%
%TO.N,col3*%
X262439800Y-67630000D03*
%TO.P,U1,18,F6*%
%TO.N,col2*%
X262439800Y-65090000D03*
%TO.P,U1,19,F5*%
%TO.N,col1*%
X262439800Y-62550000D03*
%TO.P,U1,20,F4*%
%TO.N,col0*%
X262439800Y-60010000D03*
%TO.P,U1,21,VCC*%
%TO.N,vcc*%
X262439800Y-57470000D03*
%TO.P,U1,22,RST*%
%TO.N,reset*%
X262439800Y-54930000D03*
%TO.P,U1,23,GND*%
%TO.N,gnd*%
X262439800Y-52390000D03*
%TO.P,U1,24,RAW*%
%TO.N,raw*%
X262439800Y-49850000D03*
%TD*%
D11*
%TO.P,SW16,1,1*%
%TO.N,col2*%
X193776600Y-74022800D03*
%TO.P,SW16,2,2*%
%TO.N,Net-(D14-Pad2)*%
X188776600Y-71922800D03*
%TD*%
%TO.P,SW20,1,1*%
%TO.N,col3*%
X228473000Y-80739400D03*
%TO.P,SW20,2,2*%
%TO.N,Net-(D18-Pad2)*%
X233473000Y-82839400D03*
%TD*%
%TO.P,SW15,1,1*%
%TO.N,col1*%
X175818800Y-86037000D03*
%TO.P,SW15,2,2*%
%TO.N,Net-(D13-Pad2)*%
X170818800Y-83937000D03*
%TD*%
%TO.P,SW21,1,1*%
%TO.N,col4*%
X250193032Y-83658238D03*
%TO.P,SW21,2,2*%
%TO.N,Net-(D19-Pad2)*%
X254479142Y-86980777D03*
%TD*%
%TO.P,SW17,1,1*%
%TO.N,col3*%
X211785200Y-67139400D03*
%TO.P,SW17,2,2*%
%TO.N,Net-(D15-Pad2)*%
X206785200Y-65039400D03*
%TD*%
%TO.P,SW18,1,1*%
%TO.N,col4*%
X229793800Y-72498800D03*
%TO.P,SW18,2,2*%
%TO.N,Net-(D16-Pad2)*%
X224793800Y-70398800D03*
%TD*%
%TO.P,SW4,1,1*%
%TO.N,col2*%
X193802000Y-39783600D03*
%TO.P,SW4,2,2*%
%TO.N,Net-(D2-Pad2)*%
X188802000Y-37683600D03*
%TD*%
%TO.P,SW3,1,1*%
%TO.N,col1*%
X175793400Y-51823200D03*
%TO.P,SW3,2,2*%
%TO.N,Net-(D1-Pad2)*%
X170793400Y-49723200D03*
%TD*%
%TO.P,SW9,1,1*%
%TO.N,col1*%
X175793400Y-68917400D03*
%TO.P,SW9,2,2*%
%TO.N,Net-(D7-Pad2)*%
X170793400Y-66817400D03*
%TD*%
%TO.P,SW14,1,1*%
%TO.N,col0*%
X157810200Y-86062400D03*
%TO.P,SW14,2,2*%
%TO.N,Net-(D12-Pad2)*%
X152810200Y-83962400D03*
%TD*%
%TO.P,SW12,1,1*%
%TO.N,col4*%
X229793800Y-55379200D03*
%TO.P,SW12,2,2*%
%TO.N,Net-(D10-Pad2)*%
X224793800Y-53279200D03*
%TD*%
%TO.P,SW11,1,1*%
%TO.N,col3*%
X211785200Y-50019800D03*
%TO.P,SW11,2,2*%
%TO.N,Net-(D9-Pad2)*%
X206785200Y-47919800D03*
%TD*%
%TO.P,SW8,1,1*%
%TO.N,col0*%
X157784800Y-68942800D03*
%TO.P,SW8,2,2*%
%TO.N,Net-(D6-Pad2)*%
X152784800Y-66842800D03*
%TD*%
%TO.P,SW6,1,1*%
%TO.N,col4*%
X229819200Y-38259600D03*
%TO.P,SW6,2,2*%
%TO.N,Net-(D4-Pad2)*%
X224819200Y-36159600D03*
%TD*%
%TO.P,SW5,1,1*%
%TO.N,col3*%
X211810600Y-32925600D03*
%TO.P,SW5,2,2*%
%TO.N,Net-(D3-Pad2)*%
X206810600Y-30825600D03*
%TD*%
%TO.P,SW2,1,1*%
%TO.N,col0*%
X157784800Y-51823200D03*
%TO.P,SW2,2,2*%
%TO.N,Net-(D0-Pad2)*%
X152784800Y-49723200D03*
%TD*%
D12*
%TO.P,RSW1,1,1*%
%TO.N,gnd*%
X275031200Y-82500400D03*
%TO.P,RSW1,2,2*%
%TO.N,reset*%
X275031200Y-89000400D03*
%TD*%
D11*
%TO.P,SW10,1,1*%
%TO.N,col2*%
X193776600Y-56903200D03*
%TO.P,SW10,2,2*%
%TO.N,Net-(D8-Pad2)*%
X188776600Y-54803200D03*
%TD*%
D13*
%TO.P,REF\u002A\u002A,1*%
%TO.N,N/C*%
X240352000Y-42936000D03*
X202252000Y-42936000D03*
X221302000Y-23886000D03*
X221302000Y-61986000D03*
%TD*%
D10*
%TO.P,U2,1,TX*%
%TO.N,unconnected-(U2-Pad1)*%
X33942000Y-49722800D03*
%TO.P,U2,2,RX*%
%TO.N,unconnected-(U2-Pad2)*%
X33942000Y-52262800D03*
%TO.P,U2,3,GND*%
%TO.N,gnd_r*%
X33942000Y-54802800D03*
%TO.P,U2,4,GND*%
X33942000Y-57342800D03*
%TO.P,U2,5,SDA*%
%TO.N,unconnected-(U2-Pad5)*%
X33942000Y-59882800D03*
%TO.P,U2,6,SCL*%
%TO.N,unconnected-(U2-Pad6)*%
X33942000Y-62422800D03*
%TO.P,U2,7,D4*%
%TO.N,row_0r*%
X33942000Y-64962800D03*
%TO.P,U2,8,C6*%
%TO.N,row_1r*%
X33942000Y-67502800D03*
%TO.P,U2,9,D7*%
%TO.N,row_2r*%
X33942000Y-70042800D03*
%TO.P,U2,10,E6*%
%TO.N,row_3r*%
X33942000Y-72582800D03*
%TO.P,U2,11,B4*%
%TO.N,unconnected-(U2-Pad11)*%
X33942000Y-75122800D03*
%TO.P,U2,12,B5*%
%TO.N,unconnected-(U2-Pad12)*%
X33942000Y-77662800D03*
%TO.P,U2,13,B6*%
%TO.N,unconnected-(U2-Pad13)*%
X18722000Y-77662800D03*
%TO.P,U2,14,B2*%
%TO.N,unconnected-(U2-Pad14)*%
X18722000Y-75122800D03*
%TO.P,U2,15,B3*%
%TO.N,col5r*%
X18722000Y-72582800D03*
%TO.P,U2,16,B1*%
%TO.N,col4r*%
X18722000Y-70042800D03*
%TO.P,U2,17,F7*%
%TO.N,col3r*%
X18722000Y-67502800D03*
%TO.P,U2,18,F6*%
%TO.N,col2r*%
X18722000Y-64962800D03*
%TO.P,U2,19,F5*%
%TO.N,col1r*%
X18722000Y-62422800D03*
%TO.P,U2,20,F4*%
%TO.N,col0r*%
X18722000Y-59882800D03*
%TO.P,U2,21,VCC*%
%TO.N,vcc_r*%
X18722000Y-57342800D03*
%TO.P,U2,22,RST*%
%TO.N,reset_r*%
X18722000Y-54802800D03*
%TO.P,U2,23,GND*%
%TO.N,gnd_r*%
X18722000Y-52262800D03*
%TO.P,U2,24,RAW*%
%TO.N,raw_r*%
X18722000Y-49722800D03*
%TD*%
D11*
%TO.P,SW17_r1,1,1*%
%TO.N,col3r*%
X84378800Y-67012400D03*
%TO.P,SW17_r1,2,2*%
%TO.N,Net-(SW17_r1-Pad2)*%
X79378800Y-64912400D03*
%TD*%
%TO.P,SW11_r1,1,1*%
%TO.N,col3r*%
X84353400Y-50019800D03*
%TO.P,SW11_r1,2,2*%
%TO.N,Net-(SW11_r1-Pad2)*%
X79353400Y-47919800D03*
%TD*%
%TO.P,SW15_r1,1,1*%
%TO.N,col1r*%
X120396000Y-85859200D03*
%TO.P,SW15_r1,2,2*%
%TO.N,Net-(Dr13-Pad2)*%
X115396000Y-83759200D03*
%TD*%
%TO.P,SW18_r1,1,1*%
%TO.N,col4r*%
X66344800Y-72321000D03*
%TO.P,SW18_r1,2,2*%
%TO.N,Net-(SW18_r1-Pad2)*%
X61344800Y-70221000D03*
%TD*%
%TO.P,SW6_r1,1,1*%
%TO.N,col4r*%
X66344800Y-38259600D03*
%TO.P,SW6_r1,2,2*%
%TO.N,Net-(Dr4-Pad2)*%
X61344800Y-36159600D03*
%TD*%
%TO.P,SW5_r1,1,1*%
%TO.N,col3r*%
X84378800Y-33001800D03*
%TO.P,SW5_r1,2,2*%
%TO.N,Net-(SW5_r1-Pad2)*%
X79378800Y-30901800D03*
%TD*%
%TO.P,SW2_r1,1,1*%
%TO.N,col0r*%
X138404600Y-51874000D03*
%TO.P,SW2_r1,2,2*%
%TO.N,Net-(Dr0-Pad2)*%
X133404600Y-49774000D03*
%TD*%
%TO.P,SW16_r1,1,1*%
%TO.N,col2r*%
X102412800Y-73895800D03*
%TO.P,SW16_r1,2,2*%
%TO.N,Net-(SW16_r1-Pad2)*%
X97412800Y-71795800D03*
%TD*%
%TO.P,SW4_r1,1,1*%
%TO.N,col2r*%
X102387400Y-39834400D03*
%TO.P,SW4_r1,2,2*%
%TO.N,Net-(Dr2-Pad2)*%
X97387400Y-37734400D03*
%TD*%
%TO.P,SW13_r1,1,1*%
%TO.N,col5r*%
X48336200Y-57843000D03*
%TO.P,SW13_r1,2,2*%
%TO.N,Net-(Dr11-Pad2)*%
X43336200Y-55743000D03*
%TD*%
%TO.P,SW12_r1,1,1*%
%TO.N,col4r*%
X66344800Y-55328400D03*
%TO.P,SW12_r1,2,2*%
%TO.N,Net-(Dr10-Pad2)*%
X61344800Y-53228400D03*
%TD*%
%TO.P,SW3_r1,1,1*%
%TO.N,col1r*%
X120396000Y-51874000D03*
%TO.P,SW3_r1,2,2*%
%TO.N,Net-(SW3_r1-Pad2)*%
X115396000Y-49774000D03*
%TD*%
%TO.P,SW8_r1,1,1*%
%TO.N,col0r*%
X138379200Y-68866600D03*
%TO.P,SW8_r1,2,2*%
%TO.N,Net-(SW8_r1-Pad2)*%
X133379200Y-66766600D03*
%TD*%
%TO.P,SW21_r1,1,1*%
%TO.N,col4r*%
X46250368Y-83455038D03*
%TO.P,SW21_r1,2,2*%
%TO.N,Net-(SW21_r1-Pad2)*%
X51623517Y-84189387D03*
%TD*%
%TO.P,SW9_r1,1,1*%
%TO.N,col1r*%
X120396000Y-68866600D03*
%TO.P,SW9_r1,2,2*%
%TO.N,Net-(SW9_r1-Pad2)*%
X115396000Y-66766600D03*
%TD*%
%TO.P,SW20_r1,1,1*%
%TO.N,col3r*%
X68072000Y-80510800D03*
%TO.P,SW20_r1,2,2*%
%TO.N,Net-(Dr18-Pad2)*%
X73072000Y-82610800D03*
%TD*%
%TO.P,SW7_r1,1,1*%
%TO.N,col5r*%
X48336200Y-40850400D03*
%TO.P,SW7_r1,2,2*%
%TO.N,Net-(Dr5-Pad2)*%
X43336200Y-38750400D03*
%TD*%
D13*
%TO.P,REF\u002A\u002A,1*%
%TO.N,N/C*%
X94407400Y-42878400D03*
X56307400Y-42878400D03*
X75357400Y-61928400D03*
X75357400Y-23828400D03*
%TD*%
D12*
%TO.P,RSW2,1,1*%
%TO.N,gnd_r*%
X21285200Y-88721000D03*
%TO.P,RSW2,2,2*%
%TO.N,reset_r*%
X21285200Y-82221000D03*
%TD*%
D11*
%TO.P,SW13,1,1*%
%TO.N,col5*%
X247827800Y-57944600D03*
%TO.P,SW13,2,2*%
%TO.N,Net-(D11-Pad2)*%
X242827800Y-55844600D03*
%TD*%
%TO.P,SW22,1,1*%
%TO.N,col5*%
X271150901Y-93211003D03*
%TO.P,SW22,2,2*%
%TO.N,Net-(D20-Pad2)*%
X274042151Y-97799104D03*
%TD*%
%TO.P,SW19,1,1*%
%TO.N,col5*%
X247827800Y-75064200D03*
%TO.P,SW19,2,2*%
%TO.N,Net-(D17-Pad2)*%
X242827800Y-72964200D03*
%TD*%
%TO.P,SW19_r1,1,1*%
%TO.N,col5r*%
X48310800Y-74861000D03*
%TO.P,SW19_r1,2,2*%
%TO.N,Net-(Dr17-Pad2)*%
X43310800Y-72761000D03*
%TD*%
D14*
%TO.P,+,1,1*%
%TO.N,BT+*%
X263855200Y-47396400D03*
%TD*%
D11*
%TO.P,SW10_r1,1,1*%
%TO.N,col2r*%
X102387400Y-56877800D03*
%TO.P,SW10_r1,2,2*%
%TO.N,Net-(SW10_r1-Pad2)*%
X97387400Y-54777800D03*
%TD*%
%TO.P,SW22_r1,1,1*%
%TO.N,col5r*%
X25200435Y-93078933D03*
%TO.P,SW22_r1,2,2*%
%TO.N,Net-(Dr20-Pad2)*%
X30500706Y-91931270D03*
%TD*%
D14*
%TO.P,-,1,1*%
%TO.N,gnd*%
X275996400Y-47447200D03*
%TD*%
%TO.P,+,1,1*%
%TO.N,BT+_r*%
X20040600Y-47574200D03*
%TD*%
D11*
%TO.P,SW14_r1,1,1*%
%TO.N,col0r*%
X138379200Y-85884600D03*
%TO.P,SW14_r1,2,2*%
%TO.N,Net-(Dr12-Pad2)*%
X133379200Y-83784600D03*
%TD*%
%TO.P,SW7,1,1*%
%TO.N,col5*%
X247827800Y-40825000D03*
%TO.P,SW7,2,2*%
%TO.N,Net-(D5-Pad2)*%
X242827800Y-38725000D03*
%TD*%
D14*
%TO.P,-,1,1*%
%TO.N,gnd_r*%
X32207200Y-47625000D03*
%TD*%
D15*
%TO.P,D7,1,K*%
%TO.N,row_1*%
X177441400Y-59105800D03*
%TO.P,D7,2,A*%
%TO.N,Net-(D7-Pad2)*%
X173891400Y-59105800D03*
%TD*%
%TO.P,D18,1,K*%
%TO.N,row_3*%
X230298800Y-92303600D03*
%TO.P,D18,2,A*%
%TO.N,Net-(D18-Pad2)*%
X226748800Y-92303600D03*
%TD*%
%TO.P,Dr16,1,K*%
%TO.N,row_2r*%
X64544400Y-62382400D03*
%TO.P,Dr16,2,A*%
%TO.N,Net-(SW18_r1-Pad2)*%
X68094400Y-62382400D03*
%TD*%
%TO.P,Dr6,1,K*%
%TO.N,row_1r*%
X136629600Y-59029600D03*
%TO.P,Dr6,2,A*%
%TO.N,Net-(SW8_r1-Pad2)*%
X140179600Y-59029600D03*
%TD*%
%TO.P,Dr15,1,K*%
%TO.N,row_2r*%
X82553000Y-57251600D03*
%TO.P,Dr15,2,A*%
%TO.N,Net-(SW17_r1-Pad2)*%
X86103000Y-57251600D03*
%TD*%
%TO.P,Dr3,1,K*%
%TO.N,row_0r*%
X82476800Y-23266400D03*
%TO.P,Dr3,2,A*%
%TO.N,Net-(SW5_r1-Pad2)*%
X86026800Y-23266400D03*
%TD*%
%TO.P,Dr18,1,K*%
%TO.N,row_3r*%
X66398600Y-91948000D03*
%TO.P,Dr18,2,A*%
%TO.N,Net-(Dr18-Pad2)*%
X69948600Y-91948000D03*
%TD*%
%TO.P,Dr9,1,K*%
%TO.N,row_1r*%
X82476800Y-40030400D03*
%TO.P,Dr9,2,A*%
%TO.N,Net-(SW11_r1-Pad2)*%
X86026800Y-40030400D03*
%TD*%
%TO.P,D11,1,K*%
%TO.N,row_1*%
X249628200Y-48107600D03*
%TO.P,D11,2,A*%
%TO.N,Net-(D11-Pad2)*%
X246078200Y-48107600D03*
%TD*%
%TO.P,D17,1,K*%
%TO.N,row_2*%
X249628200Y-65227200D03*
%TO.P,D17,2,A*%
%TO.N,Net-(D17-Pad2)*%
X246078200Y-65227200D03*
%TD*%
%TO.P,D15,1,K*%
%TO.N,row_2*%
X213661800Y-57378600D03*
%TO.P,D15,2,A*%
%TO.N,Net-(D15-Pad2)*%
X210111800Y-57378600D03*
%TD*%
%TO.P,D2,1,K*%
%TO.N,row_0*%
X195602400Y-29972000D03*
%TO.P,D2,2,A*%
%TO.N,Net-(D2-Pad2)*%
X192052400Y-29972000D03*
%TD*%
%TO.P,Dr4,1,K*%
%TO.N,row_0r*%
X64544400Y-28397200D03*
%TO.P,Dr4,2,A*%
%TO.N,Net-(Dr4-Pad2)*%
X68094400Y-28397200D03*
%TD*%
%TO.P,D13,1,K*%
%TO.N,row_2*%
X177670000Y-76301600D03*
%TO.P,D13,2,A*%
%TO.N,Net-(D13-Pad2)*%
X174120000Y-76301600D03*
%TD*%
%TO.P,Dr10,1,K*%
%TO.N,row_1r*%
X64544400Y-45440600D03*
%TO.P,Dr10,2,A*%
%TO.N,Net-(Dr10-Pad2)*%
X68094400Y-45440600D03*
%TD*%
D16*
%TO.P,SW_POWER1,*%
%TO.N,*%
X273525000Y-47228800D03*
X266225000Y-49438800D03*
X273525000Y-49438800D03*
X266225000Y-47228800D03*
D17*
%TO.P,SW_POWER1,1,A*%
%TO.N,unconnected-(SW_POWER1-Pad1)*%
X267625000Y-50088800D03*
%TO.P,SW_POWER1,2,B*%
%TO.N,BT+*%
X270625000Y-50088800D03*
%TO.P,SW_POWER1,3,C*%
%TO.N,raw*%
X272125000Y-50088800D03*
%TD*%
D15*
%TO.P,D6,1,K*%
%TO.N,row_1*%
X159610600Y-59131200D03*
%TO.P,D6,2,A*%
%TO.N,Net-(D6-Pad2)*%
X156060600Y-59131200D03*
%TD*%
%TO.P,D3,1,K*%
%TO.N,row_0*%
X213636400Y-23164800D03*
%TO.P,D3,2,A*%
%TO.N,Net-(D3-Pad2)*%
X210086400Y-23164800D03*
%TD*%
%TO.P,Dr11,1,K*%
%TO.N,row_1r*%
X46510400Y-48107600D03*
%TO.P,Dr11,2,A*%
%TO.N,Net-(Dr11-Pad2)*%
X50060400Y-48107600D03*
%TD*%
%TO.P,Dr2,1,K*%
%TO.N,row_0r*%
X100587000Y-29972000D03*
%TO.P,Dr2,2,A*%
%TO.N,Net-(Dr2-Pad2)*%
X104137000Y-29972000D03*
%TD*%
D18*
%TO.P,D20,1,K*%
%TO.N,row_3*%
X266020395Y-103583298D03*
%TO.P,D20,2,A*%
%TO.N,Net-(D20-Pad2)*%
X263112405Y-101547102D03*
%TD*%
D15*
%TO.P,D16,1,K*%
%TO.N,row_2*%
X231543400Y-62738000D03*
%TO.P,D16,2,A*%
%TO.N,Net-(D16-Pad2)*%
X227993400Y-62738000D03*
%TD*%
%TO.P,Dr0,1,K*%
%TO.N,row_0r*%
X136731200Y-42138600D03*
%TO.P,Dr0,2,A*%
%TO.N,Net-(Dr0-Pad2)*%
X140281200Y-42138600D03*
%TD*%
D19*
%TO.P,Dr20,1,K*%
%TO.N,row_3r*%
X30423005Y-103456298D03*
%TO.P,Dr20,2,A*%
%TO.N,Net-(Dr20-Pad2)*%
X33330995Y-101420102D03*
%TD*%
D15*
%TO.P,Dr7,1,K*%
%TO.N,row_1r*%
X118595600Y-59182000D03*
%TO.P,Dr7,2,A*%
%TO.N,Net-(SW9_r1-Pad2)*%
X122145600Y-59182000D03*
%TD*%
%TO.P,Dr5,1,K*%
%TO.N,row_0r*%
X46510400Y-31064200D03*
%TO.P,Dr5,2,A*%
%TO.N,Net-(Dr5-Pad2)*%
X50060400Y-31064200D03*
%TD*%
%TO.P,Dr12,1,K*%
%TO.N,row_2r*%
X136578800Y-76047600D03*
%TO.P,Dr12,2,A*%
%TO.N,Net-(Dr12-Pad2)*%
X140128800Y-76047600D03*
%TD*%
D20*
%TO.P,D19,1,K*%
%TO.N,row_3*%
X249008918Y-95150604D03*
%TO.P,D19,2,A*%
%TO.N,Net-(D19-Pad2)*%
X245579882Y-94231796D03*
%TD*%
D15*
%TO.P,Dr1,1,K*%
%TO.N,row_0r*%
X118519400Y-42087800D03*
%TO.P,Dr1,2,A*%
%TO.N,Net-(SW3_r1-Pad2)*%
X122069400Y-42087800D03*
%TD*%
D16*
%TO.P,SW_POWERR1,*%
%TO.N,*%
X22512000Y-47101800D03*
X29812000Y-47101800D03*
X22512000Y-49311800D03*
X29812000Y-49311800D03*
D17*
%TO.P,SW_POWERR1,1,A*%
%TO.N,unconnected-(SW_POWERR1-Pad1)*%
X23912000Y-49961800D03*
%TO.P,SW_POWERR1,2,B*%
%TO.N,BT+_r*%
X26912000Y-49961800D03*
%TO.P,SW_POWERR1,3,C*%
%TO.N,raw_r*%
X28412000Y-49961800D03*
%TD*%
D15*
%TO.P,Dr14,1,K*%
%TO.N,row_2r*%
X100587000Y-64287400D03*
%TO.P,Dr14,2,A*%
%TO.N,Net-(SW16_r1-Pad2)*%
X104137000Y-64287400D03*
%TD*%
%TO.P,D10,1,K*%
%TO.N,row_1*%
X231568800Y-45669200D03*
%TO.P,D10,2,A*%
%TO.N,Net-(D10-Pad2)*%
X228018800Y-45669200D03*
%TD*%
%TO.P,D9,1,K*%
%TO.N,row_1*%
X213585600Y-40335200D03*
%TO.P,D9,2,A*%
%TO.N,Net-(D9-Pad2)*%
X210035600Y-40335200D03*
%TD*%
%TO.P,Dr13,1,K*%
%TO.N,row_2r*%
X118646400Y-76174600D03*
%TO.P,Dr13,2,A*%
%TO.N,Net-(Dr13-Pad2)*%
X122196400Y-76174600D03*
%TD*%
%TO.P,D12,1,K*%
%TO.N,row_2*%
X159559800Y-76377800D03*
%TO.P,D12,2,A*%
%TO.N,Net-(D12-Pad2)*%
X156009800Y-76377800D03*
%TD*%
%TO.P,D4,1,K*%
%TO.N,row_0*%
X231619600Y-28549600D03*
%TO.P,D4,2,A*%
%TO.N,Net-(D4-Pad2)*%
X228069600Y-28549600D03*
%TD*%
%TO.P,D0,1,K*%
%TO.N,row_0*%
X159559800Y-41783000D03*
%TO.P,D0,2,A*%
%TO.N,Net-(D0-Pad2)*%
X156009800Y-41783000D03*
%TD*%
%TO.P,D14,1,K*%
%TO.N,row_2*%
X195551600Y-64414400D03*
%TO.P,D14,2,A*%
%TO.N,Net-(D14-Pad2)*%
X192001600Y-64414400D03*
%TD*%
%TO.P,Dr8,1,K*%
%TO.N,row_1r*%
X100587000Y-47040800D03*
%TO.P,Dr8,2,A*%
%TO.N,Net-(SW10_r1-Pad2)*%
X104137000Y-47040800D03*
%TD*%
D21*
%TO.P,Dr19,1,K*%
%TO.N,row_3r*%
X47586882Y-95049004D03*
%TO.P,Dr19,2,A*%
%TO.N,Net-(SW21_r1-Pad2)*%
X51015918Y-94130196D03*
%TD*%
D15*
%TO.P,D5,1,K*%
%TO.N,row_0*%
X249628200Y-31064200D03*
%TO.P,D5,2,A*%
%TO.N,Net-(D5-Pad2)*%
X246078200Y-31064200D03*
%TD*%
%TO.P,Dr17,1,K*%
%TO.N,row_2r*%
X46510400Y-65049400D03*
%TO.P,Dr17,2,A*%
%TO.N,Net-(Dr17-Pad2)*%
X50060400Y-65049400D03*
%TD*%
%TO.P,D1,1,K*%
%TO.N,row_0*%
X177593800Y-41960800D03*
%TO.P,D1,2,A*%
%TO.N,Net-(D1-Pad2)*%
X174043800Y-41960800D03*
%TD*%
%TO.P,D8,1,K*%
%TO.N,row_1*%
X195602400Y-47193200D03*
%TO.P,D8,2,A*%
%TO.N,Net-(D8-Pad2)*%
X192052400Y-47193200D03*
%TD*%
D22*
%TO.N,col0*%
X208178400Y-83185000D03*
X250596400Y-77749400D03*
X213436200Y-79349600D03*
%TO.N,col1*%
X251231400Y-79070200D03*
X214172800Y-80568800D03*
%TO.N,col2*%
X252526800Y-79933800D03*
%TO.N,col3*%
X253390400Y-81254600D03*
%TO.N,col4*%
X254381000Y-82296000D03*
%TO.N,row_0r*%
X81534000Y-33172400D03*
X81534000Y-28168600D03*
X45389800Y-36042600D03*
X45389800Y-41173400D03*
%TO.N,col0r*%
X79044800Y-79425800D03*
X78308200Y-75641200D03*
X42595800Y-79222600D03*
%TO.N,col1r*%
X77241400Y-77038200D03*
X41122600Y-79883000D03*
%TO.N,col2r*%
X40411400Y-81051400D03*
%TO.N,col3r*%
X39039800Y-81889600D03*
%TO.N,col4r*%
X36779200Y-83464400D03*
%TD*%
D23*
%TO.N,BT+*%
X270357600Y-52197000D02*
X270625000Y-51929600D01*
X270625000Y-51929600D02*
X270625000Y-50088800D01*
X263855200Y-49199800D02*
X266852400Y-52197000D01*
X263855200Y-47396400D02*
X263855200Y-49199800D01*
X266852400Y-52197000D02*
X270357600Y-52197000D01*
%TO.N,gnd*%
X275996400Y-47447200D02*
X275996400Y-48793400D01*
X275488400Y-49301400D02*
X275488400Y-52758600D01*
X275996400Y-48793400D02*
X275488400Y-49301400D01*
X265597600Y-54930000D02*
X277659800Y-54930000D01*
X262439800Y-52390000D02*
X264202600Y-54152800D01*
X264202600Y-54152800D02*
X264820400Y-54152800D01*
X277659800Y-54930000D02*
X277659800Y-57470000D01*
X275488400Y-52758600D02*
X277659800Y-54930000D01*
X264820400Y-54152800D02*
X265597600Y-54930000D01*
%TO.N,raw*%
X272135600Y-52933600D02*
X272125000Y-52923000D01*
X262439800Y-49850000D02*
X265929800Y-53340000D01*
X272125000Y-52923000D02*
X272125000Y-50088800D01*
X271729200Y-53340000D02*
X272135600Y-52933600D01*
X265929800Y-53340000D02*
X271729200Y-53340000D01*
%TO.N,BT+_r*%
X20040600Y-48945800D02*
X22199600Y-51104800D01*
X22199600Y-52679600D02*
X22529800Y-53009800D01*
X25247600Y-53009800D02*
X26912000Y-51345400D01*
X22529800Y-53009800D02*
X25247600Y-53009800D01*
X22199600Y-51104800D02*
X22199600Y-52679600D01*
X26912000Y-51345400D02*
X26912000Y-49961800D01*
X20040600Y-47574200D02*
X20040600Y-48945800D01*
%TO.N,reset_r*%
X21285200Y-57366000D02*
X18722000Y-54802800D01*
X21285200Y-82221000D02*
X21285200Y-57366000D01*
%TO.N,gnd_r*%
X32207200Y-47625000D02*
X32207200Y-50419000D01*
X21285200Y-86004400D02*
X26492200Y-80797400D01*
X26492200Y-80797400D02*
X26492200Y-63246000D01*
X32207200Y-54838600D02*
X32243000Y-54802800D01*
X30988000Y-51638200D02*
X30988000Y-53619400D01*
X26492200Y-63246000D02*
X32395400Y-57342800D01*
X33942000Y-54802800D02*
X33942000Y-57342800D01*
X19735800Y-53276600D02*
X19735800Y-54000400D01*
X32382200Y-56362600D02*
X33942000Y-54802800D01*
X32207200Y-50419000D02*
X30988000Y-51638200D01*
X30988000Y-53619400D02*
X32207200Y-54838600D01*
X22098000Y-56362600D02*
X32382200Y-56362600D01*
X21285200Y-88721000D02*
X21285200Y-86004400D01*
X18722000Y-52262800D02*
X19735800Y-53276600D01*
X32395400Y-57342800D02*
X33942000Y-57342800D01*
X19735800Y-54000400D02*
X22098000Y-56362600D01*
X32243000Y-54802800D02*
X33942000Y-54802800D01*
%TO.N,row_0*%
X161391600Y-39674800D02*
X175514000Y-39674800D01*
X215239600Y-29159200D02*
X216077800Y-29997400D01*
X195602400Y-29972000D02*
X195602400Y-29721000D01*
X186156600Y-38811200D02*
X186156600Y-28041600D01*
X213636400Y-23034800D02*
X213636400Y-23164800D01*
X186156600Y-28041600D02*
X186893200Y-27305000D01*
X185953400Y-39014400D02*
X186156600Y-38811200D01*
X216077800Y-29997400D02*
X220421200Y-29997400D01*
X262686800Y-85877400D02*
X264363200Y-85877400D01*
X273050000Y-68427600D02*
X276387600Y-65090000D01*
X159559800Y-41783000D02*
X159559800Y-41506600D01*
X256794000Y-49377600D02*
X256794000Y-79984600D01*
X249628200Y-32178800D02*
X251282200Y-33832800D01*
X195602400Y-29537200D02*
X195602400Y-29972000D01*
X233070400Y-30581600D02*
X238912400Y-30581600D01*
X215239600Y-25908000D02*
X215239600Y-29159200D01*
X229590600Y-26187400D02*
X231619600Y-28216400D01*
X159559800Y-41506600D02*
X161391600Y-39674800D01*
X204063600Y-25501600D02*
X204063600Y-21767800D01*
X177593800Y-41960800D02*
X178638200Y-41960800D01*
X204952600Y-20878800D02*
X211480400Y-20878800D01*
X211480400Y-20878800D02*
X213636400Y-23034800D01*
X251282200Y-33832800D02*
X251282200Y-43865800D01*
X231619600Y-29130800D02*
X233070400Y-30581600D01*
X181584600Y-39014400D02*
X185953400Y-39014400D01*
X240842800Y-28651200D02*
X247215200Y-28651200D01*
X195602400Y-29721000D02*
X198170800Y-27152600D01*
X264363200Y-85877400D02*
X273050000Y-77190600D01*
X220421200Y-29997400D02*
X224231200Y-26187400D01*
X193370200Y-27305000D02*
X195602400Y-29537200D01*
X177593800Y-41754600D02*
X177593800Y-41960800D01*
X251282200Y-43865800D02*
X256794000Y-49377600D01*
X213636400Y-23164800D02*
X213636400Y-24304800D01*
X178638200Y-41960800D02*
X181584600Y-39014400D01*
X276387600Y-65090000D02*
X277659800Y-65090000D01*
X247215200Y-28651200D02*
X249628200Y-31064200D01*
X249628200Y-31064200D02*
X249628200Y-32178800D01*
X198170800Y-27152600D02*
X202412600Y-27152600D01*
X224231200Y-26187400D02*
X229590600Y-26187400D01*
X231619600Y-28549600D02*
X231619600Y-29130800D01*
X204063600Y-21767800D02*
X204952600Y-20878800D01*
X186893200Y-27305000D02*
X193370200Y-27305000D01*
X238912400Y-30581600D02*
X240842800Y-28651200D01*
X273050000Y-77190600D02*
X273050000Y-68427600D01*
X202412600Y-27152600D02*
X204063600Y-25501600D01*
X175514000Y-39674800D02*
X177593800Y-41754600D01*
X256794000Y-79984600D02*
X262686800Y-85877400D01*
X231619600Y-28216400D02*
X231619600Y-28549600D01*
X213636400Y-24304800D02*
X215239600Y-25908000D01*
%TO.N,Net-(D0-Pad2)*%
X154508200Y-47999800D02*
X152784800Y-49723200D01*
X154508200Y-44805600D02*
X154508200Y-47999800D01*
X156009800Y-41783000D02*
X156009800Y-43304000D01*
X156009800Y-43304000D02*
X154508200Y-44805600D01*
%TO.N,Net-(D2-Pad2)*%
X192052400Y-31391400D02*
X190474600Y-32969200D01*
X192052400Y-29972000D02*
X192052400Y-31391400D01*
X190474600Y-32969200D02*
X190474600Y-36011000D01*
X190474600Y-36011000D02*
X188802000Y-37683600D01*
%TO.N,row_1*%
X213585600Y-40335200D02*
X213842600Y-40335200D01*
X159639000Y-59131200D02*
X162102800Y-56667400D01*
X212471000Y-38404800D02*
X213585600Y-39519400D01*
X195602400Y-44656200D02*
X201853800Y-38404800D01*
X231568800Y-45669200D02*
X233423000Y-47523400D01*
X184785000Y-49911000D02*
X184785000Y-46710600D01*
X162102800Y-56667400D02*
X175003000Y-56667400D01*
X264642600Y-87172800D02*
X274040600Y-77774800D01*
X201853800Y-38404800D02*
X212471000Y-38404800D01*
X216687400Y-37490400D02*
X219837000Y-37490400D01*
X195602400Y-46860000D02*
X195602400Y-47193200D01*
X229743000Y-43586400D02*
X231568800Y-45412200D01*
X213585600Y-39519400D02*
X213585600Y-40335200D01*
X159610600Y-59131200D02*
X159639000Y-59131200D01*
X186969400Y-44526200D02*
X193268600Y-44526200D01*
X255930400Y-80340200D02*
X262763000Y-87172800D01*
X233423000Y-47523400D02*
X240538000Y-47523400D01*
X249916821Y-48396221D02*
X249916821Y-50120421D01*
X255930400Y-65532000D02*
X255930400Y-80340200D01*
X249916821Y-50120421D02*
X251587000Y-51790600D01*
X247777000Y-45770800D02*
X249628200Y-47622000D01*
X251587000Y-51790600D02*
X251587000Y-61188600D01*
X249628200Y-48107600D02*
X249916821Y-48396221D01*
X274040600Y-77774800D02*
X274040600Y-69900800D01*
X177441400Y-57254600D02*
X184785000Y-49911000D01*
X231568800Y-45412200D02*
X231568800Y-45669200D01*
X195602400Y-47193200D02*
X195602400Y-44656200D01*
X219837000Y-37490400D02*
X225933000Y-43586400D01*
X274040600Y-69900800D02*
X276311400Y-67630000D01*
X225933000Y-43586400D02*
X229743000Y-43586400D01*
X242290600Y-45770800D02*
X247777000Y-45770800D01*
X240538000Y-47523400D02*
X242290600Y-45770800D01*
X184785000Y-46710600D02*
X186969400Y-44526200D01*
X249628200Y-47622000D02*
X249628200Y-48107600D01*
X175003000Y-56667400D02*
X177441400Y-59105800D01*
X213842600Y-40335200D02*
X216687400Y-37490400D01*
X262763000Y-87172800D02*
X264642600Y-87172800D01*
X276311400Y-67630000D02*
X277659800Y-67630000D01*
X177441400Y-59105800D02*
X177441400Y-57254600D01*
X251587000Y-61188600D02*
X255930400Y-65532000D01*
X193268600Y-44526200D02*
X195602400Y-46860000D01*
%TO.N,Net-(D6-Pad2)*%
X154330400Y-62026800D02*
X154330400Y-65297200D01*
X156060600Y-59131200D02*
X156060600Y-60296600D01*
X154330400Y-65297200D02*
X152784800Y-66842800D01*
X156060600Y-60296600D02*
X154330400Y-62026800D01*
%TO.N,Net-(D7-Pad2)*%
X172643800Y-64967000D02*
X170793400Y-66817400D01*
X173891400Y-60474400D02*
X172643800Y-61722000D01*
X172643800Y-61722000D02*
X172643800Y-64967000D01*
X173891400Y-59105800D02*
X173891400Y-60474400D01*
%TO.N,Net-(D8-Pad2)*%
X192052400Y-48282400D02*
X190601600Y-49733200D01*
X190601600Y-49733200D02*
X190601600Y-52978200D01*
X190601600Y-52978200D02*
X188776600Y-54803200D01*
X192052400Y-47193200D02*
X192052400Y-48282400D01*
%TO.N,row_2*%
X177670000Y-75384200D02*
X177670000Y-76301600D01*
X203581000Y-55321200D02*
X211709000Y-55321200D01*
X231978200Y-62738000D02*
X234721400Y-59994800D01*
X195551600Y-63350600D02*
X203581000Y-55321200D01*
X255193800Y-81076800D02*
X262813800Y-88696800D01*
X162077400Y-73634600D02*
X175920400Y-73634600D01*
X249628200Y-65227200D02*
X251123808Y-65227200D01*
X178130200Y-76301600D02*
X184581800Y-69850000D01*
X274726400Y-73103400D02*
X277659800Y-70170000D01*
X252673208Y-66776600D02*
X253593600Y-66776600D01*
X213661800Y-57378600D02*
X214960200Y-57378600D01*
X185572400Y-61239400D02*
X191084200Y-61239400D01*
X177670000Y-76301600D02*
X178130200Y-76301600D01*
X184581800Y-69850000D02*
X184581800Y-62230000D01*
X234721400Y-59994800D02*
X239903000Y-59994800D01*
X191084200Y-61239400D02*
X194259200Y-64414400D01*
X239903000Y-59994800D02*
X242697000Y-62788800D01*
X231543400Y-62738000D02*
X231978200Y-62738000D01*
X227631800Y-58826400D02*
X231543400Y-62738000D01*
X213661800Y-57274000D02*
X213661800Y-57378600D01*
X242697000Y-62788800D02*
X247189800Y-62788800D01*
X251123808Y-65227200D02*
X252673208Y-66776600D01*
X247189800Y-62788800D02*
X249628200Y-65227200D01*
X159559800Y-76377800D02*
X159559800Y-76152200D01*
X274726400Y-78511400D02*
X274726400Y-73103400D01*
X159559800Y-76152200D02*
X162077400Y-73634600D01*
X253593600Y-66776600D02*
X255193800Y-68376800D01*
X214960200Y-57378600D02*
X216408000Y-58826400D01*
X184581800Y-62230000D02*
X185572400Y-61239400D01*
X195551600Y-64414400D02*
X195551600Y-63350600D01*
X175920400Y-73634600D02*
X177670000Y-75384200D01*
X216408000Y-58826400D02*
X227631800Y-58826400D01*
X194259200Y-64414400D02*
X195551600Y-64414400D01*
X211709000Y-55321200D02*
X213661800Y-57274000D01*
X264541000Y-88696800D02*
X274726400Y-78511400D01*
X255193800Y-68376800D02*
X255193800Y-81076800D01*
X262813800Y-88696800D02*
X264541000Y-88696800D01*
%TO.N,Net-(D12-Pad2)*%
X155721179Y-76666421D02*
X155721179Y-77755621D01*
X154406600Y-82366000D02*
X152810200Y-83962400D01*
X156009800Y-76377800D02*
X155721179Y-76666421D01*
X154406600Y-79070200D02*
X154406600Y-82366000D01*
X155721179Y-77755621D02*
X154406600Y-79070200D01*
%TO.N,Net-(D13-Pad2)*%
X172720000Y-78638400D02*
X172720000Y-82035800D01*
X174120000Y-76301600D02*
X174120000Y-77238400D01*
X172720000Y-82035800D02*
X170818800Y-83937000D01*
X174120000Y-77238400D02*
X172720000Y-78638400D01*
%TO.N,Net-(D14-Pad2)*%
X192001600Y-64414400D02*
X192001600Y-65630600D01*
X190550800Y-67081400D02*
X190550800Y-70148600D01*
X192001600Y-65630600D02*
X190550800Y-67081400D01*
X190550800Y-70148600D02*
X188776600Y-71922800D01*
%TO.N,Net-(D15-Pad2)*%
X208483200Y-63341400D02*
X206785200Y-65039400D01*
X210111800Y-57378600D02*
X210111800Y-58467800D01*
X208483200Y-60096400D02*
X208483200Y-63341400D01*
X210111800Y-58467800D02*
X208483200Y-60096400D01*
%TO.N,row_3*%
X276387600Y-72710000D02*
X277659800Y-72710000D01*
X265072302Y-103583298D02*
X266020395Y-103583298D01*
X230298800Y-93773800D02*
X233248200Y-96723200D01*
X250243004Y-95150604D02*
X253365000Y-98272600D01*
X256286000Y-98272600D02*
X275691600Y-78867000D01*
X262178800Y-105181400D02*
X263474200Y-105181400D01*
X275691600Y-78867000D02*
X275691600Y-73406000D01*
X253365000Y-98272600D02*
X256286000Y-98272600D01*
X251561600Y-100076000D02*
X257073400Y-100076000D01*
X233248200Y-96723200D02*
X246583200Y-96723200D01*
X246583200Y-96723200D02*
X248155796Y-95150604D01*
X275691600Y-73406000D02*
X276387600Y-72710000D01*
X249008918Y-95150604D02*
X249008918Y-97523318D01*
X257073400Y-100076000D02*
X262178800Y-105181400D01*
X249008918Y-97523318D02*
X251561600Y-100076000D01*
X249008918Y-95150604D02*
X250243004Y-95150604D01*
X263474200Y-105181400D02*
X265072302Y-103583298D01*
X248155796Y-95150604D02*
X249008918Y-95150604D01*
X230298800Y-92303600D02*
X230298800Y-93773800D01*
%TO.N,Net-(D19-Pad2)*%
X247751600Y-86283800D02*
X250215400Y-86283800D01*
X244424200Y-91567000D02*
X244424200Y-89611200D01*
X244424200Y-89611200D02*
X247751600Y-86283800D01*
X245579882Y-92722682D02*
X244424200Y-91567000D01*
X245579882Y-94231796D02*
X245579882Y-92722682D01*
X250912377Y-86980777D02*
X254479142Y-86980777D01*
X250215400Y-86283800D02*
X250912377Y-86980777D01*
%TO.N,Net-(D20-Pad2)*%
X263112405Y-101547102D02*
X263112405Y-98456595D01*
X271814504Y-97799104D02*
X274042151Y-97799104D01*
X268986000Y-94970600D02*
X271814504Y-97799104D01*
X266598400Y-94970600D02*
X268986000Y-94970600D01*
X263112405Y-98456595D02*
X266598400Y-94970600D01*
%TO.N,col0*%
X157810200Y-86062400D02*
X159073000Y-87325200D01*
X221919800Y-79349600D02*
X223850200Y-77419200D01*
X159073000Y-87325200D02*
X170916600Y-87325200D01*
X213436200Y-79349600D02*
X221919800Y-79349600D01*
X232105200Y-78333600D02*
X250012200Y-78333600D01*
X250012200Y-78333600D02*
X250596400Y-77749400D01*
X171323000Y-87325200D02*
X175463200Y-83185000D01*
X170916600Y-87325200D02*
X171323000Y-87325200D01*
X223850200Y-77419200D02*
X231190800Y-77419200D01*
X231190800Y-77419200D02*
X232105200Y-78333600D01*
X175463200Y-83185000D02*
X208178400Y-83185000D01*
%TO.N,col1*%
X222631000Y-80568800D02*
X222681800Y-80518000D01*
X224934720Y-78265080D02*
X230715880Y-78265080D01*
X230715880Y-78265080D02*
X230784400Y-78333600D01*
X214172800Y-80568800D02*
X222631000Y-80568800D01*
X231521000Y-79070200D02*
X251231400Y-79070200D01*
X222681800Y-80518000D02*
X224934720Y-78265080D01*
X230784400Y-78333600D02*
X231521000Y-79070200D01*
%TO.N,col2*%
X199727400Y-74022800D02*
X207365600Y-81661000D01*
X252450600Y-80010000D02*
X252526800Y-79933800D01*
X230581200Y-80010000D02*
X252450600Y-80010000D01*
X229285800Y-78714600D02*
X230581200Y-80010000D01*
X226466400Y-78714600D02*
X229285800Y-78714600D01*
X193776600Y-74022800D02*
X199727400Y-74022800D01*
X223520000Y-81661000D02*
X226466400Y-78714600D01*
X207365600Y-81661000D02*
X223520000Y-81661000D01*
%TO.N,col3*%
X228473000Y-80739400D02*
X252875200Y-80739400D01*
X252875200Y-80739400D02*
X253390400Y-81254600D01*
%TO.N,col4*%
X250193032Y-83658238D02*
X253018762Y-83658238D01*
X253018762Y-83658238D02*
X254381000Y-82296000D01*
%TO.N,Net-(D1-Pad2)*%
X172516800Y-47999800D02*
X170793400Y-49723200D01*
X174043800Y-41960800D02*
X174043800Y-43151600D01*
X174043800Y-43151600D02*
X172516800Y-44678600D01*
X172516800Y-44678600D02*
X172516800Y-47999800D01*
%TO.N,Net-(D3-Pad2)*%
X210086400Y-23164800D02*
X210086400Y-24203200D01*
X208381600Y-29254600D02*
X206810600Y-30825600D01*
X208381600Y-25908000D02*
X208381600Y-29254600D01*
X210086400Y-24203200D02*
X208381600Y-25908000D01*
%TO.N,Net-(D4-Pad2)*%
X226441000Y-34537800D02*
X224819200Y-36159600D01*
X228069600Y-29613400D02*
X226441000Y-31242000D01*
X226441000Y-31242000D02*
X226441000Y-34537800D01*
X228069600Y-28549600D02*
X228069600Y-29613400D01*
%TO.N,Net-(D5-Pad2)*%
X246078200Y-32737600D02*
X244373400Y-34442400D01*
X244373400Y-37179400D02*
X242827800Y-38725000D01*
X246078200Y-31064200D02*
X246078200Y-32737600D01*
X244373400Y-34442400D02*
X244373400Y-37179400D01*
%TO.N,Net-(D9-Pad2)*%
X210035600Y-41348200D02*
X208330800Y-43053000D01*
X210035600Y-40335200D02*
X210035600Y-41348200D01*
X208330800Y-46374200D02*
X206785200Y-47919800D01*
X208330800Y-43053000D02*
X208330800Y-46374200D01*
%TO.N,Net-(D10-Pad2)*%
X226568000Y-51505000D02*
X224793800Y-53279200D01*
X226568000Y-48463200D02*
X226568000Y-51505000D01*
X228018800Y-47012400D02*
X226568000Y-48463200D01*
X228018800Y-45669200D02*
X228018800Y-47012400D01*
%TO.N,Net-(D11-Pad2)*%
X246078200Y-49120600D02*
X244500400Y-50698400D01*
X246078200Y-48107600D02*
X246078200Y-49120600D01*
X244500400Y-54172000D02*
X242827800Y-55844600D01*
X244500400Y-50698400D02*
X244500400Y-54172000D01*
%TO.N,Net-(D16-Pad2)*%
X226517200Y-65430400D02*
X226517200Y-68675400D01*
X226517200Y-68675400D02*
X224793800Y-70398800D01*
X227993400Y-63954200D02*
X226517200Y-65430400D01*
X227993400Y-62738000D02*
X227993400Y-63954200D01*
%TO.N,Net-(D17-Pad2)*%
X244246400Y-68148200D02*
X244246400Y-71545600D01*
X244246400Y-71545600D02*
X242827800Y-72964200D01*
X246078200Y-66316400D02*
X244246400Y-68148200D01*
X246078200Y-65227200D02*
X246078200Y-66316400D01*
%TO.N,Net-(D18-Pad2)*%
X227787200Y-89992200D02*
X229768400Y-89992200D01*
X231470200Y-84842200D02*
X233473000Y-82839400D01*
X229768400Y-89992200D02*
X231470200Y-88290400D01*
X226748800Y-91030600D02*
X227787200Y-89992200D01*
X231470200Y-88290400D02*
X231470200Y-84842200D01*
X226748800Y-92303600D02*
X226748800Y-91030600D01*
%TO.N,raw_r*%
X20650200Y-51651000D02*
X20650200Y-53365400D01*
X18722000Y-49722800D02*
X20650200Y-51651000D01*
X21183600Y-53898800D02*
X26416000Y-53898800D01*
X20650200Y-53365400D02*
X21183600Y-53898800D01*
X26416000Y-53898800D02*
X28412000Y-51902800D01*
X28412000Y-51902800D02*
X28412000Y-49961800D01*
%TO.N,row_0r*%
X136731200Y-42138600D02*
X134496000Y-39903400D01*
X45389800Y-41173400D02*
X45389800Y-42494200D01*
X118519400Y-42087800D02*
X118519400Y-42065400D01*
X45389800Y-32184800D02*
X45389800Y-36042600D01*
X76352400Y-35407600D02*
X74955400Y-34010600D01*
X91592400Y-26187400D02*
X91592400Y-21107400D01*
X80086200Y-35407600D02*
X76352400Y-35407600D01*
X84635800Y-21107400D02*
X82476800Y-23266400D01*
X100587000Y-29822600D02*
X97866200Y-27101800D01*
X81534000Y-26009600D02*
X81534000Y-28168600D01*
X63703200Y-28397200D02*
X61798200Y-30302200D01*
X37566600Y-64084200D02*
X36688000Y-64962800D01*
X74955400Y-28041600D02*
X74980800Y-28016200D01*
X81534000Y-33959800D02*
X80086200Y-35407600D01*
X64544400Y-28397200D02*
X63703200Y-28397200D01*
X54711600Y-28702000D02*
X48872600Y-28702000D01*
X118519400Y-42059400D02*
X118519400Y-42087800D01*
X115747800Y-39293800D02*
X111277400Y-39293800D01*
X111277400Y-39293800D02*
X110032800Y-38049200D01*
X102082600Y-27787600D02*
X100587000Y-29283200D01*
X73558400Y-26593800D02*
X66347800Y-26593800D01*
X118519400Y-42065400D02*
X115747800Y-39293800D01*
X100587000Y-29972000D02*
X100587000Y-29822600D01*
X91592400Y-21107400D02*
X84635800Y-21107400D01*
X100587000Y-29283200D02*
X100587000Y-29972000D01*
X37566600Y-50317400D02*
X37566600Y-64084200D01*
X45389800Y-42494200D02*
X37566600Y-50317400D01*
X56311800Y-30302200D02*
X54711600Y-28702000D01*
X97866200Y-27101800D02*
X92506800Y-27101800D01*
X82476800Y-25066800D02*
X81534000Y-26009600D01*
X120675400Y-39903400D02*
X118519400Y-42059400D01*
X92506800Y-27101800D02*
X91592400Y-26187400D01*
X134496000Y-39903400D02*
X120675400Y-39903400D01*
X74955400Y-34010600D02*
X74955400Y-28041600D01*
X82476800Y-23266400D02*
X82476800Y-25066800D01*
X81534000Y-33172400D02*
X81534000Y-33959800D01*
X61798200Y-30302200D02*
X56311800Y-30302200D01*
X110032800Y-38049200D02*
X110032800Y-28549600D01*
X48872600Y-28702000D02*
X46510400Y-31064200D01*
X74980800Y-28016200D02*
X73558400Y-26593800D01*
X109270800Y-27787600D02*
X102082600Y-27787600D01*
X110032800Y-28549600D02*
X109270800Y-27787600D01*
X36688000Y-64962800D02*
X33942000Y-64962800D01*
X66347800Y-26593800D02*
X64544400Y-28397200D01*
X46510400Y-31064200D02*
X45389800Y-32184800D01*
%TO.N,Net-(Dr0-Pad2)*%
X141909800Y-45262800D02*
X141909800Y-48158400D01*
X140294200Y-49774000D02*
X133404600Y-49774000D01*
X140281200Y-42138600D02*
X140281200Y-43634200D01*
X140281200Y-43634200D02*
X141909800Y-45262800D01*
X141909800Y-48158400D02*
X140294200Y-49774000D01*
%TO.N,Net-(SW3_r1-Pad2)*%
X123748800Y-47167800D02*
X121142600Y-49774000D01*
X121142600Y-49774000D02*
X115396000Y-49774000D01*
X122069400Y-43481800D02*
X123748800Y-45161200D01*
X122069400Y-42087800D02*
X122069400Y-43481800D01*
X123748800Y-45161200D02*
X123748800Y-47167800D01*
%TO.N,Net-(Dr2-Pad2)*%
X103743600Y-37734400D02*
X97387400Y-37734400D01*
X105562400Y-35915600D02*
X103743600Y-37734400D01*
X105562400Y-31397400D02*
X105562400Y-35915600D01*
X104137000Y-29972000D02*
X105562400Y-31397400D01*
%TO.N,Net-(SW5_r1-Pad2)*%
X86026800Y-24965200D02*
X87807800Y-26746200D01*
X87807800Y-28575000D02*
X85481000Y-30901800D01*
X86026800Y-23266400D02*
X86026800Y-24965200D01*
X87807800Y-26746200D02*
X87807800Y-28575000D01*
X85481000Y-30901800D02*
X79378800Y-30901800D01*
%TO.N,Net-(Dr4-Pad2)*%
X68094400Y-28397200D02*
X68094400Y-30400800D01*
X69418200Y-34467800D02*
X67726400Y-36159600D01*
X69418200Y-31724600D02*
X69418200Y-34467800D01*
X68094400Y-30400800D02*
X69418200Y-31724600D01*
X67726400Y-36159600D02*
X61344800Y-36159600D01*
%TO.N,Net-(Dr5-Pad2)*%
X49590800Y-38750400D02*
X43336200Y-38750400D01*
X51333400Y-32337200D02*
X51333400Y-37007800D01*
X51333400Y-37007800D02*
X49590800Y-38750400D01*
X50060400Y-31064200D02*
X51333400Y-32337200D01*
%TO.N,row_1r*%
X108483400Y-44399200D02*
X103228600Y-44399200D01*
X91567000Y-40132000D02*
X89560400Y-38125400D01*
X89560400Y-38125400D02*
X84381800Y-38125400D01*
X41097200Y-50419000D02*
X39471600Y-52044600D01*
X39471600Y-52044600D02*
X39471600Y-64922400D01*
X103228600Y-44399200D02*
X100587000Y-47040800D01*
X136629600Y-59029600D02*
X133759400Y-56159400D01*
X43103800Y-50419000D02*
X41097200Y-50419000D01*
X39471600Y-64922400D02*
X36891200Y-67502800D01*
X82476800Y-40030400D02*
X82118200Y-40030400D01*
X46510400Y-48107600D02*
X45415200Y-48107600D01*
X82118200Y-40030400D02*
X79781400Y-37693600D01*
X79781400Y-37693600D02*
X72291400Y-37693600D01*
X54178200Y-46101000D02*
X48517000Y-46101000D01*
X36891200Y-67502800D02*
X33942000Y-67502800D01*
X118595600Y-59182000D02*
X117525800Y-59182000D01*
X72291400Y-37693600D02*
X64544400Y-45440600D01*
X111226600Y-47142400D02*
X108483400Y-44399200D01*
X48517000Y-46101000D02*
X46510400Y-48107600D01*
X55549800Y-47472600D02*
X54178200Y-46101000D01*
X91567000Y-47929800D02*
X91567000Y-40132000D01*
X117525800Y-59182000D02*
X111226600Y-52882800D01*
X111226600Y-52882800D02*
X111226600Y-47142400D01*
X98707400Y-48920400D02*
X92557600Y-48920400D01*
X92557600Y-48920400D02*
X91567000Y-47929800D01*
X100587000Y-47040800D02*
X98707400Y-48920400D01*
X133759400Y-56159400D02*
X121618200Y-56159400D01*
X64544400Y-45440600D02*
X63830200Y-45440600D01*
X63830200Y-45440600D02*
X61798200Y-47472600D01*
X84381800Y-38125400D02*
X82476800Y-40030400D01*
X45415200Y-48107600D02*
X43103800Y-50419000D01*
X61798200Y-47472600D02*
X55549800Y-47472600D01*
X121618200Y-56159400D02*
X118595600Y-59182000D01*
%TO.N,Net-(SW8_r1-Pad2)*%
X141681200Y-65328800D02*
X140243400Y-66766600D01*
X140179600Y-59029600D02*
X141681200Y-60531200D01*
X141681200Y-60531200D02*
X141681200Y-65328800D01*
X140243400Y-66766600D02*
X133379200Y-66766600D01*
%TO.N,Net-(SW9_r1-Pad2)*%
X123494800Y-62103000D02*
X123494800Y-65659000D01*
X123494800Y-65659000D02*
X122377200Y-66776600D01*
X122145600Y-59182000D02*
X122145600Y-60753800D01*
X122145600Y-60753800D02*
X123494800Y-62103000D01*
X122377200Y-66776600D02*
X122367200Y-66766600D01*
X122367200Y-66766600D02*
X115396000Y-66766600D01*
%TO.N,Net-(SW10_r1-Pad2)*%
X103311800Y-54777800D02*
X97387400Y-54777800D01*
X105791000Y-50317400D02*
X105791000Y-52298600D01*
X104137000Y-47040800D02*
X104137000Y-48663400D01*
X104137000Y-48663400D02*
X105791000Y-50317400D01*
X105791000Y-52298600D02*
X103311800Y-54777800D01*
%TO.N,Net-(SW11_r1-Pad2)*%
X87782400Y-46151800D02*
X86014400Y-47919800D01*
X86026800Y-40030400D02*
X86026800Y-41348200D01*
X87782400Y-43103800D02*
X87782400Y-46151800D01*
X86014400Y-47919800D02*
X79353400Y-47919800D01*
X86026800Y-41348200D02*
X87782400Y-43103800D01*
%TO.N,Net-(Dr10-Pad2)*%
X67472400Y-53228400D02*
X61344800Y-53228400D01*
X68094400Y-45440600D02*
X69037200Y-46383400D01*
X69037200Y-46383400D02*
X69037200Y-51663600D01*
X69037200Y-51663600D02*
X67472400Y-53228400D01*
%TO.N,Net-(Dr11-Pad2)*%
X50060400Y-48107600D02*
X50060400Y-49247600D01*
X51714400Y-54152800D02*
X50124200Y-55743000D01*
X50124200Y-55743000D02*
X43336200Y-55743000D01*
X51714400Y-50901600D02*
X51714400Y-54152800D01*
X50060400Y-49247600D02*
X51714400Y-50901600D01*
%TO.N,row_2r*%
X133045200Y-72948800D02*
X121872200Y-72948800D01*
X100587000Y-63547800D02*
X100587000Y-64287400D01*
X46510400Y-65049400D02*
X46510400Y-65960800D01*
X85143800Y-54660800D02*
X82553000Y-57251600D01*
X91059000Y-54660800D02*
X85143800Y-54660800D01*
X93649800Y-60248800D02*
X91948000Y-58547000D01*
X136144000Y-76047600D02*
X133045200Y-72948800D01*
X82553000Y-57251600D02*
X80241600Y-54940200D01*
X121872200Y-72948800D02*
X118646400Y-76174600D01*
X110566200Y-70078600D02*
X110566200Y-62280800D01*
X51438000Y-60121800D02*
X46510400Y-65049400D01*
X37043600Y-70042800D02*
X33942000Y-70042800D01*
X112674400Y-72186800D02*
X110566200Y-70078600D01*
X45364400Y-67106800D02*
X39979600Y-67106800D01*
X100587000Y-64287400D02*
X100126800Y-64287400D01*
X118646400Y-76174600D02*
X118646400Y-75161600D01*
X64544400Y-62382400D02*
X63601600Y-62382400D01*
X91948000Y-55549800D02*
X91059000Y-54660800D01*
X63601600Y-62382400D02*
X61341000Y-60121800D01*
X91948000Y-58547000D02*
X91948000Y-55549800D01*
X61341000Y-60121800D02*
X51438000Y-60121800D01*
X100126800Y-64287400D02*
X96088200Y-60248800D01*
X96088200Y-60248800D02*
X93649800Y-60248800D01*
X103657400Y-60477400D02*
X100587000Y-63547800D01*
X115671600Y-72186800D02*
X112674400Y-72186800D01*
X136578800Y-76047600D02*
X136144000Y-76047600D01*
X108762800Y-60477400D02*
X103657400Y-60477400D01*
X71986600Y-54940200D02*
X64544400Y-62382400D01*
X39979600Y-67106800D02*
X37043600Y-70042800D01*
X110566200Y-62280800D02*
X108762800Y-60477400D01*
X80241600Y-54940200D02*
X71986600Y-54940200D01*
X118646400Y-75161600D02*
X115671600Y-72186800D01*
X46510400Y-65960800D02*
X45364400Y-67106800D01*
%TO.N,Net-(Dr12-Pad2)*%
X140128800Y-77924200D02*
X141960600Y-79756000D01*
X140128800Y-76047600D02*
X140128800Y-77924200D01*
X141960600Y-80721200D02*
X138897200Y-83784600D01*
X141960600Y-79756000D02*
X141960600Y-80721200D01*
X138897200Y-83784600D02*
X133379200Y-83784600D01*
%TO.N,Net-(Dr13-Pad2)*%
X124104400Y-81686400D02*
X122031600Y-83759200D01*
X122196400Y-77289200D02*
X124104400Y-79197200D01*
X124104400Y-79197200D02*
X124104400Y-81686400D01*
X122031600Y-83759200D02*
X115396000Y-83759200D01*
X122196400Y-76174600D02*
X122196400Y-77289200D01*
%TO.N,Net-(SW16_r1-Pad2)*%
X105689400Y-70154800D02*
X104048400Y-71795800D01*
X104137000Y-64287400D02*
X104137000Y-65732200D01*
X104137000Y-65732200D02*
X105689400Y-67284600D01*
X104048400Y-71795800D02*
X97412800Y-71795800D01*
X105689400Y-67284600D02*
X105689400Y-70154800D01*
%TO.N,Net-(SW17_r1-Pad2)*%
X87833200Y-60401200D02*
X87833200Y-62636400D01*
X86103000Y-58671000D02*
X87833200Y-60401200D01*
X86103000Y-57251600D02*
X86103000Y-58671000D01*
X87833200Y-62636400D02*
X85557200Y-64912400D01*
X85557200Y-64912400D02*
X79378800Y-64912400D01*
%TO.N,Net-(SW18_r1-Pad2)*%
X69926200Y-65100200D02*
X69926200Y-69494400D01*
X68094400Y-62382400D02*
X68094400Y-63268400D01*
X68094400Y-63268400D02*
X69926200Y-65100200D01*
X69199600Y-70221000D02*
X61344800Y-70221000D01*
X69926200Y-69494400D02*
X69199600Y-70221000D01*
%TO.N,Net-(Dr17-Pad2)*%
X50060400Y-66545000D02*
X51892200Y-68376800D01*
X51892200Y-68376800D02*
X51892200Y-71272400D01*
X51892200Y-71272400D02*
X50403600Y-72761000D01*
X50403600Y-72761000D02*
X43310800Y-72761000D01*
X50060400Y-65049400D02*
X50060400Y-66545000D01*
%TO.N,row_3r*%
X34290000Y-89154000D02*
X39370000Y-94234000D01*
X33942000Y-72582800D02*
X35781200Y-74422000D01*
X34290000Y-82296000D02*
X34290000Y-89154000D01*
X31614707Y-104648000D02*
X30423005Y-103456298D01*
X35781200Y-74422000D02*
X35814000Y-74422000D01*
X35814000Y-80772000D02*
X34290000Y-82296000D01*
X46789004Y-95049004D02*
X47586882Y-95049004D01*
X43888996Y-95049004D02*
X34290000Y-104648000D01*
X62738000Y-91948000D02*
X58166000Y-96520000D01*
X49022000Y-96484122D02*
X47586882Y-95049004D01*
X35814000Y-74422000D02*
X35814000Y-80772000D01*
X45974000Y-94234000D02*
X46789004Y-95049004D01*
X49022000Y-96520000D02*
X49022000Y-96484122D01*
X66398600Y-91948000D02*
X62738000Y-91948000D01*
X34290000Y-104648000D02*
X31614707Y-104648000D01*
X58166000Y-96520000D02*
X49022000Y-96520000D01*
X47586882Y-95049004D02*
X43888996Y-95049004D01*
X39370000Y-94234000D02*
X45974000Y-94234000D01*
%TO.N,Net-(Dr18-Pad2)*%
X73072000Y-82610800D02*
X73072000Y-84224417D01*
X70866000Y-86430417D02*
X70866000Y-89916000D01*
X73072000Y-84224417D02*
X70866000Y-86430417D01*
X70866000Y-89916000D02*
X69948600Y-90833400D01*
X69948600Y-90833400D02*
X69948600Y-91948000D01*
%TO.N,Net-(SW21_r1-Pad2)*%
X51623517Y-86552483D02*
X50800000Y-87376000D01*
X50800000Y-92202000D02*
X51015918Y-92417918D01*
X50800000Y-87376000D02*
X50800000Y-92202000D01*
X51015918Y-92417918D02*
X51015918Y-94130196D01*
X51623517Y-84189387D02*
X51623517Y-86552483D01*
%TO.N,Net-(Dr20-Pad2)*%
X33330995Y-98354995D02*
X33330995Y-101420102D01*
X30500706Y-91931270D02*
X30500706Y-95524706D01*
X30500706Y-95524706D02*
X33330995Y-98354995D01*
%TO.N,col0r*%
X124808400Y-85884600D02*
X122732800Y-87960200D01*
X81051400Y-87960200D02*
X79044800Y-85953600D01*
X138379200Y-85884600D02*
X124808400Y-85884600D01*
X79044800Y-85953600D02*
X79044800Y-79425800D01*
X64439800Y-77978000D02*
X43840400Y-77978000D01*
X78308200Y-75641200D02*
X66776600Y-75641200D01*
X43840400Y-77978000D02*
X42595800Y-79222600D01*
X122732800Y-87960200D02*
X81051400Y-87960200D01*
X66776600Y-75641200D02*
X64439800Y-77978000D01*
%TO.N,col1r*%
X66243200Y-77038200D02*
X64693800Y-78587600D01*
X41402000Y-80162400D02*
X41122600Y-79883000D01*
X77241400Y-77038200D02*
X66243200Y-77038200D01*
X64693800Y-78587600D02*
X45618400Y-78587600D01*
X44043600Y-80162400D02*
X41402000Y-80162400D01*
X45618400Y-78587600D02*
X44043600Y-80162400D01*
%TO.N,col2r*%
X66522600Y-78130400D02*
X65354200Y-79298800D01*
X44475400Y-81051400D02*
X40411400Y-81051400D01*
X102412800Y-73895800D02*
X98178200Y-78130400D01*
X44526200Y-81000600D02*
X44475400Y-81051400D01*
X46050200Y-79476600D02*
X44526200Y-81000600D01*
X65354200Y-79298800D02*
X65176400Y-79476600D01*
X46634400Y-79476600D02*
X46050200Y-79476600D01*
X98178200Y-78130400D02*
X97332800Y-78130400D01*
X97332800Y-78130400D02*
X66522600Y-78130400D01*
X65176400Y-79476600D02*
X46634400Y-79476600D01*
%TO.N,col3r*%
X44627800Y-81889600D02*
X46006600Y-80510800D01*
X39039800Y-81889600D02*
X44627800Y-81889600D01*
X46006600Y-80510800D02*
X68072000Y-80510800D01*
%TO.N,col4r*%
X36788562Y-83455038D02*
X46250368Y-83455038D01*
X36779200Y-83464400D02*
X36788562Y-83455038D01*
%TD*%
M02*
