%TF.GenerationSoftware,KiCad,Pcbnew,(6.0.5-0)*%
%TF.CreationDate,2023-01-31T11:57:14-08:00*%
%TF.ProjectId,Swept_3x6,53776570-745f-4337-9836-2e6b69636164,rev?*%
%TF.SameCoordinates,Original*%
%TF.FileFunction,Copper,L2,Bot*%
%TF.FilePolarity,Positive*%
%FSLAX46Y46*%
G04 Gerber Fmt 4.6, Leading zero omitted, Abs format (unit mm)*
G04 Created by KiCad (PCBNEW (6.0.5-0)) date 2023-01-31 11:57:14*
%MOMM*%
%LPD*%
G01*
G04 APERTURE LIST*
G04 Aperture macros list*
%AMRotRect*
0 Rectangle, with rotation*
0 The origin of the aperture is its center*
0 $1 length*
0 $2 width*
0 $3 Rotation angle, in degrees counterclockwise*
0 Add horizontal line*
21,1,$1,$2,0,0,$3*%
G04 Aperture macros list end*
%TA.AperFunction,ComponentPad*%
%ADD10C,4.400000*%
%TD*%
%TA.AperFunction,ComponentPad*%
%ADD11C,1.524000*%
%TD*%
%TA.AperFunction,ComponentPad*%
%ADD12C,2.032000*%
%TD*%
%TA.AperFunction,SMDPad,CuDef*%
%ADD13R,2.600000X2.600000*%
%TD*%
%TA.AperFunction,SMDPad,CuDef*%
%ADD14RotRect,2.600000X2.600000X165.000000*%
%TD*%
%TA.AperFunction,ComponentPad*%
%ADD15C,2.000000*%
%TD*%
%TA.AperFunction,SMDPad,CuDef*%
%ADD16RotRect,2.600000X2.600000X195.000000*%
%TD*%
%TA.AperFunction,SMDPad,CuDef*%
%ADD17RotRect,2.600000X2.600000X145.000000*%
%TD*%
%TA.AperFunction,ComponentPad*%
%ADD18C,1.397000*%
%TD*%
%TA.AperFunction,SMDPad,CuDef*%
%ADD19RotRect,2.600000X2.600000X35.000000*%
%TD*%
%TA.AperFunction,ComponentPad*%
%ADD20O,1.700000X1.700000*%
%TD*%
%TA.AperFunction,ComponentPad*%
%ADD21R,1.700000X1.700000*%
%TD*%
%TA.AperFunction,SMDPad,CuDef*%
%ADD22R,1.400000X1.000000*%
%TD*%
%TA.AperFunction,SMDPad,CuDef*%
%ADD23R,1.000000X0.800000*%
%TD*%
%TA.AperFunction,SMDPad,CuDef*%
%ADD24R,0.700000X1.500000*%
%TD*%
%TA.AperFunction,SMDPad,CuDef*%
%ADD25RotRect,1.400000X1.000000X145.000000*%
%TD*%
%TA.AperFunction,SMDPad,CuDef*%
%ADD26RotRect,1.400000X1.000000X165.000000*%
%TD*%
%TA.AperFunction,SMDPad,CuDef*%
%ADD27RotRect,1.400000X1.000000X15.000000*%
%TD*%
%TA.AperFunction,ViaPad*%
%ADD28C,0.800000*%
%TD*%
%TA.AperFunction,Conductor*%
%ADD29C,0.250000*%
%TD*%
%TA.AperFunction,Conductor*%
%ADD30C,0.500000*%
%TD*%
G04 APERTURE END LIST*
D10*
%TO.P,,1*%
%TO.N,N/C*%
X166830000Y-54630000D03*
%TD*%
%TO.P,,1*%
%TO.N,N/C*%
X166820000Y-71570000D03*
%TD*%
%TO.P,,1*%
%TO.N,N/C*%
X129320000Y-71540000D03*
%TD*%
%TO.P,,1*%
%TO.N,N/C*%
X129350000Y-54610000D03*
%TD*%
D11*
%TO.P,U1,1,TX*%
%TO.N,CS*%
X277659800Y-49850000D03*
%TO.P,U1,2,RX*%
%TO.N,unconnected-(U1-Pad2)*%
X277659800Y-52390000D03*
%TO.P,U1,3,GND*%
%TO.N,gnd*%
X277659800Y-54930000D03*
%TO.P,U1,4,GND*%
X277659800Y-57470000D03*
%TO.P,U1,5,SDA*%
%TO.N,MOSI*%
X277659800Y-60010000D03*
%TO.P,U1,6,SCL*%
%TO.N,SCK*%
X277659800Y-62550000D03*
%TO.P,U1,7,D4*%
%TO.N,row_0*%
X277659800Y-65090000D03*
%TO.P,U1,8,C6*%
%TO.N,row_1*%
X277659800Y-67630000D03*
%TO.P,U1,9,D7*%
%TO.N,row_2*%
X277659800Y-70170000D03*
%TO.P,U1,10,E6*%
%TO.N,row_3*%
X277659800Y-72710000D03*
%TO.P,U1,11,B4*%
%TO.N,unconnected-(U1-Pad11)*%
X277659800Y-75250000D03*
%TO.P,U1,12,B5*%
%TO.N,unconnected-(U1-Pad12)*%
X277659800Y-77790000D03*
%TO.P,U1,13,B6*%
%TO.N,unconnected-(U1-Pad13)*%
X262439800Y-77790000D03*
%TO.P,U1,14,B2*%
%TO.N,unconnected-(U1-Pad14)*%
X262439800Y-75250000D03*
%TO.P,U1,15,B3*%
%TO.N,col5*%
X262439800Y-72710000D03*
%TO.P,U1,16,B1*%
%TO.N,col4*%
X262439800Y-70170000D03*
%TO.P,U1,17,F7*%
%TO.N,col3*%
X262439800Y-67630000D03*
%TO.P,U1,18,F6*%
%TO.N,col2*%
X262439800Y-65090000D03*
%TO.P,U1,19,F5*%
%TO.N,col1*%
X262439800Y-62550000D03*
%TO.P,U1,20,F4*%
%TO.N,col0*%
X262439800Y-60010000D03*
%TO.P,U1,21,VCC*%
%TO.N,vcc*%
X262439800Y-57470000D03*
%TO.P,U1,22,RST*%
%TO.N,reset*%
X262439800Y-54930000D03*
%TO.P,U1,23,GND*%
%TO.N,gnd*%
X262439800Y-52390000D03*
%TO.P,U1,24,RAW*%
%TO.N,raw*%
X262439800Y-49850000D03*
%TD*%
D12*
%TO.P,SW16,1,1*%
%TO.N,col2*%
X193776600Y-74022800D03*
D13*
X190501600Y-62172800D03*
%TO.P,SW16,2,2*%
%TO.N,Net-(D14-Pad2)*%
X202051600Y-64372800D03*
D12*
X188776600Y-71922800D03*
%TD*%
D13*
%TO.P,SW20,1,1*%
%TO.N,col3*%
X231748000Y-92589400D03*
D12*
X228473000Y-80739400D03*
%TO.P,SW20,2,2*%
%TO.N,Net-(D18-Pad2)*%
X233473000Y-82839400D03*
D13*
X220198000Y-90389400D03*
%TD*%
D12*
%TO.P,SW15,1,1*%
%TO.N,col1*%
X175818800Y-86037000D03*
D13*
X172543800Y-74187000D03*
D12*
%TO.P,SW15,2,2*%
%TO.N,Net-(D13-Pad2)*%
X170818800Y-83937000D03*
D13*
X184093800Y-76387000D03*
%TD*%
D12*
%TO.P,SW21,1,1*%
%TO.N,col4*%
X250193032Y-83658238D03*
D14*
X250289434Y-95952091D03*
%TO.P,SW21,2,2*%
%TO.N,Net-(D19-Pad2)*%
X239702392Y-90837694D03*
D12*
X254479142Y-86980777D03*
%TD*%
%TO.P,SW17,1,1*%
%TO.N,col3*%
X211785200Y-67139400D03*
D13*
X208510200Y-55289400D03*
%TO.P,SW17,2,2*%
%TO.N,Net-(D15-Pad2)*%
X220060200Y-57489400D03*
D12*
X206785200Y-65039400D03*
%TD*%
%TO.P,SW18,1,1*%
%TO.N,col4*%
X229793800Y-72498800D03*
D13*
X226518800Y-60648800D03*
%TO.P,SW18,2,2*%
%TO.N,Net-(D16-Pad2)*%
X238068800Y-62848800D03*
D12*
X224793800Y-70398800D03*
%TD*%
D13*
%TO.P,SW4,1,1*%
%TO.N,col2*%
X197077000Y-39833600D03*
D12*
X193802000Y-27983600D03*
D13*
%TO.P,SW4,2,2*%
%TO.N,Net-(D2-Pad2)*%
X185527000Y-37633600D03*
D12*
X198802000Y-30083600D03*
%TD*%
%TO.P,SW3,1,1*%
%TO.N,col1*%
X175793400Y-51823200D03*
D13*
X172518400Y-39973200D03*
D12*
%TO.P,SW3,2,2*%
%TO.N,Net-(D1-Pad2)*%
X170793400Y-49723200D03*
D13*
X184068400Y-42173200D03*
%TD*%
D12*
%TO.P,SW9,1,1*%
%TO.N,col1*%
X175793400Y-68917400D03*
D13*
X172518400Y-57067400D03*
%TO.P,SW9,2,2*%
%TO.N,Net-(D7-Pad2)*%
X184068400Y-59267400D03*
D12*
X170793400Y-66817400D03*
%TD*%
D13*
%TO.P,SW14,1,1*%
%TO.N,col0*%
X154535200Y-74212400D03*
D12*
X157810200Y-86062400D03*
D13*
%TO.P,SW14,2,2*%
%TO.N,Net-(D12-Pad2)*%
X166085200Y-76412400D03*
D12*
X152810200Y-83962400D03*
%TD*%
D13*
%TO.P,SW12,1,1*%
%TO.N,col4*%
X233068800Y-55429200D03*
D12*
X229793800Y-43579200D03*
%TO.P,SW12,2,2*%
%TO.N,Net-(D10-Pad2)*%
X234793800Y-45679200D03*
D13*
X221518800Y-53229200D03*
%TD*%
D12*
%TO.P,SW11,1,1*%
%TO.N,col3*%
X211785200Y-50019800D03*
D13*
X208510200Y-38169800D03*
D12*
%TO.P,SW11,2,2*%
%TO.N,Net-(D9-Pad2)*%
X206785200Y-47919800D03*
D13*
X220060200Y-40369800D03*
%TD*%
%TO.P,SW8,1,1*%
%TO.N,col0*%
X154509800Y-57092800D03*
D12*
X157784800Y-68942800D03*
D13*
%TO.P,SW8,2,2*%
%TO.N,Net-(D6-Pad2)*%
X166059800Y-59292800D03*
D12*
X152784800Y-66842800D03*
%TD*%
D13*
%TO.P,SW6,1,1*%
%TO.N,col4*%
X226544200Y-26409600D03*
D12*
X229819200Y-38259600D03*
D13*
%TO.P,SW6,2,2*%
%TO.N,Net-(D4-Pad2)*%
X238094200Y-28609600D03*
D12*
X224819200Y-36159600D03*
%TD*%
%TO.P,SW5,1,1*%
%TO.N,col3*%
X211810600Y-21125600D03*
D13*
X215085600Y-32975600D03*
%TO.P,SW5,2,2*%
%TO.N,Net-(D3-Pad2)*%
X203535600Y-30775600D03*
D12*
X216810600Y-23225600D03*
%TD*%
D13*
%TO.P,SW2,1,1*%
%TO.N,col0*%
X154509800Y-39973200D03*
D12*
X157784800Y-51823200D03*
%TO.P,SW2,2,2*%
%TO.N,Net-(D0-Pad2)*%
X152784800Y-49723200D03*
D13*
X166059800Y-42173200D03*
%TD*%
D15*
%TO.P,RSW1,1,1*%
%TO.N,gnd*%
X276852244Y-91994123D03*
%TO.P,RSW1,2,2*%
%TO.N,reset*%
X271527756Y-88265877D03*
%TD*%
D13*
%TO.P,SW10,1,1*%
%TO.N,col2*%
X190501600Y-45053200D03*
D12*
X193776600Y-56903200D03*
D13*
%TO.P,SW10,2,2*%
%TO.N,Net-(D8-Pad2)*%
X202051600Y-47253200D03*
D12*
X188776600Y-54803200D03*
%TD*%
D10*
%TO.P,REF\u002A\u002A,1*%
%TO.N,N/C*%
X240352000Y-42936000D03*
X202252000Y-42936000D03*
X221302000Y-23886000D03*
X221302000Y-61986000D03*
%TD*%
D11*
%TO.P,U2,1,TX*%
%TO.N,CSr*%
X33942000Y-49722800D03*
%TO.P,U2,2,RX*%
%TO.N,unconnected-(U2-Pad2)*%
X33942000Y-52262800D03*
%TO.P,U2,3,GND*%
%TO.N,gnd_r*%
X33942000Y-54802800D03*
%TO.P,U2,4,GND*%
X33942000Y-57342800D03*
%TO.P,U2,5,SDA*%
%TO.N,MOSIr*%
X33942000Y-59882800D03*
%TO.P,U2,6,SCL*%
%TO.N,SCKr*%
X33942000Y-62422800D03*
%TO.P,U2,7,D4*%
%TO.N,row_0r*%
X33942000Y-64962800D03*
%TO.P,U2,8,C6*%
%TO.N,row_1r*%
X33942000Y-67502800D03*
%TO.P,U2,9,D7*%
%TO.N,row_2r*%
X33942000Y-70042800D03*
%TO.P,U2,10,E6*%
%TO.N,row_3r*%
X33942000Y-72582800D03*
%TO.P,U2,11,B4*%
%TO.N,unconnected-(U2-Pad11)*%
X33942000Y-75122800D03*
%TO.P,U2,12,B5*%
%TO.N,unconnected-(U2-Pad12)*%
X33942000Y-77662800D03*
%TO.P,U2,13,B6*%
%TO.N,unconnected-(U2-Pad13)*%
X18722000Y-77662800D03*
%TO.P,U2,14,B2*%
%TO.N,unconnected-(U2-Pad14)*%
X18722000Y-75122800D03*
%TO.P,U2,15,B3*%
%TO.N,col5r*%
X18722000Y-72582800D03*
%TO.P,U2,16,B1*%
%TO.N,col4r*%
X18722000Y-70042800D03*
%TO.P,U2,17,F7*%
%TO.N,col3r*%
X18722000Y-67502800D03*
%TO.P,U2,18,F6*%
%TO.N,col2r*%
X18722000Y-64962800D03*
%TO.P,U2,19,F5*%
%TO.N,col1r*%
X18722000Y-62422800D03*
%TO.P,U2,20,F4*%
%TO.N,col0r*%
X18722000Y-59882800D03*
%TO.P,U2,21,VCC*%
%TO.N,vcc_r*%
X18722000Y-57342800D03*
%TO.P,U2,22,RST*%
%TO.N,reset_r*%
X18722000Y-54802800D03*
%TO.P,U2,23,GND*%
%TO.N,gnd_r*%
X18722000Y-52262800D03*
%TO.P,U2,24,RAW*%
%TO.N,raw_r*%
X18722000Y-49722800D03*
%TD*%
D13*
%TO.P,SW17_r1,1,1*%
%TO.N,col3r*%
X81103800Y-55162400D03*
D12*
X84378800Y-67012400D03*
%TO.P,SW17_r1,2,2*%
%TO.N,Net-(Dr15-Pad2)*%
X79378800Y-64912400D03*
D13*
X92653800Y-57362400D03*
%TD*%
D12*
%TO.P,SW11_r1,1,1*%
%TO.N,col3r*%
X84353400Y-38219800D03*
D13*
X87628400Y-50069800D03*
%TO.P,SW11_r1,2,2*%
%TO.N,Net-(Dr9-Pad2)*%
X76078400Y-47869800D03*
D12*
X89353400Y-40319800D03*
%TD*%
%TO.P,SW15_r1,1,1*%
%TO.N,col1r*%
X120396000Y-85859200D03*
D13*
X117121000Y-74009200D03*
D12*
%TO.P,SW15_r1,2,2*%
%TO.N,Net-(Dr13-Pad2)*%
X115396000Y-83759200D03*
D13*
X128671000Y-76209200D03*
%TD*%
D12*
%TO.P,SW18_r1,1,1*%
%TO.N,col4r*%
X66344800Y-60521000D03*
D13*
X69619800Y-72371000D03*
D12*
%TO.P,SW18_r1,2,2*%
%TO.N,Net-(Dr16-Pad2)*%
X71344800Y-62621000D03*
D13*
X58069800Y-70171000D03*
%TD*%
D12*
%TO.P,SW6_r1,1,1*%
%TO.N,col4r*%
X66344800Y-38259600D03*
D13*
X63069800Y-26409600D03*
%TO.P,SW6_r1,2,2*%
%TO.N,Net-(Dr4-Pad2)*%
X74619800Y-28609600D03*
D12*
X61344800Y-36159600D03*
%TD*%
%TO.P,SW5_r1,1,1*%
%TO.N,col3r*%
X84378800Y-33001800D03*
D13*
X81103800Y-21151800D03*
D12*
%TO.P,SW5_r1,2,2*%
%TO.N,Net-(Dr3-Pad2)*%
X79378800Y-30901800D03*
D13*
X92653800Y-23351800D03*
%TD*%
D12*
%TO.P,SW2_r1,1,1*%
%TO.N,col0r*%
X138404600Y-40074000D03*
D13*
X141679600Y-51924000D03*
D12*
%TO.P,SW2_r1,2,2*%
%TO.N,Net-(Dr0-Pad2)*%
X143404600Y-42174000D03*
D13*
X130129600Y-49724000D03*
%TD*%
D12*
%TO.P,SW16_r1,1,1*%
%TO.N,col2r*%
X102412800Y-73895800D03*
D13*
X99137800Y-62045800D03*
%TO.P,SW16_r1,2,2*%
%TO.N,Net-(Dr14-Pad2)*%
X110687800Y-64245800D03*
D12*
X97412800Y-71795800D03*
%TD*%
D13*
%TO.P,SW4_r1,1,1*%
%TO.N,col2r*%
X99112400Y-27984400D03*
D12*
X102387400Y-39834400D03*
%TO.P,SW4_r1,2,2*%
%TO.N,Net-(Dr2-Pad2)*%
X97387400Y-37734400D03*
D13*
X110662400Y-30184400D03*
%TD*%
%TO.P,SW13_r1,1,1*%
%TO.N,col5r*%
X45061200Y-45993000D03*
D12*
X48336200Y-57843000D03*
D13*
%TO.P,SW13_r1,2,2*%
%TO.N,Net-(Dr11-Pad2)*%
X56611200Y-48193000D03*
D12*
X43336200Y-55743000D03*
%TD*%
%TO.P,SW12_r1,1,1*%
%TO.N,col4r*%
X66344800Y-43528400D03*
D13*
X69619800Y-55378400D03*
%TO.P,SW12_r1,2,2*%
%TO.N,Net-(Dr10-Pad2)*%
X58069800Y-53178400D03*
D12*
X71344800Y-45628400D03*
%TD*%
D13*
%TO.P,SW3_r1,1,1*%
%TO.N,col1r*%
X117121000Y-40024000D03*
D12*
X120396000Y-51874000D03*
D13*
%TO.P,SW3_r1,2,2*%
%TO.N,Net-(Dr1-Pad2)*%
X128671000Y-42224000D03*
D12*
X115396000Y-49774000D03*
%TD*%
%TO.P,SW8_r1,1,1*%
%TO.N,col0r*%
X138379200Y-57066600D03*
D13*
X141654200Y-68916600D03*
D12*
%TO.P,SW8_r1,2,2*%
%TO.N,Net-(Dr6-Pad2)*%
X143379200Y-59166600D03*
D13*
X130104200Y-66716600D03*
%TD*%
D16*
%TO.P,SW21_r1,1,1*%
%TO.N,col4r*%
X52480780Y-94053626D03*
D12*
X46250368Y-83455038D03*
D16*
%TO.P,SW21_r1,2,2*%
%TO.N,Net-(Dr19-Pad2)*%
X40754935Y-94917949D03*
D12*
X51623517Y-84189387D03*
%TD*%
D13*
%TO.P,SW9_r1,1,1*%
%TO.N,col1r*%
X117121000Y-57016600D03*
D12*
X120396000Y-68866600D03*
%TO.P,SW9_r1,2,2*%
%TO.N,Net-(Dr7-Pad2)*%
X115396000Y-66766600D03*
D13*
X128671000Y-59216600D03*
%TD*%
D12*
%TO.P,SW20_r1,1,1*%
%TO.N,col3r*%
X68072000Y-80510800D03*
D13*
X71347000Y-92360800D03*
D12*
%TO.P,SW20_r1,2,2*%
%TO.N,Net-(Dr18-Pad2)*%
X73072000Y-82610800D03*
D13*
X59797000Y-90160800D03*
%TD*%
%TO.P,SW7_r1,1,1*%
%TO.N,col5r*%
X45061200Y-29000400D03*
D12*
X48336200Y-40850400D03*
D13*
%TO.P,SW7_r1,2,2*%
%TO.N,Net-(Dr5-Pad2)*%
X56611200Y-31200400D03*
D12*
X43336200Y-38750400D03*
%TD*%
D10*
%TO.P,REF\u002A\u002A,1*%
%TO.N,N/C*%
X94407400Y-42878400D03*
X56307400Y-42878400D03*
X75357400Y-61928400D03*
X75357400Y-23828400D03*
%TD*%
D15*
%TO.P,RSW2,1,1*%
%TO.N,gnd_r*%
X26412244Y-87115877D03*
%TO.P,RSW2,2,2*%
%TO.N,reset_r*%
X21087756Y-90844123D03*
%TD*%
D13*
%TO.P,SW13,1,1*%
%TO.N,col5*%
X244552800Y-46094600D03*
D12*
X247827800Y-57944600D03*
%TO.P,SW13,2,2*%
%TO.N,Net-(D11-Pad2)*%
X242827800Y-55844600D03*
D13*
X256102800Y-48294600D03*
%TD*%
D10*
%TO.P,,1*%
%TO.N,N/C*%
X212360000Y-79150000D03*
%TD*%
D12*
%TO.P,SW22,1,1*%
%TO.N,col5*%
X271150901Y-93211003D03*
D17*
X267036743Y-104796417D03*
%TO.P,SW22,2,2*%
%TO.N,Net-(D20-Pad2)*%
X258837405Y-96369475D03*
D12*
X274042151Y-97799104D03*
%TD*%
%TO.P,SW19,1,1*%
%TO.N,col5*%
X247827800Y-75064200D03*
D13*
X244552800Y-63214200D03*
D12*
%TO.P,SW19,2,2*%
%TO.N,Net-(D17-Pad2)*%
X242827800Y-72964200D03*
D13*
X256102800Y-65414200D03*
%TD*%
D10*
%TO.P,,1*%
%TO.N,N/C*%
X257750000Y-60620000D03*
%TD*%
D13*
%TO.P,SW19_r1,1,1*%
%TO.N,col5r*%
X45035800Y-63011000D03*
D12*
X48310800Y-74861000D03*
%TO.P,SW19_r1,2,2*%
%TO.N,Net-(Dr17-Pad2)*%
X43310800Y-72761000D03*
D13*
X56585800Y-65211000D03*
%TD*%
D10*
%TO.P,,1*%
%TO.N,N/C*%
X37450000Y-91600000D03*
%TD*%
D18*
%TO.P,Bat+1,1,1*%
%TO.N,BT+*%
X263855200Y-47396400D03*
%TD*%
D13*
%TO.P,SW10_r1,1,1*%
%TO.N,col2r*%
X99112400Y-45027800D03*
D12*
X102387400Y-56877800D03*
%TO.P,SW10_r1,2,2*%
%TO.N,Net-(Dr8-Pad2)*%
X97387400Y-54777800D03*
D13*
X110662400Y-47227800D03*
%TD*%
D19*
%TO.P,SW22_r1,1,1*%
%TO.N,col5r*%
X22489033Y-94916438D03*
D12*
X31968637Y-102744927D03*
D19*
%TO.P,SW22_r1,2,2*%
%TO.N,Net-(Dr20-Pad2)*%
X33212108Y-90093765D03*
D12*
X26668366Y-103892590D03*
%TD*%
D18*
%TO.P,BatGND1,1,1*%
%TO.N,gnd*%
X275996400Y-47447200D03*
%TD*%
%TO.P,Bat+r1,1,1*%
%TO.N,BT+_r*%
X20040600Y-47574200D03*
%TD*%
D10*
%TO.P,,1*%
%TO.N,N/C*%
X258610000Y-91950000D03*
%TD*%
D20*
%TO.P,J1,5,Pin_5*%
%TO.N,CS*%
X275125000Y-82180000D03*
%TO.P,J1,4,Pin_4*%
%TO.N,gnd*%
X272585000Y-82180000D03*
%TO.P,J1,3,Pin_3*%
%TO.N,vcc*%
X270045000Y-82180000D03*
%TO.P,J1,2,Pin_2*%
%TO.N,SCK*%
X267505000Y-82180000D03*
D21*
%TO.P,J1,1,Pin_1*%
%TO.N,MOSI*%
X264965000Y-82180000D03*
%TD*%
D10*
%TO.P,,1*%
%TO.N,N/C*%
X38450000Y-60260000D03*
%TD*%
D13*
%TO.P,SW14_r1,1,1*%
%TO.N,col0r*%
X141654200Y-85934600D03*
D12*
X138379200Y-74084600D03*
D13*
%TO.P,SW14_r1,2,2*%
%TO.N,Net-(Dr12-Pad2)*%
X130104200Y-83734600D03*
D12*
X143379200Y-76184600D03*
%TD*%
%TO.P,SW7,1,1*%
%TO.N,col5*%
X247827800Y-40825000D03*
D13*
X244552800Y-28975000D03*
%TO.P,SW7,2,2*%
%TO.N,Net-(D5-Pad2)*%
X256102800Y-31175000D03*
D12*
X242827800Y-38725000D03*
%TD*%
D10*
%TO.P,,1*%
%TO.N,N/C*%
X84080000Y-79480000D03*
%TD*%
D21*
%TO.P,J2,1,Pin_1*%
%TO.N,MOSIr*%
X21230000Y-82090000D03*
D20*
%TO.P,J2,2,Pin_2*%
%TO.N,SCKr*%
X23770000Y-82090000D03*
%TO.P,J2,3,Pin_3*%
%TO.N,vcc_r*%
X26310000Y-82090000D03*
%TO.P,J2,4,Pin_4*%
%TO.N,gnd_r*%
X28850000Y-82090000D03*
%TO.P,J2,5,Pin_5*%
%TO.N,CSr*%
X31390000Y-82090000D03*
%TD*%
D18*
%TO.P,BatGND4,1,1*%
%TO.N,gnd_r*%
X32207200Y-47625000D03*
%TD*%
D22*
%TO.P,D7,1,K*%
%TO.N,row_1*%
X183054800Y-67081400D03*
%TO.P,D7,2,A*%
%TO.N,Net-(D7-Pad2)*%
X179504800Y-67081400D03*
%TD*%
%TO.P,D18,1,K*%
%TO.N,row_3*%
X224987200Y-82727800D03*
%TO.P,D18,2,A*%
%TO.N,Net-(D18-Pad2)*%
X221437200Y-82727800D03*
%TD*%
%TO.P,Dr16,1,K*%
%TO.N,row_2r*%
X64315800Y-63195200D03*
%TO.P,Dr16,2,A*%
%TO.N,Net-(Dr16-Pad2)*%
X67865800Y-63195200D03*
%TD*%
%TO.P,Dr6,1,K*%
%TO.N,row_1r*%
X133172200Y-59690000D03*
%TO.P,Dr6,2,A*%
%TO.N,Net-(Dr6-Pad2)*%
X136722200Y-59690000D03*
%TD*%
%TO.P,Dr15,1,K*%
%TO.N,row_2r*%
X85905800Y-64693800D03*
%TO.P,Dr15,2,A*%
%TO.N,Net-(Dr15-Pad2)*%
X89455800Y-64693800D03*
%TD*%
%TO.P,Dr3,1,K*%
%TO.N,row_0r*%
X86312200Y-30759400D03*
%TO.P,Dr3,2,A*%
%TO.N,Net-(Dr3-Pad2)*%
X89862200Y-30759400D03*
%TD*%
%TO.P,Dr18,1,K*%
%TO.N,row_3r*%
X62915800Y-83159600D03*
%TO.P,Dr18,2,A*%
%TO.N,Net-(Dr18-Pad2)*%
X66465800Y-83159600D03*
%TD*%
%TO.P,Dr9,1,K*%
%TO.N,row_1r*%
X82197400Y-40843200D03*
%TO.P,Dr9,2,A*%
%TO.N,Net-(Dr9-Pad2)*%
X85747400Y-40843200D03*
%TD*%
%TO.P,D11,1,K*%
%TO.N,row_1*%
X254044800Y-57124600D03*
%TO.P,D11,2,A*%
%TO.N,Net-(D11-Pad2)*%
X250494800Y-57124600D03*
%TD*%
%TO.P,D17,1,K*%
%TO.N,row_2*%
X254781400Y-74193400D03*
%TO.P,D17,2,A*%
%TO.N,Net-(D17-Pad2)*%
X251231400Y-74193400D03*
%TD*%
%TO.P,D15,1,K*%
%TO.N,row_2*%
X218281600Y-66421000D03*
%TO.P,D15,2,A*%
%TO.N,Net-(D15-Pad2)*%
X214731600Y-66421000D03*
%TD*%
%TO.P,D2,1,K*%
%TO.N,row_0*%
X191335200Y-29692600D03*
%TO.P,D2,2,A*%
%TO.N,Net-(D2-Pad2)*%
X187785200Y-29692600D03*
%TD*%
%TO.P,Dr4,1,K*%
%TO.N,row_0r*%
X68252800Y-36169600D03*
%TO.P,Dr4,2,A*%
%TO.N,Net-(Dr4-Pad2)*%
X71802800Y-36169600D03*
%TD*%
%TO.P,D13,1,K*%
%TO.N,row_2*%
X182750000Y-84861400D03*
%TO.P,D13,2,A*%
%TO.N,Net-(D13-Pad2)*%
X179200000Y-84861400D03*
%TD*%
%TO.P,Dr10,1,K*%
%TO.N,row_1r*%
X64519000Y-46456600D03*
%TO.P,Dr10,2,A*%
%TO.N,Net-(Dr10-Pad2)*%
X68069000Y-46456600D03*
%TD*%
D23*
%TO.P,SW_POWER1,*%
%TO.N,*%
X273525000Y-47228800D03*
X266225000Y-49438800D03*
X273525000Y-49438800D03*
X266225000Y-47228800D03*
D24*
%TO.P,SW_POWER1,1,A*%
%TO.N,unconnected-(SW_POWER1-Pad1)*%
X267625000Y-50088800D03*
%TO.P,SW_POWER1,2,B*%
%TO.N,BT+*%
X270625000Y-50088800D03*
%TO.P,SW_POWER1,3,C*%
%TO.N,raw*%
X272125000Y-50088800D03*
%TD*%
D22*
%TO.P,D6,1,K*%
%TO.N,row_1*%
X164157200Y-67894200D03*
%TO.P,D6,2,A*%
%TO.N,Net-(D6-Pad2)*%
X160607200Y-67894200D03*
%TD*%
%TO.P,D3,1,K*%
%TO.N,row_0*%
X209191400Y-23139400D03*
%TO.P,D3,2,A*%
%TO.N,Net-(D3-Pad2)*%
X205641400Y-23139400D03*
%TD*%
%TO.P,Dr11,1,K*%
%TO.N,row_1r*%
X50396600Y-55829200D03*
%TO.P,Dr11,2,A*%
%TO.N,Net-(Dr11-Pad2)*%
X53946600Y-55829200D03*
%TD*%
%TO.P,Dr2,1,K*%
%TO.N,row_0r*%
X104371600Y-37769800D03*
%TO.P,Dr2,2,A*%
%TO.N,Net-(Dr2-Pad2)*%
X107921600Y-37769800D03*
%TD*%
D25*
%TO.P,D20,1,K*%
%TO.N,row_3*%
X266737790Y-93806396D03*
%TO.P,D20,2,A*%
%TO.N,Net-(D20-Pad2)*%
X263829800Y-91770200D03*
%TD*%
D22*
%TO.P,D16,1,K*%
%TO.N,row_2*%
X236239400Y-71907400D03*
%TO.P,D16,2,A*%
%TO.N,Net-(D16-Pad2)*%
X232689400Y-71907400D03*
%TD*%
%TO.P,Dr0,1,K*%
%TO.N,row_0r*%
X133172200Y-42773600D03*
%TO.P,Dr0,2,A*%
%TO.N,Net-(Dr0-Pad2)*%
X136722200Y-42773600D03*
%TD*%
%TO.P,Dr20,1,K*%
%TO.N,row_3r*%
X30450000Y-86350000D03*
%TO.P,Dr20,2,A*%
%TO.N,Net-(Dr20-Pad2)*%
X34000000Y-86350000D03*
%TD*%
%TO.P,Dr7,1,K*%
%TO.N,row_1r*%
X122532600Y-66802000D03*
%TO.P,Dr7,2,A*%
%TO.N,Net-(Dr7-Pad2)*%
X126082600Y-66802000D03*
%TD*%
%TO.P,Dr5,1,K*%
%TO.N,row_0r*%
X50066400Y-38633400D03*
%TO.P,Dr5,2,A*%
%TO.N,Net-(Dr5-Pad2)*%
X53616400Y-38633400D03*
%TD*%
%TO.P,Dr12,1,K*%
%TO.N,row_2r*%
X132943600Y-76835000D03*
%TO.P,Dr12,2,A*%
%TO.N,Net-(Dr12-Pad2)*%
X136493600Y-76835000D03*
%TD*%
D26*
%TO.P,D19,1,K*%
%TO.N,row_3*%
X246837236Y-85399208D03*
%TO.P,D19,2,A*%
%TO.N,Net-(D19-Pad2)*%
X243408200Y-84480400D03*
%TD*%
D22*
%TO.P,Dr1,1,K*%
%TO.N,row_0r*%
X122380200Y-49657000D03*
%TO.P,Dr1,2,A*%
%TO.N,Net-(Dr1-Pad2)*%
X125930200Y-49657000D03*
%TD*%
D23*
%TO.P,SW_POWERR1,*%
%TO.N,*%
X22512000Y-47101800D03*
X29812000Y-47101800D03*
X22512000Y-49311800D03*
X29812000Y-49311800D03*
D24*
%TO.P,SW_POWERR1,1,A*%
%TO.N,unconnected-(SW_POWERR1-Pad1)*%
X23912000Y-49961800D03*
%TO.P,SW_POWERR1,2,B*%
%TO.N,BT+_r*%
X26912000Y-49961800D03*
%TO.P,SW_POWERR1,3,C*%
%TO.N,raw_r*%
X28412000Y-49961800D03*
%TD*%
D22*
%TO.P,Dr14,1,K*%
%TO.N,row_2r*%
X104193800Y-71602600D03*
%TO.P,Dr14,2,A*%
%TO.N,Net-(Dr14-Pad2)*%
X107743800Y-71602600D03*
%TD*%
%TO.P,D10,1,K*%
%TO.N,row_1*%
X226409600Y-44831000D03*
%TO.P,D10,2,A*%
%TO.N,Net-(D10-Pad2)*%
X222859600Y-44831000D03*
%TD*%
%TO.P,D9,1,K*%
%TO.N,row_1*%
X218230800Y-47828200D03*
%TO.P,D9,2,A*%
%TO.N,Net-(D9-Pad2)*%
X214680800Y-47828200D03*
%TD*%
%TO.P,Dr13,1,K*%
%TO.N,row_2r*%
X121872200Y-83083400D03*
%TO.P,Dr13,2,A*%
%TO.N,Net-(Dr13-Pad2)*%
X125422200Y-83083400D03*
%TD*%
%TO.P,D12,1,K*%
%TO.N,row_2*%
X164639800Y-84455000D03*
%TO.P,D12,2,A*%
%TO.N,Net-(D12-Pad2)*%
X161089800Y-84455000D03*
%TD*%
%TO.P,D4,1,K*%
%TO.N,row_0*%
X236315600Y-37160200D03*
%TO.P,D4,2,A*%
%TO.N,Net-(D4-Pad2)*%
X232765600Y-37160200D03*
%TD*%
%TO.P,D0,1,K*%
%TO.N,row_0*%
X163623800Y-50088800D03*
%TO.P,D0,2,A*%
%TO.N,Net-(D0-Pad2)*%
X160073800Y-50088800D03*
%TD*%
%TO.P,D14,1,K*%
%TO.N,row_2*%
X200885600Y-71424800D03*
%TO.P,D14,2,A*%
%TO.N,Net-(D14-Pad2)*%
X197335600Y-71424800D03*
%TD*%
%TO.P,Dr8,1,K*%
%TO.N,row_1r*%
X104244600Y-54483000D03*
%TO.P,Dr8,2,A*%
%TO.N,Net-(Dr8-Pad2)*%
X107794600Y-54483000D03*
%TD*%
D27*
%TO.P,Dr19,1,K*%
%TO.N,row_3r*%
X41783000Y-87096600D03*
%TO.P,Dr19,2,A*%
%TO.N,Net-(Dr19-Pad2)*%
X45212036Y-86177792D03*
%TD*%
D22*
%TO.P,D5,1,K*%
%TO.N,row_0*%
X254273400Y-39928800D03*
%TO.P,D5,2,A*%
%TO.N,Net-(D5-Pad2)*%
X250723400Y-39928800D03*
%TD*%
%TO.P,Dr17,1,K*%
%TO.N,row_2r*%
X50320400Y-72771000D03*
%TO.P,Dr17,2,A*%
%TO.N,Net-(Dr17-Pad2)*%
X53870400Y-72771000D03*
%TD*%
%TO.P,D1,1,K*%
%TO.N,row_0*%
X183105600Y-50088800D03*
%TO.P,D1,2,A*%
%TO.N,Net-(D1-Pad2)*%
X179555600Y-50088800D03*
%TD*%
%TO.P,D8,1,K*%
%TO.N,row_1*%
X200704800Y-56261000D03*
%TO.P,D8,2,A*%
%TO.N,Net-(D8-Pad2)*%
X197154800Y-56261000D03*
%TD*%
D28*
%TO.N,gnd*%
X274260000Y-74860000D03*
%TO.N,vcc*%
X266620000Y-71770000D03*
%TO.N,reset*%
X271230000Y-77750000D03*
%TO.N,CS*%
X272740000Y-74890000D03*
%TO.N,CSr*%
X36395000Y-74345000D03*
%TO.N,col0*%
X189763400Y-76809600D03*
X255219200Y-79171800D03*
X154457400Y-42011600D03*
X152501600Y-74472800D03*
X152323800Y-57302400D03*
%TO.N,col1*%
X255219200Y-80483697D03*
X170103800Y-74498200D03*
X169976800Y-57073800D03*
X172516800Y-42240200D03*
%TO.N,col2*%
X255219200Y-81483200D03*
X188188600Y-62306200D03*
X188417200Y-45364400D03*
X199517000Y-39801800D03*
%TO.N,col3*%
X206121000Y-38277800D03*
X217855800Y-33274000D03*
X206171800Y-55778400D03*
X255270000Y-82651600D03*
X231724200Y-90551000D03*
%TO.N,col4*%
X226187000Y-28549600D03*
X255320800Y-83921600D03*
X235204000Y-55321200D03*
X250952000Y-93827600D03*
X224256600Y-60782200D03*
%TO.N,col5*%
X244475000Y-65303400D03*
X244576600Y-48158400D03*
X244551200Y-31064200D03*
X268198600Y-103124000D03*
%TO.N,col0r*%
X77343000Y-78028800D03*
X41275000Y-78765400D03*
X144170400Y-51866800D03*
X144018000Y-69062600D03*
X141630400Y-83540600D03*
%TO.N,col1r*%
X114249200Y-57327800D03*
X114808000Y-40335200D03*
X114655600Y-74168000D03*
X41249600Y-80010000D03*
%TO.N,col2r*%
X96494600Y-62382400D03*
X97104200Y-44983400D03*
X96723200Y-28092400D03*
X41249600Y-81356200D03*
X76327000Y-82854800D03*
%TO.N,col3r*%
X89814400Y-50063400D03*
X71602600Y-90398600D03*
X78968600Y-21463000D03*
X41249600Y-82397600D03*
X78765400Y-55448200D03*
%TO.N,col4r*%
X51790600Y-92100400D03*
X72212200Y-55194200D03*
X62865000Y-28371800D03*
X71729600Y-72440800D03*
%TO.N,col5r*%
X37973000Y-86131400D03*
X42976800Y-46075600D03*
X23571200Y-96748600D03*
X42773600Y-63169800D03*
X36906200Y-76530200D03*
X45008800Y-31267400D03*
X19837400Y-93370400D03*
%TD*%
D29*
%TO.N,gnd*%
X272585000Y-82180000D02*
X274755000Y-84350000D01*
X275050000Y-84350000D02*
X275900000Y-84350000D01*
X275900000Y-84350000D02*
X277110000Y-83140000D01*
X274755000Y-84350000D02*
X275050000Y-84350000D01*
X277110000Y-83140000D02*
X277110000Y-80670000D01*
X277110000Y-80670000D02*
X276110000Y-79670000D01*
%TO.N,vcc*%
X270045000Y-82180000D02*
X270045000Y-78655000D01*
%TO.N,CS*%
X275125000Y-80855000D02*
X272740000Y-78470000D01*
X275125000Y-82180000D02*
X275125000Y-80855000D01*
%TO.N,gnd*%
X276110000Y-79670000D02*
X274260000Y-77820000D01*
%TO.N,CS*%
X272740000Y-78470000D02*
X272740000Y-74890000D01*
%TO.N,vcc*%
X270045000Y-78655000D02*
X266780000Y-75390000D01*
X266780000Y-75390000D02*
X266620000Y-75230000D01*
X266620000Y-75230000D02*
X266620000Y-71770000D01*
%TO.N,row_2*%
X254781400Y-76281400D02*
X258359040Y-79859040D01*
X264709520Y-71450480D02*
X265990000Y-70170000D01*
X264709520Y-78581915D02*
X264709520Y-71450480D01*
X258359040Y-79859040D02*
X263432396Y-79859040D01*
X265990000Y-70170000D02*
X277659800Y-70170000D01*
X263432396Y-79859040D02*
X264709520Y-78581915D01*
X254781400Y-74193400D02*
X254781400Y-76281400D01*
%TO.N,row_1*%
X254044800Y-57124600D02*
X254044800Y-61474800D01*
X254044800Y-61474800D02*
X256000000Y-63430000D01*
X256000000Y-63430000D02*
X258020000Y-63430000D01*
X258020000Y-63430000D02*
X259800000Y-65210000D01*
X259800000Y-65210000D02*
X259800000Y-77865718D01*
X259800000Y-77865718D02*
X261343802Y-79409520D01*
X261343802Y-79409520D02*
X263246198Y-79409520D01*
X263246198Y-79409520D02*
X264260000Y-78395718D01*
X264260000Y-78395718D02*
X264260000Y-68880000D01*
X264260000Y-68880000D02*
X265510000Y-67630000D01*
X265510000Y-67630000D02*
X277659800Y-67630000D01*
%TO.N,row_0*%
X254273400Y-39928800D02*
X254273400Y-42742200D01*
X260350000Y-77780000D02*
X261530000Y-78960000D01*
X265020000Y-65090000D02*
X277659800Y-65090000D01*
X254273400Y-42742200D02*
X260350000Y-48818800D01*
X260350000Y-48818800D02*
X260350000Y-77780000D01*
X261530000Y-78960000D02*
X263060000Y-78960000D01*
X263700000Y-66410000D02*
X265020000Y-65090000D01*
X263060000Y-78960000D02*
X263700000Y-78320000D01*
X263700000Y-78320000D02*
X263700000Y-66410000D01*
D30*
%TO.N,BT+*%
X263855200Y-47396400D02*
X263855200Y-48995200D01*
X267520000Y-52660000D02*
X269630000Y-52660000D01*
X263855200Y-48995200D02*
X267520000Y-52660000D01*
X269630000Y-52660000D02*
X270625000Y-51665000D01*
X270625000Y-51665000D02*
X270625000Y-50088800D01*
%TO.N,raw*%
X262439800Y-49850000D02*
X266539800Y-53950000D01*
X266539800Y-53950000D02*
X272030000Y-53950000D01*
X272125000Y-53895000D02*
X272125000Y-50088800D01*
%TO.N,gnd*%
X262439800Y-52390000D02*
X267519800Y-57470000D01*
X267519800Y-57470000D02*
X277659800Y-57470000D01*
X277659800Y-54930000D02*
X277659800Y-57470000D01*
X275996400Y-47447200D02*
X275996400Y-53266600D01*
X275996400Y-53266600D02*
X277659800Y-54930000D01*
%TO.N,BT+_r*%
X20040600Y-47574200D02*
X20040600Y-48660600D01*
X20040600Y-48660600D02*
X23370000Y-51990000D01*
X23370000Y-51990000D02*
X25820000Y-51990000D01*
X25820000Y-51990000D02*
X26912000Y-50898000D01*
X26912000Y-50898000D02*
X26912000Y-49961800D01*
%TO.N,raw_r*%
X18722000Y-49722800D02*
X20339200Y-51340000D01*
X20339200Y-51340000D02*
X21350000Y-51340000D01*
X21350000Y-51340000D02*
X23410000Y-53400000D01*
X23410000Y-53400000D02*
X27350000Y-53400000D01*
X27350000Y-53400000D02*
X28412000Y-52338000D01*
X28412000Y-52338000D02*
X28412000Y-49961800D01*
%TO.N,gnd_r*%
X18722000Y-52262800D02*
X20692800Y-52262800D01*
X20692800Y-52262800D02*
X24240000Y-55810000D01*
X24240000Y-55810000D02*
X30700000Y-55810000D01*
X30700000Y-55810000D02*
X31707200Y-54802800D01*
X31707200Y-54802800D02*
X33942000Y-54802800D01*
X33942000Y-54802800D02*
X33942000Y-57342800D01*
X32207200Y-47625000D02*
X32207200Y-53068000D01*
X32207200Y-53068000D02*
X33942000Y-54802800D01*
D29*
%TO.N,gnd*%
X274260000Y-77820000D02*
X274260000Y-74860000D01*
%TO.N,reset*%
X271340000Y-88078121D02*
X271527756Y-88265877D01*
X271230000Y-77750000D02*
X271340000Y-77860000D01*
X271340000Y-77860000D02*
X271340000Y-88078121D01*
%TO.N,reset_r*%
X21080000Y-57160800D02*
X18722000Y-54802800D01*
X21087756Y-90844123D02*
X21087756Y-89407756D01*
X18690000Y-80470000D02*
X21080000Y-78080000D01*
X18690000Y-87010000D02*
X18690000Y-80470000D01*
X21087756Y-89407756D02*
X18690000Y-87010000D01*
X21080000Y-78080000D02*
X21080000Y-57160800D01*
%TO.N,MOSIr*%
X21230000Y-81380000D02*
X24010000Y-78600000D01*
X31390000Y-77580000D02*
X31390000Y-61850000D01*
X24010000Y-78600000D02*
X30370000Y-78600000D01*
X31780000Y-61460000D02*
X32364800Y-61460000D01*
X31390000Y-61850000D02*
X31780000Y-61460000D01*
X30370000Y-78600000D02*
X31390000Y-77580000D01*
X21230000Y-82090000D02*
X21230000Y-81380000D01*
X32364800Y-61460000D02*
X33942000Y-59882800D01*
%TO.N,SCKr*%
X33007200Y-62422800D02*
X33942000Y-62422800D01*
X23770000Y-80920000D02*
X25340000Y-79350000D01*
X32140000Y-63290000D02*
X33007200Y-62422800D01*
X23770000Y-82090000D02*
X23770000Y-80920000D01*
X30870000Y-79350000D02*
X32140000Y-78080000D01*
X25340000Y-79350000D02*
X30870000Y-79350000D01*
X32140000Y-78080000D02*
X32140000Y-63290000D01*
%TO.N,CSr*%
X35780000Y-80840000D02*
X35780000Y-74960000D01*
X35780000Y-74960000D02*
X36395000Y-74345000D01*
X31390000Y-82090000D02*
X34530000Y-82090000D01*
X36395000Y-74345000D02*
X36410000Y-74330000D01*
X34530000Y-82090000D02*
X35780000Y-80840000D01*
%TO.N,gnd_r*%
X29780000Y-77550000D02*
X30840000Y-76490000D01*
X20330000Y-84220000D02*
X19660000Y-83550000D01*
X19660000Y-83550000D02*
X19660000Y-81310978D01*
X25030000Y-81100000D02*
X25030000Y-83720000D01*
X28950000Y-84578121D02*
X28950000Y-82100000D01*
X23420978Y-77550000D02*
X29780000Y-77550000D01*
X28850000Y-81070000D02*
X28300000Y-80520000D01*
X25610000Y-80520000D02*
X25030000Y-81100000D01*
X28850000Y-82090000D02*
X28850000Y-81070000D01*
X28300000Y-80520000D02*
X25610000Y-80520000D01*
X19660000Y-81310978D02*
X23420978Y-77550000D01*
X30840000Y-60444800D02*
X33942000Y-57342800D01*
X25030000Y-83720000D02*
X24530000Y-84220000D01*
X24530000Y-84220000D02*
X20330000Y-84220000D01*
X30840000Y-76490000D02*
X30840000Y-60444800D01*
X26412244Y-87115877D02*
X28950000Y-84578121D01*
%TO.N,vcc_r*%
X21970000Y-92480000D02*
X20360000Y-92480000D01*
X26310000Y-82090000D02*
X26310000Y-84090000D01*
X23250000Y-91200000D02*
X21970000Y-92480000D01*
X19802800Y-57342800D02*
X18722000Y-57342800D01*
X20600000Y-58140000D02*
X19802800Y-57342800D01*
X26310000Y-84090000D02*
X23250000Y-87150000D01*
X20600000Y-77750000D02*
X20600000Y-58140000D01*
X20360000Y-92480000D02*
X18240000Y-90360000D01*
X18240000Y-90360000D02*
X18240000Y-80110000D01*
X18240000Y-80110000D02*
X20600000Y-77750000D01*
X23250000Y-87150000D02*
X23250000Y-91200000D01*
%TO.N,row_0*%
X201091800Y-26492200D02*
X203682600Y-23901400D01*
X197561200Y-32537400D02*
X199720200Y-32537400D01*
X240868200Y-40106600D02*
X241909600Y-40106600D01*
X207289400Y-20548600D02*
X209191400Y-22450600D01*
X183105600Y-48694800D02*
X187071000Y-44729400D01*
X218592400Y-30251400D02*
X221411800Y-33070800D01*
X217906600Y-21539200D02*
X218592400Y-22225000D01*
X236315600Y-37160200D02*
X237921800Y-37160200D01*
X179346400Y-53848000D02*
X183105600Y-50088800D01*
X163623800Y-50088800D02*
X167487600Y-50088800D01*
X203682600Y-21590000D02*
X204724000Y-20548600D01*
X187071000Y-44729400D02*
X187071000Y-41579800D01*
X191335200Y-37385800D02*
X191335200Y-29692600D01*
X233115200Y-40360600D02*
X236315600Y-37160200D01*
X215214200Y-21539200D02*
X217906600Y-21539200D01*
X193598800Y-31191200D02*
X196215000Y-31191200D01*
X211175600Y-23139400D02*
X211658200Y-22656800D01*
X244678200Y-42875200D02*
X251327000Y-42875200D01*
X196215000Y-31191200D02*
X197561200Y-32537400D01*
X209191400Y-22450600D02*
X209191400Y-23139400D01*
X187934600Y-40716200D02*
X189992000Y-40716200D01*
X191592200Y-39116000D02*
X191592200Y-37642800D01*
X189992000Y-40716200D02*
X191592200Y-39116000D01*
X214096600Y-22656800D02*
X215214200Y-21539200D01*
X241909600Y-40106600D02*
X244678200Y-42875200D01*
X204724000Y-20548600D02*
X207289400Y-20548600D01*
X187071000Y-41579800D02*
X187934600Y-40716200D01*
X167487600Y-50088800D02*
X171246800Y-53848000D01*
X209191400Y-23139400D02*
X211175600Y-23139400D01*
X251327000Y-42875200D02*
X254273400Y-39928800D01*
X191592200Y-37642800D02*
X191335200Y-37385800D01*
X192100200Y-29692600D02*
X193598800Y-31191200D01*
X201091800Y-31165800D02*
X201091800Y-26492200D01*
X199720200Y-32537400D02*
X201091800Y-31165800D01*
X221411800Y-36703000D02*
X225069400Y-40360600D01*
X218592400Y-22225000D02*
X218592400Y-30251400D01*
X171246800Y-53848000D02*
X179346400Y-53848000D01*
X183105600Y-50088800D02*
X183105600Y-48694800D01*
X191335200Y-29692600D02*
X192100200Y-29692600D01*
X211658200Y-22656800D02*
X214096600Y-22656800D01*
X221411800Y-33070800D02*
X221411800Y-36703000D01*
X203682600Y-23901400D02*
X203682600Y-21590000D01*
X237921800Y-37160200D02*
X240868200Y-40106600D01*
X225069400Y-40360600D02*
X233115200Y-40360600D01*
%TO.N,Net-(D0-Pad2)*%
X160147000Y-50088800D02*
X162306000Y-47929800D01*
X159708200Y-49723200D02*
X160073800Y-50088800D01*
X162306000Y-47929800D02*
X163011208Y-47929800D01*
X152784800Y-49723200D02*
X159708200Y-49723200D01*
X163011208Y-47929800D02*
X166059800Y-44881208D01*
X160073800Y-50088800D02*
X160147000Y-50088800D01*
X166059800Y-44881208D02*
X166059800Y-42173200D01*
%TO.N,Net-(D2-Pad2)*%
X198802000Y-28444200D02*
X196672200Y-26314400D01*
X196672200Y-26314400D02*
X191163400Y-26314400D01*
X198802000Y-30083600D02*
X198802000Y-28444200D01*
X185527000Y-31950800D02*
X187785200Y-29692600D01*
X185527000Y-37633600D02*
X185527000Y-31950800D01*
X191163400Y-26314400D02*
X187785200Y-29692600D01*
%TO.N,row_1*%
X167614600Y-67894200D02*
X170967400Y-71247000D01*
X218230800Y-49028000D02*
X218230800Y-47828200D01*
X219329000Y-47828200D02*
X220903800Y-46253400D01*
X222046800Y-43459400D02*
X225399600Y-43459400D01*
X233476800Y-43637200D02*
X235331000Y-43637200D01*
X251123800Y-60045600D02*
X254044800Y-57124600D01*
X227863400Y-44831000D02*
X229108000Y-46075600D01*
X200704800Y-57791000D02*
X200704800Y-56261000D01*
X231038400Y-46075600D02*
X233476800Y-43637200D01*
X238480600Y-46786800D02*
X238480600Y-55702200D01*
X220903800Y-44602400D02*
X222046800Y-43459400D01*
X242824000Y-60045600D02*
X251123800Y-60045600D01*
X186613800Y-61518800D02*
X188849000Y-59283600D01*
X186613800Y-63804800D02*
X186613800Y-61518800D01*
X178917600Y-71247000D02*
X183054800Y-67109800D01*
X226409600Y-44469400D02*
X226409600Y-44831000D01*
X235331000Y-43637200D02*
X238480600Y-46786800D01*
X229108000Y-46075600D02*
X231038400Y-46075600D01*
X205841600Y-52451000D02*
X214807800Y-52451000D01*
X188849000Y-59283600D02*
X199212200Y-59283600D01*
X200704800Y-56261000D02*
X202031600Y-56261000D01*
X218230800Y-47828200D02*
X219329000Y-47828200D01*
X226409600Y-44831000D02*
X227863400Y-44831000D01*
X183054800Y-67109800D02*
X183054800Y-67081400D01*
X170967400Y-71247000D02*
X178917600Y-71247000D01*
X199212200Y-59283600D02*
X200704800Y-57791000D01*
X183054800Y-67081400D02*
X183337200Y-67081400D01*
X238480600Y-55702200D02*
X242824000Y-60045600D01*
X214807800Y-52451000D02*
X218230800Y-49028000D01*
X202031600Y-56261000D02*
X205841600Y-52451000D01*
X220903800Y-46253400D02*
X220903800Y-44602400D01*
X164157200Y-67894200D02*
X167614600Y-67894200D01*
X225399600Y-43459400D02*
X226409600Y-44469400D01*
X183337200Y-67081400D02*
X186613800Y-63804800D01*
%TO.N,Net-(D6-Pad2)*%
X166059800Y-59292800D02*
X166059800Y-62337000D01*
X152784800Y-66842800D02*
X159555800Y-66842800D01*
X159555800Y-66842800D02*
X160607200Y-67894200D01*
X166059800Y-62337000D02*
X160607200Y-67789600D01*
X160607200Y-67789600D02*
X160607200Y-67894200D01*
%TO.N,Net-(D7-Pad2)*%
X184068400Y-63048200D02*
X180035200Y-67081400D01*
X179240800Y-66817400D02*
X179504800Y-67081400D01*
X180035200Y-67081400D02*
X179504800Y-67081400D01*
X184068400Y-59267400D02*
X184068400Y-63048200D01*
X170793400Y-66817400D02*
X179240800Y-66817400D01*
%TO.N,Net-(D8-Pad2)*%
X202051600Y-47253200D02*
X202051600Y-51465800D01*
X188776600Y-54803200D02*
X195697000Y-54803200D01*
X195697000Y-54803200D02*
X197154800Y-56261000D01*
X197256400Y-56261000D02*
X197154800Y-56261000D01*
X202051600Y-51465800D02*
X197256400Y-56261000D01*
%TO.N,row_2*%
X176377600Y-84201000D02*
X179247800Y-87071200D01*
X188290200Y-77673200D02*
X188290200Y-75133200D01*
X167436800Y-84455000D02*
X168960800Y-85979000D01*
X238455200Y-71907400D02*
X243636800Y-77089000D01*
X218281600Y-66421000D02*
X218281600Y-67380200D01*
X174752000Y-84201000D02*
X176377600Y-84201000D01*
X182750000Y-84861400D02*
X182750000Y-83213400D01*
X168960800Y-85979000D02*
X172974000Y-85979000D01*
X179247800Y-87071200D02*
X180540200Y-87071200D01*
X172974000Y-85979000D02*
X174752000Y-84201000D01*
X251885800Y-77089000D02*
X254781400Y-74193400D01*
X233572400Y-74574400D02*
X236239400Y-71907400D01*
X180540200Y-87071200D02*
X182750000Y-84861400D01*
X200885600Y-71424800D02*
X213277800Y-71424800D01*
X188290200Y-75133200D02*
X191871600Y-71551800D01*
X236239400Y-71907400D02*
X238455200Y-71907400D01*
X164639800Y-84455000D02*
X167436800Y-84455000D01*
X191871600Y-71551800D02*
X195249800Y-71551800D01*
X243636800Y-77089000D02*
X251885800Y-77089000D01*
X195249800Y-71551800D02*
X196215000Y-72517000D01*
X199793400Y-72517000D02*
X200885600Y-71424800D01*
X225475800Y-74574400D02*
X233572400Y-74574400D01*
X213277800Y-71424800D02*
X218281600Y-66421000D01*
X218281600Y-67380200D02*
X225475800Y-74574400D01*
X196215000Y-72517000D02*
X199793400Y-72517000D01*
X182750000Y-83213400D02*
X188290200Y-77673200D01*
%TO.N,Net-(D12-Pad2)*%
X152810200Y-83962400D02*
X160597200Y-83962400D01*
X160597200Y-83962400D02*
X161089800Y-84455000D01*
X161137600Y-84455000D02*
X161089800Y-84455000D01*
X166085200Y-79507400D02*
X161137600Y-84455000D01*
X166085200Y-76412400D02*
X166085200Y-79507400D01*
%TO.N,Net-(D13-Pad2)*%
X184093800Y-80244000D02*
X179476400Y-84861400D01*
X179476400Y-84861400D02*
X179200000Y-84861400D01*
X176761600Y-82423000D02*
X179200000Y-84861400D01*
X170818800Y-83937000D02*
X172332800Y-82423000D01*
X172332800Y-82423000D02*
X176761600Y-82423000D01*
X184093800Y-76387000D02*
X184093800Y-80244000D01*
%TO.N,Net-(D14-Pad2)*%
X196395800Y-70485000D02*
X197335600Y-71424800D01*
X188776600Y-71922800D02*
X190214400Y-70485000D01*
X202051600Y-67594800D02*
X198221600Y-71424800D01*
X202051600Y-64372800D02*
X202051600Y-67594800D01*
X190214400Y-70485000D02*
X196395800Y-70485000D01*
X198221600Y-71424800D02*
X197335600Y-71424800D01*
%TO.N,Net-(D15-Pad2)*%
X206785200Y-65039400D02*
X213350000Y-65039400D01*
X215925400Y-59893200D02*
X214731600Y-61087000D01*
X220060200Y-57489400D02*
X217656400Y-59893200D01*
X213350000Y-65039400D02*
X214731600Y-66421000D01*
X217656400Y-59893200D02*
X215925400Y-59893200D01*
X214731600Y-61087000D02*
X214731600Y-66421000D01*
%TO.N,row_3*%
X224987200Y-82727800D02*
X225856800Y-82727800D01*
X231876600Y-85750400D02*
X231876600Y-87884000D01*
X274790000Y-90620000D02*
X278030000Y-87380000D01*
X251637800Y-89077800D02*
X263728200Y-89077800D01*
X271150000Y-90620000D02*
X274790000Y-90620000D01*
X278030000Y-80550000D02*
X276540000Y-79060000D01*
X246837236Y-85399208D02*
X247959208Y-85399208D01*
X245846600Y-92684600D02*
X245846600Y-86389844D01*
X230378000Y-84251800D02*
X231876600Y-85750400D01*
X245846600Y-86389844D02*
X246837236Y-85399208D01*
X243306600Y-95224600D02*
X245846600Y-92684600D01*
X247959208Y-85399208D02*
X251637800Y-89077800D01*
X276540000Y-73829800D02*
X277659800Y-72710000D01*
X266737790Y-93806396D02*
X267963604Y-93806396D01*
X239217200Y-95224600D02*
X243306600Y-95224600D01*
X227380800Y-84251800D02*
X230378000Y-84251800D01*
X278030000Y-87380000D02*
X278030000Y-80550000D01*
X225856800Y-82727800D02*
X227380800Y-84251800D01*
X231876600Y-87884000D02*
X239217200Y-95224600D01*
X266737790Y-92087390D02*
X266737790Y-93806396D01*
X276540000Y-79060000D02*
X276540000Y-73829800D01*
X267963604Y-93806396D02*
X271150000Y-90620000D01*
X263728200Y-89077800D02*
X266737790Y-92087390D01*
%TO.N,Net-(D19-Pad2)*%
X245160800Y-84480400D02*
X245440200Y-84201000D01*
X245440200Y-84201000D02*
X247802400Y-84201000D01*
X243408200Y-84480400D02*
X239702392Y-88186208D01*
X247802400Y-84201000D02*
X250582177Y-86980777D01*
X239702392Y-88186208D02*
X239702392Y-90837694D01*
X243408200Y-84480400D02*
X245160800Y-84480400D01*
X250582177Y-86980777D02*
X254479142Y-86980777D01*
%TO.N,Net-(D20-Pad2)*%
X263829800Y-91770200D02*
X259230525Y-96369475D01*
X272102647Y-95859600D02*
X274042151Y-97799104D01*
X264718800Y-92659200D02*
X264718800Y-94716600D01*
X263829800Y-91770200D02*
X264718800Y-92659200D01*
X259230525Y-96369475D02*
X258837405Y-96369475D01*
X264718800Y-94716600D02*
X265861800Y-95859600D01*
X265861800Y-95859600D02*
X272102647Y-95859600D01*
%TO.N,col0*%
X229758360Y-78171160D02*
X226857440Y-78171160D01*
X154300200Y-57302400D02*
X154509800Y-57092800D01*
X242646200Y-81508600D02*
X240004600Y-78867000D01*
X194978080Y-72169080D02*
X192829120Y-72169080D01*
X154457400Y-40025600D02*
X154509800Y-39973200D01*
X252034877Y-80584160D02*
X248218840Y-80584160D01*
X219489080Y-73032680D02*
X195841680Y-73032680D01*
X152501600Y-74472800D02*
X154274800Y-74472800D01*
X225374200Y-78917800D02*
X219489080Y-73032680D01*
X154457400Y-42011600D02*
X154457400Y-40025600D01*
X226110800Y-78917800D02*
X225374200Y-78917800D01*
X252705317Y-81254600D02*
X252034877Y-80584160D01*
X240004600Y-78867000D02*
X230454200Y-78867000D01*
X152323800Y-57302400D02*
X154300200Y-57302400D01*
X230454200Y-78867000D02*
X229758360Y-78171160D01*
X189763400Y-75234800D02*
X189763400Y-76809600D01*
X248218840Y-80584160D02*
X247294400Y-81508600D01*
X253263400Y-81254600D02*
X252705317Y-81254600D01*
X226857440Y-78171160D02*
X226110800Y-78917800D01*
X255219200Y-79298800D02*
X253263400Y-81254600D01*
X154274800Y-74472800D02*
X154535200Y-74212400D01*
X192829120Y-72169080D02*
X189763400Y-75234800D01*
X247294400Y-81508600D02*
X242646200Y-81508600D01*
X195841680Y-73032680D02*
X194978080Y-72169080D01*
X255219200Y-79171800D02*
X255219200Y-79298800D01*
%TO.N,col1*%
X253390400Y-81940400D02*
X252755400Y-81940400D01*
X225247200Y-79578200D02*
X219151200Y-73482200D01*
X219151200Y-73482200D02*
X195554600Y-73482200D01*
X255219200Y-80483697D02*
X254847103Y-80483697D01*
X183159400Y-88696800D02*
X178478600Y-88696800D01*
X195554600Y-73482200D02*
X194691000Y-72618600D01*
X184912000Y-83413600D02*
X184912000Y-86944200D01*
X170415000Y-74187000D02*
X172543800Y-74187000D01*
X184912000Y-86944200D02*
X183159400Y-88696800D01*
X247548400Y-82016600D02*
X242341400Y-82016600D01*
X252755400Y-81940400D02*
X251848680Y-81033680D01*
X251848680Y-81033680D02*
X248531320Y-81033680D01*
X172518400Y-39973200D02*
X172518400Y-42238600D01*
X170103800Y-74498200D02*
X170415000Y-74187000D01*
X227119120Y-78620680D02*
X226161600Y-79578200D01*
X254847103Y-80483697D02*
X253390400Y-81940400D01*
X169976800Y-57073800D02*
X169983200Y-57067400D01*
X191338200Y-76987400D02*
X184912000Y-83413600D01*
X191338200Y-74396600D02*
X191338200Y-76987400D01*
X229496680Y-78620680D02*
X227119120Y-78620680D01*
X172518400Y-42238600D02*
X172516800Y-42240200D01*
X226161600Y-79578200D02*
X225247200Y-79578200D01*
X194691000Y-72618600D02*
X193116200Y-72618600D01*
X230276400Y-79400400D02*
X229496680Y-78620680D01*
X248531320Y-81033680D02*
X247548400Y-82016600D01*
X242341400Y-82016600D02*
X239725200Y-79400400D01*
X169983200Y-57067400D02*
X172518400Y-57067400D01*
X239725200Y-79400400D02*
X230276400Y-79400400D01*
X193116200Y-72618600D02*
X191338200Y-74396600D01*
X178478600Y-88696800D02*
X175818800Y-86037000D01*
%TO.N,col2*%
X218904400Y-74022800D02*
X193776600Y-74022800D01*
X227558600Y-79070200D02*
X226466400Y-80162400D01*
X226466400Y-80162400D02*
X225044000Y-80162400D01*
X255219200Y-81483200D02*
X254000000Y-82702400D01*
X225044000Y-80162400D02*
X218904400Y-74022800D01*
X230047800Y-79959200D02*
X229158800Y-79070200D01*
X252831600Y-82702400D02*
X251612400Y-81483200D01*
X188188600Y-62306200D02*
X190368200Y-62306200D01*
X239598200Y-79959200D02*
X230047800Y-79959200D01*
X229158800Y-79070200D02*
X227558600Y-79070200D01*
X190190400Y-45364400D02*
X190501600Y-45053200D01*
X242163600Y-82524600D02*
X239598200Y-79959200D01*
X254000000Y-82702400D02*
X252831600Y-82702400D01*
X190368200Y-62306200D02*
X190501600Y-62172800D01*
X248996200Y-81483200D02*
X247954800Y-82524600D01*
X199517000Y-39801800D02*
X197108800Y-39801800D01*
X251612400Y-81483200D02*
X248996200Y-81483200D01*
X188417200Y-45364400D02*
X190190400Y-45364400D01*
X197108800Y-39801800D02*
X197077000Y-39833600D01*
X247954800Y-82524600D02*
X242163600Y-82524600D01*
%TO.N,col3*%
X249250200Y-82092800D02*
X248183400Y-83159600D01*
X248183400Y-83159600D02*
X241935000Y-83159600D01*
X239514800Y-80739400D02*
X228473000Y-80739400D01*
X241935000Y-83159600D02*
X239514800Y-80739400D01*
X206171800Y-55778400D02*
X206660800Y-55289400D01*
X251231400Y-82092800D02*
X249250200Y-82092800D01*
X231724200Y-92565600D02*
X231748000Y-92589400D01*
X206121000Y-38277800D02*
X208402200Y-38277800D01*
X206660800Y-55289400D02*
X208510200Y-55289400D01*
X254712882Y-83208718D02*
X252347318Y-83208718D01*
X252347318Y-83208718D02*
X251231400Y-82092800D01*
X231724200Y-90551000D02*
X231724200Y-92565600D01*
X217855800Y-33274000D02*
X217557400Y-32975600D01*
X208402200Y-38277800D02*
X208510200Y-38169800D01*
X255270000Y-82651600D02*
X254712882Y-83208718D01*
X217557400Y-32975600D02*
X215085600Y-32975600D01*
%TO.N,col4*%
X235204000Y-55321200D02*
X233176800Y-55321200D01*
X250952000Y-93827600D02*
X250952000Y-95289525D01*
X250952000Y-95289525D02*
X250289434Y-95952091D01*
X255057438Y-83658238D02*
X250193032Y-83658238D01*
X255320800Y-83921600D02*
X255057438Y-83658238D01*
X226385400Y-60782200D02*
X226518800Y-60648800D01*
X233176800Y-55321200D02*
X233068800Y-55429200D01*
X226187000Y-28549600D02*
X226187000Y-26766800D01*
X226187000Y-26766800D02*
X226544200Y-26409600D01*
X224256600Y-60782200D02*
X226385400Y-60782200D01*
%TO.N,col5*%
X244551200Y-28976600D02*
X244552800Y-28975000D01*
X244475000Y-63292000D02*
X244552800Y-63214200D01*
X244576600Y-48158400D02*
X244576600Y-46118400D01*
X244576600Y-46118400D02*
X244552800Y-46094600D01*
X268198600Y-103634560D02*
X267036743Y-104796417D01*
X244551200Y-31064200D02*
X244551200Y-28976600D01*
X244475000Y-65303400D02*
X244475000Y-63292000D01*
X268198600Y-103124000D02*
X268198600Y-103634560D01*
%TO.N,Net-(D1-Pad2)*%
X184068400Y-42173200D02*
X184068400Y-45576000D01*
X179190000Y-49723200D02*
X179555600Y-50088800D01*
X170793400Y-49723200D02*
X179190000Y-49723200D01*
X184068400Y-45576000D02*
X179555600Y-50088800D01*
%TO.N,Net-(D3-Pad2)*%
X203535600Y-25245200D02*
X203535600Y-30775600D01*
X205641400Y-23139400D02*
X205641400Y-23625000D01*
X205641400Y-23625000D02*
X207594200Y-25577800D01*
X205641400Y-23139400D02*
X203535600Y-25245200D01*
X209931000Y-25577800D02*
X212283200Y-23225600D01*
X207594200Y-25577800D02*
X209931000Y-25577800D01*
X212283200Y-23225600D02*
X216810600Y-23225600D01*
%TO.N,Net-(D4-Pad2)*%
X224819200Y-36159600D02*
X231765000Y-36159600D01*
X238094200Y-28609600D02*
X238094200Y-32619000D01*
X238094200Y-32619000D02*
X233553000Y-37160200D01*
X233553000Y-37160200D02*
X232765600Y-37160200D01*
X231765000Y-36159600D02*
X232765600Y-37160200D01*
%TO.N,Net-(D5-Pad2)*%
X251866400Y-39928800D02*
X250723400Y-39928800D01*
X242827800Y-38725000D02*
X249519600Y-38725000D01*
X256102800Y-35692400D02*
X251866400Y-39928800D01*
X249519600Y-38725000D02*
X250723400Y-39928800D01*
X256102800Y-31175000D02*
X256102800Y-35692400D01*
%TO.N,Net-(D9-Pad2)*%
X220060200Y-43795000D02*
X216027000Y-47828200D01*
X206785200Y-47919800D02*
X214589200Y-47919800D01*
X214589200Y-47919800D02*
X214680800Y-47828200D01*
X216027000Y-47828200D02*
X214680800Y-47828200D01*
X220060200Y-40369800D02*
X220060200Y-43795000D01*
%TO.N,Net-(D10-Pad2)*%
X227965000Y-47650400D02*
X228422200Y-47193200D01*
X233279800Y-47193200D02*
X234793800Y-45679200D01*
X222859600Y-51888400D02*
X221518800Y-53229200D01*
X222859600Y-44831000D02*
X222859600Y-51888400D01*
X225679000Y-47650400D02*
X227965000Y-47650400D01*
X222859600Y-44831000D02*
X225679000Y-47650400D01*
X228422200Y-47193200D02*
X233279800Y-47193200D01*
%TO.N,Net-(D11-Pad2)*%
X253822200Y-55397400D02*
X251536200Y-55397400D01*
X249214800Y-55844600D02*
X250494800Y-57124600D01*
X242827800Y-55844600D02*
X249214800Y-55844600D01*
X250494800Y-56438800D02*
X250494800Y-57124600D01*
X256102800Y-53116800D02*
X253822200Y-55397400D01*
X256102800Y-48294600D02*
X256102800Y-53116800D01*
X251536200Y-55397400D02*
X250494800Y-56438800D01*
%TO.N,Net-(D16-Pad2)*%
X224793800Y-70398800D02*
X231180800Y-70398800D01*
X233857800Y-71907400D02*
X232689400Y-71907400D01*
X231180800Y-70398800D02*
X232689400Y-71907400D01*
X238068800Y-67696400D02*
X233857800Y-71907400D01*
X238068800Y-62848800D02*
X238068800Y-67696400D01*
%TO.N,Net-(D17-Pad2)*%
X250002200Y-72964200D02*
X251231400Y-74193400D01*
X256102800Y-65414200D02*
X256102800Y-69322000D01*
X242827800Y-72964200D02*
X250002200Y-72964200D01*
X256102800Y-69322000D02*
X251231400Y-74193400D01*
%TO.N,Net-(D18-Pad2)*%
X223469200Y-81203800D02*
X226060000Y-81203800D01*
X227695600Y-82839400D02*
X233473000Y-82839400D01*
X221437200Y-82727800D02*
X221945200Y-82727800D01*
X221437200Y-82727800D02*
X221437200Y-84734400D01*
X221945200Y-82727800D02*
X223469200Y-81203800D01*
X221437200Y-84734400D02*
X220198000Y-85973600D01*
X220198000Y-85973600D02*
X220198000Y-90389400D01*
X226060000Y-81203800D02*
X227695600Y-82839400D01*
%TO.N,row_0r*%
X87655400Y-30759400D02*
X86312200Y-30759400D01*
X109728000Y-42240200D02*
X108229400Y-42240200D01*
X60274200Y-39954200D02*
X51387200Y-39954200D01*
X114427000Y-51638200D02*
X113233200Y-50444400D01*
X122380200Y-50371200D02*
X122380200Y-49657000D01*
X81416970Y-30759400D02*
X73873170Y-38303200D01*
X35763200Y-63141600D02*
X33942000Y-64962800D01*
X113233200Y-45745400D02*
X109728000Y-42240200D01*
X108229400Y-42240200D02*
X104371600Y-38382400D01*
X116992400Y-51638200D02*
X114427000Y-51638200D01*
X127203200Y-51689000D02*
X123698000Y-51689000D01*
X118973600Y-49657000D02*
X116992400Y-51638200D01*
X113233200Y-50444400D02*
X113233200Y-45745400D01*
X127685800Y-48006000D02*
X127685800Y-51206400D01*
X50066400Y-38633400D02*
X46863000Y-38633400D01*
X73873170Y-38303200D02*
X69138800Y-38303200D01*
X133172200Y-42773600D02*
X132918200Y-42773600D01*
X46863000Y-38633400D02*
X35763200Y-49733200D01*
X86312200Y-30759400D02*
X81416970Y-30759400D01*
X96672400Y-39776400D02*
X87655400Y-30759400D01*
X104371600Y-38382400D02*
X104371600Y-37769800D01*
X132918200Y-42773600D02*
X127685800Y-48006000D01*
X104371600Y-37769800D02*
X100685600Y-37769800D01*
X35763200Y-49733200D02*
X35763200Y-63141600D01*
X127685800Y-51206400D02*
X127203200Y-51689000D01*
X123698000Y-51689000D02*
X122380200Y-50371200D01*
X122380200Y-49657000D02*
X118973600Y-49657000D01*
X100685600Y-37769800D02*
X98679000Y-39776400D01*
X64058800Y-36169600D02*
X60274200Y-39954200D01*
X98679000Y-39776400D02*
X96672400Y-39776400D01*
X69138800Y-38303200D02*
X68252800Y-37417200D01*
X51387200Y-39954200D02*
X50066400Y-38633400D01*
X68252800Y-37417200D02*
X68252800Y-36169600D01*
X68252800Y-36169600D02*
X64058800Y-36169600D01*
%TO.N,Net-(Dr0-Pad2)*%
X136722200Y-42773600D02*
X136722200Y-44278200D01*
X130753626Y-49724000D02*
X130129600Y-49724000D01*
X133284426Y-47193200D02*
X130753626Y-49724000D01*
X137321800Y-42174000D02*
X136722200Y-42773600D01*
X136722200Y-44278200D02*
X133807200Y-47193200D01*
X143404600Y-42174000D02*
X137321800Y-42174000D01*
X133807200Y-47193200D02*
X133284426Y-47193200D01*
%TO.N,Net-(Dr1-Pad2)*%
X116859200Y-48310800D02*
X115396000Y-49774000D01*
X124256800Y-48310800D02*
X116859200Y-48310800D01*
X125603000Y-49657000D02*
X124256800Y-48310800D01*
X128671000Y-42224000D02*
X128671000Y-45344400D01*
X128671000Y-45344400D02*
X125930200Y-48085200D01*
X125930200Y-49657000D02*
X125603000Y-49657000D01*
X125930200Y-48085200D02*
X125930200Y-49657000D01*
%TO.N,Net-(Dr2-Pad2)*%
X110662400Y-30184400D02*
X110662400Y-35029000D01*
X98977600Y-36144200D02*
X97387400Y-37734400D01*
X107543600Y-37769800D02*
X105918000Y-36144200D01*
X107921600Y-37769800D02*
X107543600Y-37769800D01*
X110662400Y-35029000D02*
X107921600Y-37769800D01*
X105918000Y-36144200D02*
X98977600Y-36144200D01*
%TO.N,Net-(Dr3-Pad2)*%
X80842000Y-29438600D02*
X79378800Y-30901800D01*
X88112600Y-29438600D02*
X80842000Y-29438600D01*
X92653800Y-27967800D02*
X89862200Y-30759400D01*
X92653800Y-23351800D02*
X92653800Y-27967800D01*
X89433400Y-30759400D02*
X88112600Y-29438600D01*
X89862200Y-30759400D02*
X89433400Y-30759400D01*
%TO.N,Net-(Dr4-Pad2)*%
X74619800Y-28609600D02*
X74619800Y-33352600D01*
X71802800Y-36169600D02*
X71297800Y-36169600D01*
X74619800Y-33352600D02*
X71802800Y-36169600D01*
X69951600Y-34823400D02*
X62681000Y-34823400D01*
X71297800Y-36169600D02*
X69951600Y-34823400D01*
X62681000Y-34823400D02*
X61344800Y-36159600D01*
%TO.N,Net-(Dr5-Pad2)*%
X44901000Y-37185600D02*
X43336200Y-38750400D01*
X52908200Y-38633400D02*
X51460400Y-37185600D01*
X53616400Y-38633400D02*
X52908200Y-38633400D01*
X56611200Y-35638600D02*
X53616400Y-38633400D01*
X56611200Y-31200400D02*
X56611200Y-35638600D01*
X51460400Y-37185600D02*
X44901000Y-37185600D01*
%TO.N,row_1r*%
X127736600Y-67513200D02*
X126923800Y-68326000D01*
X94843600Y-56286400D02*
X94843600Y-48793400D01*
X95758000Y-57200800D02*
X94843600Y-56286400D01*
X104244600Y-55400400D02*
X104244600Y-54483000D01*
X89484200Y-46888400D02*
X87274400Y-44678600D01*
X82197400Y-37309600D02*
X82197400Y-40843200D01*
X94843600Y-48793400D02*
X92938600Y-46888400D01*
X87274400Y-44678600D02*
X87274400Y-42875200D01*
X109880400Y-57327800D02*
X106172000Y-57327800D01*
X40707920Y-65232080D02*
X36212720Y-65232080D01*
X127736600Y-65125600D02*
X127736600Y-67513200D01*
X58648600Y-50520600D02*
X57861200Y-51308000D01*
X55092600Y-58242200D02*
X51130200Y-58242200D01*
X133172200Y-59690000D02*
X127736600Y-65125600D01*
X106172000Y-57327800D02*
X104244600Y-55400400D01*
X92938600Y-46888400D02*
X89484200Y-46888400D01*
X87960200Y-42189400D02*
X90246200Y-42189400D01*
X91186000Y-38252400D02*
X89408000Y-36474400D01*
X104244600Y-54483000D02*
X100660200Y-54483000D01*
X100660200Y-54483000D02*
X97942400Y-57200800D01*
X50396600Y-57508600D02*
X50396600Y-55829200D01*
X114020600Y-69011800D02*
X112903000Y-67894200D01*
X87274400Y-42875200D02*
X87960200Y-42189400D01*
X61925200Y-46456600D02*
X58648600Y-49733200D01*
X36212720Y-65232080D02*
X33942000Y-67502800D01*
X126923800Y-68326000D02*
X124002800Y-68326000D01*
X83032600Y-36474400D02*
X82197400Y-37309600D01*
X90246200Y-42189400D02*
X91186000Y-41249600D01*
X112903000Y-60350400D02*
X109880400Y-57327800D01*
X55626000Y-57708800D02*
X55092600Y-58242200D01*
X46300800Y-55829200D02*
X41600000Y-60530000D01*
X112903000Y-67894200D02*
X112903000Y-60350400D01*
X57861200Y-51308000D02*
X56691178Y-51308000D01*
X97942400Y-57200800D02*
X95758000Y-57200800D01*
X58648600Y-49733200D02*
X58648600Y-50520600D01*
X50396600Y-55829200D02*
X46300800Y-55829200D01*
X64519000Y-46456600D02*
X61925200Y-46456600D01*
X122532600Y-66855800D02*
X122532600Y-66802000D01*
X51130200Y-58242200D02*
X50396600Y-57508600D01*
X116611400Y-69011800D02*
X114020600Y-69011800D01*
X56691178Y-51308000D02*
X55626000Y-52373178D01*
X91186000Y-41249600D02*
X91186000Y-38252400D01*
X55626000Y-52373178D02*
X55626000Y-57708800D01*
X124002800Y-68326000D02*
X122532600Y-66855800D01*
X66040000Y-40843200D02*
X64516000Y-42367200D01*
X82197400Y-40843200D02*
X66040000Y-40843200D01*
X118821200Y-66802000D02*
X116611400Y-69011800D01*
X64519000Y-42370200D02*
X64519000Y-46456600D01*
X89408000Y-36474400D02*
X83032600Y-36474400D01*
X64516000Y-42367200D02*
X64519000Y-42370200D01*
X122532600Y-66802000D02*
X118821200Y-66802000D01*
X41600000Y-64340000D02*
X40707920Y-65232080D01*
X41600000Y-60530000D02*
X41600000Y-64340000D01*
%TO.N,Net-(Dr6-Pad2)*%
X134797800Y-61614400D02*
X134797800Y-63754000D01*
X143379200Y-59166600D02*
X137245600Y-59166600D01*
X134797800Y-63754000D02*
X134188200Y-64363600D01*
X136722200Y-59690000D02*
X134797800Y-61614400D01*
X134188200Y-64363600D02*
X132457200Y-64363600D01*
X132457200Y-64363600D02*
X130104200Y-66716600D01*
X137245600Y-59166600D02*
X136722200Y-59690000D01*
%TO.N,Net-(Dr7-Pad2)*%
X128671000Y-62667200D02*
X126082600Y-65255600D01*
X126082600Y-65255600D02*
X126082600Y-66802000D01*
X125933200Y-66802000D02*
X126082600Y-66802000D01*
X115396000Y-66766600D02*
X115396000Y-65934600D01*
X124256800Y-65125600D02*
X125933200Y-66802000D01*
X115396000Y-65934600D02*
X116205000Y-65125600D01*
X116205000Y-65125600D02*
X124256800Y-65125600D01*
X128671000Y-59216600D02*
X128671000Y-62667200D01*
%TO.N,Net-(Dr8-Pad2)*%
X98749000Y-53416200D02*
X97387400Y-54777800D01*
X107794600Y-54483000D02*
X106959400Y-54483000D01*
X110662400Y-47227800D02*
X110662400Y-51615200D01*
X105892600Y-53416200D02*
X98749000Y-53416200D01*
X110662400Y-51615200D02*
X107794600Y-54483000D01*
X106959400Y-54483000D02*
X105892600Y-53416200D01*
%TO.N,Net-(Dr9-Pad2)*%
X81178400Y-45313600D02*
X80670400Y-45821600D01*
X85747400Y-40843200D02*
X84226400Y-40843200D01*
X81178400Y-43891200D02*
X81178400Y-45313600D01*
X89353400Y-40319800D02*
X88098800Y-39065200D01*
X85747400Y-40262000D02*
X85747400Y-40843200D01*
X78126600Y-45821600D02*
X76078400Y-47869800D01*
X88098800Y-39065200D02*
X86944200Y-39065200D01*
X80670400Y-45821600D02*
X78126600Y-45821600D01*
X86944200Y-39065200D02*
X85747400Y-40262000D01*
X84226400Y-40843200D02*
X81178400Y-43891200D01*
%TO.N,Net-(Dr10-Pad2)*%
X69392800Y-51231800D02*
X68199000Y-52425600D01*
X68069000Y-46456600D02*
X68069000Y-47139400D01*
X65887600Y-52425600D02*
X62611000Y-55702200D01*
X68199000Y-52425600D02*
X65887600Y-52425600D01*
X59740800Y-55702200D02*
X58069800Y-54031200D01*
X71344800Y-45628400D02*
X68897200Y-45628400D01*
X68069000Y-47139400D02*
X69392800Y-48463200D01*
X68897200Y-45628400D02*
X68069000Y-46456600D01*
X69392800Y-48463200D02*
X69392800Y-51231800D01*
X62611000Y-55702200D02*
X59740800Y-55702200D01*
X58069800Y-54031200D02*
X58069800Y-53178400D01*
%TO.N,Net-(Dr11-Pad2)*%
X56611200Y-48193000D02*
X56611200Y-50424400D01*
X52197000Y-54356000D02*
X44723200Y-54356000D01*
X53946600Y-55829200D02*
X53670200Y-55829200D01*
X55061621Y-54714179D02*
X53946600Y-55829200D01*
X56611200Y-50424400D02*
X55061621Y-51973979D01*
X55061621Y-51973979D02*
X55061621Y-54714179D01*
X53670200Y-55829200D02*
X52197000Y-54356000D01*
X44723200Y-54356000D02*
X43336200Y-55743000D01*
%TO.N,row_2r*%
X38963600Y-70485000D02*
X38521400Y-70042800D01*
X50292000Y-64541400D02*
X50292000Y-66802000D01*
X107238800Y-82550000D02*
X107238800Y-74647600D01*
X132943600Y-76835000D02*
X132740400Y-76835000D01*
X85905800Y-67846400D02*
X85905800Y-64693800D01*
X51790600Y-68300600D02*
X51790600Y-69646800D01*
X107238800Y-74647600D02*
X104193800Y-71602600D01*
X64315800Y-63195200D02*
X60604400Y-63195200D01*
X47040800Y-72771000D02*
X44754800Y-70485000D01*
X119583200Y-83083400D02*
X117068600Y-85598000D01*
X52654200Y-62179200D02*
X50292000Y-64541400D01*
X127381000Y-84455000D02*
X123243800Y-84455000D01*
X50320400Y-72771000D02*
X47040800Y-72771000D01*
X70713600Y-59182000D02*
X68072000Y-61823600D01*
X117068600Y-85598000D02*
X110286800Y-85598000D01*
X104193800Y-71602600D02*
X104193800Y-74596800D01*
X44754800Y-70485000D02*
X38963600Y-70485000D01*
X87325200Y-69265800D02*
X85905800Y-67846400D01*
X85905800Y-64693800D02*
X82753200Y-64693800D01*
X110286800Y-85598000D02*
X107238800Y-82550000D01*
X132740400Y-76835000D02*
X127381000Y-82194400D01*
X78841600Y-62661800D02*
X80289400Y-62661800D01*
X80822800Y-60426600D02*
X79578200Y-59182000D01*
X80822800Y-62128400D02*
X80822800Y-60426600D01*
X50292000Y-66802000D02*
X51790600Y-68300600D01*
X38521400Y-70042800D02*
X33942000Y-70042800D01*
X51790600Y-69646800D02*
X50320400Y-71117000D01*
X50320400Y-71117000D02*
X50320400Y-72771000D01*
X76479400Y-65811400D02*
X76479400Y-65024000D01*
X79578200Y-59182000D02*
X70713600Y-59182000D01*
X67476289Y-61823600D02*
X66104689Y-63195200D01*
X104193800Y-74596800D02*
X102260400Y-76530200D01*
X76479400Y-65024000D02*
X78841600Y-62661800D01*
X80975200Y-66471800D02*
X77139800Y-66471800D01*
X80289400Y-62661800D02*
X80822800Y-62128400D01*
X77139800Y-66471800D02*
X76479400Y-65811400D01*
X123243800Y-84455000D02*
X121872200Y-83083400D01*
X127381000Y-82194400D02*
X127381000Y-84455000D01*
X97231200Y-76530200D02*
X89966800Y-69265800D01*
X82753200Y-64693800D02*
X80975200Y-66471800D01*
X66104689Y-63195200D02*
X64315800Y-63195200D01*
X59588400Y-62179200D02*
X52654200Y-62179200D01*
X89966800Y-69265800D02*
X87325200Y-69265800D01*
X102260400Y-76530200D02*
X97231200Y-76530200D01*
X68072000Y-61823600D02*
X67476289Y-61823600D01*
X60604400Y-63195200D02*
X59588400Y-62179200D01*
X121872200Y-83083400D02*
X119583200Y-83083400D01*
%TO.N,Net-(Dr12-Pad2)*%
X133731000Y-81178400D02*
X133284426Y-81178400D01*
X143379200Y-76184600D02*
X137144000Y-76184600D01*
X137144000Y-76184600D02*
X136493600Y-76835000D01*
X136493600Y-76835000D02*
X136493600Y-78415800D01*
X136493600Y-78415800D02*
X133731000Y-81178400D01*
X130728226Y-83734600D02*
X130104200Y-83734600D01*
X133284426Y-81178400D02*
X130728226Y-83734600D01*
%TO.N,Net-(Dr13-Pad2)*%
X128671000Y-76209200D02*
X128671000Y-79834600D01*
X121261302Y-82048221D02*
X119530698Y-82048221D01*
X119530698Y-82048221D02*
X119524477Y-82042000D01*
X119524477Y-82042000D02*
X117113200Y-82042000D01*
X124380800Y-82042000D02*
X121267523Y-82042000D01*
X121267523Y-82042000D02*
X121261302Y-82048221D01*
X125422200Y-83083400D02*
X124380800Y-82042000D01*
X128671000Y-79834600D02*
X125422200Y-83083400D01*
X117113200Y-82042000D02*
X115396000Y-83759200D01*
%TO.N,Net-(Dr14-Pad2)*%
X110687800Y-64245800D02*
X110687800Y-68658600D01*
X110687800Y-68658600D02*
X107743800Y-71602600D01*
X107010200Y-71602600D02*
X105791000Y-70383400D01*
X107743800Y-71602600D02*
X107010200Y-71602600D01*
X105791000Y-70383400D02*
X98825200Y-70383400D01*
X98825200Y-70383400D02*
X97412800Y-71795800D01*
%TO.N,Net-(Dr15-Pad2)*%
X80892800Y-63398400D02*
X79378800Y-64912400D01*
X92653800Y-57362400D02*
X92653800Y-61495800D01*
X89027000Y-64693800D02*
X87731600Y-63398400D01*
X92653800Y-61495800D02*
X89455800Y-64693800D01*
X87731600Y-63398400D02*
X80892800Y-63398400D01*
X89455800Y-64693800D02*
X89027000Y-64693800D01*
%TO.N,Net-(Dr16-Pad2)*%
X68440000Y-62621000D02*
X67865800Y-63195200D01*
X67865800Y-63195200D02*
X67865800Y-64386000D01*
X60194200Y-68046600D02*
X58069800Y-70171000D01*
X64643000Y-69545200D02*
X63144400Y-68046600D01*
X69367400Y-65887600D02*
X69367400Y-67970400D01*
X71344800Y-62621000D02*
X68440000Y-62621000D01*
X67865800Y-64386000D02*
X69367400Y-65887600D01*
X63144400Y-68046600D02*
X60194200Y-68046600D01*
X69367400Y-67970400D02*
X67792600Y-69545200D01*
X67792600Y-69545200D02*
X64643000Y-69545200D01*
%TO.N,Net-(Dr17-Pad2)*%
X50774600Y-77139800D02*
X47689600Y-77139800D01*
X47689600Y-77139800D02*
X43310800Y-72761000D01*
X55499000Y-71142400D02*
X53870400Y-72771000D01*
X56585800Y-67747200D02*
X55499000Y-68834000D01*
X55499000Y-68834000D02*
X55499000Y-71142400D01*
X53870400Y-72771000D02*
X53870400Y-74044000D01*
X53870400Y-74044000D02*
X50774600Y-77139800D01*
X56585800Y-65211000D02*
X56585800Y-67747200D01*
%TO.N,row_3r*%
X30450000Y-85760000D02*
X30450000Y-86350000D01*
X44653200Y-81838800D02*
X41783000Y-84709000D01*
X53314600Y-81838800D02*
X44653200Y-81838800D01*
X41783000Y-87096600D02*
X36956600Y-87096600D01*
X31260000Y-84950000D02*
X30450000Y-85760000D01*
X36956600Y-87096600D02*
X35870000Y-86010000D01*
X41783000Y-84709000D02*
X41783000Y-87096600D01*
X36870400Y-72582800D02*
X33942000Y-72582800D01*
X41783000Y-87096600D02*
X40030400Y-85344000D01*
X40030400Y-85344000D02*
X40030400Y-75742800D01*
X35560000Y-84950000D02*
X31260000Y-84950000D01*
X62915800Y-83159600D02*
X54635400Y-83159600D01*
X35870000Y-85260000D02*
X35560000Y-84950000D01*
X40030400Y-75742800D02*
X36870400Y-72582800D01*
X35870000Y-86010000D02*
X35870000Y-85260000D01*
X54635400Y-83159600D02*
X53314600Y-81838800D01*
%TO.N,Net-(Dr18-Pad2)*%
X66465800Y-83159600D02*
X66465800Y-84257800D01*
X66465800Y-84257800D02*
X64312800Y-86410800D01*
X64312800Y-86410800D02*
X64312800Y-87807800D01*
X63957200Y-88163400D02*
X61794400Y-88163400D01*
X72523200Y-83159600D02*
X73072000Y-82610800D01*
X64312800Y-87807800D02*
X63957200Y-88163400D01*
X61794400Y-88163400D02*
X59797000Y-90160800D01*
X66465800Y-83159600D02*
X72523200Y-83159600D01*
%TO.N,Net-(Dr19-Pad2)*%
X40754935Y-94169865D02*
X40754935Y-94917949D01*
X45212036Y-86177792D02*
X45212036Y-89712764D01*
X51623517Y-84189387D02*
X49635112Y-86177792D01*
X45212036Y-89712764D02*
X40754935Y-94169865D01*
X49635112Y-86177792D02*
X45212036Y-86177792D01*
%TO.N,Net-(Dr20-Pad2)*%
X30510356Y-100050600D02*
X32419400Y-100050600D01*
X33212108Y-87137892D02*
X34000000Y-86350000D01*
X26668366Y-103892590D02*
X30510356Y-100050600D01*
X35600000Y-94580000D02*
X33212108Y-92192108D01*
X35600000Y-96870000D02*
X35600000Y-94580000D01*
X33212108Y-92192108D02*
X33212108Y-90093765D01*
X33212108Y-90093765D02*
X33212108Y-87137892D01*
X32419400Y-100050600D02*
X35600000Y-96870000D01*
%TO.N,col0r*%
X53619400Y-79019400D02*
X53365400Y-78765400D01*
X60375441Y-81076441D02*
X55676441Y-81076441D01*
X65481200Y-78943200D02*
X62458600Y-78943200D01*
X141800200Y-69062600D02*
X141654200Y-68916600D01*
X62458600Y-78993282D02*
X60375441Y-81076441D01*
X77343000Y-78028800D02*
X74193400Y-78028800D01*
X55676441Y-81076441D02*
X53619400Y-79019400D01*
X74193400Y-78028800D02*
X73939400Y-77774800D01*
X144113200Y-51924000D02*
X141679600Y-51924000D01*
X144018000Y-69062600D02*
X141800200Y-69062600D01*
X66649600Y-77774800D02*
X66624200Y-77800200D01*
X62458600Y-78943200D02*
X62458600Y-78993282D01*
X144170400Y-51866800D02*
X144113200Y-51924000D01*
X53365400Y-78765400D02*
X41275000Y-78765400D01*
X66624200Y-77800200D02*
X65481200Y-78943200D01*
X141630400Y-85910800D02*
X141654200Y-85934600D01*
X141630400Y-83540600D02*
X141630400Y-85910800D01*
X73939400Y-77774800D02*
X66649600Y-77774800D01*
%TO.N,col1r*%
X41249600Y-80010000D02*
X41732200Y-79527400D01*
X114249200Y-57327800D02*
X114560400Y-57016600D01*
X105841800Y-83261200D02*
X110540800Y-87960200D01*
X53390800Y-79527400D02*
X55397400Y-81534000D01*
X77063600Y-79679800D02*
X81635600Y-75107800D01*
X60553600Y-81534000D02*
X62611000Y-79476600D01*
X114814400Y-74009200D02*
X117121000Y-74009200D01*
X62611000Y-79476600D02*
X65608200Y-79476600D01*
X93776800Y-75107800D02*
X96799400Y-78130400D01*
X110540800Y-87960200D02*
X118295000Y-87960200D01*
X105841800Y-79806800D02*
X105841800Y-83261200D01*
X41732200Y-79527400D02*
X53390800Y-79527400D01*
X75031600Y-79679800D02*
X77063600Y-79679800D01*
X96799400Y-78130400D02*
X104165400Y-78130400D01*
X65608200Y-79476600D02*
X66776600Y-78308200D01*
X104165400Y-78130400D02*
X105841800Y-79806800D01*
X116809800Y-40335200D02*
X117121000Y-40024000D01*
X81635600Y-75107800D02*
X93776800Y-75107800D01*
X114808000Y-40335200D02*
X116809800Y-40335200D01*
X114560400Y-57016600D02*
X117121000Y-57016600D01*
X118295000Y-87960200D02*
X120396000Y-85859200D01*
X114655600Y-74168000D02*
X114814400Y-74009200D01*
X73660000Y-78308200D02*
X75031600Y-79679800D01*
X66776600Y-78308200D02*
X73660000Y-78308200D01*
X55397400Y-81534000D02*
X60553600Y-81534000D01*
%TO.N,col2r*%
X99068000Y-44983400D02*
X99112400Y-45027800D01*
X73482200Y-78892400D02*
X76327000Y-81737200D01*
X96723200Y-28092400D02*
X99004400Y-28092400D01*
X41249600Y-81356200D02*
X41833800Y-80772000D01*
X62915320Y-80061280D02*
X65963320Y-80061280D01*
X96831200Y-62045800D02*
X99137800Y-62045800D01*
X60833000Y-82143600D02*
X62915320Y-80061280D01*
X67132200Y-78892400D02*
X73482200Y-78892400D01*
X65963320Y-80061280D02*
X67132200Y-78892400D01*
X41833800Y-80772000D02*
X53695600Y-80772000D01*
X97104200Y-44983400D02*
X99068000Y-44983400D01*
X53695600Y-80772000D02*
X55067200Y-82143600D01*
X76327000Y-81737200D02*
X76327000Y-82854800D01*
X99004400Y-28092400D02*
X99112400Y-27984400D01*
X55067200Y-82143600D02*
X60833000Y-82143600D01*
X96494600Y-62382400D02*
X96831200Y-62045800D01*
%TO.N,col3r*%
X68072000Y-80510800D02*
X63489480Y-80510800D01*
X71602600Y-92105200D02*
X71347000Y-92360800D01*
X61290200Y-82710080D02*
X54821598Y-82710080D01*
X78968600Y-21463000D02*
X80792600Y-21463000D01*
X80792600Y-21463000D02*
X81103800Y-21151800D01*
X53500797Y-81389280D02*
X44264520Y-81389280D01*
X89808000Y-50069800D02*
X89814400Y-50063400D01*
X87628400Y-50069800D02*
X89808000Y-50069800D01*
X54821598Y-82710080D02*
X53500797Y-81389280D01*
X80818000Y-55448200D02*
X81103800Y-55162400D01*
X43256200Y-82397600D02*
X41249600Y-82397600D01*
X71602600Y-90398600D02*
X71602600Y-92105200D01*
X63489480Y-80510800D02*
X61290200Y-82710080D01*
X78765400Y-55448200D02*
X80818000Y-55448200D01*
X44264520Y-81389280D02*
X43256200Y-82397600D01*
%TO.N,col4r*%
X51790600Y-93363446D02*
X52480780Y-94053626D01*
X72212200Y-55194200D02*
X72028000Y-55378400D01*
X51790600Y-92100400D02*
X51790600Y-93363446D01*
X62865000Y-26614400D02*
X63069800Y-26409600D01*
X62865000Y-28371800D02*
X62865000Y-26614400D01*
X71729600Y-72440800D02*
X69689600Y-72440800D01*
X69689600Y-72440800D02*
X69619800Y-72371000D01*
X72028000Y-55378400D02*
X69619800Y-55378400D01*
%TO.N,col5r*%
X42976800Y-46075600D02*
X44978600Y-46075600D01*
X22489033Y-94916438D02*
X20942995Y-93370400D01*
X44877000Y-63169800D02*
X45035800Y-63011000D01*
X44978600Y-46075600D02*
X45061200Y-45993000D01*
X23571200Y-95998605D02*
X22489033Y-94916438D01*
X45008800Y-31267400D02*
X45008800Y-29052800D01*
X20942995Y-93370400D02*
X19837400Y-93370400D01*
X36906200Y-85064600D02*
X37973000Y-86131400D01*
X42773600Y-63169800D02*
X44877000Y-63169800D01*
X36906200Y-76530200D02*
X36906200Y-85064600D01*
X45008800Y-29052800D02*
X45061200Y-29000400D01*
X23571200Y-96748600D02*
X23571200Y-95998605D01*
%TD*%
M02*
