%TF.GenerationSoftware,KiCad,Pcbnew,(6.0.5-0)*%
%TF.CreationDate,2022-06-22T19:04:36-07:00*%
%TF.ProjectId,Swept_3x6,53776570-745f-4337-9836-2e6b69636164,rev?*%
%TF.SameCoordinates,Original*%
%TF.FileFunction,Copper,L1,Top*%
%TF.FilePolarity,Positive*%
%FSLAX46Y46*%
G04 Gerber Fmt 4.6, Leading zero omitted, Abs format (unit mm)*
G04 Created by KiCad (PCBNEW (6.0.5-0)) date 2022-06-22 19:04:36*
%MOMM*%
%LPD*%
G01*
G04 APERTURE LIST*
%TA.AperFunction,ComponentPad*%
%ADD10C,1.524000*%
%TD*%
%TA.AperFunction,ComponentPad*%
%ADD11C,2.282000*%
%TD*%
%TA.AperFunction,ComponentPad*%
%ADD12C,2.000000*%
%TD*%
%TA.AperFunction,ComponentPad*%
%ADD13C,4.400000*%
%TD*%
%TA.AperFunction,ComponentPad*%
%ADD14C,1.397000*%
%TD*%
%TA.AperFunction,ViaPad*%
%ADD15C,0.800000*%
%TD*%
%TA.AperFunction,Conductor*%
%ADD16C,0.250000*%
%TD*%
G04 APERTURE END LIST*
D10*
%TO.P,U1,1,TX*%
%TO.N,unconnected-(U1-Pad1)*%
X277659800Y-49850000D03*
%TO.P,U1,2,RX*%
%TO.N,unconnected-(U1-Pad2)*%
X277659800Y-52390000D03*
%TO.P,U1,3,GND*%
%TO.N,gnd*%
X277659800Y-54930000D03*
%TO.P,U1,4,GND*%
X277659800Y-57470000D03*
%TO.P,U1,5,SDA*%
%TO.N,unconnected-(U1-Pad5)*%
X277659800Y-60010000D03*
%TO.P,U1,6,SCL*%
%TO.N,unconnected-(U1-Pad6)*%
X277659800Y-62550000D03*
%TO.P,U1,7,D4*%
%TO.N,row_0*%
X277659800Y-65090000D03*
%TO.P,U1,8,C6*%
%TO.N,row_1*%
X277659800Y-67630000D03*
%TO.P,U1,9,D7*%
%TO.N,row_2*%
X277659800Y-70170000D03*
%TO.P,U1,10,E6*%
%TO.N,row_3*%
X277659800Y-72710000D03*
%TO.P,U1,11,B4*%
%TO.N,unconnected-(U1-Pad11)*%
X277659800Y-75250000D03*
%TO.P,U1,12,B5*%
%TO.N,unconnected-(U1-Pad12)*%
X277659800Y-77790000D03*
%TO.P,U1,13,B6*%
%TO.N,unconnected-(U1-Pad13)*%
X262439800Y-77790000D03*
%TO.P,U1,14,B2*%
%TO.N,unconnected-(U1-Pad14)*%
X262439800Y-75250000D03*
%TO.P,U1,15,B3*%
%TO.N,col5*%
X262439800Y-72710000D03*
%TO.P,U1,16,B1*%
%TO.N,col4*%
X262439800Y-70170000D03*
%TO.P,U1,17,F7*%
%TO.N,col3*%
X262439800Y-67630000D03*
%TO.P,U1,18,F6*%
%TO.N,col2*%
X262439800Y-65090000D03*
%TO.P,U1,19,F5*%
%TO.N,col1*%
X262439800Y-62550000D03*
%TO.P,U1,20,F4*%
%TO.N,col0*%
X262439800Y-60010000D03*
%TO.P,U1,21,VCC*%
%TO.N,vcc*%
X262439800Y-57470000D03*
%TO.P,U1,22,RST*%
%TO.N,reset*%
X262439800Y-54930000D03*
%TO.P,U1,23,GND*%
%TO.N,gnd*%
X262439800Y-52390000D03*
%TO.P,U1,24,RAW*%
%TO.N,raw*%
X262439800Y-49850000D03*
%TD*%
D11*
%TO.P,SW16,1,1*%
%TO.N,col2*%
X193776600Y-74022800D03*
%TO.P,SW16,2,2*%
%TO.N,Net-(D14-Pad2)*%
X188776600Y-71922800D03*
%TD*%
%TO.P,SW20,1,1*%
%TO.N,col3*%
X228473000Y-80739400D03*
%TO.P,SW20,2,2*%
%TO.N,Net-(D18-Pad2)*%
X233473000Y-82839400D03*
%TD*%
%TO.P,SW15,1,1*%
%TO.N,col1*%
X175818800Y-86037000D03*
%TO.P,SW15,2,2*%
%TO.N,Net-(D13-Pad2)*%
X170818800Y-83937000D03*
%TD*%
%TO.P,SW21,1,1*%
%TO.N,col4*%
X250193032Y-83658238D03*
%TO.P,SW21,2,2*%
%TO.N,Net-(D19-Pad2)*%
X254479142Y-86980777D03*
%TD*%
%TO.P,SW17,1,1*%
%TO.N,col3*%
X211785200Y-67139400D03*
%TO.P,SW17,2,2*%
%TO.N,Net-(D15-Pad2)*%
X206785200Y-65039400D03*
%TD*%
%TO.P,SW18,1,1*%
%TO.N,col4*%
X229793800Y-72498800D03*
%TO.P,SW18,2,2*%
%TO.N,Net-(D16-Pad2)*%
X224793800Y-70398800D03*
%TD*%
%TO.P,SW4,1,1*%
%TO.N,col2*%
X193802000Y-39783600D03*
%TO.P,SW4,2,2*%
%TO.N,Net-(D2-Pad2)*%
X188802000Y-37683600D03*
%TD*%
%TO.P,SW3,1,1*%
%TO.N,col1*%
X175793400Y-51823200D03*
%TO.P,SW3,2,2*%
%TO.N,Net-(D1-Pad2)*%
X170793400Y-49723200D03*
%TD*%
%TO.P,SW9,1,1*%
%TO.N,col1*%
X175793400Y-68917400D03*
%TO.P,SW9,2,2*%
%TO.N,Net-(D7-Pad2)*%
X170793400Y-66817400D03*
%TD*%
%TO.P,SW14,1,1*%
%TO.N,col0*%
X157810200Y-86062400D03*
%TO.P,SW14,2,2*%
%TO.N,Net-(D12-Pad2)*%
X152810200Y-83962400D03*
%TD*%
%TO.P,SW12,1,1*%
%TO.N,col4*%
X229793800Y-55379200D03*
%TO.P,SW12,2,2*%
%TO.N,Net-(D10-Pad2)*%
X224793800Y-53279200D03*
%TD*%
%TO.P,SW11,1,1*%
%TO.N,col3*%
X211785200Y-50019800D03*
%TO.P,SW11,2,2*%
%TO.N,Net-(D9-Pad2)*%
X206785200Y-47919800D03*
%TD*%
%TO.P,SW8,1,1*%
%TO.N,col0*%
X157784800Y-68942800D03*
%TO.P,SW8,2,2*%
%TO.N,Net-(D6-Pad2)*%
X152784800Y-66842800D03*
%TD*%
%TO.P,SW6,1,1*%
%TO.N,col4*%
X229819200Y-38259600D03*
%TO.P,SW6,2,2*%
%TO.N,Net-(D4-Pad2)*%
X224819200Y-36159600D03*
%TD*%
%TO.P,SW5,1,1*%
%TO.N,col3*%
X211810600Y-32925600D03*
%TO.P,SW5,2,2*%
%TO.N,Net-(D3-Pad2)*%
X206810600Y-30825600D03*
%TD*%
%TO.P,SW2,1,1*%
%TO.N,col0*%
X157784800Y-51823200D03*
%TO.P,SW2,2,2*%
%TO.N,Net-(D0-Pad2)*%
X152784800Y-49723200D03*
%TD*%
D12*
%TO.P,RSW1,1,1*%
%TO.N,gnd*%
X275031200Y-82500400D03*
%TO.P,RSW1,2,2*%
%TO.N,reset*%
X275031200Y-89000400D03*
%TD*%
D11*
%TO.P,SW10,1,1*%
%TO.N,col2*%
X193776600Y-56903200D03*
%TO.P,SW10,2,2*%
%TO.N,Net-(D8-Pad2)*%
X188776600Y-54803200D03*
%TD*%
D13*
%TO.P,REF\u002A\u002A,1*%
%TO.N,N/C*%
X240352000Y-42936000D03*
X202252000Y-42936000D03*
X221302000Y-23886000D03*
X221302000Y-61986000D03*
%TD*%
D10*
%TO.P,U2,1,TX*%
%TO.N,unconnected-(U2-Pad1)*%
X33942000Y-49722800D03*
%TO.P,U2,2,RX*%
%TO.N,unconnected-(U2-Pad2)*%
X33942000Y-52262800D03*
%TO.P,U2,3,GND*%
%TO.N,gnd_r*%
X33942000Y-54802800D03*
%TO.P,U2,4,GND*%
X33942000Y-57342800D03*
%TO.P,U2,5,SDA*%
%TO.N,unconnected-(U2-Pad5)*%
X33942000Y-59882800D03*
%TO.P,U2,6,SCL*%
%TO.N,unconnected-(U2-Pad6)*%
X33942000Y-62422800D03*
%TO.P,U2,7,D4*%
%TO.N,row_0r*%
X33942000Y-64962800D03*
%TO.P,U2,8,C6*%
%TO.N,row_1r*%
X33942000Y-67502800D03*
%TO.P,U2,9,D7*%
%TO.N,row_2r*%
X33942000Y-70042800D03*
%TO.P,U2,10,E6*%
%TO.N,row_3r*%
X33942000Y-72582800D03*
%TO.P,U2,11,B4*%
%TO.N,unconnected-(U2-Pad11)*%
X33942000Y-75122800D03*
%TO.P,U2,12,B5*%
%TO.N,unconnected-(U2-Pad12)*%
X33942000Y-77662800D03*
%TO.P,U2,13,B6*%
%TO.N,unconnected-(U2-Pad13)*%
X18722000Y-77662800D03*
%TO.P,U2,14,B2*%
%TO.N,unconnected-(U2-Pad14)*%
X18722000Y-75122800D03*
%TO.P,U2,15,B3*%
%TO.N,col5r*%
X18722000Y-72582800D03*
%TO.P,U2,16,B1*%
%TO.N,col4r*%
X18722000Y-70042800D03*
%TO.P,U2,17,F7*%
%TO.N,col3r*%
X18722000Y-67502800D03*
%TO.P,U2,18,F6*%
%TO.N,col2r*%
X18722000Y-64962800D03*
%TO.P,U2,19,F5*%
%TO.N,col1r*%
X18722000Y-62422800D03*
%TO.P,U2,20,F4*%
%TO.N,col0r*%
X18722000Y-59882800D03*
%TO.P,U2,21,VCC*%
%TO.N,vcc_r*%
X18722000Y-57342800D03*
%TO.P,U2,22,RST*%
%TO.N,reset_r*%
X18722000Y-54802800D03*
%TO.P,U2,23,GND*%
%TO.N,gnd_r*%
X18722000Y-52262800D03*
%TO.P,U2,24,RAW*%
%TO.N,raw_r*%
X18722000Y-49722800D03*
%TD*%
D11*
%TO.P,SW17_r1,1,1*%
%TO.N,col3r*%
X84378800Y-67012400D03*
%TO.P,SW17_r1,2,2*%
%TO.N,Net-(SW17_r1-Pad2)*%
X79378800Y-64912400D03*
%TD*%
%TO.P,SW11_r1,1,1*%
%TO.N,col3r*%
X84353400Y-50019800D03*
%TO.P,SW11_r1,2,2*%
%TO.N,Net-(SW11_r1-Pad2)*%
X79353400Y-47919800D03*
%TD*%
%TO.P,SW15_r1,1,1*%
%TO.N,col1r*%
X120396000Y-85859200D03*
%TO.P,SW15_r1,2,2*%
%TO.N,Net-(Dr13-Pad2)*%
X115396000Y-83759200D03*
%TD*%
%TO.P,SW18_r1,1,1*%
%TO.N,col4r*%
X66344800Y-72321000D03*
%TO.P,SW18_r1,2,2*%
%TO.N,Net-(SW18_r1-Pad2)*%
X61344800Y-70221000D03*
%TD*%
%TO.P,SW6_r1,1,1*%
%TO.N,col4r*%
X66344800Y-38259600D03*
%TO.P,SW6_r1,2,2*%
%TO.N,Net-(Dr4-Pad2)*%
X61344800Y-36159600D03*
%TD*%
%TO.P,SW5_r1,1,1*%
%TO.N,col3r*%
X84378800Y-33001800D03*
%TO.P,SW5_r1,2,2*%
%TO.N,Net-(SW5_r1-Pad2)*%
X79378800Y-30901800D03*
%TD*%
%TO.P,SW2_r1,1,1*%
%TO.N,col0r*%
X138404600Y-51874000D03*
%TO.P,SW2_r1,2,2*%
%TO.N,Net-(Dr0-Pad2)*%
X133404600Y-49774000D03*
%TD*%
%TO.P,SW16_r1,1,1*%
%TO.N,col2r*%
X102412800Y-73895800D03*
%TO.P,SW16_r1,2,2*%
%TO.N,Net-(SW16_r1-Pad2)*%
X97412800Y-71795800D03*
%TD*%
%TO.P,SW4_r1,1,1*%
%TO.N,col2r*%
X102387400Y-39834400D03*
%TO.P,SW4_r1,2,2*%
%TO.N,Net-(Dr2-Pad2)*%
X97387400Y-37734400D03*
%TD*%
%TO.P,SW13_r1,1,1*%
%TO.N,col5r*%
X48336200Y-57843000D03*
%TO.P,SW13_r1,2,2*%
%TO.N,Net-(Dr11-Pad2)*%
X43336200Y-55743000D03*
%TD*%
%TO.P,SW12_r1,1,1*%
%TO.N,col4r*%
X66344800Y-55328400D03*
%TO.P,SW12_r1,2,2*%
%TO.N,Net-(Dr10-Pad2)*%
X61344800Y-53228400D03*
%TD*%
%TO.P,SW3_r1,1,1*%
%TO.N,col1r*%
X120396000Y-51874000D03*
%TO.P,SW3_r1,2,2*%
%TO.N,Net-(SW3_r1-Pad2)*%
X115396000Y-49774000D03*
%TD*%
%TO.P,SW8_r1,1,1*%
%TO.N,col0r*%
X138379200Y-68866600D03*
%TO.P,SW8_r1,2,2*%
%TO.N,Net-(SW8_r1-Pad2)*%
X133379200Y-66766600D03*
%TD*%
%TO.P,SW21_r1,1,1*%
%TO.N,col4r*%
X46250368Y-83455038D03*
%TO.P,SW21_r1,2,2*%
%TO.N,Net-(SW21_r1-Pad2)*%
X51623517Y-84189387D03*
%TD*%
%TO.P,SW9_r1,1,1*%
%TO.N,col1r*%
X120396000Y-68866600D03*
%TO.P,SW9_r1,2,2*%
%TO.N,Net-(SW9_r1-Pad2)*%
X115396000Y-66766600D03*
%TD*%
%TO.P,SW20_r1,1,1*%
%TO.N,col3r*%
X68072000Y-80510800D03*
%TO.P,SW20_r1,2,2*%
%TO.N,Net-(Dr18-Pad2)*%
X73072000Y-82610800D03*
%TD*%
%TO.P,SW7_r1,1,1*%
%TO.N,col5r*%
X48336200Y-40850400D03*
%TO.P,SW7_r1,2,2*%
%TO.N,Net-(Dr5-Pad2)*%
X43336200Y-38750400D03*
%TD*%
D13*
%TO.P,REF\u002A\u002A,1*%
%TO.N,N/C*%
X94407400Y-42878400D03*
X56307400Y-42878400D03*
X75357400Y-61928400D03*
X75357400Y-23828400D03*
%TD*%
D12*
%TO.P,RSW2,1,1*%
%TO.N,gnd_r*%
X21285200Y-88721000D03*
%TO.P,RSW2,2,2*%
%TO.N,reset_r*%
X21285200Y-82221000D03*
%TD*%
D11*
%TO.P,SW13,1,1*%
%TO.N,col5*%
X247827800Y-57944600D03*
%TO.P,SW13,2,2*%
%TO.N,Net-(D11-Pad2)*%
X242827800Y-55844600D03*
%TD*%
%TO.P,SW22,1,1*%
%TO.N,col5*%
X271150901Y-93211003D03*
%TO.P,SW22,2,2*%
%TO.N,Net-(D20-Pad2)*%
X274042151Y-97799104D03*
%TD*%
%TO.P,SW19,1,1*%
%TO.N,col5*%
X247827800Y-75064200D03*
%TO.P,SW19,2,2*%
%TO.N,Net-(D17-Pad2)*%
X242827800Y-72964200D03*
%TD*%
%TO.P,SW19_r1,1,1*%
%TO.N,col5r*%
X48310800Y-74861000D03*
%TO.P,SW19_r1,2,2*%
%TO.N,Net-(Dr17-Pad2)*%
X43310800Y-72761000D03*
%TD*%
D14*
%TO.P,+,1,1*%
%TO.N,BT+*%
X263855200Y-47396400D03*
%TD*%
D11*
%TO.P,SW10_r1,1,1*%
%TO.N,col2r*%
X102387400Y-56877800D03*
%TO.P,SW10_r1,2,2*%
%TO.N,Net-(SW10_r1-Pad2)*%
X97387400Y-54777800D03*
%TD*%
%TO.P,SW22_r1,1,1*%
%TO.N,col5r*%
X25200435Y-93078933D03*
%TO.P,SW22_r1,2,2*%
%TO.N,Net-(Dr20-Pad2)*%
X30500706Y-91931270D03*
%TD*%
D14*
%TO.P,-,1,1*%
%TO.N,gnd*%
X275996400Y-47447200D03*
%TD*%
%TO.P,+,1,1*%
%TO.N,BT+_r*%
X20040600Y-47574200D03*
%TD*%
D11*
%TO.P,SW14_r1,1,1*%
%TO.N,col0r*%
X138379200Y-85884600D03*
%TO.P,SW14_r1,2,2*%
%TO.N,Net-(Dr12-Pad2)*%
X133379200Y-83784600D03*
%TD*%
%TO.P,SW7,1,1*%
%TO.N,col5*%
X247827800Y-40825000D03*
%TO.P,SW7,2,2*%
%TO.N,Net-(D5-Pad2)*%
X242827800Y-38725000D03*
%TD*%
D14*
%TO.P,-,1,1*%
%TO.N,gnd_r*%
X32207200Y-47625000D03*
%TD*%
D15*
%TO.N,col0*%
X208178400Y-83185000D03*
X250596400Y-77749400D03*
X213436200Y-79349600D03*
%TO.N,col1*%
X251231400Y-79070200D03*
X214172800Y-80568800D03*
%TO.N,col2*%
X252526800Y-79933800D03*
%TO.N,col3*%
X253390400Y-81254600D03*
%TO.N,col4*%
X254381000Y-82296000D03*
%TO.N,row_0r*%
X81534000Y-33172400D03*
X81534000Y-28168600D03*
X45389800Y-36042600D03*
X45389800Y-41173400D03*
%TO.N,col0r*%
X79044800Y-79425800D03*
X78308200Y-75641200D03*
X42595800Y-79222600D03*
%TO.N,col1r*%
X77241400Y-77038200D03*
X41122600Y-79883000D03*
%TO.N,col2r*%
X40411400Y-81051400D03*
%TO.N,col3r*%
X39039800Y-81889600D03*
%TO.N,col4r*%
X36779200Y-83464400D03*
%TD*%
D16*
%TO.N,gnd*%
X275031200Y-82500400D02*
X275031200Y-60098600D01*
X275031200Y-60098600D02*
X277659800Y-57470000D01*
%TO.N,reset*%
X272389600Y-60629800D02*
X272389600Y-86358800D01*
X272389600Y-86358800D02*
X275031200Y-89000400D01*
X262439800Y-54930000D02*
X266689800Y-54930000D01*
X266689800Y-54930000D02*
X272389600Y-60629800D01*
%TO.N,col0*%
X160883600Y-58496200D02*
X160883600Y-65844000D01*
X208178400Y-83185000D02*
X212013800Y-79349600D01*
X161137600Y-82735000D02*
X157810200Y-86062400D01*
X161137600Y-75641200D02*
X161137600Y-82735000D01*
X160883600Y-65844000D02*
X157784800Y-68942800D01*
X255295400Y-70942200D02*
X257987800Y-68249800D01*
X257987800Y-68249800D02*
X257987800Y-64462000D01*
X157784800Y-55397400D02*
X160883600Y-58496200D01*
X157784800Y-51823200D02*
X157784800Y-55397400D01*
X255295400Y-76555600D02*
X255295400Y-70942200D01*
X157784800Y-68942800D02*
X157784800Y-72288400D01*
X257987800Y-64462000D02*
X262439800Y-60010000D01*
X212013800Y-79349600D02*
X213436200Y-79349600D01*
X157784800Y-72288400D02*
X161137600Y-75641200D01*
X254101600Y-77749400D02*
X255295400Y-76555600D01*
X250596400Y-77749400D02*
X254101600Y-77749400D01*
%TO.N,col1*%
X178968400Y-75844400D02*
X178968400Y-82887400D01*
X175818800Y-86037000D02*
X208704600Y-86037000D01*
X254431800Y-78816200D02*
X256336800Y-76911200D01*
X179273200Y-65437600D02*
X175793400Y-68917400D01*
X208704600Y-86037000D02*
X214172800Y-80568800D01*
X251485400Y-78816200D02*
X254431800Y-78816200D01*
X175793400Y-51823200D02*
X175793400Y-54991000D01*
X259003800Y-69062600D02*
X259003800Y-65986000D01*
X178968400Y-82887400D02*
X175818800Y-86037000D01*
X179273200Y-58470800D02*
X179273200Y-65437600D01*
X256336800Y-76911200D02*
X256336800Y-71729600D01*
X175793400Y-72669400D02*
X178968400Y-75844400D01*
X175793400Y-54991000D02*
X179273200Y-58470800D01*
X256336800Y-71729600D02*
X259003800Y-69062600D01*
X175793400Y-68917400D02*
X175793400Y-72669400D01*
X259003800Y-65986000D02*
X262439800Y-62550000D01*
X251231400Y-79070200D02*
X251485400Y-78816200D01*
%TO.N,col2*%
X193802000Y-39936000D02*
X194290000Y-39936000D01*
X252526800Y-79933800D02*
X255625600Y-79933800D01*
X193776600Y-60375800D02*
X196875400Y-63474600D01*
X197231000Y-53448800D02*
X193776600Y-56903200D01*
X193776600Y-56903200D02*
X193776600Y-60375800D01*
X257403600Y-72136000D02*
X259918200Y-69621400D01*
X259918200Y-69621400D02*
X259918200Y-67611600D01*
X259918200Y-67611600D02*
X262439800Y-65090000D01*
X196875400Y-70924000D02*
X193776600Y-74022800D01*
X196875400Y-63474600D02*
X196875400Y-70924000D01*
X193802000Y-39783600D02*
X193802000Y-43180000D01*
X193802000Y-43180000D02*
X197231000Y-46609000D01*
X257403600Y-78155800D02*
X257403600Y-72136000D01*
X255625600Y-79933800D02*
X257403600Y-78155800D01*
X197231000Y-46609000D02*
X197231000Y-53448800D01*
%TO.N,col3*%
X255600200Y-81254600D02*
X258140200Y-78714600D01*
X217747000Y-80739400D02*
X228473000Y-80739400D01*
X258140200Y-78714600D02*
X258140200Y-72618600D01*
X214985600Y-56692800D02*
X214985600Y-63939000D01*
X214807800Y-46997200D02*
X211785200Y-50019800D01*
X260756400Y-70002400D02*
X260781800Y-70002400D01*
X253390400Y-81254600D02*
X255600200Y-81254600D01*
X260781800Y-70002400D02*
X260781800Y-69288000D01*
X211785200Y-67139400D02*
X211785200Y-74777600D01*
X260781800Y-69288000D02*
X262439800Y-67630000D01*
X214807800Y-39547800D02*
X214807800Y-46997200D01*
X211810600Y-32925600D02*
X211810600Y-36550600D01*
X211785200Y-53492400D02*
X214985600Y-56692800D01*
X211785200Y-50019800D02*
X211785200Y-53492400D01*
X214985600Y-63939000D02*
X211785200Y-67139400D01*
X211810600Y-36550600D02*
X214807800Y-39547800D01*
X211785200Y-74777600D02*
X217747000Y-80739400D01*
X258140200Y-72618600D02*
X260756400Y-70002400D01*
%TO.N,col4*%
X254381000Y-82296000D02*
X256159000Y-82296000D01*
X260807200Y-71170800D02*
X261439000Y-71170800D01*
X232892600Y-62230000D02*
X232892600Y-69400000D01*
X229819200Y-41681400D02*
X233019600Y-44881800D01*
X258902200Y-73075800D02*
X260807200Y-71170800D01*
X258902200Y-79552800D02*
X258902200Y-73075800D01*
X261439000Y-71170800D02*
X262439800Y-70170000D01*
X229793800Y-59131200D02*
X232892600Y-62230000D01*
X229819200Y-38259600D02*
X229819200Y-41681400D01*
X256159000Y-82296000D02*
X258902200Y-79552800D01*
X233019600Y-52153400D02*
X229793800Y-55379200D01*
X236746200Y-79451200D02*
X245985994Y-79451200D01*
X229793800Y-55379200D02*
X229793800Y-59131200D01*
X232892600Y-69400000D02*
X229793800Y-72498800D01*
X233019600Y-44881800D02*
X233019600Y-52153400D01*
X229793800Y-72498800D02*
X236746200Y-79451200D01*
X245985994Y-79451200D02*
X250193032Y-83658238D01*
%TO.N,col5*%
X250723400Y-64795400D02*
X250723400Y-72168600D01*
X271150901Y-91522101D02*
X259765800Y-80137000D01*
X247827800Y-57944600D02*
X247827800Y-61899800D01*
X263797403Y-93211003D02*
X271150901Y-93211003D01*
X250723400Y-72168600D02*
X247827800Y-75064200D01*
X251256800Y-54515600D02*
X247827800Y-57944600D01*
X247827800Y-61899800D02*
X250723400Y-64795400D01*
X251256800Y-47447200D02*
X251256800Y-54515600D01*
X259765800Y-74244200D02*
X261300000Y-72710000D01*
X247827800Y-40825000D02*
X247827800Y-44018200D01*
X247827800Y-77241400D02*
X263797403Y-93211003D01*
X247827800Y-44018200D02*
X251256800Y-47447200D01*
X259765800Y-80137000D02*
X259765800Y-74244200D01*
X261300000Y-72710000D02*
X262439800Y-72710000D01*
X247827800Y-75064200D02*
X247827800Y-77241400D01*
X271150901Y-93211003D02*
X271150901Y-91522101D01*
%TO.N,row_0r*%
X45389800Y-36042600D02*
X45389800Y-41173400D01*
X81534000Y-28168600D02*
X81534000Y-33172400D01*
%TO.N,col0r*%
X22352000Y-63512800D02*
X18722000Y-59882800D01*
X29591000Y-78740000D02*
X29591000Y-74676000D01*
X138404600Y-57175400D02*
X141554200Y-60325000D01*
X36245800Y-79756000D02*
X30607000Y-79756000D01*
X29591000Y-74676000D02*
X22352000Y-67437000D01*
X37414200Y-78587600D02*
X36245800Y-79756000D01*
X22352000Y-67437000D02*
X22352000Y-63512800D01*
X30607000Y-79756000D02*
X29591000Y-78740000D01*
X79044800Y-79425800D02*
X79044800Y-76377800D01*
X42595800Y-79222600D02*
X41960800Y-78587600D01*
X138379200Y-68866600D02*
X138379200Y-71323200D01*
X79044800Y-76377800D02*
X78308200Y-75641200D01*
X141960600Y-74904600D02*
X141960600Y-82303200D01*
X138404600Y-51874000D02*
X138404600Y-57175400D01*
X41960800Y-78587600D02*
X37414200Y-78587600D01*
X138379200Y-71323200D02*
X141960600Y-74904600D01*
X141554200Y-65691600D02*
X138379200Y-68866600D01*
X141960600Y-82303200D02*
X138379200Y-85884600D01*
X141554200Y-60325000D02*
X141554200Y-65691600D01*
%TO.N,col1r*%
X81076800Y-82702400D02*
X77241400Y-78867000D01*
X84233600Y-85859200D02*
X81076800Y-82702400D01*
X41122600Y-79883000D02*
X37338000Y-79883000D01*
X120396000Y-73583800D02*
X123342400Y-76530200D01*
X123342400Y-82912800D02*
X120396000Y-85859200D01*
X21615400Y-65316200D02*
X18722000Y-62422800D01*
X123342400Y-76530200D02*
X123342400Y-82912800D01*
X28778200Y-75438000D02*
X21615400Y-68275200D01*
X77241400Y-78867000D02*
X77241400Y-77038200D01*
X37338000Y-79883000D02*
X36499800Y-80721200D01*
X120396000Y-85859200D02*
X84233600Y-85859200D01*
X123723400Y-59893200D02*
X123723400Y-65539200D01*
X36499800Y-80721200D02*
X30251400Y-80721200D01*
X30251400Y-80721200D02*
X28778200Y-79248000D01*
X120396000Y-68866600D02*
X120396000Y-73583800D01*
X123723400Y-65539200D02*
X120396000Y-68866600D01*
X21615400Y-68275200D02*
X21615400Y-65316200D01*
X120396000Y-51874000D02*
X120396000Y-56565800D01*
X120396000Y-56565800D02*
X123723400Y-59893200D01*
X28778200Y-79248000D02*
X28778200Y-75438000D01*
%TO.N,col2r*%
X20675600Y-66916400D02*
X20675600Y-68630800D01*
X102387400Y-56877800D02*
X102387400Y-62128400D01*
X105359200Y-53906000D02*
X102387400Y-56877800D01*
X40259000Y-80899000D02*
X40411400Y-81051400D01*
X28016200Y-79654400D02*
X29972000Y-81610200D01*
X29972000Y-81610200D02*
X36753800Y-81610200D01*
X18722000Y-64962800D02*
X20675600Y-66916400D01*
X37465000Y-80899000D02*
X40259000Y-80899000D01*
X28016200Y-75971400D02*
X28016200Y-79654400D01*
X101543099Y-40714701D02*
X102379400Y-39878400D01*
X102387400Y-39834400D02*
X102387400Y-45415200D01*
X102387400Y-45415200D02*
X105359200Y-48387000D01*
X20675600Y-68630800D02*
X28016200Y-75971400D01*
X102387400Y-62128400D02*
X105562400Y-65303400D01*
X36753800Y-81610200D02*
X37465000Y-80899000D01*
X105562400Y-65303400D02*
X105562400Y-70746200D01*
X105562400Y-70746200D02*
X102412800Y-73895800D01*
X105359200Y-48387000D02*
X105359200Y-53906000D01*
%TO.N,col3r*%
X71101800Y-80510800D02*
X68072000Y-80510800D01*
X84353400Y-55143400D02*
X87884000Y-58674000D01*
X38658800Y-82270600D02*
X39039800Y-81889600D01*
X84378800Y-38684200D02*
X87757000Y-42062400D01*
X18722000Y-67986453D02*
X27228800Y-76493253D01*
X18722000Y-67502800D02*
X18722000Y-67986453D01*
X84378800Y-67233800D02*
X71101800Y-80510800D01*
X87884000Y-63507200D02*
X84378800Y-67012400D01*
X87757000Y-42062400D02*
X87757000Y-46616200D01*
X29438600Y-82270600D02*
X38658800Y-82270600D01*
X27228800Y-76493253D02*
X27228800Y-80340200D01*
X83652400Y-32878400D02*
X84353400Y-32878400D01*
X87757000Y-46616200D02*
X84353400Y-50019800D01*
X87884000Y-58674000D02*
X87884000Y-63507200D01*
X84353400Y-50019800D02*
X84353400Y-55143400D01*
X27228800Y-80340200D02*
X29159200Y-82270600D01*
X84378800Y-67012400D02*
X84378800Y-67233800D01*
X84378800Y-33001800D02*
X84378800Y-38684200D01*
X29159200Y-82270600D02*
X29438600Y-82270600D01*
%TO.N,col4r*%
X62796000Y-75869800D02*
X53835606Y-75869800D01*
X70307200Y-68358600D02*
X66344800Y-72321000D01*
X66344800Y-43408600D02*
X69545200Y-46609000D01*
X53835606Y-75869800D02*
X46250368Y-83455038D01*
X29260800Y-83464400D02*
X26314400Y-80518000D01*
X26314400Y-77635200D02*
X18722000Y-70042800D01*
X66344800Y-60299600D02*
X70307200Y-64262000D01*
X70307200Y-64262000D02*
X70307200Y-68358600D01*
X69545200Y-52128000D02*
X66344800Y-55328400D01*
X69545200Y-46609000D02*
X69545200Y-52128000D01*
X66344800Y-72321000D02*
X62796000Y-75869800D01*
X66344800Y-38259600D02*
X66344800Y-43408600D01*
X26314400Y-80518000D02*
X26314400Y-77635200D01*
X66344800Y-55328400D02*
X66344800Y-60299600D01*
X36779200Y-83464400D02*
X29260800Y-83464400D01*
%TO.N,col5r*%
X51638200Y-71533600D02*
X48310800Y-74861000D01*
X48303600Y-74861000D02*
X35382200Y-87782400D01*
X48336200Y-40850400D02*
X48336200Y-46329600D01*
X48336200Y-57843000D02*
X48336200Y-63601600D01*
X51155600Y-55023600D02*
X48336200Y-57843000D01*
X51638200Y-66903600D02*
X51638200Y-71533600D01*
X25200435Y-91334765D02*
X25200435Y-93078933D01*
X25200435Y-79061235D02*
X25200435Y-93078933D01*
X18722000Y-72582800D02*
X25200435Y-79061235D01*
X48336200Y-46329600D02*
X51155600Y-49149000D01*
X51155600Y-49149000D02*
X51155600Y-55023600D01*
X48310800Y-74861000D02*
X48303600Y-74861000D01*
X48336200Y-63601600D02*
X51638200Y-66903600D01*
X28752800Y-87782400D02*
X25200435Y-91334765D01*
X35382200Y-87782400D02*
X28752800Y-87782400D01*
%TD*%
M02*
