M48
; DRILL file {KiCad (6.0.5-0)} date Wednesday, June 22, 2022 at 07:02:10 PM
; FORMAT={-:-/ absolute / inch / decimal}
; #@! TF.CreationDate,2022-06-22T19:02:10-07:00
; #@! TF.GenerationSoftware,Kicad,Pcbnew,(6.0.5-0)
; #@! TF.FileFunction,NonPlated,1,2,NPTH
FMAT,2
INCH
; #@! TA.AperFunction,NonPlated,NPTH,ComponentDrill
T1C0.0197
; #@! TA.AperFunction,NonPlated,NPTH,ComponentDrill
T2C0.0354
; #@! TA.AperFunction,NonPlated,NPTH,ComponentDrill
T3C0.0670
; #@! TA.AperFunction,NonPlated,NPTH,ComponentDrill
T4C0.1350
%
G90
G05
T1
X5.119Y-1.861
X5.119Y-1.901
X5.119Y-1.941
X5.119Y-1.981
X5.119Y-2.021
X5.12Y-2.742
X5.12Y-2.782
X5.12Y-2.822
X5.12Y-2.862
X5.12Y-2.902
X5.199Y-1.861
X5.199Y-1.901
X5.199Y-1.941
X5.199Y-1.981
X5.199Y-2.021
X5.2Y-2.742
X5.2Y-2.782
X5.2Y-2.822
X5.2Y-2.862
X5.2Y-2.902
T2
X0.9709Y-1.8977
X1.0891Y-1.8977
X9.2253Y-1.9123
X9.3434Y-1.9123
T3
X0.948Y-3.979
X1.3028Y-3.7306
X1.6718Y-3.566
X1.6855Y-2.715
X1.6865Y-1.376
X1.6865Y-2.045
X2.0902Y-3.454
X2.1185Y-2.715
X2.1195Y-1.376
X2.1195Y-2.045
X2.3955Y-1.274
X2.3955Y-1.946
X2.3955Y-2.615
X2.4635Y-3.402
X2.8285Y-1.274
X2.8285Y-1.946
X2.8285Y-2.615
X2.8965Y-3.402
X3.1045Y-1.737
X3.1055Y-1.067
X3.1055Y-2.406
X3.5375Y-1.737
X3.5385Y-1.067
X3.5385Y-2.406
X3.8145Y-1.336
X3.8145Y-2.007
X3.8155Y-2.677
X4.2475Y-1.336
X4.2475Y-2.007
X4.2485Y-2.677
X4.5235Y-1.81
X4.5235Y-2.479
X4.5235Y-3.148
X4.9565Y-1.81
X4.9565Y-2.479
X4.9565Y-3.148
X5.3638Y-1.8176
X5.3638Y-2.4906
X5.3648Y-3.1646
X5.7969Y-1.8176
X5.7969Y-2.4906
X5.7979Y-3.1646
X6.0718Y-2.0176
X6.0718Y-2.6916
X6.0728Y-1.3436
X6.5049Y-2.0176
X6.5049Y-2.6916
X6.5059Y-1.3436
X6.7808Y-1.7466
X6.7808Y-2.4206
X6.7818Y-1.0736
X7.2139Y-1.7466
X7.2139Y-2.4206
X7.2149Y-1.0736
X7.4378Y-3.4206
X7.4898Y-1.9576
X7.4898Y-2.6316
X7.4908Y-1.2836
X7.8709Y-3.4206
X7.9229Y-1.9576
X7.9229Y-2.6316
X7.9239Y-1.2836
X8.1998Y-1.3846
X8.1998Y-2.0586
X8.1998Y-2.7326
X8.2402Y-3.4716
X8.6329Y-1.3846
X8.6329Y-2.0586
X8.6329Y-2.7326
X8.6585Y-3.5836
X9.0239Y-3.7454
X9.3787Y-3.9938
T4
X1.1254Y-3.8548
X1.881Y-3.51
X1.902Y-2.715
X1.903Y-1.376
X1.903Y-2.045
X2.612Y-1.274
X2.612Y-1.946
X2.612Y-2.615
X2.68Y-3.402
X3.321Y-1.737
X3.322Y-1.067
X3.322Y-2.406
X4.031Y-1.336
X4.031Y-2.007
X4.032Y-2.677
X4.74Y-1.81
X4.74Y-2.479
X4.74Y-3.148
X5.5803Y-1.8176
X5.5803Y-2.4906
X5.5813Y-3.1646
X6.2883Y-2.0176
X6.2883Y-2.6916
X6.2893Y-1.3436
X6.9973Y-1.7466
X6.9973Y-2.4206
X6.9983Y-1.0736
X7.6543Y-3.4206
X7.7063Y-1.9576
X7.7063Y-2.6316
X7.7073Y-1.2836
X8.4163Y-1.3846
X8.4163Y-2.0586
X8.4163Y-2.7326
X8.4493Y-3.5276
X9.2013Y-3.8696
T0
M30
