%TF.GenerationSoftware,KiCad,Pcbnew,(6.0.5-0)*%
%TF.CreationDate,2022-06-22T19:02:17-07:00*%
%TF.ProjectId,Swept_3x5,53776570-745f-4337-9835-2e6b69636164,rev?*%
%TF.SameCoordinates,Original*%
%TF.FileFunction,Copper,L2,Bot*%
%TF.FilePolarity,Positive*%
%FSLAX46Y46*%
G04 Gerber Fmt 4.6, Leading zero omitted, Abs format (unit mm)*
G04 Created by KiCad (PCBNEW (6.0.5-0)) date 2022-06-22 19:02:17*
%MOMM*%
%LPD*%
G01*
G04 APERTURE LIST*
G04 Aperture macros list*
%AMRotRect*
0 Rectangle, with rotation*
0 The origin of the aperture is its center*
0 $1 length*
0 $2 width*
0 $3 Rotation angle, in degrees counterclockwise*
0 Add horizontal line*
21,1,$1,$2,0,0,$3*%
G04 Aperture macros list end*
%TA.AperFunction,ComponentPad*%
%ADD10C,1.524000*%
%TD*%
%TA.AperFunction,ComponentPad*%
%ADD11C,2.282000*%
%TD*%
%TA.AperFunction,ComponentPad*%
%ADD12C,2.000000*%
%TD*%
%TA.AperFunction,ComponentPad*%
%ADD13C,4.400000*%
%TD*%
%TA.AperFunction,ComponentPad*%
%ADD14C,1.397000*%
%TD*%
%TA.AperFunction,SMDPad,CuDef*%
%ADD15R,1.400000X1.000000*%
%TD*%
%TA.AperFunction,SMDPad,CuDef*%
%ADD16R,1.000000X0.800000*%
%TD*%
%TA.AperFunction,SMDPad,CuDef*%
%ADD17R,0.700000X1.500000*%
%TD*%
%TA.AperFunction,SMDPad,CuDef*%
%ADD18RotRect,1.400000X1.000000X145.000000*%
%TD*%
%TA.AperFunction,SMDPad,CuDef*%
%ADD19RotRect,1.400000X1.000000X35.000000*%
%TD*%
%TA.AperFunction,SMDPad,CuDef*%
%ADD20RotRect,1.400000X1.000000X165.000000*%
%TD*%
%TA.AperFunction,SMDPad,CuDef*%
%ADD21RotRect,1.400000X1.000000X15.000000*%
%TD*%
%TA.AperFunction,ViaPad*%
%ADD22C,0.800000*%
%TD*%
%TA.AperFunction,Conductor*%
%ADD23C,0.250000*%
%TD*%
G04 APERTURE END LIST*
D10*
%TO.P,U1,1,TX*%
%TO.N,unconnected-(U1-Pad1)*%
X243606600Y-50094000D03*
%TO.P,U1,2,RX*%
%TO.N,unconnected-(U1-Pad2)*%
X243606600Y-52634000D03*
%TO.P,U1,3,GND*%
%TO.N,gnd*%
X243606600Y-55174000D03*
%TO.P,U1,4,GND*%
X243606600Y-57714000D03*
%TO.P,U1,5,SDA*%
%TO.N,unconnected-(U1-Pad5)*%
X243606600Y-60254000D03*
%TO.P,U1,6,SCL*%
%TO.N,unconnected-(U1-Pad6)*%
X243606600Y-62794000D03*
%TO.P,U1,7,D4*%
%TO.N,row_0*%
X243606600Y-65334000D03*
%TO.P,U1,8,C6*%
%TO.N,row_1*%
X243606600Y-67874000D03*
%TO.P,U1,9,D7*%
%TO.N,row_2*%
X243606600Y-70414000D03*
%TO.P,U1,10,E6*%
%TO.N,row_3*%
X243606600Y-72954000D03*
%TO.P,U1,11,B4*%
%TO.N,unconnected-(U1-Pad11)*%
X243606600Y-75494000D03*
%TO.P,U1,12,B5*%
%TO.N,unconnected-(U1-Pad12)*%
X243606600Y-78034000D03*
%TO.P,U1,13,B6*%
%TO.N,unconnected-(U1-Pad13)*%
X228386600Y-78034000D03*
%TO.P,U1,14,B2*%
%TO.N,unconnected-(U1-Pad14)*%
X228386600Y-75494000D03*
%TO.P,U1,15,B3*%
%TO.N,col5*%
X228386600Y-72954000D03*
%TO.P,U1,16,B1*%
%TO.N,col4*%
X228386600Y-70414000D03*
%TO.P,U1,17,F7*%
%TO.N,col3*%
X228386600Y-67874000D03*
%TO.P,U1,18,F6*%
%TO.N,col2*%
X228386600Y-65334000D03*
%TO.P,U1,19,F5*%
%TO.N,col1*%
X228386600Y-62794000D03*
%TO.P,U1,20,F4*%
%TO.N,unconnected-(U1-Pad20)*%
X228386600Y-60254000D03*
%TO.P,U1,21,VCC*%
%TO.N,vcc*%
X228386600Y-57714000D03*
%TO.P,U1,22,RST*%
%TO.N,reset*%
X228386600Y-55174000D03*
%TO.P,U1,23,GND*%
%TO.N,gnd*%
X228386600Y-52634000D03*
%TO.P,U1,24,RAW*%
%TO.N,raw*%
X228386600Y-50094000D03*
%TD*%
D11*
%TO.P,SW16,1,1*%
%TO.N,col2*%
X159723400Y-74266800D03*
%TO.P,SW16,2,2*%
%TO.N,Net-(D14-Pad2)*%
X154723400Y-72166800D03*
%TD*%
%TO.P,SW20,1,1*%
%TO.N,col3*%
X194419800Y-80983400D03*
%TO.P,SW20,2,2*%
%TO.N,Net-(D18-Pad2)*%
X199419800Y-83083400D03*
%TD*%
%TO.P,SW15,1,1*%
%TO.N,col1*%
X141765600Y-86281000D03*
%TO.P,SW15,2,2*%
%TO.N,Net-(D13-Pad2)*%
X136765600Y-84181000D03*
%TD*%
%TO.P,SW21,1,1*%
%TO.N,col4*%
X216139832Y-83902238D03*
%TO.P,SW21,2,2*%
%TO.N,Net-(D19-Pad2)*%
X220425942Y-87224777D03*
%TD*%
%TO.P,SW17,1,1*%
%TO.N,col3*%
X177732000Y-67383400D03*
%TO.P,SW17,2,2*%
%TO.N,Net-(D15-Pad2)*%
X172732000Y-65283400D03*
%TD*%
%TO.P,SW18,1,1*%
%TO.N,col4*%
X195740600Y-72742800D03*
%TO.P,SW18,2,2*%
%TO.N,Net-(D16-Pad2)*%
X190740600Y-70642800D03*
%TD*%
%TO.P,SW4,1,1*%
%TO.N,col2*%
X159748800Y-40027600D03*
%TO.P,SW4,2,2*%
%TO.N,Net-(D2-Pad2)*%
X154748800Y-37927600D03*
%TD*%
%TO.P,SW3,1,1*%
%TO.N,col1*%
X141740200Y-52067200D03*
%TO.P,SW3,2,2*%
%TO.N,Net-(D1-Pad2)*%
X136740200Y-49967200D03*
%TD*%
%TO.P,SW9,1,1*%
%TO.N,col1*%
X141740200Y-69161400D03*
%TO.P,SW9,2,2*%
%TO.N,Net-(D7-Pad2)*%
X136740200Y-67061400D03*
%TD*%
%TO.P,SW12,1,1*%
%TO.N,col4*%
X195740600Y-55623200D03*
%TO.P,SW12,2,2*%
%TO.N,Net-(D10-Pad2)*%
X190740600Y-53523200D03*
%TD*%
%TO.P,SW11,1,1*%
%TO.N,col3*%
X177732000Y-50263800D03*
%TO.P,SW11,2,2*%
%TO.N,Net-(D9-Pad2)*%
X172732000Y-48163800D03*
%TD*%
%TO.P,SW6,1,1*%
%TO.N,col4*%
X195766000Y-38503600D03*
%TO.P,SW6,2,2*%
%TO.N,Net-(D4-Pad2)*%
X190766000Y-36403600D03*
%TD*%
%TO.P,SW5,1,1*%
%TO.N,col3*%
X177757400Y-33169600D03*
%TO.P,SW5,2,2*%
%TO.N,Net-(D3-Pad2)*%
X172757400Y-31069600D03*
%TD*%
D12*
%TO.P,RSW1,1,1*%
%TO.N,gnd*%
X240978000Y-82744400D03*
%TO.P,RSW1,2,2*%
%TO.N,reset*%
X240978000Y-89244400D03*
%TD*%
D11*
%TO.P,SW10,1,1*%
%TO.N,col2*%
X159723400Y-57147200D03*
%TO.P,SW10,2,2*%
%TO.N,Net-(D8-Pad2)*%
X154723400Y-55047200D03*
%TD*%
D13*
%TO.P,REF\u002A\u002A,1*%
%TO.N,N/C*%
X206298800Y-43180000D03*
X168198800Y-43180000D03*
X187248800Y-24130000D03*
X187248800Y-62230000D03*
%TD*%
D10*
%TO.P,U2,1,TX*%
%TO.N,unconnected-(U2-Pad1)*%
X33942000Y-49722800D03*
%TO.P,U2,2,RX*%
%TO.N,unconnected-(U2-Pad2)*%
X33942000Y-52262800D03*
%TO.P,U2,3,GND*%
%TO.N,gnd_r*%
X33942000Y-54802800D03*
%TO.P,U2,4,GND*%
X33942000Y-57342800D03*
%TO.P,U2,5,SDA*%
%TO.N,unconnected-(U2-Pad5)*%
X33942000Y-59882800D03*
%TO.P,U2,6,SCL*%
%TO.N,unconnected-(U2-Pad6)*%
X33942000Y-62422800D03*
%TO.P,U2,7,D4*%
%TO.N,row_0r*%
X33942000Y-64962800D03*
%TO.P,U2,8,C6*%
%TO.N,row_1r*%
X33942000Y-67502800D03*
%TO.P,U2,9,D7*%
%TO.N,row_2r*%
X33942000Y-70042800D03*
%TO.P,U2,10,E6*%
%TO.N,row_3r*%
X33942000Y-72582800D03*
%TO.P,U2,11,B4*%
%TO.N,unconnected-(U2-Pad11)*%
X33942000Y-75122800D03*
%TO.P,U2,12,B5*%
%TO.N,unconnected-(U2-Pad12)*%
X33942000Y-77662800D03*
%TO.P,U2,13,B6*%
%TO.N,unconnected-(U2-Pad13)*%
X18722000Y-77662800D03*
%TO.P,U2,14,B2*%
%TO.N,unconnected-(U2-Pad14)*%
X18722000Y-75122800D03*
%TO.P,U2,15,B3*%
%TO.N,col5r*%
X18722000Y-72582800D03*
%TO.P,U2,16,B1*%
%TO.N,col4r*%
X18722000Y-70042800D03*
%TO.P,U2,17,F7*%
%TO.N,col3r*%
X18722000Y-67502800D03*
%TO.P,U2,18,F6*%
%TO.N,col2r*%
X18722000Y-64962800D03*
%TO.P,U2,19,F5*%
%TO.N,col1r*%
X18722000Y-62422800D03*
%TO.P,U2,20,F4*%
%TO.N,unconnected-(U2-Pad20)*%
X18722000Y-59882800D03*
%TO.P,U2,21,VCC*%
%TO.N,vcc_r*%
X18722000Y-57342800D03*
%TO.P,U2,22,RST*%
%TO.N,reset_r*%
X18722000Y-54802800D03*
%TO.P,U2,23,GND*%
%TO.N,gnd_r*%
X18722000Y-52262800D03*
%TO.P,U2,24,RAW*%
%TO.N,raw_r*%
X18722000Y-49722800D03*
%TD*%
D11*
%TO.P,SW17_r1,1,1*%
%TO.N,col3r*%
X84378800Y-67012400D03*
%TO.P,SW17_r1,2,2*%
%TO.N,Net-(Dr15-Pad2)*%
X79378800Y-64912400D03*
%TD*%
%TO.P,SW11_r1,1,1*%
%TO.N,col3r*%
X84353400Y-50019800D03*
%TO.P,SW11_r1,2,2*%
%TO.N,Net-(Dr9-Pad2)*%
X79353400Y-47919800D03*
%TD*%
%TO.P,SW15_r1,1,1*%
%TO.N,col1r*%
X120396000Y-85859200D03*
%TO.P,SW15_r1,2,2*%
%TO.N,Net-(Dr13-Pad2)*%
X115396000Y-83759200D03*
%TD*%
%TO.P,SW18_r1,1,1*%
%TO.N,col4r*%
X66344800Y-72321000D03*
%TO.P,SW18_r1,2,2*%
%TO.N,Net-(Dr16-Pad2)*%
X61344800Y-70221000D03*
%TD*%
%TO.P,SW6_r1,1,1*%
%TO.N,col4r*%
X66344800Y-38259600D03*
%TO.P,SW6_r1,2,2*%
%TO.N,Net-(Dr4-Pad2)*%
X61344800Y-36159600D03*
%TD*%
%TO.P,SW5_r1,1,1*%
%TO.N,col3r*%
X84378800Y-33001800D03*
%TO.P,SW5_r1,2,2*%
%TO.N,Net-(Dr3-Pad2)*%
X79378800Y-30901800D03*
%TD*%
%TO.P,SW16_r1,1,1*%
%TO.N,col2r*%
X102412800Y-73895800D03*
%TO.P,SW16_r1,2,2*%
%TO.N,Net-(Dr14-Pad2)*%
X97412800Y-71795800D03*
%TD*%
%TO.P,SW4_r1,1,1*%
%TO.N,col2r*%
X102387400Y-39834400D03*
%TO.P,SW4_r1,2,2*%
%TO.N,Net-(Dr2-Pad2)*%
X97387400Y-37734400D03*
%TD*%
%TO.P,SW13_r1,1,1*%
%TO.N,col5r*%
X48336200Y-57843000D03*
%TO.P,SW13_r1,2,2*%
%TO.N,Net-(Dr11-Pad2)*%
X43336200Y-55743000D03*
%TD*%
%TO.P,SW12_r1,1,1*%
%TO.N,col4r*%
X66344800Y-55328400D03*
%TO.P,SW12_r1,2,2*%
%TO.N,Net-(Dr10-Pad2)*%
X61344800Y-53228400D03*
%TD*%
%TO.P,SW3_r1,1,1*%
%TO.N,col1r*%
X120396000Y-51874000D03*
%TO.P,SW3_r1,2,2*%
%TO.N,Net-(Dr1-Pad2)*%
X115396000Y-49774000D03*
%TD*%
%TO.P,SW21_r1,1,1*%
%TO.N,col4r*%
X46250368Y-83455038D03*
%TO.P,SW21_r1,2,2*%
%TO.N,Net-(Dr19-Pad2)*%
X51623517Y-84189387D03*
%TD*%
%TO.P,SW9_r1,1,1*%
%TO.N,col1r*%
X120396000Y-68866600D03*
%TO.P,SW9_r1,2,2*%
%TO.N,Net-(Dr7-Pad2)*%
X115396000Y-66766600D03*
%TD*%
%TO.P,SW20_r1,1,1*%
%TO.N,col3r*%
X68072000Y-80510800D03*
%TO.P,SW20_r1,2,2*%
%TO.N,Net-(Dr18-Pad2)*%
X73072000Y-82610800D03*
%TD*%
%TO.P,SW7_r1,1,1*%
%TO.N,col5r*%
X48336200Y-40850400D03*
%TO.P,SW7_r1,2,2*%
%TO.N,Net-(Dr5-Pad2)*%
X43336200Y-38750400D03*
%TD*%
D13*
%TO.P,REF\u002A\u002A,1*%
%TO.N,N/C*%
X94407400Y-42878400D03*
X56307400Y-42878400D03*
X75357400Y-61928400D03*
X75357400Y-23828400D03*
%TD*%
D12*
%TO.P,RSW2,1,1*%
%TO.N,gnd_r*%
X21285200Y-88721000D03*
%TO.P,RSW2,2,2*%
%TO.N,reset_r*%
X21285200Y-82221000D03*
%TD*%
D11*
%TO.P,SW13,1,1*%
%TO.N,col5*%
X213774600Y-58188600D03*
%TO.P,SW13,2,2*%
%TO.N,Net-(D11-Pad2)*%
X208774600Y-56088600D03*
%TD*%
%TO.P,SW22,1,1*%
%TO.N,col5*%
X237097701Y-93455003D03*
%TO.P,SW22,2,2*%
%TO.N,Net-(D20-Pad2)*%
X239988951Y-98043104D03*
%TD*%
%TO.P,SW19,1,1*%
%TO.N,col5*%
X213774600Y-75308200D03*
%TO.P,SW19,2,2*%
%TO.N,Net-(D17-Pad2)*%
X208774600Y-73208200D03*
%TD*%
%TO.P,SW19_r1,1,1*%
%TO.N,col5r*%
X48310800Y-74861000D03*
%TO.P,SW19_r1,2,2*%
%TO.N,Net-(Dr17-Pad2)*%
X43310800Y-72761000D03*
%TD*%
D14*
%TO.P,+,1,1*%
%TO.N,BT+*%
X229802000Y-47640400D03*
%TD*%
D11*
%TO.P,SW10_r1,1,1*%
%TO.N,col2r*%
X102387400Y-56877800D03*
%TO.P,SW10_r1,2,2*%
%TO.N,Net-(Dr8-Pad2)*%
X97387400Y-54777800D03*
%TD*%
%TO.P,SW22_r1,1,1*%
%TO.N,col5r*%
X25200435Y-93078933D03*
%TO.P,SW22_r1,2,2*%
%TO.N,Net-(Dr20-Pad2)*%
X30500706Y-91931270D03*
%TD*%
D14*
%TO.P,-,1,1*%
%TO.N,gnd*%
X241943200Y-47691200D03*
%TD*%
%TO.P,+,1,1*%
%TO.N,BT+_r*%
X20040600Y-47574200D03*
%TD*%
D11*
%TO.P,SW7,1,1*%
%TO.N,col5*%
X213774600Y-41069000D03*
%TO.P,SW7,2,2*%
%TO.N,Net-(D5-Pad2)*%
X208774600Y-38969000D03*
%TD*%
D14*
%TO.P,-,1,1*%
%TO.N,gnd_r*%
X32207200Y-47625000D03*
%TD*%
D15*
%TO.P,D7,1,K*%
%TO.N,row_1*%
X143388200Y-59349800D03*
%TO.P,D7,2,A*%
%TO.N,Net-(D7-Pad2)*%
X139838200Y-59349800D03*
%TD*%
%TO.P,D18,1,K*%
%TO.N,row_3*%
X196245600Y-92547600D03*
%TO.P,D18,2,A*%
%TO.N,Net-(D18-Pad2)*%
X192695600Y-92547600D03*
%TD*%
%TO.P,Dr16,1,K*%
%TO.N,row_2r*%
X64544400Y-62382400D03*
%TO.P,Dr16,2,A*%
%TO.N,Net-(Dr16-Pad2)*%
X68094400Y-62382400D03*
%TD*%
%TO.P,Dr15,1,K*%
%TO.N,row_2r*%
X82553000Y-57251600D03*
%TO.P,Dr15,2,A*%
%TO.N,Net-(Dr15-Pad2)*%
X86103000Y-57251600D03*
%TD*%
%TO.P,Dr3,1,K*%
%TO.N,row_0r*%
X82476800Y-23266400D03*
%TO.P,Dr3,2,A*%
%TO.N,Net-(Dr3-Pad2)*%
X86026800Y-23266400D03*
%TD*%
%TO.P,Dr18,1,K*%
%TO.N,row_3r*%
X66398600Y-91948000D03*
%TO.P,Dr18,2,A*%
%TO.N,Net-(Dr18-Pad2)*%
X69948600Y-91948000D03*
%TD*%
%TO.P,Dr9,1,K*%
%TO.N,row_1r*%
X82476800Y-40030400D03*
%TO.P,Dr9,2,A*%
%TO.N,Net-(Dr9-Pad2)*%
X86026800Y-40030400D03*
%TD*%
%TO.P,D11,1,K*%
%TO.N,row_1*%
X215575000Y-48351600D03*
%TO.P,D11,2,A*%
%TO.N,Net-(D11-Pad2)*%
X212025000Y-48351600D03*
%TD*%
%TO.P,D17,1,K*%
%TO.N,row_2*%
X215575000Y-65471200D03*
%TO.P,D17,2,A*%
%TO.N,Net-(D17-Pad2)*%
X212025000Y-65471200D03*
%TD*%
%TO.P,D15,1,K*%
%TO.N,row_2*%
X179608600Y-57622600D03*
%TO.P,D15,2,A*%
%TO.N,Net-(D15-Pad2)*%
X176058600Y-57622600D03*
%TD*%
%TO.P,D2,1,K*%
%TO.N,row_0*%
X161549200Y-30216000D03*
%TO.P,D2,2,A*%
%TO.N,Net-(D2-Pad2)*%
X157999200Y-30216000D03*
%TD*%
%TO.P,Dr4,1,K*%
%TO.N,row_0r*%
X64544400Y-28397200D03*
%TO.P,Dr4,2,A*%
%TO.N,Net-(Dr4-Pad2)*%
X68094400Y-28397200D03*
%TD*%
%TO.P,D13,1,K*%
%TO.N,row_2*%
X143616800Y-76545600D03*
%TO.P,D13,2,A*%
%TO.N,Net-(D13-Pad2)*%
X140066800Y-76545600D03*
%TD*%
%TO.P,Dr10,1,K*%
%TO.N,row_1r*%
X64544400Y-45440600D03*
%TO.P,Dr10,2,A*%
%TO.N,Net-(Dr10-Pad2)*%
X68094400Y-45440600D03*
%TD*%
D16*
%TO.P,SW_POWER1,*%
%TO.N,*%
X239471800Y-47472800D03*
X232171800Y-49682800D03*
X239471800Y-49682800D03*
X232171800Y-47472800D03*
D17*
%TO.P,SW_POWER1,1,A*%
%TO.N,unconnected-(SW_POWER1-Pad1)*%
X233571800Y-50332800D03*
%TO.P,SW_POWER1,2,B*%
%TO.N,BT+*%
X236571800Y-50332800D03*
%TO.P,SW_POWER1,3,C*%
%TO.N,raw*%
X238071800Y-50332800D03*
%TD*%
D15*
%TO.P,D3,1,K*%
%TO.N,row_0*%
X179583200Y-23408800D03*
%TO.P,D3,2,A*%
%TO.N,Net-(D3-Pad2)*%
X176033200Y-23408800D03*
%TD*%
%TO.P,Dr11,1,K*%
%TO.N,row_1r*%
X46510400Y-48107600D03*
%TO.P,Dr11,2,A*%
%TO.N,Net-(Dr11-Pad2)*%
X50060400Y-48107600D03*
%TD*%
%TO.P,Dr2,1,K*%
%TO.N,row_0r*%
X100587000Y-29972000D03*
%TO.P,Dr2,2,A*%
%TO.N,Net-(Dr2-Pad2)*%
X104137000Y-29972000D03*
%TD*%
D18*
%TO.P,D20,1,K*%
%TO.N,row_3*%
X231967195Y-103827298D03*
%TO.P,D20,2,A*%
%TO.N,Net-(D20-Pad2)*%
X229059205Y-101791102D03*
%TD*%
D15*
%TO.P,D16,1,K*%
%TO.N,row_2*%
X197490200Y-62982000D03*
%TO.P,D16,2,A*%
%TO.N,Net-(D16-Pad2)*%
X193940200Y-62982000D03*
%TD*%
D19*
%TO.P,Dr20,1,K*%
%TO.N,row_3r*%
X30423005Y-103456298D03*
%TO.P,Dr20,2,A*%
%TO.N,Net-(Dr20-Pad2)*%
X33330995Y-101420102D03*
%TD*%
D15*
%TO.P,Dr7,1,K*%
%TO.N,row_1r*%
X118595600Y-59182000D03*
%TO.P,Dr7,2,A*%
%TO.N,Net-(Dr7-Pad2)*%
X122145600Y-59182000D03*
%TD*%
%TO.P,Dr5,1,K*%
%TO.N,row_0r*%
X46510400Y-31064200D03*
%TO.P,Dr5,2,A*%
%TO.N,Net-(Dr5-Pad2)*%
X50060400Y-31064200D03*
%TD*%
D20*
%TO.P,D19,1,K*%
%TO.N,row_3*%
X214955718Y-95394604D03*
%TO.P,D19,2,A*%
%TO.N,Net-(D19-Pad2)*%
X211526682Y-94475796D03*
%TD*%
D15*
%TO.P,Dr1,1,K*%
%TO.N,row_0r*%
X118519400Y-42087800D03*
%TO.P,Dr1,2,A*%
%TO.N,Net-(Dr1-Pad2)*%
X122069400Y-42087800D03*
%TD*%
D16*
%TO.P,SW_POWERR1,*%
%TO.N,*%
X22512000Y-47101800D03*
X29812000Y-47101800D03*
X22512000Y-49311800D03*
X29812000Y-49311800D03*
D17*
%TO.P,SW_POWERR1,1,A*%
%TO.N,unconnected-(SW_POWERR1-Pad1)*%
X23912000Y-49961800D03*
%TO.P,SW_POWERR1,2,B*%
%TO.N,BT+_r*%
X26912000Y-49961800D03*
%TO.P,SW_POWERR1,3,C*%
%TO.N,raw_r*%
X28412000Y-49961800D03*
%TD*%
D15*
%TO.P,Dr14,1,K*%
%TO.N,row_2r*%
X100587000Y-64287400D03*
%TO.P,Dr14,2,A*%
%TO.N,Net-(Dr14-Pad2)*%
X104137000Y-64287400D03*
%TD*%
%TO.P,D10,1,K*%
%TO.N,row_1*%
X197515600Y-45913200D03*
%TO.P,D10,2,A*%
%TO.N,Net-(D10-Pad2)*%
X193965600Y-45913200D03*
%TD*%
%TO.P,D9,1,K*%
%TO.N,row_1*%
X179532400Y-40579200D03*
%TO.P,D9,2,A*%
%TO.N,Net-(D9-Pad2)*%
X175982400Y-40579200D03*
%TD*%
%TO.P,Dr13,1,K*%
%TO.N,row_2r*%
X118646400Y-76174600D03*
%TO.P,Dr13,2,A*%
%TO.N,Net-(Dr13-Pad2)*%
X122196400Y-76174600D03*
%TD*%
%TO.P,D4,1,K*%
%TO.N,row_0*%
X197566400Y-28793600D03*
%TO.P,D4,2,A*%
%TO.N,Net-(D4-Pad2)*%
X194016400Y-28793600D03*
%TD*%
%TO.P,D14,1,K*%
%TO.N,row_2*%
X161498400Y-64658400D03*
%TO.P,D14,2,A*%
%TO.N,Net-(D14-Pad2)*%
X157948400Y-64658400D03*
%TD*%
%TO.P,Dr8,1,K*%
%TO.N,row_1r*%
X100587000Y-47040800D03*
%TO.P,Dr8,2,A*%
%TO.N,Net-(Dr8-Pad2)*%
X104137000Y-47040800D03*
%TD*%
D21*
%TO.P,Dr19,1,K*%
%TO.N,row_3r*%
X47586882Y-95049004D03*
%TO.P,Dr19,2,A*%
%TO.N,Net-(Dr19-Pad2)*%
X51015918Y-94130196D03*
%TD*%
D15*
%TO.P,D5,1,K*%
%TO.N,row_0*%
X215575000Y-31308200D03*
%TO.P,D5,2,A*%
%TO.N,Net-(D5-Pad2)*%
X212025000Y-31308200D03*
%TD*%
%TO.P,Dr17,1,K*%
%TO.N,row_2r*%
X46510400Y-65049400D03*
%TO.P,Dr17,2,A*%
%TO.N,Net-(Dr17-Pad2)*%
X50060400Y-65049400D03*
%TD*%
%TO.P,D1,1,K*%
%TO.N,row_0*%
X143540600Y-42204800D03*
%TO.P,D1,2,A*%
%TO.N,Net-(D1-Pad2)*%
X139990600Y-42204800D03*
%TD*%
%TO.P,D8,1,K*%
%TO.N,row_1*%
X161549200Y-47437200D03*
%TO.P,D8,2,A*%
%TO.N,Net-(D8-Pad2)*%
X157999200Y-47437200D03*
%TD*%
D22*
%TO.N,col1*%
X217178200Y-79314200D03*
X180119600Y-80812800D03*
%TO.N,col2*%
X218473600Y-80177800D03*
%TO.N,col3*%
X219337200Y-81498600D03*
%TO.N,col4*%
X220327800Y-82540000D03*
%TO.N,row_0r*%
X81534000Y-33172400D03*
X81534000Y-28168600D03*
X45389800Y-36042600D03*
X45389800Y-41173400D03*
%TO.N,col1r*%
X77241400Y-77038200D03*
X41122600Y-79883000D03*
%TO.N,col2r*%
X40411400Y-81051400D03*
%TO.N,col3r*%
X39039800Y-81889600D03*
%TO.N,col4r*%
X36779200Y-83464400D03*
%TD*%
D23*
%TO.N,BT+*%
X236304400Y-52441000D02*
X236571800Y-52173600D01*
X236571800Y-52173600D02*
X236571800Y-50332800D01*
X229802000Y-49443800D02*
X232799200Y-52441000D01*
X229802000Y-47640400D02*
X229802000Y-49443800D01*
X232799200Y-52441000D02*
X236304400Y-52441000D01*
%TO.N,gnd*%
X241943200Y-47691200D02*
X241943200Y-49037400D01*
X241435200Y-49545400D02*
X241435200Y-53002600D01*
X241943200Y-49037400D02*
X241435200Y-49545400D01*
X231544400Y-55174000D02*
X243606600Y-55174000D01*
X228386600Y-52634000D02*
X230149400Y-54396800D01*
X230149400Y-54396800D02*
X230767200Y-54396800D01*
X243606600Y-55174000D02*
X243606600Y-57714000D01*
X241435200Y-53002600D02*
X243606600Y-55174000D01*
X230767200Y-54396800D02*
X231544400Y-55174000D01*
%TO.N,raw*%
X238082400Y-53177600D02*
X238071800Y-53167000D01*
X228386600Y-50094000D02*
X231876600Y-53584000D01*
X238071800Y-53167000D02*
X238071800Y-50332800D01*
X237676000Y-53584000D02*
X238082400Y-53177600D01*
X231876600Y-53584000D02*
X237676000Y-53584000D01*
%TO.N,BT+_r*%
X20040600Y-48945800D02*
X22199600Y-51104800D01*
X22199600Y-52679600D02*
X22529800Y-53009800D01*
X25247600Y-53009800D02*
X26912000Y-51345400D01*
X22529800Y-53009800D02*
X25247600Y-53009800D01*
X22199600Y-51104800D02*
X22199600Y-52679600D01*
X26912000Y-51345400D02*
X26912000Y-49961800D01*
X20040600Y-47574200D02*
X20040600Y-48945800D01*
%TO.N,reset_r*%
X21285200Y-57366000D02*
X18722000Y-54802800D01*
X21285200Y-82221000D02*
X21285200Y-57366000D01*
%TO.N,gnd_r*%
X32207200Y-47625000D02*
X32207200Y-50419000D01*
X21285200Y-86004400D02*
X26492200Y-80797400D01*
X26492200Y-80797400D02*
X26492200Y-63246000D01*
X32207200Y-54838600D02*
X32243000Y-54802800D01*
X30988000Y-51638200D02*
X30988000Y-53619400D01*
X26492200Y-63246000D02*
X32395400Y-57342800D01*
X33942000Y-54802800D02*
X33942000Y-57342800D01*
X19735800Y-53276600D02*
X19735800Y-54000400D01*
X32382200Y-56362600D02*
X33942000Y-54802800D01*
X32207200Y-50419000D02*
X30988000Y-51638200D01*
X30988000Y-53619400D02*
X32207200Y-54838600D01*
X22098000Y-56362600D02*
X32382200Y-56362600D01*
X21285200Y-88721000D02*
X21285200Y-86004400D01*
X18722000Y-52262800D02*
X19735800Y-53276600D01*
X32395400Y-57342800D02*
X33942000Y-57342800D01*
X19735800Y-54000400D02*
X22098000Y-56362600D01*
X32243000Y-54802800D02*
X33942000Y-54802800D01*
%TO.N,row_0*%
X181186400Y-29403200D02*
X182024600Y-30241400D01*
X161549200Y-30216000D02*
X161549200Y-29965000D01*
X152103400Y-39055200D02*
X152103400Y-28285600D01*
X179583200Y-23278800D02*
X179583200Y-23408800D01*
X152103400Y-28285600D02*
X152840000Y-27549000D01*
X151900200Y-39258400D02*
X152103400Y-39055200D01*
X182024600Y-30241400D02*
X186368000Y-30241400D01*
X228633600Y-86121400D02*
X230310000Y-86121400D01*
X238996800Y-68671600D02*
X242334400Y-65334000D01*
X222740800Y-49621600D02*
X222740800Y-80228600D01*
X215575000Y-32422800D02*
X217229000Y-34076800D01*
X161549200Y-29781200D02*
X161549200Y-30216000D01*
X199017200Y-30825600D02*
X204859200Y-30825600D01*
X181186400Y-26152000D02*
X181186400Y-29403200D01*
X195537400Y-26431400D02*
X197566400Y-28460400D01*
X170010400Y-25745600D02*
X170010400Y-22011800D01*
X143540600Y-42204800D02*
X144585000Y-42204800D01*
X170899400Y-21122800D02*
X177427200Y-21122800D01*
X177427200Y-21122800D02*
X179583200Y-23278800D01*
X217229000Y-34076800D02*
X217229000Y-44109800D01*
X197566400Y-29374800D02*
X199017200Y-30825600D01*
X147531400Y-39258400D02*
X151900200Y-39258400D01*
X206789600Y-28895200D02*
X213162000Y-28895200D01*
X161549200Y-29965000D02*
X164117600Y-27396600D01*
X230310000Y-86121400D02*
X238996800Y-77434600D01*
X186368000Y-30241400D02*
X190178000Y-26431400D01*
X159317000Y-27549000D02*
X161549200Y-29781200D01*
X143540600Y-41998600D02*
X143540600Y-42204800D01*
X217229000Y-44109800D02*
X222740800Y-49621600D01*
X179583200Y-23408800D02*
X179583200Y-24548800D01*
X144585000Y-42204800D02*
X147531400Y-39258400D01*
X242334400Y-65334000D02*
X243606600Y-65334000D01*
X213162000Y-28895200D02*
X215575000Y-31308200D01*
X215575000Y-31308200D02*
X215575000Y-32422800D01*
X164117600Y-27396600D02*
X168359400Y-27396600D01*
X190178000Y-26431400D02*
X195537400Y-26431400D01*
X197566400Y-28793600D02*
X197566400Y-29374800D01*
X170010400Y-22011800D02*
X170899400Y-21122800D01*
X152840000Y-27549000D02*
X159317000Y-27549000D01*
X204859200Y-30825600D02*
X206789600Y-28895200D01*
X238996800Y-77434600D02*
X238996800Y-68671600D01*
X168359400Y-27396600D02*
X170010400Y-25745600D01*
X222740800Y-80228600D02*
X228633600Y-86121400D01*
X197566400Y-28460400D02*
X197566400Y-28793600D01*
X179583200Y-24548800D02*
X181186400Y-26152000D01*
%TO.N,Net-(D2-Pad2)*%
X157999200Y-31635400D02*
X156421400Y-33213200D01*
X157999200Y-30216000D02*
X157999200Y-31635400D01*
X156421400Y-33213200D02*
X156421400Y-36255000D01*
X156421400Y-36255000D02*
X154748800Y-37927600D01*
%TO.N,row_1*%
X179532400Y-40579200D02*
X179789400Y-40579200D01*
X178417800Y-38648800D02*
X179532400Y-39763400D01*
X161549200Y-44900200D02*
X167800600Y-38648800D01*
X197515600Y-45913200D02*
X199369800Y-47767400D01*
X150731800Y-50155000D02*
X150731800Y-46954600D01*
X230589400Y-87416800D02*
X239987400Y-78018800D01*
X167800600Y-38648800D02*
X178417800Y-38648800D01*
X182634200Y-37734400D02*
X185783800Y-37734400D01*
X161549200Y-47104000D02*
X161549200Y-47437200D01*
X195689800Y-43830400D02*
X197515600Y-45656200D01*
X179532400Y-39763400D02*
X179532400Y-40579200D01*
X152916200Y-44770200D02*
X159215400Y-44770200D01*
X221877200Y-80584200D02*
X228709800Y-87416800D01*
X199369800Y-47767400D02*
X206484800Y-47767400D01*
X215863621Y-48640221D02*
X215863621Y-50364421D01*
X221877200Y-65776000D02*
X221877200Y-80584200D01*
X215863621Y-50364421D02*
X217533800Y-52034600D01*
X213723800Y-46014800D02*
X215575000Y-47866000D01*
X217533800Y-52034600D02*
X217533800Y-61432600D01*
X215575000Y-48351600D02*
X215863621Y-48640221D01*
X239987400Y-78018800D02*
X239987400Y-70144800D01*
X143388200Y-57498600D02*
X150731800Y-50155000D01*
X197515600Y-45656200D02*
X197515600Y-45913200D01*
X161549200Y-47437200D02*
X161549200Y-44900200D01*
X185783800Y-37734400D02*
X191879800Y-43830400D01*
X239987400Y-70144800D02*
X242258200Y-67874000D01*
X191879800Y-43830400D02*
X195689800Y-43830400D01*
X208237400Y-46014800D02*
X213723800Y-46014800D01*
X206484800Y-47767400D02*
X208237400Y-46014800D01*
X150731800Y-46954600D02*
X152916200Y-44770200D01*
X215575000Y-47866000D02*
X215575000Y-48351600D01*
X179789400Y-40579200D02*
X182634200Y-37734400D01*
X228709800Y-87416800D02*
X230589400Y-87416800D01*
X242258200Y-67874000D02*
X243606600Y-67874000D01*
X143388200Y-59349800D02*
X143388200Y-57498600D01*
X217533800Y-61432600D02*
X221877200Y-65776000D01*
X159215400Y-44770200D02*
X161549200Y-47104000D01*
%TO.N,Net-(D7-Pad2)*%
X138590600Y-65211000D02*
X136740200Y-67061400D01*
X139838200Y-60718400D02*
X138590600Y-61966000D01*
X138590600Y-61966000D02*
X138590600Y-65211000D01*
X139838200Y-59349800D02*
X139838200Y-60718400D01*
%TO.N,Net-(D8-Pad2)*%
X157999200Y-48526400D02*
X156548400Y-49977200D01*
X156548400Y-49977200D02*
X156548400Y-53222200D01*
X156548400Y-53222200D02*
X154723400Y-55047200D01*
X157999200Y-47437200D02*
X157999200Y-48526400D01*
%TO.N,row_2*%
X169527800Y-55565200D02*
X177655800Y-55565200D01*
X197925000Y-62982000D02*
X200668200Y-60238800D01*
X161498400Y-63594600D02*
X169527800Y-55565200D01*
X221140600Y-81320800D02*
X228760600Y-88940800D01*
X215575000Y-65471200D02*
X217070608Y-65471200D01*
X144077000Y-76545600D02*
X150528600Y-70094000D01*
X240673200Y-73347400D02*
X243606600Y-70414000D01*
X218620008Y-67020600D02*
X219540400Y-67020600D01*
X179608600Y-57622600D02*
X180907000Y-57622600D01*
X151519200Y-61483400D02*
X157031000Y-61483400D01*
X143616800Y-76545600D02*
X144077000Y-76545600D01*
X150528600Y-70094000D02*
X150528600Y-62474000D01*
X200668200Y-60238800D02*
X205849800Y-60238800D01*
X157031000Y-61483400D02*
X160206000Y-64658400D01*
X205849800Y-60238800D02*
X208643800Y-63032800D01*
X197490200Y-62982000D02*
X197925000Y-62982000D01*
X193578600Y-59070400D02*
X197490200Y-62982000D01*
X179608600Y-57518000D02*
X179608600Y-57622600D01*
X208643800Y-63032800D02*
X213136600Y-63032800D01*
X217070608Y-65471200D02*
X218620008Y-67020600D01*
X213136600Y-63032800D02*
X215575000Y-65471200D01*
X240673200Y-78755400D02*
X240673200Y-73347400D01*
X219540400Y-67020600D02*
X221140600Y-68620800D01*
X180907000Y-57622600D02*
X182354800Y-59070400D01*
X150528600Y-62474000D02*
X151519200Y-61483400D01*
X161498400Y-64658400D02*
X161498400Y-63594600D01*
X182354800Y-59070400D02*
X193578600Y-59070400D01*
X160206000Y-64658400D02*
X161498400Y-64658400D01*
X177655800Y-55565200D02*
X179608600Y-57518000D01*
X230487800Y-88940800D02*
X240673200Y-78755400D01*
X221140600Y-68620800D02*
X221140600Y-81320800D01*
X228760600Y-88940800D02*
X230487800Y-88940800D01*
%TO.N,Net-(D13-Pad2)*%
X138666800Y-78882400D02*
X138666800Y-82279800D01*
X140066800Y-76545600D02*
X140066800Y-77482400D01*
X138666800Y-82279800D02*
X136765600Y-84181000D01*
X140066800Y-77482400D02*
X138666800Y-78882400D01*
%TO.N,Net-(D14-Pad2)*%
X157948400Y-64658400D02*
X157948400Y-65874600D01*
X156497600Y-67325400D02*
X156497600Y-70392600D01*
X157948400Y-65874600D02*
X156497600Y-67325400D01*
X156497600Y-70392600D02*
X154723400Y-72166800D01*
%TO.N,Net-(D15-Pad2)*%
X174430000Y-63585400D02*
X172732000Y-65283400D01*
X176058600Y-57622600D02*
X176058600Y-58711800D01*
X174430000Y-60340400D02*
X174430000Y-63585400D01*
X176058600Y-58711800D02*
X174430000Y-60340400D01*
%TO.N,row_3*%
X242334400Y-72954000D02*
X243606600Y-72954000D01*
X231019102Y-103827298D02*
X231967195Y-103827298D01*
X196245600Y-94017800D02*
X199195000Y-96967200D01*
X216189804Y-95394604D02*
X219311800Y-98516600D01*
X222232800Y-98516600D02*
X241638400Y-79111000D01*
X228125600Y-105425400D02*
X229421000Y-105425400D01*
X241638400Y-79111000D02*
X241638400Y-73650000D01*
X219311800Y-98516600D02*
X222232800Y-98516600D01*
X217508400Y-100320000D02*
X223020200Y-100320000D01*
X199195000Y-96967200D02*
X212530000Y-96967200D01*
X212530000Y-96967200D02*
X214102596Y-95394604D01*
X241638400Y-73650000D02*
X242334400Y-72954000D01*
X214955718Y-95394604D02*
X214955718Y-97767318D01*
X223020200Y-100320000D02*
X228125600Y-105425400D01*
X214955718Y-97767318D02*
X217508400Y-100320000D01*
X214955718Y-95394604D02*
X216189804Y-95394604D01*
X229421000Y-105425400D02*
X231019102Y-103827298D01*
X214102596Y-95394604D02*
X214955718Y-95394604D01*
X196245600Y-92547600D02*
X196245600Y-94017800D01*
%TO.N,Net-(D19-Pad2)*%
X213698400Y-86527800D02*
X216162200Y-86527800D01*
X210371000Y-91811000D02*
X210371000Y-89855200D01*
X210371000Y-89855200D02*
X213698400Y-86527800D01*
X211526682Y-92966682D02*
X210371000Y-91811000D01*
X211526682Y-94475796D02*
X211526682Y-92966682D01*
X216859177Y-87224777D02*
X220425942Y-87224777D01*
X216162200Y-86527800D02*
X216859177Y-87224777D01*
%TO.N,Net-(D20-Pad2)*%
X229059205Y-101791102D02*
X229059205Y-98700595D01*
X237761304Y-98043104D02*
X239988951Y-98043104D01*
X234932800Y-95214600D02*
X237761304Y-98043104D01*
X232545200Y-95214600D02*
X234932800Y-95214600D01*
X229059205Y-98700595D02*
X232545200Y-95214600D01*
%TO.N,col1*%
X188577800Y-80812800D02*
X188628600Y-80762000D01*
X190881520Y-78509080D02*
X196662680Y-78509080D01*
X196662680Y-78509080D02*
X196731200Y-78577600D01*
X180119600Y-80812800D02*
X188577800Y-80812800D01*
X197467800Y-79314200D02*
X217178200Y-79314200D01*
X188628600Y-80762000D02*
X190881520Y-78509080D01*
X196731200Y-78577600D02*
X197467800Y-79314200D01*
%TO.N,col2*%
X165674200Y-74266800D02*
X173312400Y-81905000D01*
X218397400Y-80254000D02*
X218473600Y-80177800D01*
X196528000Y-80254000D02*
X218397400Y-80254000D01*
X195232600Y-78958600D02*
X196528000Y-80254000D01*
X192413200Y-78958600D02*
X195232600Y-78958600D01*
X159723400Y-74266800D02*
X165674200Y-74266800D01*
X189466800Y-81905000D02*
X192413200Y-78958600D01*
X173312400Y-81905000D02*
X189466800Y-81905000D01*
%TO.N,col3*%
X194419800Y-80983400D02*
X218822000Y-80983400D01*
X218822000Y-80983400D02*
X219337200Y-81498600D01*
%TO.N,col4*%
X216139832Y-83902238D02*
X218965562Y-83902238D01*
X218965562Y-83902238D02*
X220327800Y-82540000D01*
%TO.N,Net-(D1-Pad2)*%
X138463600Y-48243800D02*
X136740200Y-49967200D01*
X139990600Y-42204800D02*
X139990600Y-43395600D01*
X139990600Y-43395600D02*
X138463600Y-44922600D01*
X138463600Y-44922600D02*
X138463600Y-48243800D01*
%TO.N,Net-(D3-Pad2)*%
X176033200Y-23408800D02*
X176033200Y-24447200D01*
X174328400Y-29498600D02*
X172757400Y-31069600D01*
X174328400Y-26152000D02*
X174328400Y-29498600D01*
X176033200Y-24447200D02*
X174328400Y-26152000D01*
%TO.N,Net-(D4-Pad2)*%
X192387800Y-34781800D02*
X190766000Y-36403600D01*
X194016400Y-29857400D02*
X192387800Y-31486000D01*
X192387800Y-31486000D02*
X192387800Y-34781800D01*
X194016400Y-28793600D02*
X194016400Y-29857400D01*
%TO.N,Net-(D5-Pad2)*%
X212025000Y-32981600D02*
X210320200Y-34686400D01*
X210320200Y-37423400D02*
X208774600Y-38969000D01*
X212025000Y-31308200D02*
X212025000Y-32981600D01*
X210320200Y-34686400D02*
X210320200Y-37423400D01*
%TO.N,Net-(D9-Pad2)*%
X175982400Y-41592200D02*
X174277600Y-43297000D01*
X175982400Y-40579200D02*
X175982400Y-41592200D01*
X174277600Y-46618200D02*
X172732000Y-48163800D01*
X174277600Y-43297000D02*
X174277600Y-46618200D01*
%TO.N,Net-(D10-Pad2)*%
X192514800Y-51749000D02*
X190740600Y-53523200D01*
X192514800Y-48707200D02*
X192514800Y-51749000D01*
X193965600Y-47256400D02*
X192514800Y-48707200D01*
X193965600Y-45913200D02*
X193965600Y-47256400D01*
%TO.N,Net-(D11-Pad2)*%
X212025000Y-49364600D02*
X210447200Y-50942400D01*
X212025000Y-48351600D02*
X212025000Y-49364600D01*
X210447200Y-54416000D02*
X208774600Y-56088600D01*
X210447200Y-50942400D02*
X210447200Y-54416000D01*
%TO.N,Net-(D16-Pad2)*%
X192464000Y-65674400D02*
X192464000Y-68919400D01*
X192464000Y-68919400D02*
X190740600Y-70642800D01*
X193940200Y-64198200D02*
X192464000Y-65674400D01*
X193940200Y-62982000D02*
X193940200Y-64198200D01*
%TO.N,Net-(D17-Pad2)*%
X210193200Y-68392200D02*
X210193200Y-71789600D01*
X210193200Y-71789600D02*
X208774600Y-73208200D01*
X212025000Y-66560400D02*
X210193200Y-68392200D01*
X212025000Y-65471200D02*
X212025000Y-66560400D01*
%TO.N,Net-(D18-Pad2)*%
X193734000Y-90236200D02*
X195715200Y-90236200D01*
X197417000Y-85086200D02*
X199419800Y-83083400D01*
X195715200Y-90236200D02*
X197417000Y-88534400D01*
X192695600Y-91274600D02*
X193734000Y-90236200D01*
X197417000Y-88534400D02*
X197417000Y-85086200D01*
X192695600Y-92547600D02*
X192695600Y-91274600D01*
%TO.N,raw_r*%
X20650200Y-51651000D02*
X20650200Y-53365400D01*
X18722000Y-49722800D02*
X20650200Y-51651000D01*
X21183600Y-53898800D02*
X26416000Y-53898800D01*
X20650200Y-53365400D02*
X21183600Y-53898800D01*
X26416000Y-53898800D02*
X28412000Y-51902800D01*
X28412000Y-51902800D02*
X28412000Y-49961800D01*
%TO.N,row_0r*%
X45389800Y-41173400D02*
X45389800Y-42494200D01*
X118519400Y-42087800D02*
X118519400Y-42065400D01*
X45389800Y-32184800D02*
X45389800Y-36042600D01*
X76352400Y-35407600D02*
X74955400Y-34010600D01*
X91592400Y-26187400D02*
X91592400Y-21107400D01*
X80086200Y-35407600D02*
X76352400Y-35407600D01*
X84635800Y-21107400D02*
X82476800Y-23266400D01*
X100587000Y-29822600D02*
X97866200Y-27101800D01*
X81534000Y-26009600D02*
X81534000Y-28168600D01*
X63703200Y-28397200D02*
X61798200Y-30302200D01*
X37566600Y-64084200D02*
X36688000Y-64962800D01*
X74955400Y-28041600D02*
X74980800Y-28016200D01*
X81534000Y-33959800D02*
X80086200Y-35407600D01*
X64544400Y-28397200D02*
X63703200Y-28397200D01*
X54711600Y-28702000D02*
X48872600Y-28702000D01*
X118519400Y-42059400D02*
X118519400Y-42087800D01*
X115747800Y-39293800D02*
X111277400Y-39293800D01*
X111277400Y-39293800D02*
X110032800Y-38049200D01*
X102082600Y-27787600D02*
X100587000Y-29283200D01*
X73558400Y-26593800D02*
X66347800Y-26593800D01*
X118519400Y-42065400D02*
X115747800Y-39293800D01*
X100587000Y-29972000D02*
X100587000Y-29822600D01*
X91592400Y-21107400D02*
X84635800Y-21107400D01*
X100587000Y-29283200D02*
X100587000Y-29972000D01*
X37566600Y-50317400D02*
X37566600Y-64084200D01*
X45389800Y-42494200D02*
X37566600Y-50317400D01*
X56311800Y-30302200D02*
X54711600Y-28702000D01*
X97866200Y-27101800D02*
X92506800Y-27101800D01*
X82476800Y-25066800D02*
X81534000Y-26009600D01*
X92506800Y-27101800D02*
X91592400Y-26187400D01*
X74955400Y-34010600D02*
X74955400Y-28041600D01*
X82476800Y-23266400D02*
X82476800Y-25066800D01*
X81534000Y-33172400D02*
X81534000Y-33959800D01*
X61798200Y-30302200D02*
X56311800Y-30302200D01*
X110032800Y-38049200D02*
X110032800Y-28549600D01*
X48872600Y-28702000D02*
X46510400Y-31064200D01*
X74980800Y-28016200D02*
X73558400Y-26593800D01*
X109270800Y-27787600D02*
X102082600Y-27787600D01*
X110032800Y-28549600D02*
X109270800Y-27787600D01*
X36688000Y-64962800D02*
X33942000Y-64962800D01*
X66347800Y-26593800D02*
X64544400Y-28397200D01*
X46510400Y-31064200D02*
X45389800Y-32184800D01*
%TO.N,Net-(Dr1-Pad2)*%
X123748800Y-47167800D02*
X121142600Y-49774000D01*
X121142600Y-49774000D02*
X115396000Y-49774000D01*
X122069400Y-43481800D02*
X123748800Y-45161200D01*
X122069400Y-42087800D02*
X122069400Y-43481800D01*
X123748800Y-45161200D02*
X123748800Y-47167800D01*
%TO.N,Net-(Dr2-Pad2)*%
X103743600Y-37734400D02*
X97387400Y-37734400D01*
X105562400Y-35915600D02*
X103743600Y-37734400D01*
X105562400Y-31397400D02*
X105562400Y-35915600D01*
X104137000Y-29972000D02*
X105562400Y-31397400D01*
%TO.N,Net-(Dr3-Pad2)*%
X86026800Y-24965200D02*
X87807800Y-26746200D01*
X87807800Y-28575000D02*
X85481000Y-30901800D01*
X86026800Y-23266400D02*
X86026800Y-24965200D01*
X87807800Y-26746200D02*
X87807800Y-28575000D01*
X85481000Y-30901800D02*
X79378800Y-30901800D01*
%TO.N,Net-(Dr4-Pad2)*%
X68094400Y-28397200D02*
X68094400Y-30400800D01*
X69418200Y-34467800D02*
X67726400Y-36159600D01*
X69418200Y-31724600D02*
X69418200Y-34467800D01*
X68094400Y-30400800D02*
X69418200Y-31724600D01*
X67726400Y-36159600D02*
X61344800Y-36159600D01*
%TO.N,Net-(Dr5-Pad2)*%
X49590800Y-38750400D02*
X43336200Y-38750400D01*
X51333400Y-32337200D02*
X51333400Y-37007800D01*
X51333400Y-37007800D02*
X49590800Y-38750400D01*
X50060400Y-31064200D02*
X51333400Y-32337200D01*
%TO.N,row_1r*%
X108483400Y-44399200D02*
X103228600Y-44399200D01*
X91567000Y-40132000D02*
X89560400Y-38125400D01*
X89560400Y-38125400D02*
X84381800Y-38125400D01*
X41097200Y-50419000D02*
X39471600Y-52044600D01*
X39471600Y-52044600D02*
X39471600Y-64922400D01*
X103228600Y-44399200D02*
X100587000Y-47040800D01*
X43103800Y-50419000D02*
X41097200Y-50419000D01*
X39471600Y-64922400D02*
X36891200Y-67502800D01*
X82476800Y-40030400D02*
X82118200Y-40030400D01*
X46510400Y-48107600D02*
X45415200Y-48107600D01*
X82118200Y-40030400D02*
X79781400Y-37693600D01*
X79781400Y-37693600D02*
X72291400Y-37693600D01*
X54178200Y-46101000D02*
X48517000Y-46101000D01*
X36891200Y-67502800D02*
X33942000Y-67502800D01*
X118595600Y-59182000D02*
X117525800Y-59182000D01*
X72291400Y-37693600D02*
X64544400Y-45440600D01*
X111226600Y-47142400D02*
X108483400Y-44399200D01*
X48517000Y-46101000D02*
X46510400Y-48107600D01*
X55549800Y-47472600D02*
X54178200Y-46101000D01*
X91567000Y-47929800D02*
X91567000Y-40132000D01*
X117525800Y-59182000D02*
X111226600Y-52882800D01*
X111226600Y-52882800D02*
X111226600Y-47142400D01*
X98707400Y-48920400D02*
X92557600Y-48920400D01*
X92557600Y-48920400D02*
X91567000Y-47929800D01*
X100587000Y-47040800D02*
X98707400Y-48920400D01*
X64544400Y-45440600D02*
X63830200Y-45440600D01*
X63830200Y-45440600D02*
X61798200Y-47472600D01*
X84381800Y-38125400D02*
X82476800Y-40030400D01*
X45415200Y-48107600D02*
X43103800Y-50419000D01*
X61798200Y-47472600D02*
X55549800Y-47472600D01*
%TO.N,Net-(Dr7-Pad2)*%
X123494800Y-62103000D02*
X123494800Y-65659000D01*
X123494800Y-65659000D02*
X122377200Y-66776600D01*
X122145600Y-59182000D02*
X122145600Y-60753800D01*
X122145600Y-60753800D02*
X123494800Y-62103000D01*
X122377200Y-66776600D02*
X122367200Y-66766600D01*
X122367200Y-66766600D02*
X115396000Y-66766600D01*
%TO.N,Net-(Dr8-Pad2)*%
X103311800Y-54777800D02*
X97387400Y-54777800D01*
X105791000Y-50317400D02*
X105791000Y-52298600D01*
X104137000Y-47040800D02*
X104137000Y-48663400D01*
X104137000Y-48663400D02*
X105791000Y-50317400D01*
X105791000Y-52298600D02*
X103311800Y-54777800D01*
%TO.N,Net-(Dr9-Pad2)*%
X87782400Y-46151800D02*
X86014400Y-47919800D01*
X86026800Y-40030400D02*
X86026800Y-41348200D01*
X87782400Y-43103800D02*
X87782400Y-46151800D01*
X86014400Y-47919800D02*
X79353400Y-47919800D01*
X86026800Y-41348200D02*
X87782400Y-43103800D01*
%TO.N,Net-(Dr10-Pad2)*%
X67472400Y-53228400D02*
X61344800Y-53228400D01*
X68094400Y-45440600D02*
X69037200Y-46383400D01*
X69037200Y-46383400D02*
X69037200Y-51663600D01*
X69037200Y-51663600D02*
X67472400Y-53228400D01*
%TO.N,Net-(Dr11-Pad2)*%
X50060400Y-48107600D02*
X50060400Y-49247600D01*
X51714400Y-54152800D02*
X50124200Y-55743000D01*
X50124200Y-55743000D02*
X43336200Y-55743000D01*
X51714400Y-50901600D02*
X51714400Y-54152800D01*
X50060400Y-49247600D02*
X51714400Y-50901600D01*
%TO.N,row_2r*%
X100587000Y-63547800D02*
X100587000Y-64287400D01*
X46510400Y-65049400D02*
X46510400Y-65960800D01*
X85143800Y-54660800D02*
X82553000Y-57251600D01*
X91059000Y-54660800D02*
X85143800Y-54660800D01*
X93649800Y-60248800D02*
X91948000Y-58547000D01*
X82553000Y-57251600D02*
X80241600Y-54940200D01*
X110566200Y-70078600D02*
X110566200Y-62280800D01*
X51438000Y-60121800D02*
X46510400Y-65049400D01*
X37043600Y-70042800D02*
X33942000Y-70042800D01*
X112674400Y-72186800D02*
X110566200Y-70078600D01*
X45364400Y-67106800D02*
X39979600Y-67106800D01*
X100587000Y-64287400D02*
X100126800Y-64287400D01*
X118646400Y-76174600D02*
X118646400Y-75161600D01*
X64544400Y-62382400D02*
X63601600Y-62382400D01*
X91948000Y-55549800D02*
X91059000Y-54660800D01*
X63601600Y-62382400D02*
X61341000Y-60121800D01*
X91948000Y-58547000D02*
X91948000Y-55549800D01*
X61341000Y-60121800D02*
X51438000Y-60121800D01*
X100126800Y-64287400D02*
X96088200Y-60248800D01*
X96088200Y-60248800D02*
X93649800Y-60248800D01*
X103657400Y-60477400D02*
X100587000Y-63547800D01*
X115671600Y-72186800D02*
X112674400Y-72186800D01*
X108762800Y-60477400D02*
X103657400Y-60477400D01*
X71986600Y-54940200D02*
X64544400Y-62382400D01*
X39979600Y-67106800D02*
X37043600Y-70042800D01*
X110566200Y-62280800D02*
X108762800Y-60477400D01*
X80241600Y-54940200D02*
X71986600Y-54940200D01*
X118646400Y-75161600D02*
X115671600Y-72186800D01*
X46510400Y-65960800D02*
X45364400Y-67106800D01*
%TO.N,Net-(Dr13-Pad2)*%
X124104400Y-81686400D02*
X122031600Y-83759200D01*
X122196400Y-77289200D02*
X124104400Y-79197200D01*
X124104400Y-79197200D02*
X124104400Y-81686400D01*
X122031600Y-83759200D02*
X115396000Y-83759200D01*
X122196400Y-76174600D02*
X122196400Y-77289200D01*
%TO.N,Net-(Dr14-Pad2)*%
X105689400Y-70154800D02*
X104048400Y-71795800D01*
X104137000Y-64287400D02*
X104137000Y-65732200D01*
X104137000Y-65732200D02*
X105689400Y-67284600D01*
X104048400Y-71795800D02*
X97412800Y-71795800D01*
X105689400Y-67284600D02*
X105689400Y-70154800D01*
%TO.N,Net-(Dr15-Pad2)*%
X87833200Y-60401200D02*
X87833200Y-62636400D01*
X86103000Y-58671000D02*
X87833200Y-60401200D01*
X86103000Y-57251600D02*
X86103000Y-58671000D01*
X87833200Y-62636400D02*
X85557200Y-64912400D01*
X85557200Y-64912400D02*
X79378800Y-64912400D01*
%TO.N,Net-(Dr16-Pad2)*%
X69926200Y-65100200D02*
X69926200Y-69494400D01*
X68094400Y-62382400D02*
X68094400Y-63268400D01*
X68094400Y-63268400D02*
X69926200Y-65100200D01*
X69199600Y-70221000D02*
X61344800Y-70221000D01*
X69926200Y-69494400D02*
X69199600Y-70221000D01*
%TO.N,Net-(Dr17-Pad2)*%
X50060400Y-66545000D02*
X51892200Y-68376800D01*
X51892200Y-68376800D02*
X51892200Y-71272400D01*
X51892200Y-71272400D02*
X50403600Y-72761000D01*
X50403600Y-72761000D02*
X43310800Y-72761000D01*
X50060400Y-65049400D02*
X50060400Y-66545000D01*
%TO.N,row_3r*%
X34290000Y-89154000D02*
X39370000Y-94234000D01*
X33942000Y-72582800D02*
X35781200Y-74422000D01*
X34290000Y-82296000D02*
X34290000Y-89154000D01*
X31614707Y-104648000D02*
X30423005Y-103456298D01*
X35781200Y-74422000D02*
X35814000Y-74422000D01*
X35814000Y-80772000D02*
X34290000Y-82296000D01*
X46789004Y-95049004D02*
X47586882Y-95049004D01*
X43888996Y-95049004D02*
X34290000Y-104648000D01*
X62738000Y-91948000D02*
X58166000Y-96520000D01*
X49022000Y-96484122D02*
X47586882Y-95049004D01*
X35814000Y-74422000D02*
X35814000Y-80772000D01*
X45974000Y-94234000D02*
X46789004Y-95049004D01*
X49022000Y-96520000D02*
X49022000Y-96484122D01*
X66398600Y-91948000D02*
X62738000Y-91948000D01*
X34290000Y-104648000D02*
X31614707Y-104648000D01*
X58166000Y-96520000D02*
X49022000Y-96520000D01*
X47586882Y-95049004D02*
X43888996Y-95049004D01*
X39370000Y-94234000D02*
X45974000Y-94234000D01*
%TO.N,Net-(Dr18-Pad2)*%
X73072000Y-82610800D02*
X73072000Y-84224417D01*
X70866000Y-86430417D02*
X70866000Y-89916000D01*
X73072000Y-84224417D02*
X70866000Y-86430417D01*
X70866000Y-89916000D02*
X69948600Y-90833400D01*
X69948600Y-90833400D02*
X69948600Y-91948000D01*
%TO.N,Net-(Dr19-Pad2)*%
X51623517Y-86552483D02*
X50800000Y-87376000D01*
X50800000Y-92202000D02*
X51015918Y-92417918D01*
X50800000Y-87376000D02*
X50800000Y-92202000D01*
X51015918Y-92417918D02*
X51015918Y-94130196D01*
X51623517Y-84189387D02*
X51623517Y-86552483D01*
%TO.N,Net-(Dr20-Pad2)*%
X33330995Y-98354995D02*
X33330995Y-101420102D01*
X30500706Y-91931270D02*
X30500706Y-95524706D01*
X30500706Y-95524706D02*
X33330995Y-98354995D01*
%TO.N,col1r*%
X66243200Y-77038200D02*
X64693800Y-78587600D01*
X41402000Y-80162400D02*
X41122600Y-79883000D01*
X77241400Y-77038200D02*
X66243200Y-77038200D01*
X64693800Y-78587600D02*
X45618400Y-78587600D01*
X44043600Y-80162400D02*
X41402000Y-80162400D01*
X45618400Y-78587600D02*
X44043600Y-80162400D01*
%TO.N,col2r*%
X66522600Y-78130400D02*
X65354200Y-79298800D01*
X44475400Y-81051400D02*
X40411400Y-81051400D01*
X102412800Y-73895800D02*
X98178200Y-78130400D01*
X44526200Y-81000600D02*
X44475400Y-81051400D01*
X46050200Y-79476600D02*
X44526200Y-81000600D01*
X65354200Y-79298800D02*
X65176400Y-79476600D01*
X46634400Y-79476600D02*
X46050200Y-79476600D01*
X98178200Y-78130400D02*
X97332800Y-78130400D01*
X97332800Y-78130400D02*
X66522600Y-78130400D01*
X65176400Y-79476600D02*
X46634400Y-79476600D01*
%TO.N,col3r*%
X44627800Y-81889600D02*
X46006600Y-80510800D01*
X39039800Y-81889600D02*
X44627800Y-81889600D01*
X46006600Y-80510800D02*
X68072000Y-80510800D01*
%TO.N,col4r*%
X36788562Y-83455038D02*
X46250368Y-83455038D01*
X36779200Y-83464400D02*
X36788562Y-83455038D01*
%TD*%
M02*
