%TF.GenerationSoftware,KiCad,Pcbnew,(6.0.5-0)*%
%TF.CreationDate,2022-06-22T19:02:17-07:00*%
%TF.ProjectId,Swept_3x5,53776570-745f-4337-9835-2e6b69636164,rev?*%
%TF.SameCoordinates,Original*%
%TF.FileFunction,Profile,NP*%
%FSLAX46Y46*%
G04 Gerber Fmt 4.6, Leading zero omitted, Abs format (unit mm)*
G04 Created by KiCad (PCBNEW (6.0.5-0)) date 2022-06-22 19:02:17*
%MOMM*%
%LPD*%
G01*
G04 APERTURE LIST*
%TA.AperFunction,Profile*%
%ADD10C,0.050000*%
%TD*%
G04 APERTURE END LIST*
D10*
X129730687Y-46329600D02*
X129740866Y-37947600D01*
X221890801Y-44661999D02*
X221890845Y-27337419D01*
X233848190Y-109091455D02*
G75*
G03*
X236583800Y-108473400I945310J2179055D01*
G01*
X221890797Y-44661999D02*
G75*
G03*
X223883800Y-46592917I1999703J69999D01*
G01*
X185235334Y-95939027D02*
G75*
G03*
X133561400Y-89271000I-64063635J-292903882D01*
G01*
X221890842Y-27337419D02*
G75*
G03*
X220818748Y-26245558I-1081942J9919D01*
G01*
X189961171Y-23624506D02*
X203258820Y-23618308D01*
X57353200Y-26009600D02*
G75*
G03*
X57988200Y-25374600I0J635000D01*
G01*
X187256999Y-19700400D02*
G75*
G03*
X186190020Y-18614508I-1076799J9100D01*
G01*
X93802209Y-19308139D02*
G75*
G03*
X92862400Y-18364200I-943909J39D01*
G01*
X130048000Y-46329600D02*
X129730687Y-46329600D01*
X132308601Y-52197000D02*
X132334001Y-68884800D01*
X132029201Y-52197000D02*
X132308601Y-52197000D01*
X57988200Y-24434800D02*
X57988200Y-25374600D01*
X111709200Y-25908000D02*
G75*
G03*
X110947200Y-25146000I-762000J0D01*
G01*
X18084800Y-46355000D02*
X38388198Y-46348917D01*
X129794001Y-68884800D02*
X129819401Y-52197000D01*
X41495252Y-26001555D02*
G75*
G03*
X40423155Y-27093419I9848J-1081945D01*
G01*
X38388198Y-46348918D02*
G75*
G03*
X40423199Y-44417999I35002J2000918D01*
G01*
X204325812Y-24678800D02*
G75*
G03*
X203258820Y-23618308I-1076812J-16400D01*
G01*
X40423155Y-27093419D02*
X40423199Y-44417999D01*
X223883800Y-46592917D02*
X244229200Y-46599000D01*
X129794000Y-87858600D02*
X129794000Y-74472800D01*
X169451600Y-18608209D02*
G75*
G03*
X168511800Y-19552139I4100J-943891D01*
G01*
X133129600Y-37493100D02*
G75*
G03*
X132443800Y-38178900I0J-685800D01*
G01*
X130149601Y-68884800D02*
X129794001Y-68884800D01*
X130048001Y-52197000D02*
X129819401Y-52197000D01*
X233848210Y-109091409D02*
G75*
G03*
X185235334Y-95939027I-66624810J-149837891D01*
G01*
X75331283Y-19558000D02*
X75336400Y-21082000D01*
X132443800Y-38178900D02*
X132422900Y-46380400D01*
X244635600Y-96510000D02*
X236583800Y-108473400D01*
X168511800Y-19552139D02*
X168511800Y-24628000D01*
X132029201Y-52197000D02*
G75*
G03*
X130048001Y-52197000I-990600J0D01*
G01*
X93802200Y-24384000D02*
X93802200Y-19308139D01*
X244655639Y-47019732D02*
G75*
G03*
X244229200Y-46599000I-420739J32D01*
G01*
X150147600Y-37505800D02*
X133129600Y-37493100D01*
X244655668Y-47019732D02*
X244686400Y-96256000D01*
X59055180Y-23374320D02*
G75*
G03*
X57988200Y-24434800I9820J-1076880D01*
G01*
X130149600Y-74472800D02*
X129794000Y-74472800D01*
X220818748Y-26245558D02*
X204960800Y-26253600D01*
X204325800Y-25618600D02*
X204325800Y-24678800D01*
X77078666Y-95695027D02*
G75*
G03*
X28465795Y-108847420I18011984J-162990303D01*
G01*
X57353200Y-26009600D02*
X41495252Y-26001558D01*
X18084800Y-46354971D02*
G75*
G03*
X17658332Y-46775732I-5700J-420729D01*
G01*
X167749800Y-25390000D02*
G75*
G03*
X168511800Y-24628000I0J762000D01*
G01*
X131064001Y-69774152D02*
G75*
G03*
X131978400Y-68884800I0J914752D01*
G01*
X59055180Y-23374308D02*
X72618600Y-23368000D01*
X132367600Y-88077200D02*
G75*
G03*
X133561400Y-89271000I1193800J0D01*
G01*
X93802200Y-24384000D02*
G75*
G03*
X94564200Y-25146000I762000J0D01*
G01*
X132422900Y-46380400D02*
X132041900Y-46380400D01*
X128691037Y-88899999D02*
G75*
G03*
X129794000Y-87858600I14948J1088951D01*
G01*
X132334000Y-74472800D02*
X131978400Y-74472800D01*
X167749800Y-25390000D02*
X151366800Y-25390000D01*
X150147600Y-37505800D02*
G75*
G03*
X150604800Y-37048600I0J457200D01*
G01*
X110947200Y-25146000D02*
X94564200Y-25146000D01*
X129740865Y-37947600D02*
G75*
G03*
X129032000Y-37261800I-686175J0D01*
G01*
X132334000Y-74472800D02*
X132367600Y-88077200D01*
X111709200Y-36804600D02*
G75*
G03*
X112166400Y-37261800I457200J0D01*
G01*
X25730198Y-108229402D02*
G75*
G03*
X28465795Y-108847420I1752852J1395392D01*
G01*
X130149602Y-68884800D02*
G75*
G03*
X131064001Y-69774152I914399J25400D01*
G01*
X204325800Y-25618600D02*
G75*
G03*
X204960800Y-26253600I635000J0D01*
G01*
X132334001Y-68884800D02*
X131978401Y-68884800D01*
X129032000Y-37261800D02*
X112166400Y-37261800D01*
X75336400Y-21082044D02*
G75*
G03*
X72618600Y-23368000I15700J-2777256D01*
G01*
X150604800Y-26152000D02*
X150604800Y-37048600D01*
X151366800Y-25390000D02*
G75*
G03*
X150604800Y-26152000I0J-762000D01*
G01*
X17627600Y-96012000D02*
G75*
G03*
X17678400Y-96266000I660400J0D01*
G01*
X130047920Y-46329595D02*
G75*
G03*
X132041900Y-46380400I996180J-57205D01*
G01*
X131978400Y-74472800D02*
G75*
G03*
X130149600Y-74472800I-914400J0D01*
G01*
X76657203Y-18338769D02*
G75*
G03*
X75331283Y-19558000I-122903J-1196931D01*
G01*
X189961171Y-23624506D02*
G75*
G03*
X187257000Y-21427600I-2729571J-597094D01*
G01*
X17627600Y-96012000D02*
X17658332Y-46775732D01*
X25730200Y-108229400D02*
X17678400Y-96266000D01*
X244635600Y-96510000D02*
G75*
G03*
X244686400Y-96256000I-609600J254000D01*
G01*
X186190020Y-18614508D02*
X169451600Y-18608200D01*
X92862400Y-18364200D02*
X76657200Y-18338800D01*
X111709200Y-36804600D02*
X111709200Y-25908000D01*
X187257000Y-21427600D02*
X187257000Y-19700400D01*
X128691037Y-88900000D02*
G75*
G03*
X77078666Y-95695027I14340782J-308338202D01*
G01*
M02*
