%TF.GenerationSoftware,KiCad,Pcbnew,(6.0.5-0)*%
%TF.CreationDate,2022-07-05T16:09:48-07:00*%
%TF.ProjectId,Swept_3x5,53776570-745f-4337-9835-2e6b69636164,rev?*%
%TF.SameCoordinates,Original*%
%TF.FileFunction,Legend,Bot*%
%TF.FilePolarity,Positive*%
%FSLAX46Y46*%
G04 Gerber Fmt 4.6, Leading zero omitted, Abs format (unit mm)*
G04 Created by KiCad (PCBNEW (6.0.5-0)) date 2022-07-05 16:09:48*
%MOMM*%
%LPD*%
G01*
G04 APERTURE LIST*
%ADD10C,0.120000*%
%ADD11C,0.150000*%
%ADD12C,0.100000*%
%ADD13C,0.010000*%
%ADD14C,0.200000*%
G04 APERTURE END LIST*
D10*
X23182600Y-47055800D02*
X29913600Y-47055800D01*
X29913600Y-47055800D02*
X29913600Y-49976800D01*
X29913600Y-49976800D02*
X23182600Y-49976800D01*
X23182600Y-49976800D02*
X23182600Y-47055800D01*
D11*
%TO.C,SW16*%
X168751724Y-60904994D02*
X168608867Y-60952613D01*
X168370772Y-60952613D01*
X168275534Y-60904994D01*
X168227915Y-60857375D01*
X168180296Y-60762137D01*
X168180296Y-60666899D01*
X168227915Y-60571661D01*
X168275534Y-60524042D01*
X168370772Y-60476423D01*
X168561248Y-60428804D01*
X168656486Y-60381185D01*
X168704105Y-60333566D01*
X168751724Y-60238328D01*
X168751724Y-60143090D01*
X168704105Y-60047852D01*
X168656486Y-60000233D01*
X168561248Y-59952613D01*
X168323153Y-59952613D01*
X168180296Y-60000233D01*
X167846962Y-59952613D02*
X167608867Y-60952613D01*
X167418391Y-60238328D01*
X167227915Y-60952613D01*
X166989820Y-59952613D01*
X166085058Y-60952613D02*
X166656486Y-60952613D01*
X166370772Y-60952613D02*
X166370772Y-59952613D01*
X166466010Y-60095471D01*
X166561248Y-60190709D01*
X166656486Y-60238328D01*
X165227915Y-59952613D02*
X165418391Y-59952613D01*
X165513629Y-60000233D01*
X165561248Y-60047852D01*
X165656486Y-60190709D01*
X165704105Y-60381185D01*
X165704105Y-60762137D01*
X165656486Y-60857375D01*
X165608867Y-60904994D01*
X165513629Y-60952613D01*
X165323153Y-60952613D01*
X165227915Y-60904994D01*
X165180296Y-60857375D01*
X165132677Y-60762137D01*
X165132677Y-60524042D01*
X165180296Y-60428804D01*
X165227915Y-60381185D01*
X165323153Y-60333566D01*
X165513629Y-60333566D01*
X165608867Y-60381185D01*
X165656486Y-60428804D01*
X165704105Y-60524042D01*
%TO.C,SW20*%
X194558124Y-94661594D02*
X194415267Y-94709213D01*
X194177172Y-94709213D01*
X194081934Y-94661594D01*
X194034315Y-94613975D01*
X193986696Y-94518737D01*
X193986696Y-94423499D01*
X194034315Y-94328261D01*
X194081934Y-94280642D01*
X194177172Y-94233023D01*
X194367648Y-94185404D01*
X194462886Y-94137785D01*
X194510505Y-94090166D01*
X194558124Y-93994928D01*
X194558124Y-93899690D01*
X194510505Y-93804452D01*
X194462886Y-93756833D01*
X194367648Y-93709213D01*
X194129553Y-93709213D01*
X193986696Y-93756833D01*
X193653362Y-93709213D02*
X193415267Y-94709213D01*
X193224791Y-93994928D01*
X193034315Y-94709213D01*
X192796220Y-93709213D01*
X192462886Y-93804452D02*
X192415267Y-93756833D01*
X192320029Y-93709213D01*
X192081934Y-93709213D01*
X191986696Y-93756833D01*
X191939077Y-93804452D01*
X191891458Y-93899690D01*
X191891458Y-93994928D01*
X191939077Y-94137785D01*
X192510505Y-94709213D01*
X191891458Y-94709213D01*
X191272410Y-93709213D02*
X191177172Y-93709213D01*
X191081934Y-93756833D01*
X191034315Y-93804452D01*
X190986696Y-93899690D01*
X190939077Y-94090166D01*
X190939077Y-94328261D01*
X190986696Y-94518737D01*
X191034315Y-94613975D01*
X191081934Y-94661594D01*
X191177172Y-94709213D01*
X191272410Y-94709213D01*
X191367648Y-94661594D01*
X191415267Y-94613975D01*
X191462886Y-94518737D01*
X191510505Y-94328261D01*
X191510505Y-94090166D01*
X191462886Y-93899690D01*
X191415267Y-93804452D01*
X191367648Y-93756833D01*
X191272410Y-93709213D01*
%TO.C,SW15*%
X150793924Y-72919194D02*
X150651067Y-72966813D01*
X150412972Y-72966813D01*
X150317734Y-72919194D01*
X150270115Y-72871575D01*
X150222496Y-72776337D01*
X150222496Y-72681099D01*
X150270115Y-72585861D01*
X150317734Y-72538242D01*
X150412972Y-72490623D01*
X150603448Y-72443004D01*
X150698686Y-72395385D01*
X150746305Y-72347766D01*
X150793924Y-72252528D01*
X150793924Y-72157290D01*
X150746305Y-72062052D01*
X150698686Y-72014433D01*
X150603448Y-71966813D01*
X150365353Y-71966813D01*
X150222496Y-72014433D01*
X149889162Y-71966813D02*
X149651067Y-72966813D01*
X149460591Y-72252528D01*
X149270115Y-72966813D01*
X149032020Y-71966813D01*
X148127258Y-72966813D02*
X148698686Y-72966813D01*
X148412972Y-72966813D02*
X148412972Y-71966813D01*
X148508210Y-72109671D01*
X148603448Y-72204909D01*
X148698686Y-72252528D01*
X147222496Y-71966813D02*
X147698686Y-71966813D01*
X147746305Y-72443004D01*
X147698686Y-72395385D01*
X147603448Y-72347766D01*
X147365353Y-72347766D01*
X147270115Y-72395385D01*
X147222496Y-72443004D01*
X147174877Y-72538242D01*
X147174877Y-72776337D01*
X147222496Y-72871575D01*
X147270115Y-72919194D01*
X147365353Y-72966813D01*
X147603448Y-72966813D01*
X147698686Y-72919194D01*
X147746305Y-72871575D01*
%TO.C,SW21*%
X209477754Y-94705227D02*
X209628068Y-94696205D01*
X209858050Y-94757829D01*
X209937718Y-94828474D01*
X209971390Y-94886796D01*
X209992737Y-94991113D01*
X209968088Y-95083106D01*
X209897442Y-95162774D01*
X209839121Y-95196446D01*
X209734803Y-95217793D01*
X209538493Y-95214491D01*
X209434175Y-95235838D01*
X209375854Y-95269510D01*
X209305208Y-95349178D01*
X209280558Y-95441171D01*
X209301905Y-95545488D01*
X209335577Y-95603810D01*
X209415245Y-95674456D01*
X209645228Y-95736079D01*
X209795542Y-95727057D01*
X210105192Y-95859326D02*
X210593994Y-94955024D01*
X210593109Y-95694270D01*
X210961965Y-95053622D01*
X210933129Y-96081171D01*
X211279754Y-96075451D02*
X211313425Y-96133772D01*
X211393093Y-96204418D01*
X211623076Y-96266042D01*
X211727393Y-96244695D01*
X211785715Y-96211023D01*
X211856361Y-96131355D01*
X211881010Y-96039362D01*
X211871988Y-95889048D01*
X211467927Y-95189194D01*
X212065881Y-95349415D01*
X212985810Y-95595909D02*
X212433852Y-95448013D01*
X212709831Y-95521961D02*
X212451012Y-96487887D01*
X212395993Y-96325248D01*
X212328650Y-96208606D01*
X212248982Y-96137960D01*
%TO.C,SW17*%
X186760324Y-54021594D02*
X186617467Y-54069213D01*
X186379372Y-54069213D01*
X186284134Y-54021594D01*
X186236515Y-53973975D01*
X186188896Y-53878737D01*
X186188896Y-53783499D01*
X186236515Y-53688261D01*
X186284134Y-53640642D01*
X186379372Y-53593023D01*
X186569848Y-53545404D01*
X186665086Y-53497785D01*
X186712705Y-53450166D01*
X186760324Y-53354928D01*
X186760324Y-53259690D01*
X186712705Y-53164452D01*
X186665086Y-53116833D01*
X186569848Y-53069213D01*
X186331753Y-53069213D01*
X186188896Y-53116833D01*
X185855562Y-53069213D02*
X185617467Y-54069213D01*
X185426991Y-53354928D01*
X185236515Y-54069213D01*
X184998420Y-53069213D01*
X184093658Y-54069213D02*
X184665086Y-54069213D01*
X184379372Y-54069213D02*
X184379372Y-53069213D01*
X184474610Y-53212071D01*
X184569848Y-53307309D01*
X184665086Y-53354928D01*
X183760324Y-53069213D02*
X183093658Y-53069213D01*
X183522229Y-54069213D01*
%TO.C,SW18*%
X204768924Y-59380994D02*
X204626067Y-59428613D01*
X204387972Y-59428613D01*
X204292734Y-59380994D01*
X204245115Y-59333375D01*
X204197496Y-59238137D01*
X204197496Y-59142899D01*
X204245115Y-59047661D01*
X204292734Y-59000042D01*
X204387972Y-58952423D01*
X204578448Y-58904804D01*
X204673686Y-58857185D01*
X204721305Y-58809566D01*
X204768924Y-58714328D01*
X204768924Y-58619090D01*
X204721305Y-58523852D01*
X204673686Y-58476233D01*
X204578448Y-58428613D01*
X204340353Y-58428613D01*
X204197496Y-58476233D01*
X203864162Y-58428613D02*
X203626067Y-59428613D01*
X203435591Y-58714328D01*
X203245115Y-59428613D01*
X203007020Y-58428613D01*
X202102258Y-59428613D02*
X202673686Y-59428613D01*
X202387972Y-59428613D02*
X202387972Y-58428613D01*
X202483210Y-58571471D01*
X202578448Y-58666709D01*
X202673686Y-58714328D01*
X201530829Y-58857185D02*
X201626067Y-58809566D01*
X201673686Y-58761947D01*
X201721305Y-58666709D01*
X201721305Y-58619090D01*
X201673686Y-58523852D01*
X201626067Y-58476233D01*
X201530829Y-58428613D01*
X201340353Y-58428613D01*
X201245115Y-58476233D01*
X201197496Y-58523852D01*
X201149877Y-58619090D01*
X201149877Y-58666709D01*
X201197496Y-58761947D01*
X201245115Y-58809566D01*
X201340353Y-58857185D01*
X201530829Y-58857185D01*
X201626067Y-58904804D01*
X201673686Y-58952423D01*
X201721305Y-59047661D01*
X201721305Y-59238137D01*
X201673686Y-59333375D01*
X201626067Y-59380994D01*
X201530829Y-59428613D01*
X201340353Y-59428613D01*
X201245115Y-59380994D01*
X201197496Y-59333375D01*
X201149877Y-59238137D01*
X201149877Y-59047661D01*
X201197496Y-58952423D01*
X201245115Y-58904804D01*
X201340353Y-58857185D01*
%TO.C,SW4*%
X159410934Y-41905794D02*
X159268077Y-41953413D01*
X159029981Y-41953413D01*
X158934743Y-41905794D01*
X158887124Y-41858175D01*
X158839505Y-41762937D01*
X158839505Y-41667699D01*
X158887124Y-41572461D01*
X158934743Y-41524842D01*
X159029981Y-41477223D01*
X159220458Y-41429604D01*
X159315696Y-41381985D01*
X159363315Y-41334366D01*
X159410934Y-41239128D01*
X159410934Y-41143890D01*
X159363315Y-41048652D01*
X159315696Y-41001033D01*
X159220458Y-40953413D01*
X158982362Y-40953413D01*
X158839505Y-41001033D01*
X158506172Y-40953413D02*
X158268077Y-41953413D01*
X158077601Y-41239128D01*
X157887124Y-41953413D01*
X157649029Y-40953413D01*
X156839505Y-41286747D02*
X156839505Y-41953413D01*
X157077601Y-40905794D02*
X157315696Y-41620080D01*
X156696648Y-41620080D01*
%TO.C,SW3*%
X150292334Y-38705394D02*
X150149477Y-38753013D01*
X149911381Y-38753013D01*
X149816143Y-38705394D01*
X149768524Y-38657775D01*
X149720905Y-38562537D01*
X149720905Y-38467299D01*
X149768524Y-38372061D01*
X149816143Y-38324442D01*
X149911381Y-38276823D01*
X150101858Y-38229204D01*
X150197096Y-38181585D01*
X150244715Y-38133966D01*
X150292334Y-38038728D01*
X150292334Y-37943490D01*
X150244715Y-37848252D01*
X150197096Y-37800633D01*
X150101858Y-37753013D01*
X149863762Y-37753013D01*
X149720905Y-37800633D01*
X149387572Y-37753013D02*
X149149477Y-38753013D01*
X148959001Y-38038728D01*
X148768524Y-38753013D01*
X148530429Y-37753013D01*
X148244715Y-37753013D02*
X147625667Y-37753013D01*
X147959001Y-38133966D01*
X147816143Y-38133966D01*
X147720905Y-38181585D01*
X147673286Y-38229204D01*
X147625667Y-38324442D01*
X147625667Y-38562537D01*
X147673286Y-38657775D01*
X147720905Y-38705394D01*
X147816143Y-38753013D01*
X148101858Y-38753013D01*
X148197096Y-38705394D01*
X148244715Y-38657775D01*
%TO.C,SW9*%
X150292334Y-55799594D02*
X150149477Y-55847213D01*
X149911381Y-55847213D01*
X149816143Y-55799594D01*
X149768524Y-55751975D01*
X149720905Y-55656737D01*
X149720905Y-55561499D01*
X149768524Y-55466261D01*
X149816143Y-55418642D01*
X149911381Y-55371023D01*
X150101858Y-55323404D01*
X150197096Y-55275785D01*
X150244715Y-55228166D01*
X150292334Y-55132928D01*
X150292334Y-55037690D01*
X150244715Y-54942452D01*
X150197096Y-54894833D01*
X150101858Y-54847213D01*
X149863762Y-54847213D01*
X149720905Y-54894833D01*
X149387572Y-54847213D02*
X149149477Y-55847213D01*
X148959001Y-55132928D01*
X148768524Y-55847213D01*
X148530429Y-54847213D01*
X148101858Y-55847213D02*
X147911381Y-55847213D01*
X147816143Y-55799594D01*
X147768524Y-55751975D01*
X147673286Y-55609118D01*
X147625667Y-55418642D01*
X147625667Y-55037690D01*
X147673286Y-54942452D01*
X147720905Y-54894833D01*
X147816143Y-54847213D01*
X148006620Y-54847213D01*
X148101858Y-54894833D01*
X148149477Y-54942452D01*
X148197096Y-55037690D01*
X148197096Y-55275785D01*
X148149477Y-55371023D01*
X148101858Y-55418642D01*
X148006620Y-55466261D01*
X147816143Y-55466261D01*
X147720905Y-55418642D01*
X147673286Y-55371023D01*
X147625667Y-55275785D01*
%TO.C,SW12*%
X195878924Y-57501394D02*
X195736067Y-57549013D01*
X195497972Y-57549013D01*
X195402734Y-57501394D01*
X195355115Y-57453775D01*
X195307496Y-57358537D01*
X195307496Y-57263299D01*
X195355115Y-57168061D01*
X195402734Y-57120442D01*
X195497972Y-57072823D01*
X195688448Y-57025204D01*
X195783686Y-56977585D01*
X195831305Y-56929966D01*
X195878924Y-56834728D01*
X195878924Y-56739490D01*
X195831305Y-56644252D01*
X195783686Y-56596633D01*
X195688448Y-56549013D01*
X195450353Y-56549013D01*
X195307496Y-56596633D01*
X194974162Y-56549013D02*
X194736067Y-57549013D01*
X194545591Y-56834728D01*
X194355115Y-57549013D01*
X194117020Y-56549013D01*
X193212258Y-57549013D02*
X193783686Y-57549013D01*
X193497972Y-57549013D02*
X193497972Y-56549013D01*
X193593210Y-56691871D01*
X193688448Y-56787109D01*
X193783686Y-56834728D01*
X192831305Y-56644252D02*
X192783686Y-56596633D01*
X192688448Y-56549013D01*
X192450353Y-56549013D01*
X192355115Y-56596633D01*
X192307496Y-56644252D01*
X192259877Y-56739490D01*
X192259877Y-56834728D01*
X192307496Y-56977585D01*
X192878924Y-57549013D01*
X192259877Y-57549013D01*
%TO.C,SW11*%
X186760324Y-36901994D02*
X186617467Y-36949613D01*
X186379372Y-36949613D01*
X186284134Y-36901994D01*
X186236515Y-36854375D01*
X186188896Y-36759137D01*
X186188896Y-36663899D01*
X186236515Y-36568661D01*
X186284134Y-36521042D01*
X186379372Y-36473423D01*
X186569848Y-36425804D01*
X186665086Y-36378185D01*
X186712705Y-36330566D01*
X186760324Y-36235328D01*
X186760324Y-36140090D01*
X186712705Y-36044852D01*
X186665086Y-35997233D01*
X186569848Y-35949613D01*
X186331753Y-35949613D01*
X186188896Y-35997233D01*
X185855562Y-35949613D02*
X185617467Y-36949613D01*
X185426991Y-36235328D01*
X185236515Y-36949613D01*
X184998420Y-35949613D01*
X184093658Y-36949613D02*
X184665086Y-36949613D01*
X184379372Y-36949613D02*
X184379372Y-35949613D01*
X184474610Y-36092471D01*
X184569848Y-36187709D01*
X184665086Y-36235328D01*
X183141277Y-36949613D02*
X183712705Y-36949613D01*
X183426991Y-36949613D02*
X183426991Y-35949613D01*
X183522229Y-36092471D01*
X183617467Y-36187709D01*
X183712705Y-36235328D01*
%TO.C,SW6*%
X204318134Y-25141794D02*
X204175277Y-25189413D01*
X203937181Y-25189413D01*
X203841943Y-25141794D01*
X203794324Y-25094175D01*
X203746705Y-24998937D01*
X203746705Y-24903699D01*
X203794324Y-24808461D01*
X203841943Y-24760842D01*
X203937181Y-24713223D01*
X204127658Y-24665604D01*
X204222896Y-24617985D01*
X204270515Y-24570366D01*
X204318134Y-24475128D01*
X204318134Y-24379890D01*
X204270515Y-24284652D01*
X204222896Y-24237033D01*
X204127658Y-24189413D01*
X203889562Y-24189413D01*
X203746705Y-24237033D01*
X203413372Y-24189413D02*
X203175277Y-25189413D01*
X202984801Y-24475128D01*
X202794324Y-25189413D01*
X202556229Y-24189413D01*
X201746705Y-24189413D02*
X201937181Y-24189413D01*
X202032420Y-24237033D01*
X202080039Y-24284652D01*
X202175277Y-24427509D01*
X202222896Y-24617985D01*
X202222896Y-24998937D01*
X202175277Y-25094175D01*
X202127658Y-25141794D01*
X202032420Y-25189413D01*
X201841943Y-25189413D01*
X201746705Y-25141794D01*
X201699086Y-25094175D01*
X201651467Y-24998937D01*
X201651467Y-24760842D01*
X201699086Y-24665604D01*
X201746705Y-24617985D01*
X201841943Y-24570366D01*
X202032420Y-24570366D01*
X202127658Y-24617985D01*
X202175277Y-24665604D01*
X202222896Y-24760842D01*
%TO.C,SW5*%
X177419534Y-35047794D02*
X177276677Y-35095413D01*
X177038581Y-35095413D01*
X176943343Y-35047794D01*
X176895724Y-35000175D01*
X176848105Y-34904937D01*
X176848105Y-34809699D01*
X176895724Y-34714461D01*
X176943343Y-34666842D01*
X177038581Y-34619223D01*
X177229058Y-34571604D01*
X177324296Y-34523985D01*
X177371915Y-34476366D01*
X177419534Y-34381128D01*
X177419534Y-34285890D01*
X177371915Y-34190652D01*
X177324296Y-34143033D01*
X177229058Y-34095413D01*
X176990962Y-34095413D01*
X176848105Y-34143033D01*
X176514772Y-34095413D02*
X176276677Y-35095413D01*
X176086201Y-34381128D01*
X175895724Y-35095413D01*
X175657629Y-34095413D01*
X174800486Y-34095413D02*
X175276677Y-34095413D01*
X175324296Y-34571604D01*
X175276677Y-34523985D01*
X175181439Y-34476366D01*
X174943343Y-34476366D01*
X174848105Y-34523985D01*
X174800486Y-34571604D01*
X174752867Y-34666842D01*
X174752867Y-34904937D01*
X174800486Y-35000175D01*
X174848105Y-35047794D01*
X174943343Y-35095413D01*
X175181439Y-35095413D01*
X175276677Y-35047794D01*
X175324296Y-35000175D01*
%TO.C,RSW1*%
X244204181Y-84168452D02*
X243727991Y-83835118D01*
X244204181Y-83597023D02*
X243204181Y-83597023D01*
X243204181Y-83977975D01*
X243251801Y-84073213D01*
X243299420Y-84120833D01*
X243394658Y-84168452D01*
X243537515Y-84168452D01*
X243632753Y-84120833D01*
X243680372Y-84073213D01*
X243727991Y-83977975D01*
X243727991Y-83597023D01*
X243680372Y-84597023D02*
X243680372Y-84930356D01*
X244204181Y-85073213D02*
X244204181Y-84597023D01*
X243204181Y-84597023D01*
X243204181Y-85073213D01*
X244156562Y-85454166D02*
X244204181Y-85597023D01*
X244204181Y-85835118D01*
X244156562Y-85930356D01*
X244108943Y-85977975D01*
X244013705Y-86025594D01*
X243918467Y-86025594D01*
X243823229Y-85977975D01*
X243775610Y-85930356D01*
X243727991Y-85835118D01*
X243680372Y-85644642D01*
X243632753Y-85549404D01*
X243585134Y-85501785D01*
X243489896Y-85454166D01*
X243394658Y-85454166D01*
X243299420Y-85501785D01*
X243251801Y-85549404D01*
X243204181Y-85644642D01*
X243204181Y-85882737D01*
X243251801Y-86025594D01*
X243680372Y-86454166D02*
X243680372Y-86787499D01*
X244204181Y-86930356D02*
X244204181Y-86454166D01*
X243204181Y-86454166D01*
X243204181Y-86930356D01*
X243204181Y-87216071D02*
X243204181Y-87787499D01*
X244204181Y-87501785D02*
X243204181Y-87501785D01*
%TO.C,SW10*%
X168751724Y-43785394D02*
X168608867Y-43833013D01*
X168370772Y-43833013D01*
X168275534Y-43785394D01*
X168227915Y-43737775D01*
X168180296Y-43642537D01*
X168180296Y-43547299D01*
X168227915Y-43452061D01*
X168275534Y-43404442D01*
X168370772Y-43356823D01*
X168561248Y-43309204D01*
X168656486Y-43261585D01*
X168704105Y-43213966D01*
X168751724Y-43118728D01*
X168751724Y-43023490D01*
X168704105Y-42928252D01*
X168656486Y-42880633D01*
X168561248Y-42833013D01*
X168323153Y-42833013D01*
X168180296Y-42880633D01*
X167846962Y-42833013D02*
X167608867Y-43833013D01*
X167418391Y-43118728D01*
X167227915Y-43833013D01*
X166989820Y-42833013D01*
X166085058Y-43833013D02*
X166656486Y-43833013D01*
X166370772Y-43833013D02*
X166370772Y-42833013D01*
X166466010Y-42975871D01*
X166561248Y-43071109D01*
X166656486Y-43118728D01*
X165466010Y-42833013D02*
X165370772Y-42833013D01*
X165275534Y-42880633D01*
X165227915Y-42928252D01*
X165180296Y-43023490D01*
X165132677Y-43213966D01*
X165132677Y-43452061D01*
X165180296Y-43642537D01*
X165227915Y-43737775D01*
X165275534Y-43785394D01*
X165370772Y-43833013D01*
X165466010Y-43833013D01*
X165561248Y-43785394D01*
X165608867Y-43737775D01*
X165656486Y-43642537D01*
X165704105Y-43452061D01*
X165704105Y-43213966D01*
X165656486Y-43023490D01*
X165608867Y-42928252D01*
X165561248Y-42880633D01*
X165466010Y-42833013D01*
D12*
%TO.C,REF\u002A\u002A*%
X189617815Y-47465933D02*
X190617815Y-47465933D01*
X189665434Y-47465933D02*
X189617815Y-47561171D01*
X189617815Y-47751647D01*
X189665434Y-47846885D01*
X189713053Y-47894504D01*
X189808291Y-47942123D01*
X190094005Y-47942123D01*
X190189243Y-47894504D01*
X190236862Y-47846885D01*
X190284481Y-47751647D01*
X190284481Y-47561171D01*
X190236862Y-47465933D01*
X189617815Y-48799266D02*
X190284481Y-48799266D01*
X189617815Y-48370694D02*
X190141624Y-48370694D01*
X190236862Y-48418313D01*
X190284481Y-48513552D01*
X190284481Y-48656409D01*
X190236862Y-48751647D01*
X190189243Y-48799266D01*
X190236862Y-49704028D02*
X190284481Y-49608790D01*
X190284481Y-49418313D01*
X190236862Y-49323075D01*
X190189243Y-49275456D01*
X190094005Y-49227837D01*
X189808291Y-49227837D01*
X189713053Y-49275456D01*
X189665434Y-49323075D01*
X189617815Y-49418313D01*
X189617815Y-49608790D01*
X189665434Y-49704028D01*
X190284481Y-50132599D02*
X189284481Y-50132599D01*
X189903529Y-50227837D02*
X190284481Y-50513552D01*
X189617815Y-50513552D02*
X189998767Y-50132599D01*
X189554315Y-33511933D02*
X189554315Y-33892885D01*
X189220981Y-33654790D02*
X190078124Y-33654790D01*
X190173362Y-33702409D01*
X190220981Y-33797647D01*
X190220981Y-33892885D01*
X190173362Y-34607171D02*
X190220981Y-34511933D01*
X190220981Y-34321456D01*
X190173362Y-34226218D01*
X190078124Y-34178599D01*
X189697172Y-34178599D01*
X189601934Y-34226218D01*
X189554315Y-34321456D01*
X189554315Y-34511933D01*
X189601934Y-34607171D01*
X189697172Y-34654790D01*
X189792410Y-34654790D01*
X189887648Y-34178599D01*
X189554315Y-35083361D02*
X190220981Y-35083361D01*
X189649553Y-35083361D02*
X189601934Y-35130980D01*
X189554315Y-35226218D01*
X189554315Y-35369075D01*
X189601934Y-35464313D01*
X189697172Y-35511933D01*
X190220981Y-35511933D01*
X189554315Y-35845266D02*
X189554315Y-36226218D01*
X189220981Y-35988123D02*
X190078124Y-35988123D01*
X190173362Y-36035742D01*
X190220981Y-36130980D01*
X190220981Y-36226218D01*
X190220981Y-36559552D02*
X189554315Y-36559552D01*
X189220981Y-36559552D02*
X189268601Y-36511933D01*
X189316220Y-36559552D01*
X189268601Y-36607171D01*
X189220981Y-36559552D01*
X189316220Y-36559552D01*
X189554315Y-37035742D02*
X190220981Y-37035742D01*
X189649553Y-37035742D02*
X189601934Y-37083361D01*
X189554315Y-37178599D01*
X189554315Y-37321456D01*
X189601934Y-37416694D01*
X189697172Y-37464313D01*
X190220981Y-37464313D01*
X189554315Y-38369075D02*
X190363839Y-38369075D01*
X190459077Y-38321456D01*
X190506696Y-38273837D01*
X190554315Y-38178599D01*
X190554315Y-38035742D01*
X190506696Y-37940504D01*
X190173362Y-38369075D02*
X190220981Y-38273837D01*
X190220981Y-38083361D01*
X190173362Y-37988123D01*
X190125743Y-37940504D01*
X190030505Y-37892885D01*
X189744791Y-37892885D01*
X189649553Y-37940504D01*
X189601934Y-37988123D01*
X189554315Y-38083361D01*
X189554315Y-38273837D01*
X189601934Y-38369075D01*
D11*
%TO.C,SW17_r1*%
X91799990Y-53897161D02*
X91657133Y-53944780D01*
X91419038Y-53944780D01*
X91323800Y-53897161D01*
X91276180Y-53849542D01*
X91228561Y-53754304D01*
X91228561Y-53659066D01*
X91276180Y-53563828D01*
X91323800Y-53516209D01*
X91419038Y-53468590D01*
X91609514Y-53420971D01*
X91704752Y-53373352D01*
X91752371Y-53325733D01*
X91799990Y-53230495D01*
X91799990Y-53135257D01*
X91752371Y-53040019D01*
X91704752Y-52992400D01*
X91609514Y-52944780D01*
X91371419Y-52944780D01*
X91228561Y-52992400D01*
X90895228Y-52944780D02*
X90657133Y-53944780D01*
X90466657Y-53230495D01*
X90276180Y-53944780D01*
X90038085Y-52944780D01*
X89133323Y-53944780D02*
X89704752Y-53944780D01*
X89419038Y-53944780D02*
X89419038Y-52944780D01*
X89514276Y-53087638D01*
X89609514Y-53182876D01*
X89704752Y-53230495D01*
X88799990Y-52944780D02*
X88133323Y-52944780D01*
X88561895Y-53944780D01*
X87990466Y-54040019D02*
X87228561Y-54040019D01*
X86990466Y-53944780D02*
X86990466Y-53278114D01*
X86990466Y-53468590D02*
X86942847Y-53373352D01*
X86895228Y-53325733D01*
X86799990Y-53278114D01*
X86704752Y-53278114D01*
X85847609Y-53944780D02*
X86419038Y-53944780D01*
X86133323Y-53944780D02*
X86133323Y-52944780D01*
X86228561Y-53087638D01*
X86323800Y-53182876D01*
X86419038Y-53230495D01*
%TO.C,SW11_r1*%
X82884590Y-52144561D02*
X82741733Y-52192180D01*
X82503638Y-52192180D01*
X82408400Y-52144561D01*
X82360780Y-52096942D01*
X82313161Y-52001704D01*
X82313161Y-51906466D01*
X82360780Y-51811228D01*
X82408400Y-51763609D01*
X82503638Y-51715990D01*
X82694114Y-51668371D01*
X82789352Y-51620752D01*
X82836971Y-51573133D01*
X82884590Y-51477895D01*
X82884590Y-51382657D01*
X82836971Y-51287419D01*
X82789352Y-51239800D01*
X82694114Y-51192180D01*
X82456019Y-51192180D01*
X82313161Y-51239800D01*
X81979828Y-51192180D02*
X81741733Y-52192180D01*
X81551257Y-51477895D01*
X81360780Y-52192180D01*
X81122685Y-51192180D01*
X80217923Y-52192180D02*
X80789352Y-52192180D01*
X80503638Y-52192180D02*
X80503638Y-51192180D01*
X80598876Y-51335038D01*
X80694114Y-51430276D01*
X80789352Y-51477895D01*
X79265542Y-52192180D02*
X79836971Y-52192180D01*
X79551257Y-52192180D02*
X79551257Y-51192180D01*
X79646495Y-51335038D01*
X79741733Y-51430276D01*
X79836971Y-51477895D01*
X79075066Y-52287419D02*
X78313161Y-52287419D01*
X78075066Y-52192180D02*
X78075066Y-51525514D01*
X78075066Y-51715990D02*
X78027447Y-51620752D01*
X77979828Y-51573133D01*
X77884590Y-51525514D01*
X77789352Y-51525514D01*
X76932209Y-52192180D02*
X77503638Y-52192180D01*
X77217923Y-52192180D02*
X77217923Y-51192180D01*
X77313161Y-51335038D01*
X77408400Y-51430276D01*
X77503638Y-51477895D01*
%TO.C,SW15_r1*%
X127817190Y-72743961D02*
X127674333Y-72791580D01*
X127436238Y-72791580D01*
X127341000Y-72743961D01*
X127293380Y-72696342D01*
X127245761Y-72601104D01*
X127245761Y-72505866D01*
X127293380Y-72410628D01*
X127341000Y-72363009D01*
X127436238Y-72315390D01*
X127626714Y-72267771D01*
X127721952Y-72220152D01*
X127769571Y-72172533D01*
X127817190Y-72077295D01*
X127817190Y-71982057D01*
X127769571Y-71886819D01*
X127721952Y-71839200D01*
X127626714Y-71791580D01*
X127388619Y-71791580D01*
X127245761Y-71839200D01*
X126912428Y-71791580D02*
X126674333Y-72791580D01*
X126483857Y-72077295D01*
X126293380Y-72791580D01*
X126055285Y-71791580D01*
X125150523Y-72791580D02*
X125721952Y-72791580D01*
X125436238Y-72791580D02*
X125436238Y-71791580D01*
X125531476Y-71934438D01*
X125626714Y-72029676D01*
X125721952Y-72077295D01*
X124245761Y-71791580D02*
X124721952Y-71791580D01*
X124769571Y-72267771D01*
X124721952Y-72220152D01*
X124626714Y-72172533D01*
X124388619Y-72172533D01*
X124293380Y-72220152D01*
X124245761Y-72267771D01*
X124198142Y-72363009D01*
X124198142Y-72601104D01*
X124245761Y-72696342D01*
X124293380Y-72743961D01*
X124388619Y-72791580D01*
X124626714Y-72791580D01*
X124721952Y-72743961D01*
X124769571Y-72696342D01*
X124007666Y-72886819D02*
X123245761Y-72886819D01*
X123007666Y-72791580D02*
X123007666Y-72124914D01*
X123007666Y-72315390D02*
X122960047Y-72220152D01*
X122912428Y-72172533D01*
X122817190Y-72124914D01*
X122721952Y-72124914D01*
X121864809Y-72791580D02*
X122436238Y-72791580D01*
X122150523Y-72791580D02*
X122150523Y-71791580D01*
X122245761Y-71934438D01*
X122341000Y-72029676D01*
X122436238Y-72077295D01*
%TO.C,SW18_r1*%
X64875990Y-74445761D02*
X64733133Y-74493380D01*
X64495038Y-74493380D01*
X64399800Y-74445761D01*
X64352180Y-74398142D01*
X64304561Y-74302904D01*
X64304561Y-74207666D01*
X64352180Y-74112428D01*
X64399800Y-74064809D01*
X64495038Y-74017190D01*
X64685514Y-73969571D01*
X64780752Y-73921952D01*
X64828371Y-73874333D01*
X64875990Y-73779095D01*
X64875990Y-73683857D01*
X64828371Y-73588619D01*
X64780752Y-73541000D01*
X64685514Y-73493380D01*
X64447419Y-73493380D01*
X64304561Y-73541000D01*
X63971228Y-73493380D02*
X63733133Y-74493380D01*
X63542657Y-73779095D01*
X63352180Y-74493380D01*
X63114085Y-73493380D01*
X62209323Y-74493380D02*
X62780752Y-74493380D01*
X62495038Y-74493380D02*
X62495038Y-73493380D01*
X62590276Y-73636238D01*
X62685514Y-73731476D01*
X62780752Y-73779095D01*
X61637895Y-73921952D02*
X61733133Y-73874333D01*
X61780752Y-73826714D01*
X61828371Y-73731476D01*
X61828371Y-73683857D01*
X61780752Y-73588619D01*
X61733133Y-73541000D01*
X61637895Y-73493380D01*
X61447419Y-73493380D01*
X61352180Y-73541000D01*
X61304561Y-73588619D01*
X61256942Y-73683857D01*
X61256942Y-73731476D01*
X61304561Y-73826714D01*
X61352180Y-73874333D01*
X61447419Y-73921952D01*
X61637895Y-73921952D01*
X61733133Y-73969571D01*
X61780752Y-74017190D01*
X61828371Y-74112428D01*
X61828371Y-74302904D01*
X61780752Y-74398142D01*
X61733133Y-74445761D01*
X61637895Y-74493380D01*
X61447419Y-74493380D01*
X61352180Y-74445761D01*
X61304561Y-74398142D01*
X61256942Y-74302904D01*
X61256942Y-74112428D01*
X61304561Y-74017190D01*
X61352180Y-73969571D01*
X61447419Y-73921952D01*
X61066466Y-74588619D02*
X60304561Y-74588619D01*
X60066466Y-74493380D02*
X60066466Y-73826714D01*
X60066466Y-74017190D02*
X60018847Y-73921952D01*
X59971228Y-73874333D01*
X59875990Y-73826714D01*
X59780752Y-73826714D01*
X58923609Y-74493380D02*
X59495038Y-74493380D01*
X59209323Y-74493380D02*
X59209323Y-73493380D01*
X59304561Y-73636238D01*
X59399800Y-73731476D01*
X59495038Y-73779095D01*
%TO.C,SW6_r1*%
X73289800Y-25144361D02*
X73146942Y-25191980D01*
X72908847Y-25191980D01*
X72813609Y-25144361D01*
X72765990Y-25096742D01*
X72718371Y-25001504D01*
X72718371Y-24906266D01*
X72765990Y-24811028D01*
X72813609Y-24763409D01*
X72908847Y-24715790D01*
X73099323Y-24668171D01*
X73194561Y-24620552D01*
X73242180Y-24572933D01*
X73289800Y-24477695D01*
X73289800Y-24382457D01*
X73242180Y-24287219D01*
X73194561Y-24239600D01*
X73099323Y-24191980D01*
X72861228Y-24191980D01*
X72718371Y-24239600D01*
X72385038Y-24191980D02*
X72146942Y-25191980D01*
X71956466Y-24477695D01*
X71765990Y-25191980D01*
X71527895Y-24191980D01*
X70718371Y-24191980D02*
X70908847Y-24191980D01*
X71004085Y-24239600D01*
X71051704Y-24287219D01*
X71146942Y-24430076D01*
X71194561Y-24620552D01*
X71194561Y-25001504D01*
X71146942Y-25096742D01*
X71099323Y-25144361D01*
X71004085Y-25191980D01*
X70813609Y-25191980D01*
X70718371Y-25144361D01*
X70670752Y-25096742D01*
X70623133Y-25001504D01*
X70623133Y-24763409D01*
X70670752Y-24668171D01*
X70718371Y-24620552D01*
X70813609Y-24572933D01*
X71004085Y-24572933D01*
X71099323Y-24620552D01*
X71146942Y-24668171D01*
X71194561Y-24763409D01*
X70432657Y-25287219D02*
X69670752Y-25287219D01*
X69432657Y-25191980D02*
X69432657Y-24525314D01*
X69432657Y-24715790D02*
X69385038Y-24620552D01*
X69337419Y-24572933D01*
X69242180Y-24525314D01*
X69146942Y-24525314D01*
X68289800Y-25191980D02*
X68861228Y-25191980D01*
X68575514Y-25191980D02*
X68575514Y-24191980D01*
X68670752Y-24334838D01*
X68765990Y-24430076D01*
X68861228Y-24477695D01*
%TO.C,SW5_r1*%
X91323800Y-19886561D02*
X91180942Y-19934180D01*
X90942847Y-19934180D01*
X90847609Y-19886561D01*
X90799990Y-19838942D01*
X90752371Y-19743704D01*
X90752371Y-19648466D01*
X90799990Y-19553228D01*
X90847609Y-19505609D01*
X90942847Y-19457990D01*
X91133323Y-19410371D01*
X91228561Y-19362752D01*
X91276180Y-19315133D01*
X91323800Y-19219895D01*
X91323800Y-19124657D01*
X91276180Y-19029419D01*
X91228561Y-18981800D01*
X91133323Y-18934180D01*
X90895228Y-18934180D01*
X90752371Y-18981800D01*
X90419038Y-18934180D02*
X90180942Y-19934180D01*
X89990466Y-19219895D01*
X89799990Y-19934180D01*
X89561895Y-18934180D01*
X88704752Y-18934180D02*
X89180942Y-18934180D01*
X89228561Y-19410371D01*
X89180942Y-19362752D01*
X89085704Y-19315133D01*
X88847609Y-19315133D01*
X88752371Y-19362752D01*
X88704752Y-19410371D01*
X88657133Y-19505609D01*
X88657133Y-19743704D01*
X88704752Y-19838942D01*
X88752371Y-19886561D01*
X88847609Y-19934180D01*
X89085704Y-19934180D01*
X89180942Y-19886561D01*
X89228561Y-19838942D01*
X88466657Y-20029419D02*
X87704752Y-20029419D01*
X87466657Y-19934180D02*
X87466657Y-19267514D01*
X87466657Y-19457990D02*
X87419038Y-19362752D01*
X87371419Y-19315133D01*
X87276180Y-19267514D01*
X87180942Y-19267514D01*
X86323800Y-19934180D02*
X86895228Y-19934180D01*
X86609514Y-19934180D02*
X86609514Y-18934180D01*
X86704752Y-19077038D01*
X86799990Y-19172276D01*
X86895228Y-19219895D01*
%TO.C,SW16_r1*%
X109833990Y-60780561D02*
X109691133Y-60828180D01*
X109453038Y-60828180D01*
X109357800Y-60780561D01*
X109310180Y-60732942D01*
X109262561Y-60637704D01*
X109262561Y-60542466D01*
X109310180Y-60447228D01*
X109357800Y-60399609D01*
X109453038Y-60351990D01*
X109643514Y-60304371D01*
X109738752Y-60256752D01*
X109786371Y-60209133D01*
X109833990Y-60113895D01*
X109833990Y-60018657D01*
X109786371Y-59923419D01*
X109738752Y-59875800D01*
X109643514Y-59828180D01*
X109405419Y-59828180D01*
X109262561Y-59875800D01*
X108929228Y-59828180D02*
X108691133Y-60828180D01*
X108500657Y-60113895D01*
X108310180Y-60828180D01*
X108072085Y-59828180D01*
X107167323Y-60828180D02*
X107738752Y-60828180D01*
X107453038Y-60828180D02*
X107453038Y-59828180D01*
X107548276Y-59971038D01*
X107643514Y-60066276D01*
X107738752Y-60113895D01*
X106310180Y-59828180D02*
X106500657Y-59828180D01*
X106595895Y-59875800D01*
X106643514Y-59923419D01*
X106738752Y-60066276D01*
X106786371Y-60256752D01*
X106786371Y-60637704D01*
X106738752Y-60732942D01*
X106691133Y-60780561D01*
X106595895Y-60828180D01*
X106405419Y-60828180D01*
X106310180Y-60780561D01*
X106262561Y-60732942D01*
X106214942Y-60637704D01*
X106214942Y-60399609D01*
X106262561Y-60304371D01*
X106310180Y-60256752D01*
X106405419Y-60209133D01*
X106595895Y-60209133D01*
X106691133Y-60256752D01*
X106738752Y-60304371D01*
X106786371Y-60399609D01*
X106024466Y-60923419D02*
X105262561Y-60923419D01*
X105024466Y-60828180D02*
X105024466Y-60161514D01*
X105024466Y-60351990D02*
X104976847Y-60256752D01*
X104929228Y-60209133D01*
X104833990Y-60161514D01*
X104738752Y-60161514D01*
X103881609Y-60828180D02*
X104453038Y-60828180D01*
X104167323Y-60828180D02*
X104167323Y-59828180D01*
X104262561Y-59971038D01*
X104357800Y-60066276D01*
X104453038Y-60113895D01*
%TO.C,SW4_r1*%
X109332400Y-26719161D02*
X109189542Y-26766780D01*
X108951447Y-26766780D01*
X108856209Y-26719161D01*
X108808590Y-26671542D01*
X108760971Y-26576304D01*
X108760971Y-26481066D01*
X108808590Y-26385828D01*
X108856209Y-26338209D01*
X108951447Y-26290590D01*
X109141923Y-26242971D01*
X109237161Y-26195352D01*
X109284780Y-26147733D01*
X109332400Y-26052495D01*
X109332400Y-25957257D01*
X109284780Y-25862019D01*
X109237161Y-25814400D01*
X109141923Y-25766780D01*
X108903828Y-25766780D01*
X108760971Y-25814400D01*
X108427638Y-25766780D02*
X108189542Y-26766780D01*
X107999066Y-26052495D01*
X107808590Y-26766780D01*
X107570495Y-25766780D01*
X106760971Y-26100114D02*
X106760971Y-26766780D01*
X106999066Y-25719161D02*
X107237161Y-26433447D01*
X106618114Y-26433447D01*
X106475257Y-26862019D02*
X105713352Y-26862019D01*
X105475257Y-26766780D02*
X105475257Y-26100114D01*
X105475257Y-26290590D02*
X105427638Y-26195352D01*
X105380019Y-26147733D01*
X105284780Y-26100114D01*
X105189542Y-26100114D01*
X104332400Y-26766780D02*
X104903828Y-26766780D01*
X104618114Y-26766780D02*
X104618114Y-25766780D01*
X104713352Y-25909638D01*
X104808590Y-26004876D01*
X104903828Y-26052495D01*
%TO.C,SW13_r1*%
X55757390Y-44727761D02*
X55614533Y-44775380D01*
X55376438Y-44775380D01*
X55281200Y-44727761D01*
X55233580Y-44680142D01*
X55185961Y-44584904D01*
X55185961Y-44489666D01*
X55233580Y-44394428D01*
X55281200Y-44346809D01*
X55376438Y-44299190D01*
X55566914Y-44251571D01*
X55662152Y-44203952D01*
X55709771Y-44156333D01*
X55757390Y-44061095D01*
X55757390Y-43965857D01*
X55709771Y-43870619D01*
X55662152Y-43823000D01*
X55566914Y-43775380D01*
X55328819Y-43775380D01*
X55185961Y-43823000D01*
X54852628Y-43775380D02*
X54614533Y-44775380D01*
X54424057Y-44061095D01*
X54233580Y-44775380D01*
X53995485Y-43775380D01*
X53090723Y-44775380D02*
X53662152Y-44775380D01*
X53376438Y-44775380D02*
X53376438Y-43775380D01*
X53471676Y-43918238D01*
X53566914Y-44013476D01*
X53662152Y-44061095D01*
X52757390Y-43775380D02*
X52138342Y-43775380D01*
X52471676Y-44156333D01*
X52328819Y-44156333D01*
X52233580Y-44203952D01*
X52185961Y-44251571D01*
X52138342Y-44346809D01*
X52138342Y-44584904D01*
X52185961Y-44680142D01*
X52233580Y-44727761D01*
X52328819Y-44775380D01*
X52614533Y-44775380D01*
X52709771Y-44727761D01*
X52757390Y-44680142D01*
X51947866Y-44870619D02*
X51185961Y-44870619D01*
X50947866Y-44775380D02*
X50947866Y-44108714D01*
X50947866Y-44299190D02*
X50900247Y-44203952D01*
X50852628Y-44156333D01*
X50757390Y-44108714D01*
X50662152Y-44108714D01*
X49805009Y-44775380D02*
X50376438Y-44775380D01*
X50090723Y-44775380D02*
X50090723Y-43775380D01*
X50185961Y-43918238D01*
X50281200Y-44013476D01*
X50376438Y-44061095D01*
%TO.C,SW12_r1*%
X64875990Y-57453161D02*
X64733133Y-57500780D01*
X64495038Y-57500780D01*
X64399800Y-57453161D01*
X64352180Y-57405542D01*
X64304561Y-57310304D01*
X64304561Y-57215066D01*
X64352180Y-57119828D01*
X64399800Y-57072209D01*
X64495038Y-57024590D01*
X64685514Y-56976971D01*
X64780752Y-56929352D01*
X64828371Y-56881733D01*
X64875990Y-56786495D01*
X64875990Y-56691257D01*
X64828371Y-56596019D01*
X64780752Y-56548400D01*
X64685514Y-56500780D01*
X64447419Y-56500780D01*
X64304561Y-56548400D01*
X63971228Y-56500780D02*
X63733133Y-57500780D01*
X63542657Y-56786495D01*
X63352180Y-57500780D01*
X63114085Y-56500780D01*
X62209323Y-57500780D02*
X62780752Y-57500780D01*
X62495038Y-57500780D02*
X62495038Y-56500780D01*
X62590276Y-56643638D01*
X62685514Y-56738876D01*
X62780752Y-56786495D01*
X61828371Y-56596019D02*
X61780752Y-56548400D01*
X61685514Y-56500780D01*
X61447419Y-56500780D01*
X61352180Y-56548400D01*
X61304561Y-56596019D01*
X61256942Y-56691257D01*
X61256942Y-56786495D01*
X61304561Y-56929352D01*
X61875990Y-57500780D01*
X61256942Y-57500780D01*
X61066466Y-57596019D02*
X60304561Y-57596019D01*
X60066466Y-57500780D02*
X60066466Y-56834114D01*
X60066466Y-57024590D02*
X60018847Y-56929352D01*
X59971228Y-56881733D01*
X59875990Y-56834114D01*
X59780752Y-56834114D01*
X58923609Y-57500780D02*
X59495038Y-57500780D01*
X59209323Y-57500780D02*
X59209323Y-56500780D01*
X59304561Y-56643638D01*
X59399800Y-56738876D01*
X59495038Y-56786495D01*
%TO.C,SW3_r1*%
X127341000Y-38758761D02*
X127198142Y-38806380D01*
X126960047Y-38806380D01*
X126864809Y-38758761D01*
X126817190Y-38711142D01*
X126769571Y-38615904D01*
X126769571Y-38520666D01*
X126817190Y-38425428D01*
X126864809Y-38377809D01*
X126960047Y-38330190D01*
X127150523Y-38282571D01*
X127245761Y-38234952D01*
X127293380Y-38187333D01*
X127341000Y-38092095D01*
X127341000Y-37996857D01*
X127293380Y-37901619D01*
X127245761Y-37854000D01*
X127150523Y-37806380D01*
X126912428Y-37806380D01*
X126769571Y-37854000D01*
X126436238Y-37806380D02*
X126198142Y-38806380D01*
X126007666Y-38092095D01*
X125817190Y-38806380D01*
X125579095Y-37806380D01*
X125293380Y-37806380D02*
X124674333Y-37806380D01*
X125007666Y-38187333D01*
X124864809Y-38187333D01*
X124769571Y-38234952D01*
X124721952Y-38282571D01*
X124674333Y-38377809D01*
X124674333Y-38615904D01*
X124721952Y-38711142D01*
X124769571Y-38758761D01*
X124864809Y-38806380D01*
X125150523Y-38806380D01*
X125245761Y-38758761D01*
X125293380Y-38711142D01*
X124483857Y-38901619D02*
X123721952Y-38901619D01*
X123483857Y-38806380D02*
X123483857Y-38139714D01*
X123483857Y-38330190D02*
X123436238Y-38234952D01*
X123388619Y-38187333D01*
X123293380Y-38139714D01*
X123198142Y-38139714D01*
X122341000Y-38806380D02*
X122912428Y-38806380D01*
X122626714Y-38806380D02*
X122626714Y-37806380D01*
X122721952Y-37949238D01*
X122817190Y-38044476D01*
X122912428Y-38092095D01*
%TO.C,SW21_r1*%
X48435600Y-97285480D02*
X48309935Y-97368450D01*
X48079953Y-97430074D01*
X47975635Y-97408727D01*
X47917314Y-97375055D01*
X47846668Y-97295387D01*
X47822019Y-97203394D01*
X47843366Y-97099076D01*
X47877037Y-97040755D01*
X47956706Y-96970109D01*
X48128367Y-96874814D01*
X48208035Y-96804168D01*
X48241707Y-96745847D01*
X48263054Y-96641529D01*
X48238404Y-96549536D01*
X48167758Y-96469868D01*
X48109437Y-96436196D01*
X48005120Y-96414849D01*
X47775137Y-96476473D01*
X47649473Y-96559443D01*
X47315173Y-96599720D02*
X47344009Y-97627269D01*
X46975153Y-96986621D01*
X46976038Y-97725867D01*
X46487236Y-96821565D01*
X46189910Y-96999831D02*
X46131589Y-96966159D01*
X46027272Y-96944812D01*
X45797289Y-97006436D01*
X45717621Y-97077081D01*
X45683949Y-97135403D01*
X45662602Y-97239720D01*
X45687252Y-97331713D01*
X45770222Y-97457378D01*
X46470076Y-97861439D01*
X45872122Y-98021660D01*
X44952193Y-98268155D02*
X45504151Y-98120258D01*
X45228172Y-98194206D02*
X44969353Y-97228280D01*
X45098320Y-97341620D01*
X45214962Y-97408964D01*
X45319280Y-97430311D01*
X44792857Y-98409446D02*
X44056913Y-98606642D01*
X43802281Y-98576273D02*
X43629735Y-97932322D01*
X43679034Y-98116308D02*
X43608388Y-98036640D01*
X43550067Y-98002968D01*
X43445749Y-97981621D01*
X43353756Y-98006270D01*
X42698366Y-98872066D02*
X43250324Y-98724169D01*
X42974345Y-98798117D02*
X42715526Y-97832192D01*
X42844493Y-97945532D01*
X42961135Y-98012875D01*
X43065453Y-98034222D01*
%TO.C,SW9_r1*%
X127341000Y-55751361D02*
X127198142Y-55798980D01*
X126960047Y-55798980D01*
X126864809Y-55751361D01*
X126817190Y-55703742D01*
X126769571Y-55608504D01*
X126769571Y-55513266D01*
X126817190Y-55418028D01*
X126864809Y-55370409D01*
X126960047Y-55322790D01*
X127150523Y-55275171D01*
X127245761Y-55227552D01*
X127293380Y-55179933D01*
X127341000Y-55084695D01*
X127341000Y-54989457D01*
X127293380Y-54894219D01*
X127245761Y-54846600D01*
X127150523Y-54798980D01*
X126912428Y-54798980D01*
X126769571Y-54846600D01*
X126436238Y-54798980D02*
X126198142Y-55798980D01*
X126007666Y-55084695D01*
X125817190Y-55798980D01*
X125579095Y-54798980D01*
X125150523Y-55798980D02*
X124960047Y-55798980D01*
X124864809Y-55751361D01*
X124817190Y-55703742D01*
X124721952Y-55560885D01*
X124674333Y-55370409D01*
X124674333Y-54989457D01*
X124721952Y-54894219D01*
X124769571Y-54846600D01*
X124864809Y-54798980D01*
X125055285Y-54798980D01*
X125150523Y-54846600D01*
X125198142Y-54894219D01*
X125245761Y-54989457D01*
X125245761Y-55227552D01*
X125198142Y-55322790D01*
X125150523Y-55370409D01*
X125055285Y-55418028D01*
X124864809Y-55418028D01*
X124769571Y-55370409D01*
X124721952Y-55322790D01*
X124674333Y-55227552D01*
X124483857Y-55894219D02*
X123721952Y-55894219D01*
X123483857Y-55798980D02*
X123483857Y-55132314D01*
X123483857Y-55322790D02*
X123436238Y-55227552D01*
X123388619Y-55179933D01*
X123293380Y-55132314D01*
X123198142Y-55132314D01*
X122341000Y-55798980D02*
X122912428Y-55798980D01*
X122626714Y-55798980D02*
X122626714Y-54798980D01*
X122721952Y-54941838D01*
X122817190Y-55037076D01*
X122912428Y-55084695D01*
%TO.C,SW20_r1*%
X66603190Y-94435561D02*
X66460333Y-94483180D01*
X66222238Y-94483180D01*
X66127000Y-94435561D01*
X66079380Y-94387942D01*
X66031761Y-94292704D01*
X66031761Y-94197466D01*
X66079380Y-94102228D01*
X66127000Y-94054609D01*
X66222238Y-94006990D01*
X66412714Y-93959371D01*
X66507952Y-93911752D01*
X66555571Y-93864133D01*
X66603190Y-93768895D01*
X66603190Y-93673657D01*
X66555571Y-93578419D01*
X66507952Y-93530800D01*
X66412714Y-93483180D01*
X66174619Y-93483180D01*
X66031761Y-93530800D01*
X65698428Y-93483180D02*
X65460333Y-94483180D01*
X65269857Y-93768895D01*
X65079380Y-94483180D01*
X64841285Y-93483180D01*
X64507952Y-93578419D02*
X64460333Y-93530800D01*
X64365095Y-93483180D01*
X64127000Y-93483180D01*
X64031761Y-93530800D01*
X63984142Y-93578419D01*
X63936523Y-93673657D01*
X63936523Y-93768895D01*
X63984142Y-93911752D01*
X64555571Y-94483180D01*
X63936523Y-94483180D01*
X63317476Y-93483180D02*
X63222238Y-93483180D01*
X63127000Y-93530800D01*
X63079380Y-93578419D01*
X63031761Y-93673657D01*
X62984142Y-93864133D01*
X62984142Y-94102228D01*
X63031761Y-94292704D01*
X63079380Y-94387942D01*
X63127000Y-94435561D01*
X63222238Y-94483180D01*
X63317476Y-94483180D01*
X63412714Y-94435561D01*
X63460333Y-94387942D01*
X63507952Y-94292704D01*
X63555571Y-94102228D01*
X63555571Y-93864133D01*
X63507952Y-93673657D01*
X63460333Y-93578419D01*
X63412714Y-93530800D01*
X63317476Y-93483180D01*
X62793666Y-94578419D02*
X62031761Y-94578419D01*
X61793666Y-94483180D02*
X61793666Y-93816514D01*
X61793666Y-94006990D02*
X61746047Y-93911752D01*
X61698428Y-93864133D01*
X61603190Y-93816514D01*
X61507952Y-93816514D01*
X60650809Y-94483180D02*
X61222238Y-94483180D01*
X60936523Y-94483180D02*
X60936523Y-93483180D01*
X61031761Y-93626038D01*
X61127000Y-93721276D01*
X61222238Y-93768895D01*
%TO.C,SW7_r1*%
X55281200Y-27735161D02*
X55138342Y-27782780D01*
X54900247Y-27782780D01*
X54805009Y-27735161D01*
X54757390Y-27687542D01*
X54709771Y-27592304D01*
X54709771Y-27497066D01*
X54757390Y-27401828D01*
X54805009Y-27354209D01*
X54900247Y-27306590D01*
X55090723Y-27258971D01*
X55185961Y-27211352D01*
X55233580Y-27163733D01*
X55281200Y-27068495D01*
X55281200Y-26973257D01*
X55233580Y-26878019D01*
X55185961Y-26830400D01*
X55090723Y-26782780D01*
X54852628Y-26782780D01*
X54709771Y-26830400D01*
X54376438Y-26782780D02*
X54138342Y-27782780D01*
X53947866Y-27068495D01*
X53757390Y-27782780D01*
X53519295Y-26782780D01*
X53233580Y-26782780D02*
X52566914Y-26782780D01*
X52995485Y-27782780D01*
X52424057Y-27878019D02*
X51662152Y-27878019D01*
X51424057Y-27782780D02*
X51424057Y-27116114D01*
X51424057Y-27306590D02*
X51376438Y-27211352D01*
X51328819Y-27163733D01*
X51233580Y-27116114D01*
X51138342Y-27116114D01*
X50281200Y-27782780D02*
X50852628Y-27782780D01*
X50566914Y-27782780D02*
X50566914Y-26782780D01*
X50662152Y-26925638D01*
X50757390Y-27020876D01*
X50852628Y-27068495D01*
D12*
%TO.C,REF\u002A\u002A*%
X74952614Y-47410900D02*
X75952614Y-47410900D01*
X75000233Y-47410900D02*
X74952614Y-47506138D01*
X74952614Y-47696614D01*
X75000233Y-47791852D01*
X75047852Y-47839471D01*
X75143090Y-47887090D01*
X75428804Y-47887090D01*
X75524042Y-47839471D01*
X75571661Y-47791852D01*
X75619280Y-47696614D01*
X75619280Y-47506138D01*
X75571661Y-47410900D01*
X74952614Y-48744233D02*
X75619280Y-48744233D01*
X74952614Y-48315661D02*
X75476423Y-48315661D01*
X75571661Y-48363280D01*
X75619280Y-48458519D01*
X75619280Y-48601376D01*
X75571661Y-48696614D01*
X75524042Y-48744233D01*
X75571661Y-49648995D02*
X75619280Y-49553757D01*
X75619280Y-49363280D01*
X75571661Y-49268042D01*
X75524042Y-49220423D01*
X75428804Y-49172804D01*
X75143090Y-49172804D01*
X75047852Y-49220423D01*
X75000233Y-49268042D01*
X74952614Y-49363280D01*
X74952614Y-49553757D01*
X75000233Y-49648995D01*
X75619280Y-50077566D02*
X74619280Y-50077566D01*
X75238328Y-50172804D02*
X75619280Y-50458519D01*
X74952614Y-50458519D02*
X75333566Y-50077566D01*
X74889114Y-33456900D02*
X74889114Y-33837852D01*
X74555780Y-33599757D02*
X75412923Y-33599757D01*
X75508161Y-33647376D01*
X75555780Y-33742614D01*
X75555780Y-33837852D01*
X75508161Y-34552138D02*
X75555780Y-34456900D01*
X75555780Y-34266423D01*
X75508161Y-34171185D01*
X75412923Y-34123566D01*
X75031971Y-34123566D01*
X74936733Y-34171185D01*
X74889114Y-34266423D01*
X74889114Y-34456900D01*
X74936733Y-34552138D01*
X75031971Y-34599757D01*
X75127209Y-34599757D01*
X75222447Y-34123566D01*
X74889114Y-35028328D02*
X75555780Y-35028328D01*
X74984352Y-35028328D02*
X74936733Y-35075947D01*
X74889114Y-35171185D01*
X74889114Y-35314042D01*
X74936733Y-35409280D01*
X75031971Y-35456900D01*
X75555780Y-35456900D01*
X74889114Y-35790233D02*
X74889114Y-36171185D01*
X74555780Y-35933090D02*
X75412923Y-35933090D01*
X75508161Y-35980709D01*
X75555780Y-36075947D01*
X75555780Y-36171185D01*
X75555780Y-36504519D02*
X74889114Y-36504519D01*
X74555780Y-36504519D02*
X74603400Y-36456900D01*
X74651019Y-36504519D01*
X74603400Y-36552138D01*
X74555780Y-36504519D01*
X74651019Y-36504519D01*
X74889114Y-36980709D02*
X75555780Y-36980709D01*
X74984352Y-36980709D02*
X74936733Y-37028328D01*
X74889114Y-37123566D01*
X74889114Y-37266423D01*
X74936733Y-37361661D01*
X75031971Y-37409280D01*
X75555780Y-37409280D01*
X74889114Y-38314042D02*
X75698638Y-38314042D01*
X75793876Y-38266423D01*
X75841495Y-38218804D01*
X75889114Y-38123566D01*
X75889114Y-37980709D01*
X75841495Y-37885471D01*
X75508161Y-38314042D02*
X75555780Y-38218804D01*
X75555780Y-38028328D01*
X75508161Y-37933090D01*
X75460542Y-37885471D01*
X75365304Y-37837852D01*
X75079590Y-37837852D01*
X74984352Y-37885471D01*
X74936733Y-37933090D01*
X74889114Y-38028328D01*
X74889114Y-38218804D01*
X74936733Y-38314042D01*
D11*
%TO.C,RSW2*%
X21737580Y-84145619D02*
X21261390Y-83812285D01*
X21737580Y-83574190D02*
X20737580Y-83574190D01*
X20737580Y-83955142D01*
X20785200Y-84050380D01*
X20832819Y-84098000D01*
X20928057Y-84145619D01*
X21070914Y-84145619D01*
X21166152Y-84098000D01*
X21213771Y-84050380D01*
X21261390Y-83955142D01*
X21261390Y-83574190D01*
X21213771Y-84574190D02*
X21213771Y-84907523D01*
X21737580Y-85050380D02*
X21737580Y-84574190D01*
X20737580Y-84574190D01*
X20737580Y-85050380D01*
X21689961Y-85431333D02*
X21737580Y-85574190D01*
X21737580Y-85812285D01*
X21689961Y-85907523D01*
X21642342Y-85955142D01*
X21547104Y-86002761D01*
X21451866Y-86002761D01*
X21356628Y-85955142D01*
X21309009Y-85907523D01*
X21261390Y-85812285D01*
X21213771Y-85621809D01*
X21166152Y-85526571D01*
X21118533Y-85478952D01*
X21023295Y-85431333D01*
X20928057Y-85431333D01*
X20832819Y-85478952D01*
X20785200Y-85526571D01*
X20737580Y-85621809D01*
X20737580Y-85859904D01*
X20785200Y-86002761D01*
X21213771Y-86431333D02*
X21213771Y-86764666D01*
X21737580Y-86907523D02*
X21737580Y-86431333D01*
X20737580Y-86431333D01*
X20737580Y-86907523D01*
X20737580Y-87193238D02*
X20737580Y-87764666D01*
X21737580Y-87478952D02*
X20737580Y-87478952D01*
%TO.C,SW13*%
X222802924Y-44826794D02*
X222660067Y-44874413D01*
X222421972Y-44874413D01*
X222326734Y-44826794D01*
X222279115Y-44779175D01*
X222231496Y-44683937D01*
X222231496Y-44588699D01*
X222279115Y-44493461D01*
X222326734Y-44445842D01*
X222421972Y-44398223D01*
X222612448Y-44350604D01*
X222707686Y-44302985D01*
X222755305Y-44255366D01*
X222802924Y-44160128D01*
X222802924Y-44064890D01*
X222755305Y-43969652D01*
X222707686Y-43922033D01*
X222612448Y-43874413D01*
X222374353Y-43874413D01*
X222231496Y-43922033D01*
X221898162Y-43874413D02*
X221660067Y-44874413D01*
X221469591Y-44160128D01*
X221279115Y-44874413D01*
X221041020Y-43874413D01*
X220136258Y-44874413D02*
X220707686Y-44874413D01*
X220421972Y-44874413D02*
X220421972Y-43874413D01*
X220517210Y-44017271D01*
X220612448Y-44112509D01*
X220707686Y-44160128D01*
X219802924Y-43874413D02*
X219183877Y-43874413D01*
X219517210Y-44255366D01*
X219374353Y-44255366D01*
X219279115Y-44302985D01*
X219231496Y-44350604D01*
X219183877Y-44445842D01*
X219183877Y-44683937D01*
X219231496Y-44779175D01*
X219279115Y-44826794D01*
X219374353Y-44874413D01*
X219660067Y-44874413D01*
X219755305Y-44826794D01*
X219802924Y-44779175D01*
%TO.C,SW22*%
X227225504Y-100364362D02*
X227369839Y-100407294D01*
X227564875Y-100543860D01*
X227615577Y-100637493D01*
X227627271Y-100703814D01*
X227611652Y-100809141D01*
X227557025Y-100887156D01*
X227463392Y-100937857D01*
X227397071Y-100949551D01*
X227291744Y-100933932D01*
X227108402Y-100863687D01*
X227003074Y-100848068D01*
X226936754Y-100859762D01*
X226843120Y-100910463D01*
X226788494Y-100988478D01*
X226772875Y-101093805D01*
X226784569Y-101160126D01*
X226835270Y-101253759D01*
X227030306Y-101390325D01*
X227174641Y-101433257D01*
X227420379Y-101663457D02*
X228188991Y-100980870D01*
X227935323Y-101675232D01*
X228501049Y-101199376D01*
X228122509Y-102155094D01*
X228450186Y-102268271D02*
X228461880Y-102334592D01*
X228512581Y-102428225D01*
X228707617Y-102564791D01*
X228812945Y-102580410D01*
X228879266Y-102568716D01*
X228972899Y-102518015D01*
X229027525Y-102440000D01*
X229070458Y-102295665D01*
X228930129Y-101499821D01*
X229437223Y-101854892D01*
X229230331Y-102814535D02*
X229242025Y-102880855D01*
X229292726Y-102974489D01*
X229487762Y-103111054D01*
X229593090Y-103126673D01*
X229659410Y-103114979D01*
X229753044Y-103064278D01*
X229807670Y-102986264D01*
X229850602Y-102841929D01*
X229710274Y-102046084D01*
X230217368Y-102401155D01*
%TO.C,SW19*%
X222802924Y-61946394D02*
X222660067Y-61994013D01*
X222421972Y-61994013D01*
X222326734Y-61946394D01*
X222279115Y-61898775D01*
X222231496Y-61803537D01*
X222231496Y-61708299D01*
X222279115Y-61613061D01*
X222326734Y-61565442D01*
X222421972Y-61517823D01*
X222612448Y-61470204D01*
X222707686Y-61422585D01*
X222755305Y-61374966D01*
X222802924Y-61279728D01*
X222802924Y-61184490D01*
X222755305Y-61089252D01*
X222707686Y-61041633D01*
X222612448Y-60994013D01*
X222374353Y-60994013D01*
X222231496Y-61041633D01*
X221898162Y-60994013D02*
X221660067Y-61994013D01*
X221469591Y-61279728D01*
X221279115Y-61994013D01*
X221041020Y-60994013D01*
X220136258Y-61994013D02*
X220707686Y-61994013D01*
X220421972Y-61994013D02*
X220421972Y-60994013D01*
X220517210Y-61136871D01*
X220612448Y-61232109D01*
X220707686Y-61279728D01*
X219660067Y-61994013D02*
X219469591Y-61994013D01*
X219374353Y-61946394D01*
X219326734Y-61898775D01*
X219231496Y-61755918D01*
X219183877Y-61565442D01*
X219183877Y-61184490D01*
X219231496Y-61089252D01*
X219279115Y-61041633D01*
X219374353Y-60994013D01*
X219564829Y-60994013D01*
X219660067Y-61041633D01*
X219707686Y-61089252D01*
X219755305Y-61184490D01*
X219755305Y-61422585D01*
X219707686Y-61517823D01*
X219660067Y-61565442D01*
X219564829Y-61613061D01*
X219374353Y-61613061D01*
X219279115Y-61565442D01*
X219231496Y-61517823D01*
X219183877Y-61422585D01*
%TO.C,SW19_r1*%
X55731990Y-61745761D02*
X55589133Y-61793380D01*
X55351038Y-61793380D01*
X55255800Y-61745761D01*
X55208180Y-61698142D01*
X55160561Y-61602904D01*
X55160561Y-61507666D01*
X55208180Y-61412428D01*
X55255800Y-61364809D01*
X55351038Y-61317190D01*
X55541514Y-61269571D01*
X55636752Y-61221952D01*
X55684371Y-61174333D01*
X55731990Y-61079095D01*
X55731990Y-60983857D01*
X55684371Y-60888619D01*
X55636752Y-60841000D01*
X55541514Y-60793380D01*
X55303419Y-60793380D01*
X55160561Y-60841000D01*
X54827228Y-60793380D02*
X54589133Y-61793380D01*
X54398657Y-61079095D01*
X54208180Y-61793380D01*
X53970085Y-60793380D01*
X53065323Y-61793380D02*
X53636752Y-61793380D01*
X53351038Y-61793380D02*
X53351038Y-60793380D01*
X53446276Y-60936238D01*
X53541514Y-61031476D01*
X53636752Y-61079095D01*
X52589133Y-61793380D02*
X52398657Y-61793380D01*
X52303419Y-61745761D01*
X52255800Y-61698142D01*
X52160561Y-61555285D01*
X52112942Y-61364809D01*
X52112942Y-60983857D01*
X52160561Y-60888619D01*
X52208180Y-60841000D01*
X52303419Y-60793380D01*
X52493895Y-60793380D01*
X52589133Y-60841000D01*
X52636752Y-60888619D01*
X52684371Y-60983857D01*
X52684371Y-61221952D01*
X52636752Y-61317190D01*
X52589133Y-61364809D01*
X52493895Y-61412428D01*
X52303419Y-61412428D01*
X52208180Y-61364809D01*
X52160561Y-61317190D01*
X52112942Y-61221952D01*
X51922466Y-61888619D02*
X51160561Y-61888619D01*
X50922466Y-61793380D02*
X50922466Y-61126714D01*
X50922466Y-61317190D02*
X50874847Y-61221952D01*
X50827228Y-61174333D01*
X50731990Y-61126714D01*
X50636752Y-61126714D01*
X49779609Y-61793380D02*
X50351038Y-61793380D01*
X50065323Y-61793380D02*
X50065323Y-60793380D01*
X50160561Y-60936238D01*
X50255800Y-61031476D01*
X50351038Y-61079095D01*
%TO.C,Bat+1*%
%TO.C,SW10_r1*%
X109808590Y-43762561D02*
X109665733Y-43810180D01*
X109427638Y-43810180D01*
X109332400Y-43762561D01*
X109284780Y-43714942D01*
X109237161Y-43619704D01*
X109237161Y-43524466D01*
X109284780Y-43429228D01*
X109332400Y-43381609D01*
X109427638Y-43333990D01*
X109618114Y-43286371D01*
X109713352Y-43238752D01*
X109760971Y-43191133D01*
X109808590Y-43095895D01*
X109808590Y-43000657D01*
X109760971Y-42905419D01*
X109713352Y-42857800D01*
X109618114Y-42810180D01*
X109380019Y-42810180D01*
X109237161Y-42857800D01*
X108903828Y-42810180D02*
X108665733Y-43810180D01*
X108475257Y-43095895D01*
X108284780Y-43810180D01*
X108046685Y-42810180D01*
X107141923Y-43810180D02*
X107713352Y-43810180D01*
X107427638Y-43810180D02*
X107427638Y-42810180D01*
X107522876Y-42953038D01*
X107618114Y-43048276D01*
X107713352Y-43095895D01*
X106522876Y-42810180D02*
X106427638Y-42810180D01*
X106332400Y-42857800D01*
X106284780Y-42905419D01*
X106237161Y-43000657D01*
X106189542Y-43191133D01*
X106189542Y-43429228D01*
X106237161Y-43619704D01*
X106284780Y-43714942D01*
X106332400Y-43762561D01*
X106427638Y-43810180D01*
X106522876Y-43810180D01*
X106618114Y-43762561D01*
X106665733Y-43714942D01*
X106713352Y-43619704D01*
X106760971Y-43429228D01*
X106760971Y-43191133D01*
X106713352Y-43000657D01*
X106665733Y-42905419D01*
X106618114Y-42857800D01*
X106522876Y-42810180D01*
X105999066Y-43905419D02*
X105237161Y-43905419D01*
X104999066Y-43810180D02*
X104999066Y-43143514D01*
X104999066Y-43333990D02*
X104951447Y-43238752D01*
X104903828Y-43191133D01*
X104808590Y-43143514D01*
X104713352Y-43143514D01*
X103856209Y-43810180D02*
X104427638Y-43810180D01*
X104141923Y-43810180D02*
X104141923Y-42810180D01*
X104237161Y-42953038D01*
X104332400Y-43048276D01*
X104427638Y-43095895D01*
%TO.C,SW22_r1*%
X30525128Y-87744932D02*
X30435419Y-87865879D01*
X30240383Y-88002445D01*
X30135056Y-88018064D01*
X30068735Y-88006370D01*
X29975102Y-87955669D01*
X29920475Y-87877654D01*
X29904856Y-87772326D01*
X29916550Y-87706006D01*
X29967252Y-87612372D01*
X30095967Y-87464113D01*
X30146669Y-87370479D01*
X30158363Y-87304159D01*
X30142744Y-87198831D01*
X30088117Y-87120816D01*
X29994484Y-87070115D01*
X29928163Y-87058421D01*
X29822836Y-87074040D01*
X29627799Y-87210606D01*
X29538091Y-87331553D01*
X29237727Y-87483738D02*
X29616267Y-88439455D01*
X29050541Y-87963600D01*
X29304209Y-88657961D01*
X28535597Y-87975375D01*
X28317172Y-88244581D02*
X28250852Y-88232887D01*
X28145524Y-88248506D01*
X27950488Y-88385072D01*
X27899787Y-88478706D01*
X27888093Y-88545026D01*
X27903712Y-88650354D01*
X27958338Y-88728368D01*
X28079285Y-88818077D01*
X28875130Y-88958406D01*
X28368036Y-89313477D01*
X27537028Y-88790844D02*
X27470707Y-88779150D01*
X27365380Y-88794769D01*
X27170343Y-88931335D01*
X27119642Y-89024969D01*
X27107948Y-89091289D01*
X27123567Y-89196617D01*
X27178193Y-89274631D01*
X27299140Y-89364340D01*
X28094985Y-89504669D01*
X27587891Y-89859740D01*
X27486488Y-90047007D02*
X26862372Y-90484018D01*
X26612710Y-90542569D02*
X26230326Y-89996468D01*
X26339578Y-90152497D02*
X26245945Y-90101795D01*
X26179624Y-90090101D01*
X26074297Y-90105720D01*
X25996282Y-90160347D01*
X25676536Y-91198085D02*
X26144623Y-90870327D01*
X25910579Y-91034206D02*
X25337003Y-90215054D01*
X25496957Y-90277449D01*
X25629598Y-90300838D01*
X25734925Y-90285218D01*
%TO.C,BatGND1*%
%TO.C,Bat+r1*%
%TO.C,SW7*%
X222326734Y-27707194D02*
X222183877Y-27754813D01*
X221945781Y-27754813D01*
X221850543Y-27707194D01*
X221802924Y-27659575D01*
X221755305Y-27564337D01*
X221755305Y-27469099D01*
X221802924Y-27373861D01*
X221850543Y-27326242D01*
X221945781Y-27278623D01*
X222136258Y-27231004D01*
X222231496Y-27183385D01*
X222279115Y-27135766D01*
X222326734Y-27040528D01*
X222326734Y-26945290D01*
X222279115Y-26850052D01*
X222231496Y-26802433D01*
X222136258Y-26754813D01*
X221898162Y-26754813D01*
X221755305Y-26802433D01*
X221421972Y-26754813D02*
X221183877Y-27754813D01*
X220993401Y-27040528D01*
X220802924Y-27754813D01*
X220564829Y-26754813D01*
X220279115Y-26754813D02*
X219612448Y-26754813D01*
X220041020Y-27754813D01*
%TO.C,BatGND4*%
%TO.C,SW_POWER1*%
X242857505Y-52260994D02*
X242714648Y-52308613D01*
X242476553Y-52308613D01*
X242381315Y-52260994D01*
X242333696Y-52213375D01*
X242286077Y-52118137D01*
X242286077Y-52022899D01*
X242333696Y-51927661D01*
X242381315Y-51880042D01*
X242476553Y-51832423D01*
X242667029Y-51784804D01*
X242762267Y-51737185D01*
X242809886Y-51689566D01*
X242857505Y-51594328D01*
X242857505Y-51499090D01*
X242809886Y-51403852D01*
X242762267Y-51356233D01*
X242667029Y-51308613D01*
X242428934Y-51308613D01*
X242286077Y-51356233D01*
X241952743Y-51308613D02*
X241714648Y-52308613D01*
X241524172Y-51594328D01*
X241333696Y-52308613D01*
X241095601Y-51308613D01*
X240952743Y-52403852D02*
X240190839Y-52403852D01*
X239952743Y-52308613D02*
X239952743Y-51308613D01*
X239571791Y-51308613D01*
X239476553Y-51356233D01*
X239428934Y-51403852D01*
X239381315Y-51499090D01*
X239381315Y-51641947D01*
X239428934Y-51737185D01*
X239476553Y-51784804D01*
X239571791Y-51832423D01*
X239952743Y-51832423D01*
X238762267Y-51308613D02*
X238571791Y-51308613D01*
X238476553Y-51356233D01*
X238381315Y-51451471D01*
X238333696Y-51641947D01*
X238333696Y-51975280D01*
X238381315Y-52165756D01*
X238476553Y-52260994D01*
X238571791Y-52308613D01*
X238762267Y-52308613D01*
X238857505Y-52260994D01*
X238952743Y-52165756D01*
X239000362Y-51975280D01*
X239000362Y-51641947D01*
X238952743Y-51451471D01*
X238857505Y-51356233D01*
X238762267Y-51308613D01*
X238000362Y-51308613D02*
X237762267Y-52308613D01*
X237571791Y-51594328D01*
X237381315Y-52308613D01*
X237143220Y-51308613D01*
X236762267Y-51784804D02*
X236428934Y-51784804D01*
X236286077Y-52308613D02*
X236762267Y-52308613D01*
X236762267Y-51308613D01*
X236286077Y-51308613D01*
X235286077Y-52308613D02*
X235619410Y-51832423D01*
X235857505Y-52308613D02*
X235857505Y-51308613D01*
X235476553Y-51308613D01*
X235381315Y-51356233D01*
X235333696Y-51403852D01*
X235286077Y-51499090D01*
X235286077Y-51641947D01*
X235333696Y-51737185D01*
X235381315Y-51784804D01*
X235476553Y-51832423D01*
X235857505Y-51832423D01*
X234333696Y-52308613D02*
X234905124Y-52308613D01*
X234619410Y-52308613D02*
X234619410Y-51308613D01*
X234714648Y-51451471D01*
X234809886Y-51546709D01*
X234905124Y-51594328D01*
%TO.C,SW_POWERR1*%
X30923904Y-52136561D02*
X30781047Y-52184180D01*
X30542952Y-52184180D01*
X30447714Y-52136561D01*
X30400095Y-52088942D01*
X30352476Y-51993704D01*
X30352476Y-51898466D01*
X30400095Y-51803228D01*
X30447714Y-51755609D01*
X30542952Y-51707990D01*
X30733428Y-51660371D01*
X30828666Y-51612752D01*
X30876285Y-51565133D01*
X30923904Y-51469895D01*
X30923904Y-51374657D01*
X30876285Y-51279419D01*
X30828666Y-51231800D01*
X30733428Y-51184180D01*
X30495333Y-51184180D01*
X30352476Y-51231800D01*
X30019142Y-51184180D02*
X29781047Y-52184180D01*
X29590571Y-51469895D01*
X29400095Y-52184180D01*
X29162000Y-51184180D01*
X29019142Y-52279419D02*
X28257238Y-52279419D01*
X28019142Y-52184180D02*
X28019142Y-51184180D01*
X27638190Y-51184180D01*
X27542952Y-51231800D01*
X27495333Y-51279419D01*
X27447714Y-51374657D01*
X27447714Y-51517514D01*
X27495333Y-51612752D01*
X27542952Y-51660371D01*
X27638190Y-51707990D01*
X28019142Y-51707990D01*
X26828666Y-51184180D02*
X26638190Y-51184180D01*
X26542952Y-51231800D01*
X26447714Y-51327038D01*
X26400095Y-51517514D01*
X26400095Y-51850847D01*
X26447714Y-52041323D01*
X26542952Y-52136561D01*
X26638190Y-52184180D01*
X26828666Y-52184180D01*
X26923904Y-52136561D01*
X27019142Y-52041323D01*
X27066761Y-51850847D01*
X27066761Y-51517514D01*
X27019142Y-51327038D01*
X26923904Y-51231800D01*
X26828666Y-51184180D01*
X26066761Y-51184180D02*
X25828666Y-52184180D01*
X25638190Y-51469895D01*
X25447714Y-52184180D01*
X25209619Y-51184180D01*
X24828666Y-51660371D02*
X24495333Y-51660371D01*
X24352476Y-52184180D02*
X24828666Y-52184180D01*
X24828666Y-51184180D01*
X24352476Y-51184180D01*
X23352476Y-52184180D02*
X23685809Y-51707990D01*
X23923904Y-52184180D02*
X23923904Y-51184180D01*
X23542952Y-51184180D01*
X23447714Y-51231800D01*
X23400095Y-51279419D01*
X23352476Y-51374657D01*
X23352476Y-51517514D01*
X23400095Y-51612752D01*
X23447714Y-51660371D01*
X23542952Y-51707990D01*
X23923904Y-51707990D01*
X22352476Y-52184180D02*
X22685809Y-51707990D01*
X22923904Y-52184180D02*
X22923904Y-51184180D01*
X22542952Y-51184180D01*
X22447714Y-51231800D01*
X22400095Y-51279419D01*
X22352476Y-51374657D01*
X22352476Y-51517514D01*
X22400095Y-51612752D01*
X22447714Y-51660371D01*
X22542952Y-51707990D01*
X22923904Y-51707990D01*
X21400095Y-52184180D02*
X21971523Y-52184180D01*
X21685809Y-52184180D02*
X21685809Y-51184180D01*
X21781047Y-51327038D01*
X21876285Y-51422276D01*
X21971523Y-51469895D01*
%TO.C,SW16*%
X164497201Y-61420233D02*
G75*
G03*
X164997201Y-61920233I500000J0D01*
G01*
X164997201Y-65920233D02*
G75*
G03*
X163497201Y-64420233I-1500000J0D01*
G01*
X169497201Y-66620233D02*
X169497201Y-66120233D01*
X160997201Y-64420233D02*
X163497201Y-64420233D01*
X164497201Y-61420233D02*
X164497201Y-60420233D01*
X169497201Y-62520233D02*
X169497201Y-61920233D01*
X164997201Y-65920233D02*
X164997201Y-66620233D01*
X169497201Y-61920233D02*
X164997201Y-61920233D01*
X160497201Y-63920233D02*
X160997201Y-64420233D01*
X160497201Y-60420233D02*
X160997201Y-59920233D01*
X163997201Y-59920233D02*
X164497201Y-60420233D01*
X160997201Y-59920233D02*
X163997201Y-59920233D01*
X164997201Y-66620233D02*
X169497201Y-66620233D01*
%TO.C,SW20*%
X195193601Y-93336833D02*
G75*
G03*
X194693601Y-92836833I-500000J0D01*
G01*
X194693601Y-88836833D02*
G75*
G03*
X196193601Y-90336833I1500000J0D01*
G01*
X199193601Y-94336833D02*
X198693601Y-94836833D01*
X199193601Y-90836833D02*
X198693601Y-90336833D01*
X190193601Y-92836833D02*
X194693601Y-92836833D01*
X198693601Y-90336833D02*
X196193601Y-90336833D01*
X194693601Y-88836833D02*
X194693601Y-88136833D01*
X195193601Y-93336833D02*
X195193601Y-94336833D01*
X194693601Y-88136833D02*
X190193601Y-88136833D01*
X190193601Y-92236833D02*
X190193601Y-92836833D01*
X195693601Y-94836833D02*
X195193601Y-94336833D01*
X190193601Y-88136833D02*
X190193601Y-88636833D01*
X198693601Y-94836833D02*
X195693601Y-94836833D01*
%TO.C,SW15*%
X146539401Y-73434433D02*
G75*
G03*
X147039401Y-73934433I500000J0D01*
G01*
X147039401Y-77934433D02*
G75*
G03*
X145539401Y-76434433I-1500000J0D01*
G01*
X151539401Y-74534433D02*
X151539401Y-73934433D01*
X151539401Y-73934433D02*
X147039401Y-73934433D01*
X143039401Y-71934433D02*
X146039401Y-71934433D01*
X151539401Y-78634433D02*
X151539401Y-78134433D01*
X146039401Y-71934433D02*
X146539401Y-72434433D01*
X142539401Y-72434433D02*
X143039401Y-71934433D01*
X146539401Y-73434433D02*
X146539401Y-72434433D01*
X143039401Y-76434433D02*
X145539401Y-76434433D01*
X142539401Y-75934433D02*
X143039401Y-76434433D01*
X147039401Y-77934433D02*
X147039401Y-78634433D01*
X147039401Y-78634433D02*
X151539401Y-78634433D01*
%TO.C,SW21*%
X213720661Y-95308698D02*
G75*
G03*
X213367108Y-94696326I-482962J129410D01*
G01*
X214402384Y-90832622D02*
G75*
G03*
X215463045Y-92669740I1448889J-388229D01*
G01*
X216713174Y-97663453D02*
X213815396Y-96886996D01*
X213815396Y-96886996D02*
X213461843Y-96274624D01*
X209020442Y-93531640D02*
X213367108Y-94696326D01*
X217325546Y-97309900D02*
X216713174Y-97663453D01*
X209175734Y-92952084D02*
X209020442Y-93531640D01*
X218231413Y-93929160D02*
X217877859Y-93316787D01*
X213720662Y-95308698D02*
X213461843Y-96274624D01*
X214402385Y-90832622D02*
X214583558Y-90156474D01*
X210236892Y-88991788D02*
X210107482Y-89474751D01*
X214583558Y-90156474D02*
X210236892Y-88991788D01*
X217877859Y-93316787D02*
X215463045Y-92669740D01*
%TO.C,SW17*%
X182505801Y-54536833D02*
G75*
G03*
X183005801Y-55036833I500000J0D01*
G01*
X183005801Y-59036833D02*
G75*
G03*
X181505801Y-57536833I-1500000J0D01*
G01*
X182005801Y-53036833D02*
X182505801Y-53536833D01*
X182505801Y-54536833D02*
X182505801Y-53536833D01*
X187505801Y-59736833D02*
X187505801Y-59236833D01*
X178505801Y-53536833D02*
X179005801Y-53036833D01*
X178505801Y-57036833D02*
X179005801Y-57536833D01*
X179005801Y-53036833D02*
X182005801Y-53036833D01*
X183005801Y-59036833D02*
X183005801Y-59736833D01*
X179005801Y-57536833D02*
X181505801Y-57536833D01*
X187505801Y-55036833D02*
X183005801Y-55036833D01*
X187505801Y-55636833D02*
X187505801Y-55036833D01*
X183005801Y-59736833D02*
X187505801Y-59736833D01*
%TO.C,SW18*%
X201014401Y-64396233D02*
G75*
G03*
X199514401Y-62896233I-1500000J0D01*
G01*
X200514401Y-59896233D02*
G75*
G03*
X201014401Y-60396233I500000J0D01*
G01*
X197014401Y-58396233D02*
X200014401Y-58396233D01*
X205514401Y-60996233D02*
X205514401Y-60396233D01*
X205514401Y-65096233D02*
X205514401Y-64596233D01*
X197014401Y-62896233D02*
X199514401Y-62896233D01*
X196514401Y-62396233D02*
X197014401Y-62896233D01*
X196514401Y-58896233D02*
X197014401Y-58396233D01*
X200014401Y-58396233D02*
X200514401Y-58896233D01*
X200514401Y-59896233D02*
X200514401Y-58896233D01*
X201014401Y-64396233D02*
X201014401Y-65096233D01*
X205514401Y-60396233D02*
X201014401Y-60396233D01*
X201014401Y-65096233D02*
X205514401Y-65096233D01*
%TO.C,SW4*%
X160022601Y-36081033D02*
G75*
G03*
X161522601Y-37581033I1500000J0D01*
G01*
X160522601Y-40581033D02*
G75*
G03*
X160022601Y-40081033I-500000J0D01*
G01*
X160522601Y-40581033D02*
X160522601Y-41581033D01*
X155522601Y-35381033D02*
X155522601Y-35881033D01*
X164022601Y-42081033D02*
X161022601Y-42081033D01*
X164522601Y-41581033D02*
X164022601Y-42081033D01*
X164522601Y-38081033D02*
X164022601Y-37581033D01*
X155522601Y-40081033D02*
X160022601Y-40081033D01*
X164022601Y-37581033D02*
X161522601Y-37581033D01*
X161022601Y-42081033D02*
X160522601Y-41581033D01*
X160022601Y-35381033D02*
X155522601Y-35381033D01*
X155522601Y-39481033D02*
X155522601Y-40081033D01*
X160022601Y-36081033D02*
X160022601Y-35381033D01*
%TO.C,SW3*%
X147014001Y-43720633D02*
G75*
G03*
X145514001Y-42220633I-1500000J0D01*
G01*
X146514001Y-39220633D02*
G75*
G03*
X147014001Y-39720633I500000J0D01*
G01*
X142514001Y-41720633D02*
X143014001Y-42220633D01*
X142514001Y-38220633D02*
X143014001Y-37720633D01*
X143014001Y-37720633D02*
X146014001Y-37720633D01*
X151514001Y-39720633D02*
X147014001Y-39720633D01*
X146014001Y-37720633D02*
X146514001Y-38220633D01*
X143014001Y-42220633D02*
X145514001Y-42220633D01*
X146514001Y-39220633D02*
X146514001Y-38220633D01*
X151514001Y-44420633D02*
X151514001Y-43920633D01*
X151514001Y-40320633D02*
X151514001Y-39720633D01*
X147014001Y-43720633D02*
X147014001Y-44420633D01*
X147014001Y-44420633D02*
X151514001Y-44420633D01*
%TO.C,SW9*%
X147014001Y-60814833D02*
G75*
G03*
X145514001Y-59314833I-1500000J0D01*
G01*
X146514001Y-56314833D02*
G75*
G03*
X147014001Y-56814833I500000J0D01*
G01*
X146014001Y-54814833D02*
X146514001Y-55314833D01*
X142514001Y-55314833D02*
X143014001Y-54814833D01*
X151514001Y-56814833D02*
X147014001Y-56814833D01*
X142514001Y-58814833D02*
X143014001Y-59314833D01*
X151514001Y-61514833D02*
X151514001Y-61014833D01*
X143014001Y-59314833D02*
X145514001Y-59314833D01*
X147014001Y-60814833D02*
X147014001Y-61514833D01*
X151514001Y-57414833D02*
X151514001Y-56814833D01*
X143014001Y-54814833D02*
X146014001Y-54814833D01*
X147014001Y-61514833D02*
X151514001Y-61514833D01*
X146514001Y-56314833D02*
X146514001Y-55314833D01*
%TO.C,SW12*%
X196514401Y-56176633D02*
G75*
G03*
X196014401Y-55676633I-500000J0D01*
G01*
X196014401Y-51676633D02*
G75*
G03*
X197514401Y-53176633I1500000J0D01*
G01*
X200514401Y-57176633D02*
X200014401Y-57676633D01*
X200014401Y-57676633D02*
X197014401Y-57676633D01*
X196014401Y-51676633D02*
X196014401Y-50976633D01*
X197014401Y-57676633D02*
X196514401Y-57176633D01*
X196514401Y-56176633D02*
X196514401Y-57176633D01*
X200514401Y-53676633D02*
X200014401Y-53176633D01*
X191514401Y-50976633D02*
X191514401Y-51476633D01*
X191514401Y-55676633D02*
X196014401Y-55676633D01*
X191514401Y-55076633D02*
X191514401Y-55676633D01*
X200014401Y-53176633D02*
X197514401Y-53176633D01*
X196014401Y-50976633D02*
X191514401Y-50976633D01*
%TO.C,SW11*%
X183005801Y-41917233D02*
G75*
G03*
X181505801Y-40417233I-1500000J0D01*
G01*
X182505801Y-37417233D02*
G75*
G03*
X183005801Y-37917233I500000J0D01*
G01*
X187505801Y-37917233D02*
X183005801Y-37917233D01*
X183005801Y-42617233D02*
X187505801Y-42617233D01*
X182505801Y-37417233D02*
X182505801Y-36417233D01*
X179005801Y-35917233D02*
X182005801Y-35917233D01*
X187505801Y-38517233D02*
X187505801Y-37917233D01*
X182005801Y-35917233D02*
X182505801Y-36417233D01*
X187505801Y-42617233D02*
X187505801Y-42117233D01*
X178505801Y-36417233D02*
X179005801Y-35917233D01*
X183005801Y-41917233D02*
X183005801Y-42617233D01*
X179005801Y-40417233D02*
X181505801Y-40417233D01*
X178505801Y-39917233D02*
X179005801Y-40417233D01*
%TO.C,SW6*%
X201039801Y-30157033D02*
G75*
G03*
X199539801Y-28657033I-1500000J0D01*
G01*
X200539801Y-25657033D02*
G75*
G03*
X201039801Y-26157033I500000J0D01*
G01*
X201039801Y-30857033D02*
X205539801Y-30857033D01*
X205539801Y-30857033D02*
X205539801Y-30357033D01*
X205539801Y-26157033D02*
X201039801Y-26157033D01*
X197039801Y-28657033D02*
X199539801Y-28657033D01*
X197039801Y-24157033D02*
X200039801Y-24157033D01*
X200539801Y-25657033D02*
X200539801Y-24657033D01*
X200039801Y-24157033D02*
X200539801Y-24657033D01*
X205539801Y-26757033D02*
X205539801Y-26157033D01*
X196539801Y-24657033D02*
X197039801Y-24157033D01*
X196539801Y-28157033D02*
X197039801Y-28657033D01*
X201039801Y-30157033D02*
X201039801Y-30857033D01*
%TO.C,SW5*%
X178531201Y-33723033D02*
G75*
G03*
X178031201Y-33223033I-500000J0D01*
G01*
X178031201Y-29223033D02*
G75*
G03*
X179531201Y-30723033I1500000J0D01*
G01*
X173531201Y-32623033D02*
X173531201Y-33223033D01*
X173531201Y-28523033D02*
X173531201Y-29023033D01*
X182031201Y-35223033D02*
X179031201Y-35223033D01*
X178531201Y-33723033D02*
X178531201Y-34723033D01*
X178031201Y-28523033D02*
X173531201Y-28523033D01*
X179031201Y-35223033D02*
X178531201Y-34723033D01*
X178031201Y-29223033D02*
X178031201Y-28523033D01*
X182031201Y-30723033D02*
X179531201Y-30723033D01*
X182531201Y-31223033D02*
X182031201Y-30723033D01*
X173531201Y-33223033D02*
X178031201Y-33223033D01*
X182531201Y-34723033D02*
X182031201Y-35223033D01*
%TO.C,RSW1*%
X242001801Y-88747833D02*
X242001801Y-82747833D01*
X242001801Y-82747833D02*
X242251801Y-82747833D01*
X245251801Y-82747833D02*
X245501801Y-82747833D01*
X245501801Y-88747833D02*
X245251801Y-88747833D01*
X245501801Y-82747833D02*
X245501801Y-88747833D01*
X242251801Y-88747833D02*
X242001801Y-88747833D01*
%TO.C,SW10*%
X164497201Y-44300633D02*
G75*
G03*
X164997201Y-44800633I500000J0D01*
G01*
X164997201Y-48800633D02*
G75*
G03*
X163497201Y-47300633I-1500000J0D01*
G01*
X160497201Y-46800633D02*
X160997201Y-47300633D01*
X169497201Y-45400633D02*
X169497201Y-44800633D01*
X164497201Y-44300633D02*
X164497201Y-43300633D01*
X169497201Y-44800633D02*
X164997201Y-44800633D01*
X160997201Y-47300633D02*
X163497201Y-47300633D01*
X160497201Y-43300633D02*
X160997201Y-42800633D01*
X169497201Y-49500633D02*
X169497201Y-49000633D01*
X163997201Y-42800633D02*
X164497201Y-43300633D01*
X164997201Y-48800633D02*
X164997201Y-49500633D01*
X164997201Y-49500633D02*
X169497201Y-49500633D01*
X160997201Y-42800633D02*
X163997201Y-42800633D01*
%TO.C,REF\u002A\u002A*%
G36*
X190809785Y-57450102D02*
G01*
X190822014Y-57460150D01*
X190847496Y-57483770D01*
X190883643Y-57518483D01*
X190927867Y-57561808D01*
X190977580Y-57611263D01*
X191138615Y-57772607D01*
X191104733Y-57810422D01*
X191101556Y-57813914D01*
X191079688Y-57837123D01*
X191045342Y-57872869D01*
X191001526Y-57918049D01*
X190951243Y-57969562D01*
X190897501Y-58024305D01*
X190724151Y-58200374D01*
X190104137Y-58200374D01*
X190132438Y-58166739D01*
X190134731Y-58164048D01*
X190155399Y-58140819D01*
X190188157Y-58104979D01*
X190231017Y-58058634D01*
X190281989Y-58003891D01*
X190339085Y-57942856D01*
X190400315Y-57877637D01*
X190463690Y-57810339D01*
X190527223Y-57743069D01*
X190588922Y-57677934D01*
X190646801Y-57617040D01*
X190698868Y-57562494D01*
X190743137Y-57516402D01*
X190777616Y-57480871D01*
X190800319Y-57458008D01*
X190809254Y-57449919D01*
X190809785Y-57450102D01*
G37*
D13*
X190809785Y-57450102D02*
X190822014Y-57460150D01*
X190847496Y-57483770D01*
X190883643Y-57518483D01*
X190927867Y-57561808D01*
X190977580Y-57611263D01*
X191138615Y-57772607D01*
X191104733Y-57810422D01*
X191101556Y-57813914D01*
X191079688Y-57837123D01*
X191045342Y-57872869D01*
X191001526Y-57918049D01*
X190951243Y-57969562D01*
X190897501Y-58024305D01*
X190724151Y-58200374D01*
X190104137Y-58200374D01*
X190132438Y-58166739D01*
X190134731Y-58164048D01*
X190155399Y-58140819D01*
X190188157Y-58104979D01*
X190231017Y-58058634D01*
X190281989Y-58003891D01*
X190339085Y-57942856D01*
X190400315Y-57877637D01*
X190463690Y-57810339D01*
X190527223Y-57743069D01*
X190588922Y-57677934D01*
X190646801Y-57617040D01*
X190698868Y-57562494D01*
X190743137Y-57516402D01*
X190777616Y-57480871D01*
X190800319Y-57458008D01*
X190809254Y-57449919D01*
X190809785Y-57450102D01*
G36*
X192103553Y-58159789D02*
G01*
X192012709Y-58067513D01*
X191998928Y-58053517D01*
X191967067Y-58021164D01*
X191921120Y-57974510D01*
X191862304Y-57914792D01*
X191791837Y-57843247D01*
X191710938Y-57761110D01*
X191620823Y-57669617D01*
X191522711Y-57570006D01*
X191417819Y-57463513D01*
X191307365Y-57351373D01*
X191192566Y-57234824D01*
X191074641Y-57115101D01*
X190227417Y-56254964D01*
X190515785Y-56251871D01*
X190804153Y-56248777D01*
X191607099Y-57051477D01*
X191607099Y-55417919D01*
X192103553Y-55417919D01*
X192103553Y-58159789D01*
G37*
X192103553Y-58159789D02*
X192012709Y-58067513D01*
X191998928Y-58053517D01*
X191967067Y-58021164D01*
X191921120Y-57974510D01*
X191862304Y-57914792D01*
X191791837Y-57843247D01*
X191710938Y-57761110D01*
X191620823Y-57669617D01*
X191522711Y-57570006D01*
X191417819Y-57463513D01*
X191307365Y-57351373D01*
X191192566Y-57234824D01*
X191074641Y-57115101D01*
X190227417Y-56254964D01*
X190515785Y-56251871D01*
X190804153Y-56248777D01*
X191607099Y-57051477D01*
X191607099Y-55417919D01*
X192103553Y-55417919D01*
X192103553Y-58159789D01*
G36*
X189900318Y-57363797D02*
G01*
X189897705Y-57392192D01*
X189888836Y-57438642D01*
X189851283Y-57565802D01*
X189796117Y-57691665D01*
X189726425Y-57809847D01*
X189645294Y-57913967D01*
X189636900Y-57923133D01*
X189528588Y-58023459D01*
X189406168Y-58107456D01*
X189272995Y-58173435D01*
X189132427Y-58219710D01*
X188987819Y-58244591D01*
X188887573Y-58249074D01*
X188739152Y-58237675D01*
X188595733Y-58205422D01*
X188459497Y-58153399D01*
X188332622Y-58082685D01*
X188217289Y-57994363D01*
X188115676Y-57889514D01*
X188029964Y-57769221D01*
X187972709Y-57662302D01*
X187919564Y-57523066D01*
X187888208Y-57378502D01*
X187881704Y-57282138D01*
X188376943Y-57282138D01*
X188377225Y-57287428D01*
X188381543Y-57342731D01*
X188388900Y-57385023D01*
X188401545Y-57423631D01*
X188421726Y-57467877D01*
X188443214Y-57506204D01*
X188484699Y-57564998D01*
X188532756Y-57620454D01*
X188582079Y-57666648D01*
X188627365Y-57697652D01*
X188643532Y-57705428D01*
X188684437Y-57722788D01*
X188727434Y-57738874D01*
X188800261Y-57758162D01*
X188903962Y-57766683D01*
X189005503Y-57753889D01*
X189102289Y-57720757D01*
X189191721Y-57668264D01*
X189271202Y-57597387D01*
X189338136Y-57509104D01*
X189366790Y-57454959D01*
X189397222Y-57360940D01*
X189407794Y-57263391D01*
X189399488Y-57165443D01*
X189373286Y-57070230D01*
X189330173Y-56980883D01*
X189271130Y-56900537D01*
X189197140Y-56832323D01*
X189109188Y-56779374D01*
X189095185Y-56773088D01*
X188996839Y-56742463D01*
X188895487Y-56732281D01*
X188794583Y-56741601D01*
X188697584Y-56769479D01*
X188607948Y-56814975D01*
X188529131Y-56877145D01*
X188464589Y-56955049D01*
X188446819Y-56983578D01*
X188403167Y-57077001D01*
X188380311Y-57174893D01*
X188376943Y-57282138D01*
X187881704Y-57282138D01*
X187877917Y-57226024D01*
X187881478Y-57136354D01*
X187904159Y-56986075D01*
X187946911Y-56844106D01*
X188008721Y-56712121D01*
X188088579Y-56591796D01*
X188185473Y-56484807D01*
X188298393Y-56392827D01*
X188426326Y-56317534D01*
X188496177Y-56284895D01*
X188571315Y-56255678D01*
X188642967Y-56236186D01*
X188719450Y-56224249D01*
X188809085Y-56217697D01*
X188826897Y-56217029D01*
X188966098Y-56223467D01*
X189096481Y-56251143D01*
X189218697Y-56300247D01*
X189333394Y-56370969D01*
X189357528Y-56388171D01*
X189382374Y-56404514D01*
X189394805Y-56410828D01*
X189395713Y-56406798D01*
X189397162Y-56382991D01*
X189398489Y-56339868D01*
X189399658Y-56279793D01*
X189400634Y-56205131D01*
X189401384Y-56118245D01*
X189401873Y-56021500D01*
X189402065Y-55917260D01*
X189402213Y-55423692D01*
X189909917Y-55933718D01*
X189909830Y-56625432D01*
X189909827Y-56637168D01*
X189909566Y-56787642D01*
X189908902Y-56924914D01*
X189907858Y-57047570D01*
X189906455Y-57154199D01*
X189904716Y-57243388D01*
X189904132Y-57263391D01*
X189902663Y-57313725D01*
X189900318Y-57363797D01*
G37*
X189900318Y-57363797D02*
X189897705Y-57392192D01*
X189888836Y-57438642D01*
X189851283Y-57565802D01*
X189796117Y-57691665D01*
X189726425Y-57809847D01*
X189645294Y-57913967D01*
X189636900Y-57923133D01*
X189528588Y-58023459D01*
X189406168Y-58107456D01*
X189272995Y-58173435D01*
X189132427Y-58219710D01*
X188987819Y-58244591D01*
X188887573Y-58249074D01*
X188739152Y-58237675D01*
X188595733Y-58205422D01*
X188459497Y-58153399D01*
X188332622Y-58082685D01*
X188217289Y-57994363D01*
X188115676Y-57889514D01*
X188029964Y-57769221D01*
X187972709Y-57662302D01*
X187919564Y-57523066D01*
X187888208Y-57378502D01*
X187881704Y-57282138D01*
X188376943Y-57282138D01*
X188377225Y-57287428D01*
X188381543Y-57342731D01*
X188388900Y-57385023D01*
X188401545Y-57423631D01*
X188421726Y-57467877D01*
X188443214Y-57506204D01*
X188484699Y-57564998D01*
X188532756Y-57620454D01*
X188582079Y-57666648D01*
X188627365Y-57697652D01*
X188643532Y-57705428D01*
X188684437Y-57722788D01*
X188727434Y-57738874D01*
X188800261Y-57758162D01*
X188903962Y-57766683D01*
X189005503Y-57753889D01*
X189102289Y-57720757D01*
X189191721Y-57668264D01*
X189271202Y-57597387D01*
X189338136Y-57509104D01*
X189366790Y-57454959D01*
X189397222Y-57360940D01*
X189407794Y-57263391D01*
X189399488Y-57165443D01*
X189373286Y-57070230D01*
X189330173Y-56980883D01*
X189271130Y-56900537D01*
X189197140Y-56832323D01*
X189109188Y-56779374D01*
X189095185Y-56773088D01*
X188996839Y-56742463D01*
X188895487Y-56732281D01*
X188794583Y-56741601D01*
X188697584Y-56769479D01*
X188607948Y-56814975D01*
X188529131Y-56877145D01*
X188464589Y-56955049D01*
X188446819Y-56983578D01*
X188403167Y-57077001D01*
X188380311Y-57174893D01*
X188376943Y-57282138D01*
X187881704Y-57282138D01*
X187877917Y-57226024D01*
X187881478Y-57136354D01*
X187904159Y-56986075D01*
X187946911Y-56844106D01*
X188008721Y-56712121D01*
X188088579Y-56591796D01*
X188185473Y-56484807D01*
X188298393Y-56392827D01*
X188426326Y-56317534D01*
X188496177Y-56284895D01*
X188571315Y-56255678D01*
X188642967Y-56236186D01*
X188719450Y-56224249D01*
X188809085Y-56217697D01*
X188826897Y-56217029D01*
X188966098Y-56223467D01*
X189096481Y-56251143D01*
X189218697Y-56300247D01*
X189333394Y-56370969D01*
X189357528Y-56388171D01*
X189382374Y-56404514D01*
X189394805Y-56410828D01*
X189395713Y-56406798D01*
X189397162Y-56382991D01*
X189398489Y-56339868D01*
X189399658Y-56279793D01*
X189400634Y-56205131D01*
X189401384Y-56118245D01*
X189401873Y-56021500D01*
X189402065Y-55917260D01*
X189402213Y-55423692D01*
X189909917Y-55933718D01*
X189909830Y-56625432D01*
X189909827Y-56637168D01*
X189909566Y-56787642D01*
X189908902Y-56924914D01*
X189907858Y-57047570D01*
X189906455Y-57154199D01*
X189904716Y-57243388D01*
X189904132Y-57263391D01*
X189902663Y-57313725D01*
X189900318Y-57363797D01*
D14*
X197030650Y-23647300D02*
G75*
G03*
X192880101Y-22613433I-7008049J-19286133D01*
G01*
X210342601Y-40075933D02*
G75*
G03*
X209308735Y-35925385I-20320000J-2857500D01*
G01*
X183014556Y-62219568D02*
G75*
G03*
X187165101Y-63253433I7008045J19286135D01*
G01*
X170736466Y-35925389D02*
G75*
G03*
X169702601Y-40075933I19286255J-7008074D01*
G01*
X188894216Y-53669297D02*
G75*
G03*
X190022601Y-53728433I1128379J10735785D01*
G01*
X209308735Y-49941481D02*
G75*
G03*
X210342601Y-45790933I-19286134J7008048D01*
G01*
X190022601Y-53728434D02*
G75*
G03*
X191150986Y-53669297I0J10794901D01*
G01*
X187165101Y-22613432D02*
G75*
G03*
X183014555Y-23647298I2857500J-20320001D01*
G01*
X191150986Y-32197570D02*
G75*
G03*
X190022601Y-32138433I-1128385J-10735763D01*
G01*
X169702600Y-45790933D02*
G75*
G03*
X170736466Y-49941479I20320001J2857500D01*
G01*
X190022601Y-32138433D02*
G75*
G03*
X188894216Y-32197569I-6J-10794921D01*
G01*
X192880101Y-63253433D02*
G75*
G03*
X197030646Y-62219568I-2857506J20320019D01*
G01*
D11*
%TO.C,SW17_r1*%
X82378800Y-53412400D02*
X82878800Y-52912400D01*
X86878800Y-58912400D02*
X86878800Y-59612400D01*
X91378800Y-54912400D02*
X86878800Y-54912400D01*
X85878800Y-52912400D02*
X86378800Y-53412400D01*
X82878800Y-57412400D02*
X85378800Y-57412400D01*
X86378800Y-54412400D02*
X86378800Y-53412400D01*
X91378800Y-59612400D02*
X91378800Y-59112400D01*
X91378800Y-55512400D02*
X91378800Y-54912400D01*
X86878800Y-59612400D02*
X91378800Y-59612400D01*
X82878800Y-52912400D02*
X85878800Y-52912400D01*
X82378800Y-56912400D02*
X82878800Y-57412400D01*
X86878800Y-58912400D02*
G75*
G03*
X85378800Y-57412400I-1500000J0D01*
G01*
X86378800Y-54412400D02*
G75*
G03*
X86878800Y-54912400I500000J0D01*
G01*
%TO.C,SW11_r1*%
X85853400Y-52319800D02*
X82853400Y-52319800D01*
X77353400Y-49719800D02*
X77353400Y-50319800D01*
X77353400Y-50319800D02*
X81853400Y-50319800D01*
X81853400Y-46319800D02*
X81853400Y-45619800D01*
X81853400Y-45619800D02*
X77353400Y-45619800D01*
X86353400Y-48319800D02*
X85853400Y-47819800D01*
X85853400Y-47819800D02*
X83353400Y-47819800D01*
X82853400Y-52319800D02*
X82353400Y-51819800D01*
X82353400Y-50819800D02*
X82353400Y-51819800D01*
X86353400Y-51819800D02*
X85853400Y-52319800D01*
X77353400Y-45619800D02*
X77353400Y-46119800D01*
X82353400Y-50819800D02*
G75*
G03*
X81853400Y-50319800I-500000J0D01*
G01*
X81853400Y-46319800D02*
G75*
G03*
X83353400Y-47819800I1500000J0D01*
G01*
%TO.C,SW15_r1*%
X127396000Y-74359200D02*
X127396000Y-73759200D01*
X121896000Y-71759200D02*
X122396000Y-72259200D01*
X118896000Y-71759200D02*
X121896000Y-71759200D01*
X118396000Y-72259200D02*
X118896000Y-71759200D01*
X127396000Y-73759200D02*
X122896000Y-73759200D01*
X122896000Y-77759200D02*
X122896000Y-78459200D01*
X127396000Y-78459200D02*
X127396000Y-77959200D01*
X122396000Y-73259200D02*
X122396000Y-72259200D01*
X118396000Y-75759200D02*
X118896000Y-76259200D01*
X122896000Y-78459200D02*
X127396000Y-78459200D01*
X118896000Y-76259200D02*
X121396000Y-76259200D01*
X122896000Y-77759200D02*
G75*
G03*
X121396000Y-76259200I-1500000J0D01*
G01*
X122396000Y-73259200D02*
G75*
G03*
X122896000Y-73759200I500000J0D01*
G01*
%TO.C,SW18_r1*%
X59344800Y-72621000D02*
X63844800Y-72621000D01*
X68344800Y-74121000D02*
X67844800Y-74621000D01*
X64344800Y-73121000D02*
X64344800Y-74121000D01*
X68344800Y-70621000D02*
X67844800Y-70121000D01*
X67844800Y-74621000D02*
X64844800Y-74621000D01*
X64844800Y-74621000D02*
X64344800Y-74121000D01*
X59344800Y-67921000D02*
X59344800Y-68421000D01*
X63844800Y-68621000D02*
X63844800Y-67921000D01*
X59344800Y-72021000D02*
X59344800Y-72621000D01*
X67844800Y-70121000D02*
X65344800Y-70121000D01*
X63844800Y-67921000D02*
X59344800Y-67921000D01*
X64344800Y-73121000D02*
G75*
G03*
X63844800Y-72621000I-500000J0D01*
G01*
X63844800Y-68621000D02*
G75*
G03*
X65344800Y-70121000I1500000J0D01*
G01*
%TO.C,SW6_r1*%
X68844800Y-30159600D02*
X68844800Y-30859600D01*
X64344800Y-28159600D02*
X64844800Y-28659600D01*
X73344800Y-26159600D02*
X68844800Y-26159600D01*
X68844800Y-30859600D02*
X73344800Y-30859600D01*
X64844800Y-28659600D02*
X67344800Y-28659600D01*
X64344800Y-24659600D02*
X64844800Y-24159600D01*
X73344800Y-30859600D02*
X73344800Y-30359600D01*
X73344800Y-26759600D02*
X73344800Y-26159600D01*
X64844800Y-24159600D02*
X67844800Y-24159600D01*
X68344800Y-25659600D02*
X68344800Y-24659600D01*
X67844800Y-24159600D02*
X68344800Y-24659600D01*
X68844800Y-30159600D02*
G75*
G03*
X67344800Y-28659600I-1500000J0D01*
G01*
X68344800Y-25659600D02*
G75*
G03*
X68844800Y-26159600I500000J0D01*
G01*
%TO.C,SW5_r1*%
X85878800Y-18901800D02*
X86378800Y-19401800D01*
X82378800Y-22901800D02*
X82878800Y-23401800D01*
X86878800Y-25601800D02*
X91378800Y-25601800D01*
X91378800Y-20901800D02*
X86878800Y-20901800D01*
X82378800Y-19401800D02*
X82878800Y-18901800D01*
X91378800Y-21501800D02*
X91378800Y-20901800D01*
X82878800Y-18901800D02*
X85878800Y-18901800D01*
X86878800Y-24901800D02*
X86878800Y-25601800D01*
X86378800Y-20401800D02*
X86378800Y-19401800D01*
X91378800Y-25601800D02*
X91378800Y-25101800D01*
X82878800Y-23401800D02*
X85378800Y-23401800D01*
X86378800Y-20401800D02*
G75*
G03*
X86878800Y-20901800I500000J0D01*
G01*
X86878800Y-24901800D02*
G75*
G03*
X85378800Y-23401800I-1500000J0D01*
G01*
%TO.C,SW16_r1*%
X104912800Y-65795800D02*
X104912800Y-66495800D01*
X104912800Y-66495800D02*
X109412800Y-66495800D01*
X100412800Y-60295800D02*
X100912800Y-59795800D01*
X109412800Y-62395800D02*
X109412800Y-61795800D01*
X109412800Y-61795800D02*
X104912800Y-61795800D01*
X104412800Y-61295800D02*
X104412800Y-60295800D01*
X100912800Y-59795800D02*
X103912800Y-59795800D01*
X103912800Y-59795800D02*
X104412800Y-60295800D01*
X109412800Y-66495800D02*
X109412800Y-65995800D01*
X100912800Y-64295800D02*
X103412800Y-64295800D01*
X100412800Y-63795800D02*
X100912800Y-64295800D01*
X104912800Y-65795800D02*
G75*
G03*
X103412800Y-64295800I-1500000J0D01*
G01*
X104412800Y-61295800D02*
G75*
G03*
X104912800Y-61795800I500000J0D01*
G01*
%TO.C,SW4_r1*%
X104887400Y-32434400D02*
X109387400Y-32434400D01*
X109387400Y-32434400D02*
X109387400Y-31934400D01*
X100887400Y-30234400D02*
X103387400Y-30234400D01*
X100887400Y-25734400D02*
X103887400Y-25734400D01*
X104387400Y-27234400D02*
X104387400Y-26234400D01*
X104887400Y-31734400D02*
X104887400Y-32434400D01*
X109387400Y-27734400D02*
X104887400Y-27734400D01*
X109387400Y-28334400D02*
X109387400Y-27734400D01*
X103887400Y-25734400D02*
X104387400Y-26234400D01*
X100387400Y-26234400D02*
X100887400Y-25734400D01*
X100387400Y-29734400D02*
X100887400Y-30234400D01*
X104387400Y-27234400D02*
G75*
G03*
X104887400Y-27734400I500000J0D01*
G01*
X104887400Y-31734400D02*
G75*
G03*
X103387400Y-30234400I-1500000J0D01*
G01*
%TO.C,SW13_r1*%
X50836200Y-49743000D02*
X50836200Y-50443000D01*
X55336200Y-46343000D02*
X55336200Y-45743000D01*
X55336200Y-45743000D02*
X50836200Y-45743000D01*
X50836200Y-50443000D02*
X55336200Y-50443000D01*
X55336200Y-50443000D02*
X55336200Y-49943000D01*
X49836200Y-43743000D02*
X50336200Y-44243000D01*
X50336200Y-45243000D02*
X50336200Y-44243000D01*
X46336200Y-44243000D02*
X46836200Y-43743000D01*
X46836200Y-48243000D02*
X49336200Y-48243000D01*
X46336200Y-47743000D02*
X46836200Y-48243000D01*
X46836200Y-43743000D02*
X49836200Y-43743000D01*
X50836200Y-49743000D02*
G75*
G03*
X49336200Y-48243000I-1500000J0D01*
G01*
X50336200Y-45243000D02*
G75*
G03*
X50836200Y-45743000I500000J0D01*
G01*
%TO.C,SW12_r1*%
X67844800Y-57628400D02*
X64844800Y-57628400D01*
X63844800Y-51628400D02*
X63844800Y-50928400D01*
X64344800Y-56128400D02*
X64344800Y-57128400D01*
X63844800Y-50928400D02*
X59344800Y-50928400D01*
X59344800Y-55028400D02*
X59344800Y-55628400D01*
X67844800Y-53128400D02*
X65344800Y-53128400D01*
X64844800Y-57628400D02*
X64344800Y-57128400D01*
X68344800Y-53628400D02*
X67844800Y-53128400D01*
X68344800Y-57128400D02*
X67844800Y-57628400D01*
X59344800Y-55628400D02*
X63844800Y-55628400D01*
X59344800Y-50928400D02*
X59344800Y-51428400D01*
X63844800Y-51628400D02*
G75*
G03*
X65344800Y-53128400I1500000J0D01*
G01*
X64344800Y-56128400D02*
G75*
G03*
X63844800Y-55628400I-500000J0D01*
G01*
%TO.C,SW3_r1*%
X127396000Y-44474000D02*
X127396000Y-43974000D01*
X127396000Y-39774000D02*
X122896000Y-39774000D01*
X118896000Y-42274000D02*
X121396000Y-42274000D01*
X122896000Y-44474000D02*
X127396000Y-44474000D01*
X118896000Y-37774000D02*
X121896000Y-37774000D01*
X118396000Y-38274000D02*
X118896000Y-37774000D01*
X122896000Y-43774000D02*
X122896000Y-44474000D01*
X121896000Y-37774000D02*
X122396000Y-38274000D01*
X118396000Y-41774000D02*
X118896000Y-42274000D01*
X122396000Y-39274000D02*
X122396000Y-38274000D01*
X127396000Y-40374000D02*
X127396000Y-39774000D01*
X122896000Y-43774000D02*
G75*
G03*
X121396000Y-42274000I-1500000J0D01*
G01*
X122396000Y-39274000D02*
G75*
G03*
X122896000Y-39774000I500000J0D01*
G01*
%TO.C,SW21_r1*%
X50183919Y-92339697D02*
X47769105Y-92986745D01*
X45931987Y-91926084D02*
X45750814Y-91249936D01*
X51702158Y-96073991D02*
X51348605Y-96686363D01*
X50796292Y-92693250D02*
X50183919Y-92339697D01*
X42465306Y-96374918D02*
X42620597Y-96954473D01*
X47579636Y-96143341D02*
X47838455Y-97109267D01*
X41404148Y-92414622D02*
X41533557Y-92897585D01*
X42620597Y-96954473D02*
X46967264Y-95789788D01*
X48450827Y-97462820D02*
X47838455Y-97109267D01*
X45750814Y-91249936D02*
X41404148Y-92414622D01*
X51348605Y-96686363D02*
X48450827Y-97462820D01*
X47579636Y-96143341D02*
G75*
G03*
X46967264Y-95789788I-482963J-129410D01*
G01*
X45931987Y-91926084D02*
G75*
G03*
X47769105Y-92986745I1448889J388228D01*
G01*
%TO.C,SW9_r1*%
X127396000Y-61466600D02*
X127396000Y-60966600D01*
X127396000Y-56766600D02*
X122896000Y-56766600D01*
X118896000Y-54766600D02*
X121896000Y-54766600D01*
X121896000Y-54766600D02*
X122396000Y-55266600D01*
X127396000Y-57366600D02*
X127396000Y-56766600D01*
X118396000Y-58766600D02*
X118896000Y-59266600D01*
X118396000Y-55266600D02*
X118896000Y-54766600D01*
X118896000Y-59266600D02*
X121396000Y-59266600D01*
X122896000Y-61466600D02*
X127396000Y-61466600D01*
X122396000Y-56266600D02*
X122396000Y-55266600D01*
X122896000Y-60766600D02*
X122896000Y-61466600D01*
X122896000Y-60766600D02*
G75*
G03*
X121396000Y-59266600I-1500000J0D01*
G01*
X122396000Y-56266600D02*
G75*
G03*
X122896000Y-56766600I500000J0D01*
G01*
%TO.C,SW20_r1*%
X65572000Y-88610800D02*
X65572000Y-87910800D01*
X66572000Y-94610800D02*
X66072000Y-94110800D01*
X70072000Y-90610800D02*
X69572000Y-90110800D01*
X61072000Y-92610800D02*
X65572000Y-92610800D01*
X69572000Y-90110800D02*
X67072000Y-90110800D01*
X70072000Y-94110800D02*
X69572000Y-94610800D01*
X69572000Y-94610800D02*
X66572000Y-94610800D01*
X61072000Y-87910800D02*
X61072000Y-88410800D01*
X61072000Y-92010800D02*
X61072000Y-92610800D01*
X66072000Y-93110800D02*
X66072000Y-94110800D01*
X65572000Y-87910800D02*
X61072000Y-87910800D01*
X65572000Y-88610800D02*
G75*
G03*
X67072000Y-90110800I1500000J0D01*
G01*
X66072000Y-93110800D02*
G75*
G03*
X65572000Y-92610800I-500000J0D01*
G01*
%TO.C,SW7_r1*%
X55336200Y-33450400D02*
X55336200Y-32950400D01*
X50836200Y-32750400D02*
X50836200Y-33450400D01*
X55336200Y-29350400D02*
X55336200Y-28750400D01*
X46336200Y-27250400D02*
X46836200Y-26750400D01*
X49836200Y-26750400D02*
X50336200Y-27250400D01*
X50836200Y-33450400D02*
X55336200Y-33450400D01*
X46836200Y-26750400D02*
X49836200Y-26750400D01*
X55336200Y-28750400D02*
X50836200Y-28750400D01*
X46336200Y-30750400D02*
X46836200Y-31250400D01*
X50336200Y-28250400D02*
X50336200Y-27250400D01*
X46836200Y-31250400D02*
X49336200Y-31250400D01*
X50336200Y-28250400D02*
G75*
G03*
X50836200Y-28750400I500000J0D01*
G01*
X50836200Y-32750400D02*
G75*
G03*
X49336200Y-31250400I-1500000J0D01*
G01*
D14*
%TO.C,REF\u002A\u002A*%
X76485785Y-32142537D02*
G75*
G03*
X75357400Y-32083400I-1128385J-10735763D01*
G01*
X55037399Y-45735900D02*
G75*
G03*
X56071265Y-49886446I20320001J2857500D01*
G01*
X75357400Y-32083400D02*
G75*
G03*
X74229015Y-32142536I-6J-10794921D01*
G01*
X82365449Y-23592267D02*
G75*
G03*
X78214900Y-22558400I-7008049J-19286133D01*
G01*
X72499900Y-22558399D02*
G75*
G03*
X68349354Y-23592265I2857500J-20320001D01*
G01*
X95677400Y-40020900D02*
G75*
G03*
X94643534Y-35870352I-20320000J-2857500D01*
G01*
X78214900Y-63198400D02*
G75*
G03*
X82365445Y-62164535I-2857506J20320019D01*
G01*
X56071265Y-35870356D02*
G75*
G03*
X55037400Y-40020900I19286255J-7008074D01*
G01*
X74229015Y-53614264D02*
G75*
G03*
X75357400Y-53673400I1128379J10735785D01*
G01*
X68349355Y-62164535D02*
G75*
G03*
X72499900Y-63198400I7008045J19286135D01*
G01*
X75357400Y-53673401D02*
G75*
G03*
X76485785Y-53614264I0J10794901D01*
G01*
X94643534Y-49886448D02*
G75*
G03*
X95677400Y-45735900I-19286134J7008048D01*
G01*
G36*
X77438352Y-58104756D02*
G01*
X77347508Y-58012480D01*
X77333727Y-57998484D01*
X77301866Y-57966131D01*
X77255919Y-57919477D01*
X77197103Y-57859759D01*
X77126636Y-57788214D01*
X77045737Y-57706077D01*
X76955622Y-57614584D01*
X76857510Y-57514973D01*
X76752618Y-57408480D01*
X76642164Y-57296340D01*
X76527365Y-57179791D01*
X76409440Y-57060068D01*
X75562216Y-56199931D01*
X75850584Y-56196838D01*
X76138952Y-56193744D01*
X76941898Y-56996444D01*
X76941898Y-55362886D01*
X77438352Y-55362886D01*
X77438352Y-58104756D01*
G37*
D13*
X77438352Y-58104756D02*
X77347508Y-58012480D01*
X77333727Y-57998484D01*
X77301866Y-57966131D01*
X77255919Y-57919477D01*
X77197103Y-57859759D01*
X77126636Y-57788214D01*
X77045737Y-57706077D01*
X76955622Y-57614584D01*
X76857510Y-57514973D01*
X76752618Y-57408480D01*
X76642164Y-57296340D01*
X76527365Y-57179791D01*
X76409440Y-57060068D01*
X75562216Y-56199931D01*
X75850584Y-56196838D01*
X76138952Y-56193744D01*
X76941898Y-56996444D01*
X76941898Y-55362886D01*
X77438352Y-55362886D01*
X77438352Y-58104756D01*
G36*
X76144584Y-57395069D02*
G01*
X76156813Y-57405117D01*
X76182295Y-57428737D01*
X76218442Y-57463450D01*
X76262666Y-57506775D01*
X76312379Y-57556230D01*
X76473414Y-57717574D01*
X76439532Y-57755389D01*
X76436355Y-57758881D01*
X76414487Y-57782090D01*
X76380141Y-57817836D01*
X76336325Y-57863016D01*
X76286042Y-57914529D01*
X76232300Y-57969272D01*
X76058950Y-58145341D01*
X75438936Y-58145341D01*
X75467237Y-58111706D01*
X75469530Y-58109015D01*
X75490198Y-58085786D01*
X75522956Y-58049946D01*
X75565816Y-58003601D01*
X75616788Y-57948858D01*
X75673884Y-57887823D01*
X75735114Y-57822604D01*
X75798489Y-57755306D01*
X75862022Y-57688036D01*
X75923721Y-57622901D01*
X75981600Y-57562007D01*
X76033667Y-57507461D01*
X76077936Y-57461369D01*
X76112415Y-57425838D01*
X76135118Y-57402975D01*
X76144053Y-57394886D01*
X76144584Y-57395069D01*
G37*
X76144584Y-57395069D02*
X76156813Y-57405117D01*
X76182295Y-57428737D01*
X76218442Y-57463450D01*
X76262666Y-57506775D01*
X76312379Y-57556230D01*
X76473414Y-57717574D01*
X76439532Y-57755389D01*
X76436355Y-57758881D01*
X76414487Y-57782090D01*
X76380141Y-57817836D01*
X76336325Y-57863016D01*
X76286042Y-57914529D01*
X76232300Y-57969272D01*
X76058950Y-58145341D01*
X75438936Y-58145341D01*
X75467237Y-58111706D01*
X75469530Y-58109015D01*
X75490198Y-58085786D01*
X75522956Y-58049946D01*
X75565816Y-58003601D01*
X75616788Y-57948858D01*
X75673884Y-57887823D01*
X75735114Y-57822604D01*
X75798489Y-57755306D01*
X75862022Y-57688036D01*
X75923721Y-57622901D01*
X75981600Y-57562007D01*
X76033667Y-57507461D01*
X76077936Y-57461369D01*
X76112415Y-57425838D01*
X76135118Y-57402975D01*
X76144053Y-57394886D01*
X76144584Y-57395069D01*
G36*
X75235117Y-57308764D02*
G01*
X75232504Y-57337159D01*
X75223635Y-57383609D01*
X75186082Y-57510769D01*
X75130916Y-57636632D01*
X75061224Y-57754814D01*
X74980093Y-57858934D01*
X74971699Y-57868100D01*
X74863387Y-57968426D01*
X74740967Y-58052423D01*
X74607794Y-58118402D01*
X74467226Y-58164677D01*
X74322618Y-58189558D01*
X74222372Y-58194041D01*
X74073951Y-58182642D01*
X73930532Y-58150389D01*
X73794296Y-58098366D01*
X73667421Y-58027652D01*
X73552088Y-57939330D01*
X73450475Y-57834481D01*
X73364763Y-57714188D01*
X73307508Y-57607269D01*
X73254363Y-57468033D01*
X73223007Y-57323469D01*
X73216503Y-57227105D01*
X73711742Y-57227105D01*
X73712024Y-57232395D01*
X73716342Y-57287698D01*
X73723699Y-57329990D01*
X73736344Y-57368598D01*
X73756525Y-57412844D01*
X73778013Y-57451171D01*
X73819498Y-57509965D01*
X73867555Y-57565421D01*
X73916878Y-57611615D01*
X73962164Y-57642619D01*
X73978331Y-57650395D01*
X74019236Y-57667755D01*
X74062233Y-57683841D01*
X74135060Y-57703129D01*
X74238761Y-57711650D01*
X74340302Y-57698856D01*
X74437088Y-57665724D01*
X74526520Y-57613231D01*
X74606001Y-57542354D01*
X74672935Y-57454071D01*
X74701589Y-57399926D01*
X74732021Y-57305907D01*
X74742593Y-57208358D01*
X74734287Y-57110410D01*
X74708085Y-57015197D01*
X74664972Y-56925850D01*
X74605929Y-56845504D01*
X74531939Y-56777290D01*
X74443987Y-56724341D01*
X74429984Y-56718055D01*
X74331638Y-56687430D01*
X74230286Y-56677248D01*
X74129382Y-56686568D01*
X74032383Y-56714446D01*
X73942747Y-56759942D01*
X73863930Y-56822112D01*
X73799388Y-56900016D01*
X73781618Y-56928545D01*
X73737966Y-57021968D01*
X73715110Y-57119860D01*
X73711742Y-57227105D01*
X73216503Y-57227105D01*
X73212716Y-57170991D01*
X73216277Y-57081321D01*
X73238958Y-56931042D01*
X73281710Y-56789073D01*
X73343520Y-56657088D01*
X73423378Y-56536763D01*
X73520272Y-56429774D01*
X73633192Y-56337794D01*
X73761125Y-56262501D01*
X73830976Y-56229862D01*
X73906114Y-56200645D01*
X73977766Y-56181153D01*
X74054249Y-56169216D01*
X74143884Y-56162664D01*
X74161696Y-56161996D01*
X74300897Y-56168434D01*
X74431280Y-56196110D01*
X74553496Y-56245214D01*
X74668193Y-56315936D01*
X74692327Y-56333138D01*
X74717173Y-56349481D01*
X74729604Y-56355795D01*
X74730512Y-56351765D01*
X74731961Y-56327958D01*
X74733288Y-56284835D01*
X74734457Y-56224760D01*
X74735433Y-56150098D01*
X74736183Y-56063212D01*
X74736672Y-55966467D01*
X74736864Y-55862227D01*
X74737012Y-55368659D01*
X75244716Y-55878685D01*
X75244629Y-56570399D01*
X75244626Y-56582135D01*
X75244365Y-56732609D01*
X75243701Y-56869881D01*
X75242657Y-56992537D01*
X75241254Y-57099166D01*
X75239515Y-57188355D01*
X75238931Y-57208358D01*
X75237462Y-57258692D01*
X75235117Y-57308764D01*
G37*
X75235117Y-57308764D02*
X75232504Y-57337159D01*
X75223635Y-57383609D01*
X75186082Y-57510769D01*
X75130916Y-57636632D01*
X75061224Y-57754814D01*
X74980093Y-57858934D01*
X74971699Y-57868100D01*
X74863387Y-57968426D01*
X74740967Y-58052423D01*
X74607794Y-58118402D01*
X74467226Y-58164677D01*
X74322618Y-58189558D01*
X74222372Y-58194041D01*
X74073951Y-58182642D01*
X73930532Y-58150389D01*
X73794296Y-58098366D01*
X73667421Y-58027652D01*
X73552088Y-57939330D01*
X73450475Y-57834481D01*
X73364763Y-57714188D01*
X73307508Y-57607269D01*
X73254363Y-57468033D01*
X73223007Y-57323469D01*
X73216503Y-57227105D01*
X73711742Y-57227105D01*
X73712024Y-57232395D01*
X73716342Y-57287698D01*
X73723699Y-57329990D01*
X73736344Y-57368598D01*
X73756525Y-57412844D01*
X73778013Y-57451171D01*
X73819498Y-57509965D01*
X73867555Y-57565421D01*
X73916878Y-57611615D01*
X73962164Y-57642619D01*
X73978331Y-57650395D01*
X74019236Y-57667755D01*
X74062233Y-57683841D01*
X74135060Y-57703129D01*
X74238761Y-57711650D01*
X74340302Y-57698856D01*
X74437088Y-57665724D01*
X74526520Y-57613231D01*
X74606001Y-57542354D01*
X74672935Y-57454071D01*
X74701589Y-57399926D01*
X74732021Y-57305907D01*
X74742593Y-57208358D01*
X74734287Y-57110410D01*
X74708085Y-57015197D01*
X74664972Y-56925850D01*
X74605929Y-56845504D01*
X74531939Y-56777290D01*
X74443987Y-56724341D01*
X74429984Y-56718055D01*
X74331638Y-56687430D01*
X74230286Y-56677248D01*
X74129382Y-56686568D01*
X74032383Y-56714446D01*
X73942747Y-56759942D01*
X73863930Y-56822112D01*
X73799388Y-56900016D01*
X73781618Y-56928545D01*
X73737966Y-57021968D01*
X73715110Y-57119860D01*
X73711742Y-57227105D01*
X73216503Y-57227105D01*
X73212716Y-57170991D01*
X73216277Y-57081321D01*
X73238958Y-56931042D01*
X73281710Y-56789073D01*
X73343520Y-56657088D01*
X73423378Y-56536763D01*
X73520272Y-56429774D01*
X73633192Y-56337794D01*
X73761125Y-56262501D01*
X73830976Y-56229862D01*
X73906114Y-56200645D01*
X73977766Y-56181153D01*
X74054249Y-56169216D01*
X74143884Y-56162664D01*
X74161696Y-56161996D01*
X74300897Y-56168434D01*
X74431280Y-56196110D01*
X74553496Y-56245214D01*
X74668193Y-56315936D01*
X74692327Y-56333138D01*
X74717173Y-56349481D01*
X74729604Y-56355795D01*
X74730512Y-56351765D01*
X74731961Y-56327958D01*
X74733288Y-56284835D01*
X74734457Y-56224760D01*
X74735433Y-56150098D01*
X74736183Y-56063212D01*
X74736672Y-55966467D01*
X74736864Y-55862227D01*
X74737012Y-55368659D01*
X75244716Y-55878685D01*
X75244629Y-56570399D01*
X75244626Y-56582135D01*
X75244365Y-56732609D01*
X75243701Y-56869881D01*
X75242657Y-56992537D01*
X75241254Y-57099166D01*
X75239515Y-57188355D01*
X75238931Y-57208358D01*
X75237462Y-57258692D01*
X75235117Y-57308764D01*
D11*
%TO.C,RSW2*%
X23035200Y-88471000D02*
X22785200Y-88471000D01*
X19535200Y-82471000D02*
X19785200Y-82471000D01*
X19535200Y-88471000D02*
X19535200Y-82471000D01*
X23035200Y-82471000D02*
X23035200Y-88471000D01*
X22785200Y-82471000D02*
X23035200Y-82471000D01*
X19785200Y-88471000D02*
X19535200Y-88471000D01*
%TO.C,SW13*%
X219048401Y-49842033D02*
G75*
G03*
X217548401Y-48342033I-1500000J0D01*
G01*
X218548401Y-45342033D02*
G75*
G03*
X219048401Y-45842033I500000J0D01*
G01*
X218548401Y-45342033D02*
X218548401Y-44342033D01*
X215048401Y-43842033D02*
X218048401Y-43842033D01*
X214548401Y-47842033D02*
X215048401Y-48342033D01*
X215048401Y-48342033D02*
X217548401Y-48342033D01*
X219048401Y-50542033D02*
X223548401Y-50542033D01*
X223548401Y-50542033D02*
X223548401Y-50042033D01*
X218048401Y-43842033D02*
X218548401Y-44342033D01*
X214548401Y-44342033D02*
X215048401Y-43842033D01*
X219048401Y-49842033D02*
X219048401Y-50542033D01*
X223548401Y-46442033D02*
X223548401Y-45842033D01*
X223548401Y-45842033D02*
X219048401Y-45842033D01*
%TO.C,SW22*%
X231006135Y-102382599D02*
G75*
G03*
X230883347Y-101686235I-409576J286788D01*
G01*
X233177653Y-98409626D02*
G75*
G03*
X233546016Y-100498719I1228728J-860365D01*
G01*
X233177653Y-98409626D02*
X233579156Y-97836220D01*
X231006135Y-102382599D02*
X230432558Y-103201751D01*
X227541309Y-98613649D02*
X227197163Y-99105141D01*
X233579156Y-97836220D02*
X229892972Y-95255126D01*
X235593896Y-101932660D02*
X233546016Y-100498719D01*
X235716684Y-102629024D02*
X235593896Y-101932660D01*
X229892972Y-95255126D02*
X229606184Y-95664702D01*
X227197163Y-99105141D02*
X230883347Y-101686235D01*
X233709167Y-105496057D02*
X233012802Y-105618844D01*
X230555346Y-103898115D02*
X230432558Y-103201751D01*
X233012802Y-105618844D02*
X230555346Y-103898115D01*
%TO.C,SW19*%
X218548401Y-62461633D02*
G75*
G03*
X219048401Y-62961633I500000J0D01*
G01*
X219048401Y-66961633D02*
G75*
G03*
X217548401Y-65461633I-1500000J0D01*
G01*
X218548401Y-62461633D02*
X218548401Y-61461633D01*
X214548401Y-64961633D02*
X215048401Y-65461633D01*
X223548401Y-62961633D02*
X219048401Y-62961633D01*
X218048401Y-60961633D02*
X218548401Y-61461633D01*
X219048401Y-67661633D02*
X223548401Y-67661633D01*
X214548401Y-61461633D02*
X215048401Y-60961633D01*
X215048401Y-60961633D02*
X218048401Y-60961633D01*
X215048401Y-65461633D02*
X217548401Y-65461633D01*
X223548401Y-67661633D02*
X223548401Y-67161633D01*
X223548401Y-63561633D02*
X223548401Y-62961633D01*
X219048401Y-66961633D02*
X219048401Y-67661633D01*
%TO.C,SW19_r1*%
X46310800Y-61261000D02*
X46810800Y-60761000D01*
X49810800Y-60761000D02*
X50310800Y-61261000D01*
X50310800Y-62261000D02*
X50310800Y-61261000D01*
X55310800Y-63361000D02*
X55310800Y-62761000D01*
X46310800Y-64761000D02*
X46810800Y-65261000D01*
X46810800Y-60761000D02*
X49810800Y-60761000D01*
X55310800Y-62761000D02*
X50810800Y-62761000D01*
X50810800Y-66761000D02*
X50810800Y-67461000D01*
X46810800Y-65261000D02*
X49310800Y-65261000D01*
X55310800Y-67461000D02*
X55310800Y-66961000D01*
X50810800Y-67461000D02*
X55310800Y-67461000D01*
X50310800Y-62261000D02*
G75*
G03*
X50810800Y-62761000I500000J0D01*
G01*
X50810800Y-66761000D02*
G75*
G03*
X49310800Y-65261000I-1500000J0D01*
G01*
%TO.C,Bat+1*%
X233575801Y-46393833D02*
X233575801Y-48393833D01*
X231575801Y-46393833D02*
X233575801Y-46393833D01*
X231575801Y-48393833D02*
X231575801Y-46393833D01*
X233575801Y-48393833D02*
X231575801Y-48393833D01*
%TO.C,SW10_r1*%
X100887400Y-47277800D02*
X103387400Y-47277800D01*
X100387400Y-46777800D02*
X100887400Y-47277800D01*
X100387400Y-43277800D02*
X100887400Y-42777800D01*
X100887400Y-42777800D02*
X103887400Y-42777800D01*
X109387400Y-44777800D02*
X104887400Y-44777800D01*
X104387400Y-44277800D02*
X104387400Y-43277800D01*
X103887400Y-42777800D02*
X104387400Y-43277800D01*
X109387400Y-49477800D02*
X109387400Y-48977800D01*
X104887400Y-48777800D02*
X104887400Y-49477800D01*
X109387400Y-45377800D02*
X109387400Y-44777800D01*
X104887400Y-49477800D02*
X109387400Y-49477800D01*
X104387400Y-44277800D02*
G75*
G03*
X104887400Y-44777800I500000J0D01*
G01*
X104887400Y-48777800D02*
G75*
G03*
X103387400Y-47277800I-1500000J0D01*
G01*
%TO.C,SW22_r1*%
X24537211Y-95618644D02*
X25233575Y-95741432D01*
X29370548Y-94675854D02*
X29772051Y-95249261D01*
X33458236Y-92668167D02*
X33171447Y-92258591D01*
X26379878Y-91276458D02*
X25806302Y-90457306D01*
X30762426Y-88818152D02*
X27076242Y-91399246D01*
X31106572Y-89309643D02*
X30762426Y-88818152D01*
X25233575Y-95741432D02*
X27281455Y-94307491D01*
X29772051Y-95249261D02*
X33458236Y-92668167D01*
X25109937Y-90334519D02*
X25806302Y-90457306D01*
X22652481Y-92055248D02*
X25109937Y-90334519D01*
X22529693Y-92751612D02*
X22652481Y-92055248D01*
X29370548Y-94675854D02*
G75*
G03*
X27281455Y-94307491I-1228728J-860365D01*
G01*
X26379878Y-91276458D02*
G75*
G03*
X27076242Y-91399246I409576J286788D01*
G01*
%TO.C,BatGND1*%
X245717001Y-48444633D02*
X243717001Y-48444633D01*
X245717001Y-46444633D02*
X245717001Y-48444633D01*
X243717001Y-46444633D02*
X245717001Y-46444633D01*
X243717001Y-48444633D02*
X243717001Y-46444633D01*
%TO.C,Bat+r1*%
X19040600Y-46574200D02*
X21040600Y-46574200D01*
X19040600Y-48574200D02*
X19040600Y-46574200D01*
X21040600Y-48574200D02*
X19040600Y-48574200D01*
X21040600Y-46574200D02*
X21040600Y-48574200D01*
%TO.C,SW7*%
X218548401Y-28222433D02*
G75*
G03*
X219048401Y-28722433I500000J0D01*
G01*
X219048401Y-32722433D02*
G75*
G03*
X217548401Y-31222433I-1500000J0D01*
G01*
X215048401Y-31222433D02*
X217548401Y-31222433D01*
X214548401Y-27222433D02*
X215048401Y-26722433D01*
X223548401Y-33422433D02*
X223548401Y-32922433D01*
X219048401Y-32722433D02*
X219048401Y-33422433D01*
X219048401Y-33422433D02*
X223548401Y-33422433D01*
X223548401Y-28722433D02*
X219048401Y-28722433D01*
X218548401Y-28222433D02*
X218548401Y-27222433D01*
X223548401Y-29322433D02*
X223548401Y-28722433D01*
X218048401Y-26722433D02*
X218548401Y-27222433D01*
X214548401Y-30722433D02*
X215048401Y-31222433D01*
X215048401Y-26722433D02*
X218048401Y-26722433D01*
%TO.C,BatGND4*%
X31207200Y-48625000D02*
X31207200Y-46625000D01*
X31207200Y-46625000D02*
X33207200Y-46625000D01*
X33207200Y-46625000D02*
X33207200Y-48625000D01*
X33207200Y-48625000D02*
X31207200Y-48625000D01*
%TO.C,D7*%
X150500401Y-66578833D02*
X150500401Y-67578833D01*
X149500401Y-67578833D02*
X150400401Y-67078833D01*
X150400401Y-67078833D02*
X149500401Y-66578833D01*
X147300401Y-66328833D02*
X147300401Y-67828833D01*
X152700401Y-67828833D02*
X147300401Y-67828833D01*
X152700401Y-66328833D02*
X152700401Y-67828833D01*
X149500401Y-66578833D02*
X149500401Y-67578833D01*
X147300401Y-66328833D02*
X152700401Y-66328833D01*
%TO.C,D18*%
X192332801Y-82725233D02*
X191432801Y-82225233D01*
X191432801Y-82225233D02*
X191432801Y-83225233D01*
X192432801Y-82225233D02*
X192432801Y-83225233D01*
X194632801Y-83475233D02*
X189232801Y-83475233D01*
X191432801Y-83225233D02*
X192332801Y-82725233D01*
X189232801Y-81975233D02*
X189232801Y-83475233D01*
X194632801Y-81975233D02*
X194632801Y-83475233D01*
X189232801Y-81975233D02*
X194632801Y-81975233D01*
%TO.C,Dr16*%
X63390800Y-62445200D02*
X68790800Y-62445200D01*
X65590800Y-63695200D02*
X65590800Y-62695200D01*
X68790800Y-63945200D02*
X68790800Y-62445200D01*
X66590800Y-63695200D02*
X66590800Y-62695200D01*
X65690800Y-63195200D02*
X66590800Y-63695200D01*
X66590800Y-62695200D02*
X65690800Y-63195200D01*
X63390800Y-63945200D02*
X63390800Y-62445200D01*
X68790800Y-63945200D02*
X63390800Y-63945200D01*
%TO.C,Dr15*%
X90380800Y-65443800D02*
X90380800Y-63943800D01*
X88180800Y-65193800D02*
X88180800Y-64193800D01*
X84980800Y-65443800D02*
X84980800Y-63943800D01*
X84980800Y-63943800D02*
X90380800Y-63943800D01*
X87180800Y-65193800D02*
X87180800Y-64193800D01*
X88180800Y-64193800D02*
X87280800Y-64693800D01*
X90380800Y-65443800D02*
X84980800Y-65443800D01*
X87280800Y-64693800D02*
X88180800Y-65193800D01*
%TO.C,Dr3*%
X85387200Y-31509400D02*
X85387200Y-30009400D01*
X85387200Y-30009400D02*
X90787200Y-30009400D01*
X90787200Y-31509400D02*
X85387200Y-31509400D01*
X87587200Y-31259400D02*
X87587200Y-30259400D01*
X88587200Y-31259400D02*
X88587200Y-30259400D01*
X88587200Y-30259400D02*
X87687200Y-30759400D01*
X87687200Y-30759400D02*
X88587200Y-31259400D01*
X90787200Y-31509400D02*
X90787200Y-30009400D01*
%TO.C,Dr18*%
X61990800Y-82409600D02*
X67390800Y-82409600D01*
X67390800Y-83909600D02*
X61990800Y-83909600D01*
X65190800Y-83659600D02*
X65190800Y-82659600D01*
X67390800Y-83909600D02*
X67390800Y-82409600D01*
X65190800Y-82659600D02*
X64290800Y-83159600D01*
X61990800Y-83909600D02*
X61990800Y-82409600D01*
X64190800Y-83659600D02*
X64190800Y-82659600D01*
X64290800Y-83159600D02*
X65190800Y-83659600D01*
%TO.C,Dr9*%
X86672400Y-41593200D02*
X81272400Y-41593200D01*
X81272400Y-40093200D02*
X86672400Y-40093200D01*
X83572400Y-40843200D02*
X84472400Y-41343200D01*
X83472400Y-41343200D02*
X83472400Y-40343200D01*
X86672400Y-41593200D02*
X86672400Y-40093200D01*
X84472400Y-40343200D02*
X83572400Y-40843200D01*
X84472400Y-41343200D02*
X84472400Y-40343200D01*
X81272400Y-41593200D02*
X81272400Y-40093200D01*
%TO.C,D11*%
X218290401Y-56372033D02*
X218290401Y-57872033D01*
X221490401Y-56622033D02*
X221490401Y-57622033D01*
X223690401Y-56372033D02*
X223690401Y-57872033D01*
X220490401Y-57622033D02*
X221390401Y-57122033D01*
X218290401Y-56372033D02*
X223690401Y-56372033D01*
X220490401Y-56622033D02*
X220490401Y-57622033D01*
X221390401Y-57122033D02*
X220490401Y-56622033D01*
X223690401Y-57872033D02*
X218290401Y-57872033D01*
%TO.C,D17*%
X224427001Y-73440833D02*
X224427001Y-74940833D01*
X222227001Y-73690833D02*
X222227001Y-74690833D01*
X219027001Y-73440833D02*
X224427001Y-73440833D01*
X219027001Y-73440833D02*
X219027001Y-74940833D01*
X221227001Y-73690833D02*
X221227001Y-74690833D01*
X221227001Y-74690833D02*
X222127001Y-74190833D01*
X224427001Y-74940833D02*
X219027001Y-74940833D01*
X222127001Y-74190833D02*
X221227001Y-73690833D01*
%TO.C,D15*%
X184727201Y-65918433D02*
X184727201Y-66918433D01*
X185727201Y-65918433D02*
X185727201Y-66918433D01*
X182527201Y-65668433D02*
X182527201Y-67168433D01*
X185627201Y-66418433D02*
X184727201Y-65918433D01*
X182527201Y-65668433D02*
X187927201Y-65668433D01*
X187927201Y-67168433D02*
X182527201Y-67168433D01*
X184727201Y-66918433D02*
X185627201Y-66418433D01*
X187927201Y-65668433D02*
X187927201Y-67168433D01*
%TO.C,D2*%
X155580801Y-28940033D02*
X160980801Y-28940033D01*
X160980801Y-28940033D02*
X160980801Y-30440033D01*
X158780801Y-29190033D02*
X158780801Y-30190033D01*
X160980801Y-30440033D02*
X155580801Y-30440033D01*
X157780801Y-29190033D02*
X157780801Y-30190033D01*
X157780801Y-30190033D02*
X158680801Y-29690033D01*
X158680801Y-29690033D02*
X157780801Y-29190033D01*
X155580801Y-28940033D02*
X155580801Y-30440033D01*
%TO.C,Dr4*%
X69527800Y-36669600D02*
X69527800Y-35669600D01*
X69627800Y-36169600D02*
X70527800Y-36669600D01*
X70527800Y-35669600D02*
X69627800Y-36169600D01*
X67327800Y-36919600D02*
X67327800Y-35419600D01*
X67327800Y-35419600D02*
X72727800Y-35419600D01*
X72727800Y-36919600D02*
X72727800Y-35419600D01*
X72727800Y-36919600D02*
X67327800Y-36919600D01*
X70527800Y-36669600D02*
X70527800Y-35669600D01*
%TO.C,D13*%
X152395601Y-84108833D02*
X152395601Y-85608833D01*
X149195601Y-84358833D02*
X149195601Y-85358833D01*
X150095601Y-84858833D02*
X149195601Y-84358833D01*
X152395601Y-85608833D02*
X146995601Y-85608833D01*
X146995601Y-84108833D02*
X146995601Y-85608833D01*
X146995601Y-84108833D02*
X152395601Y-84108833D01*
X150195601Y-84358833D02*
X150195601Y-85358833D01*
X149195601Y-85358833D02*
X150095601Y-84858833D01*
%TO.C,Dr10*%
X63594000Y-45706600D02*
X68994000Y-45706600D01*
X66794000Y-46956600D02*
X66794000Y-45956600D01*
X68994000Y-47206600D02*
X63594000Y-47206600D01*
X68994000Y-47206600D02*
X68994000Y-45706600D01*
X66794000Y-45956600D02*
X65894000Y-46456600D01*
X63594000Y-47206600D02*
X63594000Y-45706600D01*
X65894000Y-46456600D02*
X66794000Y-46956600D01*
X65794000Y-46956600D02*
X65794000Y-45956600D01*
D10*
%TO.C,SW_POWER1*%
X235745601Y-46926233D02*
X241445601Y-46926233D01*
X235145601Y-48726233D02*
X235145601Y-47936233D01*
X237195601Y-46926233D02*
X237195601Y-45636233D01*
X238495601Y-45636233D02*
X238495601Y-46926233D01*
X242045601Y-47936233D02*
X242045601Y-48726233D01*
X238495601Y-45636233D02*
X238295601Y-45426233D01*
X239995601Y-49776233D02*
X240195601Y-49776233D01*
X236995601Y-49776233D02*
X238695601Y-49776233D01*
X237395601Y-45426233D02*
X238295601Y-45426233D01*
X237195601Y-45636233D02*
X237395601Y-45426233D01*
D11*
%TO.C,D3*%
X176637001Y-22636833D02*
X176637001Y-23636833D01*
X173437001Y-22386833D02*
X178837001Y-22386833D01*
X175637001Y-23636833D02*
X176537001Y-23136833D01*
X178837001Y-23886833D02*
X173437001Y-23886833D01*
X176537001Y-23136833D02*
X175637001Y-22636833D01*
X175637001Y-22636833D02*
X175637001Y-23636833D01*
X178837001Y-22386833D02*
X178837001Y-23886833D01*
X173437001Y-22386833D02*
X173437001Y-23886833D01*
%TO.C,Dr11*%
X54871600Y-56579200D02*
X54871600Y-55079200D01*
X52671600Y-56329200D02*
X52671600Y-55329200D01*
X49471600Y-56579200D02*
X49471600Y-55079200D01*
X54871600Y-56579200D02*
X49471600Y-56579200D01*
X49471600Y-55079200D02*
X54871600Y-55079200D01*
X51771600Y-55829200D02*
X52671600Y-56329200D01*
X52671600Y-55329200D02*
X51771600Y-55829200D01*
X51671600Y-56329200D02*
X51671600Y-55329200D01*
%TO.C,Dr2*%
X105746600Y-37769800D02*
X106646600Y-38269800D01*
X108846600Y-38519800D02*
X108846600Y-37019800D01*
X106646600Y-37269800D02*
X105746600Y-37769800D01*
X105646600Y-38269800D02*
X105646600Y-37269800D01*
X103446600Y-38519800D02*
X103446600Y-37019800D01*
X103446600Y-37019800D02*
X108846600Y-37019800D01*
X106646600Y-38269800D02*
X106646600Y-37269800D01*
X108846600Y-38519800D02*
X103446600Y-38519800D01*
%TO.C,D20*%
X232222868Y-90622711D02*
X236646289Y-93720023D01*
X234332057Y-93015162D02*
X233881608Y-92089367D01*
X232222868Y-90622711D02*
X231362503Y-91851439D01*
X236646289Y-93720023D02*
X235785924Y-94948751D01*
X233881608Y-92089367D02*
X233308032Y-92908519D01*
X235785924Y-94948751D02*
X231362503Y-91851439D01*
X234700760Y-92662943D02*
X234127184Y-93482095D01*
X233308032Y-92908519D02*
X234332057Y-93015162D01*
%TO.C,D16*%
X205885001Y-71154833D02*
X205885001Y-72654833D01*
X202685001Y-72404833D02*
X203585001Y-71904833D01*
X200485001Y-71154833D02*
X200485001Y-72654833D01*
X203585001Y-71904833D02*
X202685001Y-71404833D01*
X203685001Y-71404833D02*
X203685001Y-72404833D01*
X202685001Y-71404833D02*
X202685001Y-72404833D01*
X205885001Y-72654833D02*
X200485001Y-72654833D01*
X200485001Y-71154833D02*
X205885001Y-71154833D01*
%TO.C,Dr20*%
X26790512Y-86991590D02*
X31213933Y-83894278D01*
X29104744Y-86286729D02*
X30128769Y-86180086D01*
X30128769Y-86180086D02*
X29555193Y-85360934D01*
X29309617Y-86753662D02*
X28736041Y-85934510D01*
X29555193Y-85360934D02*
X29104744Y-86286729D01*
X32074298Y-85123006D02*
X27650877Y-88220318D01*
X27650877Y-88220318D02*
X26790512Y-86991590D01*
X32074298Y-85123006D02*
X31213933Y-83894278D01*
%TO.C,Dr7*%
X123807600Y-67302000D02*
X123807600Y-66302000D01*
X124807600Y-66302000D02*
X123907600Y-66802000D01*
X127007600Y-67552000D02*
X127007600Y-66052000D01*
X121607600Y-66052000D02*
X127007600Y-66052000D01*
X123907600Y-66802000D02*
X124807600Y-67302000D01*
X121607600Y-67552000D02*
X121607600Y-66052000D01*
X124807600Y-67302000D02*
X124807600Y-66302000D01*
X127007600Y-67552000D02*
X121607600Y-67552000D01*
%TO.C,Dr5*%
X52341400Y-39133400D02*
X52341400Y-38133400D01*
X52341400Y-38133400D02*
X51441400Y-38633400D01*
X54541400Y-39383400D02*
X49141400Y-39383400D01*
X49141400Y-39383400D02*
X49141400Y-37883400D01*
X49141400Y-37883400D02*
X54541400Y-37883400D01*
X51441400Y-38633400D02*
X52341400Y-39133400D01*
X54541400Y-39383400D02*
X54541400Y-37883400D01*
X51341400Y-39133400D02*
X51341400Y-38133400D01*
%TO.C,D19*%
X214229689Y-85040765D02*
X213489766Y-84324865D01*
X213230947Y-85290790D02*
X214229689Y-85040765D01*
X216257204Y-86360493D02*
X211041205Y-84962870D01*
X216645433Y-84911604D02*
X216257204Y-86360493D01*
X211429434Y-83513981D02*
X211041205Y-84962870D01*
X213489766Y-84324865D02*
X213230947Y-85290790D01*
X214455691Y-84583684D02*
X214196872Y-85549609D01*
X211429434Y-83513981D02*
X216645433Y-84911604D01*
%TO.C,Dr1*%
X124655200Y-49157000D02*
X123755200Y-49657000D01*
X121455200Y-48907000D02*
X126855200Y-48907000D01*
X121455200Y-50407000D02*
X121455200Y-48907000D01*
X126855200Y-50407000D02*
X126855200Y-48907000D01*
X123655200Y-50157000D02*
X123655200Y-49157000D01*
X126855200Y-50407000D02*
X121455200Y-50407000D01*
X124655200Y-50157000D02*
X124655200Y-49157000D01*
X123755200Y-49657000D02*
X124655200Y-50157000D01*
D10*
%TO.C,SW_POWERR1*%
X24762000Y-45511800D02*
X24962000Y-45301800D01*
X26062000Y-45511800D02*
X25862000Y-45301800D01*
X26062000Y-45511800D02*
X26062000Y-46801800D01*
X23312000Y-46801800D02*
X29012000Y-46801800D01*
X24962000Y-45301800D02*
X25862000Y-45301800D01*
X24562000Y-49651800D02*
X26262000Y-49651800D01*
X27562000Y-49651800D02*
X27762000Y-49651800D01*
X24762000Y-46801800D02*
X24762000Y-45511800D01*
X22712000Y-48601800D02*
X22712000Y-47811800D01*
X29612000Y-47811800D02*
X29612000Y-48601800D01*
D11*
%TO.C,Dr14*%
X108668800Y-72352600D02*
X103268800Y-72352600D01*
X105568800Y-71602600D02*
X106468800Y-72102600D01*
X108668800Y-72352600D02*
X108668800Y-70852600D01*
X105468800Y-72102600D02*
X105468800Y-71102600D01*
X103268800Y-70852600D02*
X108668800Y-70852600D01*
X103268800Y-72352600D02*
X103268800Y-70852600D01*
X106468800Y-71102600D02*
X105568800Y-71602600D01*
X106468800Y-72102600D02*
X106468800Y-71102600D01*
%TO.C,D10*%
X196055201Y-44078433D02*
X196055201Y-45578433D01*
X193755201Y-44828433D02*
X192855201Y-44328433D01*
X190655201Y-44078433D02*
X190655201Y-45578433D01*
X193855201Y-44328433D02*
X193855201Y-45328433D01*
X192855201Y-44328433D02*
X192855201Y-45328433D01*
X196055201Y-45578433D02*
X190655201Y-45578433D01*
X192855201Y-45328433D02*
X193755201Y-44828433D01*
X190655201Y-44078433D02*
X196055201Y-44078433D01*
%TO.C,D9*%
X182476401Y-47075633D02*
X182476401Y-48575633D01*
X185576401Y-47825633D02*
X184676401Y-47325633D01*
X187876401Y-47075633D02*
X187876401Y-48575633D01*
X182476401Y-47075633D02*
X187876401Y-47075633D01*
X184676401Y-47325633D02*
X184676401Y-48325633D01*
X187876401Y-48575633D02*
X182476401Y-48575633D01*
X184676401Y-48325633D02*
X185576401Y-47825633D01*
X185676401Y-47325633D02*
X185676401Y-48325633D01*
%TO.C,Dr13*%
X124147200Y-82583400D02*
X123247200Y-83083400D01*
X123147200Y-83583400D02*
X123147200Y-82583400D01*
X120947200Y-83833400D02*
X120947200Y-82333400D01*
X126347200Y-83833400D02*
X120947200Y-83833400D01*
X123247200Y-83083400D02*
X124147200Y-83583400D01*
X126347200Y-83833400D02*
X126347200Y-82333400D01*
X124147200Y-83583400D02*
X124147200Y-82583400D01*
X120947200Y-82333400D02*
X126347200Y-82333400D01*
%TO.C,D4*%
X205961201Y-36407633D02*
X205961201Y-37907633D01*
X200561201Y-36407633D02*
X205961201Y-36407633D01*
X200561201Y-36407633D02*
X200561201Y-37907633D01*
X203661201Y-37157633D02*
X202761201Y-36657633D01*
X205961201Y-37907633D02*
X200561201Y-37907633D01*
X202761201Y-36657633D02*
X202761201Y-37657633D01*
X203761201Y-36657633D02*
X203761201Y-37657633D01*
X202761201Y-37657633D02*
X203661201Y-37157633D01*
%TO.C,D14*%
X168231201Y-71422233D02*
X167331201Y-70922233D01*
X167331201Y-70922233D02*
X167331201Y-71922233D01*
X170531201Y-72172233D02*
X165131201Y-72172233D01*
X170531201Y-70672233D02*
X170531201Y-72172233D01*
X165131201Y-70672233D02*
X165131201Y-72172233D01*
X165131201Y-70672233D02*
X170531201Y-70672233D01*
X168331201Y-70922233D02*
X168331201Y-71922233D01*
X167331201Y-71922233D02*
X168231201Y-71422233D01*
%TO.C,Dr8*%
X106519600Y-53983000D02*
X105619600Y-54483000D01*
X106519600Y-54983000D02*
X106519600Y-53983000D01*
X105519600Y-54983000D02*
X105519600Y-53983000D01*
X103319600Y-55233000D02*
X103319600Y-53733000D01*
X105619600Y-54483000D02*
X106519600Y-54983000D01*
X103319600Y-53733000D02*
X108719600Y-53733000D01*
X108719600Y-55233000D02*
X108719600Y-53733000D01*
X108719600Y-55233000D02*
X103319600Y-55233000D01*
%TO.C,Dr19*%
X43143965Y-87249568D02*
X42885146Y-86283643D01*
X44109890Y-86990749D02*
X43851071Y-86024824D01*
X46299632Y-86662829D02*
X41083633Y-88060452D01*
X43851071Y-86024824D02*
X43111148Y-86740724D01*
X41083633Y-88060452D02*
X40695404Y-86611563D01*
X40695404Y-86611563D02*
X45911403Y-85213940D01*
X46299632Y-86662829D02*
X45911403Y-85213940D01*
X43111148Y-86740724D02*
X44109890Y-86990749D01*
%TO.C,D5*%
X223919001Y-39176233D02*
X223919001Y-40676233D01*
X221619001Y-39926233D02*
X220719001Y-39426233D01*
X220719001Y-40426233D02*
X221619001Y-39926233D01*
X218519001Y-39176233D02*
X218519001Y-40676233D01*
X220719001Y-39426233D02*
X220719001Y-40426233D01*
X221719001Y-39426233D02*
X221719001Y-40426233D01*
X223919001Y-40676233D02*
X218519001Y-40676233D01*
X218519001Y-39176233D02*
X223919001Y-39176233D01*
%TO.C,Dr17*%
X52595400Y-73271000D02*
X52595400Y-72271000D01*
X51595400Y-73271000D02*
X51595400Y-72271000D01*
X52595400Y-72271000D02*
X51695400Y-72771000D01*
X49395400Y-72021000D02*
X54795400Y-72021000D01*
X51695400Y-72771000D02*
X52595400Y-73271000D01*
X54795400Y-73521000D02*
X49395400Y-73521000D01*
X54795400Y-73521000D02*
X54795400Y-72021000D01*
X49395400Y-73521000D02*
X49395400Y-72021000D01*
%TO.C,D1*%
X152751201Y-49336233D02*
X152751201Y-50836233D01*
X149551201Y-50586233D02*
X150451201Y-50086233D01*
X150451201Y-50086233D02*
X149551201Y-49586233D01*
X149551201Y-49586233D02*
X149551201Y-50586233D01*
X147351201Y-49336233D02*
X147351201Y-50836233D01*
X147351201Y-49336233D02*
X152751201Y-49336233D01*
X152751201Y-50836233D02*
X147351201Y-50836233D01*
X150551201Y-49586233D02*
X150551201Y-50586233D01*
%TO.C,D8*%
X164950401Y-55508433D02*
X170350401Y-55508433D01*
X164950401Y-55508433D02*
X164950401Y-57008433D01*
X167150401Y-56758433D02*
X168050401Y-56258433D01*
X167150401Y-55758433D02*
X167150401Y-56758433D01*
X168050401Y-56258433D02*
X167150401Y-55758433D01*
X168150401Y-55758433D02*
X168150401Y-56758433D01*
X170350401Y-57008433D02*
X164950401Y-57008433D01*
X170350401Y-55508433D02*
X170350401Y-57008433D01*
%TD*%
M02*
