M48
; DRILL file {KiCad (6.0.5-0)} date Tuesday, July 05, 2022 at 04:09:38 PM
; FORMAT={-:-/ absolute / metric / decimal}
; #@! TF.CreationDate,2022-07-05T16:09:38-07:00
; #@! TF.GenerationSoftware,Kicad,Pcbnew,(6.0.5-0)
; #@! TF.FileFunction,Plated,1,2,PTH
FMAT,2
METRIC
; #@! TA.AperFunction,Plated,PTH,ViaDrill
T1C0.400
; #@! TA.AperFunction,Plated,PTH,ComponentDrill
T2C0.813
; #@! TA.AperFunction,Plated,PTH,ComponentDrill
T3C1.270
; #@! TA.AperFunction,Plated,PTH,ComponentDrill
T4C1.300
; #@! TA.AperFunction,Plated,PTH,ComponentDrill
T5C2.200
%
G90
G05
T1
X19.837Y-93.37
X23.571Y-96.749
X36.906Y-76.53
X37.973Y-86.131
X41.25Y-80.01
X41.25Y-81.356
X41.25Y-82.398
X42.774Y-63.17
X42.977Y-46.076
X45.009Y-31.267
X51.791Y-92.1
X62.865Y-28.372
X71.603Y-90.399
X71.73Y-72.441
X72.212Y-55.194
X76.327Y-82.855
X78.765Y-55.448
X78.969Y-21.463
X89.814Y-50.063
X96.495Y-62.382
X96.723Y-28.092
X97.104Y-44.983
X114.249Y-57.328
X114.656Y-74.168
X114.808Y-40.335
X138.697Y-57.071
X138.824Y-74.496
X141.237Y-42.238
X156.909Y-62.304
X157.138Y-45.362
X168.238Y-39.799
X174.842Y-38.275
X174.892Y-55.776
X186.576Y-33.271
X192.977Y-60.78
X194.908Y-28.547
X200.445Y-90.548
X203.925Y-55.319
X213.196Y-65.301
X213.272Y-31.062
X213.297Y-48.156
X219.673Y-93.825
X223.94Y-80.481
X223.94Y-81.481
X223.991Y-82.649
X224.041Y-83.919
X236.919Y-103.121
T2
X18.722Y-49.723
X18.722Y-52.263
X18.722Y-54.803
X18.722Y-57.343
X18.722Y-59.883
X18.722Y-62.423
X18.722Y-64.963
X18.722Y-67.503
X18.722Y-70.043
X18.722Y-72.583
X18.722Y-75.123
X18.722Y-77.663
X20.041Y-47.574
X32.207Y-47.625
X33.942Y-49.723
X33.942Y-52.263
X33.942Y-54.803
X33.942Y-57.343
X33.942Y-59.883
X33.942Y-62.423
X33.942Y-64.963
X33.942Y-67.503
X33.942Y-70.043
X33.942Y-72.583
X33.942Y-75.123
X33.942Y-77.663
X231.16Y-49.847
X231.16Y-52.387
X231.16Y-54.927
X231.16Y-57.467
X231.16Y-60.007
X231.16Y-62.547
X231.16Y-65.087
X231.16Y-67.627
X231.16Y-70.167
X231.16Y-72.707
X231.16Y-75.247
X231.16Y-77.787
X232.576Y-47.394
X244.717Y-47.445
X246.38Y-49.847
X246.38Y-52.387
X246.38Y-54.927
X246.38Y-57.467
X246.38Y-60.007
X246.38Y-62.547
X246.38Y-65.087
X246.38Y-67.627
X246.38Y-70.167
X246.38Y-72.707
X246.38Y-75.247
X246.38Y-77.787
T3
X26.668Y-103.893
X31.969Y-102.745
X43.311Y-72.761
X43.336Y-38.75
X43.336Y-55.743
X46.25Y-83.455
X48.311Y-74.861
X48.336Y-40.85
X48.336Y-57.843
X51.624Y-84.189
X61.345Y-36.16
X66.345Y-38.26
X66.345Y-43.528
X66.345Y-60.521
X68.072Y-80.511
X71.345Y-45.628
X71.345Y-62.621
X73.072Y-82.611
X79.379Y-30.902
X79.379Y-64.912
X84.353Y-38.22
X84.379Y-33.002
X84.379Y-67.012
X89.353Y-40.32
X97.387Y-37.734
X97.387Y-54.778
X97.413Y-71.796
X102.387Y-39.834
X102.387Y-56.878
X102.413Y-73.896
X115.396Y-49.774
X115.396Y-66.767
X115.396Y-83.759
X120.396Y-51.874
X120.396Y-68.867
X120.396Y-85.859
X139.514Y-49.721
X139.514Y-66.815
X139.539Y-83.934
X144.514Y-51.821
X144.514Y-68.915
X144.539Y-86.034
X157.497Y-54.801
X157.497Y-71.92
X162.497Y-56.901
X162.497Y-74.02
X162.523Y-27.981
X167.523Y-30.081
X175.506Y-47.917
X175.506Y-65.037
X180.506Y-50.017
X180.506Y-67.137
X180.531Y-21.123
X185.531Y-23.223
X193.514Y-70.396
X193.54Y-36.157
X197.194Y-80.737
X198.514Y-43.577
X198.514Y-72.496
X198.54Y-38.257
X202.194Y-82.837
X203.514Y-45.677
X211.548Y-38.722
X211.548Y-55.842
X211.548Y-72.962
X216.548Y-40.822
X216.548Y-57.942
X216.548Y-75.062
X218.914Y-83.656
X223.2Y-86.978
X239.872Y-93.208
X242.763Y-97.797
T4
X21.285Y-82.221
X21.285Y-88.721
X243.752Y-82.498
X243.752Y-88.998
T5
X56.307Y-42.878
X75.357Y-23.828
X75.357Y-61.928
X94.407Y-42.878
X170.973Y-42.933
X190.023Y-23.883
X190.023Y-61.983
X209.073Y-42.933
T0
M30
