%TF.GenerationSoftware,KiCad,Pcbnew,(6.0.5-0)*%
%TF.CreationDate,2022-06-22T19:02:17-07:00*%
%TF.ProjectId,Swept_3x5,53776570-745f-4337-9835-2e6b69636164,rev?*%
%TF.SameCoordinates,Original*%
%TF.FileFunction,Legend,Bot*%
%TF.FilePolarity,Positive*%
%FSLAX46Y46*%
G04 Gerber Fmt 4.6, Leading zero omitted, Abs format (unit mm)*
G04 Created by KiCad (PCBNEW (6.0.5-0)) date 2022-06-22 19:02:17*
%MOMM*%
%LPD*%
G01*
G04 APERTURE LIST*
%ADD10C,0.120000*%
%ADD11C,0.150000*%
%ADD12C,0.100000*%
%ADD13C,0.200000*%
%ADD14C,0.010000*%
G04 APERTURE END LIST*
D10*
X23182600Y-47055800D02*
X29913600Y-47055800D01*
X29913600Y-47055800D02*
X29913600Y-49976800D01*
X29913600Y-49976800D02*
X23182600Y-49976800D01*
X23182600Y-49976800D02*
X23182600Y-47055800D01*
D11*
%TO.C,RSW1*%
X241430380Y-84415019D02*
X240954190Y-84081685D01*
X241430380Y-83843590D02*
X240430380Y-83843590D01*
X240430380Y-84224542D01*
X240478000Y-84319780D01*
X240525619Y-84367400D01*
X240620857Y-84415019D01*
X240763714Y-84415019D01*
X240858952Y-84367400D01*
X240906571Y-84319780D01*
X240954190Y-84224542D01*
X240954190Y-83843590D01*
X240906571Y-84843590D02*
X240906571Y-85176923D01*
X241430380Y-85319780D02*
X241430380Y-84843590D01*
X240430380Y-84843590D01*
X240430380Y-85319780D01*
X241382761Y-85700733D02*
X241430380Y-85843590D01*
X241430380Y-86081685D01*
X241382761Y-86176923D01*
X241335142Y-86224542D01*
X241239904Y-86272161D01*
X241144666Y-86272161D01*
X241049428Y-86224542D01*
X241001809Y-86176923D01*
X240954190Y-86081685D01*
X240906571Y-85891209D01*
X240858952Y-85795971D01*
X240811333Y-85748352D01*
X240716095Y-85700733D01*
X240620857Y-85700733D01*
X240525619Y-85748352D01*
X240478000Y-85795971D01*
X240430380Y-85891209D01*
X240430380Y-86129304D01*
X240478000Y-86272161D01*
X240906571Y-86700733D02*
X240906571Y-87034066D01*
X241430380Y-87176923D02*
X241430380Y-86700733D01*
X240430380Y-86700733D01*
X240430380Y-87176923D01*
X240430380Y-87462638D02*
X240430380Y-88034066D01*
X241430380Y-87748352D02*
X240430380Y-87748352D01*
D12*
%TO.C,REF\u002A\u002A*%
X186780514Y-33758500D02*
X186780514Y-34139452D01*
X186447180Y-33901357D02*
X187304323Y-33901357D01*
X187399561Y-33948976D01*
X187447180Y-34044214D01*
X187447180Y-34139452D01*
X187399561Y-34853738D02*
X187447180Y-34758500D01*
X187447180Y-34568023D01*
X187399561Y-34472785D01*
X187304323Y-34425166D01*
X186923371Y-34425166D01*
X186828133Y-34472785D01*
X186780514Y-34568023D01*
X186780514Y-34758500D01*
X186828133Y-34853738D01*
X186923371Y-34901357D01*
X187018609Y-34901357D01*
X187113847Y-34425166D01*
X186780514Y-35329928D02*
X187447180Y-35329928D01*
X186875752Y-35329928D02*
X186828133Y-35377547D01*
X186780514Y-35472785D01*
X186780514Y-35615642D01*
X186828133Y-35710880D01*
X186923371Y-35758500D01*
X187447180Y-35758500D01*
X186780514Y-36091833D02*
X186780514Y-36472785D01*
X186447180Y-36234690D02*
X187304323Y-36234690D01*
X187399561Y-36282309D01*
X187447180Y-36377547D01*
X187447180Y-36472785D01*
X187447180Y-36806119D02*
X186780514Y-36806119D01*
X186447180Y-36806119D02*
X186494800Y-36758500D01*
X186542419Y-36806119D01*
X186494800Y-36853738D01*
X186447180Y-36806119D01*
X186542419Y-36806119D01*
X186780514Y-37282309D02*
X187447180Y-37282309D01*
X186875752Y-37282309D02*
X186828133Y-37329928D01*
X186780514Y-37425166D01*
X186780514Y-37568023D01*
X186828133Y-37663261D01*
X186923371Y-37710880D01*
X187447180Y-37710880D01*
X186780514Y-38615642D02*
X187590038Y-38615642D01*
X187685276Y-38568023D01*
X187732895Y-38520404D01*
X187780514Y-38425166D01*
X187780514Y-38282309D01*
X187732895Y-38187071D01*
X187399561Y-38615642D02*
X187447180Y-38520404D01*
X187447180Y-38329928D01*
X187399561Y-38234690D01*
X187351942Y-38187071D01*
X187256704Y-38139452D01*
X186970990Y-38139452D01*
X186875752Y-38187071D01*
X186828133Y-38234690D01*
X186780514Y-38329928D01*
X186780514Y-38520404D01*
X186828133Y-38615642D01*
X186844014Y-47712500D02*
X187844014Y-47712500D01*
X186891633Y-47712500D02*
X186844014Y-47807738D01*
X186844014Y-47998214D01*
X186891633Y-48093452D01*
X186939252Y-48141071D01*
X187034490Y-48188690D01*
X187320204Y-48188690D01*
X187415442Y-48141071D01*
X187463061Y-48093452D01*
X187510680Y-47998214D01*
X187510680Y-47807738D01*
X187463061Y-47712500D01*
X186844014Y-49045833D02*
X187510680Y-49045833D01*
X186844014Y-48617261D02*
X187367823Y-48617261D01*
X187463061Y-48664880D01*
X187510680Y-48760119D01*
X187510680Y-48902976D01*
X187463061Y-48998214D01*
X187415442Y-49045833D01*
X187463061Y-49950595D02*
X187510680Y-49855357D01*
X187510680Y-49664880D01*
X187463061Y-49569642D01*
X187415442Y-49522023D01*
X187320204Y-49474404D01*
X187034490Y-49474404D01*
X186939252Y-49522023D01*
X186891633Y-49569642D01*
X186844014Y-49664880D01*
X186844014Y-49855357D01*
X186891633Y-49950595D01*
X187510680Y-50379166D02*
X186510680Y-50379166D01*
X187129728Y-50474404D02*
X187510680Y-50760119D01*
X186844014Y-50760119D02*
X187224966Y-50379166D01*
X74952614Y-47410900D02*
X75952614Y-47410900D01*
X75000233Y-47410900D02*
X74952614Y-47506138D01*
X74952614Y-47696614D01*
X75000233Y-47791852D01*
X75047852Y-47839471D01*
X75143090Y-47887090D01*
X75428804Y-47887090D01*
X75524042Y-47839471D01*
X75571661Y-47791852D01*
X75619280Y-47696614D01*
X75619280Y-47506138D01*
X75571661Y-47410900D01*
X74952614Y-48744233D02*
X75619280Y-48744233D01*
X74952614Y-48315661D02*
X75476423Y-48315661D01*
X75571661Y-48363280D01*
X75619280Y-48458519D01*
X75619280Y-48601376D01*
X75571661Y-48696614D01*
X75524042Y-48744233D01*
X75571661Y-49648995D02*
X75619280Y-49553757D01*
X75619280Y-49363280D01*
X75571661Y-49268042D01*
X75524042Y-49220423D01*
X75428804Y-49172804D01*
X75143090Y-49172804D01*
X75047852Y-49220423D01*
X75000233Y-49268042D01*
X74952614Y-49363280D01*
X74952614Y-49553757D01*
X75000233Y-49648995D01*
X75619280Y-50077566D02*
X74619280Y-50077566D01*
X75238328Y-50172804D02*
X75619280Y-50458519D01*
X74952614Y-50458519D02*
X75333566Y-50077566D01*
X74889114Y-33456900D02*
X74889114Y-33837852D01*
X74555780Y-33599757D02*
X75412923Y-33599757D01*
X75508161Y-33647376D01*
X75555780Y-33742614D01*
X75555780Y-33837852D01*
X75508161Y-34552138D02*
X75555780Y-34456900D01*
X75555780Y-34266423D01*
X75508161Y-34171185D01*
X75412923Y-34123566D01*
X75031971Y-34123566D01*
X74936733Y-34171185D01*
X74889114Y-34266423D01*
X74889114Y-34456900D01*
X74936733Y-34552138D01*
X75031971Y-34599757D01*
X75127209Y-34599757D01*
X75222447Y-34123566D01*
X74889114Y-35028328D02*
X75555780Y-35028328D01*
X74984352Y-35028328D02*
X74936733Y-35075947D01*
X74889114Y-35171185D01*
X74889114Y-35314042D01*
X74936733Y-35409280D01*
X75031971Y-35456900D01*
X75555780Y-35456900D01*
X74889114Y-35790233D02*
X74889114Y-36171185D01*
X74555780Y-35933090D02*
X75412923Y-35933090D01*
X75508161Y-35980709D01*
X75555780Y-36075947D01*
X75555780Y-36171185D01*
X75555780Y-36504519D02*
X74889114Y-36504519D01*
X74555780Y-36504519D02*
X74603400Y-36456900D01*
X74651019Y-36504519D01*
X74603400Y-36552138D01*
X74555780Y-36504519D01*
X74651019Y-36504519D01*
X74889114Y-36980709D02*
X75555780Y-36980709D01*
X74984352Y-36980709D02*
X74936733Y-37028328D01*
X74889114Y-37123566D01*
X74889114Y-37266423D01*
X74936733Y-37361661D01*
X75031971Y-37409280D01*
X75555780Y-37409280D01*
X74889114Y-38314042D02*
X75698638Y-38314042D01*
X75793876Y-38266423D01*
X75841495Y-38218804D01*
X75889114Y-38123566D01*
X75889114Y-37980709D01*
X75841495Y-37885471D01*
X75508161Y-38314042D02*
X75555780Y-38218804D01*
X75555780Y-38028328D01*
X75508161Y-37933090D01*
X75460542Y-37885471D01*
X75365304Y-37837852D01*
X75079590Y-37837852D01*
X74984352Y-37885471D01*
X74936733Y-37933090D01*
X74889114Y-38028328D01*
X74889114Y-38218804D01*
X74936733Y-38314042D01*
D11*
%TO.C,RSW2*%
X21737580Y-84145619D02*
X21261390Y-83812285D01*
X21737580Y-83574190D02*
X20737580Y-83574190D01*
X20737580Y-83955142D01*
X20785200Y-84050380D01*
X20832819Y-84098000D01*
X20928057Y-84145619D01*
X21070914Y-84145619D01*
X21166152Y-84098000D01*
X21213771Y-84050380D01*
X21261390Y-83955142D01*
X21261390Y-83574190D01*
X21213771Y-84574190D02*
X21213771Y-84907523D01*
X21737580Y-85050380D02*
X21737580Y-84574190D01*
X20737580Y-84574190D01*
X20737580Y-85050380D01*
X21689961Y-85431333D02*
X21737580Y-85574190D01*
X21737580Y-85812285D01*
X21689961Y-85907523D01*
X21642342Y-85955142D01*
X21547104Y-86002761D01*
X21451866Y-86002761D01*
X21356628Y-85955142D01*
X21309009Y-85907523D01*
X21261390Y-85812285D01*
X21213771Y-85621809D01*
X21166152Y-85526571D01*
X21118533Y-85478952D01*
X21023295Y-85431333D01*
X20928057Y-85431333D01*
X20832819Y-85478952D01*
X20785200Y-85526571D01*
X20737580Y-85621809D01*
X20737580Y-85859904D01*
X20785200Y-86002761D01*
X21213771Y-86431333D02*
X21213771Y-86764666D01*
X21737580Y-86907523D02*
X21737580Y-86431333D01*
X20737580Y-86431333D01*
X20737580Y-86907523D01*
X20737580Y-87193238D02*
X20737580Y-87764666D01*
X21737580Y-87478952D02*
X20737580Y-87478952D01*
%TO.C,+*%
%TO.C,-*%
%TO.C,+*%
%TO.C,-*%
%TO.C,SW_POWER1*%
X240083704Y-52507561D02*
X239940847Y-52555180D01*
X239702752Y-52555180D01*
X239607514Y-52507561D01*
X239559895Y-52459942D01*
X239512276Y-52364704D01*
X239512276Y-52269466D01*
X239559895Y-52174228D01*
X239607514Y-52126609D01*
X239702752Y-52078990D01*
X239893228Y-52031371D01*
X239988466Y-51983752D01*
X240036085Y-51936133D01*
X240083704Y-51840895D01*
X240083704Y-51745657D01*
X240036085Y-51650419D01*
X239988466Y-51602800D01*
X239893228Y-51555180D01*
X239655133Y-51555180D01*
X239512276Y-51602800D01*
X239178942Y-51555180D02*
X238940847Y-52555180D01*
X238750371Y-51840895D01*
X238559895Y-52555180D01*
X238321800Y-51555180D01*
X238178942Y-52650419D02*
X237417038Y-52650419D01*
X237178942Y-52555180D02*
X237178942Y-51555180D01*
X236797990Y-51555180D01*
X236702752Y-51602800D01*
X236655133Y-51650419D01*
X236607514Y-51745657D01*
X236607514Y-51888514D01*
X236655133Y-51983752D01*
X236702752Y-52031371D01*
X236797990Y-52078990D01*
X237178942Y-52078990D01*
X235988466Y-51555180D02*
X235797990Y-51555180D01*
X235702752Y-51602800D01*
X235607514Y-51698038D01*
X235559895Y-51888514D01*
X235559895Y-52221847D01*
X235607514Y-52412323D01*
X235702752Y-52507561D01*
X235797990Y-52555180D01*
X235988466Y-52555180D01*
X236083704Y-52507561D01*
X236178942Y-52412323D01*
X236226561Y-52221847D01*
X236226561Y-51888514D01*
X236178942Y-51698038D01*
X236083704Y-51602800D01*
X235988466Y-51555180D01*
X235226561Y-51555180D02*
X234988466Y-52555180D01*
X234797990Y-51840895D01*
X234607514Y-52555180D01*
X234369419Y-51555180D01*
X233988466Y-52031371D02*
X233655133Y-52031371D01*
X233512276Y-52555180D02*
X233988466Y-52555180D01*
X233988466Y-51555180D01*
X233512276Y-51555180D01*
X232512276Y-52555180D02*
X232845609Y-52078990D01*
X233083704Y-52555180D02*
X233083704Y-51555180D01*
X232702752Y-51555180D01*
X232607514Y-51602800D01*
X232559895Y-51650419D01*
X232512276Y-51745657D01*
X232512276Y-51888514D01*
X232559895Y-51983752D01*
X232607514Y-52031371D01*
X232702752Y-52078990D01*
X233083704Y-52078990D01*
X231559895Y-52555180D02*
X232131323Y-52555180D01*
X231845609Y-52555180D02*
X231845609Y-51555180D01*
X231940847Y-51698038D01*
X232036085Y-51793276D01*
X232131323Y-51840895D01*
%TO.C,SW_POWERR1*%
X30923904Y-52136561D02*
X30781047Y-52184180D01*
X30542952Y-52184180D01*
X30447714Y-52136561D01*
X30400095Y-52088942D01*
X30352476Y-51993704D01*
X30352476Y-51898466D01*
X30400095Y-51803228D01*
X30447714Y-51755609D01*
X30542952Y-51707990D01*
X30733428Y-51660371D01*
X30828666Y-51612752D01*
X30876285Y-51565133D01*
X30923904Y-51469895D01*
X30923904Y-51374657D01*
X30876285Y-51279419D01*
X30828666Y-51231800D01*
X30733428Y-51184180D01*
X30495333Y-51184180D01*
X30352476Y-51231800D01*
X30019142Y-51184180D02*
X29781047Y-52184180D01*
X29590571Y-51469895D01*
X29400095Y-52184180D01*
X29162000Y-51184180D01*
X29019142Y-52279419D02*
X28257238Y-52279419D01*
X28019142Y-52184180D02*
X28019142Y-51184180D01*
X27638190Y-51184180D01*
X27542952Y-51231800D01*
X27495333Y-51279419D01*
X27447714Y-51374657D01*
X27447714Y-51517514D01*
X27495333Y-51612752D01*
X27542952Y-51660371D01*
X27638190Y-51707990D01*
X28019142Y-51707990D01*
X26828666Y-51184180D02*
X26638190Y-51184180D01*
X26542952Y-51231800D01*
X26447714Y-51327038D01*
X26400095Y-51517514D01*
X26400095Y-51850847D01*
X26447714Y-52041323D01*
X26542952Y-52136561D01*
X26638190Y-52184180D01*
X26828666Y-52184180D01*
X26923904Y-52136561D01*
X27019142Y-52041323D01*
X27066761Y-51850847D01*
X27066761Y-51517514D01*
X27019142Y-51327038D01*
X26923904Y-51231800D01*
X26828666Y-51184180D01*
X26066761Y-51184180D02*
X25828666Y-52184180D01*
X25638190Y-51469895D01*
X25447714Y-52184180D01*
X25209619Y-51184180D01*
X24828666Y-51660371D02*
X24495333Y-51660371D01*
X24352476Y-52184180D02*
X24828666Y-52184180D01*
X24828666Y-51184180D01*
X24352476Y-51184180D01*
X23352476Y-52184180D02*
X23685809Y-51707990D01*
X23923904Y-52184180D02*
X23923904Y-51184180D01*
X23542952Y-51184180D01*
X23447714Y-51231800D01*
X23400095Y-51279419D01*
X23352476Y-51374657D01*
X23352476Y-51517514D01*
X23400095Y-51612752D01*
X23447714Y-51660371D01*
X23542952Y-51707990D01*
X23923904Y-51707990D01*
X22352476Y-52184180D02*
X22685809Y-51707990D01*
X22923904Y-52184180D02*
X22923904Y-51184180D01*
X22542952Y-51184180D01*
X22447714Y-51231800D01*
X22400095Y-51279419D01*
X22352476Y-51374657D01*
X22352476Y-51517514D01*
X22400095Y-51612752D01*
X22447714Y-51660371D01*
X22542952Y-51707990D01*
X22923904Y-51707990D01*
X21400095Y-52184180D02*
X21971523Y-52184180D01*
X21685809Y-52184180D02*
X21685809Y-51184180D01*
X21781047Y-51327038D01*
X21876285Y-51422276D01*
X21971523Y-51469895D01*
%TO.C,RSW1*%
X239478000Y-88994400D02*
X239228000Y-88994400D01*
X242728000Y-82994400D02*
X242728000Y-88994400D01*
X242728000Y-88994400D02*
X242478000Y-88994400D01*
X242478000Y-82994400D02*
X242728000Y-82994400D01*
X239228000Y-82994400D02*
X239478000Y-82994400D01*
X239228000Y-88994400D02*
X239228000Y-82994400D01*
D13*
%TO.C,REF\u002A\u002A*%
X190106300Y-63500000D02*
G75*
G03*
X194256845Y-62466135I-2857506J20320019D01*
G01*
X187248800Y-32385000D02*
G75*
G03*
X186120415Y-32444136I-6J-10794921D01*
G01*
X166928799Y-46037500D02*
G75*
G03*
X167962665Y-50188046I20320001J2857500D01*
G01*
X188377185Y-32444137D02*
G75*
G03*
X187248800Y-32385000I-1128385J-10735763D01*
G01*
X184391300Y-22859999D02*
G75*
G03*
X180240754Y-23893865I2857500J-20320001D01*
G01*
X187248800Y-53975001D02*
G75*
G03*
X188377185Y-53915864I0J10794901D01*
G01*
X206534934Y-50188048D02*
G75*
G03*
X207568800Y-46037500I-19286134J7008048D01*
G01*
X186120415Y-53915864D02*
G75*
G03*
X187248800Y-53975000I1128379J10735785D01*
G01*
X167962665Y-36171956D02*
G75*
G03*
X166928800Y-40322500I19286255J-7008074D01*
G01*
X180240755Y-62466135D02*
G75*
G03*
X184391300Y-63500000I7008045J19286135D01*
G01*
X207568800Y-40322500D02*
G75*
G03*
X206534934Y-36171952I-20320000J-2857500D01*
G01*
X194256849Y-23893867D02*
G75*
G03*
X190106300Y-22860000I-7008049J-19286133D01*
G01*
G36*
X187126517Y-57610364D02*
G01*
X187123904Y-57638759D01*
X187115035Y-57685209D01*
X187077482Y-57812369D01*
X187022316Y-57938232D01*
X186952624Y-58056414D01*
X186871493Y-58160534D01*
X186863099Y-58169700D01*
X186754787Y-58270026D01*
X186632367Y-58354023D01*
X186499194Y-58420002D01*
X186358626Y-58466277D01*
X186214018Y-58491158D01*
X186113772Y-58495641D01*
X185965351Y-58484242D01*
X185821932Y-58451989D01*
X185685696Y-58399966D01*
X185558821Y-58329252D01*
X185443488Y-58240930D01*
X185341875Y-58136081D01*
X185256163Y-58015788D01*
X185198908Y-57908869D01*
X185145763Y-57769633D01*
X185114407Y-57625069D01*
X185107903Y-57528705D01*
X185603142Y-57528705D01*
X185603424Y-57533995D01*
X185607742Y-57589298D01*
X185615099Y-57631590D01*
X185627744Y-57670198D01*
X185647925Y-57714444D01*
X185669413Y-57752771D01*
X185710898Y-57811565D01*
X185758955Y-57867021D01*
X185808278Y-57913215D01*
X185853564Y-57944219D01*
X185869731Y-57951995D01*
X185910636Y-57969355D01*
X185953633Y-57985441D01*
X186026460Y-58004729D01*
X186130161Y-58013250D01*
X186231702Y-58000456D01*
X186328488Y-57967324D01*
X186417920Y-57914831D01*
X186497401Y-57843954D01*
X186564335Y-57755671D01*
X186592989Y-57701526D01*
X186623421Y-57607507D01*
X186633993Y-57509958D01*
X186625687Y-57412010D01*
X186599485Y-57316797D01*
X186556372Y-57227450D01*
X186497329Y-57147104D01*
X186423339Y-57078890D01*
X186335387Y-57025941D01*
X186321384Y-57019655D01*
X186223038Y-56989030D01*
X186121686Y-56978848D01*
X186020782Y-56988168D01*
X185923783Y-57016046D01*
X185834147Y-57061542D01*
X185755330Y-57123712D01*
X185690788Y-57201616D01*
X185673018Y-57230145D01*
X185629366Y-57323568D01*
X185606510Y-57421460D01*
X185603142Y-57528705D01*
X185107903Y-57528705D01*
X185104116Y-57472591D01*
X185107677Y-57382921D01*
X185130358Y-57232642D01*
X185173110Y-57090673D01*
X185234920Y-56958688D01*
X185314778Y-56838363D01*
X185411672Y-56731374D01*
X185524592Y-56639394D01*
X185652525Y-56564101D01*
X185722376Y-56531462D01*
X185797514Y-56502245D01*
X185869166Y-56482753D01*
X185945649Y-56470816D01*
X186035284Y-56464264D01*
X186053096Y-56463596D01*
X186192297Y-56470034D01*
X186322680Y-56497710D01*
X186444896Y-56546814D01*
X186559593Y-56617536D01*
X186583727Y-56634738D01*
X186608573Y-56651081D01*
X186621004Y-56657395D01*
X186621912Y-56653365D01*
X186623361Y-56629558D01*
X186624688Y-56586435D01*
X186625857Y-56526360D01*
X186626833Y-56451698D01*
X186627583Y-56364812D01*
X186628072Y-56268067D01*
X186628264Y-56163827D01*
X186628412Y-55670259D01*
X187136116Y-56180285D01*
X187136029Y-56871999D01*
X187136026Y-56883735D01*
X187135765Y-57034209D01*
X187135101Y-57171481D01*
X187134057Y-57294137D01*
X187132654Y-57400766D01*
X187130915Y-57489955D01*
X187130331Y-57509958D01*
X187128862Y-57560292D01*
X187126517Y-57610364D01*
G37*
D14*
X187126517Y-57610364D02*
X187123904Y-57638759D01*
X187115035Y-57685209D01*
X187077482Y-57812369D01*
X187022316Y-57938232D01*
X186952624Y-58056414D01*
X186871493Y-58160534D01*
X186863099Y-58169700D01*
X186754787Y-58270026D01*
X186632367Y-58354023D01*
X186499194Y-58420002D01*
X186358626Y-58466277D01*
X186214018Y-58491158D01*
X186113772Y-58495641D01*
X185965351Y-58484242D01*
X185821932Y-58451989D01*
X185685696Y-58399966D01*
X185558821Y-58329252D01*
X185443488Y-58240930D01*
X185341875Y-58136081D01*
X185256163Y-58015788D01*
X185198908Y-57908869D01*
X185145763Y-57769633D01*
X185114407Y-57625069D01*
X185107903Y-57528705D01*
X185603142Y-57528705D01*
X185603424Y-57533995D01*
X185607742Y-57589298D01*
X185615099Y-57631590D01*
X185627744Y-57670198D01*
X185647925Y-57714444D01*
X185669413Y-57752771D01*
X185710898Y-57811565D01*
X185758955Y-57867021D01*
X185808278Y-57913215D01*
X185853564Y-57944219D01*
X185869731Y-57951995D01*
X185910636Y-57969355D01*
X185953633Y-57985441D01*
X186026460Y-58004729D01*
X186130161Y-58013250D01*
X186231702Y-58000456D01*
X186328488Y-57967324D01*
X186417920Y-57914831D01*
X186497401Y-57843954D01*
X186564335Y-57755671D01*
X186592989Y-57701526D01*
X186623421Y-57607507D01*
X186633993Y-57509958D01*
X186625687Y-57412010D01*
X186599485Y-57316797D01*
X186556372Y-57227450D01*
X186497329Y-57147104D01*
X186423339Y-57078890D01*
X186335387Y-57025941D01*
X186321384Y-57019655D01*
X186223038Y-56989030D01*
X186121686Y-56978848D01*
X186020782Y-56988168D01*
X185923783Y-57016046D01*
X185834147Y-57061542D01*
X185755330Y-57123712D01*
X185690788Y-57201616D01*
X185673018Y-57230145D01*
X185629366Y-57323568D01*
X185606510Y-57421460D01*
X185603142Y-57528705D01*
X185107903Y-57528705D01*
X185104116Y-57472591D01*
X185107677Y-57382921D01*
X185130358Y-57232642D01*
X185173110Y-57090673D01*
X185234920Y-56958688D01*
X185314778Y-56838363D01*
X185411672Y-56731374D01*
X185524592Y-56639394D01*
X185652525Y-56564101D01*
X185722376Y-56531462D01*
X185797514Y-56502245D01*
X185869166Y-56482753D01*
X185945649Y-56470816D01*
X186035284Y-56464264D01*
X186053096Y-56463596D01*
X186192297Y-56470034D01*
X186322680Y-56497710D01*
X186444896Y-56546814D01*
X186559593Y-56617536D01*
X186583727Y-56634738D01*
X186608573Y-56651081D01*
X186621004Y-56657395D01*
X186621912Y-56653365D01*
X186623361Y-56629558D01*
X186624688Y-56586435D01*
X186625857Y-56526360D01*
X186626833Y-56451698D01*
X186627583Y-56364812D01*
X186628072Y-56268067D01*
X186628264Y-56163827D01*
X186628412Y-55670259D01*
X187136116Y-56180285D01*
X187136029Y-56871999D01*
X187136026Y-56883735D01*
X187135765Y-57034209D01*
X187135101Y-57171481D01*
X187134057Y-57294137D01*
X187132654Y-57400766D01*
X187130915Y-57489955D01*
X187130331Y-57509958D01*
X187128862Y-57560292D01*
X187126517Y-57610364D01*
G36*
X189329752Y-58406356D02*
G01*
X189238908Y-58314080D01*
X189225127Y-58300084D01*
X189193266Y-58267731D01*
X189147319Y-58221077D01*
X189088503Y-58161359D01*
X189018036Y-58089814D01*
X188937137Y-58007677D01*
X188847022Y-57916184D01*
X188748910Y-57816573D01*
X188644018Y-57710080D01*
X188533564Y-57597940D01*
X188418765Y-57481391D01*
X188300840Y-57361668D01*
X187453616Y-56501531D01*
X187741984Y-56498438D01*
X188030352Y-56495344D01*
X188833298Y-57298044D01*
X188833298Y-55664486D01*
X189329752Y-55664486D01*
X189329752Y-58406356D01*
G37*
X189329752Y-58406356D02*
X189238908Y-58314080D01*
X189225127Y-58300084D01*
X189193266Y-58267731D01*
X189147319Y-58221077D01*
X189088503Y-58161359D01*
X189018036Y-58089814D01*
X188937137Y-58007677D01*
X188847022Y-57916184D01*
X188748910Y-57816573D01*
X188644018Y-57710080D01*
X188533564Y-57597940D01*
X188418765Y-57481391D01*
X188300840Y-57361668D01*
X187453616Y-56501531D01*
X187741984Y-56498438D01*
X188030352Y-56495344D01*
X188833298Y-57298044D01*
X188833298Y-55664486D01*
X189329752Y-55664486D01*
X189329752Y-58406356D01*
G36*
X188035984Y-57696669D02*
G01*
X188048213Y-57706717D01*
X188073695Y-57730337D01*
X188109842Y-57765050D01*
X188154066Y-57808375D01*
X188203779Y-57857830D01*
X188364814Y-58019174D01*
X188330932Y-58056989D01*
X188327755Y-58060481D01*
X188305887Y-58083690D01*
X188271541Y-58119436D01*
X188227725Y-58164616D01*
X188177442Y-58216129D01*
X188123700Y-58270872D01*
X187950350Y-58446941D01*
X187330336Y-58446941D01*
X187358637Y-58413306D01*
X187360930Y-58410615D01*
X187381598Y-58387386D01*
X187414356Y-58351546D01*
X187457216Y-58305201D01*
X187508188Y-58250458D01*
X187565284Y-58189423D01*
X187626514Y-58124204D01*
X187689889Y-58056906D01*
X187753422Y-57989636D01*
X187815121Y-57924501D01*
X187873000Y-57863607D01*
X187925067Y-57809061D01*
X187969336Y-57762969D01*
X188003815Y-57727438D01*
X188026518Y-57704575D01*
X188035453Y-57696486D01*
X188035984Y-57696669D01*
G37*
X188035984Y-57696669D02*
X188048213Y-57706717D01*
X188073695Y-57730337D01*
X188109842Y-57765050D01*
X188154066Y-57808375D01*
X188203779Y-57857830D01*
X188364814Y-58019174D01*
X188330932Y-58056989D01*
X188327755Y-58060481D01*
X188305887Y-58083690D01*
X188271541Y-58119436D01*
X188227725Y-58164616D01*
X188177442Y-58216129D01*
X188123700Y-58270872D01*
X187950350Y-58446941D01*
X187330336Y-58446941D01*
X187358637Y-58413306D01*
X187360930Y-58410615D01*
X187381598Y-58387386D01*
X187414356Y-58351546D01*
X187457216Y-58305201D01*
X187508188Y-58250458D01*
X187565284Y-58189423D01*
X187626514Y-58124204D01*
X187689889Y-58056906D01*
X187753422Y-57989636D01*
X187815121Y-57924501D01*
X187873000Y-57863607D01*
X187925067Y-57809061D01*
X187969336Y-57762969D01*
X188003815Y-57727438D01*
X188026518Y-57704575D01*
X188035453Y-57696486D01*
X188035984Y-57696669D01*
D13*
X76485785Y-32142537D02*
G75*
G03*
X75357400Y-32083400I-1128385J-10735763D01*
G01*
X55037399Y-45735900D02*
G75*
G03*
X56071265Y-49886446I20320001J2857500D01*
G01*
X75357400Y-32083400D02*
G75*
G03*
X74229015Y-32142536I-6J-10794921D01*
G01*
X82365449Y-23592267D02*
G75*
G03*
X78214900Y-22558400I-7008049J-19286133D01*
G01*
X72499900Y-22558399D02*
G75*
G03*
X68349354Y-23592265I2857500J-20320001D01*
G01*
X95677400Y-40020900D02*
G75*
G03*
X94643534Y-35870352I-20320000J-2857500D01*
G01*
X78214900Y-63198400D02*
G75*
G03*
X82365445Y-62164535I-2857506J20320019D01*
G01*
X56071265Y-35870356D02*
G75*
G03*
X55037400Y-40020900I19286255J-7008074D01*
G01*
X74229015Y-53614264D02*
G75*
G03*
X75357400Y-53673400I1128379J10735785D01*
G01*
X68349355Y-62164535D02*
G75*
G03*
X72499900Y-63198400I7008045J19286135D01*
G01*
X75357400Y-53673401D02*
G75*
G03*
X76485785Y-53614264I0J10794901D01*
G01*
X94643534Y-49886448D02*
G75*
G03*
X95677400Y-45735900I-19286134J7008048D01*
G01*
G36*
X77438352Y-58104756D02*
G01*
X77347508Y-58012480D01*
X77333727Y-57998484D01*
X77301866Y-57966131D01*
X77255919Y-57919477D01*
X77197103Y-57859759D01*
X77126636Y-57788214D01*
X77045737Y-57706077D01*
X76955622Y-57614584D01*
X76857510Y-57514973D01*
X76752618Y-57408480D01*
X76642164Y-57296340D01*
X76527365Y-57179791D01*
X76409440Y-57060068D01*
X75562216Y-56199931D01*
X75850584Y-56196838D01*
X76138952Y-56193744D01*
X76941898Y-56996444D01*
X76941898Y-55362886D01*
X77438352Y-55362886D01*
X77438352Y-58104756D01*
G37*
D14*
X77438352Y-58104756D02*
X77347508Y-58012480D01*
X77333727Y-57998484D01*
X77301866Y-57966131D01*
X77255919Y-57919477D01*
X77197103Y-57859759D01*
X77126636Y-57788214D01*
X77045737Y-57706077D01*
X76955622Y-57614584D01*
X76857510Y-57514973D01*
X76752618Y-57408480D01*
X76642164Y-57296340D01*
X76527365Y-57179791D01*
X76409440Y-57060068D01*
X75562216Y-56199931D01*
X75850584Y-56196838D01*
X76138952Y-56193744D01*
X76941898Y-56996444D01*
X76941898Y-55362886D01*
X77438352Y-55362886D01*
X77438352Y-58104756D01*
G36*
X76144584Y-57395069D02*
G01*
X76156813Y-57405117D01*
X76182295Y-57428737D01*
X76218442Y-57463450D01*
X76262666Y-57506775D01*
X76312379Y-57556230D01*
X76473414Y-57717574D01*
X76439532Y-57755389D01*
X76436355Y-57758881D01*
X76414487Y-57782090D01*
X76380141Y-57817836D01*
X76336325Y-57863016D01*
X76286042Y-57914529D01*
X76232300Y-57969272D01*
X76058950Y-58145341D01*
X75438936Y-58145341D01*
X75467237Y-58111706D01*
X75469530Y-58109015D01*
X75490198Y-58085786D01*
X75522956Y-58049946D01*
X75565816Y-58003601D01*
X75616788Y-57948858D01*
X75673884Y-57887823D01*
X75735114Y-57822604D01*
X75798489Y-57755306D01*
X75862022Y-57688036D01*
X75923721Y-57622901D01*
X75981600Y-57562007D01*
X76033667Y-57507461D01*
X76077936Y-57461369D01*
X76112415Y-57425838D01*
X76135118Y-57402975D01*
X76144053Y-57394886D01*
X76144584Y-57395069D01*
G37*
X76144584Y-57395069D02*
X76156813Y-57405117D01*
X76182295Y-57428737D01*
X76218442Y-57463450D01*
X76262666Y-57506775D01*
X76312379Y-57556230D01*
X76473414Y-57717574D01*
X76439532Y-57755389D01*
X76436355Y-57758881D01*
X76414487Y-57782090D01*
X76380141Y-57817836D01*
X76336325Y-57863016D01*
X76286042Y-57914529D01*
X76232300Y-57969272D01*
X76058950Y-58145341D01*
X75438936Y-58145341D01*
X75467237Y-58111706D01*
X75469530Y-58109015D01*
X75490198Y-58085786D01*
X75522956Y-58049946D01*
X75565816Y-58003601D01*
X75616788Y-57948858D01*
X75673884Y-57887823D01*
X75735114Y-57822604D01*
X75798489Y-57755306D01*
X75862022Y-57688036D01*
X75923721Y-57622901D01*
X75981600Y-57562007D01*
X76033667Y-57507461D01*
X76077936Y-57461369D01*
X76112415Y-57425838D01*
X76135118Y-57402975D01*
X76144053Y-57394886D01*
X76144584Y-57395069D01*
G36*
X75235117Y-57308764D02*
G01*
X75232504Y-57337159D01*
X75223635Y-57383609D01*
X75186082Y-57510769D01*
X75130916Y-57636632D01*
X75061224Y-57754814D01*
X74980093Y-57858934D01*
X74971699Y-57868100D01*
X74863387Y-57968426D01*
X74740967Y-58052423D01*
X74607794Y-58118402D01*
X74467226Y-58164677D01*
X74322618Y-58189558D01*
X74222372Y-58194041D01*
X74073951Y-58182642D01*
X73930532Y-58150389D01*
X73794296Y-58098366D01*
X73667421Y-58027652D01*
X73552088Y-57939330D01*
X73450475Y-57834481D01*
X73364763Y-57714188D01*
X73307508Y-57607269D01*
X73254363Y-57468033D01*
X73223007Y-57323469D01*
X73216503Y-57227105D01*
X73711742Y-57227105D01*
X73712024Y-57232395D01*
X73716342Y-57287698D01*
X73723699Y-57329990D01*
X73736344Y-57368598D01*
X73756525Y-57412844D01*
X73778013Y-57451171D01*
X73819498Y-57509965D01*
X73867555Y-57565421D01*
X73916878Y-57611615D01*
X73962164Y-57642619D01*
X73978331Y-57650395D01*
X74019236Y-57667755D01*
X74062233Y-57683841D01*
X74135060Y-57703129D01*
X74238761Y-57711650D01*
X74340302Y-57698856D01*
X74437088Y-57665724D01*
X74526520Y-57613231D01*
X74606001Y-57542354D01*
X74672935Y-57454071D01*
X74701589Y-57399926D01*
X74732021Y-57305907D01*
X74742593Y-57208358D01*
X74734287Y-57110410D01*
X74708085Y-57015197D01*
X74664972Y-56925850D01*
X74605929Y-56845504D01*
X74531939Y-56777290D01*
X74443987Y-56724341D01*
X74429984Y-56718055D01*
X74331638Y-56687430D01*
X74230286Y-56677248D01*
X74129382Y-56686568D01*
X74032383Y-56714446D01*
X73942747Y-56759942D01*
X73863930Y-56822112D01*
X73799388Y-56900016D01*
X73781618Y-56928545D01*
X73737966Y-57021968D01*
X73715110Y-57119860D01*
X73711742Y-57227105D01*
X73216503Y-57227105D01*
X73212716Y-57170991D01*
X73216277Y-57081321D01*
X73238958Y-56931042D01*
X73281710Y-56789073D01*
X73343520Y-56657088D01*
X73423378Y-56536763D01*
X73520272Y-56429774D01*
X73633192Y-56337794D01*
X73761125Y-56262501D01*
X73830976Y-56229862D01*
X73906114Y-56200645D01*
X73977766Y-56181153D01*
X74054249Y-56169216D01*
X74143884Y-56162664D01*
X74161696Y-56161996D01*
X74300897Y-56168434D01*
X74431280Y-56196110D01*
X74553496Y-56245214D01*
X74668193Y-56315936D01*
X74692327Y-56333138D01*
X74717173Y-56349481D01*
X74729604Y-56355795D01*
X74730512Y-56351765D01*
X74731961Y-56327958D01*
X74733288Y-56284835D01*
X74734457Y-56224760D01*
X74735433Y-56150098D01*
X74736183Y-56063212D01*
X74736672Y-55966467D01*
X74736864Y-55862227D01*
X74737012Y-55368659D01*
X75244716Y-55878685D01*
X75244629Y-56570399D01*
X75244626Y-56582135D01*
X75244365Y-56732609D01*
X75243701Y-56869881D01*
X75242657Y-56992537D01*
X75241254Y-57099166D01*
X75239515Y-57188355D01*
X75238931Y-57208358D01*
X75237462Y-57258692D01*
X75235117Y-57308764D01*
G37*
X75235117Y-57308764D02*
X75232504Y-57337159D01*
X75223635Y-57383609D01*
X75186082Y-57510769D01*
X75130916Y-57636632D01*
X75061224Y-57754814D01*
X74980093Y-57858934D01*
X74971699Y-57868100D01*
X74863387Y-57968426D01*
X74740967Y-58052423D01*
X74607794Y-58118402D01*
X74467226Y-58164677D01*
X74322618Y-58189558D01*
X74222372Y-58194041D01*
X74073951Y-58182642D01*
X73930532Y-58150389D01*
X73794296Y-58098366D01*
X73667421Y-58027652D01*
X73552088Y-57939330D01*
X73450475Y-57834481D01*
X73364763Y-57714188D01*
X73307508Y-57607269D01*
X73254363Y-57468033D01*
X73223007Y-57323469D01*
X73216503Y-57227105D01*
X73711742Y-57227105D01*
X73712024Y-57232395D01*
X73716342Y-57287698D01*
X73723699Y-57329990D01*
X73736344Y-57368598D01*
X73756525Y-57412844D01*
X73778013Y-57451171D01*
X73819498Y-57509965D01*
X73867555Y-57565421D01*
X73916878Y-57611615D01*
X73962164Y-57642619D01*
X73978331Y-57650395D01*
X74019236Y-57667755D01*
X74062233Y-57683841D01*
X74135060Y-57703129D01*
X74238761Y-57711650D01*
X74340302Y-57698856D01*
X74437088Y-57665724D01*
X74526520Y-57613231D01*
X74606001Y-57542354D01*
X74672935Y-57454071D01*
X74701589Y-57399926D01*
X74732021Y-57305907D01*
X74742593Y-57208358D01*
X74734287Y-57110410D01*
X74708085Y-57015197D01*
X74664972Y-56925850D01*
X74605929Y-56845504D01*
X74531939Y-56777290D01*
X74443987Y-56724341D01*
X74429984Y-56718055D01*
X74331638Y-56687430D01*
X74230286Y-56677248D01*
X74129382Y-56686568D01*
X74032383Y-56714446D01*
X73942747Y-56759942D01*
X73863930Y-56822112D01*
X73799388Y-56900016D01*
X73781618Y-56928545D01*
X73737966Y-57021968D01*
X73715110Y-57119860D01*
X73711742Y-57227105D01*
X73216503Y-57227105D01*
X73212716Y-57170991D01*
X73216277Y-57081321D01*
X73238958Y-56931042D01*
X73281710Y-56789073D01*
X73343520Y-56657088D01*
X73423378Y-56536763D01*
X73520272Y-56429774D01*
X73633192Y-56337794D01*
X73761125Y-56262501D01*
X73830976Y-56229862D01*
X73906114Y-56200645D01*
X73977766Y-56181153D01*
X74054249Y-56169216D01*
X74143884Y-56162664D01*
X74161696Y-56161996D01*
X74300897Y-56168434D01*
X74431280Y-56196110D01*
X74553496Y-56245214D01*
X74668193Y-56315936D01*
X74692327Y-56333138D01*
X74717173Y-56349481D01*
X74729604Y-56355795D01*
X74730512Y-56351765D01*
X74731961Y-56327958D01*
X74733288Y-56284835D01*
X74734457Y-56224760D01*
X74735433Y-56150098D01*
X74736183Y-56063212D01*
X74736672Y-55966467D01*
X74736864Y-55862227D01*
X74737012Y-55368659D01*
X75244716Y-55878685D01*
X75244629Y-56570399D01*
X75244626Y-56582135D01*
X75244365Y-56732609D01*
X75243701Y-56869881D01*
X75242657Y-56992537D01*
X75241254Y-57099166D01*
X75239515Y-57188355D01*
X75238931Y-57208358D01*
X75237462Y-57258692D01*
X75235117Y-57308764D01*
D11*
%TO.C,RSW2*%
X23035200Y-88471000D02*
X22785200Y-88471000D01*
X19535200Y-82471000D02*
X19785200Y-82471000D01*
X19535200Y-88471000D02*
X19535200Y-82471000D01*
X23035200Y-82471000D02*
X23035200Y-88471000D01*
X22785200Y-82471000D02*
X23035200Y-82471000D01*
X19785200Y-88471000D02*
X19535200Y-88471000D01*
%TO.C,+*%
X230802000Y-48640400D02*
X228802000Y-48640400D01*
X228802000Y-48640400D02*
X228802000Y-46640400D01*
X228802000Y-46640400D02*
X230802000Y-46640400D01*
X230802000Y-46640400D02*
X230802000Y-48640400D01*
%TO.C,-*%
X240943200Y-48691200D02*
X240943200Y-46691200D01*
X240943200Y-46691200D02*
X242943200Y-46691200D01*
X242943200Y-46691200D02*
X242943200Y-48691200D01*
X242943200Y-48691200D02*
X240943200Y-48691200D01*
%TO.C,+*%
X19040600Y-46574200D02*
X21040600Y-46574200D01*
X19040600Y-48574200D02*
X19040600Y-46574200D01*
X21040600Y-48574200D02*
X19040600Y-48574200D01*
X21040600Y-46574200D02*
X21040600Y-48574200D01*
%TO.C,-*%
X31207200Y-48625000D02*
X31207200Y-46625000D01*
X31207200Y-46625000D02*
X33207200Y-46625000D01*
X33207200Y-46625000D02*
X33207200Y-48625000D01*
X33207200Y-48625000D02*
X31207200Y-48625000D01*
%TO.C,D7*%
X138913200Y-58599800D02*
X144313200Y-58599800D01*
X141113200Y-58849800D02*
X141113200Y-59849800D01*
X144313200Y-58599800D02*
X144313200Y-60099800D01*
X144313200Y-60099800D02*
X138913200Y-60099800D01*
X138913200Y-58599800D02*
X138913200Y-60099800D01*
X142013200Y-59349800D02*
X141113200Y-58849800D01*
X141113200Y-59849800D02*
X142013200Y-59349800D01*
X142113200Y-58849800D02*
X142113200Y-59849800D01*
%TO.C,D18*%
X191770600Y-91797600D02*
X197170600Y-91797600D01*
X197170600Y-91797600D02*
X197170600Y-93297600D01*
X191770600Y-91797600D02*
X191770600Y-93297600D01*
X193970600Y-93047600D02*
X194870600Y-92547600D01*
X197170600Y-93297600D02*
X191770600Y-93297600D01*
X194970600Y-92047600D02*
X194970600Y-93047600D01*
X193970600Y-92047600D02*
X193970600Y-93047600D01*
X194870600Y-92547600D02*
X193970600Y-92047600D01*
%TO.C,Dr16*%
X63619400Y-61632400D02*
X69019400Y-61632400D01*
X65819400Y-62882400D02*
X65819400Y-61882400D01*
X69019400Y-63132400D02*
X69019400Y-61632400D01*
X66819400Y-62882400D02*
X66819400Y-61882400D01*
X65919400Y-62382400D02*
X66819400Y-62882400D01*
X66819400Y-61882400D02*
X65919400Y-62382400D01*
X63619400Y-63132400D02*
X63619400Y-61632400D01*
X69019400Y-63132400D02*
X63619400Y-63132400D01*
%TO.C,Dr15*%
X87028000Y-58001600D02*
X87028000Y-56501600D01*
X84828000Y-57751600D02*
X84828000Y-56751600D01*
X81628000Y-58001600D02*
X81628000Y-56501600D01*
X81628000Y-56501600D02*
X87028000Y-56501600D01*
X83828000Y-57751600D02*
X83828000Y-56751600D01*
X84828000Y-56751600D02*
X83928000Y-57251600D01*
X87028000Y-58001600D02*
X81628000Y-58001600D01*
X83928000Y-57251600D02*
X84828000Y-57751600D01*
%TO.C,Dr3*%
X81551800Y-24016400D02*
X81551800Y-22516400D01*
X81551800Y-22516400D02*
X86951800Y-22516400D01*
X86951800Y-24016400D02*
X81551800Y-24016400D01*
X83751800Y-23766400D02*
X83751800Y-22766400D01*
X84751800Y-23766400D02*
X84751800Y-22766400D01*
X84751800Y-22766400D02*
X83851800Y-23266400D01*
X83851800Y-23266400D02*
X84751800Y-23766400D01*
X86951800Y-24016400D02*
X86951800Y-22516400D01*
%TO.C,Dr18*%
X65473600Y-91198000D02*
X70873600Y-91198000D01*
X70873600Y-92698000D02*
X65473600Y-92698000D01*
X68673600Y-92448000D02*
X68673600Y-91448000D01*
X70873600Y-92698000D02*
X70873600Y-91198000D01*
X68673600Y-91448000D02*
X67773600Y-91948000D01*
X65473600Y-92698000D02*
X65473600Y-91198000D01*
X67673600Y-92448000D02*
X67673600Y-91448000D01*
X67773600Y-91948000D02*
X68673600Y-92448000D01*
%TO.C,Dr9*%
X86951800Y-40780400D02*
X81551800Y-40780400D01*
X81551800Y-39280400D02*
X86951800Y-39280400D01*
X83851800Y-40030400D02*
X84751800Y-40530400D01*
X83751800Y-40530400D02*
X83751800Y-39530400D01*
X86951800Y-40780400D02*
X86951800Y-39280400D01*
X84751800Y-39530400D02*
X83851800Y-40030400D01*
X84751800Y-40530400D02*
X84751800Y-39530400D01*
X81551800Y-40780400D02*
X81551800Y-39280400D01*
%TO.C,D11*%
X216500000Y-49101600D02*
X211100000Y-49101600D01*
X214200000Y-48351600D02*
X213300000Y-47851600D01*
X213300000Y-47851600D02*
X213300000Y-48851600D01*
X211100000Y-47601600D02*
X216500000Y-47601600D01*
X213300000Y-48851600D02*
X214200000Y-48351600D01*
X216500000Y-47601600D02*
X216500000Y-49101600D01*
X214300000Y-47851600D02*
X214300000Y-48851600D01*
X211100000Y-47601600D02*
X211100000Y-49101600D01*
%TO.C,D17*%
X214200000Y-65471200D02*
X213300000Y-64971200D01*
X216500000Y-66221200D02*
X211100000Y-66221200D01*
X213300000Y-65971200D02*
X214200000Y-65471200D01*
X213300000Y-64971200D02*
X213300000Y-65971200D01*
X211100000Y-64721200D02*
X211100000Y-66221200D01*
X211100000Y-64721200D02*
X216500000Y-64721200D01*
X214300000Y-64971200D02*
X214300000Y-65971200D01*
X216500000Y-64721200D02*
X216500000Y-66221200D01*
%TO.C,D15*%
X180533600Y-56872600D02*
X180533600Y-58372600D01*
X177333600Y-58122600D02*
X178233600Y-57622600D01*
X180533600Y-58372600D02*
X175133600Y-58372600D01*
X175133600Y-56872600D02*
X180533600Y-56872600D01*
X178233600Y-57622600D02*
X177333600Y-57122600D01*
X175133600Y-56872600D02*
X175133600Y-58372600D01*
X178333600Y-57122600D02*
X178333600Y-58122600D01*
X177333600Y-57122600D02*
X177333600Y-58122600D01*
%TO.C,D2*%
X157074200Y-29466000D02*
X157074200Y-30966000D01*
X160174200Y-30216000D02*
X159274200Y-29716000D01*
X159274200Y-30716000D02*
X160174200Y-30216000D01*
X159274200Y-29716000D02*
X159274200Y-30716000D01*
X162474200Y-30966000D02*
X157074200Y-30966000D01*
X160274200Y-29716000D02*
X160274200Y-30716000D01*
X162474200Y-29466000D02*
X162474200Y-30966000D01*
X157074200Y-29466000D02*
X162474200Y-29466000D01*
%TO.C,Dr4*%
X65819400Y-28897200D02*
X65819400Y-27897200D01*
X65919400Y-28397200D02*
X66819400Y-28897200D01*
X66819400Y-27897200D02*
X65919400Y-28397200D01*
X63619400Y-29147200D02*
X63619400Y-27647200D01*
X63619400Y-27647200D02*
X69019400Y-27647200D01*
X69019400Y-29147200D02*
X69019400Y-27647200D01*
X69019400Y-29147200D02*
X63619400Y-29147200D01*
X66819400Y-28897200D02*
X66819400Y-27897200D01*
%TO.C,D13*%
X141341800Y-77045600D02*
X142241800Y-76545600D01*
X142341800Y-76045600D02*
X142341800Y-77045600D01*
X139141800Y-75795600D02*
X144541800Y-75795600D01*
X139141800Y-75795600D02*
X139141800Y-77295600D01*
X144541800Y-77295600D02*
X139141800Y-77295600D01*
X142241800Y-76545600D02*
X141341800Y-76045600D01*
X141341800Y-76045600D02*
X141341800Y-77045600D01*
X144541800Y-75795600D02*
X144541800Y-77295600D01*
%TO.C,Dr10*%
X63619400Y-44690600D02*
X69019400Y-44690600D01*
X66819400Y-45940600D02*
X66819400Y-44940600D01*
X69019400Y-46190600D02*
X63619400Y-46190600D01*
X69019400Y-46190600D02*
X69019400Y-44690600D01*
X66819400Y-44940600D02*
X65919400Y-45440600D01*
X63619400Y-46190600D02*
X63619400Y-44690600D01*
X65919400Y-45440600D02*
X66819400Y-45940600D01*
X65819400Y-45940600D02*
X65819400Y-44940600D01*
D10*
%TO.C,SW_POWER1*%
X234421800Y-45882800D02*
X234621800Y-45672800D01*
X234621800Y-45672800D02*
X235521800Y-45672800D01*
X234221800Y-50022800D02*
X235921800Y-50022800D01*
X237221800Y-50022800D02*
X237421800Y-50022800D01*
X235721800Y-45882800D02*
X235521800Y-45672800D01*
X239271800Y-48182800D02*
X239271800Y-48972800D01*
X235721800Y-45882800D02*
X235721800Y-47172800D01*
X234421800Y-47172800D02*
X234421800Y-45882800D01*
X232371800Y-48972800D02*
X232371800Y-48182800D01*
X232971800Y-47172800D02*
X238671800Y-47172800D01*
D11*
%TO.C,D3*%
X175108200Y-22658800D02*
X175108200Y-24158800D01*
X180508200Y-22658800D02*
X180508200Y-24158800D01*
X177308200Y-22908800D02*
X177308200Y-23908800D01*
X178208200Y-23408800D02*
X177308200Y-22908800D01*
X180508200Y-24158800D02*
X175108200Y-24158800D01*
X177308200Y-23908800D02*
X178208200Y-23408800D01*
X175108200Y-22658800D02*
X180508200Y-22658800D01*
X178308200Y-22908800D02*
X178308200Y-23908800D01*
%TO.C,Dr11*%
X50985400Y-48857600D02*
X50985400Y-47357600D01*
X48785400Y-48607600D02*
X48785400Y-47607600D01*
X45585400Y-48857600D02*
X45585400Y-47357600D01*
X50985400Y-48857600D02*
X45585400Y-48857600D01*
X45585400Y-47357600D02*
X50985400Y-47357600D01*
X47885400Y-48107600D02*
X48785400Y-48607600D01*
X48785400Y-47607600D02*
X47885400Y-48107600D01*
X47785400Y-48607600D02*
X47785400Y-47607600D01*
%TO.C,Dr2*%
X101962000Y-29972000D02*
X102862000Y-30472000D01*
X105062000Y-30722000D02*
X105062000Y-29222000D01*
X102862000Y-29472000D02*
X101962000Y-29972000D01*
X101862000Y-30472000D02*
X101862000Y-29472000D01*
X99662000Y-30722000D02*
X99662000Y-29222000D01*
X99662000Y-29222000D02*
X105062000Y-29222000D01*
X102862000Y-30472000D02*
X102862000Y-29472000D01*
X105062000Y-30722000D02*
X99662000Y-30722000D01*
%TO.C,D20*%
X229816836Y-102931988D02*
X230840861Y-103038631D01*
X231209564Y-102686412D02*
X230635988Y-103505564D01*
X232294728Y-104972220D02*
X227871307Y-101874908D01*
X230390412Y-102112836D02*
X229816836Y-102931988D01*
X233155093Y-103743492D02*
X232294728Y-104972220D01*
X228731672Y-100646180D02*
X227871307Y-101874908D01*
X230840861Y-103038631D02*
X230390412Y-102112836D01*
X228731672Y-100646180D02*
X233155093Y-103743492D01*
%TO.C,D16*%
X193015200Y-62232000D02*
X198415200Y-62232000D01*
X198415200Y-63732000D02*
X193015200Y-63732000D01*
X195215200Y-62482000D02*
X195215200Y-63482000D01*
X196215200Y-62482000D02*
X196215200Y-63482000D01*
X196115200Y-62982000D02*
X195215200Y-62482000D01*
X193015200Y-62232000D02*
X193015200Y-63732000D01*
X195215200Y-63482000D02*
X196115200Y-62982000D01*
X198415200Y-62232000D02*
X198415200Y-63732000D01*
%TO.C,Dr20*%
X29235107Y-103372492D02*
X33658528Y-100275180D01*
X31549339Y-102667631D02*
X32573364Y-102560988D01*
X32573364Y-102560988D02*
X31999788Y-101741836D01*
X31754212Y-103134564D02*
X31180636Y-102315412D01*
X31999788Y-101741836D02*
X31549339Y-102667631D01*
X34518893Y-101503908D02*
X30095472Y-104601220D01*
X30095472Y-104601220D02*
X29235107Y-103372492D01*
X34518893Y-101503908D02*
X33658528Y-100275180D01*
%TO.C,Dr7*%
X119870600Y-59682000D02*
X119870600Y-58682000D01*
X120870600Y-58682000D02*
X119970600Y-59182000D01*
X123070600Y-59932000D02*
X123070600Y-58432000D01*
X117670600Y-58432000D02*
X123070600Y-58432000D01*
X119970600Y-59182000D02*
X120870600Y-59682000D01*
X117670600Y-59932000D02*
X117670600Y-58432000D01*
X120870600Y-59682000D02*
X120870600Y-58682000D01*
X123070600Y-59932000D02*
X117670600Y-59932000D01*
%TO.C,Dr5*%
X48785400Y-31564200D02*
X48785400Y-30564200D01*
X48785400Y-30564200D02*
X47885400Y-31064200D01*
X50985400Y-31814200D02*
X45585400Y-31814200D01*
X45585400Y-31814200D02*
X45585400Y-30314200D01*
X45585400Y-30314200D02*
X50985400Y-30314200D01*
X47885400Y-31064200D02*
X48785400Y-31564200D01*
X50985400Y-31814200D02*
X50985400Y-30314200D01*
X47785400Y-31564200D02*
X47785400Y-30564200D01*
%TO.C,D19*%
X210827315Y-93511944D02*
X216043314Y-94909567D01*
X213853572Y-94581647D02*
X213594753Y-95547572D01*
X212887647Y-94322828D02*
X212628828Y-95288753D01*
X210827315Y-93511944D02*
X210439086Y-94960833D01*
X216043314Y-94909567D02*
X215655085Y-96358456D01*
X215655085Y-96358456D02*
X210439086Y-94960833D01*
X212628828Y-95288753D02*
X213627570Y-95038728D01*
X213627570Y-95038728D02*
X212887647Y-94322828D01*
%TO.C,Dr1*%
X120794400Y-41587800D02*
X119894400Y-42087800D01*
X117594400Y-41337800D02*
X122994400Y-41337800D01*
X117594400Y-42837800D02*
X117594400Y-41337800D01*
X122994400Y-42837800D02*
X122994400Y-41337800D01*
X119794400Y-42587800D02*
X119794400Y-41587800D01*
X122994400Y-42837800D02*
X117594400Y-42837800D01*
X120794400Y-42587800D02*
X120794400Y-41587800D01*
X119894400Y-42087800D02*
X120794400Y-42587800D01*
D10*
%TO.C,SW_POWERR1*%
X24762000Y-45511800D02*
X24962000Y-45301800D01*
X26062000Y-45511800D02*
X25862000Y-45301800D01*
X26062000Y-45511800D02*
X26062000Y-46801800D01*
X23312000Y-46801800D02*
X29012000Y-46801800D01*
X24962000Y-45301800D02*
X25862000Y-45301800D01*
X24562000Y-49651800D02*
X26262000Y-49651800D01*
X27562000Y-49651800D02*
X27762000Y-49651800D01*
X24762000Y-46801800D02*
X24762000Y-45511800D01*
X22712000Y-48601800D02*
X22712000Y-47811800D01*
X29612000Y-47811800D02*
X29612000Y-48601800D01*
D11*
%TO.C,Dr14*%
X105062000Y-65037400D02*
X99662000Y-65037400D01*
X101962000Y-64287400D02*
X102862000Y-64787400D01*
X105062000Y-65037400D02*
X105062000Y-63537400D01*
X101862000Y-64787400D02*
X101862000Y-63787400D01*
X99662000Y-63537400D02*
X105062000Y-63537400D01*
X99662000Y-65037400D02*
X99662000Y-63537400D01*
X102862000Y-63787400D02*
X101962000Y-64287400D01*
X102862000Y-64787400D02*
X102862000Y-63787400D01*
%TO.C,D10*%
X193040600Y-45163200D02*
X198440600Y-45163200D01*
X195240600Y-46413200D02*
X196140600Y-45913200D01*
X198440600Y-46663200D02*
X193040600Y-46663200D01*
X195240600Y-45413200D02*
X195240600Y-46413200D01*
X196240600Y-45413200D02*
X196240600Y-46413200D01*
X193040600Y-45163200D02*
X193040600Y-46663200D01*
X196140600Y-45913200D02*
X195240600Y-45413200D01*
X198440600Y-45163200D02*
X198440600Y-46663200D01*
%TO.C,D9*%
X178257400Y-40079200D02*
X178257400Y-41079200D01*
X177257400Y-41079200D02*
X178157400Y-40579200D01*
X180457400Y-41329200D02*
X175057400Y-41329200D01*
X177257400Y-40079200D02*
X177257400Y-41079200D01*
X175057400Y-39829200D02*
X180457400Y-39829200D01*
X180457400Y-39829200D02*
X180457400Y-41329200D01*
X178157400Y-40579200D02*
X177257400Y-40079200D01*
X175057400Y-39829200D02*
X175057400Y-41329200D01*
%TO.C,Dr13*%
X120921400Y-75674600D02*
X120021400Y-76174600D01*
X119921400Y-76674600D02*
X119921400Y-75674600D01*
X117721400Y-76924600D02*
X117721400Y-75424600D01*
X123121400Y-76924600D02*
X117721400Y-76924600D01*
X120021400Y-76174600D02*
X120921400Y-76674600D01*
X123121400Y-76924600D02*
X123121400Y-75424600D01*
X120921400Y-76674600D02*
X120921400Y-75674600D01*
X117721400Y-75424600D02*
X123121400Y-75424600D01*
%TO.C,D4*%
X195291400Y-29293600D02*
X196191400Y-28793600D01*
X196291400Y-28293600D02*
X196291400Y-29293600D01*
X195291400Y-28293600D02*
X195291400Y-29293600D01*
X198491400Y-29543600D02*
X193091400Y-29543600D01*
X196191400Y-28793600D02*
X195291400Y-28293600D01*
X193091400Y-28043600D02*
X193091400Y-29543600D01*
X193091400Y-28043600D02*
X198491400Y-28043600D01*
X198491400Y-28043600D02*
X198491400Y-29543600D01*
%TO.C,D14*%
X159223400Y-65158400D02*
X160123400Y-64658400D01*
X160223400Y-64158400D02*
X160223400Y-65158400D01*
X157023400Y-63908400D02*
X162423400Y-63908400D01*
X157023400Y-63908400D02*
X157023400Y-65408400D01*
X162423400Y-63908400D02*
X162423400Y-65408400D01*
X162423400Y-65408400D02*
X157023400Y-65408400D01*
X159223400Y-64158400D02*
X159223400Y-65158400D01*
X160123400Y-64658400D02*
X159223400Y-64158400D01*
%TO.C,Dr8*%
X102862000Y-46540800D02*
X101962000Y-47040800D01*
X102862000Y-47540800D02*
X102862000Y-46540800D01*
X101862000Y-47540800D02*
X101862000Y-46540800D01*
X99662000Y-47790800D02*
X99662000Y-46290800D01*
X101962000Y-47040800D02*
X102862000Y-47540800D01*
X99662000Y-46290800D02*
X105062000Y-46290800D01*
X105062000Y-47790800D02*
X105062000Y-46290800D01*
X105062000Y-47790800D02*
X99662000Y-47790800D01*
%TO.C,Dr19*%
X48947847Y-95201972D02*
X48689028Y-94236047D01*
X49913772Y-94943153D02*
X49654953Y-93977228D01*
X52103514Y-94615233D02*
X46887515Y-96012856D01*
X49654953Y-93977228D02*
X48915030Y-94693128D01*
X46887515Y-96012856D02*
X46499286Y-94563967D01*
X46499286Y-94563967D02*
X51715285Y-93166344D01*
X52103514Y-94615233D02*
X51715285Y-93166344D01*
X48915030Y-94693128D02*
X49913772Y-94943153D01*
%TO.C,D5*%
X211100000Y-30558200D02*
X216500000Y-30558200D01*
X216500000Y-32058200D02*
X211100000Y-32058200D01*
X214300000Y-30808200D02*
X214300000Y-31808200D01*
X213300000Y-30808200D02*
X213300000Y-31808200D01*
X211100000Y-30558200D02*
X211100000Y-32058200D01*
X213300000Y-31808200D02*
X214200000Y-31308200D01*
X214200000Y-31308200D02*
X213300000Y-30808200D01*
X216500000Y-30558200D02*
X216500000Y-32058200D01*
%TO.C,Dr17*%
X48785400Y-65549400D02*
X48785400Y-64549400D01*
X47785400Y-65549400D02*
X47785400Y-64549400D01*
X48785400Y-64549400D02*
X47885400Y-65049400D01*
X45585400Y-64299400D02*
X50985400Y-64299400D01*
X47885400Y-65049400D02*
X48785400Y-65549400D01*
X50985400Y-65799400D02*
X45585400Y-65799400D01*
X50985400Y-65799400D02*
X50985400Y-64299400D01*
X45585400Y-65799400D02*
X45585400Y-64299400D01*
%TO.C,D1*%
X142265600Y-41704800D02*
X142265600Y-42704800D01*
X144465600Y-42954800D02*
X139065600Y-42954800D01*
X139065600Y-41454800D02*
X144465600Y-41454800D01*
X139065600Y-41454800D02*
X139065600Y-42954800D01*
X141265600Y-41704800D02*
X141265600Y-42704800D01*
X142165600Y-42204800D02*
X141265600Y-41704800D01*
X141265600Y-42704800D02*
X142165600Y-42204800D01*
X144465600Y-41454800D02*
X144465600Y-42954800D01*
%TO.C,D8*%
X162474200Y-46687200D02*
X162474200Y-48187200D01*
X162474200Y-48187200D02*
X157074200Y-48187200D01*
X160274200Y-46937200D02*
X160274200Y-47937200D01*
X160174200Y-47437200D02*
X159274200Y-46937200D01*
X159274200Y-46937200D02*
X159274200Y-47937200D01*
X159274200Y-47937200D02*
X160174200Y-47437200D01*
X157074200Y-46687200D02*
X157074200Y-48187200D01*
X157074200Y-46687200D02*
X162474200Y-46687200D01*
%TD*%
M02*
