%TF.GenerationSoftware,KiCad,Pcbnew,(6.0.5-0)*%
%TF.CreationDate,2022-06-22T19:02:17-07:00*%
%TF.ProjectId,Swept_3x5,53776570-745f-4337-9835-2e6b69636164,rev?*%
%TF.SameCoordinates,Original*%
%TF.FileFunction,Legend,Top*%
%TF.FilePolarity,Positive*%
%FSLAX46Y46*%
G04 Gerber Fmt 4.6, Leading zero omitted, Abs format (unit mm)*
G04 Created by KiCad (PCBNEW (6.0.5-0)) date 2022-06-22 19:02:17*
%MOMM*%
%LPD*%
G01*
G04 APERTURE LIST*
%ADD10C,0.300000*%
%ADD11C,0.125000*%
%ADD12C,0.120000*%
%ADD13C,0.150000*%
%ADD14C,0.100000*%
%ADD15C,0.200000*%
%ADD16C,0.010000*%
%ADD17C,2.000000*%
G04 APERTURE END LIST*
D10*
X235409857Y-71299857D02*
X235409857Y-71799857D01*
X236195571Y-71799857D02*
X234695571Y-71799857D01*
X234695571Y-71085571D01*
X236195571Y-69871285D02*
X235409857Y-69871285D01*
X235267000Y-69942714D01*
X235195571Y-70085571D01*
X235195571Y-70371285D01*
X235267000Y-70514142D01*
X236124142Y-69871285D02*
X236195571Y-70014142D01*
X236195571Y-70371285D01*
X236124142Y-70514142D01*
X235981285Y-70585571D01*
X235838428Y-70585571D01*
X235695571Y-70514142D01*
X235624142Y-70371285D01*
X235624142Y-70014142D01*
X235552714Y-69871285D01*
X236124142Y-68514142D02*
X236195571Y-68657000D01*
X236195571Y-68942714D01*
X236124142Y-69085571D01*
X236052714Y-69157000D01*
X235909857Y-69228428D01*
X235481285Y-69228428D01*
X235338428Y-69157000D01*
X235267000Y-69085571D01*
X235195571Y-68942714D01*
X235195571Y-68657000D01*
X235267000Y-68514142D01*
X236124142Y-67299857D02*
X236195571Y-67442714D01*
X236195571Y-67728428D01*
X236124142Y-67871285D01*
X235981285Y-67942714D01*
X235409857Y-67942714D01*
X235267000Y-67871285D01*
X235195571Y-67728428D01*
X235195571Y-67442714D01*
X235267000Y-67299857D01*
X235409857Y-67228428D01*
X235552714Y-67228428D01*
X235695571Y-67942714D01*
X236195571Y-64799857D02*
X234695571Y-64799857D01*
X236124142Y-64799857D02*
X236195571Y-64942714D01*
X236195571Y-65228428D01*
X236124142Y-65371285D01*
X236052714Y-65442714D01*
X235909857Y-65514142D01*
X235481285Y-65514142D01*
X235338428Y-65442714D01*
X235267000Y-65371285D01*
X235195571Y-65228428D01*
X235195571Y-64942714D01*
X235267000Y-64799857D01*
X236195571Y-63871285D02*
X236124142Y-64014142D01*
X236052714Y-64085571D01*
X235909857Y-64157000D01*
X235481285Y-64157000D01*
X235338428Y-64085571D01*
X235267000Y-64014142D01*
X235195571Y-63871285D01*
X235195571Y-63657000D01*
X235267000Y-63514142D01*
X235338428Y-63442714D01*
X235481285Y-63371285D01*
X235909857Y-63371285D01*
X236052714Y-63442714D01*
X236124142Y-63514142D01*
X236195571Y-63657000D01*
X236195571Y-63871285D01*
X235195571Y-62871285D02*
X236195571Y-62585571D01*
X235481285Y-62299857D01*
X236195571Y-62014142D01*
X235195571Y-61728428D01*
X235195571Y-61157000D02*
X236195571Y-61157000D01*
X235338428Y-61157000D02*
X235267000Y-61085571D01*
X235195571Y-60942714D01*
X235195571Y-60728428D01*
X235267000Y-60585571D01*
X235409857Y-60514142D01*
X236195571Y-60514142D01*
X25267457Y-67322057D02*
X25267457Y-67822057D01*
X26053171Y-67822057D02*
X24553171Y-67822057D01*
X24553171Y-67107771D01*
X26053171Y-65893485D02*
X25267457Y-65893485D01*
X25124600Y-65964914D01*
X25053171Y-66107771D01*
X25053171Y-66393485D01*
X25124600Y-66536342D01*
X25981742Y-65893485D02*
X26053171Y-66036342D01*
X26053171Y-66393485D01*
X25981742Y-66536342D01*
X25838885Y-66607771D01*
X25696028Y-66607771D01*
X25553171Y-66536342D01*
X25481742Y-66393485D01*
X25481742Y-66036342D01*
X25410314Y-65893485D01*
X25981742Y-64536342D02*
X26053171Y-64679200D01*
X26053171Y-64964914D01*
X25981742Y-65107771D01*
X25910314Y-65179200D01*
X25767457Y-65250628D01*
X25338885Y-65250628D01*
X25196028Y-65179200D01*
X25124600Y-65107771D01*
X25053171Y-64964914D01*
X25053171Y-64679200D01*
X25124600Y-64536342D01*
X25981742Y-63322057D02*
X26053171Y-63464914D01*
X26053171Y-63750628D01*
X25981742Y-63893485D01*
X25838885Y-63964914D01*
X25267457Y-63964914D01*
X25124600Y-63893485D01*
X25053171Y-63750628D01*
X25053171Y-63464914D01*
X25124600Y-63322057D01*
X25267457Y-63250628D01*
X25410314Y-63250628D01*
X25553171Y-63964914D01*
X26053171Y-60822057D02*
X24553171Y-60822057D01*
X25981742Y-60822057D02*
X26053171Y-60964914D01*
X26053171Y-61250628D01*
X25981742Y-61393485D01*
X25910314Y-61464914D01*
X25767457Y-61536342D01*
X25338885Y-61536342D01*
X25196028Y-61464914D01*
X25124600Y-61393485D01*
X25053171Y-61250628D01*
X25053171Y-60964914D01*
X25124600Y-60822057D01*
X26053171Y-59893485D02*
X25981742Y-60036342D01*
X25910314Y-60107771D01*
X25767457Y-60179200D01*
X25338885Y-60179200D01*
X25196028Y-60107771D01*
X25124600Y-60036342D01*
X25053171Y-59893485D01*
X25053171Y-59679200D01*
X25124600Y-59536342D01*
X25196028Y-59464914D01*
X25338885Y-59393485D01*
X25767457Y-59393485D01*
X25910314Y-59464914D01*
X25981742Y-59536342D01*
X26053171Y-59679200D01*
X26053171Y-59893485D01*
X25053171Y-58893485D02*
X26053171Y-58607771D01*
X25338885Y-58322057D01*
X26053171Y-58036342D01*
X25053171Y-57750628D01*
X25053171Y-57179200D02*
X26053171Y-57179200D01*
X25196028Y-57179200D02*
X25124600Y-57107771D01*
X25053171Y-56964914D01*
X25053171Y-56750628D01*
X25124600Y-56607771D01*
X25267457Y-56536342D01*
X26053171Y-56536342D01*
D11*
%TO.C,U1*%
X240439723Y-57297000D02*
X240375914Y-57261285D01*
X240280200Y-57261285D01*
X240184485Y-57297000D01*
X240120676Y-57368428D01*
X240088771Y-57439857D01*
X240056866Y-57582714D01*
X240056866Y-57689857D01*
X240088771Y-57832714D01*
X240120676Y-57904142D01*
X240184485Y-57975571D01*
X240280200Y-58011285D01*
X240344009Y-58011285D01*
X240439723Y-57975571D01*
X240471628Y-57939857D01*
X240471628Y-57689857D01*
X240344009Y-57689857D01*
X240758771Y-58011285D02*
X240758771Y-57261285D01*
X241141628Y-58011285D01*
X241141628Y-57261285D01*
X241460676Y-58011285D02*
X241460676Y-57261285D01*
X241620200Y-57261285D01*
X241715914Y-57297000D01*
X241779723Y-57368428D01*
X241811628Y-57439857D01*
X241843533Y-57582714D01*
X241843533Y-57689857D01*
X241811628Y-57832714D01*
X241779723Y-57904142D01*
X241715914Y-57975571D01*
X241620200Y-58011285D01*
X241460676Y-58011285D01*
X238411390Y-50461285D02*
X238411390Y-49711285D01*
X238570914Y-49711285D01*
X238666628Y-49747000D01*
X238730438Y-49818428D01*
X238762342Y-49889857D01*
X238794247Y-50032714D01*
X238794247Y-50139857D01*
X238762342Y-50282714D01*
X238730438Y-50354142D01*
X238666628Y-50425571D01*
X238570914Y-50461285D01*
X238411390Y-50461285D01*
X239017580Y-49711285D02*
X239432342Y-49711285D01*
X239209009Y-49997000D01*
X239304723Y-49997000D01*
X239368533Y-50032714D01*
X239400438Y-50068428D01*
X239432342Y-50139857D01*
X239432342Y-50318428D01*
X239400438Y-50389857D01*
X239368533Y-50425571D01*
X239304723Y-50461285D01*
X239113295Y-50461285D01*
X239049485Y-50425571D01*
X239017580Y-50389857D01*
X240198057Y-49675571D02*
X239623771Y-50639857D01*
X240325676Y-49711285D02*
X240708533Y-49711285D01*
X240517104Y-50461285D02*
X240517104Y-49711285D01*
X240868057Y-49711285D02*
X241314723Y-50461285D01*
X241314723Y-49711285D02*
X240868057Y-50461285D01*
X241697580Y-49711285D02*
X241761390Y-49711285D01*
X241825200Y-49747000D01*
X241857104Y-49782714D01*
X241889009Y-49854142D01*
X241920914Y-49997000D01*
X241920914Y-50175571D01*
X241889009Y-50318428D01*
X241857104Y-50389857D01*
X241825200Y-50425571D01*
X241761390Y-50461285D01*
X241697580Y-50461285D01*
X241633771Y-50425571D01*
X241601866Y-50389857D01*
X241569961Y-50318428D01*
X241538057Y-50175571D01*
X241538057Y-49997000D01*
X241569961Y-49854142D01*
X241601866Y-49782714D01*
X241633771Y-49747000D01*
X241697580Y-49711285D01*
X239567580Y-72768428D02*
X239790914Y-72768428D01*
X239886628Y-73161285D02*
X239567580Y-73161285D01*
X239567580Y-72411285D01*
X239886628Y-72411285D01*
X240460914Y-72411285D02*
X240333295Y-72411285D01*
X240269485Y-72447000D01*
X240237580Y-72482714D01*
X240173771Y-72589857D01*
X240141866Y-72732714D01*
X240141866Y-73018428D01*
X240173771Y-73089857D01*
X240205676Y-73125571D01*
X240269485Y-73161285D01*
X240397104Y-73161285D01*
X240460914Y-73125571D01*
X240492819Y-73089857D01*
X240524723Y-73018428D01*
X240524723Y-72839857D01*
X240492819Y-72768428D01*
X240460914Y-72732714D01*
X240397104Y-72697000D01*
X240269485Y-72697000D01*
X240205676Y-72732714D01*
X240173771Y-72768428D01*
X240141866Y-72839857D01*
X241290438Y-72375571D02*
X240716152Y-73339857D01*
X241449961Y-72411285D02*
X241896628Y-72411285D01*
X241609485Y-73161285D01*
X238331628Y-53011285D02*
X238331628Y-52261285D01*
X238491152Y-52261285D01*
X238586866Y-52297000D01*
X238650676Y-52368428D01*
X238682580Y-52439857D01*
X238714485Y-52582714D01*
X238714485Y-52689857D01*
X238682580Y-52832714D01*
X238650676Y-52904142D01*
X238586866Y-52975571D01*
X238491152Y-53011285D01*
X238331628Y-53011285D01*
X238969723Y-52332714D02*
X239001628Y-52297000D01*
X239065438Y-52261285D01*
X239224961Y-52261285D01*
X239288771Y-52297000D01*
X239320676Y-52332714D01*
X239352580Y-52404142D01*
X239352580Y-52475571D01*
X239320676Y-52582714D01*
X238937819Y-53011285D01*
X239352580Y-53011285D01*
X240118295Y-52225571D02*
X239544009Y-53189857D01*
X240724485Y-53011285D02*
X240501152Y-52654142D01*
X240341628Y-53011285D02*
X240341628Y-52261285D01*
X240596866Y-52261285D01*
X240660676Y-52297000D01*
X240692580Y-52332714D01*
X240724485Y-52404142D01*
X240724485Y-52511285D01*
X240692580Y-52582714D01*
X240660676Y-52618428D01*
X240596866Y-52654142D01*
X240341628Y-52654142D01*
X240947819Y-52261285D02*
X241394485Y-53011285D01*
X241394485Y-52261285D02*
X240947819Y-53011285D01*
X242000676Y-53011285D02*
X241617819Y-53011285D01*
X241809247Y-53011285D02*
X241809247Y-52261285D01*
X241745438Y-52368428D01*
X241681628Y-52439857D01*
X241617819Y-52475571D01*
X239535676Y-65511285D02*
X239535676Y-64761285D01*
X239695200Y-64761285D01*
X239790914Y-64797000D01*
X239854723Y-64868428D01*
X239886628Y-64939857D01*
X239918533Y-65082714D01*
X239918533Y-65189857D01*
X239886628Y-65332714D01*
X239854723Y-65404142D01*
X239790914Y-65475571D01*
X239695200Y-65511285D01*
X239535676Y-65511285D01*
X240492819Y-65011285D02*
X240492819Y-65511285D01*
X240333295Y-64725571D02*
X240173771Y-65261285D01*
X240588533Y-65261285D01*
X241322342Y-64725571D02*
X240748057Y-65689857D01*
X241832819Y-65011285D02*
X241832819Y-65511285D01*
X241673295Y-64725571D02*
X241513771Y-65261285D01*
X241928533Y-65261285D01*
X236961628Y-60475571D02*
X237057342Y-60511285D01*
X237216866Y-60511285D01*
X237280676Y-60475571D01*
X237312580Y-60439857D01*
X237344485Y-60368428D01*
X237344485Y-60297000D01*
X237312580Y-60225571D01*
X237280676Y-60189857D01*
X237216866Y-60154142D01*
X237089247Y-60118428D01*
X237025438Y-60082714D01*
X236993533Y-60047000D01*
X236961628Y-59975571D01*
X236961628Y-59904142D01*
X236993533Y-59832714D01*
X237025438Y-59797000D01*
X237089247Y-59761285D01*
X237248771Y-59761285D01*
X237344485Y-59797000D01*
X237631628Y-60511285D02*
X237631628Y-59761285D01*
X237791152Y-59761285D01*
X237886866Y-59797000D01*
X237950676Y-59868428D01*
X237982580Y-59939857D01*
X238014485Y-60082714D01*
X238014485Y-60189857D01*
X237982580Y-60332714D01*
X237950676Y-60404142D01*
X237886866Y-60475571D01*
X237791152Y-60511285D01*
X237631628Y-60511285D01*
X238269723Y-60297000D02*
X238588771Y-60297000D01*
X238205914Y-60511285D02*
X238429247Y-59761285D01*
X238652580Y-60511285D01*
X239354485Y-59725571D02*
X238780200Y-60689857D01*
X239577819Y-60511285D02*
X239577819Y-59761285D01*
X239737342Y-59761285D01*
X239833057Y-59797000D01*
X239896866Y-59868428D01*
X239928771Y-59939857D01*
X239960676Y-60082714D01*
X239960676Y-60189857D01*
X239928771Y-60332714D01*
X239896866Y-60404142D01*
X239833057Y-60475571D01*
X239737342Y-60511285D01*
X239577819Y-60511285D01*
X240598771Y-60511285D02*
X240215914Y-60511285D01*
X240407342Y-60511285D02*
X240407342Y-59761285D01*
X240343533Y-59868428D01*
X240279723Y-59939857D01*
X240215914Y-59975571D01*
X241364485Y-59725571D02*
X240790200Y-60689857D01*
X241555914Y-59832714D02*
X241587819Y-59797000D01*
X241651628Y-59761285D01*
X241811152Y-59761285D01*
X241874961Y-59797000D01*
X241906866Y-59832714D01*
X241938771Y-59904142D01*
X241938771Y-59975571D01*
X241906866Y-60082714D01*
X241524009Y-60511285D01*
X241938771Y-60511285D01*
X230164485Y-60447000D02*
X230483533Y-60447000D01*
X230100676Y-60661285D02*
X230324009Y-59911285D01*
X230547342Y-60661285D01*
X230706866Y-59911285D02*
X231121628Y-59911285D01*
X230898295Y-60197000D01*
X230994009Y-60197000D01*
X231057819Y-60232714D01*
X231089723Y-60268428D01*
X231121628Y-60339857D01*
X231121628Y-60518428D01*
X231089723Y-60589857D01*
X231057819Y-60625571D01*
X230994009Y-60661285D01*
X230802580Y-60661285D01*
X230738771Y-60625571D01*
X230706866Y-60589857D01*
X231887342Y-59875571D02*
X231313057Y-60839857D01*
X232334009Y-60268428D02*
X232110676Y-60268428D01*
X232110676Y-60661285D02*
X232110676Y-59911285D01*
X232429723Y-59911285D01*
X232972104Y-60161285D02*
X232972104Y-60661285D01*
X232812580Y-59875571D02*
X232653057Y-60411285D01*
X233067819Y-60411285D01*
X239759009Y-75318428D02*
X239854723Y-75354142D01*
X239886628Y-75389857D01*
X239918533Y-75461285D01*
X239918533Y-75568428D01*
X239886628Y-75639857D01*
X239854723Y-75675571D01*
X239790914Y-75711285D01*
X239535676Y-75711285D01*
X239535676Y-74961285D01*
X239759009Y-74961285D01*
X239822819Y-74997000D01*
X239854723Y-75032714D01*
X239886628Y-75104142D01*
X239886628Y-75175571D01*
X239854723Y-75247000D01*
X239822819Y-75282714D01*
X239759009Y-75318428D01*
X239535676Y-75318428D01*
X240492819Y-75211285D02*
X240492819Y-75711285D01*
X240333295Y-74925571D02*
X240173771Y-75461285D01*
X240588533Y-75461285D01*
X241322342Y-74925571D02*
X240748057Y-75889857D01*
X241641390Y-75282714D02*
X241577580Y-75247000D01*
X241545676Y-75211285D01*
X241513771Y-75139857D01*
X241513771Y-75104142D01*
X241545676Y-75032714D01*
X241577580Y-74997000D01*
X241641390Y-74961285D01*
X241769009Y-74961285D01*
X241832819Y-74997000D01*
X241864723Y-75032714D01*
X241896628Y-75104142D01*
X241896628Y-75139857D01*
X241864723Y-75211285D01*
X241832819Y-75247000D01*
X241769009Y-75282714D01*
X241641390Y-75282714D01*
X241577580Y-75318428D01*
X241545676Y-75354142D01*
X241513771Y-75425571D01*
X241513771Y-75568428D01*
X241545676Y-75639857D01*
X241577580Y-75675571D01*
X241641390Y-75711285D01*
X241769009Y-75711285D01*
X241832819Y-75675571D01*
X241864723Y-75639857D01*
X241896628Y-75568428D01*
X241896628Y-75425571D01*
X241864723Y-75354142D01*
X241832819Y-75318428D01*
X241769009Y-75282714D01*
D12*
X233498771Y-45961285D02*
X233498771Y-45211285D01*
X233748771Y-45747000D01*
X233998771Y-45211285D01*
X233998771Y-45961285D01*
X234355914Y-45961285D02*
X234355914Y-45461285D01*
X234355914Y-45211285D02*
X234320200Y-45247000D01*
X234355914Y-45282714D01*
X234391628Y-45247000D01*
X234355914Y-45211285D01*
X234355914Y-45282714D01*
X235034485Y-45925571D02*
X234963057Y-45961285D01*
X234820200Y-45961285D01*
X234748771Y-45925571D01*
X234713057Y-45889857D01*
X234677342Y-45818428D01*
X234677342Y-45604142D01*
X234713057Y-45532714D01*
X234748771Y-45497000D01*
X234820200Y-45461285D01*
X234963057Y-45461285D01*
X235034485Y-45497000D01*
X235355914Y-45961285D02*
X235355914Y-45461285D01*
X235355914Y-45604142D02*
X235391628Y-45532714D01*
X235427342Y-45497000D01*
X235498771Y-45461285D01*
X235570200Y-45461285D01*
X235927342Y-45961285D02*
X235855914Y-45925571D01*
X235820200Y-45889857D01*
X235784485Y-45818428D01*
X235784485Y-45604142D01*
X235820200Y-45532714D01*
X235855914Y-45497000D01*
X235927342Y-45461285D01*
X236034485Y-45461285D01*
X236105914Y-45497000D01*
X236141628Y-45532714D01*
X236177342Y-45604142D01*
X236177342Y-45818428D01*
X236141628Y-45889857D01*
X236105914Y-45925571D01*
X236034485Y-45961285D01*
X235927342Y-45961285D01*
X236498771Y-45211285D02*
X236498771Y-45818428D01*
X236534485Y-45889857D01*
X236570200Y-45925571D01*
X236641628Y-45961285D01*
X236784485Y-45961285D01*
X236855914Y-45925571D01*
X236891628Y-45889857D01*
X236927342Y-45818428D01*
X236927342Y-45211285D01*
X237248771Y-45925571D02*
X237355914Y-45961285D01*
X237534485Y-45961285D01*
X237605914Y-45925571D01*
X237641628Y-45889857D01*
X237677342Y-45818428D01*
X237677342Y-45747000D01*
X237641628Y-45675571D01*
X237605914Y-45639857D01*
X237534485Y-45604142D01*
X237391628Y-45568428D01*
X237320200Y-45532714D01*
X237284485Y-45497000D01*
X237248771Y-45425571D01*
X237248771Y-45354142D01*
X237284485Y-45282714D01*
X237320200Y-45247000D01*
X237391628Y-45211285D01*
X237570200Y-45211285D01*
X237677342Y-45247000D01*
X238248771Y-45568428D02*
X238355914Y-45604142D01*
X238391628Y-45639857D01*
X238427342Y-45711285D01*
X238427342Y-45818428D01*
X238391628Y-45889857D01*
X238355914Y-45925571D01*
X238284485Y-45961285D01*
X237998771Y-45961285D01*
X237998771Y-45211285D01*
X238248771Y-45211285D01*
X238320200Y-45247000D01*
X238355914Y-45282714D01*
X238391628Y-45354142D01*
X238391628Y-45425571D01*
X238355914Y-45497000D01*
X238320200Y-45532714D01*
X238248771Y-45568428D01*
X237998771Y-45568428D01*
X233498771Y-45961285D02*
X233498771Y-45211285D01*
X233748771Y-45747000D01*
X233998771Y-45211285D01*
X233998771Y-45961285D01*
X234355914Y-45961285D02*
X234355914Y-45461285D01*
X234355914Y-45211285D02*
X234320200Y-45247000D01*
X234355914Y-45282714D01*
X234391628Y-45247000D01*
X234355914Y-45211285D01*
X234355914Y-45282714D01*
X235034485Y-45925571D02*
X234963057Y-45961285D01*
X234820200Y-45961285D01*
X234748771Y-45925571D01*
X234713057Y-45889857D01*
X234677342Y-45818428D01*
X234677342Y-45604142D01*
X234713057Y-45532714D01*
X234748771Y-45497000D01*
X234820200Y-45461285D01*
X234963057Y-45461285D01*
X235034485Y-45497000D01*
X235355914Y-45961285D02*
X235355914Y-45461285D01*
X235355914Y-45604142D02*
X235391628Y-45532714D01*
X235427342Y-45497000D01*
X235498771Y-45461285D01*
X235570200Y-45461285D01*
X235927342Y-45961285D02*
X235855914Y-45925571D01*
X235820200Y-45889857D01*
X235784485Y-45818428D01*
X235784485Y-45604142D01*
X235820200Y-45532714D01*
X235855914Y-45497000D01*
X235927342Y-45461285D01*
X236034485Y-45461285D01*
X236105914Y-45497000D01*
X236141628Y-45532714D01*
X236177342Y-45604142D01*
X236177342Y-45818428D01*
X236141628Y-45889857D01*
X236105914Y-45925571D01*
X236034485Y-45961285D01*
X235927342Y-45961285D01*
X236498771Y-45211285D02*
X236498771Y-45818428D01*
X236534485Y-45889857D01*
X236570200Y-45925571D01*
X236641628Y-45961285D01*
X236784485Y-45961285D01*
X236855914Y-45925571D01*
X236891628Y-45889857D01*
X236927342Y-45818428D01*
X236927342Y-45211285D01*
X237248771Y-45925571D02*
X237355914Y-45961285D01*
X237534485Y-45961285D01*
X237605914Y-45925571D01*
X237641628Y-45889857D01*
X237677342Y-45818428D01*
X237677342Y-45747000D01*
X237641628Y-45675571D01*
X237605914Y-45639857D01*
X237534485Y-45604142D01*
X237391628Y-45568428D01*
X237320200Y-45532714D01*
X237284485Y-45497000D01*
X237248771Y-45425571D01*
X237248771Y-45354142D01*
X237284485Y-45282714D01*
X237320200Y-45247000D01*
X237391628Y-45211285D01*
X237570200Y-45211285D01*
X237677342Y-45247000D01*
X238248771Y-45568428D02*
X238355914Y-45604142D01*
X238391628Y-45639857D01*
X238427342Y-45711285D01*
X238427342Y-45818428D01*
X238391628Y-45889857D01*
X238355914Y-45925571D01*
X238284485Y-45961285D01*
X237998771Y-45961285D01*
X237998771Y-45211285D01*
X238248771Y-45211285D01*
X238320200Y-45247000D01*
X238355914Y-45282714D01*
X238391628Y-45354142D01*
X238391628Y-45425571D01*
X238355914Y-45497000D01*
X238320200Y-45532714D01*
X238248771Y-45568428D01*
X237998771Y-45568428D01*
D11*
X230164485Y-65447000D02*
X230483533Y-65447000D01*
X230100676Y-65661285D02*
X230324009Y-64911285D01*
X230547342Y-65661285D01*
X231121628Y-65661285D02*
X230738771Y-65661285D01*
X230930200Y-65661285D02*
X230930200Y-64911285D01*
X230866390Y-65018428D01*
X230802580Y-65089857D01*
X230738771Y-65125571D01*
X231887342Y-64875571D02*
X231313057Y-65839857D01*
X232334009Y-65268428D02*
X232110676Y-65268428D01*
X232110676Y-65661285D02*
X232110676Y-64911285D01*
X232429723Y-64911285D01*
X232972104Y-64911285D02*
X232844485Y-64911285D01*
X232780676Y-64947000D01*
X232748771Y-64982714D01*
X232684961Y-65089857D01*
X232653057Y-65232714D01*
X232653057Y-65518428D01*
X232684961Y-65589857D01*
X232716866Y-65625571D01*
X232780676Y-65661285D01*
X232908295Y-65661285D01*
X232972104Y-65625571D01*
X233004009Y-65589857D01*
X233035914Y-65518428D01*
X233035914Y-65339857D01*
X233004009Y-65268428D01*
X232972104Y-65232714D01*
X232908295Y-65197000D01*
X232780676Y-65197000D01*
X232716866Y-65232714D01*
X232684961Y-65268428D01*
X232653057Y-65339857D01*
X230467580Y-70761285D02*
X230084723Y-70761285D01*
X230276152Y-70761285D02*
X230276152Y-70011285D01*
X230212342Y-70118428D01*
X230148533Y-70189857D01*
X230084723Y-70225571D01*
X231073771Y-70011285D02*
X230754723Y-70011285D01*
X230722819Y-70368428D01*
X230754723Y-70332714D01*
X230818533Y-70297000D01*
X230978057Y-70297000D01*
X231041866Y-70332714D01*
X231073771Y-70368428D01*
X231105676Y-70439857D01*
X231105676Y-70618428D01*
X231073771Y-70689857D01*
X231041866Y-70725571D01*
X230978057Y-70761285D01*
X230818533Y-70761285D01*
X230754723Y-70725571D01*
X230722819Y-70689857D01*
X231871390Y-69975571D02*
X231297104Y-70939857D01*
X232318057Y-70368428D02*
X232413771Y-70404142D01*
X232445676Y-70439857D01*
X232477580Y-70511285D01*
X232477580Y-70618428D01*
X232445676Y-70689857D01*
X232413771Y-70725571D01*
X232349961Y-70761285D01*
X232094723Y-70761285D01*
X232094723Y-70011285D01*
X232318057Y-70011285D01*
X232381866Y-70047000D01*
X232413771Y-70082714D01*
X232445676Y-70154142D01*
X232445676Y-70225571D01*
X232413771Y-70297000D01*
X232381866Y-70332714D01*
X232318057Y-70368428D01*
X232094723Y-70368428D01*
X233115676Y-70761285D02*
X232732819Y-70761285D01*
X232924247Y-70761285D02*
X232924247Y-70011285D01*
X232860438Y-70118428D01*
X232796628Y-70189857D01*
X232732819Y-70225571D01*
X240439723Y-54847000D02*
X240375914Y-54811285D01*
X240280200Y-54811285D01*
X240184485Y-54847000D01*
X240120676Y-54918428D01*
X240088771Y-54989857D01*
X240056866Y-55132714D01*
X240056866Y-55239857D01*
X240088771Y-55382714D01*
X240120676Y-55454142D01*
X240184485Y-55525571D01*
X240280200Y-55561285D01*
X240344009Y-55561285D01*
X240439723Y-55525571D01*
X240471628Y-55489857D01*
X240471628Y-55239857D01*
X240344009Y-55239857D01*
X240758771Y-55561285D02*
X240758771Y-54811285D01*
X241141628Y-55561285D01*
X241141628Y-54811285D01*
X241460676Y-55561285D02*
X241460676Y-54811285D01*
X241620200Y-54811285D01*
X241715914Y-54847000D01*
X241779723Y-54918428D01*
X241811628Y-54989857D01*
X241843533Y-55132714D01*
X241843533Y-55239857D01*
X241811628Y-55382714D01*
X241779723Y-55454142D01*
X241715914Y-55525571D01*
X241620200Y-55561285D01*
X241460676Y-55561285D01*
X239535676Y-70611285D02*
X239535676Y-69861285D01*
X239695200Y-69861285D01*
X239790914Y-69897000D01*
X239854723Y-69968428D01*
X239886628Y-70039857D01*
X239918533Y-70182714D01*
X239918533Y-70289857D01*
X239886628Y-70432714D01*
X239854723Y-70504142D01*
X239790914Y-70575571D01*
X239695200Y-70611285D01*
X239535676Y-70611285D01*
X240141866Y-69861285D02*
X240588533Y-69861285D01*
X240301390Y-70611285D01*
X241322342Y-69825571D02*
X240748057Y-70789857D01*
X241832819Y-69861285D02*
X241705200Y-69861285D01*
X241641390Y-69897000D01*
X241609485Y-69932714D01*
X241545676Y-70039857D01*
X241513771Y-70182714D01*
X241513771Y-70468428D01*
X241545676Y-70539857D01*
X241577580Y-70575571D01*
X241641390Y-70611285D01*
X241769009Y-70611285D01*
X241832819Y-70575571D01*
X241864723Y-70539857D01*
X241896628Y-70468428D01*
X241896628Y-70289857D01*
X241864723Y-70218428D01*
X241832819Y-70182714D01*
X241769009Y-70147000D01*
X241641390Y-70147000D01*
X241577580Y-70182714D01*
X241545676Y-70218428D01*
X241513771Y-70289857D01*
X230467580Y-75861285D02*
X230084723Y-75861285D01*
X230276152Y-75861285D02*
X230276152Y-75111285D01*
X230212342Y-75218428D01*
X230148533Y-75289857D01*
X230084723Y-75325571D01*
X231041866Y-75111285D02*
X230914247Y-75111285D01*
X230850438Y-75147000D01*
X230818533Y-75182714D01*
X230754723Y-75289857D01*
X230722819Y-75432714D01*
X230722819Y-75718428D01*
X230754723Y-75789857D01*
X230786628Y-75825571D01*
X230850438Y-75861285D01*
X230978057Y-75861285D01*
X231041866Y-75825571D01*
X231073771Y-75789857D01*
X231105676Y-75718428D01*
X231105676Y-75539857D01*
X231073771Y-75468428D01*
X231041866Y-75432714D01*
X230978057Y-75397000D01*
X230850438Y-75397000D01*
X230786628Y-75432714D01*
X230754723Y-75468428D01*
X230722819Y-75539857D01*
X231871390Y-75075571D02*
X231297104Y-76039857D01*
X232318057Y-75468428D02*
X232413771Y-75504142D01*
X232445676Y-75539857D01*
X232477580Y-75611285D01*
X232477580Y-75718428D01*
X232445676Y-75789857D01*
X232413771Y-75825571D01*
X232349961Y-75861285D01*
X232094723Y-75861285D01*
X232094723Y-75111285D01*
X232318057Y-75111285D01*
X232381866Y-75147000D01*
X232413771Y-75182714D01*
X232445676Y-75254142D01*
X232445676Y-75325571D01*
X232413771Y-75397000D01*
X232381866Y-75432714D01*
X232318057Y-75468428D01*
X232094723Y-75468428D01*
X232732819Y-75182714D02*
X232764723Y-75147000D01*
X232828533Y-75111285D01*
X232988057Y-75111285D01*
X233051866Y-75147000D01*
X233083771Y-75182714D01*
X233115676Y-75254142D01*
X233115676Y-75325571D01*
X233083771Y-75432714D01*
X232700914Y-75861285D01*
X233115676Y-75861285D01*
X239918533Y-67989857D02*
X239886628Y-68025571D01*
X239790914Y-68061285D01*
X239727104Y-68061285D01*
X239631390Y-68025571D01*
X239567580Y-67954142D01*
X239535676Y-67882714D01*
X239503771Y-67739857D01*
X239503771Y-67632714D01*
X239535676Y-67489857D01*
X239567580Y-67418428D01*
X239631390Y-67347000D01*
X239727104Y-67311285D01*
X239790914Y-67311285D01*
X239886628Y-67347000D01*
X239918533Y-67382714D01*
X240492819Y-67311285D02*
X240365200Y-67311285D01*
X240301390Y-67347000D01*
X240269485Y-67382714D01*
X240205676Y-67489857D01*
X240173771Y-67632714D01*
X240173771Y-67918428D01*
X240205676Y-67989857D01*
X240237580Y-68025571D01*
X240301390Y-68061285D01*
X240429009Y-68061285D01*
X240492819Y-68025571D01*
X240524723Y-67989857D01*
X240556628Y-67918428D01*
X240556628Y-67739857D01*
X240524723Y-67668428D01*
X240492819Y-67632714D01*
X240429009Y-67597000D01*
X240301390Y-67597000D01*
X240237580Y-67632714D01*
X240205676Y-67668428D01*
X240173771Y-67739857D01*
X241322342Y-67275571D02*
X240748057Y-68239857D01*
X241864723Y-67311285D02*
X241545676Y-67311285D01*
X241513771Y-67668428D01*
X241545676Y-67632714D01*
X241609485Y-67597000D01*
X241769009Y-67597000D01*
X241832819Y-67632714D01*
X241864723Y-67668428D01*
X241896628Y-67739857D01*
X241896628Y-67918428D01*
X241864723Y-67989857D01*
X241832819Y-68025571D01*
X241769009Y-68061285D01*
X241609485Y-68061285D01*
X241545676Y-68025571D01*
X241513771Y-67989857D01*
X230633295Y-55511285D02*
X230409961Y-55154142D01*
X230250438Y-55511285D02*
X230250438Y-54761285D01*
X230505676Y-54761285D01*
X230569485Y-54797000D01*
X230601390Y-54832714D01*
X230633295Y-54904142D01*
X230633295Y-55011285D01*
X230601390Y-55082714D01*
X230569485Y-55118428D01*
X230505676Y-55154142D01*
X230250438Y-55154142D01*
X230888533Y-55475571D02*
X230984247Y-55511285D01*
X231143771Y-55511285D01*
X231207580Y-55475571D01*
X231239485Y-55439857D01*
X231271390Y-55368428D01*
X231271390Y-55297000D01*
X231239485Y-55225571D01*
X231207580Y-55189857D01*
X231143771Y-55154142D01*
X231016152Y-55118428D01*
X230952342Y-55082714D01*
X230920438Y-55047000D01*
X230888533Y-54975571D01*
X230888533Y-54904142D01*
X230920438Y-54832714D01*
X230952342Y-54797000D01*
X231016152Y-54761285D01*
X231175676Y-54761285D01*
X231271390Y-54797000D01*
X231462819Y-54761285D02*
X231845676Y-54761285D01*
X231654247Y-55511285D02*
X231654247Y-54761285D01*
X230106866Y-57211285D02*
X230330200Y-57961285D01*
X230553533Y-57211285D01*
X231159723Y-57889857D02*
X231127819Y-57925571D01*
X231032104Y-57961285D01*
X230968295Y-57961285D01*
X230872580Y-57925571D01*
X230808771Y-57854142D01*
X230776866Y-57782714D01*
X230744961Y-57639857D01*
X230744961Y-57532714D01*
X230776866Y-57389857D01*
X230808771Y-57318428D01*
X230872580Y-57247000D01*
X230968295Y-57211285D01*
X231032104Y-57211285D01*
X231127819Y-57247000D01*
X231159723Y-57282714D01*
X231829723Y-57889857D02*
X231797819Y-57925571D01*
X231702104Y-57961285D01*
X231638295Y-57961285D01*
X231542580Y-57925571D01*
X231478771Y-57854142D01*
X231446866Y-57782714D01*
X231414961Y-57639857D01*
X231414961Y-57532714D01*
X231446866Y-57389857D01*
X231478771Y-57318428D01*
X231542580Y-57247000D01*
X231638295Y-57211285D01*
X231702104Y-57211285D01*
X231797819Y-57247000D01*
X231829723Y-57282714D01*
X230164485Y-62947000D02*
X230483533Y-62947000D01*
X230100676Y-63161285D02*
X230324009Y-62411285D01*
X230547342Y-63161285D01*
X230738771Y-62482714D02*
X230770676Y-62447000D01*
X230834485Y-62411285D01*
X230994009Y-62411285D01*
X231057819Y-62447000D01*
X231089723Y-62482714D01*
X231121628Y-62554142D01*
X231121628Y-62625571D01*
X231089723Y-62732714D01*
X230706866Y-63161285D01*
X231121628Y-63161285D01*
X231887342Y-62375571D02*
X231313057Y-63339857D01*
X232334009Y-62768428D02*
X232110676Y-62768428D01*
X232110676Y-63161285D02*
X232110676Y-62411285D01*
X232429723Y-62411285D01*
X233004009Y-62411285D02*
X232684961Y-62411285D01*
X232653057Y-62768428D01*
X232684961Y-62732714D01*
X232748771Y-62697000D01*
X232908295Y-62697000D01*
X232972104Y-62732714D01*
X233004009Y-62768428D01*
X233035914Y-62839857D01*
X233035914Y-63018428D01*
X233004009Y-63089857D01*
X232972104Y-63125571D01*
X232908295Y-63161285D01*
X232748771Y-63161285D01*
X232684961Y-63125571D01*
X232653057Y-63089857D01*
X230537580Y-50411285D02*
X230314247Y-50054142D01*
X230154723Y-50411285D02*
X230154723Y-49661285D01*
X230409961Y-49661285D01*
X230473771Y-49697000D01*
X230505676Y-49732714D01*
X230537580Y-49804142D01*
X230537580Y-49911285D01*
X230505676Y-49982714D01*
X230473771Y-50018428D01*
X230409961Y-50054142D01*
X230154723Y-50054142D01*
X230792819Y-50197000D02*
X231111866Y-50197000D01*
X230729009Y-50411285D02*
X230952342Y-49661285D01*
X231175676Y-50411285D01*
X231335200Y-49661285D02*
X231494723Y-50411285D01*
X231622342Y-49875571D01*
X231749961Y-50411285D01*
X231909485Y-49661285D01*
X230467580Y-78361285D02*
X230084723Y-78361285D01*
X230276152Y-78361285D02*
X230276152Y-77611285D01*
X230212342Y-77718428D01*
X230148533Y-77789857D01*
X230084723Y-77825571D01*
X230882342Y-77611285D02*
X230946152Y-77611285D01*
X231009961Y-77647000D01*
X231041866Y-77682714D01*
X231073771Y-77754142D01*
X231105676Y-77897000D01*
X231105676Y-78075571D01*
X231073771Y-78218428D01*
X231041866Y-78289857D01*
X231009961Y-78325571D01*
X230946152Y-78361285D01*
X230882342Y-78361285D01*
X230818533Y-78325571D01*
X230786628Y-78289857D01*
X230754723Y-78218428D01*
X230722819Y-78075571D01*
X230722819Y-77897000D01*
X230754723Y-77754142D01*
X230786628Y-77682714D01*
X230818533Y-77647000D01*
X230882342Y-77611285D01*
X231871390Y-77575571D02*
X231297104Y-78539857D01*
X232318057Y-77968428D02*
X232413771Y-78004142D01*
X232445676Y-78039857D01*
X232477580Y-78111285D01*
X232477580Y-78218428D01*
X232445676Y-78289857D01*
X232413771Y-78325571D01*
X232349961Y-78361285D01*
X232094723Y-78361285D01*
X232094723Y-77611285D01*
X232318057Y-77611285D01*
X232381866Y-77647000D01*
X232413771Y-77682714D01*
X232445676Y-77754142D01*
X232445676Y-77825571D01*
X232413771Y-77897000D01*
X232381866Y-77932714D01*
X232318057Y-77968428D01*
X232094723Y-77968428D01*
X233051866Y-77611285D02*
X232924247Y-77611285D01*
X232860438Y-77647000D01*
X232828533Y-77682714D01*
X232764723Y-77789857D01*
X232732819Y-77932714D01*
X232732819Y-78218428D01*
X232764723Y-78289857D01*
X232796628Y-78325571D01*
X232860438Y-78361285D01*
X232988057Y-78361285D01*
X233051866Y-78325571D01*
X233083771Y-78289857D01*
X233115676Y-78218428D01*
X233115676Y-78039857D01*
X233083771Y-77968428D01*
X233051866Y-77932714D01*
X232988057Y-77897000D01*
X232860438Y-77897000D01*
X232796628Y-77932714D01*
X232764723Y-77968428D01*
X232732819Y-78039857D01*
X230164485Y-67997000D02*
X230483533Y-67997000D01*
X230100676Y-68211285D02*
X230324009Y-67461285D01*
X230547342Y-68211285D01*
X230898295Y-67461285D02*
X230962104Y-67461285D01*
X231025914Y-67497000D01*
X231057819Y-67532714D01*
X231089723Y-67604142D01*
X231121628Y-67747000D01*
X231121628Y-67925571D01*
X231089723Y-68068428D01*
X231057819Y-68139857D01*
X231025914Y-68175571D01*
X230962104Y-68211285D01*
X230898295Y-68211285D01*
X230834485Y-68175571D01*
X230802580Y-68139857D01*
X230770676Y-68068428D01*
X230738771Y-67925571D01*
X230738771Y-67747000D01*
X230770676Y-67604142D01*
X230802580Y-67532714D01*
X230834485Y-67497000D01*
X230898295Y-67461285D01*
X231887342Y-67425571D02*
X231313057Y-68389857D01*
X232334009Y-67818428D02*
X232110676Y-67818428D01*
X232110676Y-68211285D02*
X232110676Y-67461285D01*
X232429723Y-67461285D01*
X232621152Y-67461285D02*
X233067819Y-67461285D01*
X232780676Y-68211285D01*
X236977580Y-62975571D02*
X237073295Y-63011285D01*
X237232819Y-63011285D01*
X237296628Y-62975571D01*
X237328533Y-62939857D01*
X237360438Y-62868428D01*
X237360438Y-62797000D01*
X237328533Y-62725571D01*
X237296628Y-62689857D01*
X237232819Y-62654142D01*
X237105200Y-62618428D01*
X237041390Y-62582714D01*
X237009485Y-62547000D01*
X236977580Y-62475571D01*
X236977580Y-62404142D01*
X237009485Y-62332714D01*
X237041390Y-62297000D01*
X237105200Y-62261285D01*
X237264723Y-62261285D01*
X237360438Y-62297000D01*
X238030438Y-62939857D02*
X237998533Y-62975571D01*
X237902819Y-63011285D01*
X237839009Y-63011285D01*
X237743295Y-62975571D01*
X237679485Y-62904142D01*
X237647580Y-62832714D01*
X237615676Y-62689857D01*
X237615676Y-62582714D01*
X237647580Y-62439857D01*
X237679485Y-62368428D01*
X237743295Y-62297000D01*
X237839009Y-62261285D01*
X237902819Y-62261285D01*
X237998533Y-62297000D01*
X238030438Y-62332714D01*
X238636628Y-63011285D02*
X238317580Y-63011285D01*
X238317580Y-62261285D01*
X239338533Y-62225571D02*
X238764247Y-63189857D01*
X239561866Y-63011285D02*
X239561866Y-62261285D01*
X239721390Y-62261285D01*
X239817104Y-62297000D01*
X239880914Y-62368428D01*
X239912819Y-62439857D01*
X239944723Y-62582714D01*
X239944723Y-62689857D01*
X239912819Y-62832714D01*
X239880914Y-62904142D01*
X239817104Y-62975571D01*
X239721390Y-63011285D01*
X239561866Y-63011285D01*
X240359485Y-62261285D02*
X240423295Y-62261285D01*
X240487104Y-62297000D01*
X240519009Y-62332714D01*
X240550914Y-62404142D01*
X240582819Y-62547000D01*
X240582819Y-62725571D01*
X240550914Y-62868428D01*
X240519009Y-62939857D01*
X240487104Y-62975571D01*
X240423295Y-63011285D01*
X240359485Y-63011285D01*
X240295676Y-62975571D01*
X240263771Y-62939857D01*
X240231866Y-62868428D01*
X240199961Y-62725571D01*
X240199961Y-62547000D01*
X240231866Y-62404142D01*
X240263771Y-62332714D01*
X240295676Y-62297000D01*
X240359485Y-62261285D01*
X241348533Y-62225571D02*
X240774247Y-63189857D01*
X241508057Y-62261285D02*
X241922819Y-62261285D01*
X241699485Y-62547000D01*
X241795200Y-62547000D01*
X241859009Y-62582714D01*
X241890914Y-62618428D01*
X241922819Y-62689857D01*
X241922819Y-62868428D01*
X241890914Y-62939857D01*
X241859009Y-62975571D01*
X241795200Y-63011285D01*
X241603771Y-63011285D01*
X241539961Y-62975571D01*
X241508057Y-62939857D01*
X239759009Y-77818428D02*
X239854723Y-77854142D01*
X239886628Y-77889857D01*
X239918533Y-77961285D01*
X239918533Y-78068428D01*
X239886628Y-78139857D01*
X239854723Y-78175571D01*
X239790914Y-78211285D01*
X239535676Y-78211285D01*
X239535676Y-77461285D01*
X239759009Y-77461285D01*
X239822819Y-77497000D01*
X239854723Y-77532714D01*
X239886628Y-77604142D01*
X239886628Y-77675571D01*
X239854723Y-77747000D01*
X239822819Y-77782714D01*
X239759009Y-77818428D01*
X239535676Y-77818428D01*
X240524723Y-77461285D02*
X240205676Y-77461285D01*
X240173771Y-77818428D01*
X240205676Y-77782714D01*
X240269485Y-77747000D01*
X240429009Y-77747000D01*
X240492819Y-77782714D01*
X240524723Y-77818428D01*
X240556628Y-77889857D01*
X240556628Y-78068428D01*
X240524723Y-78139857D01*
X240492819Y-78175571D01*
X240429009Y-78211285D01*
X240269485Y-78211285D01*
X240205676Y-78175571D01*
X240173771Y-78139857D01*
X241322342Y-77425571D02*
X240748057Y-78389857D01*
X241577580Y-78211285D02*
X241705200Y-78211285D01*
X241769009Y-78175571D01*
X241800914Y-78139857D01*
X241864723Y-78032714D01*
X241896628Y-77889857D01*
X241896628Y-77604142D01*
X241864723Y-77532714D01*
X241832819Y-77497000D01*
X241769009Y-77461285D01*
X241641390Y-77461285D01*
X241577580Y-77497000D01*
X241545676Y-77532714D01*
X241513771Y-77604142D01*
X241513771Y-77782714D01*
X241545676Y-77854142D01*
X241577580Y-77889857D01*
X241641390Y-77925571D01*
X241769009Y-77925571D01*
X241832819Y-77889857D01*
X241864723Y-77854142D01*
X241896628Y-77782714D01*
X230467580Y-73311285D02*
X230084723Y-73311285D01*
X230276152Y-73311285D02*
X230276152Y-72561285D01*
X230212342Y-72668428D01*
X230148533Y-72739857D01*
X230084723Y-72775571D01*
X231041866Y-72811285D02*
X231041866Y-73311285D01*
X230882342Y-72525571D02*
X230722819Y-73061285D01*
X231137580Y-73061285D01*
X231871390Y-72525571D02*
X231297104Y-73489857D01*
X232318057Y-72918428D02*
X232413771Y-72954142D01*
X232445676Y-72989857D01*
X232477580Y-73061285D01*
X232477580Y-73168428D01*
X232445676Y-73239857D01*
X232413771Y-73275571D01*
X232349961Y-73311285D01*
X232094723Y-73311285D01*
X232094723Y-72561285D01*
X232318057Y-72561285D01*
X232381866Y-72597000D01*
X232413771Y-72632714D01*
X232445676Y-72704142D01*
X232445676Y-72775571D01*
X232413771Y-72847000D01*
X232381866Y-72882714D01*
X232318057Y-72918428D01*
X232094723Y-72918428D01*
X232700914Y-72561285D02*
X233115676Y-72561285D01*
X232892342Y-72847000D01*
X232988057Y-72847000D01*
X233051866Y-72882714D01*
X233083771Y-72918428D01*
X233115676Y-72989857D01*
X233115676Y-73168428D01*
X233083771Y-73239857D01*
X233051866Y-73275571D01*
X232988057Y-73311285D01*
X232796628Y-73311285D01*
X232732819Y-73275571D01*
X232700914Y-73239857D01*
X230489723Y-52247000D02*
X230425914Y-52211285D01*
X230330200Y-52211285D01*
X230234485Y-52247000D01*
X230170676Y-52318428D01*
X230138771Y-52389857D01*
X230106866Y-52532714D01*
X230106866Y-52639857D01*
X230138771Y-52782714D01*
X230170676Y-52854142D01*
X230234485Y-52925571D01*
X230330200Y-52961285D01*
X230394009Y-52961285D01*
X230489723Y-52925571D01*
X230521628Y-52889857D01*
X230521628Y-52639857D01*
X230394009Y-52639857D01*
X230808771Y-52961285D02*
X230808771Y-52211285D01*
X231191628Y-52961285D01*
X231191628Y-52211285D01*
X231510676Y-52961285D02*
X231510676Y-52211285D01*
X231670200Y-52211285D01*
X231765914Y-52247000D01*
X231829723Y-52318428D01*
X231861628Y-52389857D01*
X231893533Y-52532714D01*
X231893533Y-52639857D01*
X231861628Y-52782714D01*
X231829723Y-52854142D01*
X231765914Y-52925571D01*
X231670200Y-52961285D01*
X231510676Y-52961285D01*
D13*
%TO.C,RSW1*%
X241430380Y-87446780D02*
X240954190Y-87780114D01*
X241430380Y-88018209D02*
X240430380Y-88018209D01*
X240430380Y-87637257D01*
X240478000Y-87542019D01*
X240525619Y-87494400D01*
X240620857Y-87446780D01*
X240763714Y-87446780D01*
X240858952Y-87494400D01*
X240906571Y-87542019D01*
X240954190Y-87637257D01*
X240954190Y-88018209D01*
X240906571Y-87018209D02*
X240906571Y-86684876D01*
X241430380Y-86542019D02*
X241430380Y-87018209D01*
X240430380Y-87018209D01*
X240430380Y-86542019D01*
X241382761Y-86161066D02*
X241430380Y-86018209D01*
X241430380Y-85780114D01*
X241382761Y-85684876D01*
X241335142Y-85637257D01*
X241239904Y-85589638D01*
X241144666Y-85589638D01*
X241049428Y-85637257D01*
X241001809Y-85684876D01*
X240954190Y-85780114D01*
X240906571Y-85970590D01*
X240858952Y-86065828D01*
X240811333Y-86113447D01*
X240716095Y-86161066D01*
X240620857Y-86161066D01*
X240525619Y-86113447D01*
X240478000Y-86065828D01*
X240430380Y-85970590D01*
X240430380Y-85732495D01*
X240478000Y-85589638D01*
X240906571Y-85161066D02*
X240906571Y-84827733D01*
X241430380Y-84684876D02*
X241430380Y-85161066D01*
X240430380Y-85161066D01*
X240430380Y-84684876D01*
X240430380Y-84399161D02*
X240430380Y-83827733D01*
X241430380Y-84113447D02*
X240430380Y-84113447D01*
D14*
%TO.C,REF\u002A\u002A*%
X186780514Y-38647500D02*
X187780514Y-38647500D01*
X186828133Y-38647500D02*
X186780514Y-38552261D01*
X186780514Y-38361785D01*
X186828133Y-38266547D01*
X186875752Y-38218928D01*
X186970990Y-38171309D01*
X187256704Y-38171309D01*
X187351942Y-38218928D01*
X187399561Y-38266547D01*
X187447180Y-38361785D01*
X187447180Y-38552261D01*
X187399561Y-38647500D01*
X186780514Y-37314166D02*
X187447180Y-37314166D01*
X186780514Y-37742738D02*
X187304323Y-37742738D01*
X187399561Y-37695119D01*
X187447180Y-37599880D01*
X187447180Y-37457023D01*
X187399561Y-37361785D01*
X187351942Y-37314166D01*
X187399561Y-36409404D02*
X187447180Y-36504642D01*
X187447180Y-36695119D01*
X187399561Y-36790357D01*
X187351942Y-36837976D01*
X187256704Y-36885595D01*
X186970990Y-36885595D01*
X186875752Y-36837976D01*
X186828133Y-36790357D01*
X186780514Y-36695119D01*
X186780514Y-36504642D01*
X186828133Y-36409404D01*
X187447180Y-35980833D02*
X186447180Y-35980833D01*
X187066228Y-35885595D02*
X187447180Y-35599880D01*
X186780514Y-35599880D02*
X187161466Y-35980833D01*
X186844014Y-52538000D02*
X186844014Y-52157047D01*
X186510680Y-52395142D02*
X187367823Y-52395142D01*
X187463061Y-52347523D01*
X187510680Y-52252285D01*
X187510680Y-52157047D01*
X187463061Y-51442761D02*
X187510680Y-51538000D01*
X187510680Y-51728476D01*
X187463061Y-51823714D01*
X187367823Y-51871333D01*
X186986871Y-51871333D01*
X186891633Y-51823714D01*
X186844014Y-51728476D01*
X186844014Y-51538000D01*
X186891633Y-51442761D01*
X186986871Y-51395142D01*
X187082109Y-51395142D01*
X187177347Y-51871333D01*
X186844014Y-50966571D02*
X187510680Y-50966571D01*
X186939252Y-50966571D02*
X186891633Y-50918952D01*
X186844014Y-50823714D01*
X186844014Y-50680857D01*
X186891633Y-50585619D01*
X186986871Y-50538000D01*
X187510680Y-50538000D01*
X186844014Y-50204666D02*
X186844014Y-49823714D01*
X186510680Y-50061809D02*
X187367823Y-50061809D01*
X187463061Y-50014190D01*
X187510680Y-49918952D01*
X187510680Y-49823714D01*
X187510680Y-49490380D02*
X186844014Y-49490380D01*
X186510680Y-49490380D02*
X186558300Y-49538000D01*
X186605919Y-49490380D01*
X186558300Y-49442761D01*
X186510680Y-49490380D01*
X186605919Y-49490380D01*
X186844014Y-49014190D02*
X187510680Y-49014190D01*
X186939252Y-49014190D02*
X186891633Y-48966571D01*
X186844014Y-48871333D01*
X186844014Y-48728476D01*
X186891633Y-48633238D01*
X186986871Y-48585619D01*
X187510680Y-48585619D01*
X186844014Y-47680857D02*
X187653538Y-47680857D01*
X187748776Y-47728476D01*
X187796395Y-47776095D01*
X187844014Y-47871333D01*
X187844014Y-48014190D01*
X187796395Y-48109428D01*
X187463061Y-47680857D02*
X187510680Y-47776095D01*
X187510680Y-47966571D01*
X187463061Y-48061809D01*
X187415442Y-48109428D01*
X187320204Y-48157047D01*
X187034490Y-48157047D01*
X186939252Y-48109428D01*
X186891633Y-48061809D01*
X186844014Y-47966571D01*
X186844014Y-47776095D01*
X186891633Y-47680857D01*
D11*
%TO.C,U2*%
X20968695Y-55140085D02*
X20745361Y-54782942D01*
X20585838Y-55140085D02*
X20585838Y-54390085D01*
X20841076Y-54390085D01*
X20904885Y-54425800D01*
X20936790Y-54461514D01*
X20968695Y-54532942D01*
X20968695Y-54640085D01*
X20936790Y-54711514D01*
X20904885Y-54747228D01*
X20841076Y-54782942D01*
X20585838Y-54782942D01*
X21223933Y-55104371D02*
X21319647Y-55140085D01*
X21479171Y-55140085D01*
X21542980Y-55104371D01*
X21574885Y-55068657D01*
X21606790Y-54997228D01*
X21606790Y-54925800D01*
X21574885Y-54854371D01*
X21542980Y-54818657D01*
X21479171Y-54782942D01*
X21351552Y-54747228D01*
X21287742Y-54711514D01*
X21255838Y-54675800D01*
X21223933Y-54604371D01*
X21223933Y-54532942D01*
X21255838Y-54461514D01*
X21287742Y-54425800D01*
X21351552Y-54390085D01*
X21511076Y-54390085D01*
X21606790Y-54425800D01*
X21798219Y-54390085D02*
X22181076Y-54390085D01*
X21989647Y-55140085D02*
X21989647Y-54390085D01*
X20802980Y-75490085D02*
X20420123Y-75490085D01*
X20611552Y-75490085D02*
X20611552Y-74740085D01*
X20547742Y-74847228D01*
X20483933Y-74918657D01*
X20420123Y-74954371D01*
X21377266Y-74740085D02*
X21249647Y-74740085D01*
X21185838Y-74775800D01*
X21153933Y-74811514D01*
X21090123Y-74918657D01*
X21058219Y-75061514D01*
X21058219Y-75347228D01*
X21090123Y-75418657D01*
X21122028Y-75454371D01*
X21185838Y-75490085D01*
X21313457Y-75490085D01*
X21377266Y-75454371D01*
X21409171Y-75418657D01*
X21441076Y-75347228D01*
X21441076Y-75168657D01*
X21409171Y-75097228D01*
X21377266Y-75061514D01*
X21313457Y-75025800D01*
X21185838Y-75025800D01*
X21122028Y-75061514D01*
X21090123Y-75097228D01*
X21058219Y-75168657D01*
X22206790Y-74704371D02*
X21632504Y-75668657D01*
X22653457Y-75097228D02*
X22749171Y-75132942D01*
X22781076Y-75168657D01*
X22812980Y-75240085D01*
X22812980Y-75347228D01*
X22781076Y-75418657D01*
X22749171Y-75454371D01*
X22685361Y-75490085D01*
X22430123Y-75490085D01*
X22430123Y-74740085D01*
X22653457Y-74740085D01*
X22717266Y-74775800D01*
X22749171Y-74811514D01*
X22781076Y-74882942D01*
X22781076Y-74954371D01*
X22749171Y-75025800D01*
X22717266Y-75061514D01*
X22653457Y-75097228D01*
X22430123Y-75097228D01*
X23068219Y-74811514D02*
X23100123Y-74775800D01*
X23163933Y-74740085D01*
X23323457Y-74740085D01*
X23387266Y-74775800D01*
X23419171Y-74811514D01*
X23451076Y-74882942D01*
X23451076Y-74954371D01*
X23419171Y-75061514D01*
X23036314Y-75490085D01*
X23451076Y-75490085D01*
X20872980Y-50040085D02*
X20649647Y-49682942D01*
X20490123Y-50040085D02*
X20490123Y-49290085D01*
X20745361Y-49290085D01*
X20809171Y-49325800D01*
X20841076Y-49361514D01*
X20872980Y-49432942D01*
X20872980Y-49540085D01*
X20841076Y-49611514D01*
X20809171Y-49647228D01*
X20745361Y-49682942D01*
X20490123Y-49682942D01*
X21128219Y-49825800D02*
X21447266Y-49825800D01*
X21064409Y-50040085D02*
X21287742Y-49290085D01*
X21511076Y-50040085D01*
X21670600Y-49290085D02*
X21830123Y-50040085D01*
X21957742Y-49504371D01*
X22085361Y-50040085D01*
X22244885Y-49290085D01*
X29902980Y-72397228D02*
X30126314Y-72397228D01*
X30222028Y-72790085D02*
X29902980Y-72790085D01*
X29902980Y-72040085D01*
X30222028Y-72040085D01*
X30796314Y-72040085D02*
X30668695Y-72040085D01*
X30604885Y-72075800D01*
X30572980Y-72111514D01*
X30509171Y-72218657D01*
X30477266Y-72361514D01*
X30477266Y-72647228D01*
X30509171Y-72718657D01*
X30541076Y-72754371D01*
X30604885Y-72790085D01*
X30732504Y-72790085D01*
X30796314Y-72754371D01*
X30828219Y-72718657D01*
X30860123Y-72647228D01*
X30860123Y-72468657D01*
X30828219Y-72397228D01*
X30796314Y-72361514D01*
X30732504Y-72325800D01*
X30604885Y-72325800D01*
X30541076Y-72361514D01*
X30509171Y-72397228D01*
X30477266Y-72468657D01*
X31625838Y-72004371D02*
X31051552Y-72968657D01*
X31785361Y-72040085D02*
X32232028Y-72040085D01*
X31944885Y-72790085D01*
X20802980Y-70390085D02*
X20420123Y-70390085D01*
X20611552Y-70390085D02*
X20611552Y-69640085D01*
X20547742Y-69747228D01*
X20483933Y-69818657D01*
X20420123Y-69854371D01*
X21409171Y-69640085D02*
X21090123Y-69640085D01*
X21058219Y-69997228D01*
X21090123Y-69961514D01*
X21153933Y-69925800D01*
X21313457Y-69925800D01*
X21377266Y-69961514D01*
X21409171Y-69997228D01*
X21441076Y-70068657D01*
X21441076Y-70247228D01*
X21409171Y-70318657D01*
X21377266Y-70354371D01*
X21313457Y-70390085D01*
X21153933Y-70390085D01*
X21090123Y-70354371D01*
X21058219Y-70318657D01*
X22206790Y-69604371D02*
X21632504Y-70568657D01*
X22653457Y-69997228D02*
X22749171Y-70032942D01*
X22781076Y-70068657D01*
X22812980Y-70140085D01*
X22812980Y-70247228D01*
X22781076Y-70318657D01*
X22749171Y-70354371D01*
X22685361Y-70390085D01*
X22430123Y-70390085D01*
X22430123Y-69640085D01*
X22653457Y-69640085D01*
X22717266Y-69675800D01*
X22749171Y-69711514D01*
X22781076Y-69782942D01*
X22781076Y-69854371D01*
X22749171Y-69925800D01*
X22717266Y-69961514D01*
X22653457Y-69997228D01*
X22430123Y-69997228D01*
X23451076Y-70390085D02*
X23068219Y-70390085D01*
X23259647Y-70390085D02*
X23259647Y-69640085D01*
X23195838Y-69747228D01*
X23132028Y-69818657D01*
X23068219Y-69854371D01*
X20499885Y-65075800D02*
X20818933Y-65075800D01*
X20436076Y-65290085D02*
X20659409Y-64540085D01*
X20882742Y-65290085D01*
X21457028Y-65290085D02*
X21074171Y-65290085D01*
X21265600Y-65290085D02*
X21265600Y-64540085D01*
X21201790Y-64647228D01*
X21137980Y-64718657D01*
X21074171Y-64754371D01*
X22222742Y-64504371D02*
X21648457Y-65468657D01*
X22669409Y-64897228D02*
X22446076Y-64897228D01*
X22446076Y-65290085D02*
X22446076Y-64540085D01*
X22765123Y-64540085D01*
X23307504Y-64540085D02*
X23179885Y-64540085D01*
X23116076Y-64575800D01*
X23084171Y-64611514D01*
X23020361Y-64718657D01*
X22988457Y-64861514D01*
X22988457Y-65147228D01*
X23020361Y-65218657D01*
X23052266Y-65254371D01*
X23116076Y-65290085D01*
X23243695Y-65290085D01*
X23307504Y-65254371D01*
X23339409Y-65218657D01*
X23371314Y-65147228D01*
X23371314Y-64968657D01*
X23339409Y-64897228D01*
X23307504Y-64861514D01*
X23243695Y-64825800D01*
X23116076Y-64825800D01*
X23052266Y-64861514D01*
X23020361Y-64897228D01*
X22988457Y-64968657D01*
X29871076Y-65140085D02*
X29871076Y-64390085D01*
X30030600Y-64390085D01*
X30126314Y-64425800D01*
X30190123Y-64497228D01*
X30222028Y-64568657D01*
X30253933Y-64711514D01*
X30253933Y-64818657D01*
X30222028Y-64961514D01*
X30190123Y-65032942D01*
X30126314Y-65104371D01*
X30030600Y-65140085D01*
X29871076Y-65140085D01*
X30828219Y-64640085D02*
X30828219Y-65140085D01*
X30668695Y-64354371D02*
X30509171Y-64890085D01*
X30923933Y-64890085D01*
X31657742Y-64354371D02*
X31083457Y-65318657D01*
X32168219Y-64640085D02*
X32168219Y-65140085D01*
X32008695Y-64354371D02*
X31849171Y-64890085D01*
X32263933Y-64890085D01*
X27312980Y-62604371D02*
X27408695Y-62640085D01*
X27568219Y-62640085D01*
X27632028Y-62604371D01*
X27663933Y-62568657D01*
X27695838Y-62497228D01*
X27695838Y-62425800D01*
X27663933Y-62354371D01*
X27632028Y-62318657D01*
X27568219Y-62282942D01*
X27440600Y-62247228D01*
X27376790Y-62211514D01*
X27344885Y-62175800D01*
X27312980Y-62104371D01*
X27312980Y-62032942D01*
X27344885Y-61961514D01*
X27376790Y-61925800D01*
X27440600Y-61890085D01*
X27600123Y-61890085D01*
X27695838Y-61925800D01*
X28365838Y-62568657D02*
X28333933Y-62604371D01*
X28238219Y-62640085D01*
X28174409Y-62640085D01*
X28078695Y-62604371D01*
X28014885Y-62532942D01*
X27982980Y-62461514D01*
X27951076Y-62318657D01*
X27951076Y-62211514D01*
X27982980Y-62068657D01*
X28014885Y-61997228D01*
X28078695Y-61925800D01*
X28174409Y-61890085D01*
X28238219Y-61890085D01*
X28333933Y-61925800D01*
X28365838Y-61961514D01*
X28972028Y-62640085D02*
X28652980Y-62640085D01*
X28652980Y-61890085D01*
X29673933Y-61854371D02*
X29099647Y-62818657D01*
X29897266Y-62640085D02*
X29897266Y-61890085D01*
X30056790Y-61890085D01*
X30152504Y-61925800D01*
X30216314Y-61997228D01*
X30248219Y-62068657D01*
X30280123Y-62211514D01*
X30280123Y-62318657D01*
X30248219Y-62461514D01*
X30216314Y-62532942D01*
X30152504Y-62604371D01*
X30056790Y-62640085D01*
X29897266Y-62640085D01*
X30694885Y-61890085D02*
X30758695Y-61890085D01*
X30822504Y-61925800D01*
X30854409Y-61961514D01*
X30886314Y-62032942D01*
X30918219Y-62175800D01*
X30918219Y-62354371D01*
X30886314Y-62497228D01*
X30854409Y-62568657D01*
X30822504Y-62604371D01*
X30758695Y-62640085D01*
X30694885Y-62640085D01*
X30631076Y-62604371D01*
X30599171Y-62568657D01*
X30567266Y-62497228D01*
X30535361Y-62354371D01*
X30535361Y-62175800D01*
X30567266Y-62032942D01*
X30599171Y-61961514D01*
X30631076Y-61925800D01*
X30694885Y-61890085D01*
X31683933Y-61854371D02*
X31109647Y-62818657D01*
X31843457Y-61890085D02*
X32258219Y-61890085D01*
X32034885Y-62175800D01*
X32130600Y-62175800D01*
X32194409Y-62211514D01*
X32226314Y-62247228D01*
X32258219Y-62318657D01*
X32258219Y-62497228D01*
X32226314Y-62568657D01*
X32194409Y-62604371D01*
X32130600Y-62640085D01*
X31939171Y-62640085D01*
X31875361Y-62604371D01*
X31843457Y-62568657D01*
X30094409Y-77447228D02*
X30190123Y-77482942D01*
X30222028Y-77518657D01*
X30253933Y-77590085D01*
X30253933Y-77697228D01*
X30222028Y-77768657D01*
X30190123Y-77804371D01*
X30126314Y-77840085D01*
X29871076Y-77840085D01*
X29871076Y-77090085D01*
X30094409Y-77090085D01*
X30158219Y-77125800D01*
X30190123Y-77161514D01*
X30222028Y-77232942D01*
X30222028Y-77304371D01*
X30190123Y-77375800D01*
X30158219Y-77411514D01*
X30094409Y-77447228D01*
X29871076Y-77447228D01*
X30860123Y-77090085D02*
X30541076Y-77090085D01*
X30509171Y-77447228D01*
X30541076Y-77411514D01*
X30604885Y-77375800D01*
X30764409Y-77375800D01*
X30828219Y-77411514D01*
X30860123Y-77447228D01*
X30892028Y-77518657D01*
X30892028Y-77697228D01*
X30860123Y-77768657D01*
X30828219Y-77804371D01*
X30764409Y-77840085D01*
X30604885Y-77840085D01*
X30541076Y-77804371D01*
X30509171Y-77768657D01*
X31657742Y-77054371D02*
X31083457Y-78018657D01*
X31912980Y-77840085D02*
X32040600Y-77840085D01*
X32104409Y-77804371D01*
X32136314Y-77768657D01*
X32200123Y-77661514D01*
X32232028Y-77518657D01*
X32232028Y-77232942D01*
X32200123Y-77161514D01*
X32168219Y-77125800D01*
X32104409Y-77090085D01*
X31976790Y-77090085D01*
X31912980Y-77125800D01*
X31881076Y-77161514D01*
X31849171Y-77232942D01*
X31849171Y-77411514D01*
X31881076Y-77482942D01*
X31912980Y-77518657D01*
X31976790Y-77554371D01*
X32104409Y-77554371D01*
X32168219Y-77518657D01*
X32200123Y-77482942D01*
X32232028Y-77411514D01*
D12*
X23834171Y-45590085D02*
X23834171Y-44840085D01*
X24084171Y-45375800D01*
X24334171Y-44840085D01*
X24334171Y-45590085D01*
X24691314Y-45590085D02*
X24691314Y-45090085D01*
X24691314Y-44840085D02*
X24655600Y-44875800D01*
X24691314Y-44911514D01*
X24727028Y-44875800D01*
X24691314Y-44840085D01*
X24691314Y-44911514D01*
X25369885Y-45554371D02*
X25298457Y-45590085D01*
X25155600Y-45590085D01*
X25084171Y-45554371D01*
X25048457Y-45518657D01*
X25012742Y-45447228D01*
X25012742Y-45232942D01*
X25048457Y-45161514D01*
X25084171Y-45125800D01*
X25155600Y-45090085D01*
X25298457Y-45090085D01*
X25369885Y-45125800D01*
X25691314Y-45590085D02*
X25691314Y-45090085D01*
X25691314Y-45232942D02*
X25727028Y-45161514D01*
X25762742Y-45125800D01*
X25834171Y-45090085D01*
X25905600Y-45090085D01*
X26262742Y-45590085D02*
X26191314Y-45554371D01*
X26155600Y-45518657D01*
X26119885Y-45447228D01*
X26119885Y-45232942D01*
X26155600Y-45161514D01*
X26191314Y-45125800D01*
X26262742Y-45090085D01*
X26369885Y-45090085D01*
X26441314Y-45125800D01*
X26477028Y-45161514D01*
X26512742Y-45232942D01*
X26512742Y-45447228D01*
X26477028Y-45518657D01*
X26441314Y-45554371D01*
X26369885Y-45590085D01*
X26262742Y-45590085D01*
X26834171Y-44840085D02*
X26834171Y-45447228D01*
X26869885Y-45518657D01*
X26905600Y-45554371D01*
X26977028Y-45590085D01*
X27119885Y-45590085D01*
X27191314Y-45554371D01*
X27227028Y-45518657D01*
X27262742Y-45447228D01*
X27262742Y-44840085D01*
X27584171Y-45554371D02*
X27691314Y-45590085D01*
X27869885Y-45590085D01*
X27941314Y-45554371D01*
X27977028Y-45518657D01*
X28012742Y-45447228D01*
X28012742Y-45375800D01*
X27977028Y-45304371D01*
X27941314Y-45268657D01*
X27869885Y-45232942D01*
X27727028Y-45197228D01*
X27655600Y-45161514D01*
X27619885Y-45125800D01*
X27584171Y-45054371D01*
X27584171Y-44982942D01*
X27619885Y-44911514D01*
X27655600Y-44875800D01*
X27727028Y-44840085D01*
X27905600Y-44840085D01*
X28012742Y-44875800D01*
X28584171Y-45197228D02*
X28691314Y-45232942D01*
X28727028Y-45268657D01*
X28762742Y-45340085D01*
X28762742Y-45447228D01*
X28727028Y-45518657D01*
X28691314Y-45554371D01*
X28619885Y-45590085D01*
X28334171Y-45590085D01*
X28334171Y-44840085D01*
X28584171Y-44840085D01*
X28655600Y-44875800D01*
X28691314Y-44911514D01*
X28727028Y-44982942D01*
X28727028Y-45054371D01*
X28691314Y-45125800D01*
X28655600Y-45161514D01*
X28584171Y-45197228D01*
X28334171Y-45197228D01*
D11*
X20802980Y-77990085D02*
X20420123Y-77990085D01*
X20611552Y-77990085D02*
X20611552Y-77240085D01*
X20547742Y-77347228D01*
X20483933Y-77418657D01*
X20420123Y-77454371D01*
X21217742Y-77240085D02*
X21281552Y-77240085D01*
X21345361Y-77275800D01*
X21377266Y-77311514D01*
X21409171Y-77382942D01*
X21441076Y-77525800D01*
X21441076Y-77704371D01*
X21409171Y-77847228D01*
X21377266Y-77918657D01*
X21345361Y-77954371D01*
X21281552Y-77990085D01*
X21217742Y-77990085D01*
X21153933Y-77954371D01*
X21122028Y-77918657D01*
X21090123Y-77847228D01*
X21058219Y-77704371D01*
X21058219Y-77525800D01*
X21090123Y-77382942D01*
X21122028Y-77311514D01*
X21153933Y-77275800D01*
X21217742Y-77240085D01*
X22206790Y-77204371D02*
X21632504Y-78168657D01*
X22653457Y-77597228D02*
X22749171Y-77632942D01*
X22781076Y-77668657D01*
X22812980Y-77740085D01*
X22812980Y-77847228D01*
X22781076Y-77918657D01*
X22749171Y-77954371D01*
X22685361Y-77990085D01*
X22430123Y-77990085D01*
X22430123Y-77240085D01*
X22653457Y-77240085D01*
X22717266Y-77275800D01*
X22749171Y-77311514D01*
X22781076Y-77382942D01*
X22781076Y-77454371D01*
X22749171Y-77525800D01*
X22717266Y-77561514D01*
X22653457Y-77597228D01*
X22430123Y-77597228D01*
X23387266Y-77240085D02*
X23259647Y-77240085D01*
X23195838Y-77275800D01*
X23163933Y-77311514D01*
X23100123Y-77418657D01*
X23068219Y-77561514D01*
X23068219Y-77847228D01*
X23100123Y-77918657D01*
X23132028Y-77954371D01*
X23195838Y-77990085D01*
X23323457Y-77990085D01*
X23387266Y-77954371D01*
X23419171Y-77918657D01*
X23451076Y-77847228D01*
X23451076Y-77668657D01*
X23419171Y-77597228D01*
X23387266Y-77561514D01*
X23323457Y-77525800D01*
X23195838Y-77525800D01*
X23132028Y-77561514D01*
X23100123Y-77597228D01*
X23068219Y-77668657D01*
X30253933Y-67618657D02*
X30222028Y-67654371D01*
X30126314Y-67690085D01*
X30062504Y-67690085D01*
X29966790Y-67654371D01*
X29902980Y-67582942D01*
X29871076Y-67511514D01*
X29839171Y-67368657D01*
X29839171Y-67261514D01*
X29871076Y-67118657D01*
X29902980Y-67047228D01*
X29966790Y-66975800D01*
X30062504Y-66940085D01*
X30126314Y-66940085D01*
X30222028Y-66975800D01*
X30253933Y-67011514D01*
X30828219Y-66940085D02*
X30700600Y-66940085D01*
X30636790Y-66975800D01*
X30604885Y-67011514D01*
X30541076Y-67118657D01*
X30509171Y-67261514D01*
X30509171Y-67547228D01*
X30541076Y-67618657D01*
X30572980Y-67654371D01*
X30636790Y-67690085D01*
X30764409Y-67690085D01*
X30828219Y-67654371D01*
X30860123Y-67618657D01*
X30892028Y-67547228D01*
X30892028Y-67368657D01*
X30860123Y-67297228D01*
X30828219Y-67261514D01*
X30764409Y-67225800D01*
X30636790Y-67225800D01*
X30572980Y-67261514D01*
X30541076Y-67297228D01*
X30509171Y-67368657D01*
X31657742Y-66904371D02*
X31083457Y-67868657D01*
X32200123Y-66940085D02*
X31881076Y-66940085D01*
X31849171Y-67297228D01*
X31881076Y-67261514D01*
X31944885Y-67225800D01*
X32104409Y-67225800D01*
X32168219Y-67261514D01*
X32200123Y-67297228D01*
X32232028Y-67368657D01*
X32232028Y-67547228D01*
X32200123Y-67618657D01*
X32168219Y-67654371D01*
X32104409Y-67690085D01*
X31944885Y-67690085D01*
X31881076Y-67654371D01*
X31849171Y-67618657D01*
X27297028Y-60104371D02*
X27392742Y-60140085D01*
X27552266Y-60140085D01*
X27616076Y-60104371D01*
X27647980Y-60068657D01*
X27679885Y-59997228D01*
X27679885Y-59925800D01*
X27647980Y-59854371D01*
X27616076Y-59818657D01*
X27552266Y-59782942D01*
X27424647Y-59747228D01*
X27360838Y-59711514D01*
X27328933Y-59675800D01*
X27297028Y-59604371D01*
X27297028Y-59532942D01*
X27328933Y-59461514D01*
X27360838Y-59425800D01*
X27424647Y-59390085D01*
X27584171Y-59390085D01*
X27679885Y-59425800D01*
X27967028Y-60140085D02*
X27967028Y-59390085D01*
X28126552Y-59390085D01*
X28222266Y-59425800D01*
X28286076Y-59497228D01*
X28317980Y-59568657D01*
X28349885Y-59711514D01*
X28349885Y-59818657D01*
X28317980Y-59961514D01*
X28286076Y-60032942D01*
X28222266Y-60104371D01*
X28126552Y-60140085D01*
X27967028Y-60140085D01*
X28605123Y-59925800D02*
X28924171Y-59925800D01*
X28541314Y-60140085D02*
X28764647Y-59390085D01*
X28987980Y-60140085D01*
X29689885Y-59354371D02*
X29115600Y-60318657D01*
X29913219Y-60140085D02*
X29913219Y-59390085D01*
X30072742Y-59390085D01*
X30168457Y-59425800D01*
X30232266Y-59497228D01*
X30264171Y-59568657D01*
X30296076Y-59711514D01*
X30296076Y-59818657D01*
X30264171Y-59961514D01*
X30232266Y-60032942D01*
X30168457Y-60104371D01*
X30072742Y-60140085D01*
X29913219Y-60140085D01*
X30934171Y-60140085D02*
X30551314Y-60140085D01*
X30742742Y-60140085D02*
X30742742Y-59390085D01*
X30678933Y-59497228D01*
X30615123Y-59568657D01*
X30551314Y-59604371D01*
X31699885Y-59354371D02*
X31125599Y-60318657D01*
X31891314Y-59461514D02*
X31923219Y-59425800D01*
X31987028Y-59390085D01*
X32146552Y-59390085D01*
X32210361Y-59425800D01*
X32242266Y-59461514D01*
X32274171Y-59532942D01*
X32274171Y-59604371D01*
X32242266Y-59711514D01*
X31859409Y-60140085D01*
X32274171Y-60140085D01*
X20499885Y-67625800D02*
X20818933Y-67625800D01*
X20436076Y-67840085D02*
X20659409Y-67090085D01*
X20882742Y-67840085D01*
X21233695Y-67090085D02*
X21297504Y-67090085D01*
X21361314Y-67125800D01*
X21393219Y-67161514D01*
X21425123Y-67232942D01*
X21457028Y-67375800D01*
X21457028Y-67554371D01*
X21425123Y-67697228D01*
X21393219Y-67768657D01*
X21361314Y-67804371D01*
X21297504Y-67840085D01*
X21233695Y-67840085D01*
X21169885Y-67804371D01*
X21137980Y-67768657D01*
X21106076Y-67697228D01*
X21074171Y-67554371D01*
X21074171Y-67375800D01*
X21106076Y-67232942D01*
X21137980Y-67161514D01*
X21169885Y-67125800D01*
X21233695Y-67090085D01*
X22222742Y-67054371D02*
X21648457Y-68018657D01*
X22669409Y-67447228D02*
X22446076Y-67447228D01*
X22446076Y-67840085D02*
X22446076Y-67090085D01*
X22765123Y-67090085D01*
X22956552Y-67090085D02*
X23403219Y-67090085D01*
X23116076Y-67840085D01*
X30775123Y-54475800D02*
X30711314Y-54440085D01*
X30615600Y-54440085D01*
X30519885Y-54475800D01*
X30456076Y-54547228D01*
X30424171Y-54618657D01*
X30392266Y-54761514D01*
X30392266Y-54868657D01*
X30424171Y-55011514D01*
X30456076Y-55082942D01*
X30519885Y-55154371D01*
X30615600Y-55190085D01*
X30679409Y-55190085D01*
X30775123Y-55154371D01*
X30807028Y-55118657D01*
X30807028Y-54868657D01*
X30679409Y-54868657D01*
X31094171Y-55190085D02*
X31094171Y-54440085D01*
X31477028Y-55190085D01*
X31477028Y-54440085D01*
X31796076Y-55190085D02*
X31796076Y-54440085D01*
X31955600Y-54440085D01*
X32051314Y-54475800D01*
X32115123Y-54547228D01*
X32147028Y-54618657D01*
X32178933Y-54761514D01*
X32178933Y-54868657D01*
X32147028Y-55011514D01*
X32115123Y-55082942D01*
X32051314Y-55154371D01*
X31955600Y-55190085D01*
X31796076Y-55190085D01*
X20499885Y-60075800D02*
X20818933Y-60075800D01*
X20436076Y-60290085D02*
X20659409Y-59540085D01*
X20882742Y-60290085D01*
X21042266Y-59540085D02*
X21457028Y-59540085D01*
X21233695Y-59825800D01*
X21329409Y-59825800D01*
X21393219Y-59861514D01*
X21425123Y-59897228D01*
X21457028Y-59968657D01*
X21457028Y-60147228D01*
X21425123Y-60218657D01*
X21393219Y-60254371D01*
X21329409Y-60290085D01*
X21137980Y-60290085D01*
X21074171Y-60254371D01*
X21042266Y-60218657D01*
X22222742Y-59504371D02*
X21648457Y-60468657D01*
X22669409Y-59897228D02*
X22446076Y-59897228D01*
X22446076Y-60290085D02*
X22446076Y-59540085D01*
X22765123Y-59540085D01*
X23307504Y-59790085D02*
X23307504Y-60290085D01*
X23147980Y-59504371D02*
X22988457Y-60040085D01*
X23403219Y-60040085D01*
X28667028Y-52640085D02*
X28667028Y-51890085D01*
X28826552Y-51890085D01*
X28922266Y-51925800D01*
X28986076Y-51997228D01*
X29017980Y-52068657D01*
X29049885Y-52211514D01*
X29049885Y-52318657D01*
X29017980Y-52461514D01*
X28986076Y-52532942D01*
X28922266Y-52604371D01*
X28826552Y-52640085D01*
X28667028Y-52640085D01*
X29305123Y-51961514D02*
X29337028Y-51925800D01*
X29400838Y-51890085D01*
X29560361Y-51890085D01*
X29624171Y-51925800D01*
X29656076Y-51961514D01*
X29687980Y-52032942D01*
X29687980Y-52104371D01*
X29656076Y-52211514D01*
X29273219Y-52640085D01*
X29687980Y-52640085D01*
X30453695Y-51854371D02*
X29879409Y-52818657D01*
X31059885Y-52640085D02*
X30836552Y-52282942D01*
X30677028Y-52640085D02*
X30677028Y-51890085D01*
X30932266Y-51890085D01*
X30996076Y-51925800D01*
X31027980Y-51961514D01*
X31059885Y-52032942D01*
X31059885Y-52140085D01*
X31027980Y-52211514D01*
X30996076Y-52247228D01*
X30932266Y-52282942D01*
X30677028Y-52282942D01*
X31283219Y-51890085D02*
X31729885Y-52640085D01*
X31729885Y-51890085D02*
X31283219Y-52640085D01*
X32336076Y-52640085D02*
X31953219Y-52640085D01*
X32144647Y-52640085D02*
X32144647Y-51890085D01*
X32080838Y-51997228D01*
X32017028Y-52068657D01*
X31953219Y-52104371D01*
X20499885Y-62575800D02*
X20818933Y-62575800D01*
X20436076Y-62790085D02*
X20659409Y-62040085D01*
X20882742Y-62790085D01*
X21074171Y-62111514D02*
X21106076Y-62075800D01*
X21169885Y-62040085D01*
X21329409Y-62040085D01*
X21393219Y-62075800D01*
X21425123Y-62111514D01*
X21457028Y-62182942D01*
X21457028Y-62254371D01*
X21425123Y-62361514D01*
X21042266Y-62790085D01*
X21457028Y-62790085D01*
X22222742Y-62004371D02*
X21648457Y-62968657D01*
X22669409Y-62397228D02*
X22446076Y-62397228D01*
X22446076Y-62790085D02*
X22446076Y-62040085D01*
X22765123Y-62040085D01*
X23339409Y-62040085D02*
X23020361Y-62040085D01*
X22988457Y-62397228D01*
X23020361Y-62361514D01*
X23084171Y-62325800D01*
X23243695Y-62325800D01*
X23307504Y-62361514D01*
X23339409Y-62397228D01*
X23371314Y-62468657D01*
X23371314Y-62647228D01*
X23339409Y-62718657D01*
X23307504Y-62754371D01*
X23243695Y-62790085D01*
X23084171Y-62790085D01*
X23020361Y-62754371D01*
X22988457Y-62718657D01*
D12*
X23834171Y-45590085D02*
X23834171Y-44840085D01*
X24084171Y-45375800D01*
X24334171Y-44840085D01*
X24334171Y-45590085D01*
X24691314Y-45590085D02*
X24691314Y-45090085D01*
X24691314Y-44840085D02*
X24655600Y-44875800D01*
X24691314Y-44911514D01*
X24727028Y-44875800D01*
X24691314Y-44840085D01*
X24691314Y-44911514D01*
X25369885Y-45554371D02*
X25298457Y-45590085D01*
X25155600Y-45590085D01*
X25084171Y-45554371D01*
X25048457Y-45518657D01*
X25012742Y-45447228D01*
X25012742Y-45232942D01*
X25048457Y-45161514D01*
X25084171Y-45125800D01*
X25155600Y-45090085D01*
X25298457Y-45090085D01*
X25369885Y-45125800D01*
X25691314Y-45590085D02*
X25691314Y-45090085D01*
X25691314Y-45232942D02*
X25727028Y-45161514D01*
X25762742Y-45125800D01*
X25834171Y-45090085D01*
X25905600Y-45090085D01*
X26262742Y-45590085D02*
X26191314Y-45554371D01*
X26155600Y-45518657D01*
X26119885Y-45447228D01*
X26119885Y-45232942D01*
X26155600Y-45161514D01*
X26191314Y-45125800D01*
X26262742Y-45090085D01*
X26369885Y-45090085D01*
X26441314Y-45125800D01*
X26477028Y-45161514D01*
X26512742Y-45232942D01*
X26512742Y-45447228D01*
X26477028Y-45518657D01*
X26441314Y-45554371D01*
X26369885Y-45590085D01*
X26262742Y-45590085D01*
X26834171Y-44840085D02*
X26834171Y-45447228D01*
X26869885Y-45518657D01*
X26905600Y-45554371D01*
X26977028Y-45590085D01*
X27119885Y-45590085D01*
X27191314Y-45554371D01*
X27227028Y-45518657D01*
X27262742Y-45447228D01*
X27262742Y-44840085D01*
X27584171Y-45554371D02*
X27691314Y-45590085D01*
X27869885Y-45590085D01*
X27941314Y-45554371D01*
X27977028Y-45518657D01*
X28012742Y-45447228D01*
X28012742Y-45375800D01*
X27977028Y-45304371D01*
X27941314Y-45268657D01*
X27869885Y-45232942D01*
X27727028Y-45197228D01*
X27655600Y-45161514D01*
X27619885Y-45125800D01*
X27584171Y-45054371D01*
X27584171Y-44982942D01*
X27619885Y-44911514D01*
X27655600Y-44875800D01*
X27727028Y-44840085D01*
X27905600Y-44840085D01*
X28012742Y-44875800D01*
X28584171Y-45197228D02*
X28691314Y-45232942D01*
X28727028Y-45268657D01*
X28762742Y-45340085D01*
X28762742Y-45447228D01*
X28727028Y-45518657D01*
X28691314Y-45554371D01*
X28619885Y-45590085D01*
X28334171Y-45590085D01*
X28334171Y-44840085D01*
X28584171Y-44840085D01*
X28655600Y-44875800D01*
X28691314Y-44911514D01*
X28727028Y-44982942D01*
X28727028Y-45054371D01*
X28691314Y-45125800D01*
X28655600Y-45161514D01*
X28584171Y-45197228D01*
X28334171Y-45197228D01*
D11*
X29871076Y-70240085D02*
X29871076Y-69490085D01*
X30030600Y-69490085D01*
X30126314Y-69525800D01*
X30190123Y-69597228D01*
X30222028Y-69668657D01*
X30253933Y-69811514D01*
X30253933Y-69918657D01*
X30222028Y-70061514D01*
X30190123Y-70132942D01*
X30126314Y-70204371D01*
X30030600Y-70240085D01*
X29871076Y-70240085D01*
X30477266Y-69490085D02*
X30923933Y-69490085D01*
X30636790Y-70240085D01*
X31657742Y-69454371D02*
X31083457Y-70418657D01*
X32168219Y-69490085D02*
X32040600Y-69490085D01*
X31976790Y-69525800D01*
X31944885Y-69561514D01*
X31881076Y-69668657D01*
X31849171Y-69811514D01*
X31849171Y-70097228D01*
X31881076Y-70168657D01*
X31912980Y-70204371D01*
X31976790Y-70240085D01*
X32104409Y-70240085D01*
X32168219Y-70204371D01*
X32200123Y-70168657D01*
X32232028Y-70097228D01*
X32232028Y-69918657D01*
X32200123Y-69847228D01*
X32168219Y-69811514D01*
X32104409Y-69775800D01*
X31976790Y-69775800D01*
X31912980Y-69811514D01*
X31881076Y-69847228D01*
X31849171Y-69918657D01*
X30775123Y-56925800D02*
X30711314Y-56890085D01*
X30615600Y-56890085D01*
X30519885Y-56925800D01*
X30456076Y-56997228D01*
X30424171Y-57068657D01*
X30392266Y-57211514D01*
X30392266Y-57318657D01*
X30424171Y-57461514D01*
X30456076Y-57532942D01*
X30519885Y-57604371D01*
X30615600Y-57640085D01*
X30679409Y-57640085D01*
X30775123Y-57604371D01*
X30807028Y-57568657D01*
X30807028Y-57318657D01*
X30679409Y-57318657D01*
X31094171Y-57640085D02*
X31094171Y-56890085D01*
X31477028Y-57640085D01*
X31477028Y-56890085D01*
X31796076Y-57640085D02*
X31796076Y-56890085D01*
X31955600Y-56890085D01*
X32051314Y-56925800D01*
X32115123Y-56997228D01*
X32147028Y-57068657D01*
X32178933Y-57211514D01*
X32178933Y-57318657D01*
X32147028Y-57461514D01*
X32115123Y-57532942D01*
X32051314Y-57604371D01*
X31955600Y-57640085D01*
X31796076Y-57640085D01*
X28746790Y-50090085D02*
X28746790Y-49340085D01*
X28906314Y-49340085D01*
X29002028Y-49375800D01*
X29065838Y-49447228D01*
X29097742Y-49518657D01*
X29129647Y-49661514D01*
X29129647Y-49768657D01*
X29097742Y-49911514D01*
X29065838Y-49982942D01*
X29002028Y-50054371D01*
X28906314Y-50090085D01*
X28746790Y-50090085D01*
X29352980Y-49340085D02*
X29767742Y-49340085D01*
X29544409Y-49625800D01*
X29640123Y-49625800D01*
X29703933Y-49661514D01*
X29735838Y-49697228D01*
X29767742Y-49768657D01*
X29767742Y-49947228D01*
X29735838Y-50018657D01*
X29703933Y-50054371D01*
X29640123Y-50090085D01*
X29448695Y-50090085D01*
X29384885Y-50054371D01*
X29352980Y-50018657D01*
X30533457Y-49304371D02*
X29959171Y-50268657D01*
X30661076Y-49340085D02*
X31043933Y-49340085D01*
X30852504Y-50090085D02*
X30852504Y-49340085D01*
X31203457Y-49340085D02*
X31650123Y-50090085D01*
X31650123Y-49340085D02*
X31203457Y-50090085D01*
X32032980Y-49340085D02*
X32096790Y-49340085D01*
X32160600Y-49375800D01*
X32192504Y-49411514D01*
X32224409Y-49482942D01*
X32256314Y-49625800D01*
X32256314Y-49804371D01*
X32224409Y-49947228D01*
X32192504Y-50018657D01*
X32160600Y-50054371D01*
X32096790Y-50090085D01*
X32032980Y-50090085D01*
X31969171Y-50054371D01*
X31937266Y-50018657D01*
X31905361Y-49947228D01*
X31873457Y-49804371D01*
X31873457Y-49625800D01*
X31905361Y-49482942D01*
X31937266Y-49411514D01*
X31969171Y-49375800D01*
X32032980Y-49340085D01*
X20442266Y-56840085D02*
X20665600Y-57590085D01*
X20888933Y-56840085D01*
X21495123Y-57518657D02*
X21463219Y-57554371D01*
X21367504Y-57590085D01*
X21303695Y-57590085D01*
X21207980Y-57554371D01*
X21144171Y-57482942D01*
X21112266Y-57411514D01*
X21080361Y-57268657D01*
X21080361Y-57161514D01*
X21112266Y-57018657D01*
X21144171Y-56947228D01*
X21207980Y-56875800D01*
X21303695Y-56840085D01*
X21367504Y-56840085D01*
X21463219Y-56875800D01*
X21495123Y-56911514D01*
X22165123Y-57518657D02*
X22133219Y-57554371D01*
X22037504Y-57590085D01*
X21973695Y-57590085D01*
X21877980Y-57554371D01*
X21814171Y-57482942D01*
X21782266Y-57411514D01*
X21750361Y-57268657D01*
X21750361Y-57161514D01*
X21782266Y-57018657D01*
X21814171Y-56947228D01*
X21877980Y-56875800D01*
X21973695Y-56840085D01*
X22037504Y-56840085D01*
X22133219Y-56875800D01*
X22165123Y-56911514D01*
X30094409Y-74947228D02*
X30190123Y-74982942D01*
X30222028Y-75018657D01*
X30253933Y-75090085D01*
X30253933Y-75197228D01*
X30222028Y-75268657D01*
X30190123Y-75304371D01*
X30126314Y-75340085D01*
X29871076Y-75340085D01*
X29871076Y-74590085D01*
X30094409Y-74590085D01*
X30158219Y-74625800D01*
X30190123Y-74661514D01*
X30222028Y-74732942D01*
X30222028Y-74804371D01*
X30190123Y-74875800D01*
X30158219Y-74911514D01*
X30094409Y-74947228D01*
X29871076Y-74947228D01*
X30828219Y-74840085D02*
X30828219Y-75340085D01*
X30668695Y-74554371D02*
X30509171Y-75090085D01*
X30923933Y-75090085D01*
X31657742Y-74554371D02*
X31083457Y-75518657D01*
X31976790Y-74911514D02*
X31912980Y-74875800D01*
X31881076Y-74840085D01*
X31849171Y-74768657D01*
X31849171Y-74732942D01*
X31881076Y-74661514D01*
X31912980Y-74625800D01*
X31976790Y-74590085D01*
X32104409Y-74590085D01*
X32168219Y-74625800D01*
X32200123Y-74661514D01*
X32232028Y-74732942D01*
X32232028Y-74768657D01*
X32200123Y-74840085D01*
X32168219Y-74875800D01*
X32104409Y-74911514D01*
X31976790Y-74911514D01*
X31912980Y-74947228D01*
X31881076Y-74982942D01*
X31849171Y-75054371D01*
X31849171Y-75197228D01*
X31881076Y-75268657D01*
X31912980Y-75304371D01*
X31976790Y-75340085D01*
X32104409Y-75340085D01*
X32168219Y-75304371D01*
X32200123Y-75268657D01*
X32232028Y-75197228D01*
X32232028Y-75054371D01*
X32200123Y-74982942D01*
X32168219Y-74947228D01*
X32104409Y-74911514D01*
X20802980Y-72940085D02*
X20420123Y-72940085D01*
X20611552Y-72940085D02*
X20611552Y-72190085D01*
X20547742Y-72297228D01*
X20483933Y-72368657D01*
X20420123Y-72404371D01*
X21377266Y-72440085D02*
X21377266Y-72940085D01*
X21217742Y-72154371D02*
X21058219Y-72690085D01*
X21472980Y-72690085D01*
X22206790Y-72154371D02*
X21632504Y-73118657D01*
X22653457Y-72547228D02*
X22749171Y-72582942D01*
X22781076Y-72618657D01*
X22812980Y-72690085D01*
X22812980Y-72797228D01*
X22781076Y-72868657D01*
X22749171Y-72904371D01*
X22685361Y-72940085D01*
X22430123Y-72940085D01*
X22430123Y-72190085D01*
X22653457Y-72190085D01*
X22717266Y-72225800D01*
X22749171Y-72261514D01*
X22781076Y-72332942D01*
X22781076Y-72404371D01*
X22749171Y-72475800D01*
X22717266Y-72511514D01*
X22653457Y-72547228D01*
X22430123Y-72547228D01*
X23036314Y-72190085D02*
X23451076Y-72190085D01*
X23227742Y-72475800D01*
X23323457Y-72475800D01*
X23387266Y-72511514D01*
X23419171Y-72547228D01*
X23451076Y-72618657D01*
X23451076Y-72797228D01*
X23419171Y-72868657D01*
X23387266Y-72904371D01*
X23323457Y-72940085D01*
X23132028Y-72940085D01*
X23068219Y-72904371D01*
X23036314Y-72868657D01*
X20825123Y-51875800D02*
X20761314Y-51840085D01*
X20665600Y-51840085D01*
X20569885Y-51875800D01*
X20506076Y-51947228D01*
X20474171Y-52018657D01*
X20442266Y-52161514D01*
X20442266Y-52268657D01*
X20474171Y-52411514D01*
X20506076Y-52482942D01*
X20569885Y-52554371D01*
X20665600Y-52590085D01*
X20729409Y-52590085D01*
X20825123Y-52554371D01*
X20857028Y-52518657D01*
X20857028Y-52268657D01*
X20729409Y-52268657D01*
X21144171Y-52590085D02*
X21144171Y-51840085D01*
X21527028Y-52590085D01*
X21527028Y-51840085D01*
X21846076Y-52590085D02*
X21846076Y-51840085D01*
X22005600Y-51840085D01*
X22101314Y-51875800D01*
X22165123Y-51947228D01*
X22197028Y-52018657D01*
X22228933Y-52161514D01*
X22228933Y-52268657D01*
X22197028Y-52411514D01*
X22165123Y-52482942D01*
X22101314Y-52554371D01*
X22005600Y-52590085D01*
X21846076Y-52590085D01*
D14*
%TO.C,REF\u002A\u002A*%
X74889114Y-38345900D02*
X75889114Y-38345900D01*
X74936733Y-38345900D02*
X74889114Y-38250661D01*
X74889114Y-38060185D01*
X74936733Y-37964947D01*
X74984352Y-37917328D01*
X75079590Y-37869709D01*
X75365304Y-37869709D01*
X75460542Y-37917328D01*
X75508161Y-37964947D01*
X75555780Y-38060185D01*
X75555780Y-38250661D01*
X75508161Y-38345900D01*
X74889114Y-37012566D02*
X75555780Y-37012566D01*
X74889114Y-37441138D02*
X75412923Y-37441138D01*
X75508161Y-37393519D01*
X75555780Y-37298280D01*
X75555780Y-37155423D01*
X75508161Y-37060185D01*
X75460542Y-37012566D01*
X75508161Y-36107804D02*
X75555780Y-36203042D01*
X75555780Y-36393519D01*
X75508161Y-36488757D01*
X75460542Y-36536376D01*
X75365304Y-36583995D01*
X75079590Y-36583995D01*
X74984352Y-36536376D01*
X74936733Y-36488757D01*
X74889114Y-36393519D01*
X74889114Y-36203042D01*
X74936733Y-36107804D01*
X75555780Y-35679233D02*
X74555780Y-35679233D01*
X75174828Y-35583995D02*
X75555780Y-35298280D01*
X74889114Y-35298280D02*
X75270066Y-35679233D01*
X74952614Y-52236400D02*
X74952614Y-51855447D01*
X74619280Y-52093542D02*
X75476423Y-52093542D01*
X75571661Y-52045923D01*
X75619280Y-51950685D01*
X75619280Y-51855447D01*
X75571661Y-51141161D02*
X75619280Y-51236400D01*
X75619280Y-51426876D01*
X75571661Y-51522114D01*
X75476423Y-51569733D01*
X75095471Y-51569733D01*
X75000233Y-51522114D01*
X74952614Y-51426876D01*
X74952614Y-51236400D01*
X75000233Y-51141161D01*
X75095471Y-51093542D01*
X75190709Y-51093542D01*
X75285947Y-51569733D01*
X74952614Y-50664971D02*
X75619280Y-50664971D01*
X75047852Y-50664971D02*
X75000233Y-50617352D01*
X74952614Y-50522114D01*
X74952614Y-50379257D01*
X75000233Y-50284019D01*
X75095471Y-50236400D01*
X75619280Y-50236400D01*
X74952614Y-49903066D02*
X74952614Y-49522114D01*
X74619280Y-49760209D02*
X75476423Y-49760209D01*
X75571661Y-49712590D01*
X75619280Y-49617352D01*
X75619280Y-49522114D01*
X75619280Y-49188780D02*
X74952614Y-49188780D01*
X74619280Y-49188780D02*
X74666900Y-49236400D01*
X74714519Y-49188780D01*
X74666900Y-49141161D01*
X74619280Y-49188780D01*
X74714519Y-49188780D01*
X74952614Y-48712590D02*
X75619280Y-48712590D01*
X75047852Y-48712590D02*
X75000233Y-48664971D01*
X74952614Y-48569733D01*
X74952614Y-48426876D01*
X75000233Y-48331638D01*
X75095471Y-48284019D01*
X75619280Y-48284019D01*
X74952614Y-47379257D02*
X75762138Y-47379257D01*
X75857376Y-47426876D01*
X75904995Y-47474495D01*
X75952614Y-47569733D01*
X75952614Y-47712590D01*
X75904995Y-47807828D01*
X75571661Y-47379257D02*
X75619280Y-47474495D01*
X75619280Y-47664971D01*
X75571661Y-47760209D01*
X75524042Y-47807828D01*
X75428804Y-47855447D01*
X75143090Y-47855447D01*
X75047852Y-47807828D01*
X75000233Y-47760209D01*
X74952614Y-47664971D01*
X74952614Y-47474495D01*
X75000233Y-47379257D01*
D13*
%TO.C,RSW2*%
X21737580Y-86923380D02*
X21261390Y-87256714D01*
X21737580Y-87494809D02*
X20737580Y-87494809D01*
X20737580Y-87113857D01*
X20785200Y-87018619D01*
X20832819Y-86971000D01*
X20928057Y-86923380D01*
X21070914Y-86923380D01*
X21166152Y-86971000D01*
X21213771Y-87018619D01*
X21261390Y-87113857D01*
X21261390Y-87494809D01*
X21213771Y-86494809D02*
X21213771Y-86161476D01*
X21737580Y-86018619D02*
X21737580Y-86494809D01*
X20737580Y-86494809D01*
X20737580Y-86018619D01*
X21689961Y-85637666D02*
X21737580Y-85494809D01*
X21737580Y-85256714D01*
X21689961Y-85161476D01*
X21642342Y-85113857D01*
X21547104Y-85066238D01*
X21451866Y-85066238D01*
X21356628Y-85113857D01*
X21309009Y-85161476D01*
X21261390Y-85256714D01*
X21213771Y-85447190D01*
X21166152Y-85542428D01*
X21118533Y-85590047D01*
X21023295Y-85637666D01*
X20928057Y-85637666D01*
X20832819Y-85590047D01*
X20785200Y-85542428D01*
X20737580Y-85447190D01*
X20737580Y-85209095D01*
X20785200Y-85066238D01*
X21213771Y-84637666D02*
X21213771Y-84304333D01*
X21737580Y-84161476D02*
X21737580Y-84637666D01*
X20737580Y-84637666D01*
X20737580Y-84161476D01*
X20737580Y-83875761D02*
X20737580Y-83304333D01*
X21737580Y-83590047D02*
X20737580Y-83590047D01*
%TO.C,+*%
X227655361Y-47698457D02*
X228274638Y-47698457D01*
X227965000Y-48008095D02*
X227965000Y-47388819D01*
%TO.C,-*%
X243513161Y-47749257D02*
X244132438Y-47749257D01*
%TO.C,+*%
X17978361Y-47632257D02*
X18597638Y-47632257D01*
X18288000Y-47941895D02*
X18288000Y-47322619D01*
%TO.C,-*%
X33700961Y-47632257D02*
X34320238Y-47632257D01*
D14*
%TO.C,mouse-bite-2mm-slot*%
X132038600Y-52222400D02*
G75*
G03*
X130038600Y-52222400I-1000000J0D01*
G01*
X130038600Y-46380400D02*
G75*
G03*
X132038600Y-46380400I1000000J0D01*
G01*
D13*
%TO.C,U1*%
X244745200Y-78322000D02*
X244745200Y-79172000D01*
X244745200Y-79172000D02*
X243885200Y-79172000D01*
X227245200Y-78272000D02*
X227245200Y-79172000D01*
X239745200Y-43372000D02*
X232245200Y-43372000D01*
X235645200Y-43872000D02*
X236345200Y-43872000D01*
X244745200Y-48972000D02*
X243945200Y-48972000D01*
X227245200Y-48972000D02*
X227245200Y-49822000D01*
X227245200Y-48972000D02*
X228095200Y-48972000D01*
X239745200Y-44672000D02*
X239745200Y-43372000D01*
X235495200Y-43722000D02*
X236495200Y-43722000D01*
X235745200Y-44022000D02*
X236245200Y-44022000D01*
X236495200Y-43722000D02*
X235995200Y-44372000D01*
X244745200Y-48972000D02*
X244745200Y-49822000D01*
X232245200Y-44672000D02*
X239745200Y-44672000D01*
X235995200Y-44372000D02*
X235495200Y-43722000D01*
X235845200Y-44172000D02*
X236145200Y-44172000D01*
X232245200Y-43372000D02*
X232245200Y-44672000D01*
X227245200Y-79172000D02*
X228095200Y-79172000D01*
D14*
%TO.C,mouse-bite-2mm-slot*%
X132064000Y-74599800D02*
G75*
G03*
X130064000Y-74599800I-1000000J0D01*
G01*
X130064000Y-68757800D02*
G75*
G03*
X132064000Y-68757800I1000000J0D01*
G01*
D13*
%TO.C,RSW1*%
X239228000Y-82994400D02*
X239478000Y-82994400D01*
X242728000Y-88994400D02*
X242478000Y-88994400D01*
X242728000Y-82994400D02*
X242478000Y-82994400D01*
X239228000Y-88994400D02*
X239478000Y-88994400D01*
X242728000Y-88994400D02*
X242728000Y-82994400D01*
X239228000Y-88994400D02*
X239228000Y-82994400D01*
D15*
%TO.C,REF\u002A\u002A*%
X186120415Y-53915864D02*
G75*
G03*
X187248800Y-53975000I1128379J10735785D01*
G01*
X167962666Y-36171952D02*
G75*
G03*
X166928800Y-40322500I19286117J-7008044D01*
G01*
X187248800Y-32385000D02*
G75*
G03*
X186120415Y-32444136I-6J-10794921D01*
G01*
X206534935Y-50188046D02*
G75*
G03*
X207568800Y-46037500I-19286185J7008058D01*
G01*
X166928800Y-46037500D02*
G75*
G03*
X167962666Y-50188047I20319953J2857490D01*
G01*
X190106300Y-63500000D02*
G75*
G03*
X194256847Y-62466134I-2857500J20320000D01*
G01*
X194256847Y-23893866D02*
G75*
G03*
X190106300Y-22860000I-7008047J-19286134D01*
G01*
X184391300Y-22860000D02*
G75*
G03*
X180240752Y-23893866I2857496J-20319983D01*
G01*
X187248800Y-53975001D02*
G75*
G03*
X188377185Y-53915864I0J10794901D01*
G01*
X207568800Y-40322500D02*
G75*
G03*
X206534935Y-36171955I-20320019J-2857506D01*
G01*
X188377185Y-32444137D02*
G75*
G03*
X187248800Y-32385000I-1128385J-10735763D01*
G01*
X180240754Y-62466135D02*
G75*
G03*
X184391300Y-63500000I7008046J19286135D01*
G01*
G36*
X187322689Y-57364589D02*
G01*
X187321286Y-57257960D01*
X187320242Y-57135304D01*
X187319578Y-56998032D01*
X187319317Y-56847558D01*
X187319314Y-56835822D01*
X187319227Y-56144108D01*
X187826931Y-55634082D01*
X187827079Y-56127650D01*
X187827271Y-56231890D01*
X187827760Y-56328635D01*
X187828510Y-56415521D01*
X187829486Y-56490183D01*
X187830655Y-56550258D01*
X187831982Y-56593381D01*
X187833431Y-56617188D01*
X187834339Y-56621218D01*
X187846770Y-56614904D01*
X187871616Y-56598561D01*
X187895750Y-56581359D01*
X188010447Y-56510637D01*
X188132663Y-56461533D01*
X188263046Y-56433857D01*
X188402247Y-56427419D01*
X188420059Y-56428087D01*
X188509694Y-56434639D01*
X188586177Y-56446576D01*
X188657829Y-56466068D01*
X188732967Y-56495285D01*
X188802818Y-56527924D01*
X188930751Y-56603217D01*
X189043671Y-56695197D01*
X189140565Y-56802186D01*
X189220423Y-56922511D01*
X189282233Y-57054496D01*
X189324985Y-57196465D01*
X189347666Y-57346744D01*
X189351227Y-57436414D01*
X189340936Y-57588892D01*
X189309580Y-57733456D01*
X189256435Y-57872692D01*
X189199180Y-57979611D01*
X189113468Y-58099904D01*
X189011855Y-58204753D01*
X188896522Y-58293075D01*
X188769647Y-58363789D01*
X188633411Y-58415812D01*
X188489992Y-58448065D01*
X188341571Y-58459464D01*
X188241325Y-58454981D01*
X188096717Y-58430100D01*
X187956149Y-58383825D01*
X187822976Y-58317846D01*
X187700556Y-58233849D01*
X187592244Y-58133523D01*
X187583850Y-58124357D01*
X187502719Y-58020237D01*
X187433027Y-57902055D01*
X187377861Y-57776192D01*
X187340308Y-57649032D01*
X187331439Y-57602582D01*
X187328826Y-57574187D01*
X187326481Y-57524115D01*
X187325012Y-57473781D01*
X187821350Y-57473781D01*
X187831922Y-57571330D01*
X187862354Y-57665349D01*
X187891008Y-57719494D01*
X187957942Y-57807777D01*
X188037423Y-57878654D01*
X188126855Y-57931147D01*
X188223641Y-57964279D01*
X188325182Y-57977073D01*
X188428883Y-57968552D01*
X188501710Y-57949264D01*
X188544707Y-57933178D01*
X188585612Y-57915818D01*
X188601779Y-57908042D01*
X188647065Y-57877038D01*
X188696388Y-57830844D01*
X188744445Y-57775388D01*
X188785930Y-57716594D01*
X188807418Y-57678267D01*
X188827599Y-57634021D01*
X188840244Y-57595413D01*
X188847601Y-57553121D01*
X188851919Y-57497818D01*
X188852201Y-57492528D01*
X188848833Y-57385283D01*
X188825977Y-57287391D01*
X188782325Y-57193968D01*
X188764555Y-57165439D01*
X188700013Y-57087535D01*
X188621196Y-57025365D01*
X188531560Y-56979869D01*
X188434561Y-56951991D01*
X188333657Y-56942671D01*
X188232305Y-56952853D01*
X188133959Y-56983478D01*
X188119956Y-56989764D01*
X188032004Y-57042713D01*
X187958014Y-57110927D01*
X187898971Y-57191273D01*
X187855858Y-57280620D01*
X187829656Y-57375833D01*
X187821350Y-57473781D01*
X187325012Y-57473781D01*
X187324428Y-57453778D01*
X187322689Y-57364589D01*
G37*
D16*
X187322689Y-57364589D02*
X187321286Y-57257960D01*
X187320242Y-57135304D01*
X187319578Y-56998032D01*
X187319317Y-56847558D01*
X187319314Y-56835822D01*
X187319227Y-56144108D01*
X187826931Y-55634082D01*
X187827079Y-56127650D01*
X187827271Y-56231890D01*
X187827760Y-56328635D01*
X187828510Y-56415521D01*
X187829486Y-56490183D01*
X187830655Y-56550258D01*
X187831982Y-56593381D01*
X187833431Y-56617188D01*
X187834339Y-56621218D01*
X187846770Y-56614904D01*
X187871616Y-56598561D01*
X187895750Y-56581359D01*
X188010447Y-56510637D01*
X188132663Y-56461533D01*
X188263046Y-56433857D01*
X188402247Y-56427419D01*
X188420059Y-56428087D01*
X188509694Y-56434639D01*
X188586177Y-56446576D01*
X188657829Y-56466068D01*
X188732967Y-56495285D01*
X188802818Y-56527924D01*
X188930751Y-56603217D01*
X189043671Y-56695197D01*
X189140565Y-56802186D01*
X189220423Y-56922511D01*
X189282233Y-57054496D01*
X189324985Y-57196465D01*
X189347666Y-57346744D01*
X189351227Y-57436414D01*
X189340936Y-57588892D01*
X189309580Y-57733456D01*
X189256435Y-57872692D01*
X189199180Y-57979611D01*
X189113468Y-58099904D01*
X189011855Y-58204753D01*
X188896522Y-58293075D01*
X188769647Y-58363789D01*
X188633411Y-58415812D01*
X188489992Y-58448065D01*
X188341571Y-58459464D01*
X188241325Y-58454981D01*
X188096717Y-58430100D01*
X187956149Y-58383825D01*
X187822976Y-58317846D01*
X187700556Y-58233849D01*
X187592244Y-58133523D01*
X187583850Y-58124357D01*
X187502719Y-58020237D01*
X187433027Y-57902055D01*
X187377861Y-57776192D01*
X187340308Y-57649032D01*
X187331439Y-57602582D01*
X187328826Y-57574187D01*
X187326481Y-57524115D01*
X187325012Y-57473781D01*
X187821350Y-57473781D01*
X187831922Y-57571330D01*
X187862354Y-57665349D01*
X187891008Y-57719494D01*
X187957942Y-57807777D01*
X188037423Y-57878654D01*
X188126855Y-57931147D01*
X188223641Y-57964279D01*
X188325182Y-57977073D01*
X188428883Y-57968552D01*
X188501710Y-57949264D01*
X188544707Y-57933178D01*
X188585612Y-57915818D01*
X188601779Y-57908042D01*
X188647065Y-57877038D01*
X188696388Y-57830844D01*
X188744445Y-57775388D01*
X188785930Y-57716594D01*
X188807418Y-57678267D01*
X188827599Y-57634021D01*
X188840244Y-57595413D01*
X188847601Y-57553121D01*
X188851919Y-57497818D01*
X188852201Y-57492528D01*
X188848833Y-57385283D01*
X188825977Y-57287391D01*
X188782325Y-57193968D01*
X188764555Y-57165439D01*
X188700013Y-57087535D01*
X188621196Y-57025365D01*
X188531560Y-56979869D01*
X188434561Y-56951991D01*
X188333657Y-56942671D01*
X188232305Y-56952853D01*
X188133959Y-56983478D01*
X188119956Y-56989764D01*
X188032004Y-57042713D01*
X187958014Y-57110927D01*
X187898971Y-57191273D01*
X187855858Y-57280620D01*
X187829656Y-57375833D01*
X187821350Y-57473781D01*
X187325012Y-57473781D01*
X187324428Y-57453778D01*
X187322689Y-57364589D01*
G36*
X186428825Y-57668398D02*
G01*
X186451528Y-57691261D01*
X186486007Y-57726792D01*
X186530276Y-57772884D01*
X186582343Y-57827430D01*
X186640222Y-57888324D01*
X186701921Y-57953459D01*
X186765454Y-58020729D01*
X186828829Y-58088027D01*
X186890059Y-58153246D01*
X186947155Y-58214281D01*
X186998127Y-58269024D01*
X187040987Y-58315369D01*
X187073745Y-58351209D01*
X187094413Y-58374438D01*
X187096706Y-58377129D01*
X187125007Y-58410764D01*
X186504993Y-58410764D01*
X186331643Y-58234695D01*
X186277901Y-58179952D01*
X186227618Y-58128439D01*
X186183802Y-58083259D01*
X186149456Y-58047513D01*
X186127588Y-58024304D01*
X186124411Y-58020812D01*
X186090529Y-57982997D01*
X186251564Y-57821653D01*
X186301277Y-57772198D01*
X186345501Y-57728873D01*
X186381648Y-57694160D01*
X186407130Y-57670540D01*
X186419359Y-57660492D01*
X186419890Y-57660309D01*
X186428825Y-57668398D01*
G37*
X186428825Y-57668398D02*
X186451528Y-57691261D01*
X186486007Y-57726792D01*
X186530276Y-57772884D01*
X186582343Y-57827430D01*
X186640222Y-57888324D01*
X186701921Y-57953459D01*
X186765454Y-58020729D01*
X186828829Y-58088027D01*
X186890059Y-58153246D01*
X186947155Y-58214281D01*
X186998127Y-58269024D01*
X187040987Y-58315369D01*
X187073745Y-58351209D01*
X187094413Y-58374438D01*
X187096706Y-58377129D01*
X187125007Y-58410764D01*
X186504993Y-58410764D01*
X186331643Y-58234695D01*
X186277901Y-58179952D01*
X186227618Y-58128439D01*
X186183802Y-58083259D01*
X186149456Y-58047513D01*
X186127588Y-58024304D01*
X186124411Y-58020812D01*
X186090529Y-57982997D01*
X186251564Y-57821653D01*
X186301277Y-57772198D01*
X186345501Y-57728873D01*
X186381648Y-57694160D01*
X186407130Y-57670540D01*
X186419359Y-57660492D01*
X186419890Y-57660309D01*
X186428825Y-57668398D01*
G36*
X185622045Y-57261867D02*
G01*
X186424991Y-56459167D01*
X186713359Y-56462261D01*
X187001727Y-56465354D01*
X186154503Y-57325491D01*
X186036578Y-57445214D01*
X185921779Y-57561763D01*
X185811325Y-57673903D01*
X185706433Y-57780396D01*
X185608321Y-57880007D01*
X185518206Y-57971500D01*
X185437307Y-58053637D01*
X185366840Y-58125182D01*
X185308024Y-58184900D01*
X185262077Y-58231554D01*
X185230216Y-58263907D01*
X185216435Y-58277903D01*
X185125591Y-58370179D01*
X185125591Y-55628309D01*
X185622045Y-55628309D01*
X185622045Y-57261867D01*
G37*
X185622045Y-57261867D02*
X186424991Y-56459167D01*
X186713359Y-56462261D01*
X187001727Y-56465354D01*
X186154503Y-57325491D01*
X186036578Y-57445214D01*
X185921779Y-57561763D01*
X185811325Y-57673903D01*
X185706433Y-57780396D01*
X185608321Y-57880007D01*
X185518206Y-57971500D01*
X185437307Y-58053637D01*
X185366840Y-58125182D01*
X185308024Y-58184900D01*
X185262077Y-58231554D01*
X185230216Y-58263907D01*
X185216435Y-58277903D01*
X185125591Y-58370179D01*
X185125591Y-55628309D01*
X185622045Y-55628309D01*
X185622045Y-57261867D01*
D13*
%TO.C,U2*%
X30080600Y-43000800D02*
X22580600Y-43000800D01*
X35080600Y-78800800D02*
X34220600Y-78800800D01*
X22580600Y-44300800D02*
X30080600Y-44300800D01*
X35080600Y-48600800D02*
X34280600Y-48600800D01*
X26830600Y-43350800D02*
X26330600Y-44000800D01*
X35080600Y-77950800D02*
X35080600Y-78800800D01*
X22580600Y-43000800D02*
X22580600Y-44300800D01*
X26180600Y-43800800D02*
X26480600Y-43800800D01*
X25830600Y-43350800D02*
X26830600Y-43350800D01*
X26080600Y-43650800D02*
X26580600Y-43650800D01*
X30080600Y-44300800D02*
X30080600Y-43000800D01*
X26330600Y-44000800D02*
X25830600Y-43350800D01*
X17580600Y-77900800D02*
X17580600Y-78800800D01*
X17580600Y-48600800D02*
X18430600Y-48600800D01*
X25980600Y-43500800D02*
X26680600Y-43500800D01*
X17580600Y-78800800D02*
X18430600Y-78800800D01*
X17580600Y-48600800D02*
X17580600Y-49450800D01*
X35080600Y-48600800D02*
X35080600Y-49450800D01*
D15*
%TO.C,REF\u002A\u002A*%
X95677400Y-40020900D02*
G75*
G03*
X94643535Y-35870355I-20320019J-2857506D01*
G01*
X68349354Y-62164535D02*
G75*
G03*
X72499900Y-63198400I7008046J19286135D01*
G01*
X72499900Y-22558400D02*
G75*
G03*
X68349352Y-23592266I2857496J-20319983D01*
G01*
X55037400Y-45735900D02*
G75*
G03*
X56071266Y-49886447I20319953J2857490D01*
G01*
X75357400Y-32083400D02*
G75*
G03*
X74229015Y-32142536I-6J-10794921D01*
G01*
X94643535Y-49886446D02*
G75*
G03*
X95677400Y-45735900I-19286185J7008058D01*
G01*
X75357400Y-53673401D02*
G75*
G03*
X76485785Y-53614264I0J10794901D01*
G01*
X78214900Y-63198400D02*
G75*
G03*
X82365447Y-62164534I-2857500J20320000D01*
G01*
X76485785Y-32142537D02*
G75*
G03*
X75357400Y-32083400I-1128385J-10735763D01*
G01*
X82365447Y-23592266D02*
G75*
G03*
X78214900Y-22558400I-7008047J-19286134D01*
G01*
X56071266Y-35870352D02*
G75*
G03*
X55037400Y-40020900I19286117J-7008044D01*
G01*
X74229015Y-53614264D02*
G75*
G03*
X75357400Y-53673400I1128379J10735785D01*
G01*
G36*
X73730645Y-56960267D02*
G01*
X74533591Y-56157567D01*
X74821959Y-56160661D01*
X75110327Y-56163754D01*
X74263103Y-57023891D01*
X74145178Y-57143614D01*
X74030379Y-57260163D01*
X73919925Y-57372303D01*
X73815033Y-57478796D01*
X73716921Y-57578407D01*
X73626806Y-57669900D01*
X73545907Y-57752037D01*
X73475440Y-57823582D01*
X73416624Y-57883300D01*
X73370677Y-57929954D01*
X73338816Y-57962307D01*
X73325035Y-57976303D01*
X73234191Y-58068579D01*
X73234191Y-55326709D01*
X73730645Y-55326709D01*
X73730645Y-56960267D01*
G37*
D16*
X73730645Y-56960267D02*
X74533591Y-56157567D01*
X74821959Y-56160661D01*
X75110327Y-56163754D01*
X74263103Y-57023891D01*
X74145178Y-57143614D01*
X74030379Y-57260163D01*
X73919925Y-57372303D01*
X73815033Y-57478796D01*
X73716921Y-57578407D01*
X73626806Y-57669900D01*
X73545907Y-57752037D01*
X73475440Y-57823582D01*
X73416624Y-57883300D01*
X73370677Y-57929954D01*
X73338816Y-57962307D01*
X73325035Y-57976303D01*
X73234191Y-58068579D01*
X73234191Y-55326709D01*
X73730645Y-55326709D01*
X73730645Y-56960267D01*
G36*
X74537425Y-57366798D02*
G01*
X74560128Y-57389661D01*
X74594607Y-57425192D01*
X74638876Y-57471284D01*
X74690943Y-57525830D01*
X74748822Y-57586724D01*
X74810521Y-57651859D01*
X74874054Y-57719129D01*
X74937429Y-57786427D01*
X74998659Y-57851646D01*
X75055755Y-57912681D01*
X75106727Y-57967424D01*
X75149587Y-58013769D01*
X75182345Y-58049609D01*
X75203013Y-58072838D01*
X75205306Y-58075529D01*
X75233607Y-58109164D01*
X74613593Y-58109164D01*
X74440243Y-57933095D01*
X74386501Y-57878352D01*
X74336218Y-57826839D01*
X74292402Y-57781659D01*
X74258056Y-57745913D01*
X74236188Y-57722704D01*
X74233011Y-57719212D01*
X74199129Y-57681397D01*
X74360164Y-57520053D01*
X74409877Y-57470598D01*
X74454101Y-57427273D01*
X74490248Y-57392560D01*
X74515730Y-57368940D01*
X74527959Y-57358892D01*
X74528490Y-57358709D01*
X74537425Y-57366798D01*
G37*
X74537425Y-57366798D02*
X74560128Y-57389661D01*
X74594607Y-57425192D01*
X74638876Y-57471284D01*
X74690943Y-57525830D01*
X74748822Y-57586724D01*
X74810521Y-57651859D01*
X74874054Y-57719129D01*
X74937429Y-57786427D01*
X74998659Y-57851646D01*
X75055755Y-57912681D01*
X75106727Y-57967424D01*
X75149587Y-58013769D01*
X75182345Y-58049609D01*
X75203013Y-58072838D01*
X75205306Y-58075529D01*
X75233607Y-58109164D01*
X74613593Y-58109164D01*
X74440243Y-57933095D01*
X74386501Y-57878352D01*
X74336218Y-57826839D01*
X74292402Y-57781659D01*
X74258056Y-57745913D01*
X74236188Y-57722704D01*
X74233011Y-57719212D01*
X74199129Y-57681397D01*
X74360164Y-57520053D01*
X74409877Y-57470598D01*
X74454101Y-57427273D01*
X74490248Y-57392560D01*
X74515730Y-57368940D01*
X74527959Y-57358892D01*
X74528490Y-57358709D01*
X74537425Y-57366798D01*
G36*
X75431289Y-57062989D02*
G01*
X75429886Y-56956360D01*
X75428842Y-56833704D01*
X75428178Y-56696432D01*
X75427917Y-56545958D01*
X75427914Y-56534222D01*
X75427827Y-55842508D01*
X75935531Y-55332482D01*
X75935679Y-55826050D01*
X75935871Y-55930290D01*
X75936360Y-56027035D01*
X75937110Y-56113921D01*
X75938086Y-56188583D01*
X75939255Y-56248658D01*
X75940582Y-56291781D01*
X75942031Y-56315588D01*
X75942939Y-56319618D01*
X75955370Y-56313304D01*
X75980216Y-56296961D01*
X76004350Y-56279759D01*
X76119047Y-56209037D01*
X76241263Y-56159933D01*
X76371646Y-56132257D01*
X76510847Y-56125819D01*
X76528659Y-56126487D01*
X76618294Y-56133039D01*
X76694777Y-56144976D01*
X76766429Y-56164468D01*
X76841567Y-56193685D01*
X76911418Y-56226324D01*
X77039351Y-56301617D01*
X77152271Y-56393597D01*
X77249165Y-56500586D01*
X77329023Y-56620911D01*
X77390833Y-56752896D01*
X77433585Y-56894865D01*
X77456266Y-57045144D01*
X77459827Y-57134814D01*
X77449536Y-57287292D01*
X77418180Y-57431856D01*
X77365035Y-57571092D01*
X77307780Y-57678011D01*
X77222068Y-57798304D01*
X77120455Y-57903153D01*
X77005122Y-57991475D01*
X76878247Y-58062189D01*
X76742011Y-58114212D01*
X76598592Y-58146465D01*
X76450171Y-58157864D01*
X76349925Y-58153381D01*
X76205317Y-58128500D01*
X76064749Y-58082225D01*
X75931576Y-58016246D01*
X75809156Y-57932249D01*
X75700844Y-57831923D01*
X75692450Y-57822757D01*
X75611319Y-57718637D01*
X75541627Y-57600455D01*
X75486461Y-57474592D01*
X75448908Y-57347432D01*
X75440039Y-57300982D01*
X75437426Y-57272587D01*
X75435081Y-57222515D01*
X75433612Y-57172181D01*
X75929950Y-57172181D01*
X75940522Y-57269730D01*
X75970954Y-57363749D01*
X75999608Y-57417894D01*
X76066542Y-57506177D01*
X76146023Y-57577054D01*
X76235455Y-57629547D01*
X76332241Y-57662679D01*
X76433782Y-57675473D01*
X76537483Y-57666952D01*
X76610310Y-57647664D01*
X76653307Y-57631578D01*
X76694212Y-57614218D01*
X76710379Y-57606442D01*
X76755665Y-57575438D01*
X76804988Y-57529244D01*
X76853045Y-57473788D01*
X76894530Y-57414994D01*
X76916018Y-57376667D01*
X76936199Y-57332421D01*
X76948844Y-57293813D01*
X76956201Y-57251521D01*
X76960519Y-57196218D01*
X76960801Y-57190928D01*
X76957433Y-57083683D01*
X76934577Y-56985791D01*
X76890925Y-56892368D01*
X76873155Y-56863839D01*
X76808613Y-56785935D01*
X76729796Y-56723765D01*
X76640160Y-56678269D01*
X76543161Y-56650391D01*
X76442257Y-56641071D01*
X76340905Y-56651253D01*
X76242559Y-56681878D01*
X76228556Y-56688164D01*
X76140604Y-56741113D01*
X76066614Y-56809327D01*
X76007571Y-56889673D01*
X75964458Y-56979020D01*
X75938256Y-57074233D01*
X75929950Y-57172181D01*
X75433612Y-57172181D01*
X75433028Y-57152178D01*
X75431289Y-57062989D01*
G37*
X75431289Y-57062989D02*
X75429886Y-56956360D01*
X75428842Y-56833704D01*
X75428178Y-56696432D01*
X75427917Y-56545958D01*
X75427914Y-56534222D01*
X75427827Y-55842508D01*
X75935531Y-55332482D01*
X75935679Y-55826050D01*
X75935871Y-55930290D01*
X75936360Y-56027035D01*
X75937110Y-56113921D01*
X75938086Y-56188583D01*
X75939255Y-56248658D01*
X75940582Y-56291781D01*
X75942031Y-56315588D01*
X75942939Y-56319618D01*
X75955370Y-56313304D01*
X75980216Y-56296961D01*
X76004350Y-56279759D01*
X76119047Y-56209037D01*
X76241263Y-56159933D01*
X76371646Y-56132257D01*
X76510847Y-56125819D01*
X76528659Y-56126487D01*
X76618294Y-56133039D01*
X76694777Y-56144976D01*
X76766429Y-56164468D01*
X76841567Y-56193685D01*
X76911418Y-56226324D01*
X77039351Y-56301617D01*
X77152271Y-56393597D01*
X77249165Y-56500586D01*
X77329023Y-56620911D01*
X77390833Y-56752896D01*
X77433585Y-56894865D01*
X77456266Y-57045144D01*
X77459827Y-57134814D01*
X77449536Y-57287292D01*
X77418180Y-57431856D01*
X77365035Y-57571092D01*
X77307780Y-57678011D01*
X77222068Y-57798304D01*
X77120455Y-57903153D01*
X77005122Y-57991475D01*
X76878247Y-58062189D01*
X76742011Y-58114212D01*
X76598592Y-58146465D01*
X76450171Y-58157864D01*
X76349925Y-58153381D01*
X76205317Y-58128500D01*
X76064749Y-58082225D01*
X75931576Y-58016246D01*
X75809156Y-57932249D01*
X75700844Y-57831923D01*
X75692450Y-57822757D01*
X75611319Y-57718637D01*
X75541627Y-57600455D01*
X75486461Y-57474592D01*
X75448908Y-57347432D01*
X75440039Y-57300982D01*
X75437426Y-57272587D01*
X75435081Y-57222515D01*
X75433612Y-57172181D01*
X75929950Y-57172181D01*
X75940522Y-57269730D01*
X75970954Y-57363749D01*
X75999608Y-57417894D01*
X76066542Y-57506177D01*
X76146023Y-57577054D01*
X76235455Y-57629547D01*
X76332241Y-57662679D01*
X76433782Y-57675473D01*
X76537483Y-57666952D01*
X76610310Y-57647664D01*
X76653307Y-57631578D01*
X76694212Y-57614218D01*
X76710379Y-57606442D01*
X76755665Y-57575438D01*
X76804988Y-57529244D01*
X76853045Y-57473788D01*
X76894530Y-57414994D01*
X76916018Y-57376667D01*
X76936199Y-57332421D01*
X76948844Y-57293813D01*
X76956201Y-57251521D01*
X76960519Y-57196218D01*
X76960801Y-57190928D01*
X76957433Y-57083683D01*
X76934577Y-56985791D01*
X76890925Y-56892368D01*
X76873155Y-56863839D01*
X76808613Y-56785935D01*
X76729796Y-56723765D01*
X76640160Y-56678269D01*
X76543161Y-56650391D01*
X76442257Y-56641071D01*
X76340905Y-56651253D01*
X76242559Y-56681878D01*
X76228556Y-56688164D01*
X76140604Y-56741113D01*
X76066614Y-56809327D01*
X76007571Y-56889673D01*
X75964458Y-56979020D01*
X75938256Y-57074233D01*
X75929950Y-57172181D01*
X75433612Y-57172181D01*
X75433028Y-57152178D01*
X75431289Y-57062989D01*
D13*
%TO.C,RSW2*%
X19535200Y-82471000D02*
X19535200Y-88471000D01*
X23035200Y-82471000D02*
X23035200Y-88471000D01*
X23035200Y-82471000D02*
X22785200Y-82471000D01*
X19535200Y-88471000D02*
X19785200Y-88471000D01*
X23035200Y-88471000D02*
X22785200Y-88471000D01*
X19535200Y-82471000D02*
X19785200Y-82471000D01*
%TO.C,+*%
X228802000Y-46640400D02*
X228802000Y-48640400D01*
X230802000Y-48640400D02*
X230802000Y-46640400D01*
X230802000Y-46640400D02*
X228802000Y-46640400D01*
X228802000Y-48640400D02*
X230802000Y-48640400D01*
%TO.C,-*%
X240943200Y-48691200D02*
X242943200Y-48691200D01*
X242943200Y-46691200D02*
X240943200Y-46691200D01*
X240943200Y-46691200D02*
X240943200Y-48691200D01*
X242943200Y-48691200D02*
X242943200Y-46691200D01*
%TO.C,+*%
X19040600Y-46574200D02*
X19040600Y-48574200D01*
X19040600Y-48574200D02*
X21040600Y-48574200D01*
X21040600Y-48574200D02*
X21040600Y-46574200D01*
X21040600Y-46574200D02*
X19040600Y-46574200D01*
%TO.C,-*%
X33207200Y-48625000D02*
X33207200Y-46625000D01*
X33207200Y-46625000D02*
X31207200Y-46625000D01*
X31207200Y-48625000D02*
X33207200Y-48625000D01*
X31207200Y-46625000D02*
X31207200Y-48625000D01*
%TD*%
D17*
%TO.C,RSW1*%
X240978000Y-82744400D03*
X240978000Y-89244400D03*
%TD*%
%TO.C,RSW2*%
X21285200Y-88721000D03*
X21285200Y-82221000D03*
%TD*%
M02*
