%TF.GenerationSoftware,KiCad,Pcbnew,(6.0.5-0)*%
%TF.CreationDate,2022-07-05T16:09:48-07:00*%
%TF.ProjectId,Swept_3x5,53776570-745f-4337-9835-2e6b69636164,rev?*%
%TF.SameCoordinates,Original*%
%TF.FileFunction,Profile,NP*%
%FSLAX46Y46*%
G04 Gerber Fmt 4.6, Leading zero omitted, Abs format (unit mm)*
G04 Created by KiCad (PCBNEW (6.0.5-0)) date 2022-07-05 16:09:48*
%MOMM*%
%LPD*%
G01*
G04 APERTURE LIST*
%TA.AperFunction,Profile*%
%ADD10C,0.050000*%
%TD*%
G04 APERTURE END LIST*
D10*
X226630021Y-44426555D02*
X226630065Y-27101975D01*
X236621991Y-108844888D02*
G75*
G03*
X239357601Y-108226833I945310J2179055D01*
G01*
X226629998Y-44426556D02*
G75*
G03*
X228634411Y-46352433I1994503J69823D01*
G01*
X188009135Y-95692460D02*
G75*
G03*
X134924800Y-88213848I-76062283J-347762067D01*
G01*
X226630019Y-27101975D02*
G75*
G03*
X225557968Y-26010114I-1081918J9942D01*
G01*
X192734972Y-23377939D02*
X206032621Y-23371741D01*
X57353200Y-26009600D02*
G75*
G03*
X57988200Y-25374600I0J635000D01*
G01*
X190030800Y-19453833D02*
G75*
G03*
X188963821Y-18367941I-1076799J9100D01*
G01*
X94589609Y-19308139D02*
G75*
G03*
X93649800Y-18364200I-943909J39D01*
G01*
X131559628Y-46075367D02*
X131229801Y-46075367D01*
X133693601Y-51968167D02*
X133731000Y-68655848D01*
X133414201Y-51968167D02*
X133693601Y-51968167D01*
X57988200Y-24434800D02*
X57988200Y-25374600D01*
X112623600Y-25920700D02*
G75*
G03*
X111861600Y-25158700I-762000J0D01*
G01*
X18084800Y-46355000D02*
X36230332Y-46348917D01*
X131191000Y-68655848D02*
X131204401Y-51968167D01*
X39324498Y-26009999D02*
G75*
G03*
X38252400Y-27101800I9802J-1081901D01*
G01*
X36230332Y-46348922D02*
G75*
G03*
X38252444Y-44426380I101958J1917452D01*
G01*
X207099613Y-24432233D02*
G75*
G03*
X206032621Y-23371741I-1076812J-16400D01*
G01*
X38252400Y-27101800D02*
X38252444Y-44426380D01*
X228634411Y-46352433D02*
X247003001Y-46352433D01*
X131191000Y-87020048D02*
X131191000Y-74472448D01*
X171254786Y-18361627D02*
G75*
G03*
X170314986Y-19305572I4115J-943906D01*
G01*
X134354001Y-37261567D02*
G75*
G03*
X133668201Y-37947367I0J-685800D01*
G01*
X131546600Y-68655848D02*
X131191000Y-68655848D01*
X131433001Y-51968167D02*
X131204401Y-51968167D01*
X236622011Y-108844842D02*
G75*
G03*
X188009135Y-95692460I-66624810J-149837891D01*
G01*
X75331283Y-19558000D02*
X75336400Y-21082000D01*
X133668201Y-37947367D02*
X133668201Y-46151567D01*
X247409401Y-96263433D02*
X239357601Y-108226833D01*
X170314986Y-19305572D02*
X170314986Y-24381433D01*
X133414201Y-51968167D02*
G75*
G03*
X131433001Y-51968167I-990600J0D01*
G01*
X94589600Y-24384000D02*
X94589600Y-19308139D01*
X247429440Y-46773165D02*
G75*
G03*
X247003001Y-46352433I-420739J32D01*
G01*
X151785312Y-37259233D02*
X134354001Y-37261567D01*
X247429469Y-46773165D02*
X247460201Y-96009433D01*
X59055180Y-23374320D02*
G75*
G03*
X57988200Y-24434800I9820J-1076880D01*
G01*
X131546600Y-74472448D02*
X131191000Y-74472448D01*
X225557968Y-26010114D02*
X207734601Y-26007033D01*
X207099601Y-25372033D02*
X207099601Y-24432233D01*
X77078666Y-95695027D02*
G75*
G03*
X28465795Y-108847420I18011984J-162990303D01*
G01*
X57353200Y-26009600D02*
X39324497Y-26009939D01*
X18084800Y-46354971D02*
G75*
G03*
X17658332Y-46775732I-5700J-420729D01*
G01*
X169552986Y-25143418D02*
G75*
G03*
X170314986Y-24381433I15J761985D01*
G01*
X132461000Y-69545200D02*
G75*
G03*
X133375399Y-68655848I0J914752D01*
G01*
X59055180Y-23374308D02*
X72618600Y-23368000D01*
X133731000Y-87020048D02*
G75*
G03*
X134924800Y-88213848I1193800J0D01*
G01*
X94589600Y-24384000D02*
G75*
G03*
X95351600Y-25146000I762000J0D01*
G01*
X133668201Y-46151567D02*
X133287201Y-46151567D01*
X129997200Y-88213848D02*
G75*
G03*
X131191000Y-87020048I16200J1177600D01*
G01*
X133731000Y-74472448D02*
X133375400Y-74472448D01*
X169552986Y-25143433D02*
X152997601Y-25143433D01*
X151785310Y-37259217D02*
G75*
G03*
X152235601Y-36738533I-57509J504784D01*
G01*
X111861600Y-25158700D02*
X95351600Y-25146000D01*
X131214066Y-37949934D02*
G75*
G03*
X130528266Y-37264134I-685800J0D01*
G01*
X133731000Y-74472448D02*
X133731000Y-87020048D01*
X112623619Y-36817298D02*
G75*
G03*
X113131600Y-37261800I499481J58298D01*
G01*
X131229801Y-46075367D02*
X131214066Y-37949934D01*
X25730198Y-108229402D02*
G75*
G03*
X28465795Y-108847420I1752852J1395392D01*
G01*
X131546601Y-68655848D02*
G75*
G03*
X132461000Y-69545200I914399J25400D01*
G01*
X207099601Y-25372033D02*
G75*
G03*
X207734601Y-26007033I635000J0D01*
G01*
X133731000Y-68655848D02*
X133375400Y-68655848D01*
X130528266Y-37264134D02*
X113131600Y-37261800D01*
X75336400Y-21082044D02*
G75*
G03*
X72618600Y-23368000I15700J-2777256D01*
G01*
X152235601Y-25930833D02*
X152235601Y-36738533D01*
X152997602Y-25143456D02*
G75*
G03*
X152235601Y-25930833I25799J-787377D01*
G01*
X17627600Y-96012000D02*
G75*
G03*
X17678400Y-96266000I660400J0D01*
G01*
X131559721Y-46075372D02*
G75*
G03*
X133287201Y-46151567I863180J-50795D01*
G01*
X133375400Y-74472448D02*
G75*
G03*
X131546600Y-74472448I-914400J0D01*
G01*
X76657203Y-18338769D02*
G75*
G03*
X75331283Y-19558000I-122903J-1196931D01*
G01*
X192734972Y-23377939D02*
G75*
G03*
X190030801Y-21181033I-2729571J-597094D01*
G01*
X17627600Y-96012000D02*
X17658332Y-46775732D01*
X25730200Y-108229400D02*
X17678400Y-96266000D01*
X247409401Y-96263433D02*
G75*
G03*
X247460201Y-96009433I-609600J254000D01*
G01*
X188963821Y-18367941D02*
X171254786Y-18361633D01*
X93649800Y-18364200D02*
X76657200Y-18338800D01*
X112623600Y-36817300D02*
X112623600Y-25920700D01*
X190030801Y-21181033D02*
X190030801Y-19453833D01*
X129997200Y-88213848D02*
G75*
G03*
X77078666Y-95695027I23397246J-356403398D01*
G01*
M02*
