%TF.GenerationSoftware,KiCad,Pcbnew,(6.0.5-0)*%
%TF.CreationDate,2022-07-05T16:09:48-07:00*%
%TF.ProjectId,Swept_3x5,53776570-745f-4337-9835-2e6b69636164,rev?*%
%TF.SameCoordinates,Original*%
%TF.FileFunction,Copper,L1,Top*%
%TF.FilePolarity,Positive*%
%FSLAX46Y46*%
G04 Gerber Fmt 4.6, Leading zero omitted, Abs format (unit mm)*
G04 Created by KiCad (PCBNEW (6.0.5-0)) date 2022-07-05 16:09:48*
%MOMM*%
%LPD*%
G01*
G04 APERTURE LIST*
%TA.AperFunction,ComponentPad*%
%ADD10C,1.524000*%
%TD*%
%TA.AperFunction,ComponentPad*%
%ADD11C,2.032000*%
%TD*%
%TA.AperFunction,ComponentPad*%
%ADD12C,2.000000*%
%TD*%
%TA.AperFunction,ComponentPad*%
%ADD13C,4.400000*%
%TD*%
%TA.AperFunction,ComponentPad*%
%ADD14C,1.397000*%
%TD*%
%TA.AperFunction,ViaPad*%
%ADD15C,0.800000*%
%TD*%
%TA.AperFunction,Conductor*%
%ADD16C,0.250000*%
%TD*%
G04 APERTURE END LIST*
D10*
%TO.P,U1,24,RAW*%
%TO.N,raw*%
X231160401Y-49847433D03*
%TO.P,U1,23,GND*%
%TO.N,gnd*%
X231160401Y-52387433D03*
%TO.P,U1,22,RST*%
%TO.N,reset*%
X231160401Y-54927433D03*
%TO.P,U1,21,VCC*%
%TO.N,vcc*%
X231160401Y-57467433D03*
%TO.P,U1,20,F4*%
%TO.N,col0*%
X231160401Y-60007433D03*
%TO.P,U1,19,F5*%
%TO.N,col1*%
X231160401Y-62547433D03*
%TO.P,U1,18,F6*%
%TO.N,col2*%
X231160401Y-65087433D03*
%TO.P,U1,17,F7*%
%TO.N,col3*%
X231160401Y-67627433D03*
%TO.P,U1,16,B1*%
%TO.N,col4*%
X231160401Y-70167433D03*
%TO.P,U1,15,B3*%
%TO.N,col5*%
X231160401Y-72707433D03*
%TO.P,U1,14,B2*%
%TO.N,unconnected-(U1-Pad14)*%
X231160401Y-75247433D03*
%TO.P,U1,13,B6*%
%TO.N,unconnected-(U1-Pad13)*%
X231160401Y-77787433D03*
%TO.P,U1,12,B5*%
%TO.N,unconnected-(U1-Pad12)*%
X246380401Y-77787433D03*
%TO.P,U1,11,B4*%
%TO.N,unconnected-(U1-Pad11)*%
X246380401Y-75247433D03*
%TO.P,U1,10,E6*%
%TO.N,row_3*%
X246380401Y-72707433D03*
%TO.P,U1,9,D7*%
%TO.N,row_2*%
X246380401Y-70167433D03*
%TO.P,U1,8,C6*%
%TO.N,row_1*%
X246380401Y-67627433D03*
%TO.P,U1,7,D4*%
%TO.N,row_0*%
X246380401Y-65087433D03*
%TO.P,U1,6,SCL*%
%TO.N,unconnected-(U1-Pad6)*%
X246380401Y-62547433D03*
%TO.P,U1,5,SDA*%
%TO.N,unconnected-(U1-Pad5)*%
X246380401Y-60007433D03*
%TO.P,U1,4,GND*%
%TO.N,gnd*%
X246380401Y-57467433D03*
%TO.P,U1,3,GND*%
X246380401Y-54927433D03*
%TO.P,U1,2,RX*%
%TO.N,unconnected-(U1-Pad2)*%
X246380401Y-52387433D03*
%TO.P,U1,1,TX*%
%TO.N,unconnected-(U1-Pad1)*%
X246380401Y-49847433D03*
%TD*%
D11*
%TO.P,SW16,2,2*%
%TO.N,Net-(D14-Pad2)*%
X157497201Y-71920233D03*
%TO.P,SW16,1,1*%
%TO.N,col2*%
X162497201Y-74020233D03*
%TD*%
%TO.P,SW20,2,2*%
%TO.N,Net-(D18-Pad2)*%
X202193601Y-82836833D03*
%TO.P,SW20,1,1*%
%TO.N,col3*%
X197193601Y-80736833D03*
%TD*%
%TO.P,SW15,2,2*%
%TO.N,Net-(D13-Pad2)*%
X139539401Y-83934433D03*
%TO.P,SW15,1,1*%
%TO.N,col1*%
X144539401Y-86034433D03*
%TD*%
%TO.P,SW21,2,2*%
%TO.N,Net-(D19-Pad2)*%
X223199743Y-86978210D03*
%TO.P,SW21,1,1*%
%TO.N,col4*%
X218913633Y-83655671D03*
%TD*%
%TO.P,SW17,2,2*%
%TO.N,Net-(D15-Pad2)*%
X175505801Y-65036833D03*
%TO.P,SW17,1,1*%
%TO.N,col3*%
X180505801Y-67136833D03*
%TD*%
%TO.P,SW18,2,2*%
%TO.N,Net-(D16-Pad2)*%
X193514401Y-70396233D03*
%TO.P,SW18,1,1*%
%TO.N,col4*%
X198514401Y-72496233D03*
%TD*%
%TO.P,SW4,2,2*%
%TO.N,Net-(D2-Pad2)*%
X167522601Y-30081033D03*
%TO.P,SW4,1,1*%
%TO.N,col2*%
X162522601Y-27981033D03*
%TD*%
%TO.P,SW3,2,2*%
%TO.N,Net-(D1-Pad2)*%
X139514001Y-49720633D03*
%TO.P,SW3,1,1*%
%TO.N,col1*%
X144514001Y-51820633D03*
%TD*%
%TO.P,SW9,2,2*%
%TO.N,Net-(D7-Pad2)*%
X139514001Y-66814833D03*
%TO.P,SW9,1,1*%
%TO.N,col1*%
X144514001Y-68914833D03*
%TD*%
%TO.P,SW12,2,2*%
%TO.N,Net-(D10-Pad2)*%
X203514401Y-45676633D03*
%TO.P,SW12,1,1*%
%TO.N,col4*%
X198514401Y-43576633D03*
%TD*%
%TO.P,SW11,2,2*%
%TO.N,Net-(D9-Pad2)*%
X175505801Y-47917233D03*
%TO.P,SW11,1,1*%
%TO.N,col3*%
X180505801Y-50017233D03*
%TD*%
%TO.P,SW6,2,2*%
%TO.N,Net-(D4-Pad2)*%
X193539801Y-36157033D03*
%TO.P,SW6,1,1*%
%TO.N,col4*%
X198539801Y-38257033D03*
%TD*%
%TO.P,SW5,2,2*%
%TO.N,Net-(D3-Pad2)*%
X185531201Y-23223033D03*
%TO.P,SW5,1,1*%
%TO.N,col3*%
X180531201Y-21123033D03*
%TD*%
D12*
%TO.P,RSW1,2,2*%
%TO.N,reset*%
X243751801Y-88997833D03*
%TO.P,RSW1,1,1*%
%TO.N,gnd*%
X243751801Y-82497833D03*
%TD*%
D11*
%TO.P,SW10,2,2*%
%TO.N,Net-(D8-Pad2)*%
X157497201Y-54800633D03*
%TO.P,SW10,1,1*%
%TO.N,col2*%
X162497201Y-56900633D03*
%TD*%
D13*
%TO.P,REF\u002A\u002A,1*%
%TO.N,N/C*%
X190022601Y-61983433D03*
X190022601Y-23883433D03*
X170972601Y-42933433D03*
X209072601Y-42933433D03*
%TD*%
D10*
%TO.P,U2,1,TX*%
%TO.N,unconnected-(U2-Pad1)*%
X33942000Y-49722800D03*
%TO.P,U2,2,RX*%
%TO.N,unconnected-(U2-Pad2)*%
X33942000Y-52262800D03*
%TO.P,U2,3,GND*%
%TO.N,gnd_r*%
X33942000Y-54802800D03*
%TO.P,U2,4,GND*%
X33942000Y-57342800D03*
%TO.P,U2,5,SDA*%
%TO.N,unconnected-(U2-Pad5)*%
X33942000Y-59882800D03*
%TO.P,U2,6,SCL*%
%TO.N,unconnected-(U2-Pad6)*%
X33942000Y-62422800D03*
%TO.P,U2,7,D4*%
%TO.N,row_0r*%
X33942000Y-64962800D03*
%TO.P,U2,8,C6*%
%TO.N,row_1r*%
X33942000Y-67502800D03*
%TO.P,U2,9,D7*%
%TO.N,row_2r*%
X33942000Y-70042800D03*
%TO.P,U2,10,E6*%
%TO.N,row_3r*%
X33942000Y-72582800D03*
%TO.P,U2,11,B4*%
%TO.N,unconnected-(U2-Pad11)*%
X33942000Y-75122800D03*
%TO.P,U2,12,B5*%
%TO.N,unconnected-(U2-Pad12)*%
X33942000Y-77662800D03*
%TO.P,U2,13,B6*%
%TO.N,unconnected-(U2-Pad13)*%
X18722000Y-77662800D03*
%TO.P,U2,14,B2*%
%TO.N,unconnected-(U2-Pad14)*%
X18722000Y-75122800D03*
%TO.P,U2,15,B3*%
%TO.N,col5r*%
X18722000Y-72582800D03*
%TO.P,U2,16,B1*%
%TO.N,col4r*%
X18722000Y-70042800D03*
%TO.P,U2,17,F7*%
%TO.N,col3r*%
X18722000Y-67502800D03*
%TO.P,U2,18,F6*%
%TO.N,col2r*%
X18722000Y-64962800D03*
%TO.P,U2,19,F5*%
%TO.N,col1r*%
X18722000Y-62422800D03*
%TO.P,U2,20,F4*%
%TO.N,col0r*%
X18722000Y-59882800D03*
%TO.P,U2,21,VCC*%
%TO.N,vcc_r*%
X18722000Y-57342800D03*
%TO.P,U2,22,RST*%
%TO.N,reset_r*%
X18722000Y-54802800D03*
%TO.P,U2,23,GND*%
%TO.N,gnd_r*%
X18722000Y-52262800D03*
%TO.P,U2,24,RAW*%
%TO.N,raw_r*%
X18722000Y-49722800D03*
%TD*%
D11*
%TO.P,SW17_r1,1,1*%
%TO.N,col3r*%
X84378800Y-67012400D03*
%TO.P,SW17_r1,2,2*%
%TO.N,Net-(Dr15-Pad2)*%
X79378800Y-64912400D03*
%TD*%
%TO.P,SW11_r1,1,1*%
%TO.N,col3r*%
X84353400Y-38219800D03*
%TO.P,SW11_r1,2,2*%
%TO.N,Net-(Dr9-Pad2)*%
X89353400Y-40319800D03*
%TD*%
%TO.P,SW15_r1,1,1*%
%TO.N,col1r*%
X120396000Y-85859200D03*
%TO.P,SW15_r1,2,2*%
%TO.N,Net-(Dr13-Pad2)*%
X115396000Y-83759200D03*
%TD*%
%TO.P,SW18_r1,1,1*%
%TO.N,col4r*%
X66344800Y-60521000D03*
%TO.P,SW18_r1,2,2*%
%TO.N,Net-(Dr16-Pad2)*%
X71344800Y-62621000D03*
%TD*%
%TO.P,SW6_r1,1,1*%
%TO.N,col4r*%
X66344800Y-38259600D03*
%TO.P,SW6_r1,2,2*%
%TO.N,Net-(Dr4-Pad2)*%
X61344800Y-36159600D03*
%TD*%
%TO.P,SW5_r1,1,1*%
%TO.N,col3r*%
X84378800Y-33001800D03*
%TO.P,SW5_r1,2,2*%
%TO.N,Net-(Dr3-Pad2)*%
X79378800Y-30901800D03*
%TD*%
%TO.P,SW16_r1,1,1*%
%TO.N,col2r*%
X102412800Y-73895800D03*
%TO.P,SW16_r1,2,2*%
%TO.N,Net-(Dr14-Pad2)*%
X97412800Y-71795800D03*
%TD*%
%TO.P,SW4_r1,1,1*%
%TO.N,col2r*%
X102387400Y-39834400D03*
%TO.P,SW4_r1,2,2*%
%TO.N,Net-(Dr2-Pad2)*%
X97387400Y-37734400D03*
%TD*%
%TO.P,SW13_r1,1,1*%
%TO.N,col5r*%
X48336200Y-57843000D03*
%TO.P,SW13_r1,2,2*%
%TO.N,Net-(Dr11-Pad2)*%
X43336200Y-55743000D03*
%TD*%
%TO.P,SW12_r1,1,1*%
%TO.N,col4r*%
X66344800Y-43528400D03*
%TO.P,SW12_r1,2,2*%
%TO.N,Net-(Dr10-Pad2)*%
X71344800Y-45628400D03*
%TD*%
%TO.P,SW3_r1,1,1*%
%TO.N,col1r*%
X120396000Y-51874000D03*
%TO.P,SW3_r1,2,2*%
%TO.N,Net-(Dr1-Pad2)*%
X115396000Y-49774000D03*
%TD*%
%TO.P,SW21_r1,1,1*%
%TO.N,col4r*%
X46250368Y-83455038D03*
%TO.P,SW21_r1,2,2*%
%TO.N,Net-(Dr19-Pad2)*%
X51623517Y-84189387D03*
%TD*%
%TO.P,SW9_r1,1,1*%
%TO.N,col1r*%
X120396000Y-68866600D03*
%TO.P,SW9_r1,2,2*%
%TO.N,Net-(Dr7-Pad2)*%
X115396000Y-66766600D03*
%TD*%
%TO.P,SW20_r1,1,1*%
%TO.N,col3r*%
X68072000Y-80510800D03*
%TO.P,SW20_r1,2,2*%
%TO.N,Net-(Dr18-Pad2)*%
X73072000Y-82610800D03*
%TD*%
%TO.P,SW7_r1,1,1*%
%TO.N,col5r*%
X48336200Y-40850400D03*
%TO.P,SW7_r1,2,2*%
%TO.N,Net-(Dr5-Pad2)*%
X43336200Y-38750400D03*
%TD*%
D13*
%TO.P,REF\u002A\u002A,1*%
%TO.N,N/C*%
X94407400Y-42878400D03*
X56307400Y-42878400D03*
X75357400Y-61928400D03*
X75357400Y-23828400D03*
%TD*%
D12*
%TO.P,RSW2,1,1*%
%TO.N,gnd_r*%
X21285200Y-88721000D03*
%TO.P,RSW2,2,2*%
%TO.N,reset_r*%
X21285200Y-82221000D03*
%TD*%
D11*
%TO.P,SW13,2,2*%
%TO.N,Net-(D11-Pad2)*%
X211548401Y-55842033D03*
%TO.P,SW13,1,1*%
%TO.N,col5*%
X216548401Y-57942033D03*
%TD*%
%TO.P,SW22,2,2*%
%TO.N,Net-(D20-Pad2)*%
X242762752Y-97796537D03*
%TO.P,SW22,1,1*%
%TO.N,col5*%
X239871502Y-93208436D03*
%TD*%
%TO.P,SW19,2,2*%
%TO.N,Net-(D17-Pad2)*%
X211548401Y-72961633D03*
%TO.P,SW19,1,1*%
%TO.N,col5*%
X216548401Y-75061633D03*
%TD*%
%TO.P,SW19_r1,1,1*%
%TO.N,col5r*%
X48310800Y-74861000D03*
%TO.P,SW19_r1,2,2*%
%TO.N,Net-(Dr17-Pad2)*%
X43310800Y-72761000D03*
%TD*%
D14*
%TO.P,Bat+1,1,1*%
%TO.N,BT+*%
X232575801Y-47393833D03*
%TD*%
D11*
%TO.P,SW10_r1,1,1*%
%TO.N,col2r*%
X102387400Y-56877800D03*
%TO.P,SW10_r1,2,2*%
%TO.N,Net-(Dr8-Pad2)*%
X97387400Y-54777800D03*
%TD*%
%TO.P,SW22_r1,1,1*%
%TO.N,col5r*%
X31968637Y-102744927D03*
%TO.P,SW22_r1,2,2*%
%TO.N,Net-(Dr20-Pad2)*%
X26668366Y-103892590D03*
%TD*%
D14*
%TO.P,BatGND1,1,1*%
%TO.N,gnd*%
X244717001Y-47444633D03*
%TD*%
%TO.P,Bat+r1,1,1*%
%TO.N,BT+_r*%
X20040600Y-47574200D03*
%TD*%
D11*
%TO.P,SW7,2,2*%
%TO.N,Net-(D5-Pad2)*%
X211548401Y-38722433D03*
%TO.P,SW7,1,1*%
%TO.N,col5*%
X216548401Y-40822433D03*
%TD*%
D14*
%TO.P,BatGND4,1,1*%
%TO.N,gnd_r*%
X32207200Y-47625000D03*
%TD*%
D15*
%TO.N,col1*%
X223939801Y-80481130D03*
X138824401Y-74495633D03*
X138697401Y-57071233D03*
X141237401Y-42237633D03*
%TO.N,col2*%
X223939801Y-81480633D03*
X156909201Y-62303633D03*
X157137801Y-45361833D03*
X168237601Y-39799233D03*
%TO.N,col3*%
X174841601Y-38275233D03*
X186576401Y-33271433D03*
X174892401Y-55775833D03*
X223990601Y-82649033D03*
X200444801Y-90548433D03*
%TO.N,col4*%
X194907601Y-28547033D03*
X224041401Y-83919033D03*
X203924601Y-55318633D03*
X219672601Y-93825033D03*
X192977201Y-60779633D03*
%TO.N,col5*%
X213195601Y-65300833D03*
X213297201Y-48155833D03*
X213271801Y-31061633D03*
X236919201Y-103121433D03*
%TO.N,col1r*%
X114249200Y-57327800D03*
X114808000Y-40335200D03*
X114655600Y-74168000D03*
X41249600Y-80010000D03*
%TO.N,col2r*%
X96494600Y-62382400D03*
X97104200Y-44983400D03*
X96723200Y-28092400D03*
X41249600Y-81356200D03*
X76327000Y-82854800D03*
%TO.N,col3r*%
X89814400Y-50063400D03*
X71602600Y-90398600D03*
X78968600Y-21463000D03*
X41249600Y-82397600D03*
X78765400Y-55448200D03*
%TO.N,col4r*%
X51790600Y-92100400D03*
X72212200Y-55194200D03*
X62865000Y-28371800D03*
X71729600Y-72440800D03*
%TO.N,col5r*%
X37973000Y-86131400D03*
X42976800Y-46075600D03*
X23571200Y-96748600D03*
X42773600Y-63169800D03*
X36906200Y-76530200D03*
X45008800Y-31267400D03*
X19837400Y-93370400D03*
%TD*%
D16*
%TO.N,gnd*%
X243751801Y-82497833D02*
X243751801Y-60096033D01*
X243751801Y-60096033D02*
X246380401Y-57467433D01*
%TO.N,reset*%
X241110201Y-60627233D02*
X241110201Y-86356233D01*
X241110201Y-86356233D02*
X243751801Y-88997833D01*
X231160401Y-54927433D02*
X235410401Y-54927433D01*
X235410401Y-54927433D02*
X241110201Y-60627233D01*
%TO.N,col1*%
X138697401Y-57071233D02*
X138697401Y-54709033D01*
X138697401Y-59814433D02*
X138697401Y-57071233D01*
X141585801Y-51820633D02*
X144514001Y-51820633D01*
X141491401Y-79575633D02*
X138824401Y-76908633D01*
X142500201Y-68914833D02*
X144514001Y-68914833D01*
X225523504Y-80481130D02*
X228280841Y-77723793D01*
X144514001Y-68914833D02*
X141389801Y-65790633D01*
X144539401Y-86034433D02*
X141491401Y-82986433D01*
X138824401Y-76908633D02*
X138824401Y-74495633D01*
X138824401Y-72590633D02*
X142500201Y-68914833D01*
X223939801Y-80481130D02*
X225523504Y-80481130D01*
X228280841Y-77723793D02*
X228280841Y-65426993D01*
X144514001Y-51820633D02*
X141237401Y-48544033D01*
X141389801Y-65790633D02*
X141389801Y-62506833D01*
X138697401Y-54709033D02*
X141585801Y-51820633D01*
X228280841Y-65426993D02*
X231160401Y-62547433D01*
X141491401Y-82986433D02*
X141491401Y-79575633D01*
X141237401Y-48544033D02*
X141237401Y-42237633D01*
X141389801Y-62506833D02*
X138697401Y-59814433D01*
X138824401Y-74495633D02*
X138824401Y-72590633D01*
%TO.N,col2*%
X157874401Y-42694833D02*
X166764401Y-42694833D01*
X165443601Y-35405033D02*
X165443601Y-32636433D01*
X160813601Y-56900633D02*
X162497201Y-56900633D01*
X157137801Y-43431433D02*
X157874401Y-42694833D01*
X162497201Y-56900633D02*
X160312801Y-54716233D01*
X156909201Y-62303633D02*
X156909201Y-60805033D01*
X228730361Y-67517473D02*
X231160401Y-65087433D01*
X157137801Y-45361833D02*
X157137801Y-43431433D01*
X162497201Y-74020233D02*
X159220601Y-70743633D01*
X165443601Y-32636433D02*
X162522601Y-29715433D01*
X168237601Y-38199033D02*
X165443601Y-35405033D01*
X168237601Y-39799233D02*
X168237601Y-38199033D01*
X225183683Y-81480633D02*
X228730361Y-77933955D01*
X159220601Y-70743633D02*
X159220601Y-67205833D01*
X228730361Y-77933955D02*
X228730361Y-67517473D01*
X162522601Y-29715433D02*
X162522601Y-27981033D01*
X157137801Y-48587633D02*
X157137801Y-45361833D01*
X156909201Y-64894433D02*
X156909201Y-62303633D01*
X160312801Y-51762633D02*
X157137801Y-48587633D01*
X156909201Y-60805033D02*
X160813601Y-56900633D01*
X168237601Y-41221633D02*
X168237601Y-39799233D01*
X160312801Y-54716233D02*
X160312801Y-51762633D01*
X159220601Y-67205833D02*
X156909201Y-64894433D01*
X223939801Y-81480633D02*
X225183683Y-81480633D01*
X166764401Y-42694833D02*
X168237601Y-41221633D01*
%TO.N,col3*%
X177864201Y-47375633D02*
X177864201Y-43990233D01*
X197193601Y-82649033D02*
X200444801Y-85900233D01*
X223990601Y-82649033D02*
X224651001Y-82649033D01*
X185331801Y-35455833D02*
X186576401Y-34211233D01*
X229179881Y-69607953D02*
X231160401Y-67627433D01*
X186576401Y-31645833D02*
X183630001Y-28699433D01*
X229179881Y-78120153D02*
X229179881Y-69607953D01*
X183630001Y-28699433D02*
X183630001Y-24221833D01*
X174841601Y-40967633D02*
X174841601Y-38275233D01*
X200444801Y-85900233D02*
X200444801Y-90548433D01*
X186576401Y-33271433D02*
X186576401Y-31645833D01*
X174892401Y-57452233D02*
X174892401Y-55775833D01*
X177356201Y-63987233D02*
X177356201Y-59916033D01*
X186576401Y-34211233D02*
X186576401Y-33271433D01*
X190894401Y-78051633D02*
X193579601Y-80736833D01*
X193579601Y-80736833D02*
X197193601Y-80736833D01*
X180505801Y-67136833D02*
X177356201Y-63987233D01*
X178771401Y-50017233D02*
X180505801Y-50017233D01*
X224651001Y-82649033D02*
X229179881Y-78120153D01*
X180505801Y-67136833D02*
X180505801Y-73835233D01*
X180505801Y-73835233D02*
X184722201Y-78051633D01*
X174892401Y-55775833D02*
X174892401Y-53896233D01*
X184722201Y-78051633D02*
X190894401Y-78051633D01*
X180505801Y-50017233D02*
X177864201Y-47375633D01*
X174892401Y-53896233D02*
X178771401Y-50017233D01*
X177356201Y-59916033D02*
X174892401Y-57452233D01*
X197193601Y-80736833D02*
X197193601Y-82649033D01*
X183630001Y-24221833D02*
X180531201Y-21123033D01*
X174841601Y-36878233D02*
X176264001Y-35455833D01*
X177864201Y-43990233D02*
X174841601Y-40967633D01*
X174841601Y-38275233D02*
X174841601Y-36878233D01*
X176264001Y-35455833D02*
X185331801Y-35455833D01*
%TO.N,col4*%
X218913633Y-83655671D02*
X218913633Y-86690665D01*
X203924601Y-55318633D02*
X203924601Y-56995033D01*
X194145601Y-58239633D02*
X192977201Y-59408033D01*
X192977201Y-60779633D02*
X192977201Y-62176633D01*
X202680001Y-58239633D02*
X194145601Y-58239633D01*
X207956001Y-81937833D02*
X208801401Y-81937833D01*
X198514401Y-43576633D02*
X198514401Y-45133233D01*
X198514401Y-45133233D02*
X201918001Y-48536833D01*
X218913633Y-86690665D02*
X220790201Y-88567233D01*
X198539801Y-38257033D02*
X196279201Y-35996433D01*
X194907601Y-33195233D02*
X194907601Y-28547033D01*
X198514401Y-72496233D02*
X207956001Y-81937833D01*
X203924601Y-53845433D02*
X203924601Y-55318633D01*
X208801401Y-81937833D02*
X210519239Y-83655671D01*
X196279201Y-35379633D02*
X196279201Y-34566833D01*
X203238801Y-53159633D02*
X203924601Y-53845433D01*
X198514401Y-70838033D02*
X198514401Y-72496233D01*
X201918001Y-52829433D02*
X202248201Y-53159633D01*
X201918001Y-48536833D02*
X201918001Y-52829433D01*
X210519239Y-83655671D02*
X218913633Y-83655671D01*
X229629401Y-78331033D02*
X229629401Y-71698433D01*
X194958401Y-33246033D02*
X194907601Y-33195233D01*
X192977201Y-59408033D02*
X192977201Y-60779633D01*
X224041401Y-83919033D02*
X229629401Y-78331033D01*
X198539801Y-43551233D02*
X198514401Y-43576633D01*
X196279201Y-34566833D02*
X194958401Y-33246033D01*
X192977201Y-62176633D02*
X195644201Y-64843633D01*
X229629401Y-71698433D02*
X231160401Y-70167433D01*
X220790201Y-92707433D02*
X219672601Y-93825033D01*
X220790201Y-88567233D02*
X220790201Y-92707433D01*
X198539801Y-38257033D02*
X198539801Y-43551233D01*
X203924601Y-56995033D02*
X202680001Y-58239633D01*
X195644201Y-67967833D02*
X198514401Y-70838033D01*
X195644201Y-64843633D02*
X195644201Y-67967833D01*
X196279201Y-35996433D02*
X196279201Y-35379633D01*
X202248201Y-53159633D02*
X203238801Y-53159633D01*
%TO.N,col5*%
X216548401Y-56233033D02*
X216548401Y-57942033D01*
X216548401Y-40822433D02*
X213271801Y-37545833D01*
X216548401Y-40822433D02*
X213297201Y-44073633D01*
X213297201Y-48155833D02*
X213297201Y-52981833D01*
X240660681Y-75714833D02*
X240660681Y-88762753D01*
X216548401Y-57942033D02*
X213195601Y-61294833D01*
X213271801Y-36268633D02*
X213271801Y-31061633D01*
X216548401Y-78102433D02*
X227851401Y-89405433D01*
X227851401Y-89405433D02*
X230924801Y-89405433D01*
X240660681Y-88762753D02*
X239871502Y-89551932D01*
X231160401Y-72707433D02*
X237653281Y-72707433D01*
X234727804Y-93208436D02*
X239871502Y-93208436D01*
X216548401Y-75061633D02*
X216548401Y-78102433D01*
X239871502Y-89551932D02*
X239871502Y-93208436D01*
X213297201Y-44073633D02*
X213297201Y-48155833D01*
X237757401Y-101165633D02*
X236919201Y-102003833D01*
X213195601Y-65300833D02*
X213195601Y-71708833D01*
X213195601Y-71708833D02*
X216548401Y-75061633D01*
X239871502Y-99051532D02*
X237757401Y-101165633D01*
X236919201Y-102003833D02*
X236919201Y-103121433D01*
X239871502Y-93208436D02*
X239871502Y-99051532D01*
X213271801Y-37545833D02*
X213271801Y-36268633D01*
X213297201Y-52981833D02*
X216548401Y-56233033D01*
X237653281Y-72707433D02*
X240660681Y-75714833D01*
X230924801Y-89405433D02*
X234727804Y-93208436D01*
X213195601Y-61294833D02*
X213195601Y-65300833D01*
%TO.N,col1r*%
X114249200Y-57327800D02*
X114249200Y-59283600D01*
X114655600Y-72542400D02*
X114655600Y-74168000D01*
X114249200Y-59283600D02*
X117271800Y-62306200D01*
X38074600Y-82346800D02*
X35382200Y-82346800D01*
X117119400Y-44475400D02*
X115011200Y-42367200D01*
X22834600Y-66535400D02*
X18722000Y-62422800D01*
X22834600Y-77419200D02*
X22834600Y-66535400D01*
X118331400Y-68866600D02*
X114655600Y-72542400D01*
X117271800Y-65742400D02*
X120396000Y-68866600D01*
X120396000Y-51874000D02*
X117119400Y-48597400D01*
X114249200Y-55499000D02*
X114249200Y-57327800D01*
X114808000Y-42164000D02*
X114808000Y-40335200D01*
X116941600Y-78613000D02*
X116941600Y-82404800D01*
X117874200Y-51874000D02*
X114249200Y-55499000D01*
X41249600Y-80010000D02*
X40411400Y-80010000D01*
X117271800Y-62306200D02*
X117271800Y-65742400D01*
X120396000Y-51874000D02*
X117874200Y-51874000D01*
X32740600Y-79705200D02*
X25120600Y-79705200D01*
X116941600Y-82404800D02*
X120396000Y-85859200D01*
X117119400Y-48597400D02*
X117119400Y-47269400D01*
X115011200Y-42367200D02*
X114808000Y-42164000D01*
X25120600Y-79705200D02*
X22834600Y-77419200D01*
X35382200Y-82346800D02*
X32740600Y-79705200D01*
X117119400Y-47269400D02*
X117119400Y-44475400D01*
X40411400Y-80010000D02*
X38074600Y-82346800D01*
X114655600Y-76327000D02*
X116941600Y-78613000D01*
X114655600Y-74168000D02*
X114655600Y-76327000D01*
X120396000Y-68866600D02*
X118331400Y-68866600D01*
%TO.N,col2r*%
X99085400Y-33197800D02*
X96672400Y-30784800D01*
X96494600Y-60960000D02*
X96494600Y-62382400D01*
X96494600Y-62382400D02*
X96494600Y-64312800D01*
X96494600Y-64312800D02*
X99339400Y-67157600D01*
X102387400Y-38150800D02*
X99085400Y-34848800D01*
X76352400Y-82829400D02*
X76352400Y-77089000D01*
X76352400Y-77089000D02*
X79545600Y-73895800D01*
X102387400Y-39834400D02*
X102387400Y-38150800D01*
X100399000Y-39834400D02*
X97104200Y-43129200D01*
X99339400Y-67157600D02*
X99339400Y-70822400D01*
X39928800Y-81356200D02*
X38277800Y-83007200D01*
X97104200Y-43129200D02*
X97104200Y-44983400D01*
X102387400Y-56877800D02*
X100576800Y-56877800D01*
X97104200Y-44983400D02*
X97104200Y-48310800D01*
X32613600Y-80340200D02*
X25044400Y-80340200D01*
X99364800Y-50571400D02*
X99364800Y-53855200D01*
X25044400Y-80340200D02*
X22377400Y-77673200D01*
X38277800Y-83007200D02*
X35280600Y-83007200D01*
X35280600Y-83007200D02*
X32613600Y-80340200D01*
X99364800Y-53855200D02*
X102387400Y-56877800D01*
X100576800Y-56877800D02*
X96494600Y-60960000D01*
X97104200Y-48310800D02*
X99364800Y-50571400D01*
X96672400Y-30784800D02*
X96672400Y-28143200D01*
X102387400Y-39834400D02*
X100399000Y-39834400D01*
X41249600Y-81356200D02*
X39928800Y-81356200D01*
X99339400Y-70822400D02*
X102412800Y-73895800D01*
X79545600Y-73895800D02*
X102412800Y-73895800D01*
X96672400Y-28143200D02*
X96723200Y-28092400D01*
X76327000Y-82854800D02*
X76352400Y-82829400D01*
X99085400Y-34848800D02*
X99085400Y-33197800D01*
X22377400Y-77673200D02*
X22377400Y-68618200D01*
X22377400Y-68618200D02*
X18722000Y-64962800D01*
%TO.N,col3r*%
X69298400Y-80510800D02*
X68072000Y-80510800D01*
X81356200Y-59766200D02*
X81356200Y-63989800D01*
X32486600Y-80873600D02*
X24892000Y-80873600D01*
X38853599Y-83489800D02*
X35102800Y-83489800D01*
X81000600Y-29623600D02*
X81000600Y-28194000D01*
X39945799Y-82397600D02*
X38853599Y-83489800D01*
X90416800Y-38219800D02*
X91973400Y-39776400D01*
X89814400Y-48031400D02*
X89814400Y-50063400D01*
X78765400Y-54000400D02*
X78765400Y-55448200D01*
X24892000Y-80873600D02*
X21869400Y-77851000D01*
X78765400Y-57175400D02*
X81356200Y-59766200D01*
X91973400Y-39776400D02*
X91973400Y-40868600D01*
X21869400Y-77851000D02*
X21869400Y-70650200D01*
X68072000Y-81965800D02*
X71602600Y-85496400D01*
X71602600Y-85496400D02*
X71602600Y-90398600D01*
X35102800Y-83489800D02*
X32486600Y-80873600D01*
X89814400Y-50063400D02*
X89814400Y-51841400D01*
X41249600Y-82397600D02*
X39945799Y-82397600D01*
X84378800Y-67012400D02*
X82796800Y-67012400D01*
X79070200Y-23901400D02*
X78968600Y-23799800D01*
X81000600Y-25831800D02*
X79070200Y-23901400D01*
X84353400Y-38219800D02*
X90416800Y-38219800D01*
X91541600Y-46304200D02*
X89814400Y-48031400D01*
X78765400Y-55448200D02*
X78765400Y-57175400D01*
X81356200Y-63989800D02*
X84378800Y-67012400D01*
X84378800Y-33001800D02*
X81000600Y-29623600D01*
X81000600Y-28194000D02*
X81000600Y-25831800D01*
X82796800Y-67012400D02*
X69298400Y-80510800D01*
X89814400Y-51841400D02*
X89001600Y-52654200D01*
X84378800Y-38194400D02*
X84353400Y-38219800D01*
X84378800Y-33001800D02*
X84378800Y-38194400D01*
X91973400Y-40868600D02*
X91541600Y-41300400D01*
X21869400Y-70650200D02*
X18722000Y-67502800D01*
X89001600Y-52654200D02*
X80111600Y-52654200D01*
X91541600Y-41300400D02*
X91541600Y-46304200D01*
X68072000Y-80510800D02*
X68072000Y-81965800D01*
X78968600Y-23799800D02*
X78968600Y-21463000D01*
X80111600Y-52654200D02*
X78765400Y-54000400D01*
%TO.N,col4r*%
X72212200Y-55194200D02*
X72212200Y-57810400D01*
X72212200Y-57810400D02*
X69501600Y-60521000D01*
X46250368Y-83455038D02*
X51790600Y-88995270D01*
X66344800Y-36779200D02*
X63068200Y-33502600D01*
X21005800Y-72326600D02*
X18722000Y-70042800D01*
X72212200Y-53136800D02*
X72212200Y-55194200D01*
X71729600Y-72440800D02*
X71729600Y-73787000D01*
X24561800Y-81737200D02*
X21005800Y-78181200D01*
X66344800Y-38259600D02*
X66344800Y-36779200D01*
X60731400Y-76174600D02*
X58826400Y-78079600D01*
X57531000Y-81838800D02*
X49834800Y-81838800D01*
X69342000Y-76174600D02*
X60731400Y-76174600D01*
X48218562Y-83455038D02*
X46250368Y-83455038D01*
X66344800Y-62306200D02*
X69291200Y-65252600D01*
X69291200Y-68148200D02*
X71729600Y-70586600D01*
X38989000Y-84861400D02*
X35636200Y-84861400D01*
X71729600Y-70586600D02*
X71729600Y-72440800D01*
X73609200Y-51739800D02*
X72212200Y-53136800D01*
X63068200Y-33502600D02*
X62890400Y-33324800D01*
X58826400Y-78079600D02*
X58826400Y-80543400D01*
X32512000Y-81737200D02*
X24561800Y-81737200D01*
X62890400Y-30226000D02*
X62890400Y-28397200D01*
X69291200Y-65252600D02*
X69291200Y-68148200D01*
X66344800Y-38259600D02*
X66344800Y-43528400D01*
X62890400Y-28397200D02*
X62865000Y-28371800D01*
X58826400Y-80543400D02*
X57531000Y-81838800D01*
X73609200Y-44831000D02*
X73609200Y-51739800D01*
X62890400Y-33324800D02*
X62890400Y-30226000D01*
X72306600Y-43528400D02*
X73609200Y-44831000D01*
X69501600Y-60521000D02*
X66344800Y-60521000D01*
X46250368Y-83455038D02*
X40395362Y-83455038D01*
X66344800Y-43528400D02*
X72306600Y-43528400D01*
X40395362Y-83455038D02*
X38989000Y-84861400D01*
X35636200Y-84861400D02*
X32512000Y-81737200D01*
X49834800Y-81838800D02*
X48218562Y-83455038D01*
X51790600Y-88995270D02*
X51790600Y-92100400D01*
X21005800Y-78181200D02*
X21005800Y-72326600D01*
X66344800Y-60521000D02*
X66344800Y-62306200D01*
X71729600Y-73787000D02*
X69342000Y-76174600D01*
%TO.N,col5r*%
X19837400Y-93370400D02*
X19761200Y-93370400D01*
X28067000Y-101244400D02*
X23571200Y-96748600D01*
X45364400Y-51409600D02*
X45364400Y-54871200D01*
X44983400Y-37497600D02*
X44983400Y-36322000D01*
X46271600Y-57843000D02*
X42773600Y-61341000D01*
X48336200Y-40850400D02*
X44983400Y-37497600D01*
X44983400Y-31292800D02*
X45008800Y-31267400D01*
X42773600Y-63169800D02*
X42773600Y-65354200D01*
X44983400Y-36322000D02*
X44983400Y-31292800D01*
X37973000Y-86131400D02*
X37973000Y-96740564D01*
X20167600Y-79197200D02*
X20167600Y-74028400D01*
X18770600Y-92379800D02*
X18770600Y-80594200D01*
X42773600Y-61341000D02*
X42773600Y-63169800D01*
X19761200Y-93370400D02*
X18770600Y-92379800D01*
X48336200Y-40850400D02*
X46220800Y-40850400D01*
X18770600Y-80594200D02*
X20167600Y-79197200D01*
X38575400Y-74861000D02*
X36906200Y-76530200D01*
X45008800Y-71559000D02*
X48310800Y-74861000D01*
X42976800Y-49022000D02*
X45364400Y-51409600D01*
X48336200Y-57843000D02*
X46271600Y-57843000D01*
X48310800Y-74861000D02*
X38575400Y-74861000D01*
X46220800Y-40850400D02*
X42976800Y-44094400D01*
X31968637Y-102744927D02*
X29567527Y-102744927D01*
X42773600Y-65354200D02*
X45008800Y-67589400D01*
X45364400Y-54871200D02*
X48336200Y-57843000D01*
X37973000Y-96740564D02*
X31968637Y-102744927D01*
X45008800Y-67589400D02*
X45008800Y-71559000D01*
X29567527Y-102744927D02*
X28067000Y-101244400D01*
X42976800Y-44094400D02*
X42976800Y-46075600D01*
X42976800Y-46075600D02*
X42976800Y-49022000D01*
X20167600Y-74028400D02*
X18722000Y-72582800D01*
%TD*%
M02*
