%TF.GenerationSoftware,KiCad,Pcbnew,(6.0.5-0)*%
%TF.CreationDate,2022-06-22T19:02:17-07:00*%
%TF.ProjectId,Swept_3x5,53776570-745f-4337-9835-2e6b69636164,rev?*%
%TF.SameCoordinates,Original*%
%TF.FileFunction,Copper,L1,Top*%
%TF.FilePolarity,Positive*%
%FSLAX46Y46*%
G04 Gerber Fmt 4.6, Leading zero omitted, Abs format (unit mm)*
G04 Created by KiCad (PCBNEW (6.0.5-0)) date 2022-06-22 19:02:17*
%MOMM*%
%LPD*%
G01*
G04 APERTURE LIST*
%TA.AperFunction,ComponentPad*%
%ADD10C,1.524000*%
%TD*%
%TA.AperFunction,ComponentPad*%
%ADD11C,2.282000*%
%TD*%
%TA.AperFunction,ComponentPad*%
%ADD12C,2.000000*%
%TD*%
%TA.AperFunction,ComponentPad*%
%ADD13C,4.400000*%
%TD*%
%TA.AperFunction,ComponentPad*%
%ADD14C,1.397000*%
%TD*%
%TA.AperFunction,ViaPad*%
%ADD15C,0.800000*%
%TD*%
%TA.AperFunction,Conductor*%
%ADD16C,0.250000*%
%TD*%
G04 APERTURE END LIST*
D10*
%TO.P,U1,1,TX*%
%TO.N,unconnected-(U1-Pad1)*%
X243606600Y-50094000D03*
%TO.P,U1,2,RX*%
%TO.N,unconnected-(U1-Pad2)*%
X243606600Y-52634000D03*
%TO.P,U1,3,GND*%
%TO.N,gnd*%
X243606600Y-55174000D03*
%TO.P,U1,4,GND*%
X243606600Y-57714000D03*
%TO.P,U1,5,SDA*%
%TO.N,unconnected-(U1-Pad5)*%
X243606600Y-60254000D03*
%TO.P,U1,6,SCL*%
%TO.N,unconnected-(U1-Pad6)*%
X243606600Y-62794000D03*
%TO.P,U1,7,D4*%
%TO.N,row_0*%
X243606600Y-65334000D03*
%TO.P,U1,8,C6*%
%TO.N,row_1*%
X243606600Y-67874000D03*
%TO.P,U1,9,D7*%
%TO.N,row_2*%
X243606600Y-70414000D03*
%TO.P,U1,10,E6*%
%TO.N,row_3*%
X243606600Y-72954000D03*
%TO.P,U1,11,B4*%
%TO.N,unconnected-(U1-Pad11)*%
X243606600Y-75494000D03*
%TO.P,U1,12,B5*%
%TO.N,unconnected-(U1-Pad12)*%
X243606600Y-78034000D03*
%TO.P,U1,13,B6*%
%TO.N,unconnected-(U1-Pad13)*%
X228386600Y-78034000D03*
%TO.P,U1,14,B2*%
%TO.N,unconnected-(U1-Pad14)*%
X228386600Y-75494000D03*
%TO.P,U1,15,B3*%
%TO.N,col5*%
X228386600Y-72954000D03*
%TO.P,U1,16,B1*%
%TO.N,col4*%
X228386600Y-70414000D03*
%TO.P,U1,17,F7*%
%TO.N,col3*%
X228386600Y-67874000D03*
%TO.P,U1,18,F6*%
%TO.N,col2*%
X228386600Y-65334000D03*
%TO.P,U1,19,F5*%
%TO.N,col1*%
X228386600Y-62794000D03*
%TO.P,U1,20,F4*%
%TO.N,unconnected-(U1-Pad20)*%
X228386600Y-60254000D03*
%TO.P,U1,21,VCC*%
%TO.N,vcc*%
X228386600Y-57714000D03*
%TO.P,U1,22,RST*%
%TO.N,reset*%
X228386600Y-55174000D03*
%TO.P,U1,23,GND*%
%TO.N,gnd*%
X228386600Y-52634000D03*
%TO.P,U1,24,RAW*%
%TO.N,raw*%
X228386600Y-50094000D03*
%TD*%
D11*
%TO.P,SW16,1,1*%
%TO.N,col2*%
X159723400Y-74266800D03*
%TO.P,SW16,2,2*%
%TO.N,Net-(D14-Pad2)*%
X154723400Y-72166800D03*
%TD*%
%TO.P,SW20,1,1*%
%TO.N,col3*%
X194419800Y-80983400D03*
%TO.P,SW20,2,2*%
%TO.N,Net-(D18-Pad2)*%
X199419800Y-83083400D03*
%TD*%
%TO.P,SW15,1,1*%
%TO.N,col1*%
X141765600Y-86281000D03*
%TO.P,SW15,2,2*%
%TO.N,Net-(D13-Pad2)*%
X136765600Y-84181000D03*
%TD*%
%TO.P,SW21,1,1*%
%TO.N,col4*%
X216139832Y-83902238D03*
%TO.P,SW21,2,2*%
%TO.N,Net-(D19-Pad2)*%
X220425942Y-87224777D03*
%TD*%
%TO.P,SW17,1,1*%
%TO.N,col3*%
X177732000Y-67383400D03*
%TO.P,SW17,2,2*%
%TO.N,Net-(D15-Pad2)*%
X172732000Y-65283400D03*
%TD*%
%TO.P,SW18,1,1*%
%TO.N,col4*%
X195740600Y-72742800D03*
%TO.P,SW18,2,2*%
%TO.N,Net-(D16-Pad2)*%
X190740600Y-70642800D03*
%TD*%
%TO.P,SW4,1,1*%
%TO.N,col2*%
X159748800Y-40027600D03*
%TO.P,SW4,2,2*%
%TO.N,Net-(D2-Pad2)*%
X154748800Y-37927600D03*
%TD*%
%TO.P,SW3,1,1*%
%TO.N,col1*%
X141740200Y-52067200D03*
%TO.P,SW3,2,2*%
%TO.N,Net-(D1-Pad2)*%
X136740200Y-49967200D03*
%TD*%
%TO.P,SW9,1,1*%
%TO.N,col1*%
X141740200Y-69161400D03*
%TO.P,SW9,2,2*%
%TO.N,Net-(D7-Pad2)*%
X136740200Y-67061400D03*
%TD*%
%TO.P,SW12,1,1*%
%TO.N,col4*%
X195740600Y-55623200D03*
%TO.P,SW12,2,2*%
%TO.N,Net-(D10-Pad2)*%
X190740600Y-53523200D03*
%TD*%
%TO.P,SW11,1,1*%
%TO.N,col3*%
X177732000Y-50263800D03*
%TO.P,SW11,2,2*%
%TO.N,Net-(D9-Pad2)*%
X172732000Y-48163800D03*
%TD*%
%TO.P,SW6,1,1*%
%TO.N,col4*%
X195766000Y-38503600D03*
%TO.P,SW6,2,2*%
%TO.N,Net-(D4-Pad2)*%
X190766000Y-36403600D03*
%TD*%
%TO.P,SW5,1,1*%
%TO.N,col3*%
X177757400Y-33169600D03*
%TO.P,SW5,2,2*%
%TO.N,Net-(D3-Pad2)*%
X172757400Y-31069600D03*
%TD*%
D12*
%TO.P,RSW1,1,1*%
%TO.N,gnd*%
X240978000Y-82744400D03*
%TO.P,RSW1,2,2*%
%TO.N,reset*%
X240978000Y-89244400D03*
%TD*%
D11*
%TO.P,SW10,1,1*%
%TO.N,col2*%
X159723400Y-57147200D03*
%TO.P,SW10,2,2*%
%TO.N,Net-(D8-Pad2)*%
X154723400Y-55047200D03*
%TD*%
D13*
%TO.P,REF\u002A\u002A,1*%
%TO.N,N/C*%
X206298800Y-43180000D03*
X168198800Y-43180000D03*
X187248800Y-24130000D03*
X187248800Y-62230000D03*
%TD*%
D10*
%TO.P,U2,1,TX*%
%TO.N,unconnected-(U2-Pad1)*%
X33942000Y-49722800D03*
%TO.P,U2,2,RX*%
%TO.N,unconnected-(U2-Pad2)*%
X33942000Y-52262800D03*
%TO.P,U2,3,GND*%
%TO.N,gnd_r*%
X33942000Y-54802800D03*
%TO.P,U2,4,GND*%
X33942000Y-57342800D03*
%TO.P,U2,5,SDA*%
%TO.N,unconnected-(U2-Pad5)*%
X33942000Y-59882800D03*
%TO.P,U2,6,SCL*%
%TO.N,unconnected-(U2-Pad6)*%
X33942000Y-62422800D03*
%TO.P,U2,7,D4*%
%TO.N,row_0r*%
X33942000Y-64962800D03*
%TO.P,U2,8,C6*%
%TO.N,row_1r*%
X33942000Y-67502800D03*
%TO.P,U2,9,D7*%
%TO.N,row_2r*%
X33942000Y-70042800D03*
%TO.P,U2,10,E6*%
%TO.N,row_3r*%
X33942000Y-72582800D03*
%TO.P,U2,11,B4*%
%TO.N,unconnected-(U2-Pad11)*%
X33942000Y-75122800D03*
%TO.P,U2,12,B5*%
%TO.N,unconnected-(U2-Pad12)*%
X33942000Y-77662800D03*
%TO.P,U2,13,B6*%
%TO.N,unconnected-(U2-Pad13)*%
X18722000Y-77662800D03*
%TO.P,U2,14,B2*%
%TO.N,unconnected-(U2-Pad14)*%
X18722000Y-75122800D03*
%TO.P,U2,15,B3*%
%TO.N,col5r*%
X18722000Y-72582800D03*
%TO.P,U2,16,B1*%
%TO.N,col4r*%
X18722000Y-70042800D03*
%TO.P,U2,17,F7*%
%TO.N,col3r*%
X18722000Y-67502800D03*
%TO.P,U2,18,F6*%
%TO.N,col2r*%
X18722000Y-64962800D03*
%TO.P,U2,19,F5*%
%TO.N,col1r*%
X18722000Y-62422800D03*
%TO.P,U2,20,F4*%
%TO.N,unconnected-(U2-Pad20)*%
X18722000Y-59882800D03*
%TO.P,U2,21,VCC*%
%TO.N,vcc_r*%
X18722000Y-57342800D03*
%TO.P,U2,22,RST*%
%TO.N,reset_r*%
X18722000Y-54802800D03*
%TO.P,U2,23,GND*%
%TO.N,gnd_r*%
X18722000Y-52262800D03*
%TO.P,U2,24,RAW*%
%TO.N,raw_r*%
X18722000Y-49722800D03*
%TD*%
D11*
%TO.P,SW17_r1,1,1*%
%TO.N,col3r*%
X84378800Y-67012400D03*
%TO.P,SW17_r1,2,2*%
%TO.N,Net-(Dr15-Pad2)*%
X79378800Y-64912400D03*
%TD*%
%TO.P,SW11_r1,1,1*%
%TO.N,col3r*%
X84353400Y-50019800D03*
%TO.P,SW11_r1,2,2*%
%TO.N,Net-(Dr9-Pad2)*%
X79353400Y-47919800D03*
%TD*%
%TO.P,SW15_r1,1,1*%
%TO.N,col1r*%
X120396000Y-85859200D03*
%TO.P,SW15_r1,2,2*%
%TO.N,Net-(Dr13-Pad2)*%
X115396000Y-83759200D03*
%TD*%
%TO.P,SW18_r1,1,1*%
%TO.N,col4r*%
X66344800Y-72321000D03*
%TO.P,SW18_r1,2,2*%
%TO.N,Net-(Dr16-Pad2)*%
X61344800Y-70221000D03*
%TD*%
%TO.P,SW6_r1,1,1*%
%TO.N,col4r*%
X66344800Y-38259600D03*
%TO.P,SW6_r1,2,2*%
%TO.N,Net-(Dr4-Pad2)*%
X61344800Y-36159600D03*
%TD*%
%TO.P,SW5_r1,1,1*%
%TO.N,col3r*%
X84378800Y-33001800D03*
%TO.P,SW5_r1,2,2*%
%TO.N,Net-(Dr3-Pad2)*%
X79378800Y-30901800D03*
%TD*%
%TO.P,SW16_r1,1,1*%
%TO.N,col2r*%
X102412800Y-73895800D03*
%TO.P,SW16_r1,2,2*%
%TO.N,Net-(Dr14-Pad2)*%
X97412800Y-71795800D03*
%TD*%
%TO.P,SW4_r1,1,1*%
%TO.N,col2r*%
X102387400Y-39834400D03*
%TO.P,SW4_r1,2,2*%
%TO.N,Net-(Dr2-Pad2)*%
X97387400Y-37734400D03*
%TD*%
%TO.P,SW13_r1,1,1*%
%TO.N,col5r*%
X48336200Y-57843000D03*
%TO.P,SW13_r1,2,2*%
%TO.N,Net-(Dr11-Pad2)*%
X43336200Y-55743000D03*
%TD*%
%TO.P,SW12_r1,1,1*%
%TO.N,col4r*%
X66344800Y-55328400D03*
%TO.P,SW12_r1,2,2*%
%TO.N,Net-(Dr10-Pad2)*%
X61344800Y-53228400D03*
%TD*%
%TO.P,SW3_r1,1,1*%
%TO.N,col1r*%
X120396000Y-51874000D03*
%TO.P,SW3_r1,2,2*%
%TO.N,Net-(Dr1-Pad2)*%
X115396000Y-49774000D03*
%TD*%
%TO.P,SW21_r1,1,1*%
%TO.N,col4r*%
X46250368Y-83455038D03*
%TO.P,SW21_r1,2,2*%
%TO.N,Net-(Dr19-Pad2)*%
X51623517Y-84189387D03*
%TD*%
%TO.P,SW9_r1,1,1*%
%TO.N,col1r*%
X120396000Y-68866600D03*
%TO.P,SW9_r1,2,2*%
%TO.N,Net-(Dr7-Pad2)*%
X115396000Y-66766600D03*
%TD*%
%TO.P,SW20_r1,1,1*%
%TO.N,col3r*%
X68072000Y-80510800D03*
%TO.P,SW20_r1,2,2*%
%TO.N,Net-(Dr18-Pad2)*%
X73072000Y-82610800D03*
%TD*%
%TO.P,SW7_r1,1,1*%
%TO.N,col5r*%
X48336200Y-40850400D03*
%TO.P,SW7_r1,2,2*%
%TO.N,Net-(Dr5-Pad2)*%
X43336200Y-38750400D03*
%TD*%
D13*
%TO.P,REF\u002A\u002A,1*%
%TO.N,N/C*%
X94407400Y-42878400D03*
X56307400Y-42878400D03*
X75357400Y-61928400D03*
X75357400Y-23828400D03*
%TD*%
D12*
%TO.P,RSW2,1,1*%
%TO.N,gnd_r*%
X21285200Y-88721000D03*
%TO.P,RSW2,2,2*%
%TO.N,reset_r*%
X21285200Y-82221000D03*
%TD*%
D11*
%TO.P,SW13,1,1*%
%TO.N,col5*%
X213774600Y-58188600D03*
%TO.P,SW13,2,2*%
%TO.N,Net-(D11-Pad2)*%
X208774600Y-56088600D03*
%TD*%
%TO.P,SW22,1,1*%
%TO.N,col5*%
X237097701Y-93455003D03*
%TO.P,SW22,2,2*%
%TO.N,Net-(D20-Pad2)*%
X239988951Y-98043104D03*
%TD*%
%TO.P,SW19,1,1*%
%TO.N,col5*%
X213774600Y-75308200D03*
%TO.P,SW19,2,2*%
%TO.N,Net-(D17-Pad2)*%
X208774600Y-73208200D03*
%TD*%
%TO.P,SW19_r1,1,1*%
%TO.N,col5r*%
X48310800Y-74861000D03*
%TO.P,SW19_r1,2,2*%
%TO.N,Net-(Dr17-Pad2)*%
X43310800Y-72761000D03*
%TD*%
D14*
%TO.P,+,1,1*%
%TO.N,BT+*%
X229802000Y-47640400D03*
%TD*%
D11*
%TO.P,SW10_r1,1,1*%
%TO.N,col2r*%
X102387400Y-56877800D03*
%TO.P,SW10_r1,2,2*%
%TO.N,Net-(Dr8-Pad2)*%
X97387400Y-54777800D03*
%TD*%
%TO.P,SW22_r1,1,1*%
%TO.N,col5r*%
X25200435Y-93078933D03*
%TO.P,SW22_r1,2,2*%
%TO.N,Net-(Dr20-Pad2)*%
X30500706Y-91931270D03*
%TD*%
D14*
%TO.P,-,1,1*%
%TO.N,gnd*%
X241943200Y-47691200D03*
%TD*%
%TO.P,+,1,1*%
%TO.N,BT+_r*%
X20040600Y-47574200D03*
%TD*%
D11*
%TO.P,SW7,1,1*%
%TO.N,col5*%
X213774600Y-41069000D03*
%TO.P,SW7,2,2*%
%TO.N,Net-(D5-Pad2)*%
X208774600Y-38969000D03*
%TD*%
D14*
%TO.P,-,1,1*%
%TO.N,gnd_r*%
X32207200Y-47625000D03*
%TD*%
D15*
%TO.N,col1*%
X217178200Y-79314200D03*
X180119600Y-80812800D03*
%TO.N,col2*%
X218473600Y-80177800D03*
%TO.N,col3*%
X219337200Y-81498600D03*
%TO.N,col4*%
X220327800Y-82540000D03*
%TO.N,row_0r*%
X81534000Y-33172400D03*
X81534000Y-28168600D03*
X45389800Y-36042600D03*
X45389800Y-41173400D03*
%TO.N,col1r*%
X77241400Y-77038200D03*
X41122600Y-79883000D03*
%TO.N,col2r*%
X40411400Y-81051400D03*
%TO.N,col3r*%
X39039800Y-81889600D03*
%TO.N,col4r*%
X36779200Y-83464400D03*
%TD*%
D16*
%TO.N,gnd*%
X240978000Y-82744400D02*
X240978000Y-60342600D01*
X240978000Y-60342600D02*
X243606600Y-57714000D01*
%TO.N,reset*%
X238336400Y-60873800D02*
X238336400Y-86602800D01*
X238336400Y-86602800D02*
X240978000Y-89244400D01*
X228386600Y-55174000D02*
X232636600Y-55174000D01*
X232636600Y-55174000D02*
X238336400Y-60873800D01*
%TO.N,col1*%
X144915200Y-76088400D02*
X144915200Y-83131400D01*
X141765600Y-86281000D02*
X174651400Y-86281000D01*
X220378600Y-79060200D02*
X222283600Y-77155200D01*
X145220000Y-65681600D02*
X141740200Y-69161400D01*
X174651400Y-86281000D02*
X180119600Y-80812800D01*
X217432200Y-79060200D02*
X220378600Y-79060200D01*
X141740200Y-52067200D02*
X141740200Y-55235000D01*
X224950600Y-69306600D02*
X224950600Y-66230000D01*
X144915200Y-83131400D02*
X141765600Y-86281000D01*
X145220000Y-58714800D02*
X145220000Y-65681600D01*
X222283600Y-77155200D02*
X222283600Y-71973600D01*
X141740200Y-72913400D02*
X144915200Y-76088400D01*
X141740200Y-55235000D02*
X145220000Y-58714800D01*
X222283600Y-71973600D02*
X224950600Y-69306600D01*
X141740200Y-69161400D02*
X141740200Y-72913400D01*
X224950600Y-66230000D02*
X228386600Y-62794000D01*
X217178200Y-79314200D02*
X217432200Y-79060200D01*
%TO.N,col2*%
X159748800Y-40180000D02*
X160236800Y-40180000D01*
X218473600Y-80177800D02*
X221572400Y-80177800D01*
X159723400Y-60619800D02*
X162822200Y-63718600D01*
X163177800Y-53692800D02*
X159723400Y-57147200D01*
X159723400Y-57147200D02*
X159723400Y-60619800D01*
X223350400Y-72380000D02*
X225865000Y-69865400D01*
X225865000Y-69865400D02*
X225865000Y-67855600D01*
X225865000Y-67855600D02*
X228386600Y-65334000D01*
X162822200Y-71168000D02*
X159723400Y-74266800D01*
X162822200Y-63718600D02*
X162822200Y-71168000D01*
X159748800Y-40027600D02*
X159748800Y-43424000D01*
X159748800Y-43424000D02*
X163177800Y-46853000D01*
X223350400Y-78399800D02*
X223350400Y-72380000D01*
X221572400Y-80177800D02*
X223350400Y-78399800D01*
X163177800Y-46853000D02*
X163177800Y-53692800D01*
%TO.N,col3*%
X221547000Y-81498600D02*
X224087000Y-78958600D01*
X183693800Y-80983400D02*
X194419800Y-80983400D01*
X224087000Y-78958600D02*
X224087000Y-72862600D01*
X180932400Y-56936800D02*
X180932400Y-64183000D01*
X180754600Y-47241200D02*
X177732000Y-50263800D01*
X226703200Y-70246400D02*
X226728600Y-70246400D01*
X219337200Y-81498600D02*
X221547000Y-81498600D01*
X226728600Y-70246400D02*
X226728600Y-69532000D01*
X177732000Y-67383400D02*
X177732000Y-75021600D01*
X226728600Y-69532000D02*
X228386600Y-67874000D01*
X180754600Y-39791800D02*
X180754600Y-47241200D01*
X177757400Y-33169600D02*
X177757400Y-36794600D01*
X177732000Y-53736400D02*
X180932400Y-56936800D01*
X177732000Y-50263800D02*
X177732000Y-53736400D01*
X180932400Y-64183000D02*
X177732000Y-67383400D01*
X177757400Y-36794600D02*
X180754600Y-39791800D01*
X177732000Y-75021600D02*
X183693800Y-80983400D01*
X224087000Y-72862600D02*
X226703200Y-70246400D01*
%TO.N,col4*%
X220327800Y-82540000D02*
X222105800Y-82540000D01*
X226754000Y-71414800D02*
X227385800Y-71414800D01*
X198839400Y-62474000D02*
X198839400Y-69644000D01*
X195766000Y-41925400D02*
X198966400Y-45125800D01*
X224849000Y-73319800D02*
X226754000Y-71414800D01*
X224849000Y-79796800D02*
X224849000Y-73319800D01*
X227385800Y-71414800D02*
X228386600Y-70414000D01*
X195740600Y-59375200D02*
X198839400Y-62474000D01*
X195766000Y-38503600D02*
X195766000Y-41925400D01*
X222105800Y-82540000D02*
X224849000Y-79796800D01*
X198966400Y-52397400D02*
X195740600Y-55623200D01*
X202693000Y-79695200D02*
X211932794Y-79695200D01*
X195740600Y-55623200D02*
X195740600Y-59375200D01*
X198839400Y-69644000D02*
X195740600Y-72742800D01*
X198966400Y-45125800D02*
X198966400Y-52397400D01*
X195740600Y-72742800D02*
X202693000Y-79695200D01*
X211932794Y-79695200D02*
X216139832Y-83902238D01*
%TO.N,col5*%
X216670200Y-65039400D02*
X216670200Y-72412600D01*
X237097701Y-91766101D02*
X225712600Y-80381000D01*
X213774600Y-58188600D02*
X213774600Y-62143800D01*
X229744203Y-93455003D02*
X237097701Y-93455003D01*
X216670200Y-72412600D02*
X213774600Y-75308200D01*
X217203600Y-54759600D02*
X213774600Y-58188600D01*
X213774600Y-62143800D02*
X216670200Y-65039400D01*
X217203600Y-47691200D02*
X217203600Y-54759600D01*
X225712600Y-74488200D02*
X227246800Y-72954000D01*
X213774600Y-41069000D02*
X213774600Y-44262200D01*
X213774600Y-77485400D02*
X229744203Y-93455003D01*
X213774600Y-44262200D02*
X217203600Y-47691200D01*
X225712600Y-80381000D02*
X225712600Y-74488200D01*
X227246800Y-72954000D02*
X228386600Y-72954000D01*
X213774600Y-75308200D02*
X213774600Y-77485400D01*
X237097701Y-93455003D02*
X237097701Y-91766101D01*
%TO.N,row_0r*%
X45389800Y-36042600D02*
X45389800Y-41173400D01*
X81534000Y-28168600D02*
X81534000Y-33172400D01*
%TO.N,col1r*%
X81076800Y-82702400D02*
X77241400Y-78867000D01*
X84233600Y-85859200D02*
X81076800Y-82702400D01*
X41122600Y-79883000D02*
X37338000Y-79883000D01*
X120396000Y-73583800D02*
X123342400Y-76530200D01*
X123342400Y-82912800D02*
X120396000Y-85859200D01*
X21615400Y-65316200D02*
X18722000Y-62422800D01*
X123342400Y-76530200D02*
X123342400Y-82912800D01*
X28778200Y-75438000D02*
X21615400Y-68275200D01*
X77241400Y-78867000D02*
X77241400Y-77038200D01*
X37338000Y-79883000D02*
X36499800Y-80721200D01*
X120396000Y-85859200D02*
X84233600Y-85859200D01*
X123723400Y-59893200D02*
X123723400Y-65539200D01*
X36499800Y-80721200D02*
X30251400Y-80721200D01*
X30251400Y-80721200D02*
X28778200Y-79248000D01*
X120396000Y-68866600D02*
X120396000Y-73583800D01*
X123723400Y-65539200D02*
X120396000Y-68866600D01*
X21615400Y-68275200D02*
X21615400Y-65316200D01*
X120396000Y-51874000D02*
X120396000Y-56565800D01*
X120396000Y-56565800D02*
X123723400Y-59893200D01*
X28778200Y-79248000D02*
X28778200Y-75438000D01*
%TO.N,col2r*%
X20675600Y-66916400D02*
X20675600Y-68630800D01*
X102387400Y-56877800D02*
X102387400Y-62128400D01*
X105359200Y-53906000D02*
X102387400Y-56877800D01*
X40259000Y-80899000D02*
X40411400Y-81051400D01*
X28016200Y-79654400D02*
X29972000Y-81610200D01*
X29972000Y-81610200D02*
X36753800Y-81610200D01*
X18722000Y-64962800D02*
X20675600Y-66916400D01*
X37465000Y-80899000D02*
X40259000Y-80899000D01*
X28016200Y-75971400D02*
X28016200Y-79654400D01*
X101543099Y-40714701D02*
X102379400Y-39878400D01*
X102387400Y-39834400D02*
X102387400Y-45415200D01*
X102387400Y-45415200D02*
X105359200Y-48387000D01*
X20675600Y-68630800D02*
X28016200Y-75971400D01*
X102387400Y-62128400D02*
X105562400Y-65303400D01*
X36753800Y-81610200D02*
X37465000Y-80899000D01*
X105562400Y-65303400D02*
X105562400Y-70746200D01*
X105562400Y-70746200D02*
X102412800Y-73895800D01*
X105359200Y-48387000D02*
X105359200Y-53906000D01*
%TO.N,col3r*%
X71101800Y-80510800D02*
X68072000Y-80510800D01*
X84353400Y-55143400D02*
X87884000Y-58674000D01*
X38658800Y-82270600D02*
X39039800Y-81889600D01*
X84378800Y-38684200D02*
X87757000Y-42062400D01*
X18722000Y-67986453D02*
X27228800Y-76493253D01*
X18722000Y-67502800D02*
X18722000Y-67986453D01*
X84378800Y-67233800D02*
X71101800Y-80510800D01*
X87884000Y-63507200D02*
X84378800Y-67012400D01*
X87757000Y-42062400D02*
X87757000Y-46616200D01*
X29438600Y-82270600D02*
X38658800Y-82270600D01*
X27228800Y-76493253D02*
X27228800Y-80340200D01*
X83652400Y-32878400D02*
X84353400Y-32878400D01*
X87757000Y-46616200D02*
X84353400Y-50019800D01*
X87884000Y-58674000D02*
X87884000Y-63507200D01*
X84353400Y-50019800D02*
X84353400Y-55143400D01*
X27228800Y-80340200D02*
X29159200Y-82270600D01*
X84378800Y-67012400D02*
X84378800Y-67233800D01*
X84378800Y-33001800D02*
X84378800Y-38684200D01*
X29159200Y-82270600D02*
X29438600Y-82270600D01*
%TO.N,col4r*%
X62796000Y-75869800D02*
X53835606Y-75869800D01*
X70307200Y-68358600D02*
X66344800Y-72321000D01*
X66344800Y-43408600D02*
X69545200Y-46609000D01*
X53835606Y-75869800D02*
X46250368Y-83455038D01*
X29260800Y-83464400D02*
X26314400Y-80518000D01*
X26314400Y-77635200D02*
X18722000Y-70042800D01*
X66344800Y-60299600D02*
X70307200Y-64262000D01*
X70307200Y-64262000D02*
X70307200Y-68358600D01*
X69545200Y-52128000D02*
X66344800Y-55328400D01*
X69545200Y-46609000D02*
X69545200Y-52128000D01*
X66344800Y-72321000D02*
X62796000Y-75869800D01*
X66344800Y-38259600D02*
X66344800Y-43408600D01*
X26314400Y-80518000D02*
X26314400Y-77635200D01*
X66344800Y-55328400D02*
X66344800Y-60299600D01*
X36779200Y-83464400D02*
X29260800Y-83464400D01*
%TO.N,col5r*%
X51638200Y-71533600D02*
X48310800Y-74861000D01*
X48303600Y-74861000D02*
X35382200Y-87782400D01*
X48336200Y-40850400D02*
X48336200Y-46329600D01*
X48336200Y-57843000D02*
X48336200Y-63601600D01*
X51155600Y-55023600D02*
X48336200Y-57843000D01*
X51638200Y-66903600D02*
X51638200Y-71533600D01*
X25200435Y-91334765D02*
X25200435Y-93078933D01*
X25200435Y-79061235D02*
X25200435Y-93078933D01*
X18722000Y-72582800D02*
X25200435Y-79061235D01*
X48336200Y-46329600D02*
X51155600Y-49149000D01*
X51155600Y-49149000D02*
X51155600Y-55023600D01*
X48310800Y-74861000D02*
X48303600Y-74861000D01*
X48336200Y-63601600D02*
X51638200Y-66903600D01*
X28752800Y-87782400D02*
X25200435Y-91334765D01*
X35382200Y-87782400D02*
X28752800Y-87782400D01*
%TD*%
M02*
