M48
; DRILL file {KiCad (6.0.5-0)} date Wednesday, June 22, 2022 at 07:02:10 PM
; FORMAT={-:-/ absolute / inch / decimal}
; #@! TF.CreationDate,2022-06-22T19:02:10-07:00
; #@! TF.GenerationSoftware,Kicad,Pcbnew,(6.0.5-0)
; #@! TF.FileFunction,Plated,1,2,PTH
FMAT,2
INCH
; #@! TA.AperFunction,Plated,PTH,ViaDrill
T1C0.0157
; #@! TA.AperFunction,Plated,PTH,ComponentDrill
T2C0.0320
; #@! TA.AperFunction,Plated,PTH,ComponentDrill
T3C0.0512
; #@! TA.AperFunction,Plated,PTH,ComponentDrill
T4C0.0598
; #@! TA.AperFunction,Plated,PTH,ComponentDrill
T5C0.0866
%
G90
G05
T1
X1.448Y-3.286
X1.537Y-3.224
X1.591Y-3.191
X1.619Y-3.145
X1.787Y-1.419
X1.787Y-1.621
X3.041Y-3.033
X3.21Y-1.109
X3.21Y-1.306
X7.0913Y-3.1816
X8.5503Y-3.1226
X8.6013Y-3.1566
X8.6353Y-3.2086
X8.6743Y-3.2496
T2
X0.7371Y-1.9576
X0.7371Y-2.0576
X0.7371Y-2.1576
X0.7371Y-2.2576
X0.7371Y-2.3576
X0.7371Y-2.4576
X0.7371Y-2.5576
X0.7371Y-2.6576
X0.7371Y-2.7576
X0.7371Y-2.8576
X0.7371Y-2.9576
X0.7371Y-3.0576
X0.789Y-1.873
X1.268Y-1.875
X1.3363Y-1.9576
X1.3363Y-2.0576
X1.3363Y-2.1576
X1.3363Y-2.2576
X1.3363Y-2.3576
X1.3363Y-2.4576
X1.3363Y-2.5576
X1.3363Y-2.6576
X1.3363Y-2.7576
X1.3363Y-2.8576
X1.3363Y-2.9576
X1.3363Y-3.0576
X8.9916Y-1.9722
X8.9916Y-2.0722
X8.9916Y-2.1722
X8.9916Y-2.2722
X8.9916Y-2.3722
X8.9916Y-2.4722
X8.9916Y-2.5722
X8.9916Y-2.6722
X8.9916Y-2.7722
X8.9916Y-2.8722
X8.9916Y-2.9722
X8.9916Y-3.0722
X9.0473Y-1.8756
X9.5253Y-1.8776
X9.5908Y-1.9722
X9.5908Y-2.0722
X9.5908Y-2.1722
X9.5908Y-2.2722
X9.5908Y-2.3722
X9.5908Y-2.4722
X9.5908Y-2.5722
X9.5908Y-2.6722
X9.5908Y-2.7722
X9.5908Y-2.8722
X9.5908Y-2.9722
X9.5908Y-3.0722
T3
X0.838Y-3.237
X0.838Y-3.493
X9.4873Y-3.2577
X9.4873Y-3.5136
T4
X0.9921Y-3.6645
X1.2008Y-3.6193
X1.7051Y-2.8646
X1.7061Y-1.5256
X1.7061Y-2.1946
X1.8209Y-3.2856
X1.902Y-2.9473
X1.903Y-1.6083
X1.903Y-2.2773
X2.0324Y-3.3145
X2.4151Y-1.4236
X2.4151Y-2.0956
X2.4151Y-2.7646
X2.612Y-1.5063
X2.612Y-2.1783
X2.612Y-2.8473
X2.68Y-3.1697
X2.8769Y-3.2524
X3.1241Y-1.8866
X3.1251Y-1.2166
X3.1251Y-2.5556
X3.321Y-1.9693
X3.322Y-1.2993
X3.322Y-2.6383
X3.8341Y-1.4856
X3.8341Y-2.1566
X3.8351Y-2.8266
X4.031Y-1.5683
X4.031Y-2.2393
X4.032Y-2.9093
X4.5431Y-1.9596
X4.5431Y-2.6286
X4.5431Y-3.2976
X4.74Y-2.0423
X4.74Y-2.7113
X4.74Y-3.3803
X5.3835Y-1.9672
X5.3835Y-2.6402
X5.3845Y-3.3142
X5.5803Y-2.0499
X5.5803Y-2.7229
X5.5813Y-3.3969
X6.0915Y-2.1672
X6.0915Y-2.8412
X6.0925Y-1.4932
X6.2883Y-2.2499
X6.2883Y-2.9239
X6.2893Y-1.5759
X6.8005Y-1.8962
X6.8005Y-2.5702
X6.8015Y-1.2232
X6.9973Y-1.9789
X6.9973Y-2.6529
X6.9983Y-1.3059
X7.5095Y-2.1072
X7.5095Y-2.7812
X7.5105Y-1.4332
X7.6543Y-3.1883
X7.7063Y-2.1899
X7.7063Y-2.8639
X7.7073Y-1.5159
X7.8512Y-3.271
X8.2195Y-1.5342
X8.2195Y-2.2082
X8.2195Y-2.8822
X8.4163Y-1.6169
X8.4163Y-2.2909
X8.4163Y-2.9649
X8.5094Y-3.3032
X8.6782Y-3.434
X9.3346Y-3.6793
X9.4484Y-3.86
T5
X2.2168Y-1.6881
X2.9668Y-0.9381
X2.9668Y-2.4381
X3.7168Y-1.6881
X6.622Y-1.7
X7.372Y-0.95
X7.372Y-2.45
X8.122Y-1.7
T0
M30
