%TF.GenerationSoftware,KiCad,Pcbnew,(6.0.5-0)*%
%TF.CreationDate,2022-12-11T16:32:45-08:00*%
%TF.ProjectId,Swept_3x5,53776570-745f-4337-9835-2e6b69636164,rev?*%
%TF.SameCoordinates,Original*%
%TF.FileFunction,Soldermask,Top*%
%TF.FilePolarity,Negative*%
%FSLAX46Y46*%
G04 Gerber Fmt 4.6, Leading zero omitted, Abs format (unit mm)*
G04 Created by KiCad (PCBNEW (6.0.5-0)) date 2022-12-11 16:32:45*
%MOMM*%
%LPD*%
G01*
G04 APERTURE LIST*
%ADD10C,1.701800*%
%ADD11C,3.000000*%
%ADD12C,3.429000*%
%ADD13C,2.032000*%
%ADD14C,0.500000*%
%ADD15C,2.000000*%
%ADD16C,4.400000*%
%ADD17R,1.700000X1.700000*%
%ADD18O,1.700000X1.700000*%
%ADD19C,1.397000*%
%ADD20C,0.900000*%
G04 APERTURE END LIST*
D10*
%TO.C,SW16*%
X156997201Y-68120233D03*
D11*
X162497201Y-62170233D03*
X167497201Y-64370233D03*
D12*
X162497201Y-68120233D03*
D10*
X167997201Y-68120233D03*
D13*
X162497201Y-74020233D03*
X157497201Y-71920233D03*
%TD*%
D11*
%TO.C,SW20*%
X192193601Y-90386833D03*
D10*
X191693601Y-86636833D03*
D11*
X197193601Y-92586833D03*
D10*
X202693601Y-86636833D03*
D12*
X197193601Y-86636833D03*
D13*
X197193601Y-80736833D03*
X202193601Y-82836833D03*
%TD*%
D11*
%TO.C,SW15*%
X149539401Y-76384433D03*
D10*
X150039401Y-80134433D03*
D11*
X144539401Y-74184433D03*
D12*
X144539401Y-80134433D03*
D10*
X139039401Y-80134433D03*
D13*
X144539401Y-86034433D03*
X139539401Y-83934433D03*
%TD*%
D11*
%TO.C,SW21*%
X215846628Y-95101892D03*
D12*
X217386601Y-89354633D03*
D10*
X222699193Y-90778138D03*
D11*
X211586400Y-91682760D03*
D10*
X212074009Y-87931128D03*
D13*
X218913633Y-83655671D03*
X223199743Y-86978210D03*
%TD*%
D12*
%TO.C,SW17*%
X180505801Y-61236833D03*
D11*
X185505801Y-57486833D03*
D10*
X186005801Y-61236833D03*
D11*
X180505801Y-55286833D03*
D10*
X175005801Y-61236833D03*
D13*
X180505801Y-67136833D03*
X175505801Y-65036833D03*
%TD*%
D12*
%TO.C,SW18*%
X198514401Y-66596233D03*
D10*
X193014401Y-66596233D03*
X204014401Y-66596233D03*
D11*
X198514401Y-60646233D03*
X203514401Y-62846233D03*
D13*
X198514401Y-72496233D03*
X193514401Y-70396233D03*
%TD*%
D12*
%TO.C,SW4*%
X162522601Y-33881033D03*
D11*
X162522601Y-39831033D03*
X157522601Y-37631033D03*
D10*
X168022601Y-33881033D03*
X157022601Y-33881033D03*
D13*
X162522601Y-27981033D03*
X167522601Y-30081033D03*
%TD*%
D12*
%TO.C,SW3*%
X144514001Y-45920633D03*
D10*
X150014001Y-45920633D03*
D11*
X149514001Y-42170633D03*
D10*
X139014001Y-45920633D03*
D11*
X144514001Y-39970633D03*
D13*
X144514001Y-51820633D03*
X139514001Y-49720633D03*
%TD*%
D10*
%TO.C,SW9*%
X139014001Y-63014833D03*
D11*
X149514001Y-59264833D03*
D10*
X150014001Y-63014833D03*
D11*
X144514001Y-57064833D03*
D12*
X144514001Y-63014833D03*
D13*
X144514001Y-68914833D03*
X139514001Y-66814833D03*
%TD*%
D10*
%TO.C,SW12*%
X193014401Y-49476633D03*
D11*
X198514401Y-55426633D03*
D10*
X204014401Y-49476633D03*
D11*
X193514401Y-53226633D03*
D12*
X198514401Y-49476633D03*
D13*
X198514401Y-43576633D03*
X203514401Y-45676633D03*
%TD*%
D11*
%TO.C,SW11*%
X180505801Y-38167233D03*
D10*
X175005801Y-44117233D03*
X186005801Y-44117233D03*
D12*
X180505801Y-44117233D03*
D11*
X185505801Y-40367233D03*
D13*
X180505801Y-50017233D03*
X175505801Y-47917233D03*
%TD*%
D11*
%TO.C,SW6*%
X203539801Y-28607033D03*
X198539801Y-26407033D03*
D10*
X204039801Y-32357033D03*
D12*
X198539801Y-32357033D03*
D10*
X193039801Y-32357033D03*
D13*
X198539801Y-38257033D03*
X193539801Y-36157033D03*
%TD*%
D12*
%TO.C,SW5*%
X180531201Y-27023033D03*
D10*
X186031201Y-27023033D03*
D11*
X175531201Y-30773033D03*
D10*
X175031201Y-27023033D03*
D11*
X180531201Y-32973033D03*
D13*
X180531201Y-21123033D03*
X185531201Y-23223033D03*
%TD*%
D14*
%TO.C,mouse-bite-2mm-slot*%
X131407601Y-51079167D03*
X131407601Y-48031167D03*
X131407601Y-49047167D03*
X133439601Y-48031167D03*
X133439601Y-49047167D03*
X131407601Y-50063167D03*
X133439601Y-50063167D03*
X133439601Y-51079167D03*
X133439601Y-47015167D03*
X131407601Y-47015167D03*
%TD*%
%TO.C,mouse-bite-2mm-slot*%
X133477000Y-73583448D03*
X133477000Y-70535448D03*
X131445000Y-70535448D03*
X131445000Y-73583448D03*
X131445000Y-71551448D03*
X133477000Y-71551448D03*
X133477000Y-72567448D03*
X131445000Y-69519448D03*
X131445000Y-72567448D03*
X133477000Y-69519448D03*
%TD*%
D15*
%TO.C,RSW1*%
X245492244Y-91954123D03*
X240167756Y-88225877D03*
%TD*%
D10*
%TO.C,SW10*%
X156997201Y-51000633D03*
X167997201Y-51000633D03*
D11*
X162497201Y-45050633D03*
X167497201Y-47250633D03*
D12*
X162497201Y-51000633D03*
D13*
X162497201Y-56900633D03*
X157497201Y-54800633D03*
%TD*%
D16*
%TO.C,REF\u002A\u002A*%
X209072601Y-42933433D03*
X170972601Y-42933433D03*
X190022601Y-23883433D03*
X190022601Y-61983433D03*
%TD*%
D10*
%TO.C,SW17_r1*%
X89878800Y-61112400D03*
X78878800Y-61112400D03*
D11*
X89378800Y-57362400D03*
X84378800Y-55162400D03*
D12*
X84378800Y-61112400D03*
D13*
X84378800Y-67012400D03*
X79378800Y-64912400D03*
%TD*%
D10*
%TO.C,SW11_r1*%
X89853400Y-44119800D03*
X78853400Y-44119800D03*
D11*
X79353400Y-47869800D03*
D12*
X84353400Y-44119800D03*
D11*
X84353400Y-50069800D03*
D13*
X84353400Y-38219800D03*
X89353400Y-40319800D03*
%TD*%
D10*
%TO.C,SW15_r1*%
X114896000Y-79959200D03*
D11*
X120396000Y-74009200D03*
D12*
X120396000Y-79959200D03*
D10*
X125896000Y-79959200D03*
D11*
X125396000Y-76209200D03*
D13*
X120396000Y-85859200D03*
X115396000Y-83759200D03*
%TD*%
D10*
%TO.C,SW18_r1*%
X60844800Y-66421000D03*
D11*
X66344800Y-72371000D03*
D12*
X66344800Y-66421000D03*
D10*
X71844800Y-66421000D03*
D11*
X61344800Y-70171000D03*
D13*
X66344800Y-60521000D03*
X71344800Y-62621000D03*
%TD*%
D10*
%TO.C,SW6_r1*%
X60844800Y-32359600D03*
D11*
X71344800Y-28609600D03*
X66344800Y-26409600D03*
D10*
X71844800Y-32359600D03*
D12*
X66344800Y-32359600D03*
D13*
X66344800Y-38259600D03*
X61344800Y-36159600D03*
%TD*%
D10*
%TO.C,SW5_r1*%
X78878800Y-27101800D03*
X89878800Y-27101800D03*
D11*
X89378800Y-23351800D03*
D12*
X84378800Y-27101800D03*
D11*
X84378800Y-21151800D03*
D13*
X84378800Y-33001800D03*
X79378800Y-30901800D03*
%TD*%
D10*
%TO.C,SW16_r1*%
X96912800Y-67995800D03*
D11*
X102412800Y-62045800D03*
D12*
X102412800Y-67995800D03*
D10*
X107912800Y-67995800D03*
D11*
X107412800Y-64245800D03*
D13*
X102412800Y-73895800D03*
X97412800Y-71795800D03*
%TD*%
D12*
%TO.C,SW4_r1*%
X102387400Y-33934400D03*
D11*
X107387400Y-30184400D03*
X102387400Y-27984400D03*
D10*
X96887400Y-33934400D03*
X107887400Y-33934400D03*
D13*
X102387400Y-39834400D03*
X97387400Y-37734400D03*
%TD*%
D11*
%TO.C,SW13_r1*%
X48336200Y-45993000D03*
D10*
X53836200Y-51943000D03*
D11*
X53336200Y-48193000D03*
D10*
X42836200Y-51943000D03*
D12*
X48336200Y-51943000D03*
D13*
X48336200Y-57843000D03*
X43336200Y-55743000D03*
%TD*%
D11*
%TO.C,SW12_r1*%
X66344800Y-55378400D03*
D10*
X71844800Y-49428400D03*
X60844800Y-49428400D03*
D12*
X66344800Y-49428400D03*
D11*
X61344800Y-53178400D03*
D13*
X66344800Y-43528400D03*
X71344800Y-45628400D03*
%TD*%
D10*
%TO.C,SW3_r1*%
X114896000Y-45974000D03*
D12*
X120396000Y-45974000D03*
D10*
X125896000Y-45974000D03*
D11*
X125396000Y-42224000D03*
X120396000Y-40024000D03*
D13*
X120396000Y-51874000D03*
X115396000Y-49774000D03*
%TD*%
D12*
%TO.C,SW21_r1*%
X47777400Y-89154000D03*
D11*
X49317373Y-94901259D03*
D10*
X42464808Y-90577505D03*
D11*
X43918342Y-94070317D03*
D10*
X53089992Y-87730495D03*
D13*
X46250368Y-83455038D03*
X51623517Y-84189387D03*
%TD*%
D10*
%TO.C,SW9_r1*%
X125896000Y-62966600D03*
D11*
X120396000Y-57016600D03*
D10*
X114896000Y-62966600D03*
D12*
X120396000Y-62966600D03*
D11*
X125396000Y-59216600D03*
D13*
X120396000Y-68866600D03*
X115396000Y-66766600D03*
%TD*%
D11*
%TO.C,SW20_r1*%
X68072000Y-92360800D03*
D10*
X73572000Y-86410800D03*
D11*
X63072000Y-90160800D03*
D12*
X68072000Y-86410800D03*
D10*
X62572000Y-86410800D03*
D13*
X68072000Y-80510800D03*
X73072000Y-82610800D03*
%TD*%
D12*
%TO.C,SW7_r1*%
X48336200Y-34950400D03*
D11*
X53336200Y-31200400D03*
D10*
X42836200Y-34950400D03*
D11*
X48336200Y-29000400D03*
D10*
X53836200Y-34950400D03*
D13*
X48336200Y-40850400D03*
X43336200Y-38750400D03*
%TD*%
D16*
%TO.C,REF\u002A\u002A*%
X94407400Y-42878400D03*
X56307400Y-42878400D03*
X75357400Y-61928400D03*
X75357400Y-23828400D03*
%TD*%
D15*
%TO.C,RSW2*%
X26562244Y-87185877D03*
X21237756Y-90914123D03*
%TD*%
D11*
%TO.C,SW13*%
X216548401Y-46092033D03*
D12*
X216548401Y-52042033D03*
D10*
X222048401Y-52042033D03*
D11*
X221548401Y-48292033D03*
D10*
X211048401Y-52042033D03*
D13*
X216548401Y-57942033D03*
X211548401Y-55842033D03*
%TD*%
D12*
%TO.C,SW22*%
X236487401Y-98041433D03*
D10*
X240992737Y-101196103D03*
D11*
X233074621Y-102915388D03*
D10*
X231982065Y-94886763D03*
D11*
X230240729Y-98245371D03*
D13*
X239871502Y-93208436D03*
X242762752Y-97796537D03*
%TD*%
D17*
%TO.C,J2*%
X21225000Y-82090000D03*
D18*
X23765000Y-82090000D03*
X26305000Y-82090000D03*
X28845000Y-82090000D03*
X31385000Y-82090000D03*
%TD*%
D11*
%TO.C,SW19*%
X221548401Y-65411633D03*
D12*
X216548401Y-69161633D03*
D11*
X216548401Y-63211633D03*
D10*
X211048401Y-69161633D03*
X222048401Y-69161633D03*
D13*
X216548401Y-75061633D03*
X211548401Y-72961633D03*
%TD*%
D17*
%TO.C,J1*%
X233765000Y-82200000D03*
D18*
X236305000Y-82200000D03*
X238845000Y-82200000D03*
X241385000Y-82200000D03*
X243925000Y-82200000D03*
%TD*%
D10*
%TO.C,SW19_r1*%
X53810800Y-68961000D03*
X42810800Y-68961000D03*
D11*
X53310800Y-65211000D03*
D12*
X48310800Y-68961000D03*
D11*
X48310800Y-63011000D03*
D13*
X48310800Y-74861000D03*
X43310800Y-72761000D03*
%TD*%
D19*
%TO.C,Bat+1*%
X232575801Y-47393833D03*
%TD*%
D11*
%TO.C,SW10_r1*%
X102387400Y-45027800D03*
D10*
X96887400Y-50977800D03*
X107887400Y-50977800D03*
D11*
X107387400Y-47227800D03*
D12*
X102387400Y-50977800D03*
D13*
X102387400Y-56877800D03*
X97387400Y-54777800D03*
%TD*%
D10*
%TO.C,SW22_r1*%
X24079200Y-101066600D03*
D11*
X30529385Y-91972228D03*
X25171756Y-93037975D03*
D10*
X33089872Y-94757260D03*
D12*
X28584536Y-97911930D03*
D13*
X31968637Y-102744927D03*
X26668366Y-103892590D03*
%TD*%
D19*
%TO.C,BatGND1*%
X244717001Y-47444633D03*
%TD*%
%TO.C,Bat+r1*%
X20040600Y-47574200D03*
%TD*%
D10*
%TO.C,SW7*%
X211048401Y-34922433D03*
X222048401Y-34922433D03*
D12*
X216548401Y-34922433D03*
D11*
X216548401Y-28972433D03*
X221548401Y-31172433D03*
D13*
X216548401Y-40822433D03*
X211548401Y-38722433D03*
%TD*%
D19*
%TO.C,BatGND4*%
X32207200Y-47625000D03*
%TD*%
D20*
%TO.C,SW_POWER1*%
X237095601Y-48326233D03*
X240095601Y-48326233D03*
%TD*%
%TO.C,SW_POWERR1*%
X27662000Y-48201800D03*
X24662000Y-48201800D03*
%TD*%
M02*
