M48
; DRILL file {KiCad (6.0.5-0)} date Sunday, December 11, 2022 at 04:32:26 PM
; FORMAT={-:-/ absolute / metric / decimal}
; #@! TF.CreationDate,2022-12-11T16:32:26-08:00
; #@! TF.GenerationSoftware,Kicad,Pcbnew,(6.0.5-0)
; #@! TF.FileFunction,NonPlated,1,2,NPTH
FMAT,2
METRIC
; #@! TA.AperFunction,NonPlated,NPTH,ComponentDrill
T1C0.500
; #@! TA.AperFunction,NonPlated,NPTH,ComponentDrill
T2C0.900
; #@! TA.AperFunction,NonPlated,NPTH,ComponentDrill
T3C1.702
; #@! TA.AperFunction,NonPlated,NPTH,ComponentDrill
T4C3.000
; #@! TA.AperFunction,NonPlated,NPTH,ComponentDrill
T5C3.429
%
G90
G05
T1
X131.408Y-47.015
X131.408Y-48.031
X131.408Y-49.047
X131.408Y-50.063
X131.408Y-51.079
X131.445Y-69.519
X131.445Y-70.535
X131.445Y-71.551
X131.445Y-72.567
X131.445Y-73.583
X133.44Y-47.015
X133.44Y-48.031
X133.44Y-49.047
X133.44Y-50.063
X133.44Y-51.079
X133.477Y-69.519
X133.477Y-70.535
X133.477Y-71.551
X133.477Y-72.567
X133.477Y-73.583
T2
X24.662Y-48.202
X27.662Y-48.202
X237.096Y-48.326
X240.096Y-48.326
T3
X24.079Y-101.067
X33.09Y-94.757
X42.465Y-90.578
X42.811Y-68.961
X42.836Y-34.95
X42.836Y-51.943
X53.09Y-87.73
X53.811Y-68.961
X53.836Y-34.95
X53.836Y-51.943
X60.845Y-32.36
X60.845Y-49.428
X60.845Y-66.421
X62.572Y-86.411
X71.845Y-32.36
X71.845Y-49.428
X71.845Y-66.421
X73.572Y-86.411
X78.853Y-44.12
X78.879Y-27.102
X78.879Y-61.112
X89.853Y-44.12
X89.879Y-27.102
X89.879Y-61.112
X96.887Y-33.934
X96.887Y-50.978
X96.913Y-67.996
X107.887Y-33.934
X107.887Y-50.978
X107.913Y-67.996
X114.896Y-45.974
X114.896Y-62.967
X114.896Y-79.959
X125.896Y-45.974
X125.896Y-62.967
X125.896Y-79.959
X139.014Y-45.921
X139.014Y-63.015
X139.039Y-80.134
X150.014Y-45.921
X150.014Y-63.015
X150.039Y-80.134
X156.997Y-51.001
X156.997Y-68.12
X157.023Y-33.881
X167.997Y-51.001
X167.997Y-68.12
X168.023Y-33.881
X175.006Y-44.117
X175.006Y-61.237
X175.031Y-27.023
X186.006Y-44.117
X186.006Y-61.237
X186.031Y-27.023
X191.694Y-86.637
X193.014Y-49.477
X193.014Y-66.596
X193.04Y-32.357
X202.694Y-86.637
X204.014Y-49.477
X204.014Y-66.596
X204.04Y-32.357
X211.048Y-34.922
X211.048Y-52.042
X211.048Y-69.162
X212.074Y-87.931
X222.048Y-34.922
X222.048Y-52.042
X222.048Y-69.162
X222.699Y-90.778
X231.982Y-94.887
X240.993Y-101.196
T4
X25.172Y-93.038
X30.529Y-91.972
X43.918Y-94.07
X48.311Y-63.011
X48.336Y-29.0
X48.336Y-45.993
X49.317Y-94.901
X53.311Y-65.211
X53.336Y-31.2
X53.336Y-48.193
X61.345Y-53.178
X61.345Y-70.171
X63.072Y-90.161
X66.345Y-26.41
X66.345Y-55.378
X66.345Y-72.371
X68.072Y-92.361
X71.345Y-28.61
X79.353Y-47.87
X84.353Y-50.07
X84.379Y-21.152
X84.379Y-55.162
X89.379Y-23.352
X89.379Y-57.362
X102.387Y-27.984
X102.387Y-45.028
X102.413Y-62.046
X107.387Y-30.184
X107.387Y-47.228
X107.413Y-64.246
X120.396Y-40.024
X120.396Y-57.017
X120.396Y-74.009
X125.396Y-42.224
X125.396Y-59.217
X125.396Y-76.209
X144.514Y-39.971
X144.514Y-57.065
X144.539Y-74.184
X149.514Y-42.171
X149.514Y-59.265
X149.539Y-76.384
X157.523Y-37.631
X162.497Y-45.051
X162.497Y-62.17
X162.523Y-39.831
X167.497Y-47.251
X167.497Y-64.37
X175.531Y-30.773
X180.506Y-38.167
X180.506Y-55.287
X180.531Y-32.973
X185.506Y-40.367
X185.506Y-57.487
X192.194Y-90.387
X193.514Y-53.227
X197.194Y-92.587
X198.514Y-55.427
X198.514Y-60.646
X198.54Y-26.407
X203.514Y-62.846
X203.54Y-28.607
X211.586Y-91.683
X215.847Y-95.102
X216.548Y-28.972
X216.548Y-46.092
X216.548Y-63.212
X221.548Y-31.172
X221.548Y-48.292
X221.548Y-65.412
X230.241Y-98.245
X233.075Y-102.915
T5
X28.585Y-97.912
X47.777Y-89.154
X48.311Y-68.961
X48.336Y-34.95
X48.336Y-51.943
X66.345Y-32.36
X66.345Y-49.428
X66.345Y-66.421
X68.072Y-86.411
X84.353Y-44.12
X84.379Y-27.102
X84.379Y-61.112
X102.387Y-33.934
X102.387Y-50.978
X102.413Y-67.996
X120.396Y-45.974
X120.396Y-62.967
X120.396Y-79.959
X144.514Y-45.921
X144.514Y-63.015
X144.539Y-80.134
X162.497Y-51.001
X162.497Y-68.12
X162.523Y-33.881
X180.506Y-44.117
X180.506Y-61.237
X180.531Y-27.023
X197.194Y-86.637
X198.514Y-49.477
X198.514Y-66.596
X198.54Y-32.357
X216.548Y-34.922
X216.548Y-52.042
X216.548Y-69.162
X217.387Y-89.355
X236.487Y-98.041
T0
M30
